<?xml version="1.0" encoding="UTF-8" standalone="no"?>
<!DOCTYPE svg PUBLIC "-//W3C//DTD SVG 1.1//EN"
 "http://www.w3.org/Graphics/SVG/1.1/DTD/svg11.dtd">
<!-- Generated by graphviz version 2.38.0 (20140413.2041)
 -->
<!-- Title: dependency&#45;cruiser output Pages: 1 -->
<svg width="589pt" height="604pt"
 viewBox="0.00 0.00 589.00 604.00" xmlns="http://www.w3.org/2000/svg" xmlns:xlink="http://www.w3.org/1999/xlink">
<g id="graph0" class="graph" transform="scale(1 1) rotate(0) translate(4 600)">
<title>dependency&#45;cruiser output</title>
<polygon fill="white" stroke="none" points="-4,4 -4,-600 585,-600 585,4 -4,4"/>
<g id="clust1" class="cluster"><title>cluster_src</title>
<path fill="#ffffff" stroke="black" stroke-width="2" d="M20,-8C20,-8 561,-8 561,-8 567,-8 573,-14 573,-20 573,-20 573,-576 573,-576 573,-582 567,-588 561,-588 561,-588 20,-588 20,-588 14,-588 8,-582 8,-576 8,-576 8,-20 8,-20 8,-14 14,-8 20,-8"/>
<text text-anchor="middle" x="290.5" y="-576.8" font-family="Helvetica,sans-Serif" font-weight="bold" font-size="9.00">src</text>
</g>
<g id="clust3" class="cluster"><title>cluster_src/components</title>
<path fill="#ffffff" stroke="black" stroke-width="2" d="M90,-16C90,-16 536,-16 536,-16 542,-16 548,-22 548,-28 548,-28 548,-146 548,-146 548,-152 542,-158 536,-158 536,-158 90,-158 90,-158 84,-158 78,-152 78,-146 78,-146 78,-28 78,-28 78,-22 84,-16 90,-16"/>
<text text-anchor="middle" x="313" y="-146.8" font-family="Helvetica,sans-Serif" font-weight="bold" font-size="9.00">components</text>
</g>
<g id="clust2" class="cluster"><title>cluster_src/actions</title>
<path fill="#ffffff" stroke="black" stroke-width="2" d="M396,-166C396,-166 442,-166 442,-166 448,-166 454,-172 454,-178 454,-178 454,-236 454,-236 454,-242 448,-248 442,-248 442,-248 396,-248 396,-248 390,-248 384,-242 384,-236 384,-236 384,-178 384,-178 384,-172 390,-166 396,-166"/>
<text text-anchor="middle" x="419" y="-236.8" font-family="Helvetica,sans-Serif" font-weight="bold" font-size="9.00">actions</text>
</g>
<g id="clust5" class="cluster"><title>cluster_src/scenes</title>
<path fill="#ffffff" stroke="black" stroke-width="2" d="M175,-256C175,-256 553,-256 553,-256 559,-256 565,-262 565,-268 565,-268 565,-340 565,-340 565,-346 559,-352 553,-352 553,-352 175,-352 175,-352 169,-352 163,-346 163,-340 163,-340 163,-268 163,-268 163,-262 169,-256 175,-256"/>
<text text-anchor="middle" x="364" y="-340.8" font-family="Helvetica,sans-Serif" font-weight="bold" font-size="9.00">scenes</text>
</g>
<g id="clust4" class="cluster"><title>cluster_src/reducers</title>
<path fill="#ffffff" stroke="black" stroke-width="2" d="M94,-450C94,-450 269,-450 269,-450 275,-450 281,-456 281,-462 281,-462 281,-550 281,-550 281,-556 275,-562 269,-562 269,-562 94,-562 94,-562 88,-562 82,-556 82,-550 82,-550 82,-462 82,-462 82,-456 88,-450 94,-450"/>
<text text-anchor="middle" x="181.5" y="-550.8" font-family="Helvetica,sans-Serif" font-weight="bold" font-size="9.00">reducers</text>
</g>
<g id="clust6" class="cluster"><title>cluster_src/store</title>
<path fill="#ffffff" stroke="black" stroke-width="2" d="M186.5,-360C186.5,-360 247.5,-360 247.5,-360 253.5,-360 259.5,-366 259.5,-372 259.5,-372 259.5,-430 259.5,-430 259.5,-436 253.5,-442 247.5,-442 247.5,-442 186.5,-442 186.5,-442 180.5,-442 174.5,-436 174.5,-430 174.5,-430 174.5,-372 174.5,-372 174.5,-366 180.5,-360 186.5,-360"/>
<text text-anchor="middle" x="217" y="-430.8" font-family="Helvetica,sans-Serif" font-weight="bold" font-size="9.00">store</text>
</g>
<!-- src/actions/Core.js -->
<g id="node1" class="node"><title>src/actions/Core.js</title>
<g id="a_node1"><a xlink:href="src/actions/Core.js" xlink:title="Core.js">
<path fill="#ffffcc" stroke="black" d="M440,-192C440,-192 398,-192 398,-192 395,-192 392,-189 392,-186 392,-186 392,-180 392,-180 392,-177 395,-174 398,-174 398,-174 440,-174 440,-174 443,-174 446,-177 446,-180 446,-180 446,-186 446,-186 446,-189 443,-192 440,-192"/>
<text text-anchor="middle" x="419" y="-180.8" font-family="Helvetica,sans-Serif" font-size="9.00">Core.js</text>
</a>
</g>
</g>
<!-- src/scenes/sceneFunctions.js -->
<g id="node21" class="node"><title>src/scenes/sceneFunctions.js</title>
<g id="a_node21"><a xlink:href="src/scenes/sceneFunctions.js" xlink:title="sceneFunctions.js">
<path fill="#ffffcc" stroke="black" d="M257,-293C257,-293 177,-293 177,-293 174,-293 171,-290 171,-287 171,-287 171,-281 171,-281 171,-278 174,-275 177,-275 177,-275 257,-275 257,-275 260,-275 263,-278 263,-281 263,-281 263,-287 263,-287 263,-290 260,-293 257,-293"/>
<text text-anchor="middle" x="217" y="-281.8" font-family="Helvetica,sans-Serif" font-size="9.00">sceneFunctions.js</text>
</a>
</g>
</g>
<!-- src/actions/Core.js&#45;&gt;src/scenes/sceneFunctions.js -->
<g id="edge1" class="edge"><title>src/actions/Core.js&#45;&gt;src/scenes/sceneFunctions.js</title>
<path fill="none" stroke="#000000" stroke-width="2" stroke-opacity="0.200000" d="M395.398,-192.059C390.926,-193.952 386.29,-195.986 382,-198 331.889,-221.523 274.994,-252.309 243.112,-269.946"/>
<polygon fill="#000000" fill-opacity="0.200000" stroke="#000000" stroke-width="2" stroke-opacity="0.200000" points="241.099,-267.06 234.055,-274.975 244.497,-273.18 241.099,-267.06"/>
</g>
<!-- src/actions/UI.js -->
<g id="node2" class="node"><title>src/actions/UI.js</title>
<g id="a_node2"><a xlink:href="src/actions/UI.js" xlink:title="UI.js">
<path fill="#ffffcc" stroke="black" d="M440,-222C440,-222 398,-222 398,-222 395,-222 392,-219 392,-216 392,-216 392,-210 392,-210 392,-207 395,-204 398,-204 398,-204 440,-204 440,-204 443,-204 446,-207 446,-210 446,-210 446,-216 446,-216 446,-219 443,-222 440,-222"/>
<text text-anchor="middle" x="419" y="-210.8" font-family="Helvetica,sans-Serif" font-size="9.00">UI.js</text>
</a>
</g>
</g>
<!-- src/components/appRoot.js -->
<g id="node3" class="node"><title>src/components/appRoot.js</title>
<g id="a_node3"><a xlink:href="src/components/appRoot.js" xlink:title="appRoot.js">
<path fill="#ffffcc" stroke="black" d="M142,-102C142,-102 92,-102 92,-102 89,-102 86,-99 86,-96 86,-96 86,-90 86,-90 86,-87 89,-84 92,-84 92,-84 142,-84 142,-84 145,-84 148,-87 148,-90 148,-90 148,-96 148,-96 148,-99 145,-102 142,-102"/>
<text text-anchor="middle" x="117" y="-90.8" font-family="Helvetica,sans-Serif" font-size="9.00">appRoot.js</text>
</a>
</g>
</g>
<!-- src/components/lowerButtons.js -->
<g id="node7" class="node"><title>src/components/lowerButtons.js</title>
<g id="a_node7"><a xlink:href="src/components/lowerButtons.js" xlink:title="lowerButtons.js">
<path fill="#ffffcc" stroke="black" d="M251,-42C251,-42 183,-42 183,-42 180,-42 177,-39 177,-36 177,-36 177,-30 177,-30 177,-27 180,-24 183,-24 183,-24 251,-24 251,-24 254,-24 257,-27 257,-30 257,-30 257,-36 257,-36 257,-39 254,-42 251,-42"/>
<text text-anchor="middle" x="217" y="-30.8" font-family="Helvetica,sans-Serif" font-size="9.00">lowerButtons.js</text>
</a>
</g>
</g>
<!-- src/components/appRoot.js&#45;&gt;src/components/lowerButtons.js -->
<g id="edge2" class="edge"><title>src/components/appRoot.js&#45;&gt;src/components/lowerButtons.js</title>
<path fill="none" stroke="#000000" stroke-width="2" stroke-opacity="0.200000" d="M124.221,-83.9967C131.759,-73.7665 145.403,-57.2897 161,-48 162.969,-46.8272 165.032,-45.7439 167.155,-44.7434"/>
<polygon fill="#000000" fill-opacity="0.200000" stroke="#000000" stroke-width="2" stroke-opacity="0.200000" points="168.791,-47.8576 176.752,-40.8669 166.169,-41.367 168.791,-47.8576"/>
</g>
<!-- src/components/menuBar.js -->
<g id="node8" class="node"><title>src/components/menuBar.js</title>
<g id="a_node8"><a xlink:href="src/components/menuBar.js" xlink:title="menuBar.js">
<path fill="#ffffcc" stroke="black" d="M243.5,-72C243.5,-72 190.5,-72 190.5,-72 187.5,-72 184.5,-69 184.5,-66 184.5,-66 184.5,-60 184.5,-60 184.5,-57 187.5,-54 190.5,-54 190.5,-54 243.5,-54 243.5,-54 246.5,-54 249.5,-57 249.5,-60 249.5,-60 249.5,-66 249.5,-66 249.5,-69 246.5,-72 243.5,-72"/>
<text text-anchor="middle" x="217" y="-60.8" font-family="Helvetica,sans-Serif" font-size="9.00">menuBar.js</text>
</a>
</g>
</g>
<!-- src/components/appRoot.js&#45;&gt;src/components/menuBar.js -->
<g id="edge3" class="edge"><title>src/components/appRoot.js&#45;&gt;src/components/menuBar.js</title>
<path fill="none" stroke="#000000" stroke-width="2" stroke-opacity="0.200000" d="M142.914,-83.9804C148.818,-81.9347 155.11,-79.8281 161,-78 165.372,-76.6431 169.959,-75.2869 174.541,-73.9754"/>
<polygon fill="#000000" fill-opacity="0.200000" stroke="#000000" stroke-width="2" stroke-opacity="0.200000" points="175.793,-77.2597 184.479,-71.193 173.906,-70.5189 175.793,-77.2597"/>
</g>
<!-- src/components/output.js -->
<g id="node9" class="node"><title>src/components/output.js</title>
<g id="a_node9"><a xlink:href="src/components/output.js" xlink:title="output.js">
<path fill="#ffffcc" stroke="black" d="M238,-102C238,-102 196,-102 196,-102 193,-102 190,-99 190,-96 190,-96 190,-90 190,-90 190,-87 193,-84 196,-84 196,-84 238,-84 238,-84 241,-84 244,-87 244,-90 244,-90 244,-96 244,-96 244,-99 241,-102 238,-102"/>
<text text-anchor="middle" x="217" y="-90.8" font-family="Helvetica,sans-Serif" font-size="9.00">output.js</text>
</a>
</g>
</g>
<!-- src/components/appRoot.js&#45;&gt;src/components/output.js -->
<g id="edge4" class="edge"><title>src/components/appRoot.js&#45;&gt;src/components/output.js</title>
<path fill="none" stroke="#000000" stroke-width="2" stroke-opacity="0.200000" d="M148.203,-93C158.157,-93 169.332,-93 179.693,-93"/>
<polygon fill="#000000" fill-opacity="0.200000" stroke="#000000" stroke-width="2" stroke-opacity="0.200000" points="179.708,-96.5001 189.708,-93 179.708,-89.5001 179.708,-96.5001"/>
</g>
<!-- src/components/statBar.js -->
<g id="node11" class="node"><title>src/components/statBar.js</title>
<g id="a_node11"><a xlink:href="src/components/statBar.js" xlink:title="statBar.js">
<path fill="#ffffcc" stroke="black" d="M239,-132C239,-132 195,-132 195,-132 192,-132 189,-129 189,-126 189,-126 189,-120 189,-120 189,-117 192,-114 195,-114 195,-114 239,-114 239,-114 242,-114 245,-117 245,-120 245,-120 245,-126 245,-126 245,-129 242,-132 239,-132"/>
<text text-anchor="middle" x="217" y="-120.8" font-family="Helvetica,sans-Serif" font-size="9.00">statBar.js</text>
</a>
</g>
</g>
<!-- src/components/appRoot.js&#45;&gt;src/components/statBar.js -->
<g id="edge5" class="edge"><title>src/components/appRoot.js&#45;&gt;src/components/statBar.js</title>
<path fill="none" stroke="#000000" stroke-width="2" stroke-opacity="0.200000" d="M142.914,-102.02C148.818,-104.065 155.11,-106.172 161,-108 166.753,-109.785 172.879,-111.57 178.875,-113.253"/>
<polygon fill="#000000" fill-opacity="0.200000" stroke="#000000" stroke-width="2" stroke-opacity="0.200000" points="178.186,-116.693 188.756,-115.971 180.043,-109.944 178.186,-116.693"/>
</g>
<!-- src/components/button.js -->
<g id="node4" class="node"><title>src/components/button.js</title>
<g id="a_node4"><a xlink:href="src/components/button.js" xlink:title="button.js">
<path fill="#ffffcc" stroke="black" d="M534,-42C534,-42 492,-42 492,-42 489,-42 486,-39 486,-36 486,-36 486,-30 486,-30 486,-27 489,-24 492,-24 492,-24 534,-24 534,-24 537,-24 540,-27 540,-30 540,-30 540,-36 540,-36 540,-39 537,-42 534,-42"/>
<text text-anchor="middle" x="513" y="-30.8" font-family="Helvetica,sans-Serif" font-size="9.00">button.js</text>
</a>
</g>
</g>
<!-- src/components/buttonGrid.js -->
<g id="node5" class="node"><title>src/components/buttonGrid.js</title>
<g id="a_node5"><a xlink:href="src/components/buttonGrid.js" xlink:title="buttonGrid.js">
<path fill="#ffffcc" stroke="black" d="M357.5,-42C357.5,-42 300.5,-42 300.5,-42 297.5,-42 294.5,-39 294.5,-36 294.5,-36 294.5,-30 294.5,-30 294.5,-27 297.5,-24 300.5,-24 300.5,-24 357.5,-24 357.5,-24 360.5,-24 363.5,-27 363.5,-30 363.5,-30 363.5,-36 363.5,-36 363.5,-39 360.5,-42 357.5,-42"/>
<text text-anchor="middle" x="329" y="-30.8" font-family="Helvetica,sans-Serif" font-size="9.00">buttonGrid.js</text>
</a>
</g>
</g>
<!-- src/components/buttonGrid.js&#45;&gt;src/actions/Core.js -->
<g id="edge6" class="edge"><title>src/components/buttonGrid.js&#45;&gt;src/actions/Core.js</title>
<path fill="none" stroke="#000000" stroke-width="2" stroke-opacity="0.200000" d="M362.646,-42.1164C365.049,-43.7627 367.223,-45.706 369,-48 399.958,-87.9653 354.788,-118.395 382,-161 383.589,-163.488 385.571,-165.739 387.782,-167.764"/>
<polygon fill="#000000" fill-opacity="0.200000" stroke="#000000" stroke-width="2" stroke-opacity="0.200000" points="385.824,-170.669 395.944,-173.803 389.987,-165.042 385.824,-170.669"/>
</g>
<!-- src/components/buttonGrid.js&#45;&gt;src/actions/UI.js -->
<g id="edge7" class="edge"><title>src/components/buttonGrid.js&#45;&gt;src/actions/UI.js</title>
<path fill="none" stroke="#000000" stroke-width="2" stroke-opacity="0.200000" d="M362.715,-42.0636C365.104,-43.7209 367.255,-45.6813 369,-48 389.116,-74.7358 362.255,-170.989 382,-198 382.559,-198.765 383.165,-199.492 383.811,-200.181"/>
<polygon fill="#000000" fill-opacity="0.200000" stroke="#000000" stroke-width="2" stroke-opacity="0.200000" points="381.833,-203.072 391.94,-206.247 386.019,-197.462 381.833,-203.072"/>
</g>
<!-- src/components/buttonWrap.js -->
<g id="node6" class="node"><title>src/components/buttonWrap.js</title>
<g id="a_node6"><a xlink:href="src/components/buttonWrap.js" xlink:title="buttonWrap.js">
<path fill="#ffffcc" stroke="black" d="M450,-42C450,-42 388,-42 388,-42 385,-42 382,-39 382,-36 382,-36 382,-30 382,-30 382,-27 385,-24 388,-24 388,-24 450,-24 450,-24 453,-24 456,-27 456,-30 456,-30 456,-36 456,-36 456,-39 453,-42 450,-42"/>
<text text-anchor="middle" x="419" y="-30.8" font-family="Helvetica,sans-Serif" font-size="9.00">buttonWrap.js</text>
</a>
</g>
</g>
<!-- src/components/buttonGrid.js&#45;&gt;src/components/buttonWrap.js -->
<g id="edge8" class="edge"><title>src/components/buttonGrid.js&#45;&gt;src/components/buttonWrap.js</title>
<path fill="none" stroke="#000000" stroke-width="2" stroke-opacity="0.200000" d="M363.52,-33C366.249,-33 369.035,-33 371.833,-33"/>
<polygon fill="#000000" fill-opacity="0.200000" stroke="#000000" stroke-width="2" stroke-opacity="0.200000" points="371.935,-36.5001 381.935,-33 371.935,-29.5001 371.935,-36.5001"/>
</g>
<!-- src/components/buttonWrap.js&#45;&gt;src/components/button.js -->
<g id="edge9" class="edge"><title>src/components/buttonWrap.js&#45;&gt;src/components/button.js</title>
<path fill="none" stroke="#000000" stroke-width="2" stroke-opacity="0.200000" d="M456.097,-33C462.482,-33 469.135,-33 475.53,-33"/>
<polygon fill="#000000" fill-opacity="0.200000" stroke="#000000" stroke-width="2" stroke-opacity="0.200000" points="475.958,-36.5001 485.958,-33 475.958,-29.5001 475.958,-36.5001"/>
</g>
<!-- src/components/lowerButtons.js&#45;&gt;src/components/buttonGrid.js -->
<g id="edge10" class="edge"><title>src/components/lowerButtons.js&#45;&gt;src/components/buttonGrid.js</title>
<path fill="none" stroke="#000000" stroke-width="2" stroke-opacity="0.200000" d="M257.092,-33C265.88,-33 275.261,-33 284.226,-33"/>
<polygon fill="#000000" fill-opacity="0.200000" stroke="#000000" stroke-width="2" stroke-opacity="0.200000" points="284.499,-36.5001 294.499,-33 284.499,-29.5001 284.499,-36.5001"/>
</g>
<!-- src/components/menuBar.js&#45;&gt;src/components/buttonGrid.js -->
<g id="edge11" class="edge"><title>src/components/menuBar.js&#45;&gt;src/components/buttonGrid.js</title>
<path fill="none" stroke="#000000" stroke-width="2" stroke-opacity="0.200000" d="M249.523,-55.985C259.619,-53.6074 270.818,-50.8326 281,-48 284.319,-47.0767 287.755,-46.0733 291.189,-45.0378"/>
<polygon fill="#000000" fill-opacity="0.200000" stroke="#000000" stroke-width="2" stroke-opacity="0.200000" points="292.248,-48.374 300.766,-42.074 290.178,-41.6869 292.248,-48.374"/>
</g>
<!-- src/components/spriteDisplay.js -->
<g id="node10" class="node"><title>src/components/spriteDisplay.js</title>
<g id="a_node10"><a xlink:href="src/components/spriteDisplay.js" xlink:title="spriteDisplay.js">
<path fill="#ffffcc" stroke="black" d="M363,-72C363,-72 295,-72 295,-72 292,-72 289,-69 289,-66 289,-66 289,-60 289,-60 289,-57 292,-54 295,-54 295,-54 363,-54 363,-54 366,-54 369,-57 369,-60 369,-60 369,-66 369,-66 369,-69 366,-72 363,-72"/>
<text text-anchor="middle" x="329" y="-60.8" font-family="Helvetica,sans-Serif" font-size="9.00">spriteDisplay.js</text>
</a>
</g>
</g>
<!-- src/components/statBar.js&#45;&gt;src/components/spriteDisplay.js -->
<g id="edge12" class="edge"><title>src/components/statBar.js&#45;&gt;src/components/spriteDisplay.js</title>
<path fill="none" stroke="#000000" stroke-width="2" stroke-opacity="0.200000" d="M245.214,-122.651C257.605,-121.098 271.574,-117.176 281,-108 289.111,-100.104 283.091,-91.8814 289.663,-80.2981"/>
<polygon fill="#000000" fill-opacity="0.200000" stroke="#000000" stroke-width="2" stroke-opacity="0.200000" points="292.629,-82.1895 296.074,-72.1706 287.133,-77.8539 292.629,-82.1895"/>
</g>
<!-- src/components/statDisplay.js -->
<g id="node12" class="node"><title>src/components/statDisplay.js</title>
<g id="a_node12"><a xlink:href="src/components/statDisplay.js" xlink:title="statDisplay.js">
<path fill="#ffffcc" stroke="black" d="M359,-102C359,-102 299,-102 299,-102 296,-102 293,-99 293,-96 293,-96 293,-90 293,-90 293,-87 296,-84 299,-84 299,-84 359,-84 359,-84 362,-84 365,-87 365,-90 365,-90 365,-96 365,-96 365,-99 362,-102 359,-102"/>
<text text-anchor="middle" x="329" y="-90.8" font-family="Helvetica,sans-Serif" font-size="9.00">statDisplay.js</text>
</a>
</g>
</g>
<!-- src/components/statBar.js&#45;&gt;src/components/statDisplay.js -->
<g id="edge13" class="edge"><title>src/components/statBar.js&#45;&gt;src/components/statDisplay.js</title>
<path fill="none" stroke="#000000" stroke-width="2" stroke-opacity="0.200000" d="M245.093,-117.02C256.261,-114.433 269.302,-111.254 281,-108 284.319,-107.077 287.755,-106.073 291.189,-105.038"/>
<polygon fill="#000000" fill-opacity="0.200000" stroke="#000000" stroke-width="2" stroke-opacity="0.200000" points="292.248,-108.374 300.766,-102.074 290.178,-101.687 292.248,-108.374"/>
</g>
<!-- src/components/timeDisplay.js -->
<g id="node13" class="node"><title>src/components/timeDisplay.js</title>
<g id="a_node13"><a xlink:href="src/components/timeDisplay.js" xlink:title="timeDisplay.js">
<path fill="#ffffcc" stroke="black" d="M360.5,-132C360.5,-132 297.5,-132 297.5,-132 294.5,-132 291.5,-129 291.5,-126 291.5,-126 291.5,-120 291.5,-120 291.5,-117 294.5,-114 297.5,-114 297.5,-114 360.5,-114 360.5,-114 363.5,-114 366.5,-117 366.5,-120 366.5,-120 366.5,-126 366.5,-126 366.5,-129 363.5,-132 360.5,-132"/>
<text text-anchor="middle" x="329" y="-120.8" font-family="Helvetica,sans-Serif" font-size="9.00">timeDisplay.js</text>
</a>
</g>
</g>
<!-- src/components/statBar.js&#45;&gt;src/components/timeDisplay.js -->
<g id="edge14" class="edge"><title>src/components/statBar.js&#45;&gt;src/components/timeDisplay.js</title>
<path fill="none" stroke="#000000" stroke-width="2" stroke-opacity="0.200000" d="M245.191,-123C256.027,-123 268.816,-123 281.061,-123"/>
<polygon fill="#000000" fill-opacity="0.200000" stroke="#000000" stroke-width="2" stroke-opacity="0.200000" points="281.164,-126.5 291.164,-123 281.164,-119.5 281.164,-126.5"/>
</g>
<!-- src/index.js -->
<g id="node14" class="node"><title>src/index.js</title>
<g id="a_node14"><a xlink:href="src/index.js" xlink:title="index.js">
<path fill="#ffffcc" stroke="black" d="M64,-191C64,-191 22,-191 22,-191 19,-191 16,-188 16,-185 16,-185 16,-179 16,-179 16,-176 19,-173 22,-173 22,-173 64,-173 64,-173 67,-173 70,-176 70,-179 70,-179 70,-185 70,-185 70,-188 67,-191 64,-191"/>
<text text-anchor="middle" x="43" y="-179.8" font-family="Helvetica,sans-Serif" font-size="9.00">index.js</text>
</a>
</g>
</g>
<!-- src/index.js&#45;&gt;src/components/appRoot.js -->
<g id="edge15" class="edge"><title>src/index.js&#45;&gt;src/components/appRoot.js</title>
<path fill="none" stroke="#000000" stroke-width="2" stroke-opacity="0.200000" d="M45.6215,-172.892C48.5988,-158.549 56.201,-130.392 78.3066,-107.603"/>
<polygon fill="#000000" fill-opacity="0.200000" stroke="#000000" stroke-width="2" stroke-opacity="0.200000" points="80.7422,-110.117 85.6435,-100.724 75.9544,-105.011 80.7422,-110.117"/>
</g>
<!-- src/store/store.js -->
<g id="node25" class="node"><title>src/store/store.js</title>
<g id="a_node25"><a xlink:href="src/store/store.js" xlink:title="store.js">
<path fill="#ffffcc" stroke="black" d="M238,-386C238,-386 196,-386 196,-386 193,-386 190,-383 190,-380 190,-380 190,-374 190,-374 190,-371 193,-368 196,-368 196,-368 238,-368 238,-368 241,-368 244,-371 244,-374 244,-374 244,-380 244,-380 244,-383 241,-386 238,-386"/>
<text text-anchor="middle" x="217" y="-374.8" font-family="Helvetica,sans-Serif" font-size="9.00">store.js</text>
</a>
</g>
</g>
<!-- src/index.js&#45;&gt;src/store/store.js -->
<g id="edge16" class="edge"><title>src/index.js&#45;&gt;src/store/store.js</title>
<path fill="none" stroke="#000000" stroke-width="2" stroke-opacity="0.200000" d="M47.8766,-191.3C60.1886,-219.778 101.149,-306.766 161,-355 166.78,-359.658 173.674,-363.439 180.594,-366.466"/>
<polygon fill="#000000" fill-opacity="0.200000" stroke="#000000" stroke-width="2" stroke-opacity="0.200000" points="179.356,-369.74 189.943,-370.139 181.916,-363.225 179.356,-369.74"/>
</g>
<!-- src/reducers/root.js -->
<g id="node15" class="node"><title>src/reducers/root.js</title>
<g id="a_node15"><a xlink:href="src/reducers/root.js" xlink:title="root.js">
<path fill="#ffffcc" stroke="black" d="M138,-476C138,-476 96,-476 96,-476 93,-476 90,-473 90,-470 90,-470 90,-464 90,-464 90,-461 93,-458 96,-458 96,-458 138,-458 138,-458 141,-458 144,-461 144,-464 144,-464 144,-470 144,-470 144,-473 141,-476 138,-476"/>
<text text-anchor="middle" x="117" y="-464.8" font-family="Helvetica,sans-Serif" font-size="9.00">root.js</text>
</a>
</g>
</g>
<!-- src/reducers/root.js&#45;&gt;src/actions/UI.js -->
<g id="edge17" class="edge"><title>src/reducers/root.js&#45;&gt;src/actions/UI.js</title>
<path fill="none" stroke="#000000" stroke-width="2" stroke-opacity="0.200000" d="M118.48,-457.969C120.637,-421.028 130.679,-282.018 161,-253 220.609,-195.951 326.056,-199.963 381.537,-206.933"/>
<polygon fill="#000000" fill-opacity="0.200000" stroke="#000000" stroke-width="2" stroke-opacity="0.200000" points="381.236,-210.425 391.616,-208.303 382.178,-203.488 381.236,-210.425"/>
</g>
<!-- src/reducers/updateLowerButtons.js -->
<g id="node16" class="node"><title>src/reducers/updateLowerButtons.js</title>
<g id="a_node16"><a xlink:href="src/reducers/updateLowerButtons.js" xlink:title="updateLowerButtons.js">
<path fill="#ffffcc" stroke="black" d="M267,-506C267,-506 167,-506 167,-506 164,-506 161,-503 161,-500 161,-500 161,-494 161,-494 161,-491 164,-488 167,-488 167,-488 267,-488 267,-488 270,-488 273,-491 273,-494 273,-494 273,-500 273,-500 273,-503 270,-506 267,-506"/>
<text text-anchor="middle" x="217" y="-494.8" font-family="Helvetica,sans-Serif" font-size="9.00">updateLowerButtons.js</text>
</a>
</g>
</g>
<!-- src/reducers/root.js&#45;&gt;src/reducers/updateLowerButtons.js -->
<g id="edge20" class="edge"><title>src/reducers/root.js&#45;&gt;src/reducers/updateLowerButtons.js</title>
<path fill="none" stroke="#000000" stroke-width="2" stroke-opacity="0.200000" d="M142.914,-476.02C148.818,-478.065 155.11,-480.172 161,-482 164.363,-483.044 167.854,-484.087 171.371,-485.11"/>
<polygon fill="#000000" fill-opacity="0.200000" stroke="#000000" stroke-width="2" stroke-opacity="0.200000" points="170.698,-488.557 181.273,-487.922 172.61,-481.823 170.698,-488.557"/>
</g>
<!-- src/reducers/updateMenuBar.js -->
<g id="node17" class="node"><title>src/reducers/updateMenuBar.js</title>
<g id="a_node17"><a xlink:href="src/reducers/updateMenuBar.js" xlink:title="updateMenuBar.js">
<path fill="#ffffcc" stroke="black" d="M257,-476C257,-476 177,-476 177,-476 174,-476 171,-473 171,-470 171,-470 171,-464 171,-464 171,-461 174,-458 177,-458 177,-458 257,-458 257,-458 260,-458 263,-461 263,-464 263,-464 263,-470 263,-470 263,-473 260,-476 257,-476"/>
<text text-anchor="middle" x="217" y="-464.8" font-family="Helvetica,sans-Serif" font-size="9.00">updateMenuBar.js</text>
</a>
</g>
</g>
<!-- src/reducers/root.js&#45;&gt;src/reducers/updateMenuBar.js -->
<g id="edge21" class="edge"><title>src/reducers/root.js&#45;&gt;src/reducers/updateMenuBar.js</title>
<path fill="none" stroke="#000000" stroke-width="2" stroke-opacity="0.200000" d="M144.005,-467C149.179,-467 154.796,-467 160.533,-467"/>
<polygon fill="#000000" fill-opacity="0.200000" stroke="#000000" stroke-width="2" stroke-opacity="0.200000" points="160.921,-470.5 170.92,-467 160.92,-463.5 160.921,-470.5"/>
</g>
<!-- src/reducers/updateStats.js -->
<g id="node18" class="node"><title>src/reducers/updateStats.js</title>
<g id="a_node18"><a xlink:href="src/reducers/updateStats.js" xlink:title="updateStats.js">
<path fill="#ffffcc" stroke="black" d="M249,-536C249,-536 185,-536 185,-536 182,-536 179,-533 179,-530 179,-530 179,-524 179,-524 179,-521 182,-518 185,-518 185,-518 249,-518 249,-518 252,-518 255,-521 255,-524 255,-524 255,-530 255,-530 255,-533 252,-536 249,-536"/>
<text text-anchor="middle" x="217" y="-524.8" font-family="Helvetica,sans-Serif" font-size="9.00">updateStats.js</text>
</a>
</g>
</g>
<!-- src/reducers/root.js&#45;&gt;src/reducers/updateStats.js -->
<g id="edge22" class="edge"><title>src/reducers/root.js&#45;&gt;src/reducers/updateStats.js</title>
<path fill="none" stroke="#000000" stroke-width="2" stroke-opacity="0.200000" d="M124.221,-476.003C131.759,-486.233 145.403,-502.71 161,-512 163.636,-513.57 166.44,-514.98 169.333,-516.245"/>
<polygon fill="#000000" fill-opacity="0.200000" stroke="#000000" stroke-width="2" stroke-opacity="0.200000" points="168.186,-519.553 178.777,-519.814 170.66,-513.005 168.186,-519.553"/>
</g>
<!-- src/store/initialState.js -->
<g id="node24" class="node"><title>src/store/initialState.js</title>
<g id="a_node24"><a xlink:href="src/store/initialState.js" xlink:title="initialState.js">
<path fill="#ffffcc" stroke="black" d="M245.5,-416C245.5,-416 188.5,-416 188.5,-416 185.5,-416 182.5,-413 182.5,-410 182.5,-410 182.5,-404 182.5,-404 182.5,-401 185.5,-398 188.5,-398 188.5,-398 245.5,-398 245.5,-398 248.5,-398 251.5,-401 251.5,-404 251.5,-404 251.5,-410 251.5,-410 251.5,-413 248.5,-416 245.5,-416"/>
<text text-anchor="middle" x="217" y="-404.8" font-family="Helvetica,sans-Serif" font-size="9.00">initialState.js</text>
</a>
</g>
</g>
<!-- src/reducers/root.js&#45;&gt;src/store/initialState.js -->
<g id="edge18" class="edge"><title>src/reducers/root.js&#45;&gt;src/store/initialState.js</title>
<path fill="none" stroke="#000000" stroke-width="2" stroke-opacity="0.200000" d="M140.194,-457.97C142.862,-456.713 145.519,-455.378 148,-454 164.923,-444.604 182.889,-432.063 196.102,-422.298"/>
<polygon fill="#000000" fill-opacity="0.200000" stroke="#000000" stroke-width="2" stroke-opacity="0.200000" points="198.523,-424.858 204.419,-416.055 194.32,-419.259 198.523,-424.858"/>
</g>
<!-- src/utils.js -->
<g id="node26" class="node"><title>src/utils.js</title>
<g id="a_node26"><a xlink:href="src/utils.js" xlink:title="utils.js">
<path fill="#ffffcc" stroke="black" d="M350,-521C350,-521 308,-521 308,-521 305,-521 302,-518 302,-515 302,-515 302,-509 302,-509 302,-506 305,-503 308,-503 308,-503 350,-503 350,-503 353,-503 356,-506 356,-509 356,-509 356,-515 356,-515 356,-518 353,-521 350,-521"/>
<text text-anchor="middle" x="329" y="-509.8" font-family="Helvetica,sans-Serif" font-size="9.00">utils.js</text>
</a>
</g>
</g>
<!-- src/reducers/root.js&#45;&gt;src/utils.js -->
<g id="edge19" class="edge"><title>src/reducers/root.js&#45;&gt;src/utils.js</title>
<path fill="none" stroke="#000000" stroke-width="2" stroke-opacity="0.200000" d="M120.043,-476.01C124.345,-492.589 136.065,-527.554 161,-542 207.148,-568.736 229.804,-556.947 281,-542 291.236,-539.012 301.365,-533.04 309.585,-527.207"/>
<polygon fill="#000000" fill-opacity="0.200000" stroke="#000000" stroke-width="2" stroke-opacity="0.200000" points="311.814,-529.908 317.668,-521.078 307.585,-524.33 311.814,-529.908"/>
</g>
<!-- src/reducers/updateLowerButtons.js&#45;&gt;src/utils.js -->
<g id="edge23" class="edge"><title>src/reducers/updateLowerButtons.js&#45;&gt;src/utils.js</title>
<path fill="none" stroke="#000000" stroke-width="2" stroke-opacity="0.200000" d="M273,-504.5C279.311,-505.361 285.622,-506.221 291.601,-507.036"/>
<polygon fill="#000000" fill-opacity="0.200000" stroke="#000000" stroke-width="2" stroke-opacity="0.200000" points="291.55,-510.562 301.932,-508.445 292.496,-503.626 291.55,-510.562"/>
</g>
<!-- src/scenes/menus.js -->
<g id="node20" class="node"><title>src/scenes/menus.js</title>
<g id="a_node20"><a xlink:href="src/scenes/menus.js" xlink:title="menus.js">
<path fill="#ffffcc" stroke="black" d="M351,-326C351,-326 307,-326 307,-326 304,-326 301,-323 301,-320 301,-320 301,-314 301,-314 301,-311 304,-308 307,-308 307,-308 351,-308 351,-308 354,-308 357,-311 357,-314 357,-314 357,-320 357,-320 357,-323 354,-326 351,-326"/>
<text text-anchor="middle" x="329" y="-314.8" font-family="Helvetica,sans-Serif" font-size="9.00">menus.js</text>
</a>
</g>
</g>
<!-- src/reducers/updateMenuBar.js&#45;&gt;src/scenes/menus.js -->
<g id="edge24" class="edge"><title>src/reducers/updateMenuBar.js&#45;&gt;src/scenes/menus.js</title>
<path fill="none" stroke="#000000" stroke-width="2" stroke-opacity="0.200000" d="M263.246,-458.53C270.119,-455.349 276.43,-450.985 281,-445 296.547,-424.64 273.309,-350.249 289,-330 289.956,-328.766 291.034,-327.648 292.205,-326.635"/>
<polygon fill="#000000" fill-opacity="0.200000" stroke="#000000" stroke-width="2" stroke-opacity="0.200000" points="294.223,-329.506 300.999,-321.362 290.623,-323.502 294.223,-329.506"/>
</g>
<!-- src/reducers/updateMenuBar.js&#45;&gt;src/utils.js -->
<g id="edge25" class="edge"><title>src/reducers/updateMenuBar.js&#45;&gt;src/utils.js</title>
<path fill="none" stroke="#000000" stroke-width="2" stroke-opacity="0.200000" d="M263.332,-475.853C269.375,-477.593 275.41,-479.631 281,-482 290.325,-485.953 299.878,-491.685 307.915,-497.083"/>
<polygon fill="#000000" fill-opacity="0.200000" stroke="#000000" stroke-width="2" stroke-opacity="0.200000" points="306.054,-500.052 316.253,-502.922 310.07,-494.318 306.054,-500.052"/>
</g>
<!-- src/reducers/updateStats.js&#45;&gt;src/utils.js -->
<g id="edge26" class="edge"><title>src/reducers/updateStats.js&#45;&gt;src/utils.js</title>
<path fill="none" stroke="#000000" stroke-width="2" stroke-opacity="0.200000" d="M255.241,-521.922C267.1,-520.305 280.193,-518.519 291.965,-516.914"/>
<polygon fill="#000000" fill-opacity="0.200000" stroke="#000000" stroke-width="2" stroke-opacity="0.200000" points="292.47,-520.377 301.905,-515.558 291.524,-513.442 292.47,-520.377"/>
</g>
<!-- src/scenes/charCreation.js -->
<g id="node19" class="node"><title>src/scenes/charCreation.js</title>
<g id="a_node19"><a xlink:href="src/scenes/charCreation.js" xlink:title="charCreation.js">
<path fill="#ffffcc" stroke="black" d="M363,-282C363,-282 295,-282 295,-282 292,-282 289,-279 289,-276 289,-276 289,-270 289,-270 289,-267 292,-264 295,-264 295,-264 363,-264 363,-264 366,-264 369,-267 369,-270 369,-270 369,-276 369,-276 369,-279 366,-282 363,-282"/>
<text text-anchor="middle" x="329" y="-270.8" font-family="Helvetica,sans-Serif" font-size="9.00">charCreation.js</text>
</a>
</g>
</g>
<!-- src/scenes/charCreation.js&#45;&gt;src/actions/UI.js -->
<g id="edge27" class="edge"><title>src/scenes/charCreation.js&#45;&gt;src/actions/UI.js</title>
<path fill="none" stroke="#000000" stroke-width="2" stroke-opacity="0.200000" d="M345.371,-263.939C352.626,-259.562 361.35,-254.151 369,-249 378.719,-242.455 389.222,-234.818 398.002,-228.266"/>
<polygon fill="#000000" fill-opacity="0.200000" stroke="#000000" stroke-width="2" stroke-opacity="0.200000" points="400.232,-230.968 406.115,-222.156 396.021,-225.376 400.232,-230.968"/>
</g>
<!-- src/scenes/sceneStore.js -->
<g id="node22" class="node"><title>src/scenes/sceneStore.js</title>
<g id="a_node22"><a xlink:href="src/scenes/sceneStore.js" xlink:title="sceneStore.js">
<path fill="#ffffcc" stroke="black" d="M450,-296C450,-296 388,-296 388,-296 385,-296 382,-293 382,-290 382,-290 382,-284 382,-284 382,-281 385,-278 388,-278 388,-278 450,-278 450,-278 453,-278 456,-281 456,-284 456,-284 456,-290 456,-290 456,-293 453,-296 450,-296"/>
<text text-anchor="middle" x="419" y="-284.8" font-family="Helvetica,sans-Serif" font-size="9.00">sceneStore.js</text>
</a>
</g>
</g>
<!-- src/scenes/charCreation.js&#45;&gt;src/scenes/sceneStore.js -->
<g id="edge28" class="edge"><title>src/scenes/charCreation.js&#45;&gt;src/scenes/sceneStore.js</title>
<path fill="none" stroke="#000000" stroke-width="2" stroke-opacity="0.200000" d="M369.111,-279.222C370.034,-279.369 370.961,-279.517 371.889,-279.664"/>
<polygon fill="#000000" fill-opacity="0.200000" stroke="#000000" stroke-width="2" stroke-opacity="0.200000" points="371.378,-283.127 381.804,-281.242 372.478,-276.214 371.378,-283.127"/>
</g>
<!-- src/scenes/sceneSymbols.js -->
<g id="node23" class="node"><title>src/scenes/sceneSymbols.js</title>
<g id="a_node23"><a xlink:href="src/scenes/sceneSymbols.js" xlink:title="sceneSymbols.js">
<path fill="#ffffcc" stroke="black" d="M551,-307C551,-307 475,-307 475,-307 472,-307 469,-304 469,-301 469,-301 469,-295 469,-295 469,-292 472,-289 475,-289 475,-289 551,-289 551,-289 554,-289 557,-292 557,-295 557,-295 557,-301 557,-301 557,-304 554,-307 551,-307"/>
<text text-anchor="middle" x="513" y="-295.8" font-family="Helvetica,sans-Serif" font-size="9.00">sceneSymbols.js</text>
</a>
</g>
</g>
<!-- src/scenes/charCreation.js&#45;&gt;src/scenes/sceneSymbols.js -->
<g id="edge29" class="edge"><title>src/scenes/charCreation.js&#45;&gt;src/scenes/sceneSymbols.js</title>
<path fill="none" stroke="#000000" stroke-width="2" stroke-opacity="0.200000" d="M369.071,-268.229C394.196,-266.249 427.376,-265.679 456,-272 466.99,-274.427 478.386,-279.237 488.005,-284.067"/>
<polygon fill="#000000" fill-opacity="0.200000" stroke="#000000" stroke-width="2" stroke-opacity="0.200000" points="486.478,-287.219 496.952,-288.816 489.76,-281.036 486.478,-287.219"/>
</g>
<!-- src/scenes/menus.js&#45;&gt;src/actions/UI.js -->
<g id="edge30" class="edge"><title>src/scenes/menus.js&#45;&gt;src/actions/UI.js</title>
<path fill="none" stroke="#000000" stroke-width="2" stroke-opacity="0.200000" d="M346.573,-307.748C354.273,-302.749 363.026,-295.965 369,-288 378.957,-274.725 373.408,-267.197 382,-253 387.146,-244.497 394.231,-236.154 400.755,-229.306"/>
<polygon fill="#000000" fill-opacity="0.200000" stroke="#000000" stroke-width="2" stroke-opacity="0.200000" points="403.424,-231.587 408.007,-222.034 398.467,-226.644 403.424,-231.587"/>
</g>
<!-- src/scenes/menus.js&#45;&gt;src/scenes/sceneStore.js -->
<g id="edge31" class="edge"><title>src/scenes/menus.js&#45;&gt;src/scenes/sceneStore.js</title>
<path fill="none" stroke="#000000" stroke-width="2" stroke-opacity="0.200000" d="M356.403,-307.999C364.335,-305.295 373.182,-302.279 381.639,-299.396"/>
<polygon fill="#000000" fill-opacity="0.200000" stroke="#000000" stroke-width="2" stroke-opacity="0.200000" points="382.976,-302.638 391.312,-296.098 380.717,-296.012 382.976,-302.638"/>
</g>
<!-- src/scenes/menus.js&#45;&gt;src/scenes/sceneSymbols.js -->
<g id="edge32" class="edge"><title>src/scenes/menus.js&#45;&gt;src/scenes/sceneSymbols.js</title>
<path fill="none" stroke="#000000" stroke-width="2" stroke-opacity="0.200000" d="M357.197,-317.931C382.824,-318.385 422.225,-317.992 456,-313 461.601,-312.172 467.444,-310.984 473.152,-309.634"/>
<polygon fill="#000000" fill-opacity="0.200000" stroke="#000000" stroke-width="2" stroke-opacity="0.200000" points="474.376,-312.934 483.201,-307.071 472.646,-306.151 474.376,-312.934"/>
</g>
<!-- src/scenes/sceneFunctions.js&#45;&gt;src/scenes/charCreation.js -->
<g id="edge33" class="edge"><title>src/scenes/sceneFunctions.js&#45;&gt;src/scenes/charCreation.js</title>
<path fill="none" stroke="#000000" stroke-width="2" stroke-opacity="0.200000" d="M263.059,-279.494C268.265,-278.974 273.594,-278.441 278.852,-277.915"/>
<polygon fill="#000000" fill-opacity="0.200000" stroke="#000000" stroke-width="2" stroke-opacity="0.200000" points="279.219,-281.396 288.821,-276.918 278.523,-274.43 279.219,-281.396"/>
</g>
<!-- src/scenes/sceneFunctions.js&#45;&gt;src/scenes/menus.js -->
<g id="edge34" class="edge"><title>src/scenes/sceneFunctions.js&#45;&gt;src/scenes/menus.js</title>
<path fill="none" stroke="#000000" stroke-width="2" stroke-opacity="0.200000" d="M248.058,-293.017C261.367,-297.01 277.147,-301.744 291.157,-305.947"/>
<polygon fill="#000000" fill-opacity="0.200000" stroke="#000000" stroke-width="2" stroke-opacity="0.200000" points="290.401,-309.374 300.985,-308.896 292.413,-302.67 290.401,-309.374"/>
</g>
<!-- src/scenes/sceneFunctions.js&#45;&gt;src/scenes/sceneSymbols.js -->
<g id="edge35" class="edge"><title>src/scenes/sceneFunctions.js&#45;&gt;src/scenes/sceneSymbols.js</title>
<path fill="none" stroke="#000000" stroke-width="2" stroke-opacity="0.200000" d="M263.137,-290.298C296.018,-294.557 341.673,-299.794 382,-302 414.84,-303.797 423.132,-303.172 456,-302 456.916,-301.967 457.841,-301.932 458.772,-301.893"/>
<polygon fill="#000000" fill-opacity="0.200000" stroke="#000000" stroke-width="2" stroke-opacity="0.200000" points="459.094,-305.382 468.908,-301.389 458.746,-298.39 459.094,-305.382"/>
</g>
<!-- src/scenes/sceneStore.js&#45;&gt;src/scenes/sceneSymbols.js -->
<g id="edge36" class="edge"><title>src/scenes/sceneStore.js&#45;&gt;src/scenes/sceneSymbols.js</title>
<path fill="none" stroke="#000000" stroke-width="2" stroke-opacity="0.200000" d="M456.097,-291.316C457.022,-291.427 457.952,-291.538 458.887,-291.65"/>
<polygon fill="#000000" fill-opacity="0.200000" stroke="#000000" stroke-width="2" stroke-opacity="0.200000" points="458.637,-295.145 468.982,-292.857 459.468,-288.194 458.637,-295.145"/>
</g>
<!-- src/store/initialState.js&#45;&gt;src/scenes/menus.js -->
<g id="edge37" class="edge"><title>src/store/initialState.js&#45;&gt;src/scenes/menus.js</title>
<path fill="none" stroke="#000000" stroke-width="2" stroke-opacity="0.200000" d="M251.621,-406.331C262.446,-404.392 273.555,-400.274 281,-392 299.584,-371.346 271.343,-351.452 289,-330 289.964,-328.829 291.036,-327.763 292.193,-326.792"/>
<polygon fill="#000000" fill-opacity="0.200000" stroke="#000000" stroke-width="2" stroke-opacity="0.200000" points="293.985,-329.799 300.783,-321.673 290.401,-323.786 293.985,-329.799"/>
</g>
<!-- src/store/store.js&#45;&gt;src/reducers/root.js -->
<g id="edge38" class="edge"><title>src/store/store.js&#45;&gt;src/reducers/root.js</title>
<path fill="none" stroke="#000000" stroke-width="2" stroke-opacity="0.200000" d="M189.74,-378.39C179.467,-380.263 168.398,-384.148 161,-392 143.88,-410.171 160.893,-427.712 149.822,-449.307"/>
<polygon fill="#000000" fill-opacity="0.200000" stroke="#000000" stroke-width="2" stroke-opacity="0.200000" points="146.785,-447.549 144.074,-457.791 152.58,-451.475 146.785,-447.549"/>
</g>
</g>
</svg>
