<?xml version="1.0" encoding="UTF-8" standalone="no"?>
<!DOCTYPE svg PUBLIC "-//W3C//DTD SVG 1.1//EN"
 "http://www.w3.org/Graphics/SVG/1.1/DTD/svg11.dtd">
<!-- Generated by graphviz version 2.38.0 (20140413.2041)
 -->
<!-- Title: G Pages: 1 -->
<svg width="3245pt" height="875pt"
 viewBox="0.00 0.00 3245.20 875.20" xmlns="http://www.w3.org/2000/svg" xmlns:xlink="http://www.w3.org/1999/xlink">
<g id="graph0" class="graph" transform="scale(1 1) rotate(0) translate(21.6 853.6)">
<title>G</title>
<polygon fill="#111111" stroke="none" points="-21.6,21.6 -21.6,-853.6 3223.6,-853.6 3223.6,21.6 -21.6,21.6"/>
<!-- actions/Core.js -->
<g id="node1" class="node"><title>actions/Core.js</title>
<path fill="none" stroke="#c6c5fe" d="M1740.83,-443.5C1740.83,-443.5 1645.17,-443.5 1645.17,-443.5 1641.33,-443.5 1637.5,-439.667 1637.5,-435.833 1637.5,-435.833 1637.5,-428.167 1637.5,-428.167 1637.5,-424.333 1641.33,-420.5 1645.17,-420.5 1645.17,-420.5 1740.83,-420.5 1740.83,-420.5 1744.67,-420.5 1748.5,-424.333 1748.5,-428.167 1748.5,-428.167 1748.5,-435.833 1748.5,-435.833 1748.5,-439.667 1744.67,-443.5 1740.83,-443.5"/>
<text text-anchor="middle" x="1693" y="-428.3" font-family="Arial" font-size="14.00" fill="#c6c5fe">actions/Core.js</text>
</g>
<!-- actions/coreMsg.js -->
<g id="node2" class="node"><title>actions/coreMsg.js</title>
<path fill="none" stroke="#cfffac" d="M2988.83,-807.5C2988.83,-807.5 2869.17,-807.5 2869.17,-807.5 2865.33,-807.5 2861.5,-803.667 2861.5,-799.833 2861.5,-799.833 2861.5,-792.167 2861.5,-792.167 2861.5,-788.333 2865.33,-784.5 2869.17,-784.5 2869.17,-784.5 2988.83,-784.5 2988.83,-784.5 2992.67,-784.5 2996.5,-788.333 2996.5,-792.167 2996.5,-792.167 2996.5,-799.833 2996.5,-799.833 2996.5,-803.667 2992.67,-807.5 2988.83,-807.5"/>
<text text-anchor="middle" x="2929" y="-792.3" font-family="Arial" font-size="14.00" fill="#cfffac">actions/coreMsg.js</text>
</g>
<!-- actions/Core.js&#45;&gt;actions/coreMsg.js -->
<g id="edge1" class="edge"><title>actions/Core.js&#45;&gt;actions/coreMsg.js</title>
<path fill="none" stroke="#757575" d="M1699.22,-443.54C1729.74,-509.124 1891.97,-832 2127.5,-832 2127.5,-832 2127.5,-832 2516,-832 2633.35,-832 2768.78,-817.328 2851.38,-806.717"/>
<polygon fill="#757575" stroke="#757575" points="2851.97,-810.17 2861.44,-805.412 2851.07,-803.228 2851.97,-810.17"/>
</g>
<!-- store/store.js -->
<g id="node3" class="node"><title>store/store.js</title>
<path fill="none" stroke="#c6c5fe" d="M2375.83,-606.5C2375.83,-606.5 2292.17,-606.5 2292.17,-606.5 2288.33,-606.5 2284.5,-602.667 2284.5,-598.833 2284.5,-598.833 2284.5,-591.167 2284.5,-591.167 2284.5,-587.333 2288.33,-583.5 2292.17,-583.5 2292.17,-583.5 2375.83,-583.5 2375.83,-583.5 2379.67,-583.5 2383.5,-587.333 2383.5,-591.167 2383.5,-591.167 2383.5,-598.833 2383.5,-598.833 2383.5,-602.667 2379.67,-606.5 2375.83,-606.5"/>
<text text-anchor="middle" x="2334" y="-591.3" font-family="Arial" font-size="14.00" fill="#c6c5fe">store/store.js</text>
</g>
<!-- actions/Core.js&#45;&gt;store/store.js -->
<g id="edge2" class="edge"><title>actions/Core.js&#45;&gt;store/store.js</title>
<path fill="none" stroke="#757575" d="M1748.62,-434.732C1847.37,-441.466 2060.25,-464.297 2221,-540 2239.59,-548.754 2239.01,-559.08 2257,-569 2264.63,-573.207 2273.06,-576.909 2281.45,-580.103"/>
<polygon fill="#757575" stroke="#757575" points="2280.27,-583.396 2290.86,-583.492 2282.64,-576.81 2280.27,-583.396"/>
</g>
<!-- reducers/root.js -->
<g id="node30" class="node"><title>reducers/root.js</title>
<path fill="none" stroke="#c6c5fe" d="M2565.33,-626.5C2565.33,-626.5 2464.67,-626.5 2464.67,-626.5 2460.83,-626.5 2457,-622.667 2457,-618.833 2457,-618.833 2457,-611.167 2457,-611.167 2457,-607.333 2460.83,-603.5 2464.67,-603.5 2464.67,-603.5 2565.33,-603.5 2565.33,-603.5 2569.17,-603.5 2573,-607.333 2573,-611.167 2573,-611.167 2573,-618.833 2573,-618.833 2573,-622.667 2569.17,-626.5 2565.33,-626.5"/>
<text text-anchor="middle" x="2515" y="-611.3" font-family="Arial" font-size="14.00" fill="#c6c5fe">reducers/root.js</text>
</g>
<!-- store/store.js&#45;&gt;reducers/root.js -->
<g id="edge74" class="edge"><title>store/store.js&#45;&gt;reducers/root.js</title>
<path fill="none" stroke="#757575" d="M2383.91,-600.465C2403.31,-602.632 2425.92,-605.159 2446.81,-607.493"/>
<polygon fill="#757575" stroke="#757575" points="2446.58,-610.988 2456.9,-608.62 2447.35,-604.031 2446.58,-610.988"/>
</g>
<!-- actions/Engine.js -->
<g id="node4" class="node"><title>actions/Engine.js</title>
<path fill="none" stroke="#c6c5fe" d="M951.833,-402.5C951.833,-402.5 843.167,-402.5 843.167,-402.5 839.333,-402.5 835.5,-398.667 835.5,-394.833 835.5,-394.833 835.5,-387.167 835.5,-387.167 835.5,-383.333 839.333,-379.5 843.167,-379.5 843.167,-379.5 951.833,-379.5 951.833,-379.5 955.667,-379.5 959.5,-383.333 959.5,-387.167 959.5,-387.167 959.5,-394.833 959.5,-394.833 959.5,-398.667 955.667,-402.5 951.833,-402.5"/>
<text text-anchor="middle" x="897.5" y="-387.3" font-family="Arial" font-size="14.00" fill="#c6c5fe">actions/Engine.js</text>
</g>
<!-- scenes/sceneFunctions.js -->
<g id="node5" class="node"><title>scenes/sceneFunctions.js</title>
<path fill="none" stroke="#c6c5fe" d="M1201.33,-402.5C1201.33,-402.5 1034.67,-402.5 1034.67,-402.5 1030.83,-402.5 1027,-398.667 1027,-394.833 1027,-394.833 1027,-387.167 1027,-387.167 1027,-383.333 1030.83,-379.5 1034.67,-379.5 1034.67,-379.5 1201.33,-379.5 1201.33,-379.5 1205.17,-379.5 1209,-383.333 1209,-387.167 1209,-387.167 1209,-394.833 1209,-394.833 1209,-398.667 1205.17,-402.5 1201.33,-402.5"/>
<text text-anchor="middle" x="1118" y="-387.3" font-family="Arial" font-size="14.00" fill="#c6c5fe">scenes/sceneFunctions.js</text>
</g>
<!-- actions/Engine.js&#45;&gt;scenes/sceneFunctions.js -->
<g id="edge3" class="edge"><title>actions/Engine.js&#45;&gt;scenes/sceneFunctions.js</title>
<path fill="none" stroke="#757575" d="M959.655,-391C977.394,-391 997.247,-391 1016.72,-391"/>
<polygon fill="#757575" stroke="#757575" points="1016.85,-394.5 1026.85,-391 1016.85,-387.5 1016.85,-394.5"/>
</g>
<!-- scenes/sceneFunctions.js&#45;&gt;actions/Core.js -->
<g id="edge59" class="edge"><title>scenes/sceneFunctions.js&#45;&gt;actions/Core.js</title>
<path fill="none" stroke="#757575" d="M1179.04,-402.523C1199.86,-406.113 1223.39,-409.724 1245,-412 1380.48,-426.269 1540.11,-430.374 1627.23,-431.544"/>
<polygon fill="#757575" stroke="#757575" points="1627.44,-435.047 1637.48,-431.673 1627.53,-428.048 1627.44,-435.047"/>
</g>
<!-- scenes/sceneFunctions.js&#45;&gt;store/store.js -->
<g id="edge64" class="edge"><title>scenes/sceneFunctions.js&#45;&gt;store/store.js</title>
<path fill="none" stroke="#757575" d="M1183.22,-402.534C1192.03,-404.903 1200.84,-407.705 1209,-411 1226.39,-418.018 1228.49,-424.117 1245,-433 1356.54,-493.001 1376.35,-554 1503,-554 1503,-554 1503,-554 1911,-554 2041.24,-554 2193.03,-573.585 2274.37,-585.683"/>
<polygon fill="#757575" stroke="#757575" points="2274,-589.167 2284.41,-587.192 2275.04,-582.245 2274,-589.167"/>
</g>
<!-- scenes/charCreation.js -->
<g id="node37" class="node"><title>scenes/charCreation.js</title>
<path fill="none" stroke="#c6c5fe" d="M1398.33,-247.5C1398.33,-247.5 1252.67,-247.5 1252.67,-247.5 1248.83,-247.5 1245,-243.667 1245,-239.833 1245,-239.833 1245,-232.167 1245,-232.167 1245,-228.333 1248.83,-224.5 1252.67,-224.5 1252.67,-224.5 1398.33,-224.5 1398.33,-224.5 1402.17,-224.5 1406,-228.333 1406,-232.167 1406,-232.167 1406,-239.833 1406,-239.833 1406,-243.667 1402.17,-247.5 1398.33,-247.5"/>
<text text-anchor="middle" x="1325.5" y="-232.3" font-family="Arial" font-size="14.00" fill="#c6c5fe">scenes/charCreation.js</text>
</g>
<!-- scenes/sceneFunctions.js&#45;&gt;scenes/charCreation.js -->
<g id="edge60" class="edge"><title>scenes/sceneFunctions.js&#45;&gt;scenes/charCreation.js</title>
<path fill="none" stroke="#757575" d="M1134.45,-379.35C1170.16,-352.41 1258.64,-285.673 1301.07,-253.67"/>
<polygon fill="#757575" stroke="#757575" points="1303.28,-256.39 1309.16,-247.574 1299.06,-250.801 1303.28,-256.39"/>
</g>
<!-- scenes/menus.js -->
<g id="node38" class="node"><title>scenes/menus.js</title>
<path fill="none" stroke="#c6c5fe" d="M1558.33,-363.5C1558.33,-363.5 1449.67,-363.5 1449.67,-363.5 1445.83,-363.5 1442,-359.667 1442,-355.833 1442,-355.833 1442,-348.167 1442,-348.167 1442,-344.333 1445.83,-340.5 1449.67,-340.5 1449.67,-340.5 1558.33,-340.5 1558.33,-340.5 1562.17,-340.5 1566,-344.333 1566,-348.167 1566,-348.167 1566,-355.833 1566,-355.833 1566,-359.667 1562.17,-363.5 1558.33,-363.5"/>
<text text-anchor="middle" x="1504" y="-348.3" font-family="Arial" font-size="14.00" fill="#c6c5fe">scenes/menus.js</text>
</g>
<!-- scenes/sceneFunctions.js&#45;&gt;scenes/menus.js -->
<g id="edge61" class="edge"><title>scenes/sceneFunctions.js&#45;&gt;scenes/menus.js</title>
<path fill="none" stroke="#757575" d="M1184.9,-379.47C1204.22,-376.38 1225.42,-373.271 1245,-371 1307.95,-363.699 1379.88,-358.675 1431.77,-355.635"/>
<polygon fill="#757575" stroke="#757575" points="1432.09,-359.122 1441.87,-355.053 1431.69,-352.134 1432.09,-359.122"/>
</g>
<!-- scenes/sceneSymbols.js -->
<g id="node39" class="node"><title>scenes/sceneSymbols.js</title>
<path fill="none" stroke="#cfffac" d="M3009.33,-209.5C3009.33,-209.5 2848.67,-209.5 2848.67,-209.5 2844.83,-209.5 2841,-205.667 2841,-201.833 2841,-201.833 2841,-194.167 2841,-194.167 2841,-190.333 2844.83,-186.5 2848.67,-186.5 2848.67,-186.5 3009.33,-186.5 3009.33,-186.5 3013.17,-186.5 3017,-190.333 3017,-194.167 3017,-194.167 3017,-201.833 3017,-201.833 3017,-205.667 3013.17,-209.5 3009.33,-209.5"/>
<text text-anchor="middle" x="2929" y="-194.3" font-family="Arial" font-size="14.00" fill="#cfffac">scenes/sceneSymbols.js</text>
</g>
<!-- scenes/sceneFunctions.js&#45;&gt;scenes/sceneSymbols.js -->
<g id="edge62" class="edge"><title>scenes/sceneFunctions.js&#45;&gt;scenes/sceneSymbols.js</title>
<path fill="none" stroke="#757575" d="M1123.47,-379.298C1149.18,-314.241 1284.64,-0 1503,-0 1503,-0 1503,-0 2335,-0 2563.36,-0 2816.89,-133.734 2899.98,-181.386"/>
<polygon fill="#757575" stroke="#757575" points="2898.41,-184.52 2908.82,-186.499 2901.92,-178.461 2898.41,-184.52"/>
</g>
<!-- scenes/tests/testing.js -->
<g id="node43" class="node"><title>scenes/tests/testing.js</title>
<path fill="none" stroke="#cfffac" d="M1396.83,-403.5C1396.83,-403.5 1254.17,-403.5 1254.17,-403.5 1250.33,-403.5 1246.5,-399.667 1246.5,-395.833 1246.5,-395.833 1246.5,-388.167 1246.5,-388.167 1246.5,-384.333 1250.33,-380.5 1254.17,-380.5 1254.17,-380.5 1396.83,-380.5 1396.83,-380.5 1400.67,-380.5 1404.5,-384.333 1404.5,-388.167 1404.5,-388.167 1404.5,-395.833 1404.5,-395.833 1404.5,-399.667 1400.67,-403.5 1396.83,-403.5"/>
<text text-anchor="middle" x="1325.5" y="-388.3" font-family="Arial" font-size="14.00" fill="#cfffac">scenes/tests/testing.js</text>
</g>
<!-- scenes/sceneFunctions.js&#45;&gt;scenes/tests/testing.js -->
<g id="edge63" class="edge"><title>scenes/sceneFunctions.js&#45;&gt;scenes/tests/testing.js</title>
<path fill="none" stroke="#757575" d="M1209.14,-391.439C1218.15,-391.482 1227.29,-391.527 1236.28,-391.571"/>
<polygon fill="#757575" stroke="#757575" points="1236.33,-395.071 1246.35,-391.62 1236.37,-388.071 1236.33,-395.071"/>
</g>
<!-- actions/Player.js -->
<g id="node6" class="node"><title>actions/Player.js</title>
<path fill="none" stroke="#c6c5fe" d="M2180.33,-408.5C2180.33,-408.5 2076.67,-408.5 2076.67,-408.5 2072.83,-408.5 2069,-404.667 2069,-400.833 2069,-400.833 2069,-393.167 2069,-393.167 2069,-389.333 2072.83,-385.5 2076.67,-385.5 2076.67,-385.5 2180.33,-385.5 2180.33,-385.5 2184.17,-385.5 2188,-389.333 2188,-393.167 2188,-393.167 2188,-400.833 2188,-400.833 2188,-404.667 2184.17,-408.5 2180.33,-408.5"/>
<text text-anchor="middle" x="2128.5" y="-393.3" font-family="Arial" font-size="14.00" fill="#c6c5fe">actions/Player.js</text>
</g>
<!-- actions/Player.js&#45;&gt;store/store.js -->
<g id="edge6" class="edge"><title>actions/Player.js&#45;&gt;store/store.js</title>
<path fill="none" stroke="#757575" d="M2165.71,-408.624C2184.65,-416.42 2206.8,-428.513 2221,-446 2256.9,-490.221 2217.64,-527.829 2257,-569 2262.1,-574.336 2268.34,-578.577 2275.03,-581.947"/>
<polygon fill="#757575" stroke="#757575" points="2273.81,-585.231 2284.37,-586.025 2276.61,-578.816 2273.81,-585.231"/>
</g>
<!-- actions/engineMsg.js -->
<g id="node7" class="node"><title>actions/engineMsg.js</title>
<path fill="none" stroke="#cfffac" d="M3194.33,-687.5C3194.33,-687.5 3060.67,-687.5 3060.67,-687.5 3056.83,-687.5 3053,-683.667 3053,-679.833 3053,-679.833 3053,-672.167 3053,-672.167 3053,-668.333 3056.83,-664.5 3060.67,-664.5 3060.67,-664.5 3194.33,-664.5 3194.33,-664.5 3198.17,-664.5 3202,-668.333 3202,-672.167 3202,-672.167 3202,-679.833 3202,-679.833 3202,-683.667 3198.17,-687.5 3194.33,-687.5"/>
<text text-anchor="middle" x="3127.5" y="-672.3" font-family="Arial" font-size="14.00" fill="#cfffac">actions/engineMsg.js</text>
</g>
<!-- actions/Player.js&#45;&gt;actions/engineMsg.js -->
<g id="edge4" class="edge"><title>actions/Player.js&#45;&gt;actions/engineMsg.js</title>
<path fill="none" stroke="#757575" d="M2188.15,-402.095C2335.14,-416.001 2714,-459.215 2805,-542 2844.3,-577.756 2799.27,-623.112 2841,-656 2871.28,-679.866 2969.78,-682.145 3042.65,-680.24"/>
<polygon fill="#757575" stroke="#757575" points="3042.86,-683.735 3052.76,-679.945 3042.66,-676.738 3042.86,-683.735"/>
</g>
<!-- actions/playerMsg.js -->
<g id="node8" class="node"><title>actions/playerMsg.js</title>
<path fill="none" stroke="#cfffac" d="M2993.83,-727.5C2993.83,-727.5 2864.17,-727.5 2864.17,-727.5 2860.33,-727.5 2856.5,-723.667 2856.5,-719.833 2856.5,-719.833 2856.5,-712.167 2856.5,-712.167 2856.5,-708.333 2860.33,-704.5 2864.17,-704.5 2864.17,-704.5 2993.83,-704.5 2993.83,-704.5 2997.67,-704.5 3001.5,-708.333 3001.5,-712.167 3001.5,-712.167 3001.5,-719.833 3001.5,-719.833 3001.5,-723.667 2997.67,-727.5 2993.83,-727.5"/>
<text text-anchor="middle" x="2929" y="-712.3" font-family="Arial" font-size="14.00" fill="#cfffac">actions/playerMsg.js</text>
</g>
<!-- actions/Player.js&#45;&gt;actions/playerMsg.js -->
<g id="edge5" class="edge"><title>actions/Player.js&#45;&gt;actions/playerMsg.js</title>
<path fill="none" stroke="#757575" d="M2188.14,-404.622C2200.18,-408.512 2211.93,-414.327 2221,-423 2257.57,-457.965 2217.14,-499.832 2257,-531 2353.22,-606.248 2709.57,-497.754 2805,-574 2847.17,-607.694 2802.63,-652.031 2841,-690 2844.76,-693.716 2849.02,-696.905 2853.59,-699.641"/>
<polygon fill="#757575" stroke="#757575" points="2852.23,-702.876 2862.72,-704.363 2855.45,-696.659 2852.23,-702.876"/>
</g>
<!-- symbols/breastCup.js -->
<g id="node9" class="node"><title>symbols/breastCup.js</title>
<path fill="none" stroke="#c6c5fe" d="M2403.33,-169.5C2403.33,-169.5 2264.67,-169.5 2264.67,-169.5 2260.83,-169.5 2257,-165.667 2257,-161.833 2257,-161.833 2257,-154.167 2257,-154.167 2257,-150.333 2260.83,-146.5 2264.67,-146.5 2264.67,-146.5 2403.33,-146.5 2403.33,-146.5 2407.17,-146.5 2411,-150.333 2411,-154.167 2411,-154.167 2411,-161.833 2411,-161.833 2411,-165.667 2407.17,-169.5 2403.33,-169.5"/>
<text text-anchor="middle" x="2334" y="-154.3" font-family="Arial" font-size="14.00" fill="#c6c5fe">symbols/breastCup.js</text>
</g>
<!-- actions/Player.js&#45;&gt;symbols/breastCup.js -->
<g id="edge7" class="edge"><title>actions/Player.js&#45;&gt;symbols/breastCup.js</title>
<path fill="none" stroke="#757575" d="M2139.32,-385.473C2171.75,-347.385 2275.71,-225.286 2316.42,-177.468"/>
<polygon fill="#757575" stroke="#757575" points="2319.23,-179.575 2323.04,-169.692 2313.9,-175.037 2319.23,-179.575"/>
</g>
<!-- symbols/cockType.js -->
<g id="node10" class="node"><title>symbols/cockType.js</title>
<path fill="none" stroke="#cfffac" d="M2401.33,-368.5C2401.33,-368.5 2266.67,-368.5 2266.67,-368.5 2262.83,-368.5 2259,-364.667 2259,-360.833 2259,-360.833 2259,-353.167 2259,-353.167 2259,-349.333 2262.83,-345.5 2266.67,-345.5 2266.67,-345.5 2401.33,-345.5 2401.33,-345.5 2405.17,-345.5 2409,-349.333 2409,-353.167 2409,-353.167 2409,-360.833 2409,-360.833 2409,-364.667 2405.17,-368.5 2401.33,-368.5"/>
<text text-anchor="middle" x="2334" y="-353.3" font-family="Arial" font-size="14.00" fill="#cfffac">symbols/cockType.js</text>
</g>
<!-- actions/Player.js&#45;&gt;symbols/cockType.js -->
<g id="edge8" class="edge"><title>actions/Player.js&#45;&gt;symbols/cockType.js</title>
<path fill="none" stroke="#757575" d="M2188.09,-385.484C2211.93,-380.798 2239.65,-375.35 2264.42,-370.48"/>
<polygon fill="#757575" stroke="#757575" points="2265.34,-373.867 2274.47,-368.504 2263.99,-366.998 2265.34,-373.867"/>
</g>
<!-- symbols/vaginas.js -->
<g id="node11" class="node"><title>symbols/vaginas.js</title>
<path fill="none" stroke="#c6c5fe" d="M2575.33,-387.5C2575.33,-387.5 2454.67,-387.5 2454.67,-387.5 2450.83,-387.5 2447,-383.667 2447,-379.833 2447,-379.833 2447,-372.167 2447,-372.167 2447,-368.333 2450.83,-364.5 2454.67,-364.5 2454.67,-364.5 2575.33,-364.5 2575.33,-364.5 2579.17,-364.5 2583,-368.333 2583,-372.167 2583,-372.167 2583,-379.833 2583,-379.833 2583,-383.667 2579.17,-387.5 2575.33,-387.5"/>
<text text-anchor="middle" x="2515" y="-372.3" font-family="Arial" font-size="14.00" fill="#c6c5fe">symbols/vaginas.js</text>
</g>
<!-- actions/Player.js&#45;&gt;symbols/vaginas.js -->
<g id="edge9" class="edge"><title>actions/Player.js&#45;&gt;symbols/vaginas.js</title>
<path fill="none" stroke="#757575" d="M2188.32,-393.788C2254.82,-390.155 2363.36,-384.227 2436.68,-380.223"/>
<polygon fill="#757575" stroke="#757575" points="2436.98,-383.712 2446.78,-379.671 2436.6,-376.722 2436.98,-383.712"/>
</g>
<!-- utils.js -->
<g id="node36" class="node"><title>utils.js</title>
<path fill="none" stroke="#cfffac" d="M3147.83,-368.5C3147.83,-368.5 3107.17,-368.5 3107.17,-368.5 3103.33,-368.5 3099.5,-364.667 3099.5,-360.833 3099.5,-360.833 3099.5,-353.167 3099.5,-353.167 3099.5,-349.333 3103.33,-345.5 3107.17,-345.5 3107.17,-345.5 3147.83,-345.5 3147.83,-345.5 3151.67,-345.5 3155.5,-349.333 3155.5,-353.167 3155.5,-353.167 3155.5,-360.833 3155.5,-360.833 3155.5,-364.667 3151.67,-368.5 3147.83,-368.5"/>
<text text-anchor="middle" x="3127.5" y="-353.3" font-family="Arial" font-size="14.00" fill="#cfffac">utils.js</text>
</g>
<!-- symbols/breastCup.js&#45;&gt;utils.js -->
<g id="edge75" class="edge"><title>symbols/breastCup.js&#45;&gt;utils.js</title>
<path fill="none" stroke="#757575" d="M2411.2,-151.203C2567.07,-138.719 2916.17,-118.452 3017,-177 3077.85,-212.331 3109.08,-296.199 3120.85,-335.711"/>
<polygon fill="#757575" stroke="#757575" points="3117.5,-336.729 3123.6,-345.389 3124.23,-334.813 3117.5,-336.729"/>
</g>
<!-- symbols/vaginas.js&#45;&gt;utils.js -->
<g id="edge84" class="edge"><title>symbols/vaginas.js&#45;&gt;utils.js</title>
<path fill="none" stroke="#757575" d="M2583.01,-374.475C2643.62,-370.809 2733.98,-359.533 2805,-326 2824.09,-316.985 2821.21,-302.348 2841,-295 2914.33,-267.777 2941.36,-275.072 3017,-295 3049.53,-303.571 3082.55,-324.266 3103.7,-339.397"/>
<polygon fill="#757575" stroke="#757575" points="3101.86,-342.394 3112,-345.49 3106.01,-336.751 3101.86,-342.394"/>
</g>
<!-- appearance/appearance.js -->
<g id="node12" class="node"><title>appearance/appearance.js</title>
<path fill="none" stroke="#c6c5fe" d="M2213.33,-169.5C2213.33,-169.5 2043.67,-169.5 2043.67,-169.5 2039.83,-169.5 2036,-165.667 2036,-161.833 2036,-161.833 2036,-154.167 2036,-154.167 2036,-150.333 2039.83,-146.5 2043.67,-146.5 2043.67,-146.5 2213.33,-146.5 2213.33,-146.5 2217.17,-146.5 2221,-150.333 2221,-154.167 2221,-154.167 2221,-161.833 2221,-161.833 2221,-165.667 2217.17,-169.5 2213.33,-169.5"/>
<text text-anchor="middle" x="2128.5" y="-154.3" font-family="Arial" font-size="14.00" fill="#c6c5fe">appearance/appearance.js</text>
</g>
<!-- appearance/appearance.js&#45;&gt;store/store.js -->
<g id="edge10" class="edge"><title>appearance/appearance.js&#45;&gt;store/store.js</title>
<path fill="none" stroke="#757575" d="M2134.94,-169.689C2162.59,-229.053 2287.53,-497.346 2323.36,-574.306"/>
<polygon fill="#757575" stroke="#757575" points="2320.24,-575.89 2327.63,-583.478 2326.59,-572.935 2320.24,-575.89"/>
</g>
<!-- appearance/appearance.js&#45;&gt;symbols/breastCup.js -->
<g id="edge11" class="edge"><title>appearance/appearance.js&#45;&gt;symbols/breastCup.js</title>
<path fill="none" stroke="#757575" d="M2221.13,-158C2229.6,-158 2238.17,-158 2246.6,-158"/>
<polygon fill="#757575" stroke="#757575" points="2246.79,-161.5 2256.79,-158 2246.79,-154.5 2246.79,-161.5"/>
</g>
<!-- symbols/gender.js -->
<g id="node13" class="node"><title>symbols/gender.js</title>
<path fill="none" stroke="#c6c5fe" d="M2392.83,-128.5C2392.83,-128.5 2275.17,-128.5 2275.17,-128.5 2271.33,-128.5 2267.5,-124.667 2267.5,-120.833 2267.5,-120.833 2267.5,-113.167 2267.5,-113.167 2267.5,-109.333 2271.33,-105.5 2275.17,-105.5 2275.17,-105.5 2392.83,-105.5 2392.83,-105.5 2396.67,-105.5 2400.5,-109.333 2400.5,-113.167 2400.5,-113.167 2400.5,-120.833 2400.5,-120.833 2400.5,-124.667 2396.67,-128.5 2392.83,-128.5"/>
<text text-anchor="middle" x="2334" y="-113.3" font-family="Arial" font-size="14.00" fill="#c6c5fe">symbols/gender.js</text>
</g>
<!-- appearance/appearance.js&#45;&gt;symbols/gender.js -->
<g id="edge12" class="edge"><title>appearance/appearance.js&#45;&gt;symbols/gender.js</title>
<path fill="none" stroke="#757575" d="M2186.73,-146.47C2211.32,-141.515 2240.24,-135.688 2265.85,-130.53"/>
<polygon fill="#757575" stroke="#757575" points="2266.74,-133.921 2275.85,-128.514 2265.36,-127.058 2266.74,-133.921"/>
</g>
<!-- symbols/gender.js&#45;&gt;utils.js -->
<g id="edge78" class="edge"><title>symbols/gender.js&#45;&gt;utils.js</title>
<path fill="none" stroke="#757575" d="M2374.03,-105.484C2485.08,-75.1942 2808.18,-4.45456 3017,-138 3087.96,-183.383 3114.68,-289.727 3123.12,-335.464"/>
<polygon fill="#757575" stroke="#757575" points="3119.7,-336.216 3124.86,-345.473 3126.6,-335.023 3119.7,-336.216"/>
</g>
<!-- components/appRoot.js -->
<g id="node14" class="node"><title>components/appRoot.js</title>
<path fill="none" stroke="#c6c5fe" d="M298.333,-525.5C298.333,-525.5 145.667,-525.5 145.667,-525.5 141.833,-525.5 138,-521.667 138,-517.833 138,-517.833 138,-510.167 138,-510.167 138,-506.333 141.833,-502.5 145.667,-502.5 145.667,-502.5 298.333,-502.5 298.333,-502.5 302.167,-502.5 306,-506.333 306,-510.167 306,-510.167 306,-517.833 306,-517.833 306,-521.667 302.167,-525.5 298.333,-525.5"/>
<text text-anchor="middle" x="222" y="-510.3" font-family="Arial" font-size="14.00" fill="#c6c5fe">components/appRoot.js</text>
</g>
<!-- components/lowerButtons.js -->
<g id="node15" class="node"><title>components/lowerButtons.js</title>
<path fill="none" stroke="#c6c5fe" d="M529.333,-484.5C529.333,-484.5 349.667,-484.5 349.667,-484.5 345.833,-484.5 342,-480.667 342,-476.833 342,-476.833 342,-469.167 342,-469.167 342,-465.333 345.833,-461.5 349.667,-461.5 349.667,-461.5 529.333,-461.5 529.333,-461.5 533.167,-461.5 537,-465.333 537,-469.167 537,-469.167 537,-476.833 537,-476.833 537,-480.667 533.167,-484.5 529.333,-484.5"/>
<text text-anchor="middle" x="439.5" y="-469.3" font-family="Arial" font-size="14.00" fill="#c6c5fe">components/lowerButtons.js</text>
</g>
<!-- components/appRoot.js&#45;&gt;components/lowerButtons.js -->
<g id="edge13" class="edge"><title>components/appRoot.js&#45;&gt;components/lowerButtons.js</title>
<path fill="none" stroke="#757575" d="M283.602,-502.47C309.88,-497.471 340.817,-491.585 368.106,-486.393"/>
<polygon fill="#757575" stroke="#757575" points="368.81,-489.822 377.98,-484.514 367.502,-482.945 368.81,-489.822"/>
</g>
<!-- components/menuBar.js -->
<g id="node16" class="node"><title>components/menuBar.js</title>
<path fill="none" stroke="#c6c5fe" d="M516.833,-443.5C516.833,-443.5 362.167,-443.5 362.167,-443.5 358.333,-443.5 354.5,-439.667 354.5,-435.833 354.5,-435.833 354.5,-428.167 354.5,-428.167 354.5,-424.333 358.333,-420.5 362.167,-420.5 362.167,-420.5 516.833,-420.5 516.833,-420.5 520.667,-420.5 524.5,-424.333 524.5,-428.167 524.5,-428.167 524.5,-435.833 524.5,-435.833 524.5,-439.667 520.667,-443.5 516.833,-443.5"/>
<text text-anchor="middle" x="439.5" y="-428.3" font-family="Arial" font-size="14.00" fill="#c6c5fe">components/menuBar.js</text>
</g>
<!-- components/appRoot.js&#45;&gt;components/menuBar.js -->
<g id="edge14" class="edge"><title>components/appRoot.js&#45;&gt;components/menuBar.js</title>
<path fill="none" stroke="#757575" d="M241.235,-502.456C263.986,-488.543 304.476,-465.372 342,-452 348.029,-449.852 354.356,-447.904 360.766,-446.144"/>
<polygon fill="#757575" stroke="#757575" points="362.069,-449.423 370.875,-443.532 360.317,-442.645 362.069,-449.423"/>
</g>
<!-- components/output.js -->
<g id="node17" class="node"><title>components/output.js</title>
<path fill="none" stroke="#cfffac" d="M507.833,-566.5C507.833,-566.5 371.167,-566.5 371.167,-566.5 367.333,-566.5 363.5,-562.667 363.5,-558.833 363.5,-558.833 363.5,-551.167 363.5,-551.167 363.5,-547.333 367.333,-543.5 371.167,-543.5 371.167,-543.5 507.833,-543.5 507.833,-543.5 511.667,-543.5 515.5,-547.333 515.5,-551.167 515.5,-551.167 515.5,-558.833 515.5,-558.833 515.5,-562.667 511.667,-566.5 507.833,-566.5"/>
<text text-anchor="middle" x="439.5" y="-551.3" font-family="Arial" font-size="14.00" fill="#cfffac">components/output.js</text>
</g>
<!-- components/appRoot.js&#45;&gt;components/output.js -->
<g id="edge15" class="edge"><title>components/appRoot.js&#45;&gt;components/output.js</title>
<path fill="none" stroke="#757575" d="M283.602,-525.53C309.88,-530.529 340.817,-536.415 368.106,-541.607"/>
<polygon fill="#757575" stroke="#757575" points="367.502,-545.055 377.98,-543.486 368.81,-538.178 367.502,-545.055"/>
</g>
<!-- components/statBar.js -->
<g id="node18" class="node"><title>components/statBar.js</title>
<path fill="none" stroke="#c6c5fe" d="M510.833,-525.5C510.833,-525.5 368.167,-525.5 368.167,-525.5 364.333,-525.5 360.5,-521.667 360.5,-517.833 360.5,-517.833 360.5,-510.167 360.5,-510.167 360.5,-506.333 364.333,-502.5 368.167,-502.5 368.167,-502.5 510.833,-502.5 510.833,-502.5 514.667,-502.5 518.5,-506.333 518.5,-510.167 518.5,-510.167 518.5,-517.833 518.5,-517.833 518.5,-521.667 514.667,-525.5 510.833,-525.5"/>
<text text-anchor="middle" x="439.5" y="-510.3" font-family="Arial" font-size="14.00" fill="#c6c5fe">components/statBar.js</text>
</g>
<!-- components/appRoot.js&#45;&gt;components/statBar.js -->
<g id="edge16" class="edge"><title>components/appRoot.js&#45;&gt;components/statBar.js</title>
<path fill="none" stroke="#757575" d="M306.01,-514C320.557,-514 335.739,-514 350.418,-514"/>
<polygon fill="#757575" stroke="#757575" points="350.486,-517.5 360.486,-514 350.486,-510.5 350.486,-517.5"/>
</g>
<!-- components/buttonGrid.js -->
<g id="node20" class="node"><title>components/buttonGrid.js</title>
<path fill="none" stroke="#c6c5fe" d="M752.333,-443.5C752.333,-443.5 588.667,-443.5 588.667,-443.5 584.833,-443.5 581,-439.667 581,-435.833 581,-435.833 581,-428.167 581,-428.167 581,-424.333 584.833,-420.5 588.667,-420.5 588.667,-420.5 752.333,-420.5 752.333,-420.5 756.167,-420.5 760,-424.333 760,-428.167 760,-428.167 760,-435.833 760,-435.833 760,-439.667 756.167,-443.5 752.333,-443.5"/>
<text text-anchor="middle" x="670.5" y="-428.3" font-family="Arial" font-size="14.00" fill="#c6c5fe">components/buttonGrid.js</text>
</g>
<!-- components/lowerButtons.js&#45;&gt;components/buttonGrid.js -->
<g id="edge22" class="edge"><title>components/lowerButtons.js&#45;&gt;components/buttonGrid.js</title>
<path fill="none" stroke="#757575" d="M504.899,-461.47C532.945,-456.449 565.986,-450.533 595.078,-445.325"/>
<polygon fill="#757575" stroke="#757575" points="595.962,-448.722 605.188,-443.514 594.728,-441.832 595.962,-448.722"/>
</g>
<!-- components/menuBar.js&#45;&gt;components/buttonGrid.js -->
<g id="edge23" class="edge"><title>components/menuBar.js&#45;&gt;components/buttonGrid.js</title>
<path fill="none" stroke="#757575" d="M524.796,-432C539.613,-432 555.157,-432 570.335,-432"/>
<polygon fill="#757575" stroke="#757575" points="570.771,-435.5 580.771,-432 570.771,-428.5 570.771,-435.5"/>
</g>
<!-- components/spriteDisplay.js -->
<g id="node25" class="node"><title>components/spriteDisplay.js</title>
<path fill="none" stroke="#cfffac" d="M760.333,-525.5C760.333,-525.5 580.667,-525.5 580.667,-525.5 576.833,-525.5 573,-521.667 573,-517.833 573,-517.833 573,-510.167 573,-510.167 573,-506.333 576.833,-502.5 580.667,-502.5 580.667,-502.5 760.333,-502.5 760.333,-502.5 764.167,-502.5 768,-506.333 768,-510.167 768,-510.167 768,-517.833 768,-517.833 768,-521.667 764.167,-525.5 760.333,-525.5"/>
<text text-anchor="middle" x="670.5" y="-510.3" font-family="Arial" font-size="14.00" fill="#cfffac">components/spriteDisplay.js</text>
</g>
<!-- components/statBar.js&#45;&gt;components/spriteDisplay.js -->
<g id="edge26" class="edge"><title>components/statBar.js&#45;&gt;components/spriteDisplay.js</title>
<path fill="none" stroke="#757575" d="M518.668,-514C532.775,-514 547.703,-514 562.464,-514"/>
<polygon fill="#757575" stroke="#757575" points="562.645,-517.5 572.645,-514 562.645,-510.5 562.645,-517.5"/>
</g>
<!-- components/statDisplay.js -->
<g id="node27" class="node"><title>components/statDisplay.js</title>
<path fill="none" stroke="#c6c5fe" d="M753.833,-484.5C753.833,-484.5 587.167,-484.5 587.167,-484.5 583.333,-484.5 579.5,-480.667 579.5,-476.833 579.5,-476.833 579.5,-469.167 579.5,-469.167 579.5,-465.333 583.333,-461.5 587.167,-461.5 587.167,-461.5 753.833,-461.5 753.833,-461.5 757.667,-461.5 761.5,-465.333 761.5,-469.167 761.5,-469.167 761.5,-476.833 761.5,-476.833 761.5,-480.667 757.667,-484.5 753.833,-484.5"/>
<text text-anchor="middle" x="670.5" y="-469.3" font-family="Arial" font-size="14.00" fill="#c6c5fe">components/statDisplay.js</text>
</g>
<!-- components/statBar.js&#45;&gt;components/statDisplay.js -->
<g id="edge27" class="edge"><title>components/statBar.js&#45;&gt;components/statDisplay.js</title>
<path fill="none" stroke="#757575" d="M504.899,-502.47C532.945,-497.449 565.986,-491.533 595.078,-486.325"/>
<polygon fill="#757575" stroke="#757575" points="595.962,-489.722 605.188,-484.514 594.728,-482.832 595.962,-489.722"/>
</g>
<!-- components/timeDisplay.js -->
<g id="node28" class="node"><title>components/timeDisplay.js</title>
<path fill="none" stroke="#cfffac" d="M756.333,-566.5C756.333,-566.5 584.667,-566.5 584.667,-566.5 580.833,-566.5 577,-562.667 577,-558.833 577,-558.833 577,-551.167 577,-551.167 577,-547.333 580.833,-543.5 584.667,-543.5 584.667,-543.5 756.333,-543.5 756.333,-543.5 760.167,-543.5 764,-547.333 764,-551.167 764,-551.167 764,-558.833 764,-558.833 764,-562.667 760.167,-566.5 756.333,-566.5"/>
<text text-anchor="middle" x="670.5" y="-551.3" font-family="Arial" font-size="14.00" fill="#cfffac">components/timeDisplay.js</text>
</g>
<!-- components/statBar.js&#45;&gt;components/timeDisplay.js -->
<g id="edge28" class="edge"><title>components/statBar.js&#45;&gt;components/timeDisplay.js</title>
<path fill="none" stroke="#757575" d="M504.899,-525.53C532.945,-530.551 565.986,-536.467 595.078,-541.675"/>
<polygon fill="#757575" stroke="#757575" points="594.728,-545.168 605.188,-543.486 595.962,-538.278 594.728,-545.168"/>
</g>
<!-- components/button.js -->
<g id="node19" class="node"><title>components/button.js</title>
<path fill="none" stroke="#cfffac" d="M1186.33,-443.5C1186.33,-443.5 1049.67,-443.5 1049.67,-443.5 1045.83,-443.5 1042,-439.667 1042,-435.833 1042,-435.833 1042,-428.167 1042,-428.167 1042,-424.333 1045.83,-420.5 1049.67,-420.5 1049.67,-420.5 1186.33,-420.5 1186.33,-420.5 1190.17,-420.5 1194,-424.333 1194,-428.167 1194,-428.167 1194,-435.833 1194,-435.833 1194,-439.667 1190.17,-443.5 1186.33,-443.5"/>
<text text-anchor="middle" x="1118" y="-428.3" font-family="Arial" font-size="14.00" fill="#cfffac">components/button.js</text>
</g>
<!-- components/buttonGrid.js&#45;&gt;actions/Engine.js -->
<g id="edge17" class="edge"><title>components/buttonGrid.js&#45;&gt;actions/Engine.js</title>
<path fill="none" stroke="#757575" d="M734.774,-420.47C762.911,-415.343 796.166,-409.283 825.181,-403.996"/>
<polygon fill="#757575" stroke="#757575" points="826.042,-407.397 835.252,-402.161 824.787,-400.51 826.042,-407.397"/>
</g>
<!-- components/buttonWrap.js -->
<g id="node21" class="node"><title>components/buttonWrap.js</title>
<path fill="none" stroke="#c6c5fe" d="M983.333,-443.5C983.333,-443.5 811.667,-443.5 811.667,-443.5 807.833,-443.5 804,-439.667 804,-435.833 804,-435.833 804,-428.167 804,-428.167 804,-424.333 807.833,-420.5 811.667,-420.5 811.667,-420.5 983.333,-420.5 983.333,-420.5 987.167,-420.5 991,-424.333 991,-428.167 991,-428.167 991,-435.833 991,-435.833 991,-439.667 987.167,-443.5 983.333,-443.5"/>
<text text-anchor="middle" x="897.5" y="-428.3" font-family="Arial" font-size="14.00" fill="#c6c5fe">components/buttonWrap.js</text>
</g>
<!-- components/buttonGrid.js&#45;&gt;components/buttonWrap.js -->
<g id="edge18" class="edge"><title>components/buttonGrid.js&#45;&gt;components/buttonWrap.js</title>
<path fill="none" stroke="#757575" d="M760.103,-432C771.119,-432 782.455,-432 793.663,-432"/>
<polygon fill="#757575" stroke="#757575" points="793.906,-435.5 803.906,-432 793.906,-428.5 793.906,-435.5"/>
</g>
<!-- components/buttonWrap.js&#45;&gt;components/button.js -->
<g id="edge19" class="edge"><title>components/buttonWrap.js&#45;&gt;components/button.js</title>
<path fill="none" stroke="#757575" d="M991.164,-432C1004.6,-432 1018.39,-432 1031.67,-432"/>
<polygon fill="#757575" stroke="#757575" points="1031.72,-435.5 1041.72,-432 1031.72,-428.5 1031.72,-435.5"/>
</g>
<!-- components/dropdown.js -->
<g id="node22" class="node"><title>components/dropdown.js</title>
<path fill="none" stroke="#c6c5fe" d="M3009.33,-647.5C3009.33,-647.5 2848.67,-647.5 2848.67,-647.5 2844.83,-647.5 2841,-643.667 2841,-639.833 2841,-639.833 2841,-632.167 2841,-632.167 2841,-628.333 2844.83,-624.5 2848.67,-624.5 2848.67,-624.5 3009.33,-624.5 3009.33,-624.5 3013.17,-624.5 3017,-628.333 3017,-632.167 3017,-632.167 3017,-639.833 3017,-639.833 3017,-643.667 3013.17,-647.5 3009.33,-647.5"/>
<text text-anchor="middle" x="2929" y="-632.3" font-family="Arial" font-size="14.00" fill="#c6c5fe">components/dropdown.js</text>
</g>
<!-- components/dropdown.js&#45;&gt;actions/engineMsg.js -->
<g id="edge20" class="edge"><title>components/dropdown.js&#45;&gt;actions/engineMsg.js</title>
<path fill="none" stroke="#757575" d="M2986.57,-647.516C3009.49,-652.181 3036.12,-657.602 3059.96,-662.455"/>
<polygon fill="#757575" stroke="#757575" points="3059.49,-665.931 3069.99,-664.496 3060.89,-659.072 3059.49,-665.931"/>
</g>
<!-- symbols/perks.js -->
<g id="node23" class="node"><title>symbols/perks.js</title>
<path fill="none" stroke="#cfffac" d="M3181.33,-646.5C3181.33,-646.5 3073.67,-646.5 3073.67,-646.5 3069.83,-646.5 3066,-642.667 3066,-638.833 3066,-638.833 3066,-631.167 3066,-631.167 3066,-627.333 3069.83,-623.5 3073.67,-623.5 3073.67,-623.5 3181.33,-623.5 3181.33,-623.5 3185.17,-623.5 3189,-627.333 3189,-631.167 3189,-631.167 3189,-638.833 3189,-638.833 3189,-642.667 3185.17,-646.5 3181.33,-646.5"/>
<text text-anchor="middle" x="3127.5" y="-631.3" font-family="Arial" font-size="14.00" fill="#cfffac">symbols/perks.js</text>
</g>
<!-- components/dropdown.js&#45;&gt;symbols/perks.js -->
<g id="edge21" class="edge"><title>components/dropdown.js&#45;&gt;symbols/perks.js</title>
<path fill="none" stroke="#757575" d="M3017.05,-635.557C3029.88,-635.492 3042.97,-635.425 3055.43,-635.362"/>
<polygon fill="#757575" stroke="#757575" points="3055.74,-638.86 3065.72,-635.309 3055.7,-631.86 3055.74,-638.86"/>
</g>
<!-- components/nameInput.js -->
<g id="node24" class="node"><title>components/nameInput.js</title>
<path fill="none" stroke="#c6c5fe" d="M1992.33,-408.5C1992.33,-408.5 1827.67,-408.5 1827.67,-408.5 1823.83,-408.5 1820,-404.667 1820,-400.833 1820,-400.833 1820,-393.167 1820,-393.167 1820,-389.333 1823.83,-385.5 1827.67,-385.5 1827.67,-385.5 1992.33,-385.5 1992.33,-385.5 1996.17,-385.5 2000,-389.333 2000,-393.167 2000,-393.167 2000,-400.833 2000,-400.833 2000,-404.667 1996.17,-408.5 1992.33,-408.5"/>
<text text-anchor="middle" x="1910" y="-393.3" font-family="Arial" font-size="14.00" fill="#c6c5fe">components/nameInput.js</text>
</g>
<!-- components/nameInput.js&#45;&gt;store/store.js -->
<g id="edge25" class="edge"><title>components/nameInput.js&#45;&gt;store/store.js</title>
<path fill="none" stroke="#757575" d="M1963.65,-408.551C2041.41,-426.469 2181.99,-462.407 2221,-496 2248.41,-519.604 2229.83,-545.116 2257,-569 2262.21,-573.578 2268.26,-577.358 2274.63,-580.478"/>
<polygon fill="#757575" stroke="#757575" points="2273.56,-583.831 2284.13,-584.592 2276.35,-577.407 2273.56,-583.831"/>
</g>
<!-- components/nameInput.js&#45;&gt;actions/Player.js -->
<g id="edge24" class="edge"><title>components/nameInput.js&#45;&gt;actions/Player.js</title>
<path fill="none" stroke="#757575" d="M2000.31,-397C2019.77,-397 2040.07,-397 2058.59,-397"/>
<polygon fill="#757575" stroke="#757575" points="2058.68,-400.5 2068.68,-397 2058.68,-393.5 2058.68,-400.5"/>
</g>
<!-- components/stat.js -->
<g id="node26" class="node"><title>components/stat.js</title>
<path fill="none" stroke="#cfffac" d="M957.833,-484.5C957.833,-484.5 837.167,-484.5 837.167,-484.5 833.333,-484.5 829.5,-480.667 829.5,-476.833 829.5,-476.833 829.5,-469.167 829.5,-469.167 829.5,-465.333 833.333,-461.5 837.167,-461.5 837.167,-461.5 957.833,-461.5 957.833,-461.5 961.667,-461.5 965.5,-465.333 965.5,-469.167 965.5,-469.167 965.5,-476.833 965.5,-476.833 965.5,-480.667 961.667,-484.5 957.833,-484.5"/>
<text text-anchor="middle" x="897.5" y="-469.3" font-family="Arial" font-size="14.00" fill="#cfffac">components/stat.js</text>
</g>
<!-- components/statDisplay.js&#45;&gt;components/stat.js -->
<g id="edge29" class="edge"><title>components/statDisplay.js&#45;&gt;components/stat.js</title>
<path fill="none" stroke="#757575" d="M761.72,-473C780.804,-473 800.779,-473 819.327,-473"/>
<polygon fill="#757575" stroke="#757575" points="819.471,-476.5 829.471,-473 819.471,-469.5 819.471,-476.5"/>
</g>
<!-- index.js -->
<g id="node29" class="node"><title>index.js</title>
<path fill="none" stroke="#c6c5fe" d="M75.8333,-565.5C75.8333,-565.5 26.1667,-565.5 26.1667,-565.5 22.3333,-565.5 18.5,-561.667 18.5,-557.833 18.5,-557.833 18.5,-550.167 18.5,-550.167 18.5,-546.333 22.3333,-542.5 26.1667,-542.5 26.1667,-542.5 75.8333,-542.5 75.8333,-542.5 79.6667,-542.5 83.5,-546.333 83.5,-550.167 83.5,-550.167 83.5,-557.833 83.5,-557.833 83.5,-561.667 79.6667,-565.5 75.8333,-565.5"/>
<text text-anchor="middle" x="51" y="-550.3" font-family="Arial" font-size="14.00" fill="#c6c5fe">index.js</text>
</g>
<!-- index.js&#45;&gt;store/store.js -->
<g id="edge31" class="edge"><title>index.js&#45;&gt;store/store.js</title>
<path fill="none" stroke="#757575" d="M83.9462,-559.701C149.946,-570.967 306.245,-595 438.5,-595 438.5,-595 438.5,-595 1911,-595 2040.63,-595 2192.65,-595 2274.2,-595"/>
<polygon fill="#757575" stroke="#757575" points="2274.26,-598.5 2284.26,-595 2274.26,-591.5 2274.26,-598.5"/>
</g>
<!-- index.js&#45;&gt;components/appRoot.js -->
<g id="edge30" class="edge"><title>index.js&#45;&gt;components/appRoot.js</title>
<path fill="none" stroke="#757575" d="M83.7876,-546.476C105.916,-541.239 136.075,-534.101 162.483,-527.85"/>
<polygon fill="#757575" stroke="#757575" points="163.471,-531.213 172.396,-525.504 161.859,-524.401 163.471,-531.213"/>
</g>
<!-- reducers/root.js&#45;&gt;actions/coreMsg.js -->
<g id="edge32" class="edge"><title>reducers/root.js&#45;&gt;actions/coreMsg.js</title>
<path fill="none" stroke="#757575" d="M2519.7,-626.551C2529.93,-656.399 2561.71,-736.117 2619,-770 2689.26,-811.559 2784.7,-813.006 2850.84,-807.28"/>
<polygon fill="#757575" stroke="#757575" points="2851.57,-810.727 2861.2,-806.305 2850.91,-803.758 2851.57,-810.727"/>
</g>
<!-- reducers/root.js&#45;&gt;actions/engineMsg.js -->
<g id="edge33" class="edge"><title>reducers/root.js&#45;&gt;actions/engineMsg.js</title>
<path fill="none" stroke="#757575" d="M2521.44,-626.515C2534.22,-652.023 2568.91,-712.859 2619,-736 2699.29,-773.094 2931.32,-757.936 3017,-736 3048.97,-727.815 3081.65,-708.143 3102.88,-693.543"/>
<polygon fill="#757575" stroke="#757575" points="3105.09,-696.269 3111.24,-687.645 3101.05,-690.548 3105.09,-696.269"/>
</g>
<!-- reducers/root.js&#45;&gt;actions/playerMsg.js -->
<g id="edge34" class="edge"><title>reducers/root.js&#45;&gt;actions/playerMsg.js</title>
<path fill="none" stroke="#757575" d="M2573.19,-618.381C2645.52,-623.399 2765.41,-634.399 2805,-654 2825.28,-664.041 2821.57,-678.407 2841,-690 2848.3,-694.354 2856.38,-698.027 2864.59,-701.113"/>
<polygon fill="#757575" stroke="#757575" points="2863.66,-704.494 2874.25,-704.471 2865.96,-697.882 2863.66,-704.494"/>
</g>
<!-- reducers/updateBodyArr.js -->
<g id="node31" class="node"><title>reducers/updateBodyArr.js</title>
<path fill="none" stroke="#c6c5fe" d="M2797.33,-727.5C2797.33,-727.5 2626.67,-727.5 2626.67,-727.5 2622.83,-727.5 2619,-723.667 2619,-719.833 2619,-719.833 2619,-712.167 2619,-712.167 2619,-708.333 2622.83,-704.5 2626.67,-704.5 2626.67,-704.5 2797.33,-704.5 2797.33,-704.5 2801.17,-704.5 2805,-708.333 2805,-712.167 2805,-712.167 2805,-719.833 2805,-719.833 2805,-723.667 2801.17,-727.5 2797.33,-727.5"/>
<text text-anchor="middle" x="2712" y="-712.3" font-family="Arial" font-size="14.00" fill="#c6c5fe">reducers/updateBodyArr.js</text>
</g>
<!-- reducers/root.js&#45;&gt;reducers/updateBodyArr.js -->
<g id="edge35" class="edge"><title>reducers/root.js&#45;&gt;reducers/updateBodyArr.js</title>
<path fill="none" stroke="#757575" d="M2527.51,-626.767C2545.41,-644.366 2581.76,-677.358 2619,-695 2624,-697.367 2629.28,-699.475 2634.67,-701.351"/>
<polygon fill="#757575" stroke="#757575" points="2633.9,-704.777 2644.49,-704.483 2636.03,-698.108 2633.9,-704.777"/>
</g>
<!-- reducers/updateButtons.js -->
<g id="node32" class="node"><title>reducers/updateButtons.js</title>
<path fill="none" stroke="#cfffac" d="M2795.33,-606.5C2795.33,-606.5 2628.67,-606.5 2628.67,-606.5 2624.83,-606.5 2621,-602.667 2621,-598.833 2621,-598.833 2621,-591.167 2621,-591.167 2621,-587.333 2624.83,-583.5 2628.67,-583.5 2628.67,-583.5 2795.33,-583.5 2795.33,-583.5 2799.17,-583.5 2803,-587.333 2803,-591.167 2803,-591.167 2803,-598.833 2803,-598.833 2803,-602.667 2799.17,-606.5 2795.33,-606.5"/>
<text text-anchor="middle" x="2712" y="-591.3" font-family="Arial" font-size="14.00" fill="#cfffac">reducers/updateButtons.js</text>
</g>
<!-- reducers/root.js&#45;&gt;reducers/updateButtons.js -->
<g id="edge36" class="edge"><title>reducers/root.js&#45;&gt;reducers/updateButtons.js</title>
<path fill="none" stroke="#757575" d="M2573.19,-609.134C2584.98,-607.925 2597.73,-606.617 2610.55,-605.303"/>
<polygon fill="#757575" stroke="#757575" points="2611.23,-608.751 2620.83,-604.249 2610.52,-601.787 2611.23,-608.751"/>
</g>
<!-- reducers/updateStats.js -->
<g id="node33" class="node"><title>reducers/updateStats.js</title>
<path fill="none" stroke="#c6c5fe" d="M2787.83,-686.5C2787.83,-686.5 2636.17,-686.5 2636.17,-686.5 2632.33,-686.5 2628.5,-682.667 2628.5,-678.833 2628.5,-678.833 2628.5,-671.167 2628.5,-671.167 2628.5,-667.333 2632.33,-663.5 2636.17,-663.5 2636.17,-663.5 2787.83,-663.5 2787.83,-663.5 2791.67,-663.5 2795.5,-667.333 2795.5,-671.167 2795.5,-671.167 2795.5,-678.833 2795.5,-678.833 2795.5,-682.667 2791.67,-686.5 2787.83,-686.5"/>
<text text-anchor="middle" x="2712" y="-671.3" font-family="Arial" font-size="14.00" fill="#c6c5fe">reducers/updateStats.js</text>
</g>
<!-- reducers/root.js&#45;&gt;reducers/updateStats.js -->
<g id="edge37" class="edge"><title>reducers/root.js&#45;&gt;reducers/updateStats.js</title>
<path fill="none" stroke="#757575" d="M2549.75,-626.55C2569.8,-633.31 2595.77,-641.888 2619,-649 2631.9,-652.95 2645.88,-657.013 2658.96,-660.718"/>
<polygon fill="#757575" stroke="#757575" points="2658.18,-664.134 2668.75,-663.475 2660.07,-657.396 2658.18,-664.134"/>
</g>
<!-- reducers/updateTime.js -->
<g id="node34" class="node"><title>reducers/updateTime.js</title>
<path fill="none" stroke="#c6c5fe" d="M2787.83,-450.5C2787.83,-450.5 2636.17,-450.5 2636.17,-450.5 2632.33,-450.5 2628.5,-446.667 2628.5,-442.833 2628.5,-442.833 2628.5,-435.167 2628.5,-435.167 2628.5,-431.333 2632.33,-427.5 2636.17,-427.5 2636.17,-427.5 2787.83,-427.5 2787.83,-427.5 2791.67,-427.5 2795.5,-431.333 2795.5,-435.167 2795.5,-435.167 2795.5,-442.833 2795.5,-442.833 2795.5,-446.667 2791.67,-450.5 2787.83,-450.5"/>
<text text-anchor="middle" x="2712" y="-435.3" font-family="Arial" font-size="14.00" fill="#c6c5fe">reducers/updateTime.js</text>
</g>
<!-- reducers/root.js&#45;&gt;reducers/updateTime.js -->
<g id="edge38" class="edge"><title>reducers/root.js&#45;&gt;reducers/updateTime.js</title>
<path fill="none" stroke="#757575" d="M2520.72,-603.181C2532.66,-574.797 2566.89,-502.378 2619,-465 2624.84,-460.81 2631.34,-457.293 2638.11,-454.342"/>
<polygon fill="#757575" stroke="#757575" points="2639.44,-457.579 2647.46,-450.659 2636.87,-451.066 2639.44,-457.579"/>
</g>
<!-- store/initialState.js -->
<g id="node35" class="node"><title>store/initialState.js</title>
<path fill="none" stroke="#c6c5fe" d="M2769.83,-409.5C2769.83,-409.5 2654.17,-409.5 2654.17,-409.5 2650.33,-409.5 2646.5,-405.667 2646.5,-401.833 2646.5,-401.833 2646.5,-394.167 2646.5,-394.167 2646.5,-390.333 2650.33,-386.5 2654.17,-386.5 2654.17,-386.5 2769.83,-386.5 2769.83,-386.5 2773.67,-386.5 2777.5,-390.333 2777.5,-394.167 2777.5,-394.167 2777.5,-401.833 2777.5,-401.833 2777.5,-405.667 2773.67,-409.5 2769.83,-409.5"/>
<text text-anchor="middle" x="2712" y="-394.3" font-family="Arial" font-size="14.00" fill="#c6c5fe">store/initialState.js</text>
</g>
<!-- reducers/root.js&#45;&gt;store/initialState.js -->
<g id="edge39" class="edge"><title>reducers/root.js&#45;&gt;store/initialState.js</title>
<path fill="none" stroke="#757575" d="M2518.43,-603.456C2526.26,-569.19 2554.25,-467.383 2619,-418 2624.41,-413.871 2630.5,-410.556 2636.9,-407.9"/>
<polygon fill="#757575" stroke="#757575" points="2638.23,-411.14 2646.46,-404.461 2635.86,-404.554 2638.23,-411.14"/>
</g>
<!-- reducers/root.js&#45;&gt;utils.js -->
<g id="edge40" class="edge"><title>reducers/root.js&#45;&gt;utils.js</title>
<path fill="none" stroke="#757575" d="M2539.96,-603.381C2560.46,-593.949 2591.01,-581.092 2619,-574 2791.66,-530.246 2865.91,-621.32 3017,-527 3073.38,-491.806 3106.25,-415.698 3119.56,-378.433"/>
<polygon fill="#757575" stroke="#757575" points="3122.99,-379.205 3122.93,-368.61 3116.37,-376.933 3122.99,-379.205"/>
</g>
<!-- reducers/updateBodyArr.js&#45;&gt;actions/playerMsg.js -->
<g id="edge41" class="edge"><title>reducers/updateBodyArr.js&#45;&gt;actions/playerMsg.js</title>
<path fill="none" stroke="#757575" d="M2805.11,-716C2818.74,-716 2832.7,-716 2846.1,-716"/>
<polygon fill="#757575" stroke="#757575" points="2846.22,-719.5 2856.22,-716 2846.22,-712.5 2846.22,-719.5"/>
</g>
<!-- reducers/updateStats.js&#45;&gt;actions/coreMsg.js -->
<g id="edge42" class="edge"><title>reducers/updateStats.js&#45;&gt;actions/coreMsg.js</title>
<path fill="none" stroke="#757575" d="M2786.93,-686.603C2793.25,-688.914 2799.37,-691.683 2805,-695 2825.9,-707.304 2822.88,-719.883 2841,-736 2859.21,-752.2 2881.95,-767.743 2899.61,-778.95"/>
<polygon fill="#757575" stroke="#757575" points="2898,-782.069 2908.34,-784.395 2901.71,-776.131 2898,-782.069"/>
</g>
<!-- reducers/updateStats.js&#45;&gt;actions/playerMsg.js -->
<g id="edge43" class="edge"><title>reducers/updateStats.js&#45;&gt;actions/playerMsg.js</title>
<path fill="none" stroke="#757575" d="M2773.46,-686.53C2799.68,-691.529 2830.54,-697.415 2857.77,-702.607"/>
<polygon fill="#757575" stroke="#757575" points="2857.14,-706.05 2867.62,-704.486 2858.45,-699.174 2857.14,-706.05"/>
</g>
<!-- reducers/updateStats.js&#45;&gt;utils.js -->
<g id="edge44" class="edge"><title>reducers/updateStats.js&#45;&gt;utils.js</title>
<path fill="none" stroke="#757575" d="M2734.19,-663.465C2759.14,-650.266 2802.11,-628.71 2841,-615 2916.94,-588.224 2953.87,-621.983 3017,-572 3081.34,-521.063 3111.33,-422.184 3121.87,-378.564"/>
<polygon fill="#757575" stroke="#757575" points="3125.3,-379.258 3124.13,-368.728 3118.48,-377.685 3125.3,-379.258"/>
</g>
<!-- reducers/updateTime.js&#45;&gt;utils.js -->
<g id="edge45" class="edge"><title>reducers/updateTime.js&#45;&gt;utils.js</title>
<path fill="none" stroke="#757575" d="M2770.74,-450.58C2782.52,-454.228 2794.51,-458.944 2805,-465 2824.33,-476.153 2820.32,-491.606 2841,-500 2913.48,-529.425 2946.86,-534.632 3017,-500 3068.83,-474.406 3102.91,-411.2 3117.84,-378.054"/>
<polygon fill="#757575" stroke="#757575" points="3121.09,-379.374 3121.86,-368.808 3114.67,-376.584 3121.09,-379.374"/>
</g>
<!-- store/initialState.js&#45;&gt;components/dropdown.js -->
<g id="edge67" class="edge"><title>store/initialState.js&#45;&gt;components/dropdown.js</title>
<path fill="none" stroke="#757575" d="M2777.91,-403.995C2787.71,-407.102 2797.16,-411.584 2805,-418 2835.81,-443.2 2822.22,-464.908 2841,-500 2863.95,-542.886 2895.77,-590.124 2913.88,-616.107"/>
<polygon fill="#757575" stroke="#757575" points="2911.07,-618.194 2919.68,-624.369 2916.8,-614.173 2911.07,-618.194"/>
</g>
<!-- store/initialState.js&#45;&gt;scenes/sceneSymbols.js -->
<g id="edge68" class="edge"><title>store/initialState.js&#45;&gt;scenes/sceneSymbols.js</title>
<path fill="none" stroke="#757575" d="M2725.49,-386.383C2761.26,-353.105 2864.34,-257.219 2908.04,-216.569"/>
<polygon fill="#757575" stroke="#757575" points="2910.54,-219.023 2915.48,-209.649 2905.77,-213.898 2910.54,-219.023"/>
</g>
<!-- symbols/face.js -->
<g id="node45" class="node"><title>symbols/face.js</title>
<path fill="none" stroke="#c6c5fe" d="M2979.33,-327.5C2979.33,-327.5 2878.67,-327.5 2878.67,-327.5 2874.83,-327.5 2871,-323.667 2871,-319.833 2871,-319.833 2871,-312.167 2871,-312.167 2871,-308.333 2874.83,-304.5 2878.67,-304.5 2878.67,-304.5 2979.33,-304.5 2979.33,-304.5 2983.17,-304.5 2987,-308.333 2987,-312.167 2987,-312.167 2987,-319.833 2987,-319.833 2987,-323.667 2983.17,-327.5 2979.33,-327.5"/>
<text text-anchor="middle" x="2929" y="-312.3" font-family="Arial" font-size="14.00" fill="#c6c5fe">symbols/face.js</text>
</g>
<!-- store/initialState.js&#45;&gt;symbols/face.js -->
<g id="edge69" class="edge"><title>store/initialState.js&#45;&gt;symbols/face.js</title>
<path fill="none" stroke="#757575" d="M2752.21,-386.474C2768.99,-380.798 2788.48,-373.186 2805,-364 2822.71,-354.149 2822.69,-344.698 2841,-336 2847.21,-333.051 2853.88,-330.524 2860.66,-328.36"/>
<polygon fill="#757575" stroke="#757575" points="2862.02,-331.609 2870.63,-325.444 2860.05,-324.89 2862.02,-331.609"/>
</g>
<!-- symbols/lowerBody.js -->
<g id="node46" class="node"><title>symbols/lowerBody.js</title>
<path fill="none" stroke="#c6c5fe" d="M2998.83,-491.5C2998.83,-491.5 2859.17,-491.5 2859.17,-491.5 2855.33,-491.5 2851.5,-487.667 2851.5,-483.833 2851.5,-483.833 2851.5,-476.167 2851.5,-476.167 2851.5,-472.333 2855.33,-468.5 2859.17,-468.5 2859.17,-468.5 2998.83,-468.5 2998.83,-468.5 3002.67,-468.5 3006.5,-472.333 3006.5,-476.167 3006.5,-476.167 3006.5,-483.833 3006.5,-483.833 3006.5,-487.667 3002.67,-491.5 2998.83,-491.5"/>
<text text-anchor="middle" x="2929" y="-476.3" font-family="Arial" font-size="14.00" fill="#c6c5fe">symbols/lowerBody.js</text>
</g>
<!-- store/initialState.js&#45;&gt;symbols/lowerBody.js -->
<g id="edge70" class="edge"><title>store/initialState.js&#45;&gt;symbols/lowerBody.js</title>
<path fill="none" stroke="#757575" d="M2777.83,-406.61C2787.32,-409.407 2796.69,-413.107 2805,-418 2825.9,-430.304 2820.25,-446.459 2841,-459 2844.42,-461.065 2848.03,-462.928 2851.75,-464.607"/>
<polygon fill="#757575" stroke="#757575" points="2850.63,-467.93 2861.22,-468.416 2853.25,-461.436 2850.63,-467.93"/>
</g>
<!-- symbols/skin.js -->
<g id="node47" class="node"><title>symbols/skin.js</title>
<path fill="none" stroke="#c6c5fe" d="M2977.83,-450.5C2977.83,-450.5 2880.17,-450.5 2880.17,-450.5 2876.33,-450.5 2872.5,-446.667 2872.5,-442.833 2872.5,-442.833 2872.5,-435.167 2872.5,-435.167 2872.5,-431.333 2876.33,-427.5 2880.17,-427.5 2880.17,-427.5 2977.83,-427.5 2977.83,-427.5 2981.67,-427.5 2985.5,-431.333 2985.5,-435.167 2985.5,-435.167 2985.5,-442.833 2985.5,-442.833 2985.5,-446.667 2981.67,-450.5 2977.83,-450.5"/>
<text text-anchor="middle" x="2929" y="-435.3" font-family="Arial" font-size="14.00" fill="#c6c5fe">symbols/skin.js</text>
</g>
<!-- store/initialState.js&#45;&gt;symbols/skin.js -->
<g id="edge71" class="edge"><title>store/initialState.js&#45;&gt;symbols/skin.js</title>
<path fill="none" stroke="#757575" d="M2773.46,-409.53C2801.12,-414.804 2833.94,-421.064 2862.22,-426.455"/>
<polygon fill="#757575" stroke="#757575" points="2861.93,-429.963 2872.41,-428.399 2863.24,-423.087 2861.93,-429.963"/>
</g>
<!-- symbols/tail.js -->
<g id="node48" class="node"><title>symbols/tail.js</title>
<path fill="none" stroke="#c6c5fe" d="M2973.83,-409.5C2973.83,-409.5 2884.17,-409.5 2884.17,-409.5 2880.33,-409.5 2876.5,-405.667 2876.5,-401.833 2876.5,-401.833 2876.5,-394.167 2876.5,-394.167 2876.5,-390.333 2880.33,-386.5 2884.17,-386.5 2884.17,-386.5 2973.83,-386.5 2973.83,-386.5 2977.67,-386.5 2981.5,-390.333 2981.5,-394.167 2981.5,-394.167 2981.5,-401.833 2981.5,-401.833 2981.5,-405.667 2977.67,-409.5 2973.83,-409.5"/>
<text text-anchor="middle" x="2929" y="-394.3" font-family="Arial" font-size="14.00" fill="#c6c5fe">symbols/tail.js</text>
</g>
<!-- store/initialState.js&#45;&gt;symbols/tail.js -->
<g id="edge72" class="edge"><title>store/initialState.js&#45;&gt;symbols/tail.js</title>
<path fill="none" stroke="#757575" d="M2777.51,-398C2805.48,-398 2838.09,-398 2865.8,-398"/>
<polygon fill="#757575" stroke="#757575" points="2866.15,-401.5 2876.15,-398 2866.15,-394.5 2866.15,-401.5"/>
</g>
<!-- symbols/tongue.js -->
<g id="node49" class="node"><title>symbols/tongue.js</title>
<path fill="none" stroke="#c6c5fe" d="M2986.83,-368.5C2986.83,-368.5 2871.17,-368.5 2871.17,-368.5 2867.33,-368.5 2863.5,-364.667 2863.5,-360.833 2863.5,-360.833 2863.5,-353.167 2863.5,-353.167 2863.5,-349.333 2867.33,-345.5 2871.17,-345.5 2871.17,-345.5 2986.83,-345.5 2986.83,-345.5 2990.67,-345.5 2994.5,-349.333 2994.5,-353.167 2994.5,-353.167 2994.5,-360.833 2994.5,-360.833 2994.5,-364.667 2990.67,-368.5 2986.83,-368.5"/>
<text text-anchor="middle" x="2929" y="-353.3" font-family="Arial" font-size="14.00" fill="#c6c5fe">symbols/tongue.js</text>
</g>
<!-- store/initialState.js&#45;&gt;symbols/tongue.js -->
<g id="edge73" class="edge"><title>store/initialState.js&#45;&gt;symbols/tongue.js</title>
<path fill="none" stroke="#757575" d="M2773.46,-386.47C2799.68,-381.471 2830.54,-375.585 2857.77,-370.393"/>
<polygon fill="#757575" stroke="#757575" points="2858.45,-373.826 2867.62,-368.514 2857.14,-366.95 2858.45,-373.826"/>
</g>
<!-- scenes/charCreation.js&#45;&gt;actions/Core.js -->
<g id="edge46" class="edge"><title>scenes/charCreation.js&#45;&gt;actions/Core.js</title>
<path fill="none" stroke="#757575" d="M1332.86,-247.62C1348.01,-274.15 1388.96,-339.395 1442,-372 1498.71,-406.859 1574.19,-421.466 1627.33,-427.586"/>
<polygon fill="#757575" stroke="#757575" points="1626.99,-431.07 1637.31,-428.667 1627.75,-424.111 1626.99,-431.07"/>
</g>
<!-- scenes/charCreation.js&#45;&gt;actions/Player.js -->
<g id="edge47" class="edge"><title>scenes/charCreation.js&#45;&gt;actions/Player.js</title>
<path fill="none" stroke="#757575" d="M1406.49,-242.856C1528.75,-253.8 1751.42,-275.743 1784,-293 1805.43,-304.35 1799.03,-321.821 1820,-334 1840.46,-345.884 1974.71,-370.643 2058.92,-385.335"/>
<polygon fill="#757575" stroke="#757575" points="2058.48,-388.811 2068.93,-387.075 2059.68,-381.914 2058.48,-388.811"/>
</g>
<!-- scenes/charCreation.js&#45;&gt;symbols/breastCup.js -->
<g id="edge52" class="edge"><title>scenes/charCreation.js&#45;&gt;symbols/breastCup.js</title>
<path fill="none" stroke="#757575" d="M1339.61,-224.272C1359.94,-206.78 1401.04,-174.183 1442,-158 1546.65,-116.648 1579.48,-118 1692,-118 1692,-118 1692,-118 1911,-118 2049.04,-118 2084.01,-120.026 2221,-137 2236.62,-138.936 2253.35,-141.697 2268.99,-144.583"/>
<polygon fill="#757575" stroke="#757575" points="2268.62,-148.074 2279.09,-146.491 2269.92,-141.196 2268.62,-148.074"/>
</g>
<!-- scenes/charCreation.js&#45;&gt;appearance/appearance.js -->
<g id="edge48" class="edge"><title>scenes/charCreation.js&#45;&gt;appearance/appearance.js</title>
<path fill="none" stroke="#757575" d="M1346.11,-224.33C1368.45,-211.728 1406.46,-192.339 1442,-184 1644.7,-136.438 1890.23,-141.711 2025.57,-149.837"/>
<polygon fill="#757575" stroke="#757575" points="2025.72,-153.353 2035.92,-150.477 2026.16,-146.367 2025.72,-153.353"/>
</g>
<!-- scenes/charCreation.js&#45;&gt;symbols/gender.js -->
<g id="edge54" class="edge"><title>scenes/charCreation.js&#45;&gt;symbols/gender.js</title>
<path fill="none" stroke="#757575" d="M1334.1,-224.305C1350.53,-200.099 1391.95,-144.631 1442,-119 1542.09,-67.74 1579.55,-80 1692,-80 1692,-80 1692,-80 1911,-80 2032.56,-80 2173.06,-95.423 2257.37,-106.354"/>
<polygon fill="#757575" stroke="#757575" points="2257,-109.835 2267.37,-107.663 2257.91,-102.894 2257,-109.835"/>
</g>
<!-- scenes/charCreation.js&#45;&gt;scenes/menus.js -->
<g id="edge49" class="edge"><title>scenes/charCreation.js&#45;&gt;scenes/menus.js</title>
<path fill="none" stroke="#757575" d="M1339.21,-247.718C1359.66,-266.15 1401.7,-302.256 1442,-326 1448.34,-329.736 1455.32,-333.228 1462.22,-336.365"/>
<polygon fill="#757575" stroke="#757575" points="1460.95,-339.63 1471.52,-340.411 1463.75,-333.211 1460.95,-339.63"/>
</g>
<!-- scenes/charCreation.js&#45;&gt;scenes/sceneSymbols.js -->
<g id="edge50" class="edge"><title>scenes/charCreation.js&#45;&gt;scenes/sceneSymbols.js</title>
<path fill="none" stroke="#757575" d="M1395.67,-224.496C1469,-213.311 1588.33,-198 1692,-198 1692,-198 1692,-198 2516,-198 2623.63,-198 2747.08,-198 2830.56,-198"/>
<polygon fill="#757575" stroke="#757575" points="2830.79,-201.5 2840.79,-198 2830.79,-194.5 2830.79,-201.5"/>
</g>
<!-- scenes/sceneTextStore.js -->
<g id="node40" class="node"><title>scenes/sceneTextStore.js</title>
<path fill="none" stroke="#c6c5fe" d="M1776.33,-325.5C1776.33,-325.5 1609.67,-325.5 1609.67,-325.5 1605.83,-325.5 1602,-321.667 1602,-317.833 1602,-317.833 1602,-310.167 1602,-310.167 1602,-306.333 1605.83,-302.5 1609.67,-302.5 1609.67,-302.5 1776.33,-302.5 1776.33,-302.5 1780.17,-302.5 1784,-306.333 1784,-310.167 1784,-310.167 1784,-317.833 1784,-317.833 1784,-321.667 1780.17,-325.5 1776.33,-325.5"/>
<text text-anchor="middle" x="1693" y="-310.3" font-family="Arial" font-size="14.00" fill="#c6c5fe">scenes/sceneTextStore.js</text>
</g>
<!-- scenes/charCreation.js&#45;&gt;scenes/sceneTextStore.js -->
<g id="edge51" class="edge"><title>scenes/charCreation.js&#45;&gt;scenes/sceneTextStore.js</title>
<path fill="none" stroke="#757575" d="M1347.04,-247.683C1369.57,-259.912 1407.18,-278.612 1442,-288 1490.38,-301.042 1545.65,-307.616 1591.91,-310.899"/>
<polygon fill="#757575" stroke="#757575" points="1591.72,-314.395 1601.94,-311.57 1592.19,-307.41 1591.72,-314.395"/>
</g>
<!-- symbols/butt.js -->
<g id="node41" class="node"><title>symbols/butt.js</title>
<path fill="none" stroke="#c6c5fe" d="M1957.83,-325.5C1957.83,-325.5 1862.17,-325.5 1862.17,-325.5 1858.33,-325.5 1854.5,-321.667 1854.5,-317.833 1854.5,-317.833 1854.5,-310.167 1854.5,-310.167 1854.5,-306.333 1858.33,-302.5 1862.17,-302.5 1862.17,-302.5 1957.83,-302.5 1957.83,-302.5 1961.67,-302.5 1965.5,-306.333 1965.5,-310.167 1965.5,-310.167 1965.5,-317.833 1965.5,-317.833 1965.5,-321.667 1961.67,-325.5 1957.83,-325.5"/>
<text text-anchor="middle" x="1910" y="-310.3" font-family="Arial" font-size="14.00" fill="#c6c5fe">symbols/butt.js</text>
</g>
<!-- scenes/charCreation.js&#45;&gt;symbols/butt.js -->
<g id="edge53" class="edge"><title>scenes/charCreation.js&#45;&gt;symbols/butt.js</title>
<path fill="none" stroke="#757575" d="M1406.22,-231.728C1498.46,-228.717 1654.29,-229.615 1784,-260 1818.29,-268.032 1855,-285.001 1879.7,-297.787"/>
<polygon fill="#757575" stroke="#757575" points="1878.07,-300.885 1888.55,-302.455 1881.34,-294.694 1878.07,-300.885"/>
</g>
<!-- symbols/hips.js -->
<g id="node42" class="node"><title>symbols/hips.js</title>
<path fill="none" stroke="#c6c5fe" d="M1553.33,-51.5C1553.33,-51.5 1454.67,-51.5 1454.67,-51.5 1450.83,-51.5 1447,-47.6667 1447,-43.8333 1447,-43.8333 1447,-36.1667 1447,-36.1667 1447,-32.3333 1450.83,-28.5 1454.67,-28.5 1454.67,-28.5 1553.33,-28.5 1553.33,-28.5 1557.17,-28.5 1561,-32.3333 1561,-36.1667 1561,-36.1667 1561,-43.8333 1561,-43.8333 1561,-47.6667 1557.17,-51.5 1553.33,-51.5"/>
<text text-anchor="middle" x="1504" y="-36.3" font-family="Arial" font-size="14.00" fill="#c6c5fe">symbols/hips.js</text>
</g>
<!-- scenes/charCreation.js&#45;&gt;symbols/hips.js -->
<g id="edge55" class="edge"><title>scenes/charCreation.js&#45;&gt;symbols/hips.js</title>
<path fill="none" stroke="#757575" d="M1331.5,-224.423C1345.04,-194.321 1385.24,-112.701 1442,-66 1446.61,-62.2046 1451.86,-58.8796 1457.3,-55.9902"/>
<polygon fill="#757575" stroke="#757575" points="1459.06,-59.0266 1466.55,-51.5327 1456.02,-52.7205 1459.06,-59.0266"/>
</g>
<!-- scenes/menus.js&#45;&gt;actions/Core.js -->
<g id="edge56" class="edge"><title>scenes/menus.js&#45;&gt;actions/Core.js</title>
<path fill="none" stroke="#757575" d="M1532.19,-363.633C1564.83,-377.596 1619.68,-401.06 1655.86,-416.538"/>
<polygon fill="#757575" stroke="#757575" points="1654.51,-419.768 1665.08,-420.483 1657.26,-413.332 1654.51,-419.768"/>
</g>
<!-- scenes/menus.js&#45;&gt;scenes/sceneSymbols.js -->
<g id="edge57" class="edge"><title>scenes/menus.js&#45;&gt;scenes/sceneSymbols.js</title>
<path fill="none" stroke="#757575" d="M1566.1,-360.994C1625.04,-366.783 1715.19,-367.863 1784,-334 1805.76,-323.292 1798.23,-303.678 1820,-293 1942.94,-232.706 1990.57,-274 2127.5,-274 2127.5,-274 2127.5,-274 2516,-274 2645.44,-274 2678.66,-266.142 2805,-238 2833.41,-231.671 2864.59,-221.494 2888.45,-212.99"/>
<polygon fill="#757575" stroke="#757575" points="2889.65,-216.276 2897.87,-209.584 2887.27,-209.694 2889.65,-216.276"/>
</g>
<!-- scenes/menus.js&#45;&gt;scenes/sceneTextStore.js -->
<g id="edge58" class="edge"><title>scenes/menus.js&#45;&gt;scenes/sceneTextStore.js</title>
<path fill="none" stroke="#757575" d="M1561.61,-340.496C1581.66,-336.422 1604.4,-331.801 1625.21,-327.571"/>
<polygon fill="#757575" stroke="#757575" points="1626.15,-330.952 1635.26,-325.531 1624.76,-324.092 1626.15,-330.952"/>
</g>
<!-- scenes/sceneTextStore.js&#45;&gt;components/nameInput.js -->
<g id="edge65" class="edge"><title>scenes/sceneTextStore.js&#45;&gt;components/nameInput.js</title>
<path fill="none" stroke="#757575" d="M1719.31,-325.643C1744.56,-337.069 1784.58,-354.672 1820,-368 1833.34,-373.021 1847.99,-378.005 1861.48,-382.389"/>
<polygon fill="#757575" stroke="#757575" points="1860.47,-385.742 1871.06,-385.467 1862.61,-379.077 1860.47,-385.742"/>
</g>
<!-- scenes/sceneTextStore.js&#45;&gt;scenes/sceneSymbols.js -->
<g id="edge66" class="edge"><title>scenes/sceneTextStore.js&#45;&gt;scenes/sceneSymbols.js</title>
<path fill="none" stroke="#757575" d="M1715.1,-302.403C1739.55,-289.586 1781.41,-269.501 1820,-260 1953.11,-227.23 1990.42,-236 2127.5,-236 2127.5,-236 2127.5,-236 2516,-236 2628.17,-236 2756.79,-221.862 2840.06,-210.833"/>
<polygon fill="#757575" stroke="#757575" points="2840.53,-214.3 2849.98,-209.504 2839.6,-207.362 2840.53,-214.3"/>
</g>
<!-- symbols/butt.js&#45;&gt;utils.js -->
<g id="edge76" class="edge"><title>symbols/butt.js&#45;&gt;utils.js</title>
<path fill="none" stroke="#757575" d="M1965.63,-313.576C2046.07,-312.989 2201.12,-312 2333,-312 2333,-312 2333,-312 2516,-312 2644.89,-312 2679.42,-316.991 2805,-288 2821.73,-284.139 2824.13,-277.165 2841,-274 2917.88,-259.577 2942.86,-249.075 3017,-274 3054.33,-286.548 3089.05,-317.428 3109,-337.779"/>
<polygon fill="#757575" stroke="#757575" points="3106.7,-340.44 3116.14,-345.259 3111.77,-335.608 3106.7,-340.44"/>
</g>
<!-- symbols/hips.js&#45;&gt;utils.js -->
<g id="edge79" class="edge"><title>symbols/hips.js&#45;&gt;utils.js</title>
<path fill="none" stroke="#757575" d="M1561.21,-39.5462C1639.25,-38.9561 1784.85,-38 1909,-38 1909,-38 1909,-38 2713,-38 2848.86,-38 2909.31,12.8229 3017,-70 3103.61,-136.611 3121.73,-280.432 3125.51,-335.21"/>
<polygon fill="#757575" stroke="#757575" points="3122.01,-335.435 3126.1,-345.209 3129,-335.019 3122.01,-335.435"/>
</g>
<!-- setupTests.js -->
<g id="node44" class="node"><title>setupTests.js</title>
<path fill="none" stroke="#cfffac" d="M94.3333,-606.5C94.3333,-606.5 7.66667,-606.5 7.66667,-606.5 3.83333,-606.5 0,-602.667 0,-598.833 0,-598.833 0,-591.167 0,-591.167 0,-587.333 3.83333,-583.5 7.66667,-583.5 7.66667,-583.5 94.3333,-583.5 94.3333,-583.5 98.1667,-583.5 102,-587.333 102,-591.167 102,-591.167 102,-598.833 102,-598.833 102,-602.667 98.1667,-606.5 94.3333,-606.5"/>
<text text-anchor="middle" x="51" y="-591.3" font-family="Arial" font-size="14.00" fill="#cfffac">setupTests.js</text>
</g>
<!-- symbols/face.js&#45;&gt;utils.js -->
<g id="edge77" class="edge"><title>symbols/face.js&#45;&gt;utils.js</title>
<path fill="none" stroke="#757575" d="M2985.26,-327.53C3018.57,-334.479 3060.08,-343.142 3089.46,-349.272"/>
<polygon fill="#757575" stroke="#757575" points="3088.81,-352.711 3099.31,-351.327 3090.24,-345.859 3088.81,-352.711"/>
</g>
<!-- symbols/lowerBody.js&#45;&gt;utils.js -->
<g id="edge80" class="edge"><title>symbols/lowerBody.js&#45;&gt;utils.js</title>
<path fill="none" stroke="#757575" d="M2994.59,-468.388C3002.37,-465.844 3010.02,-462.753 3017,-459 3056.13,-437.959 3091.84,-399.517 3111.24,-376.308"/>
<polygon fill="#757575" stroke="#757575" points="3114,-378.463 3117.63,-368.508 3108.59,-374.028 3114,-378.463"/>
</g>
<!-- symbols/skin.js&#45;&gt;utils.js -->
<g id="edge81" class="edge"><title>symbols/skin.js&#45;&gt;utils.js</title>
<path fill="none" stroke="#757575" d="M2985.92,-427.88C2996.41,-425.13 3007.16,-421.846 3017,-418 3046.97,-406.287 3078.85,-387.752 3100.44,-374.185"/>
<polygon fill="#757575" stroke="#757575" points="3102.48,-377.037 3109.02,-368.709 3098.71,-371.136 3102.48,-377.037"/>
</g>
<!-- symbols/tail.js&#45;&gt;utils.js -->
<g id="edge82" class="edge"><title>symbols/tail.js&#45;&gt;utils.js</title>
<path fill="none" stroke="#757575" d="M2981.63,-387.228C3015.55,-380.151 3059.11,-371.06 3089.58,-364.704"/>
<polygon fill="#757575" stroke="#757575" points="3090.3,-368.129 3099.37,-362.661 3088.87,-361.277 3090.3,-368.129"/>
</g>
<!-- symbols/tongue.js&#45;&gt;utils.js -->
<g id="edge83" class="edge"><title>symbols/tongue.js&#45;&gt;utils.js</title>
<path fill="none" stroke="#757575" d="M2994.61,-357C3026.02,-357 3062.63,-357 3089.3,-357"/>
<polygon fill="#757575" stroke="#757575" points="3089.37,-360.5 3099.37,-357 3089.37,-353.5 3089.37,-360.5"/>
</g>
</g>
</svg>
