<?xml version="1.0" encoding="UTF-8" standalone="no"?>
<!DOCTYPE svg PUBLIC "-//W3C//DTD SVG 1.1//EN"
 "http://www.w3.org/Graphics/SVG/1.1/DTD/svg11.dtd">
<!-- Generated by graphviz version 2.38.0 (20140413.2041)
 -->
<!-- Title: G Pages: 1 -->
<svg width="1275pt" height="473pt"
 viewBox="0.00 0.00 1275.20 473.20" xmlns="http://www.w3.org/2000/svg" xmlns:xlink="http://www.w3.org/1999/xlink">
<g id="graph0" class="graph" transform="scale(1 1) rotate(0) translate(21.6 451.6)">
<title>G</title>
<polygon fill="#111111" stroke="none" points="-21.6,21.6 -21.6,-451.6 1253.6,-451.6 1253.6,21.6 -21.6,21.6"/>
<!-- actions/UI.js -->
<g id="node1" class="node"><title>actions/UI.js</title>
<path fill="none" stroke="#cfffac" d="M989.833,-206C989.833,-206 911.167,-206 911.167,-206 907.333,-206 903.5,-202.167 903.5,-198.333 903.5,-198.333 903.5,-190.667 903.5,-190.667 903.5,-186.833 907.333,-183 911.167,-183 911.167,-183 989.833,-183 989.833,-183 993.667,-183 997.5,-186.833 997.5,-190.667 997.5,-190.667 997.5,-198.333 997.5,-198.333 997.5,-202.167 993.667,-206 989.833,-206"/>
<text text-anchor="middle" x="950.5" y="-190.8" font-family="Arial" font-size="14.00" fill="#cfffac">actions/UI.js</text>
</g>
<!-- actions/UI.test.js -->
<g id="node2" class="node"><title>actions/UI.test.js</title>
<path fill="none" stroke="#c6c5fe" d="M759.833,-125C759.833,-125 654.167,-125 654.167,-125 650.333,-125 646.5,-121.167 646.5,-117.333 646.5,-117.333 646.5,-109.667 646.5,-109.667 646.5,-105.833 650.333,-102 654.167,-102 654.167,-102 759.833,-102 759.833,-102 763.667,-102 767.5,-105.833 767.5,-109.667 767.5,-109.667 767.5,-117.333 767.5,-117.333 767.5,-121.167 763.667,-125 759.833,-125"/>
<text text-anchor="middle" x="707" y="-109.8" font-family="Arial" font-size="14.00" fill="#c6c5fe">actions/UI.test.js</text>
</g>
<!-- actions/UI.test.js&#45;&gt;actions/UI.js -->
<g id="edge1" class="edge"><title>actions/UI.test.js&#45;&gt;actions/UI.js</title>
<path fill="none" stroke="#757575" d="M767.667,-120.99C785.094,-123.998 804.015,-128.074 821,-133.5 856.617,-144.877 895.052,-164.134 920.513,-177.97"/>
<polygon fill="#757575" stroke="#757575" points="918.83,-181.039 929.278,-182.798 922.207,-174.907 918.83,-181.039"/>
</g>
<!-- components/appRoot.js -->
<g id="node3" class="node"><title>components/appRoot.js</title>
<path fill="none" stroke="#c6c5fe" d="M261.333,-348C261.333,-348 108.667,-348 108.667,-348 104.833,-348 101,-344.167 101,-340.333 101,-340.333 101,-332.667 101,-332.667 101,-328.833 104.833,-325 108.667,-325 108.667,-325 261.333,-325 261.333,-325 265.167,-325 269,-328.833 269,-332.667 269,-332.667 269,-340.333 269,-340.333 269,-344.167 265.167,-348 261.333,-348"/>
<text text-anchor="middle" x="185" y="-332.8" font-family="Arial" font-size="14.00" fill="#c6c5fe">components/appRoot.js</text>
</g>
<!-- components/lowerButtons.js -->
<g id="node4" class="node"><title>components/lowerButtons.js</title>
<path fill="none" stroke="#c6c5fe" d="M520.833,-430C520.833,-430 341.167,-430 341.167,-430 337.333,-430 333.5,-426.167 333.5,-422.333 333.5,-422.333 333.5,-414.667 333.5,-414.667 333.5,-410.833 337.333,-407 341.167,-407 341.167,-407 520.833,-407 520.833,-407 524.667,-407 528.5,-410.833 528.5,-414.667 528.5,-414.667 528.5,-422.333 528.5,-422.333 528.5,-426.167 524.667,-430 520.833,-430"/>
<text text-anchor="middle" x="431" y="-414.8" font-family="Arial" font-size="14.00" fill="#c6c5fe">components/lowerButtons.js</text>
</g>
<!-- components/appRoot.js&#45;&gt;components/lowerButtons.js -->
<g id="edge2" class="edge"><title>components/appRoot.js&#45;&gt;components/lowerButtons.js</title>
<path fill="none" stroke="#757575" d="M203.742,-348.08C226.317,-362.254 266.959,-385.915 305,-398.5 312.036,-400.828 319.388,-402.889 326.85,-404.714"/>
<polygon fill="#757575" stroke="#757575" points="326.175,-408.15 336.705,-406.98 327.743,-401.328 326.175,-408.15"/>
</g>
<!-- components/menuBar.js -->
<g id="node5" class="node"><title>components/menuBar.js</title>
<path fill="none" stroke="#c6c5fe" d="M508.333,-389C508.333,-389 353.667,-389 353.667,-389 349.833,-389 346,-385.167 346,-381.333 346,-381.333 346,-373.667 346,-373.667 346,-369.833 349.833,-366 353.667,-366 353.667,-366 508.333,-366 508.333,-366 512.167,-366 516,-369.833 516,-373.667 516,-373.667 516,-381.333 516,-381.333 516,-385.167 512.167,-389 508.333,-389"/>
<text text-anchor="middle" x="431" y="-373.8" font-family="Arial" font-size="14.00" fill="#c6c5fe">components/menuBar.js</text>
</g>
<!-- components/appRoot.js&#45;&gt;components/menuBar.js -->
<g id="edge3" class="edge"><title>components/appRoot.js&#45;&gt;components/menuBar.js</title>
<path fill="none" stroke="#757575" d="M254.617,-348.03C284.761,-353.095 320.321,-359.07 351.514,-364.312"/>
<polygon fill="#757575" stroke="#757575" points="351.034,-367.78 361.476,-365.986 352.194,-360.877 351.034,-367.78"/>
</g>
<!-- components/output.js -->
<g id="node6" class="node"><title>components/output.js</title>
<path fill="none" stroke="#cfffac" d="M499.333,-348C499.333,-348 362.667,-348 362.667,-348 358.833,-348 355,-344.167 355,-340.333 355,-340.333 355,-332.667 355,-332.667 355,-328.833 358.833,-325 362.667,-325 362.667,-325 499.333,-325 499.333,-325 503.167,-325 507,-328.833 507,-332.667 507,-332.667 507,-340.333 507,-340.333 507,-344.167 503.167,-348 499.333,-348"/>
<text text-anchor="middle" x="431" y="-332.8" font-family="Arial" font-size="14.00" fill="#cfffac">components/output.js</text>
</g>
<!-- components/appRoot.js&#45;&gt;components/output.js -->
<g id="edge4" class="edge"><title>components/appRoot.js&#45;&gt;components/output.js</title>
<path fill="none" stroke="#757575" d="M269.289,-336.5C293.569,-336.5 320.132,-336.5 344.544,-336.5"/>
<polygon fill="#757575" stroke="#757575" points="344.862,-340 354.862,-336.5 344.862,-333 344.862,-340"/>
</g>
<!-- components/statBar.js -->
<g id="node7" class="node"><title>components/statBar.js</title>
<path fill="none" stroke="#c6c5fe" d="M502.333,-307C502.333,-307 359.667,-307 359.667,-307 355.833,-307 352,-303.167 352,-299.333 352,-299.333 352,-291.667 352,-291.667 352,-287.833 355.833,-284 359.667,-284 359.667,-284 502.333,-284 502.333,-284 506.167,-284 510,-287.833 510,-291.667 510,-291.667 510,-299.333 510,-299.333 510,-303.167 506.167,-307 502.333,-307"/>
<text text-anchor="middle" x="431" y="-291.8" font-family="Arial" font-size="14.00" fill="#c6c5fe">components/statBar.js</text>
</g>
<!-- components/appRoot.js&#45;&gt;components/statBar.js -->
<g id="edge5" class="edge"><title>components/appRoot.js&#45;&gt;components/statBar.js</title>
<path fill="none" stroke="#757575" d="M250.197,-324.977C267.941,-321.845 287.208,-318.493 305,-315.5 318.429,-313.241 332.68,-310.904 346.568,-308.659"/>
<polygon fill="#757575" stroke="#757575" points="347.284,-312.089 356.6,-307.043 346.171,-305.178 347.284,-312.089"/>
</g>
<!-- components/buttonGrid.js -->
<g id="node9" class="node"><title>components/buttonGrid.js</title>
<path fill="none" stroke="#c6c5fe" d="M788.833,-410C788.833,-410 625.167,-410 625.167,-410 621.333,-410 617.5,-406.167 617.5,-402.333 617.5,-402.333 617.5,-394.667 617.5,-394.667 617.5,-390.833 621.333,-387 625.167,-387 625.167,-387 788.833,-387 788.833,-387 792.667,-387 796.5,-390.833 796.5,-394.667 796.5,-394.667 796.5,-402.333 796.5,-402.333 796.5,-406.167 792.667,-410 788.833,-410"/>
<text text-anchor="middle" x="707" y="-394.8" font-family="Arial" font-size="14.00" fill="#c6c5fe">components/buttonGrid.js</text>
</g>
<!-- components/lowerButtons.js&#45;&gt;components/buttonGrid.js -->
<g id="edge9" class="edge"><title>components/lowerButtons.js&#45;&gt;components/buttonGrid.js</title>
<path fill="none" stroke="#757575" d="M528.602,-411.449C554.038,-409.592 581.514,-407.587 607.07,-405.721"/>
<polygon fill="#757575" stroke="#757575" points="607.418,-409.205 617.136,-404.986 606.908,-402.224 607.418,-409.205"/>
</g>
<!-- components/menuBar.js&#45;&gt;components/buttonGrid.js -->
<g id="edge10" class="edge"><title>components/menuBar.js&#45;&gt;components/buttonGrid.js</title>
<path fill="none" stroke="#757575" d="M516.071,-383.943C544.903,-386.153 577.432,-388.646 607.315,-390.937"/>
<polygon fill="#757575" stroke="#757575" points="607.1,-394.43 617.339,-391.705 607.635,-387.451 607.1,-394.43"/>
</g>
<!-- components/spriteDisplay.js -->
<g id="node11" class="node"><title>components/spriteDisplay.js</title>
<path fill="none" stroke="#cfffac" d="M796.833,-369C796.833,-369 617.167,-369 617.167,-369 613.333,-369 609.5,-365.167 609.5,-361.333 609.5,-361.333 609.5,-353.667 609.5,-353.667 609.5,-349.833 613.333,-346 617.167,-346 617.167,-346 796.833,-346 796.833,-346 800.667,-346 804.5,-349.833 804.5,-353.667 804.5,-353.667 804.5,-361.333 804.5,-361.333 804.5,-365.167 800.667,-369 796.833,-369"/>
<text text-anchor="middle" x="707" y="-353.8" font-family="Arial" font-size="14.00" fill="#cfffac">components/spriteDisplay.js</text>
</g>
<!-- components/statBar.js&#45;&gt;components/spriteDisplay.js -->
<g id="edge11" class="edge"><title>components/statBar.js&#45;&gt;components/spriteDisplay.js</title>
<path fill="none" stroke="#757575" d="M510.138,-303.448C525.921,-306.315 542.203,-310.21 557,-315.5 574.442,-321.736 575.638,-330.046 593,-336.5 600.167,-339.164 607.721,-341.502 615.384,-343.55"/>
<polygon fill="#757575" stroke="#757575" points="614.578,-346.956 625.129,-345.993 616.281,-340.166 614.578,-346.956"/>
</g>
<!-- components/statDisplay.js -->
<g id="node12" class="node"><title>components/statDisplay.js</title>
<path fill="none" stroke="#cfffac" d="M790.333,-328C790.333,-328 623.667,-328 623.667,-328 619.833,-328 616,-324.167 616,-320.333 616,-320.333 616,-312.667 616,-312.667 616,-308.833 619.833,-305 623.667,-305 623.667,-305 790.333,-305 790.333,-305 794.167,-305 798,-308.833 798,-312.667 798,-312.667 798,-320.333 798,-320.333 798,-324.167 794.167,-328 790.333,-328"/>
<text text-anchor="middle" x="707" y="-312.8" font-family="Arial" font-size="14.00" fill="#cfffac">components/statDisplay.js</text>
</g>
<!-- components/statBar.js&#45;&gt;components/statDisplay.js -->
<g id="edge12" class="edge"><title>components/statBar.js&#45;&gt;components/statDisplay.js</title>
<path fill="none" stroke="#757575" d="M510.151,-301.49C539.839,-303.765 574.079,-306.389 605.544,-308.801"/>
<polygon fill="#757575" stroke="#757575" points="605.415,-312.301 615.653,-309.576 605.95,-305.322 605.415,-312.301"/>
</g>
<!-- components/timeDisplay.js -->
<g id="node13" class="node"><title>components/timeDisplay.js</title>
<path fill="none" stroke="#cfffac" d="M792.833,-287C792.833,-287 621.167,-287 621.167,-287 617.333,-287 613.5,-283.167 613.5,-279.333 613.5,-279.333 613.5,-271.667 613.5,-271.667 613.5,-267.833 617.333,-264 621.167,-264 621.167,-264 792.833,-264 792.833,-264 796.667,-264 800.5,-267.833 800.5,-271.667 800.5,-271.667 800.5,-279.333 800.5,-279.333 800.5,-283.167 796.667,-287 792.833,-287"/>
<text text-anchor="middle" x="707" y="-271.8" font-family="Arial" font-size="14.00" fill="#cfffac">components/timeDisplay.js</text>
</g>
<!-- components/statBar.js&#45;&gt;components/timeDisplay.js -->
<g id="edge13" class="edge"><title>components/statBar.js&#45;&gt;components/timeDisplay.js</title>
<path fill="none" stroke="#757575" d="M510.151,-289.796C539,-287.69 572.147,-285.27 602.87,-283.028"/>
<polygon fill="#757575" stroke="#757575" points="603.467,-286.494 613.186,-282.275 602.958,-279.512 603.467,-286.494"/>
</g>
<!-- components/button.js -->
<g id="node8" class="node"><title>components/button.js</title>
<path fill="none" stroke="#cfffac" d="M1224.33,-410C1224.33,-410 1087.67,-410 1087.67,-410 1083.83,-410 1080,-406.167 1080,-402.333 1080,-402.333 1080,-394.667 1080,-394.667 1080,-390.833 1083.83,-387 1087.67,-387 1087.67,-387 1224.33,-387 1224.33,-387 1228.17,-387 1232,-390.833 1232,-394.667 1232,-394.667 1232,-402.333 1232,-402.333 1232,-406.167 1228.17,-410 1224.33,-410"/>
<text text-anchor="middle" x="1156" y="-394.8" font-family="Arial" font-size="14.00" fill="#cfffac">components/button.js</text>
</g>
<!-- components/buttonGrid.js&#45;&gt;actions/UI.js -->
<g id="edge6" class="edge"><title>components/buttonGrid.js&#45;&gt;actions/UI.js</title>
<path fill="none" stroke="#757575" d="M796.648,-389.013C805.243,-386.067 813.53,-382.3 821,-377.5 883.658,-337.234 924.572,-254.539 941.142,-215.626"/>
<polygon fill="#757575" stroke="#757575" points="944.409,-216.883 944.999,-206.305 937.941,-214.207 944.409,-216.883"/>
</g>
<!-- components/buttonWrap.js -->
<g id="node10" class="node"><title>components/buttonWrap.js</title>
<path fill="none" stroke="#c6c5fe" d="M1036.33,-410C1036.33,-410 864.667,-410 864.667,-410 860.833,-410 857,-406.167 857,-402.333 857,-402.333 857,-394.667 857,-394.667 857,-390.833 860.833,-387 864.667,-387 864.667,-387 1036.33,-387 1036.33,-387 1040.17,-387 1044,-390.833 1044,-394.667 1044,-394.667 1044,-402.333 1044,-402.333 1044,-406.167 1040.17,-410 1036.33,-410"/>
<text text-anchor="middle" x="950.5" y="-394.8" font-family="Arial" font-size="14.00" fill="#c6c5fe">components/buttonWrap.js</text>
</g>
<!-- components/buttonGrid.js&#45;&gt;components/buttonWrap.js -->
<g id="edge7" class="edge"><title>components/buttonGrid.js&#45;&gt;components/buttonWrap.js</title>
<path fill="none" stroke="#757575" d="M796.554,-398.5C812.83,-398.5 829.948,-398.5 846.603,-398.5"/>
<polygon fill="#757575" stroke="#757575" points="846.901,-402 856.901,-398.5 846.901,-395 846.901,-402"/>
</g>
<!-- components/buttonWrap.js&#45;&gt;components/button.js -->
<g id="edge8" class="edge"><title>components/buttonWrap.js&#45;&gt;components/button.js</title>
<path fill="none" stroke="#757575" d="M1044.02,-398.5C1052.53,-398.5 1061.13,-398.5 1069.57,-398.5"/>
<polygon fill="#757575" stroke="#757575" points="1069.77,-402 1079.77,-398.5 1069.77,-395 1069.77,-402"/>
</g>
<!-- index.js -->
<g id="node14" class="node"><title>index.js</title>
<path fill="none" stroke="#c6c5fe" d="M57.3333,-257C57.3333,-257 7.66667,-257 7.66667,-257 3.83333,-257 0,-253.167 0,-249.333 0,-249.333 0,-241.667 0,-241.667 0,-237.833 3.83333,-234 7.66667,-234 7.66667,-234 57.3333,-234 57.3333,-234 61.1667,-234 65,-237.833 65,-241.667 65,-241.667 65,-249.333 65,-249.333 65,-253.167 61.1667,-257 57.3333,-257"/>
<text text-anchor="middle" x="32.5" y="-241.8" font-family="Arial" font-size="14.00" fill="#c6c5fe">index.js</text>
</g>
<!-- index.js&#45;&gt;components/appRoot.js -->
<g id="edge14" class="edge"><title>index.js&#45;&gt;components/appRoot.js</title>
<path fill="none" stroke="#757575" d="M52.5609,-257.025C78.6529,-272.802 125.685,-301.24 155.843,-319.475"/>
<polygon fill="#757575" stroke="#757575" points="154.25,-322.602 164.618,-324.781 157.872,-316.612 154.25,-322.602"/>
</g>
<!-- store/store.js -->
<g id="node15" class="node"><title>store/store.js</title>
<path fill="none" stroke="#c6c5fe" d="M226.833,-166C226.833,-166 143.167,-166 143.167,-166 139.333,-166 135.5,-162.167 135.5,-158.333 135.5,-158.333 135.5,-150.667 135.5,-150.667 135.5,-146.833 139.333,-143 143.167,-143 143.167,-143 226.833,-143 226.833,-143 230.667,-143 234.5,-146.833 234.5,-150.667 234.5,-150.667 234.5,-158.333 234.5,-158.333 234.5,-162.167 230.667,-166 226.833,-166"/>
<text text-anchor="middle" x="185" y="-150.8" font-family="Arial" font-size="14.00" fill="#c6c5fe">store/store.js</text>
</g>
<!-- index.js&#45;&gt;store/store.js -->
<g id="edge15" class="edge"><title>index.js&#45;&gt;store/store.js</title>
<path fill="none" stroke="#757575" d="M52.5609,-233.975C78.6529,-218.198 125.685,-189.76 155.843,-171.525"/>
<polygon fill="#757575" stroke="#757575" points="157.872,-174.388 164.618,-166.219 154.25,-168.398 157.872,-174.388"/>
</g>
<!-- reducers/root.js -->
<g id="node16" class="node"><title>reducers/root.js</title>
<path fill="none" stroke="#c6c5fe" d="M481.333,-166C481.333,-166 380.667,-166 380.667,-166 376.833,-166 373,-162.167 373,-158.333 373,-158.333 373,-150.667 373,-150.667 373,-146.833 376.833,-143 380.667,-143 380.667,-143 481.333,-143 481.333,-143 485.167,-143 489,-146.833 489,-150.667 489,-150.667 489,-158.333 489,-158.333 489,-162.167 485.167,-166 481.333,-166"/>
<text text-anchor="middle" x="431" y="-150.8" font-family="Arial" font-size="14.00" fill="#c6c5fe">reducers/root.js</text>
</g>
<!-- store/store.js&#45;&gt;reducers/root.js -->
<g id="edge26" class="edge"><title>store/store.js&#45;&gt;reducers/root.js</title>
<path fill="none" stroke="#757575" d="M234.791,-154.5C271.458,-154.5 322.127,-154.5 362.653,-154.5"/>
<polygon fill="#757575" stroke="#757575" points="362.723,-158 372.723,-154.5 362.723,-151 362.723,-158"/>
</g>
<!-- store/initialState.js -->
<g id="node20" class="node"><title>store/initialState.js</title>
<path fill="none" stroke="#c6c5fe" d="M764.833,-84C764.833,-84 649.167,-84 649.167,-84 645.333,-84 641.5,-80.1667 641.5,-76.3333 641.5,-76.3333 641.5,-68.6667 641.5,-68.6667 641.5,-64.8333 645.333,-61 649.167,-61 649.167,-61 764.833,-61 764.833,-61 768.667,-61 772.5,-64.8333 772.5,-68.6667 772.5,-68.6667 772.5,-76.3333 772.5,-76.3333 772.5,-80.1667 768.667,-84 764.833,-84"/>
<text text-anchor="middle" x="707" y="-68.8" font-family="Arial" font-size="14.00" fill="#c6c5fe">store/initialState.js</text>
</g>
<!-- store/store.js&#45;&gt;store/initialState.js -->
<g id="edge27" class="edge"><title>store/store.js&#45;&gt;store/initialState.js</title>
<path fill="none" stroke="#757575" d="M234.59,-145.657C256.139,-141.804 281.814,-137.309 305,-133.5 418.617,-114.836 550.682,-95.1292 631.282,-83.3255"/>
<polygon fill="#757575" stroke="#757575" points="631.947,-86.7654 641.335,-81.855 630.934,-79.8391 631.947,-86.7654"/>
</g>
<!-- reducers/root.js&#45;&gt;actions/UI.js -->
<g id="edge16" class="edge"><title>reducers/root.js&#45;&gt;actions/UI.js</title>
<path fill="none" stroke="#757575" d="M489.275,-162.569C519.98,-166.654 558.495,-171.393 593,-174.5 698.705,-184.02 822.477,-189.752 892.87,-192.504"/>
<polygon fill="#757575" stroke="#757575" points="893.152,-196.018 903.279,-192.905 893.421,-189.023 893.152,-196.018"/>
</g>
<!-- reducers/updateLowerButtonUI.js -->
<g id="node17" class="node"><title>reducers/updateLowerButtonUI.js</title>
<path fill="none" stroke="#cfffac" d="M813.333,-166C813.333,-166 600.667,-166 600.667,-166 596.833,-166 593,-162.167 593,-158.333 593,-158.333 593,-150.667 593,-150.667 593,-146.833 596.833,-143 600.667,-143 600.667,-143 813.333,-143 813.333,-143 817.167,-143 821,-146.833 821,-150.667 821,-150.667 821,-158.333 821,-158.333 821,-162.167 817.167,-166 813.333,-166"/>
<text text-anchor="middle" x="707" y="-150.8" font-family="Arial" font-size="14.00" fill="#cfffac">reducers/updateLowerButtonUI.js</text>
</g>
<!-- reducers/root.js&#45;&gt;reducers/updateLowerButtonUI.js -->
<g id="edge17" class="edge"><title>reducers/root.js&#45;&gt;reducers/updateLowerButtonUI.js</title>
<path fill="none" stroke="#757575" d="M489.106,-154.5C516.325,-154.5 550.011,-154.5 582.653,-154.5"/>
<polygon fill="#757575" stroke="#757575" points="582.742,-158 592.742,-154.5 582.742,-151 582.742,-158"/>
</g>
<!-- reducers/updateMenuBar.js -->
<g id="node18" class="node"><title>reducers/updateMenuBar.js</title>
<path fill="none" stroke="#c6c5fe" d="M794.833,-43C794.833,-43 619.167,-43 619.167,-43 615.333,-43 611.5,-39.1667 611.5,-35.3333 611.5,-35.3333 611.5,-27.6667 611.5,-27.6667 611.5,-23.8333 615.333,-20 619.167,-20 619.167,-20 794.833,-20 794.833,-20 798.667,-20 802.5,-23.8333 802.5,-27.6667 802.5,-27.6667 802.5,-35.3333 802.5,-35.3333 802.5,-39.1667 798.667,-43 794.833,-43"/>
<text text-anchor="middle" x="707" y="-27.8" font-family="Arial" font-size="14.00" fill="#c6c5fe">reducers/updateMenuBar.js</text>
</g>
<!-- reducers/root.js&#45;&gt;reducers/updateMenuBar.js -->
<g id="edge18" class="edge"><title>reducers/root.js&#45;&gt;reducers/updateMenuBar.js</title>
<path fill="none" stroke="#757575" d="M446.028,-142.75C472.763,-121.021 533.652,-74.6664 593,-51.5 598.469,-49.3651 604.177,-47.4568 609.995,-45.751"/>
<polygon fill="#757575" stroke="#757575" points="611.137,-49.0677 619.869,-43.0674 609.301,-42.3127 611.137,-49.0677"/>
</g>
<!-- reducers/updateStatUI.js -->
<g id="node19" class="node"><title>reducers/updateStatUI.js</title>
<path fill="none" stroke="#cfffac" d="M785.833,-246C785.833,-246 628.167,-246 628.167,-246 624.333,-246 620.5,-242.167 620.5,-238.333 620.5,-238.333 620.5,-230.667 620.5,-230.667 620.5,-226.833 624.333,-223 628.167,-223 628.167,-223 785.833,-223 785.833,-223 789.667,-223 793.5,-226.833 793.5,-230.667 793.5,-230.667 793.5,-238.333 793.5,-238.333 793.5,-242.167 789.667,-246 785.833,-246"/>
<text text-anchor="middle" x="707" y="-230.8" font-family="Arial" font-size="14.00" fill="#cfffac">reducers/updateStatUI.js</text>
</g>
<!-- reducers/root.js&#45;&gt;reducers/updateStatUI.js -->
<g id="edge19" class="edge"><title>reducers/root.js&#45;&gt;reducers/updateStatUI.js</title>
<path fill="none" stroke="#757575" d="M463.486,-166.076C495.737,-177.692 547.458,-195.656 593,-208.5 608.337,-212.825 624.994,-216.962 640.688,-220.613"/>
<polygon fill="#757575" stroke="#757575" points="640.309,-224.116 650.838,-222.939 641.873,-217.293 640.309,-224.116"/>
</g>
<!-- reducers/root.js&#45;&gt;store/initialState.js -->
<g id="edge20" class="edge"><title>reducers/root.js&#45;&gt;store/initialState.js</title>
<path fill="none" stroke="#757575" d="M463.713,-142.926C489.05,-133.595 525.422,-120.011 557,-107.5 573.115,-101.116 576.366,-97.3731 593,-92.5 605.341,-88.8846 618.642,-85.8209 631.636,-83.2605"/>
<polygon fill="#757575" stroke="#757575" points="632.313,-86.6945 641.49,-81.3999 631.014,-79.816 632.313,-86.6945"/>
</g>
<!-- scenes/menus.js -->
<g id="node22" class="node"><title>scenes/menus.js</title>
<path fill="none" stroke="#cfffac" d="M1004.83,-43C1004.83,-43 896.167,-43 896.167,-43 892.333,-43 888.5,-39.1667 888.5,-35.3333 888.5,-35.3333 888.5,-27.6667 888.5,-27.6667 888.5,-23.8333 892.333,-20 896.167,-20 896.167,-20 1004.83,-20 1004.83,-20 1008.67,-20 1012.5,-23.8333 1012.5,-27.6667 1012.5,-27.6667 1012.5,-35.3333 1012.5,-35.3333 1012.5,-39.1667 1008.67,-43 1004.83,-43"/>
<text text-anchor="middle" x="950.5" y="-27.8" font-family="Arial" font-size="14.00" fill="#cfffac">scenes/menus.js</text>
</g>
<!-- reducers/updateMenuBar.js&#45;&gt;scenes/menus.js -->
<g id="edge24" class="edge"><title>reducers/updateMenuBar.js&#45;&gt;scenes/menus.js</title>
<path fill="none" stroke="#757575" d="M802.754,-31.5C827.848,-31.5 854.514,-31.5 878.135,-31.5"/>
<polygon fill="#757575" stroke="#757575" points="878.406,-35.0001 888.406,-31.5 878.406,-28.0001 878.406,-35.0001"/>
</g>
<!-- store/initialState.js&#45;&gt;scenes/menus.js -->
<g id="edge25" class="edge"><title>store/initialState.js&#45;&gt;scenes/menus.js</title>
<path fill="none" stroke="#757575" d="M772.718,-61.5128C805.259,-55.9882 844.776,-49.2793 878.188,-43.6068"/>
<polygon fill="#757575" stroke="#757575" points="879.074,-47.0065 888.347,-41.882 877.902,-40.1053 879.074,-47.0065"/>
</g>
<!-- reducers/tests/updateMenuBar.test.js -->
<g id="node21" class="node"><title>reducers/tests/updateMenuBar.test.js</title>
<path fill="none" stroke="#c6c5fe" d="M549.333,-23C549.333,-23 312.667,-23 312.667,-23 308.833,-23 305,-19.1667 305,-15.3333 305,-15.3333 305,-7.66667 305,-7.66667 305,-3.83333 308.833,-0 312.667,-0 312.667,-0 549.333,-0 549.333,-0 553.167,-0 557,-3.83333 557,-7.66667 557,-7.66667 557,-15.3333 557,-15.3333 557,-19.1667 553.167,-23 549.333,-23"/>
<text text-anchor="middle" x="431" y="-7.8" font-family="Arial" font-size="14.00" fill="#c6c5fe">reducers/tests/updateMenuBar.test.js</text>
</g>
<!-- reducers/tests/updateMenuBar.test.js&#45;&gt;reducers/updateMenuBar.js -->
<g id="edge21" class="edge"><title>reducers/tests/updateMenuBar.test.js&#45;&gt;reducers/updateMenuBar.js</title>
<path fill="none" stroke="#757575" d="M557.373,-20.6513C572,-21.719 586.806,-22.7997 601.116,-23.8442"/>
<polygon fill="#757575" stroke="#757575" points="601.21,-27.3604 611.439,-24.5977 601.72,-20.3789 601.21,-27.3604"/>
</g>
<!-- reducers/tests/updateMenuBar.test.js&#45;&gt;scenes/menus.js -->
<g id="edge22" class="edge"><title>reducers/tests/updateMenuBar.test.js&#45;&gt;scenes/menus.js</title>
<path fill="none" stroke="#757575" d="M557.029,-5.88565C633.405,-3.77006 732.988,-3.35571 821,-10.5 840.762,-12.1042 862.067,-15.0742 881.537,-18.286"/>
<polygon fill="#757575" stroke="#757575" points="881.09,-21.7599 891.534,-19.9816 882.26,-14.8585 881.09,-21.7599"/>
</g>
<!-- reducers/tests/updateStatUI.test.js -->
<g id="node23" class="node"><title>reducers/tests/updateStatUI.test.js</title>
<path fill="none" stroke="#c6c5fe" d="M540.833,-246C540.833,-246 321.167,-246 321.167,-246 317.333,-246 313.5,-242.167 313.5,-238.333 313.5,-238.333 313.5,-230.667 313.5,-230.667 313.5,-226.833 317.333,-223 321.167,-223 321.167,-223 540.833,-223 540.833,-223 544.667,-223 548.5,-226.833 548.5,-230.667 548.5,-230.667 548.5,-238.333 548.5,-238.333 548.5,-242.167 544.667,-246 540.833,-246"/>
<text text-anchor="middle" x="431" y="-230.8" font-family="Arial" font-size="14.00" fill="#c6c5fe">reducers/tests/updateStatUI.test.js</text>
</g>
<!-- reducers/tests/updateStatUI.test.js&#45;&gt;reducers/updateStatUI.js -->
<g id="edge23" class="edge"><title>reducers/tests/updateStatUI.test.js&#45;&gt;reducers/updateStatUI.js</title>
<path fill="none" stroke="#757575" d="M548.598,-234.5C569.064,-234.5 590.151,-234.5 609.977,-234.5"/>
<polygon fill="#757575" stroke="#757575" points="610.22,-238 620.22,-234.5 610.22,-231 610.22,-238"/>
</g>
<!-- utils.js -->
<g id="node24" class="node"><title>utils.js</title>
<path fill="none" stroke="#cfffac" d="M52.8333,-298C52.8333,-298 12.1667,-298 12.1667,-298 8.33333,-298 4.5,-294.167 4.5,-290.333 4.5,-290.333 4.5,-282.667 4.5,-282.667 4.5,-278.833 8.33333,-275 12.1667,-275 12.1667,-275 52.8333,-275 52.8333,-275 56.6667,-275 60.5,-278.833 60.5,-282.667 60.5,-282.667 60.5,-290.333 60.5,-290.333 60.5,-294.167 56.6667,-298 52.8333,-298"/>
<text text-anchor="middle" x="32.5" y="-282.8" font-family="Arial" font-size="14.00" fill="#cfffac">utils.js</text>
</g>
</g>
</svg>
