<?xml version="1.0" encoding="UTF-8" standalone="no"?>
<!DOCTYPE svg PUBLIC "-//W3C//DTD SVG 1.1//EN"
 "http://www.w3.org/Graphics/SVG/1.1/DTD/svg11.dtd">
<!-- Generated by graphviz version 2.38.0 (20140413.2041)
 -->
<!-- Title: G Pages: 1 -->
<svg width="2799pt" height="669pt"
 viewBox="0.00 0.00 2799.20 669.20" xmlns="http://www.w3.org/2000/svg" xmlns:xlink="http://www.w3.org/1999/xlink">
<g id="graph0" class="graph" transform="scale(1 1) rotate(0) translate(21.6 647.6)">
<title>G</title>
<polygon fill="#111111" stroke="none" points="-21.6,21.6 -21.6,-647.6 2777.6,-647.6 2777.6,21.6 -21.6,21.6"/>
<!-- actions/Core.js -->
<g id="node1" class="node"><title>actions/Core.js</title>
<path fill="none" stroke="#c6c5fe" d="M945.333,-197.5C945.333,-197.5 849.667,-197.5 849.667,-197.5 845.833,-197.5 842,-193.667 842,-189.833 842,-189.833 842,-182.167 842,-182.167 842,-178.333 845.833,-174.5 849.667,-174.5 849.667,-174.5 945.333,-174.5 945.333,-174.5 949.167,-174.5 953,-178.333 953,-182.167 953,-182.167 953,-189.833 953,-189.833 953,-193.667 949.167,-197.5 945.333,-197.5"/>
<text text-anchor="middle" x="897.5" y="-182.3" font-family="Arial" font-size="14.00" fill="#c6c5fe">actions/Core.js</text>
</g>
<!-- actions/coreMsg.js -->
<g id="node2" class="node"><title>actions/coreMsg.js</title>
<path fill="none" stroke="#cfffac" d="M2727.83,-87.5C2727.83,-87.5 2608.17,-87.5 2608.17,-87.5 2604.33,-87.5 2600.5,-83.6667 2600.5,-79.8333 2600.5,-79.8333 2600.5,-72.1667 2600.5,-72.1667 2600.5,-68.3333 2604.33,-64.5 2608.17,-64.5 2608.17,-64.5 2727.83,-64.5 2727.83,-64.5 2731.67,-64.5 2735.5,-68.3333 2735.5,-72.1667 2735.5,-72.1667 2735.5,-79.8333 2735.5,-79.8333 2735.5,-83.6667 2731.67,-87.5 2727.83,-87.5"/>
<text text-anchor="middle" x="2668" y="-72.3" font-family="Arial" font-size="14.00" fill="#cfffac">actions/coreMsg.js</text>
</g>
<!-- actions/Core.js&#45;&gt;actions/coreMsg.js -->
<g id="edge1" class="edge"><title>actions/Core.js&#45;&gt;actions/coreMsg.js</title>
<path fill="none" stroke="#757575" d="M912.955,-174.365C965.053,-133.645 1149.38,-0 1324.5,-0 1324.5,-0 1324.5,-0 2230,-0 2372.53,-0 2537.39,-39.7257 2617.79,-61.735"/>
<polygon fill="#757575" stroke="#757575" points="2617.06,-65.1652 2627.63,-64.4572 2618.93,-58.4185 2617.06,-65.1652"/>
</g>
<!-- scenes/sceneFunctions.js -->
<g id="node3" class="node"><title>scenes/sceneFunctions.js</title>
<path fill="none" stroke="#c6c5fe" d="M1201.33,-380.5C1201.33,-380.5 1034.67,-380.5 1034.67,-380.5 1030.83,-380.5 1027,-376.667 1027,-372.833 1027,-372.833 1027,-365.167 1027,-365.167 1027,-361.333 1030.83,-357.5 1034.67,-357.5 1034.67,-357.5 1201.33,-357.5 1201.33,-357.5 1205.17,-357.5 1209,-361.333 1209,-365.167 1209,-365.167 1209,-372.833 1209,-372.833 1209,-376.667 1205.17,-380.5 1201.33,-380.5"/>
<text text-anchor="middle" x="1118" y="-365.3" font-family="Arial" font-size="14.00" fill="#c6c5fe">scenes/sceneFunctions.js</text>
</g>
<!-- actions/Core.js&#45;&gt;scenes/sceneFunctions.js -->
<g id="edge2" class="edge"><title>actions/Core.js&#45;&gt;scenes/sceneFunctions.js</title>
<path fill="none" stroke="#757575" d="M914.483,-197.721C933.14,-211.528 964.784,-235.334 991,-257 1029.31,-288.659 1072.23,-327.596 1096.8,-350.226"/>
<polygon fill="#757575" stroke="#757575" points="1094.67,-353.026 1104.39,-357.242 1099.42,-347.885 1094.67,-353.026"/>
</g>
<!-- store/store.js -->
<g id="node4" class="node"><title>store/store.js</title>
<path fill="none" stroke="#c6c5fe" d="M2127.33,-274.5C2127.33,-274.5 2043.67,-274.5 2043.67,-274.5 2039.83,-274.5 2036,-270.667 2036,-266.833 2036,-266.833 2036,-259.167 2036,-259.167 2036,-255.333 2039.83,-251.5 2043.67,-251.5 2043.67,-251.5 2127.33,-251.5 2127.33,-251.5 2131.17,-251.5 2135,-255.333 2135,-259.167 2135,-259.167 2135,-266.833 2135,-266.833 2135,-270.667 2131.17,-274.5 2127.33,-274.5"/>
<text text-anchor="middle" x="2085.5" y="-259.3" font-family="Arial" font-size="14.00" fill="#c6c5fe">store/store.js</text>
</g>
<!-- actions/Core.js&#45;&gt;store/store.js -->
<g id="edge3" class="edge"><title>actions/Core.js&#45;&gt;store/store.js</title>
<path fill="none" stroke="#757575" d="M953.291,-183.259C1034.38,-179.445 1191.13,-173 1324.5,-173 1324.5,-173 1324.5,-173 1694,-173 1825.63,-173 1975.98,-222.157 2045.49,-247.812"/>
<polygon fill="#757575" stroke="#757575" points="2044.56,-251.199 2055.15,-251.418 2047.01,-244.641 2044.56,-251.199"/>
</g>
<!-- scenes/charCreation.js -->
<g id="node27" class="node"><title>scenes/charCreation.js</title>
<path fill="none" stroke="#c6c5fe" d="M1398.33,-360.5C1398.33,-360.5 1252.67,-360.5 1252.67,-360.5 1248.83,-360.5 1245,-356.667 1245,-352.833 1245,-352.833 1245,-345.167 1245,-345.167 1245,-341.333 1248.83,-337.5 1252.67,-337.5 1252.67,-337.5 1398.33,-337.5 1398.33,-337.5 1402.17,-337.5 1406,-341.333 1406,-345.167 1406,-345.167 1406,-352.833 1406,-352.833 1406,-356.667 1402.17,-360.5 1398.33,-360.5"/>
<text text-anchor="middle" x="1325.5" y="-345.3" font-family="Arial" font-size="14.00" fill="#c6c5fe">scenes/charCreation.js</text>
</g>
<!-- scenes/sceneFunctions.js&#45;&gt;scenes/charCreation.js -->
<g id="edge44" class="edge"><title>scenes/sceneFunctions.js&#45;&gt;scenes/charCreation.js</title>
<path fill="none" stroke="#757575" d="M1209.14,-360.228C1217.57,-359.407 1226.12,-358.575 1234.55,-357.754"/>
<polygon fill="#757575" stroke="#757575" points="1235.15,-361.213 1244.76,-356.76 1234.47,-354.246 1235.15,-361.213"/>
</g>
<!-- scenes/menus.js -->
<g id="node28" class="node"><title>scenes/menus.js</title>
<path fill="none" stroke="#c6c5fe" d="M1558.33,-441.5C1558.33,-441.5 1449.67,-441.5 1449.67,-441.5 1445.83,-441.5 1442,-437.667 1442,-433.833 1442,-433.833 1442,-426.167 1442,-426.167 1442,-422.333 1445.83,-418.5 1449.67,-418.5 1449.67,-418.5 1558.33,-418.5 1558.33,-418.5 1562.17,-418.5 1566,-422.333 1566,-426.167 1566,-426.167 1566,-433.833 1566,-433.833 1566,-437.667 1562.17,-441.5 1558.33,-441.5"/>
<text text-anchor="middle" x="1504" y="-426.3" font-family="Arial" font-size="14.00" fill="#c6c5fe">scenes/menus.js</text>
</g>
<!-- scenes/sceneFunctions.js&#45;&gt;scenes/menus.js -->
<g id="edge45" class="edge"><title>scenes/sceneFunctions.js&#45;&gt;scenes/menus.js</title>
<path fill="none" stroke="#757575" d="M1182.68,-380.561C1191.65,-382.934 1200.65,-385.731 1209,-389 1226.25,-395.756 1227.32,-404.478 1245,-410 1306.01,-429.054 1378.89,-433.107 1431.6,-432.947"/>
<polygon fill="#757575" stroke="#757575" points="1431.9,-436.445 1441.87,-432.863 1431.84,-429.445 1431.9,-436.445"/>
</g>
<!-- scenes/sceneSymbols.js -->
<g id="node29" class="node"><title>scenes/sceneSymbols.js</title>
<path fill="none" stroke="#cfffac" d="M2748.33,-561.5C2748.33,-561.5 2587.67,-561.5 2587.67,-561.5 2583.83,-561.5 2580,-557.667 2580,-553.833 2580,-553.833 2580,-546.167 2580,-546.167 2580,-542.333 2583.83,-538.5 2587.67,-538.5 2587.67,-538.5 2748.33,-538.5 2748.33,-538.5 2752.17,-538.5 2756,-542.333 2756,-546.167 2756,-546.167 2756,-553.833 2756,-553.833 2756,-557.667 2752.17,-561.5 2748.33,-561.5"/>
<text text-anchor="middle" x="2668" y="-546.3" font-family="Arial" font-size="14.00" fill="#cfffac">scenes/sceneSymbols.js</text>
</g>
<!-- scenes/sceneFunctions.js&#45;&gt;scenes/sceneSymbols.js -->
<g id="edge46" class="edge"><title>scenes/sceneFunctions.js&#45;&gt;scenes/sceneSymbols.js</title>
<path fill="none" stroke="#757575" d="M1192.03,-380.511C1197.99,-382.844 1203.74,-385.642 1209,-389 1231.18,-403.153 1226.22,-417.571 1245,-436 1346.64,-535.741 1360.59,-626 1503,-626 1503,-626 1503,-626 2230,-626 2370.42,-626 2406.85,-621.147 2544,-591 2572.98,-584.629 2604.74,-573.946 2628.72,-565.083"/>
<polygon fill="#757575" stroke="#757575" points="2630.03,-568.329 2638.16,-561.538 2627.57,-561.776 2630.03,-568.329"/>
</g>
<!-- scenes/tests/testing.js -->
<g id="node31" class="node"><title>scenes/tests/testing.js</title>
<path fill="none" stroke="#cfffac" d="M1396.83,-401.5C1396.83,-401.5 1254.17,-401.5 1254.17,-401.5 1250.33,-401.5 1246.5,-397.667 1246.5,-393.833 1246.5,-393.833 1246.5,-386.167 1246.5,-386.167 1246.5,-382.333 1250.33,-378.5 1254.17,-378.5 1254.17,-378.5 1396.83,-378.5 1396.83,-378.5 1400.67,-378.5 1404.5,-382.333 1404.5,-386.167 1404.5,-386.167 1404.5,-393.833 1404.5,-393.833 1404.5,-397.667 1400.67,-401.5 1396.83,-401.5"/>
<text text-anchor="middle" x="1325.5" y="-386.3" font-family="Arial" font-size="14.00" fill="#cfffac">scenes/tests/testing.js</text>
</g>
<!-- scenes/sceneFunctions.js&#45;&gt;scenes/tests/testing.js -->
<g id="edge47" class="edge"><title>scenes/sceneFunctions.js&#45;&gt;scenes/tests/testing.js</title>
<path fill="none" stroke="#757575" d="M1209.14,-378.211C1218.15,-379.132 1227.29,-380.066 1236.28,-380.985"/>
<polygon fill="#757575" stroke="#757575" points="1236.05,-384.479 1246.35,-382.014 1236.76,-377.515 1236.05,-384.479"/>
</g>
<!-- reducers/root.js -->
<g id="node20" class="node"><title>reducers/root.js</title>
<path fill="none" stroke="#c6c5fe" d="M2279.33,-274.5C2279.33,-274.5 2178.67,-274.5 2178.67,-274.5 2174.83,-274.5 2171,-270.667 2171,-266.833 2171,-266.833 2171,-259.167 2171,-259.167 2171,-255.333 2174.83,-251.5 2178.67,-251.5 2178.67,-251.5 2279.33,-251.5 2279.33,-251.5 2283.17,-251.5 2287,-255.333 2287,-259.167 2287,-259.167 2287,-266.833 2287,-266.833 2287,-270.667 2283.17,-274.5 2279.33,-274.5"/>
<text text-anchor="middle" x="2229" y="-259.3" font-family="Arial" font-size="14.00" fill="#c6c5fe">reducers/root.js</text>
</g>
<!-- store/store.js&#45;&gt;reducers/root.js -->
<g id="edge51" class="edge"><title>store/store.js&#45;&gt;reducers/root.js</title>
<path fill="none" stroke="#757575" d="M2135.2,-263C2143.47,-263 2152.19,-263 2160.84,-263"/>
<polygon fill="#757575" stroke="#757575" points="2160.93,-266.5 2170.93,-263 2160.93,-259.5 2160.93,-266.5"/>
</g>
<!-- actions/Player.js -->
<g id="node5" class="node"><title>actions/Player.js</title>
<path fill="none" stroke="#cfffac" d="M2719.83,-386.5C2719.83,-386.5 2616.17,-386.5 2616.17,-386.5 2612.33,-386.5 2608.5,-382.667 2608.5,-378.833 2608.5,-378.833 2608.5,-371.167 2608.5,-371.167 2608.5,-367.333 2612.33,-363.5 2616.17,-363.5 2616.17,-363.5 2719.83,-363.5 2719.83,-363.5 2723.67,-363.5 2727.5,-367.333 2727.5,-371.167 2727.5,-371.167 2727.5,-378.833 2727.5,-378.833 2727.5,-382.667 2723.67,-386.5 2719.83,-386.5"/>
<text text-anchor="middle" x="2668" y="-371.3" font-family="Arial" font-size="14.00" fill="#cfffac">actions/Player.js</text>
</g>
<!-- components/appRoot.js -->
<g id="node6" class="node"><title>components/appRoot.js</title>
<path fill="none" stroke="#c6c5fe" d="M298.333,-227.5C298.333,-227.5 145.667,-227.5 145.667,-227.5 141.833,-227.5 138,-223.667 138,-219.833 138,-219.833 138,-212.167 138,-212.167 138,-208.333 141.833,-204.5 145.667,-204.5 145.667,-204.5 298.333,-204.5 298.333,-204.5 302.167,-204.5 306,-208.333 306,-212.167 306,-212.167 306,-219.833 306,-219.833 306,-223.667 302.167,-227.5 298.333,-227.5"/>
<text text-anchor="middle" x="222" y="-212.3" font-family="Arial" font-size="14.00" fill="#c6c5fe">components/appRoot.js</text>
</g>
<!-- components/lowerButtons.js -->
<g id="node7" class="node"><title>components/lowerButtons.js</title>
<path fill="none" stroke="#c6c5fe" d="M529.333,-227.5C529.333,-227.5 349.667,-227.5 349.667,-227.5 345.833,-227.5 342,-223.667 342,-219.833 342,-219.833 342,-212.167 342,-212.167 342,-208.333 345.833,-204.5 349.667,-204.5 349.667,-204.5 529.333,-204.5 529.333,-204.5 533.167,-204.5 537,-208.333 537,-212.167 537,-212.167 537,-219.833 537,-219.833 537,-223.667 533.167,-227.5 529.333,-227.5"/>
<text text-anchor="middle" x="439.5" y="-212.3" font-family="Arial" font-size="14.00" fill="#c6c5fe">components/lowerButtons.js</text>
</g>
<!-- components/appRoot.js&#45;&gt;components/lowerButtons.js -->
<g id="edge4" class="edge"><title>components/appRoot.js&#45;&gt;components/lowerButtons.js</title>
<path fill="none" stroke="#757575" d="M306.01,-216C314.447,-216 323.097,-216 331.74,-216"/>
<polygon fill="#757575" stroke="#757575" points="331.868,-219.5 341.868,-216 331.868,-212.5 331.868,-219.5"/>
</g>
<!-- components/menuBar.js -->
<g id="node8" class="node"><title>components/menuBar.js</title>
<path fill="none" stroke="#c6c5fe" d="M516.833,-186.5C516.833,-186.5 362.167,-186.5 362.167,-186.5 358.333,-186.5 354.5,-182.667 354.5,-178.833 354.5,-178.833 354.5,-171.167 354.5,-171.167 354.5,-167.333 358.333,-163.5 362.167,-163.5 362.167,-163.5 516.833,-163.5 516.833,-163.5 520.667,-163.5 524.5,-167.333 524.5,-171.167 524.5,-171.167 524.5,-178.833 524.5,-178.833 524.5,-182.667 520.667,-186.5 516.833,-186.5"/>
<text text-anchor="middle" x="439.5" y="-171.3" font-family="Arial" font-size="14.00" fill="#c6c5fe">components/menuBar.js</text>
</g>
<!-- components/appRoot.js&#45;&gt;components/menuBar.js -->
<g id="edge5" class="edge"><title>components/appRoot.js&#45;&gt;components/menuBar.js</title>
<path fill="none" stroke="#757575" d="M283.602,-204.47C309.88,-199.471 340.817,-193.585 368.106,-188.393"/>
<polygon fill="#757575" stroke="#757575" points="368.81,-191.822 377.98,-186.514 367.502,-184.945 368.81,-191.822"/>
</g>
<!-- components/output.js -->
<g id="node9" class="node"><title>components/output.js</title>
<path fill="none" stroke="#cfffac" d="M507.833,-268.5C507.833,-268.5 371.167,-268.5 371.167,-268.5 367.333,-268.5 363.5,-264.667 363.5,-260.833 363.5,-260.833 363.5,-253.167 363.5,-253.167 363.5,-249.333 367.333,-245.5 371.167,-245.5 371.167,-245.5 507.833,-245.5 507.833,-245.5 511.667,-245.5 515.5,-249.333 515.5,-253.167 515.5,-253.167 515.5,-260.833 515.5,-260.833 515.5,-264.667 511.667,-268.5 507.833,-268.5"/>
<text text-anchor="middle" x="439.5" y="-253.3" font-family="Arial" font-size="14.00" fill="#cfffac">components/output.js</text>
</g>
<!-- components/appRoot.js&#45;&gt;components/output.js -->
<g id="edge6" class="edge"><title>components/appRoot.js&#45;&gt;components/output.js</title>
<path fill="none" stroke="#757575" d="M283.602,-227.53C309.88,-232.529 340.817,-238.415 368.106,-243.607"/>
<polygon fill="#757575" stroke="#757575" points="367.502,-247.055 377.98,-245.486 368.81,-240.178 367.502,-247.055"/>
</g>
<!-- components/statBar.js -->
<g id="node10" class="node"><title>components/statBar.js</title>
<path fill="none" stroke="#c6c5fe" d="M510.833,-309.5C510.833,-309.5 368.167,-309.5 368.167,-309.5 364.333,-309.5 360.5,-305.667 360.5,-301.833 360.5,-301.833 360.5,-294.167 360.5,-294.167 360.5,-290.333 364.333,-286.5 368.167,-286.5 368.167,-286.5 510.833,-286.5 510.833,-286.5 514.667,-286.5 518.5,-290.333 518.5,-294.167 518.5,-294.167 518.5,-301.833 518.5,-301.833 518.5,-305.667 514.667,-309.5 510.833,-309.5"/>
<text text-anchor="middle" x="439.5" y="-294.3" font-family="Arial" font-size="14.00" fill="#c6c5fe">components/statBar.js</text>
</g>
<!-- components/appRoot.js&#45;&gt;components/statBar.js -->
<g id="edge7" class="edge"><title>components/appRoot.js&#45;&gt;components/statBar.js</title>
<path fill="none" stroke="#757575" d="M241.687,-227.521C264.56,-241.158 304.845,-263.69 342,-277 349.207,-279.582 356.835,-281.901 364.519,-283.972"/>
<polygon fill="#757575" stroke="#757575" points="363.698,-287.375 374.253,-286.463 365.433,-280.594 363.698,-287.375"/>
</g>
<!-- components/buttonGrid.js -->
<g id="node12" class="node"><title>components/buttonGrid.js</title>
<path fill="none" stroke="#c6c5fe" d="M752.333,-217.5C752.333,-217.5 588.667,-217.5 588.667,-217.5 584.833,-217.5 581,-213.667 581,-209.833 581,-209.833 581,-202.167 581,-202.167 581,-198.333 584.833,-194.5 588.667,-194.5 588.667,-194.5 752.333,-194.5 752.333,-194.5 756.167,-194.5 760,-198.333 760,-202.167 760,-202.167 760,-209.833 760,-209.833 760,-213.667 756.167,-217.5 752.333,-217.5"/>
<text text-anchor="middle" x="670.5" y="-202.3" font-family="Arial" font-size="14.00" fill="#c6c5fe">components/buttonGrid.js</text>
</g>
<!-- components/lowerButtons.js&#45;&gt;components/buttonGrid.js -->
<g id="edge11" class="edge"><title>components/lowerButtons.js&#45;&gt;components/buttonGrid.js</title>
<path fill="none" stroke="#757575" d="M537.285,-211.774C548.313,-211.292 559.566,-210.801 570.621,-210.318"/>
<polygon fill="#757575" stroke="#757575" points="570.868,-213.811 580.705,-209.877 570.562,-206.817 570.868,-213.811"/>
</g>
<!-- components/menuBar.js&#45;&gt;components/buttonGrid.js -->
<g id="edge12" class="edge"><title>components/menuBar.js&#45;&gt;components/buttonGrid.js</title>
<path fill="none" stroke="#757575" d="M524.796,-186.411C540.848,-188.584 557.754,-190.873 574.124,-193.089"/>
<polygon fill="#757575" stroke="#757575" points="573.855,-196.584 584.234,-194.457 574.794,-189.648 573.855,-196.584"/>
</g>
<!-- components/spriteDisplay.js -->
<g id="node15" class="node"><title>components/spriteDisplay.js</title>
<path fill="none" stroke="#cfffac" d="M760.333,-268.5C760.333,-268.5 580.667,-268.5 580.667,-268.5 576.833,-268.5 573,-264.667 573,-260.833 573,-260.833 573,-253.167 573,-253.167 573,-249.333 576.833,-245.5 580.667,-245.5 580.667,-245.5 760.333,-245.5 760.333,-245.5 764.167,-245.5 768,-249.333 768,-253.167 768,-253.167 768,-260.833 768,-260.833 768,-264.667 764.167,-268.5 760.333,-268.5"/>
<text text-anchor="middle" x="670.5" y="-253.3" font-family="Arial" font-size="14.00" fill="#cfffac">components/spriteDisplay.js</text>
</g>
<!-- components/statBar.js&#45;&gt;components/spriteDisplay.js -->
<g id="edge15" class="edge"><title>components/statBar.js&#45;&gt;components/spriteDisplay.js</title>
<path fill="none" stroke="#757575" d="M504.899,-286.47C532.945,-281.449 565.986,-275.533 595.078,-270.325"/>
<polygon fill="#757575" stroke="#757575" points="595.962,-273.722 605.188,-268.514 594.728,-266.832 595.962,-273.722"/>
</g>
<!-- components/statDisplay.js -->
<g id="node17" class="node"><title>components/statDisplay.js</title>
<path fill="none" stroke="#c6c5fe" d="M753.833,-350.5C753.833,-350.5 587.167,-350.5 587.167,-350.5 583.333,-350.5 579.5,-346.667 579.5,-342.833 579.5,-342.833 579.5,-335.167 579.5,-335.167 579.5,-331.333 583.333,-327.5 587.167,-327.5 587.167,-327.5 753.833,-327.5 753.833,-327.5 757.667,-327.5 761.5,-331.333 761.5,-335.167 761.5,-335.167 761.5,-342.833 761.5,-342.833 761.5,-346.667 757.667,-350.5 753.833,-350.5"/>
<text text-anchor="middle" x="670.5" y="-335.3" font-family="Arial" font-size="14.00" fill="#c6c5fe">components/statDisplay.js</text>
</g>
<!-- components/statBar.js&#45;&gt;components/statDisplay.js -->
<g id="edge16" class="edge"><title>components/statBar.js&#45;&gt;components/statDisplay.js</title>
<path fill="none" stroke="#757575" d="M504.899,-309.53C532.945,-314.551 565.986,-320.467 595.078,-325.675"/>
<polygon fill="#757575" stroke="#757575" points="594.728,-329.168 605.188,-327.486 595.962,-322.278 594.728,-329.168"/>
</g>
<!-- components/timeDisplay.js -->
<g id="node18" class="node"><title>components/timeDisplay.js</title>
<path fill="none" stroke="#cfffac" d="M756.333,-309.5C756.333,-309.5 584.667,-309.5 584.667,-309.5 580.833,-309.5 577,-305.667 577,-301.833 577,-301.833 577,-294.167 577,-294.167 577,-290.333 580.833,-286.5 584.667,-286.5 584.667,-286.5 756.333,-286.5 756.333,-286.5 760.167,-286.5 764,-290.333 764,-294.167 764,-294.167 764,-301.833 764,-301.833 764,-305.667 760.167,-309.5 756.333,-309.5"/>
<text text-anchor="middle" x="670.5" y="-294.3" font-family="Arial" font-size="14.00" fill="#cfffac">components/timeDisplay.js</text>
</g>
<!-- components/statBar.js&#45;&gt;components/timeDisplay.js -->
<g id="edge17" class="edge"><title>components/statBar.js&#45;&gt;components/timeDisplay.js</title>
<path fill="none" stroke="#757575" d="M518.668,-298C533.974,-298 550.245,-298 566.223,-298"/>
<polygon fill="#757575" stroke="#757575" points="566.666,-301.5 576.666,-298 566.666,-294.5 566.666,-301.5"/>
</g>
<!-- components/button.js -->
<g id="node11" class="node"><title>components/button.js</title>
<path fill="none" stroke="#cfffac" d="M1186.33,-421.5C1186.33,-421.5 1049.67,-421.5 1049.67,-421.5 1045.83,-421.5 1042,-417.667 1042,-413.833 1042,-413.833 1042,-406.167 1042,-406.167 1042,-402.333 1045.83,-398.5 1049.67,-398.5 1049.67,-398.5 1186.33,-398.5 1186.33,-398.5 1190.17,-398.5 1194,-402.333 1194,-406.167 1194,-406.167 1194,-413.833 1194,-413.833 1194,-417.667 1190.17,-421.5 1186.33,-421.5"/>
<text text-anchor="middle" x="1118" y="-406.3" font-family="Arial" font-size="14.00" fill="#cfffac">components/button.js</text>
</g>
<!-- components/buttonGrid.js&#45;&gt;actions/Core.js -->
<g id="edge8" class="edge"><title>components/buttonGrid.js&#45;&gt;actions/Core.js</title>
<path fill="none" stroke="#757575" d="M760.103,-198.124C783.991,-196.001 809.386,-193.743 831.706,-191.759"/>
<polygon fill="#757575" stroke="#757575" points="832.078,-195.24 841.729,-190.869 831.458,-188.268 832.078,-195.24"/>
</g>
<!-- components/buttonWrap.js -->
<g id="node13" class="node"><title>components/buttonWrap.js</title>
<path fill="none" stroke="#c6c5fe" d="M983.333,-289.5C983.333,-289.5 811.667,-289.5 811.667,-289.5 807.833,-289.5 804,-285.667 804,-281.833 804,-281.833 804,-274.167 804,-274.167 804,-270.333 807.833,-266.5 811.667,-266.5 811.667,-266.5 983.333,-266.5 983.333,-266.5 987.167,-266.5 991,-270.333 991,-274.167 991,-274.167 991,-281.833 991,-281.833 991,-285.667 987.167,-289.5 983.333,-289.5"/>
<text text-anchor="middle" x="897.5" y="-274.3" font-family="Arial" font-size="14.00" fill="#c6c5fe">components/buttonWrap.js</text>
</g>
<!-- components/buttonGrid.js&#45;&gt;components/buttonWrap.js -->
<g id="edge9" class="edge"><title>components/buttonGrid.js&#45;&gt;components/buttonWrap.js</title>
<path fill="none" stroke="#757575" d="M709.118,-217.556C726.979,-223.078 748.61,-229.818 768,-236 795.908,-244.898 827.146,-255.103 851.834,-263.225"/>
<polygon fill="#757575" stroke="#757575" points="851.046,-266.65 861.639,-266.455 853.236,-260.002 851.046,-266.65"/>
</g>
<!-- components/buttonWrap.js&#45;&gt;components/button.js -->
<g id="edge10" class="edge"><title>components/buttonWrap.js&#45;&gt;components/button.js</title>
<path fill="none" stroke="#757575" d="M941.701,-289.668C958.623,-295.911 977.237,-305.053 991,-318 1016.77,-342.241 999.167,-367.158 1027,-389 1029.1,-390.647 1031.3,-392.168 1033.59,-393.574"/>
<polygon fill="#757575" stroke="#757575" points="1032.32,-396.859 1042.79,-398.439 1035.59,-390.671 1032.32,-396.859"/>
</g>
<!-- components/nameInput.js -->
<g id="node14" class="node"><title>components/nameInput.js</title>
<path fill="none" stroke="#c6c5fe" d="M1992.33,-441.5C1992.33,-441.5 1827.67,-441.5 1827.67,-441.5 1823.83,-441.5 1820,-437.667 1820,-433.833 1820,-433.833 1820,-426.167 1820,-426.167 1820,-422.333 1823.83,-418.5 1827.67,-418.5 1827.67,-418.5 1992.33,-418.5 1992.33,-418.5 1996.17,-418.5 2000,-422.333 2000,-426.167 2000,-426.167 2000,-433.833 2000,-433.833 2000,-437.667 1996.17,-441.5 1992.33,-441.5"/>
<text text-anchor="middle" x="1910" y="-426.3" font-family="Arial" font-size="14.00" fill="#c6c5fe">components/nameInput.js</text>
</g>
<!-- components/nameInput.js&#45;&gt;store/store.js -->
<g id="edge14" class="edge"><title>components/nameInput.js&#45;&gt;store/store.js</title>
<path fill="none" stroke="#757575" d="M1923.2,-418.257C1952.89,-389.681 2029.09,-316.331 2065.1,-281.672"/>
<polygon fill="#757575" stroke="#757575" points="2067.77,-283.965 2072.54,-274.508 2062.91,-278.922 2067.77,-283.965"/>
</g>
<!-- components/nameInput.js&#45;&gt;actions/Player.js -->
<g id="edge13" class="edge"><title>components/nameInput.js&#45;&gt;actions/Player.js</title>
<path fill="none" stroke="#757575" d="M2000.17,-433.244C2123.24,-436.283 2351.78,-436.743 2544,-408 2570.48,-404.041 2599.42,-396.445 2622.58,-389.537"/>
<polygon fill="#757575" stroke="#757575" points="2623.91,-392.792 2632.45,-386.53 2621.87,-386.096 2623.91,-392.792"/>
</g>
<!-- components/stat.js -->
<g id="node16" class="node"><title>components/stat.js</title>
<path fill="none" stroke="#cfffac" d="M957.833,-350.5C957.833,-350.5 837.167,-350.5 837.167,-350.5 833.333,-350.5 829.5,-346.667 829.5,-342.833 829.5,-342.833 829.5,-335.167 829.5,-335.167 829.5,-331.333 833.333,-327.5 837.167,-327.5 837.167,-327.5 957.833,-327.5 957.833,-327.5 961.667,-327.5 965.5,-331.333 965.5,-335.167 965.5,-335.167 965.5,-342.833 965.5,-342.833 965.5,-346.667 961.667,-350.5 957.833,-350.5"/>
<text text-anchor="middle" x="897.5" y="-335.3" font-family="Arial" font-size="14.00" fill="#cfffac">components/stat.js</text>
</g>
<!-- components/statDisplay.js&#45;&gt;components/stat.js -->
<g id="edge18" class="edge"><title>components/statDisplay.js&#45;&gt;components/stat.js</title>
<path fill="none" stroke="#757575" d="M761.72,-339C780.804,-339 800.779,-339 819.327,-339"/>
<polygon fill="#757575" stroke="#757575" points="819.471,-342.5 829.471,-339 819.471,-335.5 819.471,-342.5"/>
</g>
<!-- index.js -->
<g id="node19" class="node"><title>index.js</title>
<path fill="none" stroke="#c6c5fe" d="M75.8333,-186.5C75.8333,-186.5 26.1667,-186.5 26.1667,-186.5 22.3333,-186.5 18.5,-182.667 18.5,-178.833 18.5,-178.833 18.5,-171.167 18.5,-171.167 18.5,-167.333 22.3333,-163.5 26.1667,-163.5 26.1667,-163.5 75.8333,-163.5 75.8333,-163.5 79.6667,-163.5 83.5,-167.333 83.5,-171.167 83.5,-171.167 83.5,-178.833 83.5,-178.833 83.5,-182.667 79.6667,-186.5 75.8333,-186.5"/>
<text text-anchor="middle" x="51" y="-171.3" font-family="Arial" font-size="14.00" fill="#c6c5fe">index.js</text>
</g>
<!-- index.js&#45;&gt;store/store.js -->
<g id="edge20" class="edge"><title>index.js&#45;&gt;store/store.js</title>
<path fill="none" stroke="#757575" d="M83.952,-169.438C149.963,-158.447 306.28,-135 438.5,-135 438.5,-135 438.5,-135 1694,-135 1831.66,-135 1876.45,-122.277 2000,-183 2028.93,-197.219 2054.62,-224.792 2069.88,-243.548"/>
<polygon fill="#757575" stroke="#757575" points="2067.18,-245.784 2076.12,-251.466 2072.68,-241.448 2067.18,-245.784"/>
</g>
<!-- index.js&#45;&gt;components/appRoot.js -->
<g id="edge19" class="edge"><title>index.js&#45;&gt;components/appRoot.js</title>
<path fill="none" stroke="#757575" d="M83.7876,-182.712C106.171,-188.142 136.77,-195.565 163.392,-202.024"/>
<polygon fill="#757575" stroke="#757575" points="162.832,-205.49 173.376,-204.446 164.483,-198.687 162.832,-205.49"/>
</g>
<!-- reducers/root.js&#45;&gt;actions/coreMsg.js -->
<g id="edge22" class="edge"><title>reducers/root.js&#45;&gt;actions/coreMsg.js</title>
<path fill="none" stroke="#757575" d="M2236.73,-251.368C2253.74,-222.354 2298.86,-148.037 2323,-133 2345.31,-119.105 2495.67,-97.8296 2590.07,-85.5825"/>
<polygon fill="#757575" stroke="#757575" points="2590.69,-89.0319 2600.16,-84.2805 2589.79,-82.0894 2590.69,-89.0319"/>
</g>
<!-- reducers/root.js&#45;&gt;actions/Player.js -->
<g id="edge21" class="edge"><title>reducers/root.js&#45;&gt;actions/Player.js</title>
<path fill="none" stroke="#757575" d="M2240.68,-274.775C2256.73,-291.586 2288.82,-321.981 2323,-336 2412.97,-372.899 2526.62,-378.735 2598.08,-378.033"/>
<polygon fill="#757575" stroke="#757575" points="2598.37,-381.53 2608.31,-377.885 2598.26,-374.531 2598.37,-381.53"/>
</g>
<!-- reducers/updateLowerButtons.js -->
<g id="node21" class="node"><title>reducers/updateLowerButtons.js</title>
<path fill="none" stroke="#c6c5fe" d="M2536.33,-206.5C2536.33,-206.5 2330.67,-206.5 2330.67,-206.5 2326.83,-206.5 2323,-202.667 2323,-198.833 2323,-198.833 2323,-191.167 2323,-191.167 2323,-187.333 2326.83,-183.5 2330.67,-183.5 2330.67,-183.5 2536.33,-183.5 2536.33,-183.5 2540.17,-183.5 2544,-187.333 2544,-191.167 2544,-191.167 2544,-198.833 2544,-198.833 2544,-202.667 2540.17,-206.5 2536.33,-206.5"/>
<text text-anchor="middle" x="2433.5" y="-191.3" font-family="Arial" font-size="14.00" fill="#c6c5fe">reducers/updateLowerButtons.js</text>
</g>
<!-- reducers/root.js&#45;&gt;reducers/updateLowerButtons.js -->
<g id="edge23" class="edge"><title>reducers/root.js&#45;&gt;reducers/updateLowerButtons.js</title>
<path fill="none" stroke="#757575" d="M2252.44,-251.401C2270.98,-242.178 2298.18,-229.463 2323,-221 2336.32,-216.458 2350.81,-212.414 2364.76,-208.947"/>
<polygon fill="#757575" stroke="#757575" points="2365.9,-212.273 2374.8,-206.525 2364.26,-205.468 2365.9,-212.273"/>
</g>
<!-- reducers/updateMenuBar.js -->
<g id="node22" class="node"><title>reducers/updateMenuBar.js</title>
<path fill="none" stroke="#c6c5fe" d="M2521.33,-165.5C2521.33,-165.5 2345.67,-165.5 2345.67,-165.5 2341.83,-165.5 2338,-161.667 2338,-157.833 2338,-157.833 2338,-150.167 2338,-150.167 2338,-146.333 2341.83,-142.5 2345.67,-142.5 2345.67,-142.5 2521.33,-142.5 2521.33,-142.5 2525.17,-142.5 2529,-146.333 2529,-150.167 2529,-150.167 2529,-157.833 2529,-157.833 2529,-161.667 2525.17,-165.5 2521.33,-165.5"/>
<text text-anchor="middle" x="2433.5" y="-150.3" font-family="Arial" font-size="14.00" fill="#c6c5fe">reducers/updateMenuBar.js</text>
</g>
<!-- reducers/root.js&#45;&gt;reducers/updateMenuBar.js -->
<g id="edge24" class="edge"><title>reducers/root.js&#45;&gt;reducers/updateMenuBar.js</title>
<path fill="none" stroke="#757575" d="M2238.51,-251.23C2253.31,-231.733 2285.78,-193.002 2323,-174 2326.58,-172.174 2330.29,-170.513 2334.11,-169.001"/>
<polygon fill="#757575" stroke="#757575" points="2335.52,-172.213 2343.75,-165.545 2333.16,-165.624 2335.52,-172.213"/>
</g>
<!-- reducers/updateStats.js -->
<g id="node23" class="node"><title>reducers/updateStats.js</title>
<path fill="none" stroke="#c6c5fe" d="M2509.33,-327.5C2509.33,-327.5 2357.67,-327.5 2357.67,-327.5 2353.83,-327.5 2350,-323.667 2350,-319.833 2350,-319.833 2350,-312.167 2350,-312.167 2350,-308.333 2353.83,-304.5 2357.67,-304.5 2357.67,-304.5 2509.33,-304.5 2509.33,-304.5 2513.17,-304.5 2517,-308.333 2517,-312.167 2517,-312.167 2517,-319.833 2517,-319.833 2517,-323.667 2513.17,-327.5 2509.33,-327.5"/>
<text text-anchor="middle" x="2433.5" y="-312.3" font-family="Arial" font-size="14.00" fill="#c6c5fe">reducers/updateStats.js</text>
</g>
<!-- reducers/root.js&#45;&gt;reducers/updateStats.js -->
<g id="edge25" class="edge"><title>reducers/root.js&#45;&gt;reducers/updateStats.js</title>
<path fill="none" stroke="#757575" d="M2260.24,-274.625C2278.27,-281.247 2301.72,-289.328 2323,-295 2333.06,-297.682 2343.73,-300.164 2354.31,-302.412"/>
<polygon fill="#757575" stroke="#757575" points="2353.9,-305.901 2364.4,-304.494 2355.32,-299.045 2353.9,-305.901"/>
</g>
<!-- reducers/updateTime.js -->
<g id="node24" class="node"><title>reducers/updateTime.js</title>
<path fill="none" stroke="#c6c5fe" d="M2509.33,-286.5C2509.33,-286.5 2357.67,-286.5 2357.67,-286.5 2353.83,-286.5 2350,-282.667 2350,-278.833 2350,-278.833 2350,-271.167 2350,-271.167 2350,-267.333 2353.83,-263.5 2357.67,-263.5 2357.67,-263.5 2509.33,-263.5 2509.33,-263.5 2513.17,-263.5 2517,-267.333 2517,-271.167 2517,-271.167 2517,-278.833 2517,-278.833 2517,-282.667 2513.17,-286.5 2509.33,-286.5"/>
<text text-anchor="middle" x="2433.5" y="-271.3" font-family="Arial" font-size="14.00" fill="#c6c5fe">reducers/updateTime.js</text>
</g>
<!-- reducers/root.js&#45;&gt;reducers/updateTime.js -->
<g id="edge26" class="edge"><title>reducers/root.js&#45;&gt;reducers/updateTime.js</title>
<path fill="none" stroke="#757575" d="M2287.22,-266.391C2303.45,-267.352 2321.55,-268.425 2339.32,-269.478"/>
<polygon fill="#757575" stroke="#757575" points="2339.54,-272.997 2349.73,-270.095 2339.95,-266.009 2339.54,-272.997"/>
</g>
<!-- store/initialState.js -->
<g id="node25" class="node"><title>store/initialState.js</title>
<path fill="none" stroke="#c6c5fe" d="M2491.33,-483.5C2491.33,-483.5 2375.67,-483.5 2375.67,-483.5 2371.83,-483.5 2368,-479.667 2368,-475.833 2368,-475.833 2368,-468.167 2368,-468.167 2368,-464.333 2371.83,-460.5 2375.67,-460.5 2375.67,-460.5 2491.33,-460.5 2491.33,-460.5 2495.17,-460.5 2499,-464.333 2499,-468.167 2499,-468.167 2499,-475.833 2499,-475.833 2499,-479.667 2495.17,-483.5 2491.33,-483.5"/>
<text text-anchor="middle" x="2433.5" y="-468.3" font-family="Arial" font-size="14.00" fill="#c6c5fe">store/initialState.js</text>
</g>
<!-- reducers/root.js&#45;&gt;store/initialState.js -->
<g id="edge27" class="edge"><title>reducers/root.js&#45;&gt;store/initialState.js</title>
<path fill="none" stroke="#757575" d="M2239.39,-274.594C2255.76,-294.616 2290.85,-336.723 2323,-370 2352.58,-400.619 2389.16,-433.835 2411.66,-453.775"/>
<polygon fill="#757575" stroke="#757575" points="2409.46,-456.5 2419.27,-460.492 2414.09,-451.251 2409.46,-456.5"/>
</g>
<!-- utils.js -->
<g id="node26" class="node"><title>utils.js</title>
<path fill="none" stroke="#cfffac" d="M2688.33,-246.5C2688.33,-246.5 2647.67,-246.5 2647.67,-246.5 2643.83,-246.5 2640,-242.667 2640,-238.833 2640,-238.833 2640,-231.167 2640,-231.167 2640,-227.333 2643.83,-223.5 2647.67,-223.5 2647.67,-223.5 2688.33,-223.5 2688.33,-223.5 2692.17,-223.5 2696,-227.333 2696,-231.167 2696,-231.167 2696,-238.833 2696,-238.833 2696,-242.667 2692.17,-246.5 2688.33,-246.5"/>
<text text-anchor="middle" x="2668" y="-231.3" font-family="Arial" font-size="14.00" fill="#cfffac">utils.js</text>
</g>
<!-- reducers/root.js&#45;&gt;utils.js -->
<g id="edge28" class="edge"><title>reducers/root.js&#45;&gt;utils.js</title>
<path fill="none" stroke="#757575" d="M2287.02,-257.106C2298.9,-255.984 2311.35,-254.885 2323,-254 2434.35,-245.541 2566.25,-239.314 2629.5,-236.563"/>
<polygon fill="#757575" stroke="#757575" points="2629.93,-240.048 2639.77,-236.121 2629.63,-233.055 2629.93,-240.048"/>
</g>
<!-- reducers/updateLowerButtons.js&#45;&gt;utils.js -->
<g id="edge29" class="edge"><title>reducers/updateLowerButtons.js&#45;&gt;utils.js</title>
<path fill="none" stroke="#757575" d="M2501.44,-206.516C2543.14,-213.69 2595.23,-222.652 2629.72,-228.587"/>
<polygon fill="#757575" stroke="#757575" points="2629.38,-232.08 2639.83,-230.326 2630.57,-225.181 2629.38,-232.08"/>
</g>
<!-- reducers/updateMenuBar.js&#45;&gt;utils.js -->
<g id="edge30" class="edge"><title>reducers/updateMenuBar.js&#45;&gt;utils.js</title>
<path fill="none" stroke="#757575" d="M2512.94,-165.565C2523.5,-167.921 2534.1,-170.712 2544,-174 2578.1,-185.321 2614.69,-204.46 2639.01,-218.284"/>
<polygon fill="#757575" stroke="#757575" points="2637.29,-221.332 2647.7,-223.295 2640.79,-215.268 2637.29,-221.332"/>
</g>
<!-- reducers/updateStats.js&#45;&gt;actions/coreMsg.js -->
<g id="edge32" class="edge"><title>reducers/updateStats.js&#45;&gt;actions/coreMsg.js</title>
<path fill="none" stroke="#757575" d="M2517.26,-309.17C2526.92,-305.841 2536.12,-301.259 2544,-295 2574.85,-270.504 2561.45,-248.753 2580,-214 2603.15,-170.642 2634.89,-122.652 2652.94,-96.2349"/>
<polygon fill="#757575" stroke="#757575" points="2655.93,-98.0566 2658.72,-87.8333 2650.17,-94.0907 2655.93,-98.0566"/>
</g>
<!-- reducers/updateStats.js&#45;&gt;actions/Player.js -->
<g id="edge31" class="edge"><title>reducers/updateStats.js&#45;&gt;actions/Player.js</title>
<path fill="none" stroke="#757575" d="M2484.45,-327.539C2503.16,-331.945 2524.58,-337.091 2544,-342 2567.51,-347.945 2593.46,-354.854 2615.44,-360.81"/>
<polygon fill="#757575" stroke="#757575" points="2614.67,-364.227 2625.23,-363.472 2616.5,-357.472 2614.67,-364.227"/>
</g>
<!-- reducers/updateStats.js&#45;&gt;utils.js -->
<g id="edge33" class="edge"><title>reducers/updateStats.js&#45;&gt;utils.js</title>
<path fill="none" stroke="#757575" d="M2509.11,-304.442C2520.92,-301.828 2532.89,-298.702 2544,-295 2577.78,-283.744 2614.16,-265.106 2638.52,-251.586"/>
<polygon fill="#757575" stroke="#757575" points="2640.24,-254.635 2647.24,-246.681 2636.81,-248.534 2640.24,-254.635"/>
</g>
<!-- reducers/updateTime.js&#45;&gt;utils.js -->
<g id="edge34" class="edge"><title>reducers/updateTime.js&#45;&gt;utils.js</title>
<path fill="none" stroke="#757575" d="M2501.44,-263.484C2543.14,-256.31 2595.23,-247.348 2629.72,-241.413"/>
<polygon fill="#757575" stroke="#757575" points="2630.57,-244.819 2639.83,-239.674 2629.38,-237.92 2630.57,-244.819"/>
</g>
<!-- store/initialState.js&#45;&gt;scenes/sceneSymbols.js -->
<g id="edge50" class="edge"><title>store/initialState.js&#45;&gt;scenes/sceneSymbols.js</title>
<path fill="none" stroke="#757575" d="M2490.99,-483.516C2508.18,-487.526 2527.01,-492.435 2544,-498 2575.12,-508.194 2609.34,-522.969 2633.77,-534.167"/>
<polygon fill="#757575" stroke="#757575" points="2632.41,-537.392 2642.95,-538.418 2635.35,-531.04 2632.41,-537.392"/>
</g>
<!-- scenes/charCreation.js&#45;&gt;actions/coreMsg.js -->
<g id="edge36" class="edge"><title>scenes/charCreation.js&#45;&gt;actions/coreMsg.js</title>
<path fill="none" stroke="#757575" d="M1354.77,-337.373C1471.44,-290.089 1928.02,-112.051 2323,-55 2420.21,-40.9586 2446.13,-46.7051 2544,-55 2562.76,-56.5899 2582.96,-59.5205 2601.45,-62.6982"/>
<polygon fill="#757575" stroke="#757575" points="2601.08,-66.1861 2611.54,-64.4822 2602.3,-59.2932 2601.08,-66.1861"/>
</g>
<!-- scenes/charCreation.js&#45;&gt;store/store.js -->
<g id="edge40" class="edge"><title>scenes/charCreation.js&#45;&gt;store/store.js</title>
<path fill="none" stroke="#757575" d="M1406.19,-339.959C1559.18,-322.601 1890.85,-284.971 2025.7,-269.671"/>
<polygon fill="#757575" stroke="#757575" points="2026.29,-273.127 2035.83,-268.522 2025.5,-266.171 2026.29,-273.127"/>
</g>
<!-- scenes/charCreation.js&#45;&gt;actions/Player.js -->
<g id="edge35" class="edge"><title>scenes/charCreation.js&#45;&gt;actions/Player.js</title>
<path fill="none" stroke="#757575" d="M1406.26,-351.044C1575.27,-355.312 1981.93,-365.252 2323,-371 2418.29,-372.606 2528.43,-373.764 2597.89,-374.408"/>
<polygon fill="#757575" stroke="#757575" points="2598.23,-377.911 2608.26,-374.504 2598.29,-370.912 2598.23,-377.911"/>
</g>
<!-- scenes/charCreation.js&#45;&gt;scenes/menus.js -->
<g id="edge37" class="edge"><title>scenes/charCreation.js&#45;&gt;scenes/menus.js</title>
<path fill="none" stroke="#757575" d="M1386.38,-360.505C1393.2,-362.844 1399.89,-365.647 1406,-369 1425.3,-379.583 1423.67,-390.815 1442,-403 1448.23,-407.144 1455.21,-410.916 1462.15,-414.241"/>
<polygon fill="#757575" stroke="#757575" points="1460.97,-417.55 1471.52,-418.489 1463.86,-411.174 1460.97,-417.55"/>
</g>
<!-- scenes/charCreation.js&#45;&gt;scenes/sceneSymbols.js -->
<g id="edge38" class="edge"><title>scenes/charCreation.js&#45;&gt;scenes/sceneSymbols.js</title>
<path fill="none" stroke="#757575" d="M1393.04,-360.616C1397.69,-362.935 1402.08,-365.701 1406,-369 1436.14,-394.365 1415.37,-420.969 1442,-450 1527.79,-543.524 1565.08,-588 1692,-588 1692,-588 1692,-588 2230,-588 2349.16,-588 2485.91,-573.804 2574.23,-562.766"/>
<polygon fill="#757575" stroke="#757575" points="2574.74,-566.229 2584.22,-561.504 2573.86,-559.284 2574.74,-566.229"/>
</g>
<!-- scenes/sceneTextStore.js -->
<g id="node30" class="node"><title>scenes/sceneTextStore.js</title>
<path fill="none" stroke="#c6c5fe" d="M1776.33,-441.5C1776.33,-441.5 1609.67,-441.5 1609.67,-441.5 1605.83,-441.5 1602,-437.667 1602,-433.833 1602,-433.833 1602,-426.167 1602,-426.167 1602,-422.333 1605.83,-418.5 1609.67,-418.5 1609.67,-418.5 1776.33,-418.5 1776.33,-418.5 1780.17,-418.5 1784,-422.333 1784,-426.167 1784,-426.167 1784,-433.833 1784,-433.833 1784,-437.667 1780.17,-441.5 1776.33,-441.5"/>
<text text-anchor="middle" x="1693" y="-426.3" font-family="Arial" font-size="14.00" fill="#c6c5fe">scenes/sceneTextStore.js</text>
</g>
<!-- scenes/charCreation.js&#45;&gt;scenes/sceneTextStore.js -->
<g id="edge39" class="edge"><title>scenes/charCreation.js&#45;&gt;scenes/sceneTextStore.js</title>
<path fill="none" stroke="#757575" d="M1378.48,-360.519C1444.7,-375.194 1559.01,-400.528 1629.79,-416.213"/>
<polygon fill="#757575" stroke="#757575" points="1629.38,-419.708 1639.9,-418.455 1630.9,-412.874 1629.38,-419.708"/>
</g>
<!-- scenes/menus.js&#45;&gt;actions/coreMsg.js -->
<g id="edge41" class="edge"><title>scenes/menus.js&#45;&gt;actions/coreMsg.js</title>
<path fill="none" stroke="#757575" d="M1558.36,-418.48C1705.85,-386.515 2109.83,-298.079 2135,-283 2155.8,-270.538 2154.42,-259.694 2171,-242 2236.33,-172.29 2235.5,-128.348 2323,-90 2408.57,-52.4977 2517.9,-55.5733 2590.06,-63.6553"/>
<polygon fill="#757575" stroke="#757575" points="2590.09,-67.183 2600.44,-64.8798 2590.91,-60.2313 2590.09,-67.183"/>
</g>
<!-- scenes/menus.js&#45;&gt;scenes/sceneSymbols.js -->
<g id="edge42" class="edge"><title>scenes/menus.js&#45;&gt;scenes/sceneSymbols.js</title>
<path fill="none" stroke="#757575" d="M1527.09,-441.506C1586.88,-471.541 1757.54,-550 1909,-550 1909,-550 1909,-550 2230,-550 2346.88,-550 2481.35,-550 2569.91,-550"/>
<polygon fill="#757575" stroke="#757575" points="2569.94,-553.5 2579.94,-550 2569.94,-546.5 2569.94,-553.5"/>
</g>
<!-- scenes/menus.js&#45;&gt;scenes/sceneTextStore.js -->
<g id="edge43" class="edge"><title>scenes/menus.js&#45;&gt;scenes/sceneTextStore.js</title>
<path fill="none" stroke="#757575" d="M1566.23,-430C1574.42,-430 1582.99,-430 1591.64,-430"/>
<polygon fill="#757575" stroke="#757575" points="1591.81,-433.5 1601.81,-430 1591.81,-426.5 1591.81,-433.5"/>
</g>
<!-- scenes/sceneTextStore.js&#45;&gt;components/nameInput.js -->
<g id="edge48" class="edge"><title>scenes/sceneTextStore.js&#45;&gt;components/nameInput.js</title>
<path fill="none" stroke="#757575" d="M1784.24,-430C1792.58,-430 1801.05,-430 1809.46,-430"/>
<polygon fill="#757575" stroke="#757575" points="1809.68,-433.5 1819.68,-430 1809.68,-426.5 1809.68,-433.5"/>
</g>
<!-- scenes/sceneTextStore.js&#45;&gt;scenes/sceneSymbols.js -->
<g id="edge49" class="edge"><title>scenes/sceneTextStore.js&#45;&gt;scenes/sceneSymbols.js</title>
<path fill="none" stroke="#757575" d="M1726.43,-441.575C1792.75,-464.178 1949.07,-512 2084.5,-512 2084.5,-512 2084.5,-512 2230,-512 2349.16,-512 2485.91,-526.196 2574.23,-537.234"/>
<polygon fill="#757575" stroke="#757575" points="2573.86,-540.716 2584.22,-538.496 2574.74,-533.771 2573.86,-540.716"/>
</g>
<!-- setupTests.js -->
<g id="node32" class="node"><title>setupTests.js</title>
<path fill="none" stroke="#cfffac" d="M94.3333,-227.5C94.3333,-227.5 7.66667,-227.5 7.66667,-227.5 3.83333,-227.5 0,-223.667 0,-219.833 0,-219.833 0,-212.167 0,-212.167 0,-208.333 3.83333,-204.5 7.66667,-204.5 7.66667,-204.5 94.3333,-204.5 94.3333,-204.5 98.1667,-204.5 102,-208.333 102,-212.167 102,-212.167 102,-219.833 102,-219.833 102,-223.667 98.1667,-227.5 94.3333,-227.5"/>
<text text-anchor="middle" x="51" y="-212.3" font-family="Arial" font-size="14.00" fill="#cfffac">setupTests.js</text>
</g>
</g>
</svg>
