<?xml version="1.0" encoding="UTF-8" standalone="no"?>
<!DOCTYPE svg PUBLIC "-//W3C//DTD SVG 1.1//EN"
 "http://www.w3.org/Graphics/SVG/1.1/DTD/svg11.dtd">
<!-- Generated by graphviz version 2.38.0 (20140413.2041)
 -->
<!-- Title: G Pages: 1 -->
<svg width="2661pt" height="759pt"
 viewBox="0.00 0.00 2661.20 758.70" xmlns="http://www.w3.org/2000/svg" xmlns:xlink="http://www.w3.org/1999/xlink">
<g id="graph0" class="graph" transform="scale(1 1) rotate(0) translate(21.6 737.1)">
<title>G</title>
<polygon fill="#111111" stroke="none" points="-21.6,21.6 -21.6,-737.1 2639.6,-737.1 2639.6,21.6 -21.6,21.6"/>
<!-- actions/Core.js -->
<g id="node1" class="node"><title>actions/Core.js</title>
<path fill="none" stroke="#c6c5fe" d="M967.333,-226C967.333,-226 871.667,-226 871.667,-226 867.833,-226 864,-222.167 864,-218.333 864,-218.333 864,-210.667 864,-210.667 864,-206.833 867.833,-203 871.667,-203 871.667,-203 967.333,-203 967.333,-203 971.167,-203 975,-206.833 975,-210.667 975,-210.667 975,-218.333 975,-218.333 975,-222.167 971.167,-226 967.333,-226"/>
<text text-anchor="middle" x="919.5" y="-210.8" font-family="Arial" font-size="14.00" fill="#c6c5fe">actions/Core.js</text>
</g>
<!-- actions/coreMsg.js -->
<g id="node2" class="node"><title>actions/coreMsg.js</title>
<path fill="none" stroke="#cfffac" d="M2589.83,-305C2589.83,-305 2470.17,-305 2470.17,-305 2466.33,-305 2462.5,-301.167 2462.5,-297.333 2462.5,-297.333 2462.5,-289.667 2462.5,-289.667 2462.5,-285.833 2466.33,-282 2470.17,-282 2470.17,-282 2589.83,-282 2589.83,-282 2593.67,-282 2597.5,-285.833 2597.5,-289.667 2597.5,-289.667 2597.5,-297.333 2597.5,-297.333 2597.5,-301.167 2593.67,-305 2589.83,-305"/>
<text text-anchor="middle" x="2530" y="-289.8" font-family="Arial" font-size="14.00" fill="#cfffac">actions/coreMsg.js</text>
</g>
<!-- actions/Core.js&#45;&gt;actions/coreMsg.js -->
<g id="edge1" class="edge"><title>actions/Core.js&#45;&gt;actions/coreMsg.js</title>
<path fill="none" stroke="#757575" d="M975.158,-220.641C997.963,-223.044 1024.74,-225.66 1049,-227.5 1585.15,-268.172 2232.61,-286.43 2452.04,-291.759"/>
<polygon fill="#757575" stroke="#757575" points="2452.08,-295.261 2462.16,-292.003 2452.25,-288.263 2452.08,-295.261"/>
</g>
<!-- actions/engineMsg.js -->
<g id="node3" class="node"><title>actions/engineMsg.js</title>
<path fill="none" stroke="#cfffac" d="M2362.33,-23C2362.33,-23 2228.67,-23 2228.67,-23 2224.83,-23 2221,-19.1667 2221,-15.3333 2221,-15.3333 2221,-7.66667 2221,-7.66667 2221,-3.83333 2224.83,-0 2228.67,-0 2228.67,-0 2362.33,-0 2362.33,-0 2366.17,-0 2370,-3.83333 2370,-7.66667 2370,-7.66667 2370,-15.3333 2370,-15.3333 2370,-19.1667 2366.17,-23 2362.33,-23"/>
<text text-anchor="middle" x="2295.5" y="-7.8" font-family="Arial" font-size="14.00" fill="#cfffac">actions/engineMsg.js</text>
</g>
<!-- actions/Core.js&#45;&gt;actions/engineMsg.js -->
<g id="edge2" class="edge"><title>actions/Core.js&#45;&gt;actions/engineMsg.js</title>
<path fill="none" stroke="#757575" d="M975.241,-203.94C1126.39,-174.816 1539.38,-95.5 1554,-95.5 1554,-95.5 1554,-95.5 1948.5,-95.5 1977.77,-95.5 2153.12,-49.5211 2242.37,-25.5976"/>
<polygon fill="#757575" stroke="#757575" points="2243.29,-28.9768 2252.04,-23.0037 2241.47,-22.2161 2243.29,-28.9768"/>
</g>
<!-- scenes/sceneFunctions.js -->
<g id="node4" class="node"><title>scenes/sceneFunctions.js</title>
<path fill="none" stroke="#c6c5fe" d="M1223.33,-423C1223.33,-423 1056.67,-423 1056.67,-423 1052.83,-423 1049,-419.167 1049,-415.333 1049,-415.333 1049,-407.667 1049,-407.667 1049,-403.833 1052.83,-400 1056.67,-400 1056.67,-400 1223.33,-400 1223.33,-400 1227.17,-400 1231,-403.833 1231,-407.667 1231,-407.667 1231,-415.333 1231,-415.333 1231,-419.167 1227.17,-423 1223.33,-423"/>
<text text-anchor="middle" x="1140" y="-407.8" font-family="Arial" font-size="14.00" fill="#c6c5fe">scenes/sceneFunctions.js</text>
</g>
<!-- actions/Core.js&#45;&gt;scenes/sceneFunctions.js -->
<g id="edge3" class="edge"><title>actions/Core.js&#45;&gt;scenes/sceneFunctions.js</title>
<path fill="none" stroke="#757575" d="M975.022,-220.735C988.221,-224.004 1001.75,-228.968 1013,-236.5 1016.92,-239.125 1092.81,-346.154 1124.88,-391.514"/>
<polygon fill="#757575" stroke="#757575" points="1122.22,-393.81 1130.85,-399.957 1127.94,-389.77 1122.22,-393.81"/>
</g>
<!-- scenes/sceneSymbols.js -->
<g id="node5" class="node"><title>scenes/sceneSymbols.js</title>
<path fill="none" stroke="#cfffac" d="M2610.33,-632C2610.33,-632 2449.67,-632 2449.67,-632 2445.83,-632 2442,-628.167 2442,-624.333 2442,-624.333 2442,-616.667 2442,-616.667 2442,-612.833 2445.83,-609 2449.67,-609 2449.67,-609 2610.33,-609 2610.33,-609 2614.17,-609 2618,-612.833 2618,-616.667 2618,-616.667 2618,-624.333 2618,-624.333 2618,-628.167 2614.17,-632 2610.33,-632"/>
<text text-anchor="middle" x="2530" y="-616.8" font-family="Arial" font-size="14.00" fill="#cfffac">scenes/sceneSymbols.js</text>
</g>
<!-- actions/Core.js&#45;&gt;scenes/sceneSymbols.js -->
<g id="edge4" class="edge"><title>actions/Core.js&#45;&gt;scenes/sceneSymbols.js</title>
<path fill="none" stroke="#757575" d="M975.278,-216.994C989.255,-220.215 1003.11,-226.09 1013,-236.5 1073.71,-300.385 1011.82,-351.594 1049,-431.5 1126.11,-597.236 1163.7,-715.5 1346.5,-715.5 1346.5,-715.5 1346.5,-715.5 2092,-715.5 2232.74,-715.5 2270.43,-712.279 2406,-674.5 2438.72,-665.381 2474.03,-649.156 2498.39,-636.865"/>
<polygon fill="#757575" stroke="#757575" points="2500.17,-639.881 2507.47,-632.203 2496.98,-633.653 2500.17,-639.881"/>
</g>
<!-- store/store.js -->
<g id="node6" class="node"><title>store/store.js</title>
<path fill="none" stroke="#c6c5fe" d="M1989.33,-262C1989.33,-262 1905.67,-262 1905.67,-262 1901.83,-262 1898,-258.167 1898,-254.333 1898,-254.333 1898,-246.667 1898,-246.667 1898,-242.833 1901.83,-239 1905.67,-239 1905.67,-239 1989.33,-239 1989.33,-239 1993.17,-239 1997,-242.833 1997,-246.667 1997,-246.667 1997,-254.333 1997,-254.333 1997,-258.167 1993.17,-262 1989.33,-262"/>
<text text-anchor="middle" x="1947.5" y="-246.8" font-family="Arial" font-size="14.00" fill="#c6c5fe">store/store.js</text>
</g>
<!-- actions/Core.js&#45;&gt;store/store.js -->
<g id="edge5" class="edge"><title>actions/Core.js&#45;&gt;store/store.js</title>
<path fill="none" stroke="#757575" d="M975.307,-214.078C1056.41,-213.492 1213.19,-212.5 1346.5,-212.5 1346.5,-212.5 1346.5,-212.5 1556,-212.5 1674.08,-212.5 1811.29,-229.923 1887.59,-241.174"/>
<polygon fill="#757575" stroke="#757575" points="1887.54,-244.705 1897.94,-242.718 1888.57,-237.782 1887.54,-244.705"/>
</g>
<!-- scenes/sceneFunctions.js&#45;&gt;scenes/sceneSymbols.js -->
<g id="edge49" class="edge"><title>scenes/sceneFunctions.js&#45;&gt;scenes/sceneSymbols.js</title>
<path fill="none" stroke="#757575" d="M1156.05,-423.273C1223.43,-474.752 1505.65,-677.5 1771,-677.5 1771,-677.5 1771,-677.5 2092,-677.5 2232.19,-677.5 2267.5,-669.235 2406,-647.5 2427.99,-644.048 2451.95,-639.07 2472.84,-634.326"/>
<polygon fill="#757575" stroke="#757575" points="2473.86,-637.682 2482.82,-632.024 2472.29,-630.861 2473.86,-637.682"/>
</g>
<!-- scenes/sceneFunctions.js&#45;&gt;store/store.js -->
<g id="edge51" class="edge"><title>scenes/sceneFunctions.js&#45;&gt;store/store.js</title>
<path fill="none" stroke="#757575" d="M1175.96,-399.904C1261.3,-372.131 1487.53,-301.722 1682,-269.5 1752.19,-257.87 1834.03,-253.357 1887.87,-251.607"/>
<polygon fill="#757575" stroke="#757575" points="1888.03,-255.104 1897.92,-251.302 1887.82,-248.107 1888.03,-255.104"/>
</g>
<!-- scenes/charCreation.js -->
<g id="node30" class="node"><title>scenes/charCreation.js</title>
<path fill="none" stroke="#c6c5fe" d="M1420.33,-461C1420.33,-461 1274.67,-461 1274.67,-461 1270.83,-461 1267,-457.167 1267,-453.333 1267,-453.333 1267,-445.667 1267,-445.667 1267,-441.833 1270.83,-438 1274.67,-438 1274.67,-438 1420.33,-438 1420.33,-438 1424.17,-438 1428,-441.833 1428,-445.667 1428,-445.667 1428,-453.333 1428,-453.333 1428,-457.167 1424.17,-461 1420.33,-461"/>
<text text-anchor="middle" x="1347.5" y="-445.8" font-family="Arial" font-size="14.00" fill="#c6c5fe">scenes/charCreation.js</text>
</g>
<!-- scenes/sceneFunctions.js&#45;&gt;scenes/charCreation.js -->
<g id="edge47" class="edge"><title>scenes/sceneFunctions.js&#45;&gt;scenes/charCreation.js</title>
<path fill="none" stroke="#757575" d="M1203.21,-423.004C1225.54,-427.134 1250.92,-431.825 1274.04,-436.101"/>
<polygon fill="#757575" stroke="#757575" points="1273.67,-439.592 1284.14,-437.969 1274.95,-432.709 1273.67,-439.592"/>
</g>
<!-- scenes/menus.js -->
<g id="node31" class="node"><title>scenes/menus.js</title>
<path fill="none" stroke="#c6c5fe" d="M1826.33,-385C1826.33,-385 1717.67,-385 1717.67,-385 1713.83,-385 1710,-381.167 1710,-377.333 1710,-377.333 1710,-369.667 1710,-369.667 1710,-365.833 1713.83,-362 1717.67,-362 1717.67,-362 1826.33,-362 1826.33,-362 1830.17,-362 1834,-365.833 1834,-369.667 1834,-369.667 1834,-377.333 1834,-377.333 1834,-381.167 1830.17,-385 1826.33,-385"/>
<text text-anchor="middle" x="1772" y="-369.8" font-family="Arial" font-size="14.00" fill="#c6c5fe">scenes/menus.js</text>
</g>
<!-- scenes/sceneFunctions.js&#45;&gt;scenes/menus.js -->
<g id="edge48" class="edge"><title>scenes/sceneFunctions.js&#45;&gt;scenes/menus.js</title>
<path fill="none" stroke="#757575" d="M1231.26,-406.056C1357.59,-398.436 1584.54,-384.747 1699.74,-377.798"/>
<polygon fill="#757575" stroke="#757575" points="1700.09,-381.284 1709.86,-377.188 1699.66,-374.297 1700.09,-381.284"/>
</g>
<!-- scenes/tests/testing.js -->
<g id="node33" class="node"><title>scenes/tests/testing.js</title>
<path fill="none" stroke="#cfffac" d="M1418.83,-687C1418.83,-687 1276.17,-687 1276.17,-687 1272.33,-687 1268.5,-683.167 1268.5,-679.333 1268.5,-679.333 1268.5,-671.667 1268.5,-671.667 1268.5,-667.833 1272.33,-664 1276.17,-664 1276.17,-664 1418.83,-664 1418.83,-664 1422.67,-664 1426.5,-667.833 1426.5,-671.667 1426.5,-671.667 1426.5,-679.333 1426.5,-679.333 1426.5,-683.167 1422.67,-687 1418.83,-687"/>
<text text-anchor="middle" x="1347.5" y="-671.8" font-family="Arial" font-size="14.00" fill="#cfffac">scenes/tests/testing.js</text>
</g>
<!-- scenes/sceneFunctions.js&#45;&gt;scenes/tests/testing.js -->
<g id="edge50" class="edge"><title>scenes/sceneFunctions.js&#45;&gt;scenes/tests/testing.js</title>
<path fill="none" stroke="#757575" d="M1143.81,-423.142C1153.67,-461.464 1190.3,-584.896 1267,-649.5 1271.81,-653.552 1277.27,-656.977 1283.02,-659.871"/>
<polygon fill="#757575" stroke="#757575" points="1281.68,-663.108 1292.24,-663.996 1284.54,-656.718 1281.68,-663.108"/>
</g>
<!-- reducers/root.js -->
<g id="node23" class="node"><title>reducers/root.js</title>
<path fill="none" stroke="#c6c5fe" d="M2141.33,-186C2141.33,-186 2040.67,-186 2040.67,-186 2036.83,-186 2033,-182.167 2033,-178.333 2033,-178.333 2033,-170.667 2033,-170.667 2033,-166.833 2036.83,-163 2040.67,-163 2040.67,-163 2141.33,-163 2141.33,-163 2145.17,-163 2149,-166.833 2149,-170.667 2149,-170.667 2149,-178.333 2149,-178.333 2149,-182.167 2145.17,-186 2141.33,-186"/>
<text text-anchor="middle" x="2091" y="-170.8" font-family="Arial" font-size="14.00" fill="#c6c5fe">reducers/root.js</text>
</g>
<!-- store/store.js&#45;&gt;reducers/root.js -->
<g id="edge55" class="edge"><title>store/store.js&#45;&gt;reducers/root.js</title>
<path fill="none" stroke="#757575" d="M1969.99,-238.957C1993.78,-226.179 2032.32,-205.478 2059.29,-190.993"/>
<polygon fill="#757575" stroke="#757575" points="2061.15,-193.967 2068.31,-186.151 2057.84,-187.8 2061.15,-193.967"/>
</g>
<!-- actions/Engine.js -->
<g id="node7" class="node"><title>actions/Engine.js</title>
<path fill="none" stroke="#cfffac" d="M116.333,-187C116.333,-187 7.66667,-187 7.66667,-187 3.83333,-187 0,-183.167 0,-179.333 0,-179.333 0,-171.667 0,-171.667 0,-167.833 3.83333,-164 7.66667,-164 7.66667,-164 116.333,-164 116.333,-164 120.167,-164 124,-167.833 124,-171.667 124,-171.667 124,-179.333 124,-179.333 124,-183.167 120.167,-187 116.333,-187"/>
<text text-anchor="middle" x="62" y="-171.8" font-family="Arial" font-size="14.00" fill="#cfffac">actions/Engine.js</text>
</g>
<!-- actions/Player.js -->
<g id="node8" class="node"><title>actions/Player.js</title>
<path fill="none" stroke="#cfffac" d="M2581.83,-440C2581.83,-440 2478.17,-440 2478.17,-440 2474.33,-440 2470.5,-436.167 2470.5,-432.333 2470.5,-432.333 2470.5,-424.667 2470.5,-424.667 2470.5,-420.833 2474.33,-417 2478.17,-417 2478.17,-417 2581.83,-417 2581.83,-417 2585.67,-417 2589.5,-420.833 2589.5,-424.667 2589.5,-424.667 2589.5,-432.333 2589.5,-432.333 2589.5,-436.167 2585.67,-440 2581.83,-440"/>
<text text-anchor="middle" x="2530" y="-424.8" font-family="Arial" font-size="14.00" fill="#cfffac">actions/Player.js</text>
</g>
<!-- components/appRoot.js -->
<g id="node9" class="node"><title>components/appRoot.js</title>
<path fill="none" stroke="#c6c5fe" d="M320.333,-187C320.333,-187 167.667,-187 167.667,-187 163.833,-187 160,-183.167 160,-179.333 160,-179.333 160,-171.667 160,-171.667 160,-167.833 163.833,-164 167.667,-164 167.667,-164 320.333,-164 320.333,-164 324.167,-164 328,-167.833 328,-171.667 328,-171.667 328,-179.333 328,-179.333 328,-183.167 324.167,-187 320.333,-187"/>
<text text-anchor="middle" x="244" y="-171.8" font-family="Arial" font-size="14.00" fill="#c6c5fe">components/appRoot.js</text>
</g>
<!-- components/lowerButtons.js -->
<g id="node10" class="node"><title>components/lowerButtons.js</title>
<path fill="none" stroke="#c6c5fe" d="M551.333,-146C551.333,-146 371.667,-146 371.667,-146 367.833,-146 364,-142.167 364,-138.333 364,-138.333 364,-130.667 364,-130.667 364,-126.833 367.833,-123 371.667,-123 371.667,-123 551.333,-123 551.333,-123 555.167,-123 559,-126.833 559,-130.667 559,-130.667 559,-138.333 559,-138.333 559,-142.167 555.167,-146 551.333,-146"/>
<text text-anchor="middle" x="461.5" y="-130.8" font-family="Arial" font-size="14.00" fill="#c6c5fe">components/lowerButtons.js</text>
</g>
<!-- components/appRoot.js&#45;&gt;components/lowerButtons.js -->
<g id="edge6" class="edge"><title>components/appRoot.js&#45;&gt;components/lowerButtons.js</title>
<path fill="none" stroke="#757575" d="M305.602,-163.97C331.88,-158.971 362.817,-153.085 390.106,-147.893"/>
<polygon fill="#757575" stroke="#757575" points="390.81,-151.322 399.98,-146.014 389.502,-144.445 390.81,-151.322"/>
</g>
<!-- components/menuBar.js -->
<g id="node11" class="node"><title>components/menuBar.js</title>
<path fill="none" stroke="#c6c5fe" d="M538.833,-187C538.833,-187 384.167,-187 384.167,-187 380.333,-187 376.5,-183.167 376.5,-179.333 376.5,-179.333 376.5,-171.667 376.5,-171.667 376.5,-167.833 380.333,-164 384.167,-164 384.167,-164 538.833,-164 538.833,-164 542.667,-164 546.5,-167.833 546.5,-171.667 546.5,-171.667 546.5,-179.333 546.5,-179.333 546.5,-183.167 542.667,-187 538.833,-187"/>
<text text-anchor="middle" x="461.5" y="-171.8" font-family="Arial" font-size="14.00" fill="#c6c5fe">components/menuBar.js</text>
</g>
<!-- components/appRoot.js&#45;&gt;components/menuBar.js -->
<g id="edge7" class="edge"><title>components/appRoot.js&#45;&gt;components/menuBar.js</title>
<path fill="none" stroke="#757575" d="M328.01,-175.5C340.546,-175.5 353.556,-175.5 366.307,-175.5"/>
<polygon fill="#757575" stroke="#757575" points="366.465,-179 376.465,-175.5 366.465,-172 366.465,-179"/>
</g>
<!-- components/output.js -->
<g id="node12" class="node"><title>components/output.js</title>
<path fill="none" stroke="#cfffac" d="M529.833,-228C529.833,-228 393.167,-228 393.167,-228 389.333,-228 385.5,-224.167 385.5,-220.333 385.5,-220.333 385.5,-212.667 385.5,-212.667 385.5,-208.833 389.333,-205 393.167,-205 393.167,-205 529.833,-205 529.833,-205 533.667,-205 537.5,-208.833 537.5,-212.667 537.5,-212.667 537.5,-220.333 537.5,-220.333 537.5,-224.167 533.667,-228 529.833,-228"/>
<text text-anchor="middle" x="461.5" y="-212.8" font-family="Arial" font-size="14.00" fill="#cfffac">components/output.js</text>
</g>
<!-- components/appRoot.js&#45;&gt;components/output.js -->
<g id="edge8" class="edge"><title>components/appRoot.js&#45;&gt;components/output.js</title>
<path fill="none" stroke="#757575" d="M305.602,-187.03C331.88,-192.029 362.817,-197.915 390.106,-203.107"/>
<polygon fill="#757575" stroke="#757575" points="389.502,-206.555 399.98,-204.986 390.81,-199.678 389.502,-206.555"/>
</g>
<!-- components/statBar.js -->
<g id="node13" class="node"><title>components/statBar.js</title>
<path fill="none" stroke="#c6c5fe" d="M532.833,-269C532.833,-269 390.167,-269 390.167,-269 386.333,-269 382.5,-265.167 382.5,-261.333 382.5,-261.333 382.5,-253.667 382.5,-253.667 382.5,-249.833 386.333,-246 390.167,-246 390.167,-246 532.833,-246 532.833,-246 536.667,-246 540.5,-249.833 540.5,-253.667 540.5,-253.667 540.5,-261.333 540.5,-261.333 540.5,-265.167 536.667,-269 532.833,-269"/>
<text text-anchor="middle" x="461.5" y="-253.8" font-family="Arial" font-size="14.00" fill="#c6c5fe">components/statBar.js</text>
</g>
<!-- components/appRoot.js&#45;&gt;components/statBar.js -->
<g id="edge9" class="edge"><title>components/appRoot.js&#45;&gt;components/statBar.js</title>
<path fill="none" stroke="#757575" d="M263.687,-187.021C286.56,-200.658 326.845,-223.19 364,-236.5 371.207,-239.082 378.835,-241.401 386.519,-243.472"/>
<polygon fill="#757575" stroke="#757575" points="385.698,-246.875 396.253,-245.963 387.433,-240.094 385.698,-246.875"/>
</g>
<!-- components/buttonGrid.js -->
<g id="node15" class="node"><title>components/buttonGrid.js</title>
<path fill="none" stroke="#c6c5fe" d="M774.333,-164C774.333,-164 610.667,-164 610.667,-164 606.833,-164 603,-160.167 603,-156.333 603,-156.333 603,-148.667 603,-148.667 603,-144.833 606.833,-141 610.667,-141 610.667,-141 774.333,-141 774.333,-141 778.167,-141 782,-144.833 782,-148.667 782,-148.667 782,-156.333 782,-156.333 782,-160.167 778.167,-164 774.333,-164"/>
<text text-anchor="middle" x="692.5" y="-148.8" font-family="Arial" font-size="14.00" fill="#c6c5fe">components/buttonGrid.js</text>
</g>
<!-- components/lowerButtons.js&#45;&gt;components/buttonGrid.js -->
<g id="edge13" class="edge"><title>components/lowerButtons.js&#45;&gt;components/buttonGrid.js</title>
<path fill="none" stroke="#757575" d="M559.285,-142.108C570.313,-142.974 581.566,-143.859 592.621,-144.728"/>
<polygon fill="#757575" stroke="#757575" points="592.462,-148.226 602.705,-145.521 593.01,-141.248 592.462,-148.226"/>
</g>
<!-- components/menuBar.js&#45;&gt;components/buttonGrid.js -->
<g id="edge14" class="edge"><title>components/menuBar.js&#45;&gt;components/buttonGrid.js</title>
<path fill="none" stroke="#757575" d="M546.796,-167.034C561.755,-165.531 577.456,-163.954 592.773,-162.416"/>
<polygon fill="#757575" stroke="#757575" points="593.171,-165.894 602.771,-161.412 592.471,-158.929 593.171,-165.894"/>
</g>
<!-- components/spriteDisplay.js -->
<g id="node18" class="node"><title>components/spriteDisplay.js</title>
<path fill="none" stroke="#cfffac" d="M782.333,-310C782.333,-310 602.667,-310 602.667,-310 598.833,-310 595,-306.167 595,-302.333 595,-302.333 595,-294.667 595,-294.667 595,-290.833 598.833,-287 602.667,-287 602.667,-287 782.333,-287 782.333,-287 786.167,-287 790,-290.833 790,-294.667 790,-294.667 790,-302.333 790,-302.333 790,-306.167 786.167,-310 782.333,-310"/>
<text text-anchor="middle" x="692.5" y="-294.8" font-family="Arial" font-size="14.00" fill="#cfffac">components/spriteDisplay.js</text>
</g>
<!-- components/statBar.js&#45;&gt;components/spriteDisplay.js -->
<g id="edge17" class="edge"><title>components/statBar.js&#45;&gt;components/spriteDisplay.js</title>
<path fill="none" stroke="#757575" d="M526.899,-269.03C554.945,-274.051 587.986,-279.967 617.078,-285.175"/>
<polygon fill="#757575" stroke="#757575" points="616.728,-288.668 627.188,-286.986 617.962,-281.778 616.728,-288.668"/>
</g>
<!-- components/statDisplay.js -->
<g id="node20" class="node"><title>components/statDisplay.js</title>
<path fill="none" stroke="#c6c5fe" d="M775.833,-269C775.833,-269 609.167,-269 609.167,-269 605.333,-269 601.5,-265.167 601.5,-261.333 601.5,-261.333 601.5,-253.667 601.5,-253.667 601.5,-249.833 605.333,-246 609.167,-246 609.167,-246 775.833,-246 775.833,-246 779.667,-246 783.5,-249.833 783.5,-253.667 783.5,-253.667 783.5,-261.333 783.5,-261.333 783.5,-265.167 779.667,-269 775.833,-269"/>
<text text-anchor="middle" x="692.5" y="-253.8" font-family="Arial" font-size="14.00" fill="#c6c5fe">components/statDisplay.js</text>
</g>
<!-- components/statBar.js&#45;&gt;components/statDisplay.js -->
<g id="edge18" class="edge"><title>components/statBar.js&#45;&gt;components/statDisplay.js</title>
<path fill="none" stroke="#757575" d="M540.668,-257.5C556.871,-257.5 574.156,-257.5 591.028,-257.5"/>
<polygon fill="#757575" stroke="#757575" points="591.467,-261 601.467,-257.5 591.467,-254 591.467,-261"/>
</g>
<!-- components/timeDisplay.js -->
<g id="node21" class="node"><title>components/timeDisplay.js</title>
<path fill="none" stroke="#cfffac" d="M778.333,-228C778.333,-228 606.667,-228 606.667,-228 602.833,-228 599,-224.167 599,-220.333 599,-220.333 599,-212.667 599,-212.667 599,-208.833 602.833,-205 606.667,-205 606.667,-205 778.333,-205 778.333,-205 782.167,-205 786,-208.833 786,-212.667 786,-212.667 786,-220.333 786,-220.333 786,-224.167 782.167,-228 778.333,-228"/>
<text text-anchor="middle" x="692.5" y="-212.8" font-family="Arial" font-size="14.00" fill="#cfffac">components/timeDisplay.js</text>
</g>
<!-- components/statBar.js&#45;&gt;components/timeDisplay.js -->
<g id="edge19" class="edge"><title>components/statBar.js&#45;&gt;components/timeDisplay.js</title>
<path fill="none" stroke="#757575" d="M526.899,-245.97C554.945,-240.949 587.986,-235.033 617.078,-229.825"/>
<polygon fill="#757575" stroke="#757575" points="617.962,-233.222 627.188,-228.014 616.728,-226.332 617.962,-233.222"/>
</g>
<!-- components/button.js -->
<g id="node14" class="node"><title>components/button.js</title>
<path fill="none" stroke="#cfffac" d="M1208.33,-146C1208.33,-146 1071.67,-146 1071.67,-146 1067.83,-146 1064,-142.167 1064,-138.333 1064,-138.333 1064,-130.667 1064,-130.667 1064,-126.833 1067.83,-123 1071.67,-123 1071.67,-123 1208.33,-123 1208.33,-123 1212.17,-123 1216,-126.833 1216,-130.667 1216,-130.667 1216,-138.333 1216,-138.333 1216,-142.167 1212.17,-146 1208.33,-146"/>
<text text-anchor="middle" x="1140" y="-130.8" font-family="Arial" font-size="14.00" fill="#cfffac">components/button.js</text>
</g>
<!-- components/buttonGrid.js&#45;&gt;actions/Core.js -->
<g id="edge10" class="edge"><title>components/buttonGrid.js&#45;&gt;actions/Core.js</title>
<path fill="none" stroke="#757575" d="M735.293,-164.016C772.433,-174.25 826.861,-189.248 866.743,-200.238"/>
<polygon fill="#757575" stroke="#757575" points="865.979,-203.658 876.549,-202.94 867.838,-196.909 865.979,-203.658"/>
</g>
<!-- components/buttonWrap.js -->
<g id="node16" class="node"><title>components/buttonWrap.js</title>
<path fill="none" stroke="#c6c5fe" d="M1005.33,-155C1005.33,-155 833.667,-155 833.667,-155 829.833,-155 826,-151.167 826,-147.333 826,-147.333 826,-139.667 826,-139.667 826,-135.833 829.833,-132 833.667,-132 833.667,-132 1005.33,-132 1005.33,-132 1009.17,-132 1013,-135.833 1013,-139.667 1013,-139.667 1013,-147.333 1013,-147.333 1013,-151.167 1009.17,-155 1005.33,-155"/>
<text text-anchor="middle" x="919.5" y="-139.8" font-family="Arial" font-size="14.00" fill="#c6c5fe">components/buttonWrap.js</text>
</g>
<!-- components/buttonGrid.js&#45;&gt;components/buttonWrap.js -->
<g id="edge11" class="edge"><title>components/buttonGrid.js&#45;&gt;components/buttonWrap.js</title>
<path fill="none" stroke="#757575" d="M782.103,-148.956C793.119,-148.515 804.455,-148.062 815.663,-147.613"/>
<polygon fill="#757575" stroke="#757575" points="816.054,-151.101 825.906,-147.204 815.774,-144.106 816.054,-151.101"/>
</g>
<!-- components/buttonWrap.js&#45;&gt;components/button.js -->
<g id="edge12" class="edge"><title>components/buttonWrap.js&#45;&gt;components/button.js</title>
<path fill="none" stroke="#757575" d="M1013.16,-139.683C1026.6,-139.13 1040.39,-138.562 1053.67,-138.015"/>
<polygon fill="#757575" stroke="#757575" points="1053.87,-141.509 1063.72,-137.601 1053.59,-134.515 1053.87,-141.509"/>
</g>
<!-- components/nameInput.js -->
<g id="node17" class="node"><title>components/nameInput.js</title>
<path fill="none" stroke="#c6c5fe" d="M1854.33,-501C1854.33,-501 1689.67,-501 1689.67,-501 1685.83,-501 1682,-497.167 1682,-493.333 1682,-493.333 1682,-485.667 1682,-485.667 1682,-481.833 1685.83,-478 1689.67,-478 1689.67,-478 1854.33,-478 1854.33,-478 1858.17,-478 1862,-481.833 1862,-485.667 1862,-485.667 1862,-493.333 1862,-493.333 1862,-497.167 1858.17,-501 1854.33,-501"/>
<text text-anchor="middle" x="1772" y="-485.8" font-family="Arial" font-size="14.00" fill="#c6c5fe">components/nameInput.js</text>
</g>
<!-- components/nameInput.js&#45;&gt;store/store.js -->
<g id="edge16" class="edge"><title>components/nameInput.js&#45;&gt;store/store.js</title>
<path fill="none" stroke="#757575" d="M1785.41,-477.813C1803.48,-460.434 1837.55,-426.297 1862,-393.5 1892.53,-352.553 1921.26,-299.815 1936.07,-271.202"/>
<polygon fill="#757575" stroke="#757575" points="1939.27,-272.642 1940.71,-262.146 1933.03,-269.451 1939.27,-272.642"/>
</g>
<!-- components/nameInput.js&#45;&gt;actions/Player.js -->
<g id="edge15" class="edge"><title>components/nameInput.js&#45;&gt;actions/Player.js</title>
<path fill="none" stroke="#757575" d="M1862.24,-492.425C1985.41,-494.968 2214.05,-494.307 2406,-463.5 2433.33,-459.113 2463.22,-450.697 2486.69,-443.217"/>
<polygon fill="#757575" stroke="#757575" points="2487.9,-446.503 2496.33,-440.083 2485.73,-439.846 2487.9,-446.503"/>
</g>
<!-- components/stat.js -->
<g id="node19" class="node"><title>components/stat.js</title>
<path fill="none" stroke="#cfffac" d="M979.833,-269C979.833,-269 859.167,-269 859.167,-269 855.333,-269 851.5,-265.167 851.5,-261.333 851.5,-261.333 851.5,-253.667 851.5,-253.667 851.5,-249.833 855.333,-246 859.167,-246 859.167,-246 979.833,-246 979.833,-246 983.667,-246 987.5,-249.833 987.5,-253.667 987.5,-253.667 987.5,-261.333 987.5,-261.333 987.5,-265.167 983.667,-269 979.833,-269"/>
<text text-anchor="middle" x="919.5" y="-253.8" font-family="Arial" font-size="14.00" fill="#cfffac">components/stat.js</text>
</g>
<!-- components/statDisplay.js&#45;&gt;components/stat.js -->
<g id="edge20" class="edge"><title>components/statDisplay.js&#45;&gt;components/stat.js</title>
<path fill="none" stroke="#757575" d="M783.72,-257.5C802.804,-257.5 822.779,-257.5 841.327,-257.5"/>
<polygon fill="#757575" stroke="#757575" points="841.471,-261 851.471,-257.5 841.471,-254 841.471,-261"/>
</g>
<!-- index.js -->
<g id="node22" class="node"><title>index.js</title>
<path fill="none" stroke="#c6c5fe" d="M86.8333,-146C86.8333,-146 37.1667,-146 37.1667,-146 33.3333,-146 29.5,-142.167 29.5,-138.333 29.5,-138.333 29.5,-130.667 29.5,-130.667 29.5,-126.833 33.3333,-123 37.1667,-123 37.1667,-123 86.8333,-123 86.8333,-123 90.6667,-123 94.5,-126.833 94.5,-130.667 94.5,-130.667 94.5,-138.333 94.5,-138.333 94.5,-142.167 90.6667,-146 86.8333,-146"/>
<text text-anchor="middle" x="62" y="-130.8" font-family="Arial" font-size="14.00" fill="#c6c5fe">index.js</text>
</g>
<!-- index.js&#45;&gt;store/store.js -->
<g id="edge22" class="edge"><title>index.js&#45;&gt;store/store.js</title>
<path fill="none" stroke="#757575" d="M94.5801,-129.147C161.717,-118.247 323.689,-94.5 460.5,-94.5 460.5,-94.5 460.5,-94.5 920.5,-94.5 1342.33,-94.5 1456.68,-97.6282 1862,-214.5 1879.76,-219.622 1898.77,-227.488 1914.25,-234.563"/>
<polygon fill="#757575" stroke="#757575" points="1912.85,-237.771 1923.39,-238.834 1915.81,-231.429 1912.85,-237.771"/>
</g>
<!-- index.js&#45;&gt;components/appRoot.js -->
<g id="edge21" class="edge"><title>index.js&#45;&gt;components/appRoot.js</title>
<path fill="none" stroke="#757575" d="M94.766,-141.736C118.977,-147.25 153.04,-155.009 182.409,-161.699"/>
<polygon fill="#757575" stroke="#757575" points="181.641,-165.113 192.168,-163.922 183.195,-158.288 181.641,-165.113"/>
</g>
<!-- reducers/root.js&#45;&gt;actions/coreMsg.js -->
<g id="edge24" class="edge"><title>reducers/root.js&#45;&gt;actions/coreMsg.js</title>
<path fill="none" stroke="#757575" d="M2147.52,-186.097C2159.85,-188.601 2172.86,-191.189 2185,-193.5 2282.98,-212.151 2311.25,-201.359 2406,-232.5 2440.34,-243.784 2477.15,-263.101 2501.46,-276.977"/>
<polygon fill="#757575" stroke="#757575" points="2499.72,-280.017 2510.13,-282 2503.23,-273.959 2499.72,-280.017"/>
</g>
<!-- reducers/root.js&#45;&gt;actions/engineMsg.js -->
<g id="edge25" class="edge"><title>reducers/root.js&#45;&gt;actions/engineMsg.js</title>
<path fill="none" stroke="#757575" d="M2103.93,-162.807C2116.21,-150.349 2135.44,-129.68 2149,-109.5 2168.96,-79.8069 2156.96,-59.7209 2185,-37.5 2192.81,-31.3109 2201.85,-26.5559 2211.33,-22.9091"/>
<polygon fill="#757575" stroke="#757575" points="2212.6,-26.1747 2220.92,-19.6198 2210.33,-19.5533 2212.6,-26.1747"/>
</g>
<!-- reducers/root.js&#45;&gt;actions/Player.js -->
<g id="edge23" class="edge"><title>reducers/root.js&#45;&gt;actions/Player.js</title>
<path fill="none" stroke="#757575" d="M2100.56,-186.292C2115.68,-206.424 2148.92,-247.741 2185,-273.5 2281.04,-342.061 2412.25,-390.882 2481.58,-413.796"/>
<polygon fill="#757575" stroke="#757575" points="2480.76,-417.209 2491.35,-416.988 2482.93,-410.555 2480.76,-417.209"/>
</g>
<!-- reducers/updateLowerButtons.js -->
<g id="node24" class="node"><title>reducers/updateLowerButtons.js</title>
<path fill="none" stroke="#c6c5fe" d="M2398.33,-185C2398.33,-185 2192.67,-185 2192.67,-185 2188.83,-185 2185,-181.167 2185,-177.333 2185,-177.333 2185,-169.667 2185,-169.667 2185,-165.833 2188.83,-162 2192.67,-162 2192.67,-162 2398.33,-162 2398.33,-162 2402.17,-162 2406,-165.833 2406,-169.667 2406,-169.667 2406,-177.333 2406,-177.333 2406,-181.167 2402.17,-185 2398.33,-185"/>
<text text-anchor="middle" x="2295.5" y="-169.8" font-family="Arial" font-size="14.00" fill="#c6c5fe">reducers/updateLowerButtons.js</text>
</g>
<!-- reducers/root.js&#45;&gt;reducers/updateLowerButtons.js -->
<g id="edge26" class="edge"><title>reducers/root.js&#45;&gt;reducers/updateLowerButtons.js</title>
<path fill="none" stroke="#757575" d="M2149.22,-174.217C2157.37,-174.177 2166.01,-174.135 2174.83,-174.091"/>
<polygon fill="#757575" stroke="#757575" points="2174.88,-177.591 2184.86,-174.041 2174.84,-170.591 2174.88,-177.591"/>
</g>
<!-- reducers/updateMenuBar.js -->
<g id="node25" class="node"><title>reducers/updateMenuBar.js</title>
<path fill="none" stroke="#c6c5fe" d="M2383.33,-144C2383.33,-144 2207.67,-144 2207.67,-144 2203.83,-144 2200,-140.167 2200,-136.333 2200,-136.333 2200,-128.667 2200,-128.667 2200,-124.833 2203.83,-121 2207.67,-121 2207.67,-121 2383.33,-121 2383.33,-121 2387.17,-121 2391,-124.833 2391,-128.667 2391,-128.667 2391,-136.333 2391,-136.333 2391,-140.167 2387.17,-144 2383.33,-144"/>
<text text-anchor="middle" x="2295.5" y="-128.8" font-family="Arial" font-size="14.00" fill="#c6c5fe">reducers/updateMenuBar.js</text>
</g>
<!-- reducers/root.js&#45;&gt;reducers/updateMenuBar.js -->
<g id="edge27" class="edge"><title>reducers/root.js&#45;&gt;reducers/updateMenuBar.js</title>
<path fill="none" stroke="#757575" d="M2138.73,-162.948C2153.49,-159.432 2169.9,-155.663 2185,-152.5 2195.83,-150.232 2207.28,-147.979 2218.55,-145.847"/>
<polygon fill="#757575" stroke="#757575" points="2219.2,-149.287 2228.38,-144.007 2217.91,-142.407 2219.2,-149.287"/>
</g>
<!-- reducers/updateStats.js -->
<g id="node26" class="node"><title>reducers/updateStats.js</title>
<path fill="none" stroke="#c6c5fe" d="M2371.33,-265C2371.33,-265 2219.67,-265 2219.67,-265 2215.83,-265 2212,-261.167 2212,-257.333 2212,-257.333 2212,-249.667 2212,-249.667 2212,-245.833 2215.83,-242 2219.67,-242 2219.67,-242 2371.33,-242 2371.33,-242 2375.17,-242 2379,-245.833 2379,-249.667 2379,-249.667 2379,-257.333 2379,-257.333 2379,-261.167 2375.17,-265 2371.33,-265"/>
<text text-anchor="middle" x="2295.5" y="-249.8" font-family="Arial" font-size="14.00" fill="#c6c5fe">reducers/updateStats.js</text>
</g>
<!-- reducers/root.js&#45;&gt;reducers/updateStats.js -->
<g id="edge28" class="edge"><title>reducers/root.js&#45;&gt;reducers/updateStats.js</title>
<path fill="none" stroke="#757575" d="M2108.75,-186.003C2126.82,-197.941 2156.82,-216.389 2185,-227.5 2196.76,-232.137 2209.57,-236.091 2222.15,-239.411"/>
<polygon fill="#757575" stroke="#757575" points="2221.61,-242.885 2232.16,-241.939 2223.33,-236.098 2221.61,-242.885"/>
</g>
<!-- reducers/updateTime.js -->
<g id="node27" class="node"><title>reducers/updateTime.js</title>
<path fill="none" stroke="#c6c5fe" d="M2371.33,-103C2371.33,-103 2219.67,-103 2219.67,-103 2215.83,-103 2212,-99.1667 2212,-95.3333 2212,-95.3333 2212,-87.6667 2212,-87.6667 2212,-83.8333 2215.83,-80 2219.67,-80 2219.67,-80 2371.33,-80 2371.33,-80 2375.17,-80 2379,-83.8333 2379,-87.6667 2379,-87.6667 2379,-95.3333 2379,-95.3333 2379,-99.1667 2375.17,-103 2371.33,-103"/>
<text text-anchor="middle" x="2295.5" y="-87.8" font-family="Arial" font-size="14.00" fill="#c6c5fe">reducers/updateTime.js</text>
</g>
<!-- reducers/root.js&#45;&gt;reducers/updateTime.js -->
<g id="edge29" class="edge"><title>reducers/root.js&#45;&gt;reducers/updateTime.js</title>
<path fill="none" stroke="#757575" d="M2105.14,-162.953C2122.28,-148.548 2153.77,-124.265 2185,-111.5 2190.44,-109.275 2196.14,-107.296 2201.95,-105.537"/>
<polygon fill="#757575" stroke="#757575" points="2203.13,-108.842 2211.82,-102.778 2201.25,-102.1 2203.13,-108.842"/>
</g>
<!-- store/initialState.js -->
<g id="node28" class="node"><title>store/initialState.js</title>
<path fill="none" stroke="#c6c5fe" d="M2353.33,-421C2353.33,-421 2237.67,-421 2237.67,-421 2233.83,-421 2230,-417.167 2230,-413.333 2230,-413.333 2230,-405.667 2230,-405.667 2230,-401.833 2233.83,-398 2237.67,-398 2237.67,-398 2353.33,-398 2353.33,-398 2357.17,-398 2361,-401.833 2361,-405.667 2361,-405.667 2361,-413.333 2361,-413.333 2361,-417.167 2357.17,-421 2353.33,-421"/>
<text text-anchor="middle" x="2295.5" y="-405.8" font-family="Arial" font-size="14.00" fill="#c6c5fe">store/initialState.js</text>
</g>
<!-- reducers/root.js&#45;&gt;store/initialState.js -->
<g id="edge30" class="edge"><title>reducers/root.js&#45;&gt;store/initialState.js</title>
<path fill="none" stroke="#757575" d="M2093.56,-186.135C2098.95,-221.688 2120.21,-329.736 2185,-383.5 2195.07,-391.852 2207.35,-397.613 2220.01,-401.569"/>
<polygon fill="#757575" stroke="#757575" points="2219.17,-404.966 2229.74,-404.254 2221.03,-398.218 2219.17,-404.966"/>
</g>
<!-- utils.js -->
<g id="node29" class="node"><title>utils.js</title>
<path fill="none" stroke="#cfffac" d="M2550.33,-144C2550.33,-144 2509.67,-144 2509.67,-144 2505.83,-144 2502,-140.167 2502,-136.333 2502,-136.333 2502,-128.667 2502,-128.667 2502,-124.833 2505.83,-121 2509.67,-121 2509.67,-121 2550.33,-121 2550.33,-121 2554.17,-121 2558,-124.833 2558,-128.667 2558,-128.667 2558,-136.333 2558,-136.333 2558,-140.167 2554.17,-144 2550.33,-144"/>
<text text-anchor="middle" x="2530" y="-128.8" font-family="Arial" font-size="14.00" fill="#cfffac">utils.js</text>
</g>
<!-- reducers/root.js&#45;&gt;utils.js -->
<g id="edge31" class="edge"><title>reducers/root.js&#45;&gt;utils.js</title>
<path fill="none" stroke="#757575" d="M2102.3,-162.737C2125.92,-135.779 2182.21,-71.7486 2185,-70.5 2274.66,-30.3961 2310.44,-47.778 2406,-70.5 2442.31,-79.1334 2480.06,-100.282 2504,-115.478"/>
<polygon fill="#757575" stroke="#757575" points="2502.17,-118.466 2512.47,-120.973 2505.98,-112.593 2502.17,-118.466"/>
</g>
<!-- reducers/updateLowerButtons.js&#45;&gt;utils.js -->
<g id="edge32" class="edge"><title>reducers/updateLowerButtons.js&#45;&gt;utils.js</title>
<path fill="none" stroke="#757575" d="M2361.88,-161.97C2403.75,-154.586 2456.59,-145.268 2491.52,-139.109"/>
<polygon fill="#757575" stroke="#757575" points="2492.51,-142.488 2501.75,-137.305 2491.3,-135.595 2492.51,-142.488"/>
</g>
<!-- reducers/updateMenuBar.js&#45;&gt;utils.js -->
<g id="edge33" class="edge"><title>reducers/updateMenuBar.js&#45;&gt;utils.js</title>
<path fill="none" stroke="#757575" d="M2391.07,-132.5C2426.36,-132.5 2464.42,-132.5 2491.6,-132.5"/>
<polygon fill="#757575" stroke="#757575" points="2491.82,-136 2501.82,-132.5 2491.82,-129 2491.82,-136"/>
</g>
<!-- reducers/updateStats.js&#45;&gt;actions/coreMsg.js -->
<g id="edge35" class="edge"><title>reducers/updateStats.js&#45;&gt;actions/coreMsg.js</title>
<path fill="none" stroke="#757575" d="M2363.44,-265.016C2391.16,-269.785 2423.47,-275.344 2452.15,-280.279"/>
<polygon fill="#757575" stroke="#757575" points="2451.68,-283.75 2462.13,-281.996 2452.87,-276.851 2451.68,-283.75"/>
</g>
<!-- reducers/updateStats.js&#45;&gt;actions/Player.js -->
<g id="edge34" class="edge"><title>reducers/updateStats.js&#45;&gt;actions/Player.js</title>
<path fill="none" stroke="#757575" d="M2312.12,-265.254C2351.99,-295.266 2457.76,-374.875 2505.28,-410.649"/>
<polygon fill="#757575" stroke="#757575" points="2503.36,-413.58 2513.45,-416.797 2507.57,-407.987 2503.36,-413.58"/>
</g>
<!-- reducers/updateStats.js&#45;&gt;utils.js -->
<g id="edge36" class="edge"><title>reducers/updateStats.js&#45;&gt;utils.js</title>
<path fill="none" stroke="#757575" d="M2318.79,-241.898C2360.46,-220.215 2450.21,-173.505 2497.84,-148.718"/>
<polygon fill="#757575" stroke="#757575" points="2499.52,-151.788 2506.77,-144.067 2496.29,-145.579 2499.52,-151.788"/>
</g>
<!-- reducers/updateTime.js&#45;&gt;utils.js -->
<g id="edge37" class="edge"><title>reducers/updateTime.js&#45;&gt;utils.js</title>
<path fill="none" stroke="#757575" d="M2361.88,-103.03C2403.75,-110.414 2456.59,-119.732 2491.52,-125.891"/>
<polygon fill="#757575" stroke="#757575" points="2491.3,-129.405 2501.75,-127.695 2492.51,-122.512 2491.3,-129.405"/>
</g>
<!-- store/initialState.js&#45;&gt;scenes/sceneSymbols.js -->
<g id="edge54" class="edge"><title>store/initialState.js&#45;&gt;scenes/sceneSymbols.js</title>
<path fill="none" stroke="#757575" d="M2309.33,-421.145C2347.68,-455.946 2461.66,-559.383 2508.52,-601.916"/>
<polygon fill="#757575" stroke="#757575" points="2506.45,-604.763 2516.21,-608.891 2511.16,-599.579 2506.45,-604.763"/>
</g>
<!-- scenes/charCreation.js&#45;&gt;actions/coreMsg.js -->
<g id="edge39" class="edge"><title>scenes/charCreation.js&#45;&gt;actions/coreMsg.js</title>
<path fill="none" stroke="#757575" d="M1428.32,-449.5C1513.27,-449.5 1651.62,-449.5 1771,-449.5 1771,-449.5 1771,-449.5 2092,-449.5 2231.84,-449.5 2280.06,-490.272 2406,-429.5 2458.49,-404.173 2498.8,-345.524 2517.52,-314.161"/>
<polygon fill="#757575" stroke="#757575" points="2520.63,-315.776 2522.62,-305.37 2514.57,-312.261 2520.63,-315.776"/>
</g>
<!-- scenes/charCreation.js&#45;&gt;scenes/sceneSymbols.js -->
<g id="edge41" class="edge"><title>scenes/charCreation.js&#45;&gt;scenes/sceneSymbols.js</title>
<path fill="none" stroke="#757575" d="M1360.32,-461.031C1380.19,-479.856 1422.25,-517.313 1464,-539.5 1590.72,-606.835 1627.5,-639.5 1771,-639.5 1771,-639.5 1771,-639.5 2092,-639.5 2208.99,-639.5 2343.44,-632.619 2431.96,-627.139"/>
<polygon fill="#757575" stroke="#757575" points="2432.23,-630.629 2441.99,-626.512 2431.79,-623.643 2432.23,-630.629"/>
</g>
<!-- scenes/charCreation.js&#45;&gt;store/store.js -->
<g id="edge43" class="edge"><title>scenes/charCreation.js&#45;&gt;store/store.js</title>
<path fill="none" stroke="#757575" d="M1370.2,-437.924C1393.09,-426.011 1430.42,-407.418 1464,-394.5 1614.21,-336.72 1797.9,-287.573 1889.24,-264.523"/>
<polygon fill="#757575" stroke="#757575" points="1890.27,-267.873 1899.12,-262.042 1888.57,-261.084 1890.27,-267.873"/>
</g>
<!-- scenes/charCreation.js&#45;&gt;actions/Player.js -->
<g id="edge38" class="edge"><title>scenes/charCreation.js&#45;&gt;actions/Player.js</title>
<path fill="none" stroke="#757575" d="M1364.7,-461.153C1386.17,-475.805 1425.81,-500.171 1464,-509.5 1759.76,-581.737 1844.77,-517.083 2149,-505.5 2263.36,-501.146 2295.44,-519.063 2406,-489.5 2441.32,-480.055 2478.48,-460.026 2502.59,-445.488"/>
<polygon fill="#757575" stroke="#757575" points="2504.47,-448.439 2511.16,-440.219 2500.81,-442.475 2504.47,-448.439"/>
</g>
<!-- scenes/charCreation.js&#45;&gt;scenes/menus.js -->
<g id="edge40" class="edge"><title>scenes/charCreation.js&#45;&gt;scenes/menus.js</title>
<path fill="none" stroke="#757575" d="M1412.67,-437.957C1489.93,-424.059 1619.3,-400.788 1699.64,-386.337"/>
<polygon fill="#757575" stroke="#757575" points="1700.44,-389.748 1709.67,-384.533 1699.21,-382.858 1700.44,-389.748"/>
</g>
<!-- scenes/sceneTextStore.js -->
<g id="node32" class="node"><title>scenes/sceneTextStore.js</title>
<path fill="none" stroke="#c6c5fe" d="M1638.33,-501C1638.33,-501 1471.67,-501 1471.67,-501 1467.83,-501 1464,-497.167 1464,-493.333 1464,-493.333 1464,-485.667 1464,-485.667 1464,-481.833 1467.83,-478 1471.67,-478 1471.67,-478 1638.33,-478 1638.33,-478 1642.17,-478 1646,-481.833 1646,-485.667 1646,-485.667 1646,-493.333 1646,-493.333 1646,-497.167 1642.17,-501 1638.33,-501"/>
<text text-anchor="middle" x="1555" y="-485.8" font-family="Arial" font-size="14.00" fill="#c6c5fe">scenes/sceneTextStore.js</text>
</g>
<!-- scenes/charCreation.js&#45;&gt;scenes/sceneTextStore.js -->
<g id="edge42" class="edge"><title>scenes/charCreation.js&#45;&gt;scenes/sceneTextStore.js</title>
<path fill="none" stroke="#757575" d="M1407.66,-461.016C1431.84,-465.723 1459.98,-471.199 1485.08,-476.085"/>
<polygon fill="#757575" stroke="#757575" points="1484.41,-479.521 1494.9,-477.996 1485.75,-472.65 1484.41,-479.521"/>
</g>
<!-- scenes/menus.js&#45;&gt;actions/coreMsg.js -->
<g id="edge44" class="edge"><title>scenes/menus.js&#45;&gt;actions/coreMsg.js</title>
<path fill="none" stroke="#757575" d="M1834.13,-367.32C1947.1,-355.856 2196.2,-330.376 2406,-307.5 2420.98,-305.866 2436.99,-304.077 2452.33,-302.339"/>
<polygon fill="#757575" stroke="#757575" points="2452.76,-305.813 2462.3,-301.208 2451.97,-298.858 2452.76,-305.813"/>
</g>
<!-- scenes/menus.js&#45;&gt;scenes/sceneSymbols.js -->
<g id="edge45" class="edge"><title>scenes/menus.js&#45;&gt;scenes/sceneSymbols.js</title>
<path fill="none" stroke="#757575" d="M1808.45,-385.082C1932.34,-425.558 2345.88,-560.673 2483.8,-605.732"/>
<polygon fill="#757575" stroke="#757575" points="2483.03,-609.164 2493.63,-608.943 2485.21,-602.51 2483.03,-609.164"/>
</g>
<!-- scenes/menus.js&#45;&gt;store/store.js -->
<g id="edge46" class="edge"><title>scenes/menus.js&#45;&gt;store/store.js</title>
<path fill="none" stroke="#757575" d="M1789.32,-361.928C1819.81,-340.317 1885.56,-293.703 1921.61,-268.146"/>
<polygon fill="#757575" stroke="#757575" points="1923.96,-270.769 1930.09,-262.13 1919.91,-265.059 1923.96,-270.769"/>
</g>
<!-- scenes/sceneTextStore.js&#45;&gt;scenes/sceneSymbols.js -->
<g id="edge53" class="edge"><title>scenes/sceneTextStore.js&#45;&gt;scenes/sceneSymbols.js</title>
<path fill="none" stroke="#757575" d="M1626.59,-501.05C1644.64,-503.908 1664.03,-506.896 1682,-509.5 1953.08,-548.77 2273.89,-589.153 2431.56,-608.602"/>
<polygon fill="#757575" stroke="#757575" points="2431.36,-612.104 2441.71,-609.853 2432.21,-605.156 2431.36,-612.104"/>
</g>
<!-- scenes/sceneTextStore.js&#45;&gt;components/nameInput.js -->
<g id="edge52" class="edge"><title>scenes/sceneTextStore.js&#45;&gt;components/nameInput.js</title>
<path fill="none" stroke="#757575" d="M1646.24,-489.5C1654.58,-489.5 1663.05,-489.5 1671.46,-489.5"/>
<polygon fill="#757575" stroke="#757575" points="1671.68,-493 1681.68,-489.5 1671.68,-486 1671.68,-493"/>
</g>
<!-- setupTests.js -->
<g id="node34" class="node"><title>setupTests.js</title>
<path fill="none" stroke="#cfffac" d="M105.333,-228C105.333,-228 18.6667,-228 18.6667,-228 14.8333,-228 11,-224.167 11,-220.333 11,-220.333 11,-212.667 11,-212.667 11,-208.833 14.8333,-205 18.6667,-205 18.6667,-205 105.333,-205 105.333,-205 109.167,-205 113,-208.833 113,-212.667 113,-212.667 113,-220.333 113,-220.333 113,-224.167 109.167,-228 105.333,-228"/>
<text text-anchor="middle" x="62" y="-212.8" font-family="Arial" font-size="14.00" fill="#cfffac">setupTests.js</text>
</g>
</g>
</svg>
