<?xml version="1.0" encoding="UTF-8" standalone="no"?>
<!DOCTYPE svg PUBLIC "-//W3C//DTD SVG 1.1//EN"
 "http://www.w3.org/Graphics/SVG/1.1/DTD/svg11.dtd">
<!-- Generated by graphviz version 2.38.0 (20140413.2041)
 -->
<!-- Title: G Pages: 1 -->
<svg width="2965pt" height="981pt"
 viewBox="0.00 0.00 2965.20 980.70" xmlns="http://www.w3.org/2000/svg" xmlns:xlink="http://www.w3.org/1999/xlink">
<g id="graph0" class="graph" transform="scale(1 1) rotate(0) translate(21.6 959.1)">
<title>G</title>
<polygon fill="#111111" stroke="none" points="-21.6,21.6 -21.6,-959.1 2943.6,-959.1 2943.6,21.6 -21.6,21.6"/>
<!-- actions/Core.js -->
<g id="node1" class="node"><title>actions/Core.js</title>
<path fill="none" stroke="#c6c5fe" d="M1064.83,-851C1064.83,-851 969.167,-851 969.167,-851 965.333,-851 961.5,-847.167 961.5,-843.333 961.5,-843.333 961.5,-835.667 961.5,-835.667 961.5,-831.833 965.333,-828 969.167,-828 969.167,-828 1064.83,-828 1064.83,-828 1068.67,-828 1072.5,-831.833 1072.5,-835.667 1072.5,-835.667 1072.5,-843.333 1072.5,-843.333 1072.5,-847.167 1068.67,-851 1064.83,-851"/>
<text text-anchor="middle" x="1017" y="-835.8" font-family="Arial" font-size="14.00" fill="#c6c5fe">actions/Core.js</text>
</g>
<!-- scenes/sceneFunctions.js -->
<g id="node2" class="node"><title>scenes/sceneFunctions.js</title>
<path fill="none" stroke="#c6c5fe" d="M1334.33,-851C1334.33,-851 1167.67,-851 1167.67,-851 1163.83,-851 1160,-847.167 1160,-843.333 1160,-843.333 1160,-835.667 1160,-835.667 1160,-831.833 1163.83,-828 1167.67,-828 1167.67,-828 1334.33,-828 1334.33,-828 1338.17,-828 1342,-831.833 1342,-835.667 1342,-835.667 1342,-843.333 1342,-843.333 1342,-847.167 1338.17,-851 1334.33,-851"/>
<text text-anchor="middle" x="1251" y="-835.8" font-family="Arial" font-size="14.00" fill="#c6c5fe">scenes/sceneFunctions.js</text>
</g>
<!-- actions/Core.js&#45;&gt;scenes/sceneFunctions.js -->
<g id="edge1" class="edge"><title>actions/Core.js&#45;&gt;scenes/sceneFunctions.js</title>
<path fill="none" stroke="#757575" d="M1072.69,-839.5C1095.73,-839.5 1123.31,-839.5 1149.77,-839.5"/>
<polygon fill="#757575" stroke="#757575" points="1149.84,-843 1159.84,-839.5 1149.84,-836 1149.84,-843"/>
</g>
<!-- scenes/sceneSymbols.js -->
<g id="node6" class="node"><title>scenes/sceneSymbols.js</title>
<path fill="none" stroke="#cfffac" d="M2914.33,-852C2914.33,-852 2753.67,-852 2753.67,-852 2749.83,-852 2746,-848.167 2746,-844.333 2746,-844.333 2746,-836.667 2746,-836.667 2746,-832.833 2749.83,-829 2753.67,-829 2753.67,-829 2914.33,-829 2914.33,-829 2918.17,-829 2922,-832.833 2922,-836.667 2922,-836.667 2922,-844.333 2922,-844.333 2922,-848.167 2918.17,-852 2914.33,-852"/>
<text text-anchor="middle" x="2834" y="-836.8" font-family="Arial" font-size="14.00" fill="#cfffac">scenes/sceneSymbols.js</text>
</g>
<!-- scenes/sceneFunctions.js&#45;&gt;scenes/sceneSymbols.js -->
<g id="edge56" class="edge"><title>scenes/sceneFunctions.js&#45;&gt;scenes/sceneSymbols.js</title>
<path fill="none" stroke="#757575" d="M1280.49,-851.022C1305.68,-860.663 1343.67,-873.874 1378,-880.5 1502.43,-904.513 1535.77,-899.5 1662.5,-899.5 1662.5,-899.5 1662.5,-899.5 2442.5,-899.5 2562.91,-899.5 2701.88,-871.735 2777.29,-854.299"/>
<polygon fill="#757575" stroke="#757575" points="2778.11,-857.7 2787.05,-852.016 2776.52,-850.884 2778.11,-857.7"/>
</g>
<!-- scenes/menus.js -->
<g id="node37" class="node"><title>scenes/menus.js</title>
<path fill="none" stroke="#c6c5fe" d="M2495.83,-738C2495.83,-738 2387.17,-738 2387.17,-738 2383.33,-738 2379.5,-734.167 2379.5,-730.333 2379.5,-730.333 2379.5,-722.667 2379.5,-722.667 2379.5,-718.833 2383.33,-715 2387.17,-715 2387.17,-715 2495.83,-715 2495.83,-715 2499.67,-715 2503.5,-718.833 2503.5,-722.667 2503.5,-722.667 2503.5,-730.333 2503.5,-730.333 2503.5,-734.167 2499.67,-738 2495.83,-738"/>
<text text-anchor="middle" x="2441.5" y="-722.8" font-family="Arial" font-size="14.00" fill="#c6c5fe">scenes/menus.js</text>
</g>
<!-- scenes/sceneFunctions.js&#45;&gt;scenes/menus.js -->
<g id="edge55" class="edge"><title>scenes/sceneFunctions.js&#45;&gt;scenes/menus.js</title>
<path fill="none" stroke="#757575" d="M1342.08,-832.194C1527.03,-816.977 1962.91,-780.001 2328,-740.5 2341.25,-739.066 2355.37,-737.411 2368.96,-735.752"/>
<polygon fill="#757575" stroke="#757575" points="2369.74,-739.183 2379.23,-734.486 2368.88,-732.235 2369.74,-739.183"/>
</g>
<!-- scenes/charCreation.js -->
<g id="node39" class="node"><title>scenes/charCreation.js</title>
<path fill="none" stroke="#c6c5fe" d="M1531.33,-738C1531.33,-738 1385.67,-738 1385.67,-738 1381.83,-738 1378,-734.167 1378,-730.333 1378,-730.333 1378,-722.667 1378,-722.667 1378,-718.833 1381.83,-715 1385.67,-715 1385.67,-715 1531.33,-715 1531.33,-715 1535.17,-715 1539,-718.833 1539,-722.667 1539,-722.667 1539,-730.333 1539,-730.333 1539,-734.167 1535.17,-738 1531.33,-738"/>
<text text-anchor="middle" x="1458.5" y="-722.8" font-family="Arial" font-size="14.00" fill="#c6c5fe">scenes/charCreation.js</text>
</g>
<!-- scenes/sceneFunctions.js&#45;&gt;scenes/charCreation.js -->
<g id="edge54" class="edge"><title>scenes/sceneFunctions.js&#45;&gt;scenes/charCreation.js</title>
<path fill="none" stroke="#757575" d="M1273.22,-827.833C1309.92,-807.649 1385.37,-766.163 1427.45,-743.022"/>
<polygon fill="#757575" stroke="#757575" points="1429.32,-745.989 1436.4,-738.104 1425.95,-739.855 1429.32,-745.989"/>
</g>
<!-- scenes/tests/testing.js -->
<g id="node41" class="node"><title>scenes/tests/testing.js</title>
<path fill="none" stroke="#cfffac" d="M1529.83,-871C1529.83,-871 1387.17,-871 1387.17,-871 1383.33,-871 1379.5,-867.167 1379.5,-863.333 1379.5,-863.333 1379.5,-855.667 1379.5,-855.667 1379.5,-851.833 1383.33,-848 1387.17,-848 1387.17,-848 1529.83,-848 1529.83,-848 1533.67,-848 1537.5,-851.833 1537.5,-855.667 1537.5,-855.667 1537.5,-863.333 1537.5,-863.333 1537.5,-867.167 1533.67,-871 1529.83,-871"/>
<text text-anchor="middle" x="1458.5" y="-855.8" font-family="Arial" font-size="14.00" fill="#cfffac">scenes/tests/testing.js</text>
</g>
<!-- scenes/sceneFunctions.js&#45;&gt;scenes/tests/testing.js -->
<g id="edge57" class="edge"><title>scenes/sceneFunctions.js&#45;&gt;scenes/tests/testing.js</title>
<path fill="none" stroke="#757575" d="M1342.14,-848.272C1351.15,-849.149 1360.29,-850.039 1369.28,-850.914"/>
<polygon fill="#757575" stroke="#757575" points="1369.06,-854.409 1379.35,-851.894 1369.74,-847.442 1369.06,-854.409"/>
</g>
<!-- actions/Player.js -->
<g id="node3" class="node"><title>actions/Player.js</title>
<path fill="none" stroke="#cfffac" d="M2493.33,-326C2493.33,-326 2389.67,-326 2389.67,-326 2385.83,-326 2382,-322.167 2382,-318.333 2382,-318.333 2382,-310.667 2382,-310.667 2382,-306.833 2385.83,-303 2389.67,-303 2389.67,-303 2493.33,-303 2493.33,-303 2497.17,-303 2501,-306.833 2501,-310.667 2501,-310.667 2501,-318.333 2501,-318.333 2501,-322.167 2497.17,-326 2493.33,-326"/>
<text text-anchor="middle" x="2441.5" y="-310.8" font-family="Arial" font-size="14.00" fill="#cfffac">actions/Player.js</text>
</g>
<!-- actions/UI.js -->
<g id="node4" class="node"><title>actions/UI.js</title>
<path fill="none" stroke="#cfffac" d="M2671.83,-524C2671.83,-524 2593.17,-524 2593.17,-524 2589.33,-524 2585.5,-520.167 2585.5,-516.333 2585.5,-516.333 2585.5,-508.667 2585.5,-508.667 2585.5,-504.833 2589.33,-501 2593.17,-501 2593.17,-501 2671.83,-501 2671.83,-501 2675.67,-501 2679.5,-504.833 2679.5,-508.667 2679.5,-508.667 2679.5,-516.333 2679.5,-516.333 2679.5,-520.167 2675.67,-524 2671.83,-524"/>
<text text-anchor="middle" x="2632.5" y="-508.8" font-family="Arial" font-size="14.00" fill="#cfffac">actions/UI.js</text>
</g>
<!-- actions/tests/Core.test.js -->
<g id="node5" class="node"><title>actions/tests/Core.test.js</title>
<path fill="none" stroke="#c6c5fe" d="M854.333,-900C854.333,-900 696.667,-900 696.667,-900 692.833,-900 689,-896.167 689,-892.333 689,-892.333 689,-884.667 689,-884.667 689,-880.833 692.833,-877 696.667,-877 696.667,-877 854.333,-877 854.333,-877 858.167,-877 862,-880.833 862,-884.667 862,-884.667 862,-892.333 862,-892.333 862,-896.167 858.167,-900 854.333,-900"/>
<text text-anchor="middle" x="775.5" y="-884.8" font-family="Arial" font-size="14.00" fill="#c6c5fe">actions/tests/Core.test.js</text>
</g>
<!-- actions/tests/Core.test.js&#45;&gt;actions/Core.js -->
<g id="edge2" class="edge"><title>actions/tests/Core.test.js&#45;&gt;actions/Core.js</title>
<path fill="none" stroke="#757575" d="M832.955,-876.95C868.35,-869.708 914.097,-860.349 951.003,-852.798"/>
<polygon fill="#757575" stroke="#757575" points="952.066,-856.153 961.162,-850.72 950.663,-849.295 952.066,-856.153"/>
</g>
<!-- actions/tests/Core.test.js&#45;&gt;scenes/sceneSymbols.js -->
<g id="edge3" class="edge"><title>actions/tests/Core.test.js&#45;&gt;scenes/sceneSymbols.js</title>
<path fill="none" stroke="#757575" d="M844.882,-900.05C936.731,-914.537 1105.17,-937.5 1250,-937.5 1250,-937.5 1250,-937.5 2442.5,-937.5 2562.92,-937.5 2594.49,-928.533 2710,-894.5 2742.39,-884.957 2777.48,-868.936 2801.86,-856.817"/>
<polygon fill="#757575" stroke="#757575" points="2803.62,-859.85 2810.98,-852.221 2800.47,-853.6 2803.62,-859.85"/>
</g>
<!-- actions/tests/UI.test.js -->
<g id="node7" class="node"><title>actions/tests/UI.test.js</title>
<path fill="none" stroke="#c6c5fe" d="M2511.33,-107C2511.33,-107 2371.67,-107 2371.67,-107 2367.83,-107 2364,-103.167 2364,-99.3333 2364,-99.3333 2364,-91.6667 2364,-91.6667 2364,-87.8333 2367.83,-84 2371.67,-84 2371.67,-84 2511.33,-84 2511.33,-84 2515.17,-84 2519,-87.8333 2519,-91.6667 2519,-91.6667 2519,-99.3333 2519,-99.3333 2519,-103.167 2515.17,-107 2511.33,-107"/>
<text text-anchor="middle" x="2441.5" y="-91.8" font-family="Arial" font-size="14.00" fill="#c6c5fe">actions/tests/UI.test.js</text>
</g>
<!-- actions/tests/UI.test.js&#45;&gt;actions/UI.js -->
<g id="edge4" class="edge"><title>actions/tests/UI.test.js&#45;&gt;actions/UI.js</title>
<path fill="none" stroke="#757575" d="M2498.15,-107.174C2505.9,-110.745 2513.19,-115.409 2519,-121.5 2621.78,-229.278 2631.57,-424.745 2631.83,-490.353"/>
<polygon fill="#757575" stroke="#757575" points="2628.33,-490.706 2631.79,-500.719 2635.33,-490.732 2628.33,-490.706"/>
</g>
<!-- components/appRoot.js -->
<g id="node8" class="node"><title>components/appRoot.js</title>
<path fill="none" stroke="#c6c5fe" d="M323.833,-228C323.833,-228 171.167,-228 171.167,-228 167.333,-228 163.5,-224.167 163.5,-220.333 163.5,-220.333 163.5,-212.667 163.5,-212.667 163.5,-208.833 167.333,-205 171.167,-205 171.167,-205 323.833,-205 323.833,-205 327.667,-205 331.5,-208.833 331.5,-212.667 331.5,-212.667 331.5,-220.333 331.5,-220.333 331.5,-224.167 327.667,-228 323.833,-228"/>
<text text-anchor="middle" x="247.5" y="-212.8" font-family="Arial" font-size="14.00" fill="#c6c5fe">components/appRoot.js</text>
</g>
<!-- components/lowerButtons.js -->
<g id="node9" class="node"><title>components/lowerButtons.js</title>
<path fill="none" stroke="#c6c5fe" d="M606.833,-228C606.833,-228 427.167,-228 427.167,-228 423.333,-228 419.5,-224.167 419.5,-220.333 419.5,-220.333 419.5,-212.667 419.5,-212.667 419.5,-208.833 423.333,-205 427.167,-205 427.167,-205 606.833,-205 606.833,-205 610.667,-205 614.5,-208.833 614.5,-212.667 614.5,-212.667 614.5,-220.333 614.5,-220.333 614.5,-224.167 610.667,-228 606.833,-228"/>
<text text-anchor="middle" x="517" y="-212.8" font-family="Arial" font-size="14.00" fill="#c6c5fe">components/lowerButtons.js</text>
</g>
<!-- components/appRoot.js&#45;&gt;components/lowerButtons.js -->
<g id="edge5" class="edge"><title>components/appRoot.js&#45;&gt;components/lowerButtons.js</title>
<path fill="none" stroke="#757575" d="M331.672,-216.5C356.179,-216.5 383.343,-216.5 409.118,-216.5"/>
<polygon fill="#757575" stroke="#757575" points="409.299,-220 419.299,-216.5 409.299,-213 409.299,-220"/>
</g>
<!-- components/menuBar.js -->
<g id="node10" class="node"><title>components/menuBar.js</title>
<path fill="none" stroke="#c6c5fe" d="M594.333,-187C594.333,-187 439.667,-187 439.667,-187 435.833,-187 432,-183.167 432,-179.333 432,-179.333 432,-171.667 432,-171.667 432,-167.833 435.833,-164 439.667,-164 439.667,-164 594.333,-164 594.333,-164 598.167,-164 602,-167.833 602,-171.667 602,-171.667 602,-179.333 602,-179.333 602,-183.167 598.167,-187 594.333,-187"/>
<text text-anchor="middle" x="517" y="-171.8" font-family="Arial" font-size="14.00" fill="#c6c5fe">components/menuBar.js</text>
</g>
<!-- components/appRoot.js&#45;&gt;components/menuBar.js -->
<g id="edge6" class="edge"><title>components/appRoot.js&#45;&gt;components/menuBar.js</title>
<path fill="none" stroke="#757575" d="M323.726,-204.97C357.059,-199.861 396.433,-193.826 430.842,-188.552"/>
<polygon fill="#757575" stroke="#757575" points="431.522,-191.989 440.876,-187.014 430.461,-185.07 431.522,-191.989"/>
</g>
<!-- components/output.js -->
<g id="node11" class="node"><title>components/output.js</title>
<path fill="none" stroke="#cfffac" d="M585.333,-269C585.333,-269 448.667,-269 448.667,-269 444.833,-269 441,-265.167 441,-261.333 441,-261.333 441,-253.667 441,-253.667 441,-249.833 444.833,-246 448.667,-246 448.667,-246 585.333,-246 585.333,-246 589.167,-246 593,-249.833 593,-253.667 593,-253.667 593,-261.333 593,-261.333 593,-265.167 589.167,-269 585.333,-269"/>
<text text-anchor="middle" x="517" y="-253.8" font-family="Arial" font-size="14.00" fill="#cfffac">components/output.js</text>
</g>
<!-- components/appRoot.js&#45;&gt;components/output.js -->
<g id="edge7" class="edge"><title>components/appRoot.js&#45;&gt;components/output.js</title>
<path fill="none" stroke="#757575" d="M323.726,-228.03C357.059,-233.139 396.433,-239.174 430.842,-244.448"/>
<polygon fill="#757575" stroke="#757575" points="430.461,-247.93 440.876,-245.986 431.522,-241.011 430.461,-247.93"/>
</g>
<!-- components/statBar.js -->
<g id="node12" class="node"><title>components/statBar.js</title>
<path fill="none" stroke="#c6c5fe" d="M588.333,-105C588.333,-105 445.667,-105 445.667,-105 441.833,-105 438,-101.167 438,-97.3333 438,-97.3333 438,-89.6667 438,-89.6667 438,-85.8333 441.833,-82 445.667,-82 445.667,-82 588.333,-82 588.333,-82 592.167,-82 596,-85.8333 596,-89.6667 596,-89.6667 596,-97.3333 596,-97.3333 596,-101.167 592.167,-105 588.333,-105"/>
<text text-anchor="middle" x="517" y="-89.8" font-family="Arial" font-size="14.00" fill="#c6c5fe">components/statBar.js</text>
</g>
<!-- components/appRoot.js&#45;&gt;components/statBar.js -->
<g id="edge8" class="edge"><title>components/appRoot.js&#45;&gt;components/statBar.js</title>
<path fill="none" stroke="#757575" d="M260.456,-204.966C283.805,-183.175 338.011,-136.118 393,-113.5 403.942,-108.999 415.822,-105.509 427.74,-102.802"/>
<polygon fill="#757575" stroke="#757575" points="428.67,-106.184 437.741,-100.708 427.236,-99.3322 428.67,-106.184"/>
</g>
<!-- components/buttonGrid.js -->
<g id="node14" class="node"><title>components/buttonGrid.js</title>
<path fill="none" stroke="#c6c5fe" d="M857.333,-228C857.333,-228 693.667,-228 693.667,-228 689.833,-228 686,-224.167 686,-220.333 686,-220.333 686,-212.667 686,-212.667 686,-208.833 689.833,-205 693.667,-205 693.667,-205 857.333,-205 857.333,-205 861.167,-205 865,-208.833 865,-212.667 865,-212.667 865,-220.333 865,-220.333 865,-224.167 861.167,-228 857.333,-228"/>
<text text-anchor="middle" x="775.5" y="-212.8" font-family="Arial" font-size="14.00" fill="#c6c5fe">components/buttonGrid.js</text>
</g>
<!-- components/lowerButtons.js&#45;&gt;components/buttonGrid.js -->
<g id="edge14" class="edge"><title>components/lowerButtons.js&#45;&gt;components/buttonGrid.js</title>
<path fill="none" stroke="#757575" d="M614.606,-216.5C634.53,-216.5 655.541,-216.5 675.546,-216.5"/>
<polygon fill="#757575" stroke="#757575" points="675.59,-220 685.59,-216.5 675.59,-213 675.59,-220"/>
</g>
<!-- components/menuBar.js&#45;&gt;components/buttonGrid.js -->
<g id="edge15" class="edge"><title>components/menuBar.js&#45;&gt;components/buttonGrid.js</title>
<path fill="none" stroke="#757575" d="M590.132,-187.03C621.958,-192.117 659.526,-198.122 692.419,-203.38"/>
<polygon fill="#757575" stroke="#757575" points="692.038,-206.863 702.465,-204.986 693.143,-199.951 692.038,-206.863"/>
</g>
<!-- components/spriteDisplay.js -->
<g id="node16" class="node"><title>components/spriteDisplay.js</title>
<path fill="none" stroke="#cfffac" d="M865.333,-105C865.333,-105 685.667,-105 685.667,-105 681.833,-105 678,-101.167 678,-97.3333 678,-97.3333 678,-89.6667 678,-89.6667 678,-85.8333 681.833,-82 685.667,-82 685.667,-82 865.333,-82 865.333,-82 869.167,-82 873,-85.8333 873,-89.6667 873,-89.6667 873,-97.3333 873,-97.3333 873,-101.167 869.167,-105 865.333,-105"/>
<text text-anchor="middle" x="775.5" y="-89.8" font-family="Arial" font-size="14.00" fill="#cfffac">components/spriteDisplay.js</text>
</g>
<!-- components/statBar.js&#45;&gt;components/spriteDisplay.js -->
<g id="edge16" class="edge"><title>components/statBar.js&#45;&gt;components/spriteDisplay.js</title>
<path fill="none" stroke="#757575" d="M596.003,-93.5C618.572,-93.5 643.607,-93.5 667.615,-93.5"/>
<polygon fill="#757575" stroke="#757575" points="667.83,-97.0001 677.83,-93.5 667.83,-90.0001 667.83,-97.0001"/>
</g>
<!-- components/statDisplay.js -->
<g id="node18" class="node"><title>components/statDisplay.js</title>
<path fill="none" stroke="#c6c5fe" d="M858.833,-146C858.833,-146 692.167,-146 692.167,-146 688.333,-146 684.5,-142.167 684.5,-138.333 684.5,-138.333 684.5,-130.667 684.5,-130.667 684.5,-126.833 688.333,-123 692.167,-123 692.167,-123 858.833,-123 858.833,-123 862.667,-123 866.5,-126.833 866.5,-130.667 866.5,-130.667 866.5,-138.333 866.5,-138.333 866.5,-142.167 862.667,-146 858.833,-146"/>
<text text-anchor="middle" x="775.5" y="-130.8" font-family="Arial" font-size="14.00" fill="#c6c5fe">components/statDisplay.js</text>
</g>
<!-- components/statBar.js&#45;&gt;components/statDisplay.js -->
<g id="edge17" class="edge"><title>components/statBar.js&#45;&gt;components/statDisplay.js</title>
<path fill="none" stroke="#757575" d="M590.132,-105.03C621.958,-110.117 659.526,-116.122 692.419,-121.38"/>
<polygon fill="#757575" stroke="#757575" points="692.038,-124.863 702.465,-122.986 693.143,-117.951 692.038,-124.863"/>
</g>
<!-- components/timeDisplay.js -->
<g id="node19" class="node"><title>components/timeDisplay.js</title>
<path fill="none" stroke="#cfffac" d="M861.333,-64C861.333,-64 689.667,-64 689.667,-64 685.833,-64 682,-60.1667 682,-56.3333 682,-56.3333 682,-48.6667 682,-48.6667 682,-44.8333 685.833,-41 689.667,-41 689.667,-41 861.333,-41 861.333,-41 865.167,-41 869,-44.8333 869,-48.6667 869,-48.6667 869,-56.3333 869,-56.3333 869,-60.1667 865.167,-64 861.333,-64"/>
<text text-anchor="middle" x="775.5" y="-48.8" font-family="Arial" font-size="14.00" fill="#cfffac">components/timeDisplay.js</text>
</g>
<!-- components/statBar.js&#45;&gt;components/timeDisplay.js -->
<g id="edge18" class="edge"><title>components/statBar.js&#45;&gt;components/timeDisplay.js</title>
<path fill="none" stroke="#757575" d="M590.132,-81.9701C621.958,-76.883 659.526,-70.8779 692.419,-65.6202"/>
<polygon fill="#757575" stroke="#757575" points="693.143,-69.0489 702.465,-64.0143 692.038,-62.1367 693.143,-69.0489"/>
</g>
<!-- components/button.js -->
<g id="node13" class="node"><title>components/button.js</title>
<path fill="none" stroke="#cfffac" d="M1319.33,-207C1319.33,-207 1182.67,-207 1182.67,-207 1178.83,-207 1175,-203.167 1175,-199.333 1175,-199.333 1175,-191.667 1175,-191.667 1175,-187.833 1178.83,-184 1182.67,-184 1182.67,-184 1319.33,-184 1319.33,-184 1323.17,-184 1327,-187.833 1327,-191.667 1327,-191.667 1327,-199.333 1327,-199.333 1327,-203.167 1323.17,-207 1319.33,-207"/>
<text text-anchor="middle" x="1251" y="-191.8" font-family="Arial" font-size="14.00" fill="#cfffac">components/button.js</text>
</g>
<!-- components/buttonGrid.js&#45;&gt;actions/Core.js -->
<g id="edge9" class="edge"><title>components/buttonGrid.js&#45;&gt;actions/Core.js</title>
<path fill="none" stroke="#757575" d="M780.965,-228.116C809.819,-303.171 969.916,-719.625 1007.91,-818.458"/>
<polygon fill="#757575" stroke="#757575" points="1004.71,-819.886 1011.57,-827.965 1011.24,-817.375 1004.71,-819.886"/>
</g>
<!-- components/buttonGrid.js&#45;&gt;actions/Player.js -->
<g id="edge10" class="edge"><title>components/buttonGrid.js&#45;&gt;actions/Player.js</title>
<path fill="none" stroke="#757575" d="M845.294,-228.015C866.04,-231.161 888.905,-234.304 910,-236.5 1060.56,-252.174 1098.63,-256.5 1250,-256.5 1250,-256.5 1250,-256.5 1930.5,-256.5 2107.74,-256.5 2152.85,-261.361 2328,-288.5 2347.56,-291.531 2368.77,-296.093 2387.45,-300.553"/>
<polygon fill="#757575" stroke="#757575" points="2386.7,-303.974 2397.25,-302.938 2388.36,-297.172 2386.7,-303.974"/>
</g>
<!-- components/buttonGrid.js&#45;&gt;actions/UI.js -->
<g id="edge11" class="edge"><title>components/buttonGrid.js&#45;&gt;actions/UI.js</title>
<path fill="none" stroke="#757575" d="M795.54,-204.815C820.694,-190.06 866.866,-165.298 910,-154.5 1056.82,-117.745 1098.65,-135.5 1250,-135.5 1250,-135.5 1250,-135.5 2218.5,-135.5 2369.39,-135.5 2412.81,-186.297 2519,-293.5 2577.65,-352.711 2612.22,-448.765 2625.37,-491.194"/>
<polygon fill="#757575" stroke="#757575" points="2622.02,-492.204 2628.25,-500.771 2628.72,-490.186 2622.02,-492.204"/>
</g>
<!-- components/buttonWrap.js -->
<g id="node15" class="node"><title>components/buttonWrap.js</title>
<path fill="none" stroke="#c6c5fe" d="M1102.83,-228C1102.83,-228 931.167,-228 931.167,-228 927.333,-228 923.5,-224.167 923.5,-220.333 923.5,-220.333 923.5,-212.667 923.5,-212.667 923.5,-208.833 927.333,-205 931.167,-205 931.167,-205 1102.83,-205 1102.83,-205 1106.67,-205 1110.5,-208.833 1110.5,-212.667 1110.5,-212.667 1110.5,-220.333 1110.5,-220.333 1110.5,-224.167 1106.67,-228 1102.83,-228"/>
<text text-anchor="middle" x="1017" y="-212.8" font-family="Arial" font-size="14.00" fill="#c6c5fe">components/buttonWrap.js</text>
</g>
<!-- components/buttonGrid.js&#45;&gt;components/buttonWrap.js -->
<g id="edge12" class="edge"><title>components/buttonGrid.js&#45;&gt;components/buttonWrap.js</title>
<path fill="none" stroke="#757575" d="M865.001,-216.5C880.631,-216.5 897.026,-216.5 913.014,-216.5"/>
<polygon fill="#757575" stroke="#757575" points="913.45,-220 923.45,-216.5 913.45,-213 913.45,-220"/>
</g>
<!-- components/buttonWrap.js&#45;&gt;components/button.js -->
<g id="edge13" class="edge"><title>components/buttonWrap.js&#45;&gt;components/button.js</title>
<path fill="none" stroke="#757575" d="M1110.69,-208.11C1128.52,-206.496 1147.12,-204.812 1164.7,-203.221"/>
<polygon fill="#757575" stroke="#757575" points="1165.28,-206.683 1174.92,-202.296 1164.65,-199.711 1165.28,-206.683"/>
</g>
<!-- components/stat.js -->
<g id="node17" class="node"><title>components/stat.js</title>
<path fill="none" stroke="#cfffac" d="M1077.33,-65C1077.33,-65 956.667,-65 956.667,-65 952.833,-65 949,-61.1667 949,-57.3333 949,-57.3333 949,-49.6667 949,-49.6667 949,-45.8333 952.833,-42 956.667,-42 956.667,-42 1077.33,-42 1077.33,-42 1081.17,-42 1085,-45.8333 1085,-49.6667 1085,-49.6667 1085,-57.3333 1085,-57.3333 1085,-61.1667 1081.17,-65 1077.33,-65"/>
<text text-anchor="middle" x="1017" y="-49.8" font-family="Arial" font-size="14.00" fill="#cfffac">components/stat.js</text>
</g>
<!-- components/statDisplay.js&#45;&gt;components/stat.js -->
<g id="edge19" class="edge"><title>components/statDisplay.js&#45;&gt;components/stat.js</title>
<path fill="none" stroke="#757575" d="M838.592,-122.956C850.452,-120.237 862.69,-117.073 874,-113.5 912.52,-101.332 954.98,-82.6552 983.344,-69.3742"/>
<polygon fill="#757575" stroke="#757575" points="984.852,-72.5328 992.396,-65.0943 981.86,-66.2044 984.852,-72.5328"/>
</g>
<!-- components/tests/button.test.js -->
<g id="node20" class="node"><title>components/tests/button.test.js</title>
<path fill="none" stroke="#c6c5fe" d="M1116.33,-187C1116.33,-187 917.667,-187 917.667,-187 913.833,-187 910,-183.167 910,-179.333 910,-179.333 910,-171.667 910,-171.667 910,-167.833 913.833,-164 917.667,-164 917.667,-164 1116.33,-164 1116.33,-164 1120.17,-164 1124,-167.833 1124,-171.667 1124,-171.667 1124,-179.333 1124,-179.333 1124,-183.167 1120.17,-187 1116.33,-187"/>
<text text-anchor="middle" x="1017" y="-171.8" font-family="Arial" font-size="14.00" fill="#c6c5fe">components/tests/button.test.js</text>
</g>
<!-- components/tests/button.test.js&#45;&gt;components/button.js -->
<g id="edge20" class="edge"><title>components/tests/button.test.js&#45;&gt;components/button.js</title>
<path fill="none" stroke="#757575" d="M1124.16,-184.651C1137.75,-185.823 1151.53,-187.011 1164.73,-188.15"/>
<polygon fill="#757575" stroke="#757575" points="1164.44,-191.637 1174.71,-189.009 1165.05,-184.663 1164.44,-191.637"/>
</g>
<!-- components/tests/output.test.js -->
<g id="node21" class="node"><title>components/tests/output.test.js</title>
<path fill="none" stroke="#c6c5fe" d="M346.833,-269C346.833,-269 148.167,-269 148.167,-269 144.333,-269 140.5,-265.167 140.5,-261.333 140.5,-261.333 140.5,-253.667 140.5,-253.667 140.5,-249.833 144.333,-246 148.167,-246 148.167,-246 346.833,-246 346.833,-246 350.667,-246 354.5,-249.833 354.5,-253.667 354.5,-253.667 354.5,-261.333 354.5,-261.333 354.5,-265.167 350.667,-269 346.833,-269"/>
<text text-anchor="middle" x="247.5" y="-253.8" font-family="Arial" font-size="14.00" fill="#c6c5fe">components/tests/output.test.js</text>
</g>
<!-- components/tests/output.test.js&#45;&gt;components/output.js -->
<g id="edge21" class="edge"><title>components/tests/output.test.js&#45;&gt;components/output.js</title>
<path fill="none" stroke="#757575" d="M354.607,-257.5C379.879,-257.5 406.527,-257.5 430.727,-257.5"/>
<polygon fill="#757575" stroke="#757575" points="430.937,-261 440.937,-257.5 430.937,-254 430.937,-261"/>
</g>
<!-- components/tests/stat.test.js -->
<g id="node22" class="node"><title>components/tests/stat.test.js</title>
<path fill="none" stroke="#c6c5fe" d="M866.333,-23C866.333,-23 684.667,-23 684.667,-23 680.833,-23 677,-19.1667 677,-15.3333 677,-15.3333 677,-7.66667 677,-7.66667 677,-3.83333 680.833,-0 684.667,-0 684.667,-0 866.333,-0 866.333,-0 870.167,-0 874,-3.83333 874,-7.66667 874,-7.66667 874,-15.3333 874,-15.3333 874,-19.1667 870.167,-23 866.333,-23"/>
<text text-anchor="middle" x="775.5" y="-7.8" font-family="Arial" font-size="14.00" fill="#c6c5fe">components/tests/stat.test.js</text>
</g>
<!-- components/tests/stat.test.js&#45;&gt;components/stat.js -->
<g id="edge22" class="edge"><title>components/tests/stat.test.js&#45;&gt;components/stat.js</title>
<path fill="none" stroke="#757575" d="M842.261,-23.0322C872.626,-28.3571 908.847,-34.7091 940.34,-40.2319"/>
<polygon fill="#757575" stroke="#757575" points="939.931,-43.7135 950.385,-41.9935 941.14,-36.8187 939.931,-43.7135"/>
</g>
<!-- components/tests/statBar.test.js -->
<g id="node23" class="node"><title>components/tests/statBar.test.js</title>
<path fill="none" stroke="#c6c5fe" d="M349.333,-105C349.333,-105 145.667,-105 145.667,-105 141.833,-105 138,-101.167 138,-97.3333 138,-97.3333 138,-89.6667 138,-89.6667 138,-85.8333 141.833,-82 145.667,-82 145.667,-82 349.333,-82 349.333,-82 353.167,-82 357,-85.8333 357,-89.6667 357,-89.6667 357,-97.3333 357,-97.3333 357,-101.167 353.167,-105 349.333,-105"/>
<text text-anchor="middle" x="247.5" y="-89.8" font-family="Arial" font-size="14.00" fill="#c6c5fe">components/tests/statBar.test.js</text>
</g>
<!-- components/tests/statBar.test.js&#45;&gt;components/statBar.js -->
<g id="edge23" class="edge"><title>components/tests/statBar.test.js&#45;&gt;components/statBar.js</title>
<path fill="none" stroke="#757575" d="M357.302,-93.5C380.633,-93.5 405.014,-93.5 427.468,-93.5"/>
<polygon fill="#757575" stroke="#757575" points="427.639,-97.0001 437.639,-93.5 427.639,-90.0001 427.639,-97.0001"/>
</g>
<!-- components/tests/statDisplay.test.js -->
<g id="node24" class="node"><title>components/tests/statDisplay.test.js</title>
<path fill="none" stroke="#c6c5fe" d="M631.333,-146C631.333,-146 402.667,-146 402.667,-146 398.833,-146 395,-142.167 395,-138.333 395,-138.333 395,-130.667 395,-130.667 395,-126.833 398.833,-123 402.667,-123 402.667,-123 631.333,-123 631.333,-123 635.167,-123 639,-126.833 639,-130.667 639,-130.667 639,-138.333 639,-138.333 639,-142.167 635.167,-146 631.333,-146"/>
<text text-anchor="middle" x="517" y="-130.8" font-family="Arial" font-size="14.00" fill="#c6c5fe">components/tests/statDisplay.test.js</text>
</g>
<!-- components/tests/statDisplay.test.js&#45;&gt;components/statDisplay.js -->
<g id="edge24" class="edge"><title>components/tests/statDisplay.test.js&#45;&gt;components/statDisplay.js</title>
<path fill="none" stroke="#757575" d="M639.114,-134.5C650.852,-134.5 662.67,-134.5 674.173,-134.5"/>
<polygon fill="#757575" stroke="#757575" points="674.191,-138 684.191,-134.5 674.191,-131 674.191,-138"/>
</g>
<!-- components/tests/timeDisplay.test.js -->
<g id="node25" class="node"><title>components/tests/timeDisplay.test.js</title>
<path fill="none" stroke="#c6c5fe" d="M633.333,-64C633.333,-64 400.667,-64 400.667,-64 396.833,-64 393,-60.1667 393,-56.3333 393,-56.3333 393,-48.6667 393,-48.6667 393,-44.8333 396.833,-41 400.667,-41 400.667,-41 633.333,-41 633.333,-41 637.167,-41 641,-44.8333 641,-48.6667 641,-48.6667 641,-56.3333 641,-56.3333 641,-60.1667 637.167,-64 633.333,-64"/>
<text text-anchor="middle" x="517" y="-48.8" font-family="Arial" font-size="14.00" fill="#c6c5fe">components/tests/timeDisplay.test.js</text>
</g>
<!-- components/tests/timeDisplay.test.js&#45;&gt;components/timeDisplay.js -->
<g id="edge25" class="edge"><title>components/tests/timeDisplay.test.js&#45;&gt;components/timeDisplay.js</title>
<path fill="none" stroke="#757575" d="M641.367,-52.5C651.463,-52.5 661.601,-52.5 671.528,-52.5"/>
<polygon fill="#757575" stroke="#757575" points="671.786,-56.0001 681.786,-52.5 671.786,-49.0001 671.786,-56.0001"/>
</g>
<!-- index.js -->
<g id="node26" class="node"><title>index.js</title>
<path fill="none" stroke="#c6c5fe" d="M75.8333,-268C75.8333,-268 26.1667,-268 26.1667,-268 22.3333,-268 18.5,-264.167 18.5,-260.333 18.5,-260.333 18.5,-252.667 18.5,-252.667 18.5,-248.833 22.3333,-245 26.1667,-245 26.1667,-245 75.8333,-245 75.8333,-245 79.6667,-245 83.5,-248.833 83.5,-252.667 83.5,-252.667 83.5,-260.333 83.5,-260.333 83.5,-264.167 79.6667,-268 75.8333,-268"/>
<text text-anchor="middle" x="51" y="-252.8" font-family="Arial" font-size="14.00" fill="#c6c5fe">index.js</text>
</g>
<!-- index.js&#45;&gt;components/appRoot.js -->
<g id="edge26" class="edge"><title>index.js&#45;&gt;components/appRoot.js</title>
<path fill="none" stroke="#757575" d="M83.7789,-248.74C99.9699,-244.881 119.992,-240.252 138,-236.5 148.696,-234.272 160.012,-232.044 171.14,-229.926"/>
<polygon fill="#757575" stroke="#757575" points="172.105,-233.306 181.285,-228.016 170.81,-226.427 172.105,-233.306"/>
</g>
<!-- store/store.js -->
<g id="node27" class="node"><title>store/store.js</title>
<path fill="none" stroke="#c6c5fe" d="M1705.33,-309C1705.33,-309 1621.67,-309 1621.67,-309 1617.83,-309 1614,-305.167 1614,-301.333 1614,-301.333 1614,-293.667 1614,-293.667 1614,-289.833 1617.83,-286 1621.67,-286 1621.67,-286 1705.33,-286 1705.33,-286 1709.17,-286 1713,-289.833 1713,-293.667 1713,-293.667 1713,-301.333 1713,-301.333 1713,-305.167 1709.17,-309 1705.33,-309"/>
<text text-anchor="middle" x="1663.5" y="-293.8" font-family="Arial" font-size="14.00" fill="#c6c5fe">store/store.js</text>
</g>
<!-- index.js&#45;&gt;store/store.js -->
<g id="edge27" class="edge"><title>index.js&#45;&gt;store/store.js</title>
<path fill="none" stroke="#757575" d="M83.5772,-265.709C99.7167,-270.031 119.754,-274.814 138,-277.5 304.441,-302.005 347.765,-297.5 516,-297.5 516,-297.5 516,-297.5 1252,-297.5 1377.16,-297.5 1523.78,-297.5 1603.52,-297.5"/>
<polygon fill="#757575" stroke="#757575" points="1603.84,-301 1613.84,-297.5 1603.84,-294 1603.84,-301"/>
</g>
<!-- reducers/root.js -->
<g id="node28" class="node"><title>reducers/root.js</title>
<path fill="none" stroke="#c6c5fe" d="M1979.83,-461C1979.83,-461 1879.17,-461 1879.17,-461 1875.33,-461 1871.5,-457.167 1871.5,-453.333 1871.5,-453.333 1871.5,-445.667 1871.5,-445.667 1871.5,-441.833 1875.33,-438 1879.17,-438 1879.17,-438 1979.83,-438 1979.83,-438 1983.67,-438 1987.5,-441.833 1987.5,-445.667 1987.5,-445.667 1987.5,-453.333 1987.5,-453.333 1987.5,-457.167 1983.67,-461 1979.83,-461"/>
<text text-anchor="middle" x="1929.5" y="-445.8" font-family="Arial" font-size="14.00" fill="#c6c5fe">reducers/root.js</text>
</g>
<!-- store/store.js&#45;&gt;reducers/root.js -->
<g id="edge60" class="edge"><title>store/store.js&#45;&gt;reducers/root.js</title>
<path fill="none" stroke="#757575" d="M1684.78,-309.175C1731.35,-335.987 1846.06,-402.032 1899.82,-432.988"/>
<polygon fill="#757575" stroke="#757575" points="1898.1,-436.037 1908.52,-437.993 1901.6,-429.971 1898.1,-436.037"/>
</g>
<!-- reducers/root.js&#45;&gt;actions/Player.js -->
<g id="edge28" class="edge"><title>reducers/root.js&#45;&gt;actions/Player.js</title>
<path fill="none" stroke="#757575" d="M1967.1,-437.939C2002.63,-426.952 2058.19,-410.388 2107,-398.5 2204.31,-374.8 2231.45,-381.123 2328,-354.5 2353.13,-347.571 2380.71,-337.798 2402.28,-329.647"/>
<polygon fill="#757575" stroke="#757575" points="2403.64,-332.873 2411.73,-326.032 2401.14,-326.335 2403.64,-332.873"/>
</g>
<!-- reducers/root.js&#45;&gt;actions/UI.js -->
<g id="edge29" class="edge"><title>reducers/root.js&#45;&gt;actions/UI.js</title>
<path fill="none" stroke="#757575" d="M1987.67,-440.343C2094.23,-425.291 2329.56,-401.583 2519,-450.5 2552.4,-459.125 2586.51,-479.964 2608.28,-495.107"/>
<polygon fill="#757575" stroke="#757575" points="2606.37,-498.041 2616.54,-500.995 2610.43,-492.341 2606.37,-498.041"/>
</g>
<!-- reducers/updateLowerButtons.js -->
<g id="node29" class="node"><title>reducers/updateLowerButtons.js</title>
<path fill="none" stroke="#c6c5fe" d="M2320.33,-502C2320.33,-502 2114.67,-502 2114.67,-502 2110.83,-502 2107,-498.167 2107,-494.333 2107,-494.333 2107,-486.667 2107,-486.667 2107,-482.833 2110.83,-479 2114.67,-479 2114.67,-479 2320.33,-479 2320.33,-479 2324.17,-479 2328,-482.833 2328,-486.667 2328,-486.667 2328,-494.333 2328,-494.333 2328,-498.167 2324.17,-502 2320.33,-502"/>
<text text-anchor="middle" x="2217.5" y="-486.8" font-family="Arial" font-size="14.00" fill="#c6c5fe">reducers/updateLowerButtons.js</text>
</g>
<!-- reducers/root.js&#45;&gt;reducers/updateLowerButtons.js -->
<g id="edge30" class="edge"><title>reducers/root.js&#45;&gt;reducers/updateLowerButtons.js</title>
<path fill="none" stroke="#757575" d="M1987.58,-457.6C2013.11,-461.228 2043.56,-465.567 2071,-469.5 2089.01,-472.082 2108.28,-474.854 2126.7,-477.511"/>
<polygon fill="#757575" stroke="#757575" points="2126.44,-481.01 2136.83,-478.973 2127.44,-474.081 2126.44,-481.01"/>
</g>
<!-- reducers/updateMenuBar.js -->
<g id="node30" class="node"><title>reducers/updateMenuBar.js</title>
<path fill="none" stroke="#c6c5fe" d="M2305.33,-584C2305.33,-584 2129.67,-584 2129.67,-584 2125.83,-584 2122,-580.167 2122,-576.333 2122,-576.333 2122,-568.667 2122,-568.667 2122,-564.833 2125.83,-561 2129.67,-561 2129.67,-561 2305.33,-561 2305.33,-561 2309.17,-561 2313,-564.833 2313,-568.667 2313,-568.667 2313,-576.333 2313,-576.333 2313,-580.167 2309.17,-584 2305.33,-584"/>
<text text-anchor="middle" x="2217.5" y="-568.8" font-family="Arial" font-size="14.00" fill="#c6c5fe">reducers/updateMenuBar.js</text>
</g>
<!-- reducers/root.js&#45;&gt;reducers/updateMenuBar.js -->
<g id="edge31" class="edge"><title>reducers/root.js&#45;&gt;reducers/updateMenuBar.js</title>
<path fill="none" stroke="#757575" d="M1987.73,-445.312C2015.38,-446.159 2047.55,-451.699 2071,-469.5 2102.7,-493.564 2075.88,-526.681 2107,-551.5 2109.02,-553.111 2111.13,-554.61 2113.3,-556.007"/>
<polygon fill="#757575" stroke="#757575" points="2111.6,-559.064 2122.04,-560.893 2115.02,-552.955 2111.6,-559.064"/>
</g>
<!-- reducers/updateStats.js -->
<g id="node31" class="node"><title>reducers/updateStats.js</title>
<path fill="none" stroke="#c6c5fe" d="M2293.33,-346C2293.33,-346 2141.67,-346 2141.67,-346 2137.83,-346 2134,-342.167 2134,-338.333 2134,-338.333 2134,-330.667 2134,-330.667 2134,-326.833 2137.83,-323 2141.67,-323 2141.67,-323 2293.33,-323 2293.33,-323 2297.17,-323 2301,-326.833 2301,-330.667 2301,-330.667 2301,-338.333 2301,-338.333 2301,-342.167 2297.17,-346 2293.33,-346"/>
<text text-anchor="middle" x="2217.5" y="-330.8" font-family="Arial" font-size="14.00" fill="#c6c5fe">reducers/updateStats.js</text>
</g>
<!-- reducers/root.js&#45;&gt;reducers/updateStats.js -->
<g id="edge32" class="edge"><title>reducers/root.js&#45;&gt;reducers/updateStats.js</title>
<path fill="none" stroke="#757575" d="M1949.68,-437.936C1981.39,-419.256 2047.2,-382.334 2107,-360.5 2119.58,-355.907 2133.27,-351.91 2146.58,-348.519"/>
<polygon fill="#757575" stroke="#757575" points="2147.78,-351.829 2156.65,-346.044 2146.11,-345.031 2147.78,-351.829"/>
</g>
<!-- store/initialState.js -->
<g id="node32" class="node"><title>store/initialState.js</title>
<path fill="none" stroke="#c6c5fe" d="M2275.33,-543C2275.33,-543 2159.67,-543 2159.67,-543 2155.83,-543 2152,-539.167 2152,-535.333 2152,-535.333 2152,-527.667 2152,-527.667 2152,-523.833 2155.83,-520 2159.67,-520 2159.67,-520 2275.33,-520 2275.33,-520 2279.17,-520 2283,-523.833 2283,-527.667 2283,-527.667 2283,-535.333 2283,-535.333 2283,-539.167 2279.17,-543 2275.33,-543"/>
<text text-anchor="middle" x="2217.5" y="-527.8" font-family="Arial" font-size="14.00" fill="#c6c5fe">store/initialState.js</text>
</g>
<!-- reducers/root.js&#45;&gt;store/initialState.js -->
<g id="edge33" class="edge"><title>reducers/root.js&#45;&gt;store/initialState.js</title>
<path fill="none" stroke="#757575" d="M1987.7,-448.679C2014.39,-450.475 2045.75,-455.844 2071,-469.5 2092.33,-481.037 2085.95,-498.454 2107,-510.5 2117.67,-516.608 2129.79,-520.978 2141.98,-524.096"/>
<polygon fill="#757575" stroke="#757575" points="2141.21,-527.511 2151.74,-526.337 2142.78,-520.688 2141.21,-527.511"/>
</g>
<!-- utils.js -->
<g id="node33" class="node"><title>utils.js</title>
<path fill="none" stroke="#cfffac" d="M2461.83,-483C2461.83,-483 2421.17,-483 2421.17,-483 2417.33,-483 2413.5,-479.167 2413.5,-475.333 2413.5,-475.333 2413.5,-467.667 2413.5,-467.667 2413.5,-463.833 2417.33,-460 2421.17,-460 2421.17,-460 2461.83,-460 2461.83,-460 2465.67,-460 2469.5,-463.833 2469.5,-467.667 2469.5,-467.667 2469.5,-475.333 2469.5,-475.333 2469.5,-479.167 2465.67,-483 2461.83,-483"/>
<text text-anchor="middle" x="2441.5" y="-467.8" font-family="Arial" font-size="14.00" fill="#cfffac">utils.js</text>
</g>
<!-- reducers/root.js&#45;&gt;utils.js -->
<g id="edge34" class="edge"><title>reducers/root.js&#45;&gt;utils.js</title>
<path fill="none" stroke="#757575" d="M1987.52,-451.96C2092.8,-456.501 2314.99,-466.086 2403.23,-469.892"/>
<polygon fill="#757575" stroke="#757575" points="2403.17,-473.393 2413.31,-470.327 2403.47,-466.399 2403.17,-473.393"/>
</g>
<!-- reducers/updateLowerButtons.js&#45;&gt;utils.js -->
<g id="edge41" class="edge"><title>reducers/updateLowerButtons.js&#45;&gt;utils.js</title>
<path fill="none" stroke="#757575" d="M2328.2,-481.111C2355.3,-478.792 2382.5,-476.464 2403.35,-474.68"/>
<polygon fill="#757575" stroke="#757575" points="2403.67,-478.165 2413.34,-473.825 2403.08,-471.19 2403.67,-478.165"/>
</g>
<!-- reducers/updateMenuBar.js&#45;&gt;utils.js -->
<g id="edge42" class="edge"><title>reducers/updateMenuBar.js&#45;&gt;utils.js</title>
<path fill="none" stroke="#757575" d="M2299.81,-560.978C2309.5,-558.421 2319.1,-555.303 2328,-551.5 2363.6,-536.287 2399.07,-508.414 2420.4,-489.92"/>
<polygon fill="#757575" stroke="#757575" points="2422.94,-492.347 2428.11,-483.102 2418.3,-487.103 2422.94,-492.347"/>
</g>
<!-- reducers/updateStats.js&#45;&gt;actions/Player.js -->
<g id="edge43" class="edge"><title>reducers/updateStats.js&#45;&gt;actions/Player.js</title>
<path fill="none" stroke="#757575" d="M2301.16,-327.053C2324.36,-324.963 2349.33,-322.713 2371.63,-320.704"/>
<polygon fill="#757575" stroke="#757575" points="2372.03,-324.183 2381.68,-319.799 2371.4,-317.211 2372.03,-324.183"/>
</g>
<!-- reducers/updateStats.js&#45;&gt;utils.js -->
<g id="edge44" class="edge"><title>reducers/updateStats.js&#45;&gt;utils.js</title>
<path fill="none" stroke="#757575" d="M2237.43,-346.181C2276.75,-370.446 2367.41,-426.393 2413.11,-454.596"/>
<polygon fill="#757575" stroke="#757575" points="2411.27,-457.576 2421.62,-459.849 2414.95,-451.619 2411.27,-457.576"/>
</g>
<!-- store/initialState.js&#45;&gt;scenes/menus.js -->
<g id="edge59" class="edge"><title>store/initialState.js&#45;&gt;scenes/menus.js</title>
<path fill="none" stroke="#757575" d="M2283.24,-534.439C2298.87,-537.462 2314.83,-542.683 2328,-551.5 2385.06,-589.709 2419.42,-667.688 2433.32,-705.29"/>
<polygon fill="#757575" stroke="#757575" points="2430.04,-706.518 2436.7,-714.759 2436.63,-704.164 2430.04,-706.518"/>
</g>
<!-- reducers/tests/root.test.js -->
<g id="node34" class="node"><title>reducers/tests/root.test.js</title>
<path fill="none" stroke="#c6c5fe" d="M1744.33,-542C1744.33,-542 1582.67,-542 1582.67,-542 1578.83,-542 1575,-538.167 1575,-534.333 1575,-534.333 1575,-526.667 1575,-526.667 1575,-522.833 1578.83,-519 1582.67,-519 1582.67,-519 1744.33,-519 1744.33,-519 1748.17,-519 1752,-522.833 1752,-526.667 1752,-526.667 1752,-534.333 1752,-534.333 1752,-538.167 1748.17,-542 1744.33,-542"/>
<text text-anchor="middle" x="1663.5" y="-526.8" font-family="Arial" font-size="14.00" fill="#c6c5fe">reducers/tests/root.test.js</text>
</g>
<!-- reducers/tests/root.test.js&#45;&gt;actions/UI.js -->
<g id="edge35" class="edge"><title>reducers/tests/root.test.js&#45;&gt;actions/UI.js</title>
<path fill="none" stroke="#757575" d="M1681.11,-542.028C1703.95,-557.111 1746.91,-582.766 1788,-592.5 2021.54,-647.83 2089.99,-623.342 2328,-592.5 2423.27,-580.155 2531.26,-546.871 2589.27,-527.344"/>
<polygon fill="#757575" stroke="#757575" points="2590.48,-530.629 2598.82,-524.1 2588.23,-524.001 2590.48,-530.629"/>
</g>
<!-- reducers/tests/root.test.js&#45;&gt;reducers/root.js -->
<g id="edge36" class="edge"><title>reducers/tests/root.test.js&#45;&gt;reducers/root.js</title>
<path fill="none" stroke="#757575" d="M1683.38,-518.789C1706.95,-504.744 1748.93,-481.588 1788,-469.5 1811.27,-462.299 1837.52,-457.677 1860.98,-454.716"/>
<polygon fill="#757575" stroke="#757575" points="1861.68,-458.159 1871.2,-453.508 1860.85,-451.207 1861.68,-458.159"/>
</g>
<!-- reducers/tests/updateLowerButtons.test.js -->
<g id="node35" class="node"><title>reducers/tests/updateLowerButtons.test.js</title>
<path fill="none" stroke="#c6c5fe" d="M2063.33,-502C2063.33,-502 1795.67,-502 1795.67,-502 1791.83,-502 1788,-498.167 1788,-494.333 1788,-494.333 1788,-486.667 1788,-486.667 1788,-482.833 1791.83,-479 1795.67,-479 1795.67,-479 2063.33,-479 2063.33,-479 2067.17,-479 2071,-482.833 2071,-486.667 2071,-486.667 2071,-494.333 2071,-494.333 2071,-498.167 2067.17,-502 2063.33,-502"/>
<text text-anchor="middle" x="1929.5" y="-486.8" font-family="Arial" font-size="14.00" fill="#c6c5fe">reducers/tests/updateLowerButtons.test.js</text>
</g>
<!-- reducers/tests/updateLowerButtons.test.js&#45;&gt;reducers/updateLowerButtons.js -->
<g id="edge37" class="edge"><title>reducers/tests/updateLowerButtons.test.js&#45;&gt;reducers/updateLowerButtons.js</title>
<path fill="none" stroke="#757575" d="M2071.41,-490.5C2079.83,-490.5 2088.26,-490.5 2096.58,-490.5"/>
<polygon fill="#757575" stroke="#757575" points="2096.67,-494 2106.67,-490.5 2096.67,-487 2096.67,-494"/>
</g>
<!-- reducers/tests/updateMenuBar.test.js -->
<g id="node36" class="node"><title>reducers/tests/updateMenuBar.test.js</title>
<path fill="none" stroke="#c6c5fe" d="M2047.83,-584C2047.83,-584 1811.17,-584 1811.17,-584 1807.33,-584 1803.5,-580.167 1803.5,-576.333 1803.5,-576.333 1803.5,-568.667 1803.5,-568.667 1803.5,-564.833 1807.33,-561 1811.17,-561 1811.17,-561 2047.83,-561 2047.83,-561 2051.67,-561 2055.5,-564.833 2055.5,-568.667 2055.5,-568.667 2055.5,-576.333 2055.5,-576.333 2055.5,-580.167 2051.67,-584 2047.83,-584"/>
<text text-anchor="middle" x="1929.5" y="-568.8" font-family="Arial" font-size="14.00" fill="#c6c5fe">reducers/tests/updateMenuBar.test.js</text>
</g>
<!-- reducers/tests/updateMenuBar.test.js&#45;&gt;reducers/updateMenuBar.js -->
<g id="edge38" class="edge"><title>reducers/tests/updateMenuBar.test.js&#45;&gt;reducers/updateMenuBar.js</title>
<path fill="none" stroke="#757575" d="M2055.53,-572.5C2074.3,-572.5 2093.49,-572.5 2111.78,-572.5"/>
<polygon fill="#757575" stroke="#757575" points="2111.83,-576 2121.83,-572.5 2111.83,-569 2111.83,-576"/>
</g>
<!-- reducers/tests/updateMenuBar.test.js&#45;&gt;scenes/menus.js -->
<g id="edge39" class="edge"><title>reducers/tests/updateMenuBar.test.js&#45;&gt;scenes/menus.js</title>
<path fill="none" stroke="#757575" d="M1968.83,-584.075C2060.41,-611.729 2291.78,-681.591 2392.46,-711.993"/>
<polygon fill="#757575" stroke="#757575" points="2391.49,-715.356 2402.07,-714.896 2393.51,-708.655 2391.49,-715.356"/>
</g>
<!-- scenes/menus.js&#45;&gt;actions/UI.js -->
<g id="edge51" class="edge"><title>scenes/menus.js&#45;&gt;actions/UI.js</title>
<path fill="none" stroke="#757575" d="M2459.03,-715C2475.25,-703.299 2500.21,-684.138 2519,-664.5 2560.14,-621.509 2599.42,-563.2 2618.85,-532.814"/>
<polygon fill="#757575" stroke="#757575" points="2621.83,-534.649 2624.22,-524.328 2615.92,-530.905 2621.83,-534.649"/>
</g>
<!-- scenes/menus.js&#45;&gt;scenes/sceneSymbols.js -->
<g id="edge53" class="edge"><title>scenes/menus.js&#45;&gt;scenes/sceneSymbols.js</title>
<path fill="none" stroke="#757575" d="M2503.72,-733.927C2558.73,-741.698 2641.2,-756.089 2710,-779.5 2744.02,-791.075 2780.62,-810.169 2804.97,-823.913"/>
<polygon fill="#757575" stroke="#757575" points="2803.25,-826.964 2813.67,-828.892 2806.73,-820.888 2803.25,-826.964"/>
</g>
<!-- scenes/sceneStore.js -->
<g id="node40" class="node"><title>scenes/sceneStore.js</title>
<path fill="none" stroke="#c6c5fe" d="M2702.33,-812C2702.33,-812 2562.67,-812 2562.67,-812 2558.83,-812 2555,-808.167 2555,-804.333 2555,-804.333 2555,-796.667 2555,-796.667 2555,-792.833 2558.83,-789 2562.67,-789 2562.67,-789 2702.33,-789 2702.33,-789 2706.17,-789 2710,-792.833 2710,-796.667 2710,-796.667 2710,-804.333 2710,-804.333 2710,-808.167 2706.17,-812 2702.33,-812"/>
<text text-anchor="middle" x="2632.5" y="-796.8" font-family="Arial" font-size="14.00" fill="#c6c5fe">scenes/sceneStore.js</text>
</g>
<!-- scenes/menus.js&#45;&gt;scenes/sceneStore.js -->
<g id="edge52" class="edge"><title>scenes/menus.js&#45;&gt;scenes/sceneStore.js</title>
<path fill="none" stroke="#757575" d="M2472.03,-738.063C2504.39,-750.733 2556.45,-771.116 2592.23,-785.126"/>
<polygon fill="#757575" stroke="#757575" points="2591.28,-788.51 2601.86,-788.897 2593.83,-781.992 2591.28,-788.51"/>
</g>
<!-- reducers/tests/updateStats.test.js -->
<g id="node38" class="node"><title>reducers/tests/updateStats.test.js</title>
<path fill="none" stroke="#c6c5fe" d="M2035.83,-346C2035.83,-346 1823.17,-346 1823.17,-346 1819.33,-346 1815.5,-342.167 1815.5,-338.333 1815.5,-338.333 1815.5,-330.667 1815.5,-330.667 1815.5,-326.833 1819.33,-323 1823.17,-323 1823.17,-323 2035.83,-323 2035.83,-323 2039.67,-323 2043.5,-326.833 2043.5,-330.667 2043.5,-330.667 2043.5,-338.333 2043.5,-338.333 2043.5,-342.167 2039.67,-346 2035.83,-346"/>
<text text-anchor="middle" x="1929.5" y="-330.8" font-family="Arial" font-size="14.00" fill="#c6c5fe">reducers/tests/updateStats.test.js</text>
</g>
<!-- reducers/tests/updateStats.test.js&#45;&gt;reducers/updateStats.js -->
<g id="edge40" class="edge"><title>reducers/tests/updateStats.test.js&#45;&gt;reducers/updateStats.js</title>
<path fill="none" stroke="#757575" d="M2043.53,-334.5C2070.14,-334.5 2098.19,-334.5 2123.78,-334.5"/>
<polygon fill="#757575" stroke="#757575" points="2123.83,-338 2133.83,-334.5 2123.83,-331 2123.83,-338"/>
</g>
<!-- scenes/charCreation.js&#45;&gt;actions/Player.js -->
<g id="edge45" class="edge"><title>scenes/charCreation.js&#45;&gt;actions/Player.js</title>
<path fill="none" stroke="#757575" d="M1463.73,-714.711C1485.81,-655.353 1594.25,-389.079 1788,-313.5 1892.61,-272.694 2226.49,-295.687 2371.82,-308.139"/>
<polygon fill="#757575" stroke="#757575" points="2371.69,-311.64 2381.95,-309.016 2372.29,-304.666 2371.69,-311.64"/>
</g>
<!-- scenes/charCreation.js&#45;&gt;actions/UI.js -->
<g id="edge46" class="edge"><title>scenes/charCreation.js&#45;&gt;actions/UI.js</title>
<path fill="none" stroke="#757575" d="M1501.81,-714.957C1583.58,-693.696 1769.3,-650.5 1928.5,-650.5 1928.5,-650.5 1928.5,-650.5 2218.5,-650.5 2355.33,-650.5 2392.5,-635.672 2519,-583.5 2552.36,-569.74 2586.91,-546.326 2608.77,-530.169"/>
<polygon fill="#757575" stroke="#757575" points="2610.88,-532.963 2616.77,-524.158 2606.67,-527.366 2610.88,-532.963"/>
</g>
<!-- scenes/charCreation.js&#45;&gt;scenes/sceneSymbols.js -->
<g id="edge49" class="edge"><title>scenes/charCreation.js&#45;&gt;scenes/sceneSymbols.js</title>
<path fill="none" stroke="#757575" d="M1492.47,-738.141C1515.36,-745.815 1546.71,-755.518 1575,-761.5 1856.05,-820.929 1929.24,-840.5 2216.5,-840.5 2216.5,-840.5 2216.5,-840.5 2442.5,-840.5 2542.26,-840.5 2656.35,-840.5 2735.34,-840.5"/>
<polygon fill="#757575" stroke="#757575" points="2735.76,-844 2745.76,-840.5 2735.76,-837 2735.76,-844"/>
</g>
<!-- scenes/charCreation.js&#45;&gt;store/store.js -->
<g id="edge50" class="edge"><title>scenes/charCreation.js&#45;&gt;store/store.js</title>
<path fill="none" stroke="#757575" d="M1459.09,-714.97C1457.88,-661.997 1460.02,-439.598 1575,-323.5 1583.02,-315.401 1593.44,-309.8 1604.28,-305.934"/>
<polygon fill="#757575" stroke="#757575" points="1605.35,-309.267 1613.87,-302.963 1603.28,-302.581 1605.35,-309.267"/>
</g>
<!-- scenes/charCreation.js&#45;&gt;scenes/menus.js -->
<g id="edge47" class="edge"><title>scenes/charCreation.js&#45;&gt;scenes/menus.js</title>
<path fill="none" stroke="#757575" d="M1539.36,-726.5C1726.47,-726.5 2190.83,-726.5 2369.17,-726.5"/>
<polygon fill="#757575" stroke="#757575" points="2369.23,-730 2379.23,-726.5 2369.23,-723 2369.23,-730"/>
</g>
<!-- scenes/charCreation.js&#45;&gt;scenes/sceneStore.js -->
<g id="edge48" class="edge"><title>scenes/charCreation.js&#45;&gt;scenes/sceneStore.js</title>
<path fill="none" stroke="#757575" d="M1539.27,-736.843C1551.23,-738.199 1563.43,-739.471 1575,-740.5 1934.24,-772.44 2363.8,-790.677 2544.57,-797.445"/>
<polygon fill="#757575" stroke="#757575" points="2544.7,-800.952 2554.82,-797.826 2544.96,-793.957 2544.7,-800.952"/>
</g>
<!-- scenes/sceneStore.js&#45;&gt;scenes/sceneSymbols.js -->
<g id="edge58" class="edge"><title>scenes/sceneStore.js&#45;&gt;scenes/sceneSymbols.js</title>
<path fill="none" stroke="#757575" d="M2690.94,-812.016C2714.31,-816.702 2741.48,-822.15 2765.77,-827.02"/>
<polygon fill="#757575" stroke="#757575" points="2765.13,-830.462 2775.62,-828.996 2766.51,-823.598 2765.13,-830.462"/>
</g>
<!-- setupTests.js -->
<g id="node42" class="node"><title>setupTests.js</title>
<path fill="none" stroke="#cfffac" d="M94.3333,-309C94.3333,-309 7.66667,-309 7.66667,-309 3.83333,-309 0,-305.167 0,-301.333 0,-301.333 0,-293.667 0,-293.667 0,-289.833 3.83333,-286 7.66667,-286 7.66667,-286 94.3333,-286 94.3333,-286 98.1667,-286 102,-289.833 102,-293.667 102,-293.667 102,-301.333 102,-301.333 102,-305.167 98.1667,-309 94.3333,-309"/>
<text text-anchor="middle" x="51" y="-293.8" font-family="Arial" font-size="14.00" fill="#cfffac">setupTests.js</text>
</g>
</g>
</svg>
