<?xml version="1.0" encoding="UTF-8" standalone="no"?>
<!DOCTYPE svg PUBLIC "-//W3C//DTD SVG 1.1//EN"
 "http://www.w3.org/Graphics/SVG/1.1/DTD/svg11.dtd">
<!-- Generated by graphviz version 2.38.0 (20140413.2041)
 -->
<!-- Title: G Pages: 1 -->
<svg width="2915pt" height="655pt"
 viewBox="0.00 0.00 2915.20 655.20" xmlns="http://www.w3.org/2000/svg" xmlns:xlink="http://www.w3.org/1999/xlink">
<g id="graph0" class="graph" transform="scale(1 1) rotate(0) translate(21.6 633.6)">
<title>G</title>
<polygon fill="#111111" stroke="none" points="-21.6,21.6 -21.6,-633.6 2893.6,-633.6 2893.6,21.6 -21.6,21.6"/>
<!-- actions/Core.js -->
<g id="node1" class="node"><title>actions/Core.js</title>
<path fill="none" stroke="#c6c5fe" d="M1740.83,-298C1740.83,-298 1645.17,-298 1645.17,-298 1641.33,-298 1637.5,-294.167 1637.5,-290.333 1637.5,-290.333 1637.5,-282.667 1637.5,-282.667 1637.5,-278.833 1641.33,-275 1645.17,-275 1645.17,-275 1740.83,-275 1740.83,-275 1744.67,-275 1748.5,-278.833 1748.5,-282.667 1748.5,-282.667 1748.5,-290.333 1748.5,-290.333 1748.5,-294.167 1744.67,-298 1740.83,-298"/>
<text text-anchor="middle" x="1693" y="-282.8" font-family="Arial" font-size="14.00" fill="#c6c5fe">actions/Core.js</text>
</g>
<!-- actions/coreMsg.js -->
<g id="node2" class="node"><title>actions/coreMsg.js</title>
<path fill="none" stroke="#cfffac" d="M2843.83,-264C2843.83,-264 2724.17,-264 2724.17,-264 2720.33,-264 2716.5,-260.167 2716.5,-256.333 2716.5,-256.333 2716.5,-248.667 2716.5,-248.667 2716.5,-244.833 2720.33,-241 2724.17,-241 2724.17,-241 2843.83,-241 2843.83,-241 2847.67,-241 2851.5,-244.833 2851.5,-248.667 2851.5,-248.667 2851.5,-256.333 2851.5,-256.333 2851.5,-260.167 2847.67,-264 2843.83,-264"/>
<text text-anchor="middle" x="2784" y="-248.8" font-family="Arial" font-size="14.00" fill="#cfffac">actions/coreMsg.js</text>
</g>
<!-- actions/Core.js&#45;&gt;actions/coreMsg.js -->
<g id="edge1" class="edge"><title>actions/Core.js&#45;&gt;actions/coreMsg.js</title>
<path fill="none" stroke="#757575" d="M1711.44,-298.211C1734.94,-313.31 1778.63,-338.991 1820,-350.5 1937.85,-383.287 1972.18,-370.5 2094.5,-370.5 2094.5,-370.5 2094.5,-370.5 2385,-370.5 2507.55,-370.5 2545.87,-395.12 2660,-350.5 2703.67,-333.426 2744.11,-295.151 2765.99,-271.808"/>
<polygon fill="#757575" stroke="#757575" points="2768.76,-273.971 2772.94,-264.234 2763.6,-269.241 2768.76,-273.971"/>
</g>
<!-- store/store.js -->
<g id="node3" class="node"><title>store/store.js</title>
<path fill="none" stroke="#c6c5fe" d="M2282.33,-243C2282.33,-243 2198.67,-243 2198.67,-243 2194.83,-243 2191,-239.167 2191,-235.333 2191,-235.333 2191,-227.667 2191,-227.667 2191,-223.833 2194.83,-220 2198.67,-220 2198.67,-220 2282.33,-220 2282.33,-220 2286.17,-220 2290,-223.833 2290,-227.667 2290,-227.667 2290,-235.333 2290,-235.333 2290,-239.167 2286.17,-243 2282.33,-243"/>
<text text-anchor="middle" x="2240.5" y="-227.8" font-family="Arial" font-size="14.00" fill="#c6c5fe">store/store.js</text>
</g>
<!-- actions/Core.js&#45;&gt;store/store.js -->
<g id="edge2" class="edge"><title>actions/Core.js&#45;&gt;store/store.js</title>
<path fill="none" stroke="#757575" d="M1748.55,-281C1851.57,-270.613 2073.94,-248.193 2180.38,-237.461"/>
<polygon fill="#757575" stroke="#757575" points="2181.02,-240.914 2190.62,-236.429 2180.32,-233.95 2181.02,-240.914"/>
</g>
<!-- reducers/root.js -->
<g id="node24" class="node"><title>reducers/root.js</title>
<path fill="none" stroke="#c6c5fe" d="M2434.33,-224C2434.33,-224 2333.67,-224 2333.67,-224 2329.83,-224 2326,-220.167 2326,-216.333 2326,-216.333 2326,-208.667 2326,-208.667 2326,-204.833 2329.83,-201 2333.67,-201 2333.67,-201 2434.33,-201 2434.33,-201 2438.17,-201 2442,-204.833 2442,-208.667 2442,-208.667 2442,-216.333 2442,-216.333 2442,-220.167 2438.17,-224 2434.33,-224"/>
<text text-anchor="middle" x="2384" y="-208.8" font-family="Arial" font-size="14.00" fill="#c6c5fe">reducers/root.js</text>
</g>
<!-- store/store.js&#45;&gt;reducers/root.js -->
<g id="edge53" class="edge"><title>store/store.js&#45;&gt;reducers/root.js</title>
<path fill="none" stroke="#757575" d="M2290.2,-224.961C2298.47,-223.85 2307.19,-222.679 2315.84,-221.518"/>
<polygon fill="#757575" stroke="#757575" points="2316.49,-224.963 2325.93,-220.163 2315.55,-218.025 2316.49,-224.963"/>
</g>
<!-- actions/Engine.js -->
<g id="node4" class="node"><title>actions/Engine.js</title>
<path fill="none" stroke="#c6c5fe" d="M951.833,-406C951.833,-406 843.167,-406 843.167,-406 839.333,-406 835.5,-402.167 835.5,-398.333 835.5,-398.333 835.5,-390.667 835.5,-390.667 835.5,-386.833 839.333,-383 843.167,-383 843.167,-383 951.833,-383 951.833,-383 955.667,-383 959.5,-386.833 959.5,-390.667 959.5,-390.667 959.5,-398.333 959.5,-398.333 959.5,-402.167 955.667,-406 951.833,-406"/>
<text text-anchor="middle" x="897.5" y="-390.8" font-family="Arial" font-size="14.00" fill="#c6c5fe">actions/Engine.js</text>
</g>
<!-- scenes/sceneFunctions.js -->
<g id="node5" class="node"><title>scenes/sceneFunctions.js</title>
<path fill="none" stroke="#c6c5fe" d="M1201.33,-401C1201.33,-401 1034.67,-401 1034.67,-401 1030.83,-401 1027,-397.167 1027,-393.333 1027,-393.333 1027,-385.667 1027,-385.667 1027,-381.833 1030.83,-378 1034.67,-378 1034.67,-378 1201.33,-378 1201.33,-378 1205.17,-378 1209,-381.833 1209,-385.667 1209,-385.667 1209,-393.333 1209,-393.333 1209,-397.167 1205.17,-401 1201.33,-401"/>
<text text-anchor="middle" x="1118" y="-385.8" font-family="Arial" font-size="14.00" fill="#c6c5fe">scenes/sceneFunctions.js</text>
</g>
<!-- actions/Engine.js&#45;&gt;scenes/sceneFunctions.js -->
<g id="edge3" class="edge"><title>actions/Engine.js&#45;&gt;scenes/sceneFunctions.js</title>
<path fill="none" stroke="#757575" d="M959.655,-393.101C977.394,-392.695 997.247,-392.24 1016.72,-391.795"/>
<polygon fill="#757575" stroke="#757575" points="1016.93,-395.291 1026.85,-391.563 1016.77,-388.293 1016.93,-395.291"/>
</g>
<!-- scenes/sceneSymbols.js -->
<g id="node6" class="node"><title>scenes/sceneSymbols.js</title>
<path fill="none" stroke="#cfffac" d="M2864.33,-477C2864.33,-477 2703.67,-477 2703.67,-477 2699.83,-477 2696,-473.167 2696,-469.333 2696,-469.333 2696,-461.667 2696,-461.667 2696,-457.833 2699.83,-454 2703.67,-454 2703.67,-454 2864.33,-454 2864.33,-454 2868.17,-454 2872,-457.833 2872,-461.667 2872,-461.667 2872,-469.333 2872,-469.333 2872,-473.167 2868.17,-477 2864.33,-477"/>
<text text-anchor="middle" x="2784" y="-461.8" font-family="Arial" font-size="14.00" fill="#cfffac">scenes/sceneSymbols.js</text>
</g>
<!-- actions/Engine.js&#45;&gt;scenes/sceneSymbols.js -->
<g id="edge4" class="edge"><title>actions/Engine.js&#45;&gt;scenes/sceneSymbols.js</title>
<path fill="none" stroke="#757575" d="M915.033,-406.173C970.221,-443.958 1154.24,-560.5 1324.5,-560.5 1324.5,-560.5 1324.5,-560.5 2385,-560.5 2508.57,-560.5 2541.27,-553.75 2660,-519.5 2692.64,-510.084 2727.96,-493.901 2752.34,-481.699"/>
<polygon fill="#757575" stroke="#757575" points="2754.11,-484.726 2761.44,-477.076 2750.94,-478.485 2754.11,-484.726"/>
</g>
<!-- scenes/sceneFunctions.js&#45;&gt;actions/Core.js -->
<g id="edge44" class="edge"><title>scenes/sceneFunctions.js&#45;&gt;actions/Core.js</title>
<path fill="none" stroke="#757575" d="M1138.36,-377.858C1162.49,-363.846 1205.41,-340.575 1245,-327.5 1375.61,-284.359 1538.62,-281.217 1627.25,-283.426"/>
<polygon fill="#757575" stroke="#757575" points="1627.33,-286.929 1637.42,-283.711 1627.53,-279.932 1627.33,-286.929"/>
</g>
<!-- scenes/sceneFunctions.js&#45;&gt;store/store.js -->
<g id="edge49" class="edge"><title>scenes/sceneFunctions.js&#45;&gt;store/store.js</title>
<path fill="none" stroke="#757575" d="M1130.79,-377.693C1151.91,-357.164 1198.36,-314.77 1245,-290.5 1351.27,-235.206 1383.21,-212.5 1503,-212.5 1503,-212.5 1503,-212.5 1911,-212.5 2005.49,-212.5 2115.01,-220.431 2180.69,-226.045"/>
<polygon fill="#757575" stroke="#757575" points="2180.59,-229.549 2190.85,-226.925 2181.19,-222.575 2180.59,-229.549"/>
</g>
<!-- scenes/sceneFunctions.js&#45;&gt;scenes/sceneSymbols.js -->
<g id="edge47" class="edge"><title>scenes/sceneFunctions.js&#45;&gt;scenes/sceneSymbols.js</title>
<path fill="none" stroke="#757575" d="M1137.78,-401.07C1192.14,-433.428 1355.19,-522.5 1503,-522.5 1503,-522.5 1503,-522.5 2385,-522.5 2507.95,-522.5 2538.67,-512.376 2660,-492.5 2681.79,-488.931 2705.52,-483.977 2726.28,-479.286"/>
<polygon fill="#757575" stroke="#757575" points="2727.24,-482.656 2736.21,-477.011 2725.68,-475.832 2727.24,-482.656"/>
</g>
<!-- scenes/charCreation.js -->
<g id="node30" class="node"><title>scenes/charCreation.js</title>
<path fill="none" stroke="#c6c5fe" d="M1398.33,-360C1398.33,-360 1252.67,-360 1252.67,-360 1248.83,-360 1245,-356.167 1245,-352.333 1245,-352.333 1245,-344.667 1245,-344.667 1245,-340.833 1248.83,-337 1252.67,-337 1252.67,-337 1398.33,-337 1398.33,-337 1402.17,-337 1406,-340.833 1406,-344.667 1406,-344.667 1406,-352.333 1406,-352.333 1406,-356.167 1402.17,-360 1398.33,-360"/>
<text text-anchor="middle" x="1325.5" y="-344.8" font-family="Arial" font-size="14.00" fill="#c6c5fe">scenes/charCreation.js</text>
</g>
<!-- scenes/sceneFunctions.js&#45;&gt;scenes/charCreation.js -->
<g id="edge45" class="edge"><title>scenes/sceneFunctions.js&#45;&gt;scenes/charCreation.js</title>
<path fill="none" stroke="#757575" d="M1176.79,-377.97C1201.63,-373.015 1230.83,-367.188 1256.69,-362.03"/>
<polygon fill="#757575" stroke="#757575" points="1257.67,-365.403 1266.79,-360.014 1256.3,-358.539 1257.67,-365.403"/>
</g>
<!-- scenes/menus.js -->
<g id="node31" class="node"><title>scenes/menus.js</title>
<path fill="none" stroke="#c6c5fe" d="M1558.33,-416C1558.33,-416 1449.67,-416 1449.67,-416 1445.83,-416 1442,-412.167 1442,-408.333 1442,-408.333 1442,-400.667 1442,-400.667 1442,-396.833 1445.83,-393 1449.67,-393 1449.67,-393 1558.33,-393 1558.33,-393 1562.17,-393 1566,-396.833 1566,-400.667 1566,-400.667 1566,-408.333 1566,-408.333 1566,-412.167 1562.17,-416 1558.33,-416"/>
<text text-anchor="middle" x="1504" y="-400.8" font-family="Arial" font-size="14.00" fill="#c6c5fe">scenes/menus.js</text>
</g>
<!-- scenes/sceneFunctions.js&#45;&gt;scenes/menus.js -->
<g id="edge46" class="edge"><title>scenes/sceneFunctions.js&#45;&gt;scenes/menus.js</title>
<path fill="none" stroke="#757575" d="M1179.02,-401.001C1199.83,-404.462 1223.36,-407.793 1245,-409.5 1316.33,-415.126 1334.47,-411.342 1406,-409.5 1414.36,-409.285 1423.12,-408.965 1431.81,-408.59"/>
<polygon fill="#757575" stroke="#757575" points="1432.13,-412.079 1441.96,-408.127 1431.81,-405.086 1432.13,-412.079"/>
</g>
<!-- scenes/tests/testing.js -->
<g id="node33" class="node"><title>scenes/tests/testing.js</title>
<path fill="none" stroke="#cfffac" d="M1396.83,-401C1396.83,-401 1254.17,-401 1254.17,-401 1250.33,-401 1246.5,-397.167 1246.5,-393.333 1246.5,-393.333 1246.5,-385.667 1246.5,-385.667 1246.5,-381.833 1250.33,-378 1254.17,-378 1254.17,-378 1396.83,-378 1396.83,-378 1400.67,-378 1404.5,-381.833 1404.5,-385.667 1404.5,-385.667 1404.5,-393.333 1404.5,-393.333 1404.5,-397.167 1400.67,-401 1396.83,-401"/>
<text text-anchor="middle" x="1325.5" y="-385.8" font-family="Arial" font-size="14.00" fill="#cfffac">scenes/tests/testing.js</text>
</g>
<!-- scenes/sceneFunctions.js&#45;&gt;scenes/tests/testing.js -->
<g id="edge48" class="edge"><title>scenes/sceneFunctions.js&#45;&gt;scenes/tests/testing.js</title>
<path fill="none" stroke="#757575" d="M1209.14,-389.5C1218.15,-389.5 1227.29,-389.5 1236.28,-389.5"/>
<polygon fill="#757575" stroke="#757575" points="1236.35,-393 1246.35,-389.5 1236.35,-386 1236.35,-393"/>
</g>
<!-- actions/Player.js -->
<g id="node7" class="node"><title>actions/Player.js</title>
<path fill="none" stroke="#c6c5fe" d="M2147.33,-302C2147.33,-302 2043.67,-302 2043.67,-302 2039.83,-302 2036,-298.167 2036,-294.333 2036,-294.333 2036,-286.667 2036,-286.667 2036,-282.833 2039.83,-279 2043.67,-279 2043.67,-279 2147.33,-279 2147.33,-279 2151.17,-279 2155,-282.833 2155,-286.667 2155,-286.667 2155,-294.333 2155,-294.333 2155,-298.167 2151.17,-302 2147.33,-302"/>
<text text-anchor="middle" x="2095.5" y="-286.8" font-family="Arial" font-size="14.00" fill="#c6c5fe">actions/Player.js</text>
</g>
<!-- actions/Player.js&#45;&gt;store/store.js -->
<g id="edge6" class="edge"><title>actions/Player.js&#45;&gt;store/store.js</title>
<path fill="none" stroke="#757575" d="M2124.41,-278.984C2146.51,-269.866 2177.6,-257.04 2201.89,-247.017"/>
<polygon fill="#757575" stroke="#757575" points="2203.26,-250.238 2211.17,-243.188 2200.59,-243.767 2203.26,-250.238"/>
</g>
<!-- actions/playerMsg.js -->
<g id="node8" class="node"><title>actions/playerMsg.js</title>
<path fill="none" stroke="#cfffac" d="M2848.83,-184C2848.83,-184 2719.17,-184 2719.17,-184 2715.33,-184 2711.5,-180.167 2711.5,-176.333 2711.5,-176.333 2711.5,-168.667 2711.5,-168.667 2711.5,-164.833 2715.33,-161 2719.17,-161 2719.17,-161 2848.83,-161 2848.83,-161 2852.67,-161 2856.5,-164.833 2856.5,-168.667 2856.5,-168.667 2856.5,-176.333 2856.5,-176.333 2856.5,-180.167 2852.67,-184 2848.83,-184"/>
<text text-anchor="middle" x="2784" y="-168.8" font-family="Arial" font-size="14.00" fill="#cfffac">actions/playerMsg.js</text>
</g>
<!-- actions/Player.js&#45;&gt;actions/playerMsg.js -->
<g id="edge5" class="edge"><title>actions/Player.js&#45;&gt;actions/playerMsg.js</title>
<path fill="none" stroke="#757575" d="M2155.36,-291.151C2259.31,-290.833 2481.27,-283.547 2660,-232.5 2694.84,-222.548 2731.83,-203.158 2756.03,-189.108"/>
<polygon fill="#757575" stroke="#757575" points="2757.82,-192.115 2764.65,-184.015 2754.26,-186.088 2757.82,-192.115"/>
</g>
<!-- actions/engineMsg.js -->
<g id="node9" class="node"><title>actions/engineMsg.js</title>
<path fill="none" stroke="#cfffac" d="M2635.83,-224C2635.83,-224 2502.17,-224 2502.17,-224 2498.33,-224 2494.5,-220.167 2494.5,-216.333 2494.5,-216.333 2494.5,-208.667 2494.5,-208.667 2494.5,-204.833 2498.33,-201 2502.17,-201 2502.17,-201 2635.83,-201 2635.83,-201 2639.67,-201 2643.5,-204.833 2643.5,-208.667 2643.5,-208.667 2643.5,-216.333 2643.5,-216.333 2643.5,-220.167 2639.67,-224 2635.83,-224"/>
<text text-anchor="middle" x="2569" y="-208.8" font-family="Arial" font-size="14.00" fill="#cfffac">actions/engineMsg.js</text>
</g>
<!-- components/appRoot.js -->
<g id="node10" class="node"><title>components/appRoot.js</title>
<path fill="none" stroke="#c6c5fe" d="M298.333,-324C298.333,-324 145.667,-324 145.667,-324 141.833,-324 138,-320.167 138,-316.333 138,-316.333 138,-308.667 138,-308.667 138,-304.833 141.833,-301 145.667,-301 145.667,-301 298.333,-301 298.333,-301 302.167,-301 306,-304.833 306,-308.667 306,-308.667 306,-316.333 306,-316.333 306,-320.167 302.167,-324 298.333,-324"/>
<text text-anchor="middle" x="222" y="-308.8" font-family="Arial" font-size="14.00" fill="#c6c5fe">components/appRoot.js</text>
</g>
<!-- components/lowerButtons.js -->
<g id="node11" class="node"><title>components/lowerButtons.js</title>
<path fill="none" stroke="#c6c5fe" d="M529.333,-406C529.333,-406 349.667,-406 349.667,-406 345.833,-406 342,-402.167 342,-398.333 342,-398.333 342,-390.667 342,-390.667 342,-386.833 345.833,-383 349.667,-383 349.667,-383 529.333,-383 529.333,-383 533.167,-383 537,-386.833 537,-390.667 537,-390.667 537,-398.333 537,-398.333 537,-402.167 533.167,-406 529.333,-406"/>
<text text-anchor="middle" x="439.5" y="-390.8" font-family="Arial" font-size="14.00" fill="#c6c5fe">components/lowerButtons.js</text>
</g>
<!-- components/appRoot.js&#45;&gt;components/lowerButtons.js -->
<g id="edge7" class="edge"><title>components/appRoot.js&#45;&gt;components/lowerButtons.js</title>
<path fill="none" stroke="#757575" d="M241.687,-324.021C264.56,-337.658 304.845,-360.19 342,-373.5 349.207,-376.082 356.835,-378.401 364.519,-380.472"/>
<polygon fill="#757575" stroke="#757575" points="363.698,-383.875 374.253,-382.963 365.433,-377.094 363.698,-383.875"/>
</g>
<!-- components/menuBar.js -->
<g id="node12" class="node"><title>components/menuBar.js</title>
<path fill="none" stroke="#c6c5fe" d="M516.833,-324C516.833,-324 362.167,-324 362.167,-324 358.333,-324 354.5,-320.167 354.5,-316.333 354.5,-316.333 354.5,-308.667 354.5,-308.667 354.5,-304.833 358.333,-301 362.167,-301 362.167,-301 516.833,-301 516.833,-301 520.667,-301 524.5,-304.833 524.5,-308.667 524.5,-308.667 524.5,-316.333 524.5,-316.333 524.5,-320.167 520.667,-324 516.833,-324"/>
<text text-anchor="middle" x="439.5" y="-308.8" font-family="Arial" font-size="14.00" fill="#c6c5fe">components/menuBar.js</text>
</g>
<!-- components/appRoot.js&#45;&gt;components/menuBar.js -->
<g id="edge8" class="edge"><title>components/appRoot.js&#45;&gt;components/menuBar.js</title>
<path fill="none" stroke="#757575" d="M306.01,-312.5C318.546,-312.5 331.556,-312.5 344.307,-312.5"/>
<polygon fill="#757575" stroke="#757575" points="344.465,-316 354.465,-312.5 344.465,-309 344.465,-316"/>
</g>
<!-- components/output.js -->
<g id="node13" class="node"><title>components/output.js</title>
<path fill="none" stroke="#cfffac" d="M507.833,-365C507.833,-365 371.167,-365 371.167,-365 367.333,-365 363.5,-361.167 363.5,-357.333 363.5,-357.333 363.5,-349.667 363.5,-349.667 363.5,-345.833 367.333,-342 371.167,-342 371.167,-342 507.833,-342 507.833,-342 511.667,-342 515.5,-345.833 515.5,-349.667 515.5,-349.667 515.5,-357.333 515.5,-357.333 515.5,-361.167 511.667,-365 507.833,-365"/>
<text text-anchor="middle" x="439.5" y="-349.8" font-family="Arial" font-size="14.00" fill="#cfffac">components/output.js</text>
</g>
<!-- components/appRoot.js&#45;&gt;components/output.js -->
<g id="edge9" class="edge"><title>components/appRoot.js&#45;&gt;components/output.js</title>
<path fill="none" stroke="#757575" d="M283.602,-324.03C309.88,-329.029 340.817,-334.915 368.106,-340.107"/>
<polygon fill="#757575" stroke="#757575" points="367.502,-343.555 377.98,-341.986 368.81,-336.678 367.502,-343.555"/>
</g>
<!-- components/statBar.js -->
<g id="node14" class="node"><title>components/statBar.js</title>
<path fill="none" stroke="#c6c5fe" d="M510.833,-283C510.833,-283 368.167,-283 368.167,-283 364.333,-283 360.5,-279.167 360.5,-275.333 360.5,-275.333 360.5,-267.667 360.5,-267.667 360.5,-263.833 364.333,-260 368.167,-260 368.167,-260 510.833,-260 510.833,-260 514.667,-260 518.5,-263.833 518.5,-267.667 518.5,-267.667 518.5,-275.333 518.5,-275.333 518.5,-279.167 514.667,-283 510.833,-283"/>
<text text-anchor="middle" x="439.5" y="-267.8" font-family="Arial" font-size="14.00" fill="#c6c5fe">components/statBar.js</text>
</g>
<!-- components/appRoot.js&#45;&gt;components/statBar.js -->
<g id="edge10" class="edge"><title>components/appRoot.js&#45;&gt;components/statBar.js</title>
<path fill="none" stroke="#757575" d="M283.602,-300.97C309.88,-295.971 340.817,-290.085 368.106,-284.893"/>
<polygon fill="#757575" stroke="#757575" points="368.81,-288.322 377.98,-283.014 367.502,-281.445 368.81,-288.322"/>
</g>
<!-- components/buttonGrid.js -->
<g id="node16" class="node"><title>components/buttonGrid.js</title>
<path fill="none" stroke="#c6c5fe" d="M752.333,-406C752.333,-406 588.667,-406 588.667,-406 584.833,-406 581,-402.167 581,-398.333 581,-398.333 581,-390.667 581,-390.667 581,-386.833 584.833,-383 588.667,-383 588.667,-383 752.333,-383 752.333,-383 756.167,-383 760,-386.833 760,-390.667 760,-390.667 760,-398.333 760,-398.333 760,-402.167 756.167,-406 752.333,-406"/>
<text text-anchor="middle" x="670.5" y="-390.8" font-family="Arial" font-size="14.00" fill="#c6c5fe">components/buttonGrid.js</text>
</g>
<!-- components/lowerButtons.js&#45;&gt;components/buttonGrid.js -->
<g id="edge14" class="edge"><title>components/lowerButtons.js&#45;&gt;components/buttonGrid.js</title>
<path fill="none" stroke="#757575" d="M537.285,-394.5C548.313,-394.5 559.566,-394.5 570.621,-394.5"/>
<polygon fill="#757575" stroke="#757575" points="570.705,-398 580.705,-394.5 570.705,-391 570.705,-398"/>
</g>
<!-- components/menuBar.js&#45;&gt;components/buttonGrid.js -->
<g id="edge15" class="edge"><title>components/menuBar.js&#45;&gt;components/buttonGrid.js</title>
<path fill="none" stroke="#757575" d="M506.452,-324.023C516.783,-326.442 527.259,-329.261 537,-332.5 573.489,-344.633 613.164,-364.101 639.492,-377.984"/>
<polygon fill="#757575" stroke="#757575" points="638.088,-381.202 648.558,-382.822 641.384,-375.026 638.088,-381.202"/>
</g>
<!-- components/spriteDisplay.js -->
<g id="node19" class="node"><title>components/spriteDisplay.js</title>
<path fill="none" stroke="#cfffac" d="M760.333,-242C760.333,-242 580.667,-242 580.667,-242 576.833,-242 573,-238.167 573,-234.333 573,-234.333 573,-226.667 573,-226.667 573,-222.833 576.833,-219 580.667,-219 580.667,-219 760.333,-219 760.333,-219 764.167,-219 768,-222.833 768,-226.667 768,-226.667 768,-234.333 768,-234.333 768,-238.167 764.167,-242 760.333,-242"/>
<text text-anchor="middle" x="670.5" y="-226.8" font-family="Arial" font-size="14.00" fill="#cfffac">components/spriteDisplay.js</text>
</g>
<!-- components/statBar.js&#45;&gt;components/spriteDisplay.js -->
<g id="edge18" class="edge"><title>components/statBar.js&#45;&gt;components/spriteDisplay.js</title>
<path fill="none" stroke="#757575" d="M504.899,-259.97C532.945,-254.949 565.986,-249.033 595.078,-243.825"/>
<polygon fill="#757575" stroke="#757575" points="595.962,-247.222 605.188,-242.014 594.728,-240.332 595.962,-247.222"/>
</g>
<!-- components/statDisplay.js -->
<g id="node21" class="node"><title>components/statDisplay.js</title>
<path fill="none" stroke="#c6c5fe" d="M753.833,-324C753.833,-324 587.167,-324 587.167,-324 583.333,-324 579.5,-320.167 579.5,-316.333 579.5,-316.333 579.5,-308.667 579.5,-308.667 579.5,-304.833 583.333,-301 587.167,-301 587.167,-301 753.833,-301 753.833,-301 757.667,-301 761.5,-304.833 761.5,-308.667 761.5,-308.667 761.5,-316.333 761.5,-316.333 761.5,-320.167 757.667,-324 753.833,-324"/>
<text text-anchor="middle" x="670.5" y="-308.8" font-family="Arial" font-size="14.00" fill="#c6c5fe">components/statDisplay.js</text>
</g>
<!-- components/statBar.js&#45;&gt;components/statDisplay.js -->
<g id="edge19" class="edge"><title>components/statBar.js&#45;&gt;components/statDisplay.js</title>
<path fill="none" stroke="#757575" d="M504.899,-283.03C532.945,-288.051 565.986,-293.967 595.078,-299.175"/>
<polygon fill="#757575" stroke="#757575" points="594.728,-302.668 605.188,-300.986 595.962,-295.778 594.728,-302.668"/>
</g>
<!-- components/timeDisplay.js -->
<g id="node22" class="node"><title>components/timeDisplay.js</title>
<path fill="none" stroke="#cfffac" d="M756.333,-283C756.333,-283 584.667,-283 584.667,-283 580.833,-283 577,-279.167 577,-275.333 577,-275.333 577,-267.667 577,-267.667 577,-263.833 580.833,-260 584.667,-260 584.667,-260 756.333,-260 756.333,-260 760.167,-260 764,-263.833 764,-267.667 764,-267.667 764,-275.333 764,-275.333 764,-279.167 760.167,-283 756.333,-283"/>
<text text-anchor="middle" x="670.5" y="-267.8" font-family="Arial" font-size="14.00" fill="#cfffac">components/timeDisplay.js</text>
</g>
<!-- components/statBar.js&#45;&gt;components/timeDisplay.js -->
<g id="edge20" class="edge"><title>components/statBar.js&#45;&gt;components/timeDisplay.js</title>
<path fill="none" stroke="#757575" d="M518.668,-271.5C533.974,-271.5 550.245,-271.5 566.223,-271.5"/>
<polygon fill="#757575" stroke="#757575" points="566.666,-275 576.666,-271.5 566.666,-268 566.666,-275"/>
</g>
<!-- components/button.js -->
<g id="node15" class="node"><title>components/button.js</title>
<path fill="none" stroke="#cfffac" d="M1186.33,-612C1186.33,-612 1049.67,-612 1049.67,-612 1045.83,-612 1042,-608.167 1042,-604.333 1042,-604.333 1042,-596.667 1042,-596.667 1042,-592.833 1045.83,-589 1049.67,-589 1049.67,-589 1186.33,-589 1186.33,-589 1190.17,-589 1194,-592.833 1194,-596.667 1194,-596.667 1194,-604.333 1194,-604.333 1194,-608.167 1190.17,-612 1186.33,-612"/>
<text text-anchor="middle" x="1118" y="-596.8" font-family="Arial" font-size="14.00" fill="#cfffac">components/button.js</text>
</g>
<!-- components/buttonGrid.js&#45;&gt;actions/Engine.js -->
<g id="edge11" class="edge"><title>components/buttonGrid.js&#45;&gt;actions/Engine.js</title>
<path fill="none" stroke="#757575" d="M760.103,-394.5C781.669,-394.5 804.464,-394.5 825.115,-394.5"/>
<polygon fill="#757575" stroke="#757575" points="825.383,-398 835.383,-394.5 825.383,-391 825.383,-398"/>
</g>
<!-- components/buttonWrap.js -->
<g id="node17" class="node"><title>components/buttonWrap.js</title>
<path fill="none" stroke="#c6c5fe" d="M983.333,-537C983.333,-537 811.667,-537 811.667,-537 807.833,-537 804,-533.167 804,-529.333 804,-529.333 804,-521.667 804,-521.667 804,-517.833 807.833,-514 811.667,-514 811.667,-514 983.333,-514 983.333,-514 987.167,-514 991,-517.833 991,-521.667 991,-521.667 991,-529.333 991,-529.333 991,-533.167 987.167,-537 983.333,-537"/>
<text text-anchor="middle" x="897.5" y="-521.8" font-family="Arial" font-size="14.00" fill="#c6c5fe">components/buttonWrap.js</text>
</g>
<!-- components/buttonGrid.js&#45;&gt;components/buttonWrap.js -->
<g id="edge12" class="edge"><title>components/buttonGrid.js&#45;&gt;components/buttonWrap.js</title>
<path fill="none" stroke="#757575" d="M691.467,-406.125C731.413,-429.383 821.298,-481.716 867.648,-508.702"/>
<polygon fill="#757575" stroke="#757575" points="866.174,-511.894 876.577,-513.901 869.697,-505.844 866.174,-511.894"/>
</g>
<!-- components/buttonWrap.js&#45;&gt;components/button.js -->
<g id="edge13" class="edge"><title>components/buttonWrap.js&#45;&gt;components/button.js</title>
<path fill="none" stroke="#757575" d="M926.836,-537.083C952.712,-547.474 992.13,-562.837 1027,-574.5 1039.05,-578.53 1052.12,-582.521 1064.48,-586.123"/>
<polygon fill="#757575" stroke="#757575" points="1063.62,-589.518 1074.2,-588.92 1065.56,-582.791 1063.62,-589.518"/>
</g>
<!-- components/nameInput.js -->
<g id="node18" class="node"><title>components/nameInput.js</title>
<path fill="none" stroke="#c6c5fe" d="M1992.33,-342C1992.33,-342 1827.67,-342 1827.67,-342 1823.83,-342 1820,-338.167 1820,-334.333 1820,-334.333 1820,-326.667 1820,-326.667 1820,-322.833 1823.83,-319 1827.67,-319 1827.67,-319 1992.33,-319 1992.33,-319 1996.17,-319 2000,-322.833 2000,-326.667 2000,-326.667 2000,-334.333 2000,-334.333 2000,-338.167 1996.17,-342 1992.33,-342"/>
<text text-anchor="middle" x="1910" y="-326.8" font-family="Arial" font-size="14.00" fill="#c6c5fe">components/nameInput.js</text>
</g>
<!-- components/nameInput.js&#45;&gt;store/store.js -->
<g id="edge17" class="edge"><title>components/nameInput.js&#45;&gt;store/store.js</title>
<path fill="none" stroke="#757575" d="M2000.28,-337.049C2048.05,-337.195 2106.81,-331.835 2155,-310.5 2184.3,-297.528 2209.9,-270.036 2225.03,-251.163"/>
<polygon fill="#757575" stroke="#757575" points="2227.86,-253.229 2231.23,-243.182 2222.33,-248.939 2227.86,-253.229"/>
</g>
<!-- components/nameInput.js&#45;&gt;actions/Player.js -->
<g id="edge16" class="edge"><title>components/nameInput.js&#45;&gt;actions/Player.js</title>
<path fill="none" stroke="#757575" d="M1964.08,-318.93C1985.19,-314.328 2009.64,-308.997 2031.63,-304.204"/>
<polygon fill="#757575" stroke="#757575" points="2032.52,-307.593 2041.54,-302.044 2031.03,-300.754 2032.52,-307.593"/>
</g>
<!-- components/stat.js -->
<g id="node20" class="node"><title>components/stat.js</title>
<path fill="none" stroke="#cfffac" d="M957.833,-324C957.833,-324 837.167,-324 837.167,-324 833.333,-324 829.5,-320.167 829.5,-316.333 829.5,-316.333 829.5,-308.667 829.5,-308.667 829.5,-304.833 833.333,-301 837.167,-301 837.167,-301 957.833,-301 957.833,-301 961.667,-301 965.5,-304.833 965.5,-308.667 965.5,-308.667 965.5,-316.333 965.5,-316.333 965.5,-320.167 961.667,-324 957.833,-324"/>
<text text-anchor="middle" x="897.5" y="-308.8" font-family="Arial" font-size="14.00" fill="#cfffac">components/stat.js</text>
</g>
<!-- components/statDisplay.js&#45;&gt;components/stat.js -->
<g id="edge21" class="edge"><title>components/statDisplay.js&#45;&gt;components/stat.js</title>
<path fill="none" stroke="#757575" d="M761.72,-312.5C780.804,-312.5 800.779,-312.5 819.327,-312.5"/>
<polygon fill="#757575" stroke="#757575" points="819.471,-316 829.471,-312.5 819.471,-309 819.471,-316"/>
</g>
<!-- index.js -->
<g id="node23" class="node"><title>index.js</title>
<path fill="none" stroke="#c6c5fe" d="M75.8333,-255C75.8333,-255 26.1667,-255 26.1667,-255 22.3333,-255 18.5,-251.167 18.5,-247.333 18.5,-247.333 18.5,-239.667 18.5,-239.667 18.5,-235.833 22.3333,-232 26.1667,-232 26.1667,-232 75.8333,-232 75.8333,-232 79.6667,-232 83.5,-235.833 83.5,-239.667 83.5,-239.667 83.5,-247.333 83.5,-247.333 83.5,-251.167 79.6667,-255 75.8333,-255"/>
<text text-anchor="middle" x="51" y="-239.8" font-family="Arial" font-size="14.00" fill="#c6c5fe">index.js</text>
</g>
<!-- index.js&#45;&gt;store/store.js -->
<g id="edge23" class="edge"><title>index.js&#45;&gt;store/store.js</title>
<path fill="none" stroke="#757575" d="M83.7251,-233.906C149.317,-214.947 304.903,-174.5 438.5,-174.5 438.5,-174.5 438.5,-174.5 1911,-174.5 2011,-174.5 2125.63,-200.458 2189.61,-217.339"/>
<polygon fill="#757575" stroke="#757575" points="2188.87,-220.764 2199.43,-219.965 2190.67,-214.001 2188.87,-220.764"/>
</g>
<!-- index.js&#45;&gt;components/appRoot.js -->
<g id="edge22" class="edge"><title>index.js&#45;&gt;components/appRoot.js</title>
<path fill="none" stroke="#757575" d="M81.1031,-255.084C87.9617,-257.83 95.2429,-260.758 102,-263.5 129.353,-274.602 160.17,-287.296 183.589,-296.982"/>
<polygon fill="#757575" stroke="#757575" points="182.563,-300.345 193.141,-300.936 185.24,-293.878 182.563,-300.345"/>
</g>
<!-- reducers/root.js&#45;&gt;actions/coreMsg.js -->
<g id="edge24" class="edge"><title>reducers/root.js&#45;&gt;actions/coreMsg.js</title>
<path fill="none" stroke="#757575" d="M2432.07,-224.022C2446.71,-227.226 2462.95,-230.4 2478,-232.5 2555.29,-243.286 2644.43,-248.28 2706.3,-250.577"/>
<polygon fill="#757575" stroke="#757575" points="2706.26,-254.077 2716.38,-250.936 2706.51,-247.082 2706.26,-254.077"/>
</g>
<!-- reducers/root.js&#45;&gt;actions/playerMsg.js -->
<g id="edge26" class="edge"><title>reducers/root.js&#45;&gt;actions/playerMsg.js</title>
<path fill="none" stroke="#757575" d="M2429.67,-200.892C2444.9,-197.34 2462.11,-193.775 2478,-191.5 2553.25,-180.731 2639.8,-176.065 2701.44,-174.044"/>
<polygon fill="#757575" stroke="#757575" points="2701.61,-177.54 2711.49,-173.73 2701.39,-170.544 2701.61,-177.54"/>
</g>
<!-- reducers/root.js&#45;&gt;actions/engineMsg.js -->
<g id="edge25" class="edge"><title>reducers/root.js&#45;&gt;actions/engineMsg.js</title>
<path fill="none" stroke="#757575" d="M2442.15,-212.5C2455.48,-212.5 2469.95,-212.5 2484.18,-212.5"/>
<polygon fill="#757575" stroke="#757575" points="2484.47,-216 2494.47,-212.5 2484.47,-209 2484.47,-216"/>
</g>
<!-- reducers/updateStats.js -->
<g id="node25" class="node"><title>reducers/updateStats.js</title>
<path fill="none" stroke="#c6c5fe" d="M2644.83,-144C2644.83,-144 2493.17,-144 2493.17,-144 2489.33,-144 2485.5,-140.167 2485.5,-136.333 2485.5,-136.333 2485.5,-128.667 2485.5,-128.667 2485.5,-124.833 2489.33,-121 2493.17,-121 2493.17,-121 2644.83,-121 2644.83,-121 2648.67,-121 2652.5,-124.833 2652.5,-128.667 2652.5,-128.667 2652.5,-136.333 2652.5,-136.333 2652.5,-140.167 2648.67,-144 2644.83,-144"/>
<text text-anchor="middle" x="2569" y="-128.8" font-family="Arial" font-size="14.00" fill="#c6c5fe">reducers/updateStats.js</text>
</g>
<!-- reducers/root.js&#45;&gt;reducers/updateStats.js -->
<g id="edge27" class="edge"><title>reducers/root.js&#45;&gt;reducers/updateStats.js</title>
<path fill="none" stroke="#757575" d="M2402.16,-200.81C2420.33,-188.849 2450.18,-170.38 2478,-158.5 2488.08,-154.196 2499.08,-150.357 2509.83,-147.035"/>
<polygon fill="#757575" stroke="#757575" points="2511.01,-150.337 2519.6,-144.132 2509.02,-143.627 2511.01,-150.337"/>
</g>
<!-- reducers/updateTime.js -->
<g id="node26" class="node"><title>reducers/updateTime.js</title>
<path fill="none" stroke="#c6c5fe" d="M2644.83,-23C2644.83,-23 2493.17,-23 2493.17,-23 2489.33,-23 2485.5,-19.1667 2485.5,-15.3333 2485.5,-15.3333 2485.5,-7.66667 2485.5,-7.66667 2485.5,-3.83333 2489.33,-0 2493.17,-0 2493.17,-0 2644.83,-0 2644.83,-0 2648.67,-0 2652.5,-3.83333 2652.5,-7.66667 2652.5,-7.66667 2652.5,-15.3333 2652.5,-15.3333 2652.5,-19.1667 2648.67,-23 2644.83,-23"/>
<text text-anchor="middle" x="2569" y="-7.8" font-family="Arial" font-size="14.00" fill="#c6c5fe">reducers/updateTime.js</text>
</g>
<!-- reducers/root.js&#45;&gt;reducers/updateTime.js -->
<g id="edge28" class="edge"><title>reducers/root.js&#45;&gt;reducers/updateTime.js</title>
<path fill="none" stroke="#757575" d="M2387.84,-200.653C2396.03,-169.1 2422.7,-82.3809 2478,-37.5 2482.97,-33.4644 2488.54,-30.0552 2494.41,-27.175"/>
<polygon fill="#757575" stroke="#757575" points="2496.07,-30.2723 2503.84,-23.0707 2493.27,-23.8545 2496.07,-30.2723"/>
</g>
<!-- store/initialState.js -->
<g id="node27" class="node"><title>store/initialState.js</title>
<path fill="none" stroke="#c6c5fe" d="M2626.83,-342C2626.83,-342 2511.17,-342 2511.17,-342 2507.33,-342 2503.5,-338.167 2503.5,-334.333 2503.5,-334.333 2503.5,-326.667 2503.5,-326.667 2503.5,-322.833 2507.33,-319 2511.17,-319 2511.17,-319 2626.83,-319 2626.83,-319 2630.67,-319 2634.5,-322.833 2634.5,-326.667 2634.5,-326.667 2634.5,-334.333 2634.5,-334.333 2634.5,-338.167 2630.67,-342 2626.83,-342"/>
<text text-anchor="middle" x="2569" y="-326.8" font-family="Arial" font-size="14.00" fill="#c6c5fe">store/initialState.js</text>
</g>
<!-- reducers/root.js&#45;&gt;store/initialState.js -->
<g id="edge29" class="edge"><title>reducers/root.js&#45;&gt;store/initialState.js</title>
<path fill="none" stroke="#757575" d="M2402.88,-224.029C2435.27,-244.914 2503.79,-289.094 2541.58,-313.466"/>
<polygon fill="#757575" stroke="#757575" points="2539.75,-316.446 2550.05,-318.924 2543.54,-310.563 2539.75,-316.446"/>
</g>
<!-- utils.js -->
<g id="node28" class="node"><title>utils.js</title>
<path fill="none" stroke="#cfffac" d="M2804.33,-83C2804.33,-83 2763.67,-83 2763.67,-83 2759.83,-83 2756,-79.1667 2756,-75.3333 2756,-75.3333 2756,-67.6667 2756,-67.6667 2756,-63.8333 2759.83,-60 2763.67,-60 2763.67,-60 2804.33,-60 2804.33,-60 2808.17,-60 2812,-63.8333 2812,-67.6667 2812,-67.6667 2812,-75.3333 2812,-75.3333 2812,-79.1667 2808.17,-83 2804.33,-83"/>
<text text-anchor="middle" x="2784" y="-67.8" font-family="Arial" font-size="14.00" fill="#cfffac">utils.js</text>
</g>
<!-- reducers/root.js&#45;&gt;utils.js -->
<g id="edge30" class="edge"><title>reducers/root.js&#45;&gt;utils.js</title>
<path fill="none" stroke="#757575" d="M2388.41,-200.842C2397.46,-172.283 2425.11,-99.0833 2478,-70.5 2564.31,-23.8533 2685.45,-45.252 2745.79,-60.6342"/>
<polygon fill="#757575" stroke="#757575" points="2745.08,-64.0644 2755.64,-63.2291 2746.86,-57.2956 2745.08,-64.0644"/>
</g>
<!-- reducers/updateStats.js&#45;&gt;actions/coreMsg.js -->
<g id="edge32" class="edge"><title>reducers/updateStats.js&#45;&gt;actions/coreMsg.js</title>
<path fill="none" stroke="#757575" d="M2590.42,-144.006C2628.34,-165.365 2709.72,-211.213 2753.57,-235.918"/>
<polygon fill="#757575" stroke="#757575" points="2751.9,-238.993 2762.33,-240.852 2755.33,-232.895 2751.9,-238.993"/>
</g>
<!-- reducers/updateStats.js&#45;&gt;actions/playerMsg.js -->
<g id="edge33" class="edge"><title>reducers/updateStats.js&#45;&gt;actions/playerMsg.js</title>
<path fill="none" stroke="#757575" d="M2631.32,-144.016C2656.5,-148.743 2685.8,-154.247 2711.91,-159.15"/>
<polygon fill="#757575" stroke="#757575" points="2711.27,-162.59 2721.74,-160.996 2712.56,-155.71 2711.27,-162.59"/>
</g>
<!-- reducers/updateStats.js&#45;&gt;utils.js -->
<g id="edge34" class="edge"><title>reducers/updateStats.js&#45;&gt;utils.js</title>
<path fill="none" stroke="#757575" d="M2623.02,-120.922C2635.22,-118.039 2648.1,-114.817 2660,-111.5 2689.28,-103.34 2721.98,-92.6268 2746.3,-84.3415"/>
<polygon fill="#757575" stroke="#757575" points="2747.52,-87.623 2755.85,-81.0682 2745.25,-81.0016 2747.52,-87.623"/>
</g>
<!-- reducers/updateTime.js&#45;&gt;utils.js -->
<g id="edge35" class="edge"><title>reducers/updateTime.js&#45;&gt;utils.js</title>
<path fill="none" stroke="#757575" d="M2611.07,-23.0686C2650.08,-34.0564 2708.2,-50.4299 2745.86,-61.0371"/>
<polygon fill="#757575" stroke="#757575" points="2745.33,-64.5241 2755.9,-63.8667 2747.23,-57.7864 2745.33,-64.5241"/>
</g>
<!-- store/initialState.js&#45;&gt;scenes/sceneSymbols.js -->
<g id="edge52" class="edge"><title>store/initialState.js&#45;&gt;scenes/sceneSymbols.js</title>
<path fill="none" stroke="#757575" d="M2588.16,-342.01C2625.71,-365.812 2712.07,-420.547 2756.11,-448.459"/>
<polygon fill="#757575" stroke="#757575" points="2754.26,-451.43 2764.58,-453.827 2758.01,-445.518 2754.26,-451.43"/>
</g>
<!-- reducers/updateButtons.js -->
<g id="node29" class="node"><title>reducers/updateButtons.js</title>
<path fill="none" stroke="#c6c5fe" d="M2652.33,-103C2652.33,-103 2485.67,-103 2485.67,-103 2481.83,-103 2478,-99.1667 2478,-95.3333 2478,-95.3333 2478,-87.6667 2478,-87.6667 2478,-83.8333 2481.83,-80 2485.67,-80 2485.67,-80 2652.33,-80 2652.33,-80 2656.17,-80 2660,-83.8333 2660,-87.6667 2660,-87.6667 2660,-95.3333 2660,-95.3333 2660,-99.1667 2656.17,-103 2652.33,-103"/>
<text text-anchor="middle" x="2569" y="-87.8" font-family="Arial" font-size="14.00" fill="#c6c5fe">reducers/updateButtons.js</text>
</g>
<!-- reducers/updateButtons.js&#45;&gt;utils.js -->
<g id="edge31" class="edge"><title>reducers/updateButtons.js&#45;&gt;utils.js</title>
<path fill="none" stroke="#757575" d="M2660.02,-83.0472C2690.09,-80.224 2721.95,-77.2322 2745.71,-75.0015"/>
<polygon fill="#757575" stroke="#757575" points="2746.06,-78.4838 2755.69,-74.0641 2745.41,-71.5144 2746.06,-78.4838"/>
</g>
<!-- scenes/charCreation.js&#45;&gt;actions/Core.js -->
<g id="edge36" class="edge"><title>scenes/charCreation.js&#45;&gt;actions/Core.js</title>
<path fill="none" stroke="#757575" d="M1357.92,-336.845C1380.9,-328.782 1412.99,-318.467 1442,-312.5 1504.18,-299.709 1576.42,-293.059 1627.21,-289.701"/>
<polygon fill="#757575" stroke="#757575" points="1627.64,-293.182 1637.39,-289.053 1627.19,-286.196 1627.64,-293.182"/>
</g>
<!-- scenes/charCreation.js&#45;&gt;scenes/sceneSymbols.js -->
<g id="edge39" class="edge"><title>scenes/charCreation.js&#45;&gt;scenes/sceneSymbols.js</title>
<path fill="none" stroke="#757575" d="M1390.91,-360.094C1396.26,-362.407 1401.38,-365.179 1406,-368.5 1430.03,-385.763 1417.88,-407.368 1442,-424.5 1535.16,-490.66 1577.73,-484.5 1692,-484.5 1692,-484.5 1692,-484.5 2385,-484.5 2487.66,-484.5 2605.04,-478.115 2685.58,-472.748"/>
<polygon fill="#757575" stroke="#757575" points="2685.97,-476.23 2695.71,-472.065 2685.5,-469.246 2685.97,-476.23"/>
</g>
<!-- scenes/charCreation.js&#45;&gt;actions/Player.js -->
<g id="edge37" class="edge"><title>scenes/charCreation.js&#45;&gt;actions/Player.js</title>
<path fill="none" stroke="#757575" d="M1406.4,-341.945C1503.98,-333.994 1674.08,-320.316 1820,-309.5 1890.08,-304.306 1970.25,-298.808 2025.78,-295.07"/>
<polygon fill="#757575" stroke="#757575" points="2026.11,-298.556 2035.85,-294.393 2025.64,-291.572 2026.11,-298.556"/>
</g>
<!-- scenes/charCreation.js&#45;&gt;scenes/menus.js -->
<g id="edge38" class="edge"><title>scenes/charCreation.js&#45;&gt;scenes/menus.js</title>
<path fill="none" stroke="#757575" d="M1375.93,-360.046C1385.94,-362.633 1396.35,-365.505 1406,-368.5 1425.69,-374.609 1447.21,-382.475 1464.98,-389.295"/>
<polygon fill="#757575" stroke="#757575" points="1463.83,-392.605 1474.42,-392.958 1466.36,-386.079 1463.83,-392.605"/>
</g>
<!-- scenes/sceneTextStore.js -->
<g id="node32" class="node"><title>scenes/sceneTextStore.js</title>
<path fill="none" stroke="#c6c5fe" d="M1776.33,-397C1776.33,-397 1609.67,-397 1609.67,-397 1605.83,-397 1602,-393.167 1602,-389.333 1602,-389.333 1602,-381.667 1602,-381.667 1602,-377.833 1605.83,-374 1609.67,-374 1609.67,-374 1776.33,-374 1776.33,-374 1780.17,-374 1784,-377.833 1784,-381.667 1784,-381.667 1784,-389.333 1784,-389.333 1784,-393.167 1780.17,-397 1776.33,-397"/>
<text text-anchor="middle" x="1693" y="-381.8" font-family="Arial" font-size="14.00" fill="#c6c5fe">scenes/sceneTextStore.js</text>
</g>
<!-- scenes/charCreation.js&#45;&gt;scenes/sceneTextStore.js -->
<g id="edge40" class="edge"><title>scenes/charCreation.js&#45;&gt;scenes/sceneTextStore.js</title>
<path fill="none" stroke="#757575" d="M1406.26,-356.574C1460.76,-362.092 1533.42,-369.446 1591.82,-375.359"/>
<polygon fill="#757575" stroke="#757575" points="1591.51,-378.845 1601.81,-376.37 1592.21,-371.88 1591.51,-378.845"/>
</g>
<!-- scenes/menus.js&#45;&gt;actions/Core.js -->
<g id="edge41" class="edge"><title>scenes/menus.js&#45;&gt;actions/Core.js</title>
<path fill="none" stroke="#757575" d="M1523.27,-392.971C1556.37,-372.086 1626.38,-327.906 1665.01,-303.534"/>
<polygon fill="#757575" stroke="#757575" points="1667.07,-306.373 1673.66,-298.076 1663.33,-300.453 1667.07,-306.373"/>
</g>
<!-- scenes/menus.js&#45;&gt;scenes/sceneSymbols.js -->
<g id="edge42" class="edge"><title>scenes/menus.js&#45;&gt;scenes/sceneSymbols.js</title>
<path fill="none" stroke="#757575" d="M1566.05,-414.828C1644.99,-427.264 1786.83,-446.5 1909,-446.5 1909,-446.5 1909,-446.5 2385,-446.5 2487.66,-446.5 2605.04,-452.885 2685.58,-458.252"/>
<polygon fill="#757575" stroke="#757575" points="2685.5,-461.754 2695.71,-458.935 2685.97,-454.77 2685.5,-461.754"/>
</g>
<!-- scenes/menus.js&#45;&gt;scenes/sceneTextStore.js -->
<g id="edge43" class="edge"><title>scenes/menus.js&#45;&gt;scenes/sceneTextStore.js</title>
<path fill="none" stroke="#757575" d="M1566.23,-398.279C1574.42,-397.446 1582.99,-396.576 1591.64,-395.697"/>
<polygon fill="#757575" stroke="#757575" points="1592.21,-399.157 1601.81,-394.664 1591.51,-392.193 1592.21,-399.157"/>
</g>
<!-- scenes/sceneTextStore.js&#45;&gt;scenes/sceneSymbols.js -->
<g id="edge51" class="edge"><title>scenes/sceneTextStore.js&#45;&gt;scenes/sceneSymbols.js</title>
<path fill="none" stroke="#757575" d="M1784.18,-393.641C1865.3,-400.258 1987.77,-408.5 2094.5,-408.5 2094.5,-408.5 2094.5,-408.5 2385,-408.5 2507.69,-408.5 2539.18,-411.189 2660,-432.5 2685.79,-437.05 2714.06,-444.456 2736.98,-451.1"/>
<polygon fill="#757575" stroke="#757575" points="2736.2,-454.518 2746.78,-453.988 2738.17,-447.804 2736.2,-454.518"/>
</g>
<!-- scenes/sceneTextStore.js&#45;&gt;components/nameInput.js -->
<g id="edge50" class="edge"><title>scenes/sceneTextStore.js&#45;&gt;components/nameInput.js</title>
<path fill="none" stroke="#757575" d="M1739.07,-373.97C1772.61,-365.39 1818.56,-353.636 1854.22,-344.513"/>
<polygon fill="#757575" stroke="#757575" points="1855.17,-347.884 1863.99,-342.015 1853.43,-341.102 1855.17,-347.884"/>
</g>
<!-- setupTests.js -->
<g id="node34" class="node"><title>setupTests.js</title>
<path fill="none" stroke="#cfffac" d="M94.3333,-296C94.3333,-296 7.66667,-296 7.66667,-296 3.83333,-296 0,-292.167 0,-288.333 0,-288.333 0,-280.667 0,-280.667 0,-276.833 3.83333,-273 7.66667,-273 7.66667,-273 94.3333,-273 94.3333,-273 98.1667,-273 102,-276.833 102,-280.667 102,-280.667 102,-288.333 102,-288.333 102,-292.167 98.1667,-296 94.3333,-296"/>
<text text-anchor="middle" x="51" y="-280.8" font-family="Arial" font-size="14.00" fill="#cfffac">setupTests.js</text>
</g>
</g>
</svg>
