<?xml version="1.0" encoding="UTF-8" standalone="no"?>
<!DOCTYPE svg PUBLIC "-//W3C//DTD SVG 1.1//EN"
 "http://www.w3.org/Graphics/SVG/1.1/DTD/svg11.dtd">
<!-- Generated by graphviz version 2.38.0 (20140413.2041)
 -->
<!-- Title: G Pages: 1 -->
<svg width="3152pt" height="810pt"
 viewBox="0.00 0.00 3152.20 810.41" xmlns="http://www.w3.org/2000/svg" xmlns:xlink="http://www.w3.org/1999/xlink">
<g id="graph0" class="graph" transform="scale(1 1) rotate(0) translate(21.6 788.806)">
<title>G</title>
<polygon fill="#111111" stroke="none" points="-21.6,21.6 -21.6,-788.806 3130.6,-788.806 3130.6,21.6 -21.6,21.6"/>
<!-- actions/Core.js -->
<g id="node1" class="node"><title>actions/Core.js</title>
<path fill="none" stroke="#c6c5fe" d="M1740.83,-362.944C1740.83,-362.944 1645.17,-362.944 1645.17,-362.944 1641.33,-362.944 1637.5,-359.111 1637.5,-355.278 1637.5,-355.278 1637.5,-347.611 1637.5,-347.611 1637.5,-343.778 1641.33,-339.944 1645.17,-339.944 1645.17,-339.944 1740.83,-339.944 1740.83,-339.944 1744.67,-339.944 1748.5,-343.778 1748.5,-347.611 1748.5,-347.611 1748.5,-355.278 1748.5,-355.278 1748.5,-359.111 1744.67,-362.944 1740.83,-362.944"/>
<text text-anchor="middle" x="1693" y="-347.744" font-family="Arial" font-size="14.00" fill="#c6c5fe">actions/Core.js</text>
</g>
<!-- actions/coreMsg.js -->
<g id="node2" class="node"><title>actions/coreMsg.js</title>
<path fill="none" stroke="#cfffac" d="M2988.83,-72.9444C2988.83,-72.9444 2869.17,-72.9444 2869.17,-72.9444 2865.33,-72.9444 2861.5,-69.1111 2861.5,-65.2778 2861.5,-65.2778 2861.5,-57.6111 2861.5,-57.6111 2861.5,-53.7778 2865.33,-49.9444 2869.17,-49.9444 2869.17,-49.9444 2988.83,-49.9444 2988.83,-49.9444 2992.67,-49.9444 2996.5,-53.7778 2996.5,-57.6111 2996.5,-57.6111 2996.5,-65.2778 2996.5,-65.2778 2996.5,-69.1111 2992.67,-72.9444 2988.83,-72.9444"/>
<text text-anchor="middle" x="2929" y="-57.7444" font-family="Arial" font-size="14.00" fill="#cfffac">actions/coreMsg.js</text>
</g>
<!-- actions/Core.js&#45;&gt;actions/coreMsg.js -->
<g id="edge1" class="edge"><title>actions/Core.js&#45;&gt;actions/coreMsg.js</title>
<path fill="none" stroke="#757575" d="M1700.51,-339.799C1735.4,-279.069 1906.96,-1.44444 2127.5,-1.44444 2127.5,-1.44444 2127.5,-1.44444 2516,-1.44444 2644.72,-1.44444 2678.69,4.33333 2805,-20.4444 2834.51,-26.2328 2866.72,-37.1453 2890.77,-46.2575"/>
<polygon fill="#757575" stroke="#757575" points="2889.63,-49.569 2900.22,-49.9033 2892.15,-43.0382 2889.63,-49.569"/>
</g>
<!-- store/store.js -->
<g id="node3" class="node"><title>store/store.js</title>
<path fill="none" stroke="#c6c5fe" d="M2375.83,-362.944C2375.83,-362.944 2292.17,-362.944 2292.17,-362.944 2288.33,-362.944 2284.5,-359.111 2284.5,-355.278 2284.5,-355.278 2284.5,-347.611 2284.5,-347.611 2284.5,-343.778 2288.33,-339.944 2292.17,-339.944 2292.17,-339.944 2375.83,-339.944 2375.83,-339.944 2379.67,-339.944 2383.5,-343.778 2383.5,-347.611 2383.5,-347.611 2383.5,-355.278 2383.5,-355.278 2383.5,-359.111 2379.67,-362.944 2375.83,-362.944"/>
<text text-anchor="middle" x="2334" y="-347.744" font-family="Arial" font-size="14.00" fill="#c6c5fe">store/store.js</text>
</g>
<!-- actions/Core.js&#45;&gt;store/store.js -->
<g id="edge2" class="edge"><title>actions/Core.js&#45;&gt;store/store.js</title>
<path fill="none" stroke="#757575" d="M1748.76,-351.444C1868.15,-351.444 2151.04,-351.444 2274.11,-351.444"/>
<polygon fill="#757575" stroke="#757575" points="2274.46,-354.945 2284.46,-351.444 2274.46,-347.945 2274.46,-354.945"/>
</g>
<!-- reducers/root.js -->
<g id="node27" class="node"><title>reducers/root.js</title>
<path fill="none" stroke="#c6c5fe" d="M2565.33,-233.944C2565.33,-233.944 2464.67,-233.944 2464.67,-233.944 2460.83,-233.944 2457,-230.111 2457,-226.278 2457,-226.278 2457,-218.611 2457,-218.611 2457,-214.778 2460.83,-210.944 2464.67,-210.944 2464.67,-210.944 2565.33,-210.944 2565.33,-210.944 2569.17,-210.944 2573,-214.778 2573,-218.611 2573,-218.611 2573,-226.278 2573,-226.278 2573,-230.111 2569.17,-233.944 2565.33,-233.944"/>
<text text-anchor="middle" x="2515" y="-218.744" font-family="Arial" font-size="14.00" fill="#c6c5fe">reducers/root.js</text>
</g>
<!-- store/store.js&#45;&gt;reducers/root.js -->
<g id="edge65" class="edge"><title>store/store.js&#45;&gt;reducers/root.js</title>
<path fill="none" stroke="#757575" d="M2351.2,-339.769C2382.75,-317.032 2452.59,-266.703 2489.71,-239.953"/>
<polygon fill="#757575" stroke="#757575" points="2491.9,-242.687 2497.96,-234.001 2487.81,-237.008 2491.9,-242.687"/>
</g>
<!-- actions/Engine.js -->
<g id="node4" class="node"><title>actions/Engine.js</title>
<path fill="none" stroke="#c6c5fe" d="M951.833,-422.944C951.833,-422.944 843.167,-422.944 843.167,-422.944 839.333,-422.944 835.5,-419.111 835.5,-415.278 835.5,-415.278 835.5,-407.611 835.5,-407.611 835.5,-403.778 839.333,-399.944 843.167,-399.944 843.167,-399.944 951.833,-399.944 951.833,-399.944 955.667,-399.944 959.5,-403.778 959.5,-407.611 959.5,-407.611 959.5,-415.278 959.5,-415.278 959.5,-419.111 955.667,-422.944 951.833,-422.944"/>
<text text-anchor="middle" x="897.5" y="-407.744" font-family="Arial" font-size="14.00" fill="#c6c5fe">actions/Engine.js</text>
</g>
<!-- scenes/sceneFunctions.js -->
<g id="node5" class="node"><title>scenes/sceneFunctions.js</title>
<path fill="none" stroke="#c6c5fe" d="M1201.33,-422.944C1201.33,-422.944 1034.67,-422.944 1034.67,-422.944 1030.83,-422.944 1027,-419.111 1027,-415.278 1027,-415.278 1027,-407.611 1027,-407.611 1027,-403.778 1030.83,-399.944 1034.67,-399.944 1034.67,-399.944 1201.33,-399.944 1201.33,-399.944 1205.17,-399.944 1209,-403.778 1209,-407.611 1209,-407.611 1209,-415.278 1209,-415.278 1209,-419.111 1205.17,-422.944 1201.33,-422.944"/>
<text text-anchor="middle" x="1118" y="-407.744" font-family="Arial" font-size="14.00" fill="#c6c5fe">scenes/sceneFunctions.js</text>
</g>
<!-- actions/Engine.js&#45;&gt;scenes/sceneFunctions.js -->
<g id="edge3" class="edge"><title>actions/Engine.js&#45;&gt;scenes/sceneFunctions.js</title>
<path fill="none" stroke="#757575" d="M959.655,-411.444C977.394,-411.444 997.247,-411.444 1016.72,-411.444"/>
<polygon fill="#757575" stroke="#757575" points="1016.85,-414.945 1026.85,-411.444 1016.85,-407.945 1016.85,-414.945"/>
</g>
<!-- scenes/sceneFunctions.js&#45;&gt;actions/Core.js -->
<g id="edge55" class="edge"><title>scenes/sceneFunctions.js&#45;&gt;actions/Core.js</title>
<path fill="none" stroke="#757575" d="M1188.5,-399.813C1195.67,-397.281 1202.65,-394.199 1209,-390.444 1229.59,-378.279 1223.15,-360.175 1245,-350.444 1375.93,-292.134 1550.59,-318.479 1637.74,-337.681"/>
<polygon fill="#757575" stroke="#757575" points="1637.15,-341.135 1647.68,-339.922 1638.69,-334.306 1637.15,-341.135"/>
</g>
<!-- scenes/sceneFunctions.js&#45;&gt;store/store.js -->
<g id="edge60" class="edge"><title>scenes/sceneFunctions.js&#45;&gt;store/store.js</title>
<path fill="none" stroke="#757575" d="M1193.8,-399.868C1199.25,-397.3 1204.4,-394.195 1209,-390.444 1238.6,-366.324 1213.62,-334.19 1245,-312.444 1339.51,-246.96 1388.02,-293.444 1503,-293.444 1503,-293.444 1503,-293.444 1911,-293.444 2041.67,-293.444 2193,-321.075 2274.21,-338.194"/>
<polygon fill="#757575" stroke="#757575" points="2273.73,-341.67 2284.24,-340.33 2275.19,-334.824 2273.73,-341.67"/>
</g>
<!-- scenes/charCreation.js -->
<g id="node34" class="node"><title>scenes/charCreation.js</title>
<path fill="none" stroke="#c6c5fe" d="M1398.33,-586.944C1398.33,-586.944 1252.67,-586.944 1252.67,-586.944 1248.83,-586.944 1245,-583.111 1245,-579.278 1245,-579.278 1245,-571.611 1245,-571.611 1245,-567.778 1248.83,-563.944 1252.67,-563.944 1252.67,-563.944 1398.33,-563.944 1398.33,-563.944 1402.17,-563.944 1406,-567.778 1406,-571.611 1406,-571.611 1406,-579.278 1406,-579.278 1406,-583.111 1402.17,-586.944 1398.33,-586.944"/>
<text text-anchor="middle" x="1325.5" y="-571.744" font-family="Arial" font-size="14.00" fill="#c6c5fe">scenes/charCreation.js</text>
</g>
<!-- scenes/sceneFunctions.js&#45;&gt;scenes/charCreation.js -->
<g id="edge56" class="edge"><title>scenes/sceneFunctions.js&#45;&gt;scenes/charCreation.js</title>
<path fill="none" stroke="#757575" d="M1133.45,-422.977C1168.75,-451.148 1259.57,-523.63 1302.02,-557.501"/>
<polygon fill="#757575" stroke="#757575" points="1300.07,-560.423 1310.07,-563.925 1304.43,-554.952 1300.07,-560.423"/>
</g>
<!-- scenes/menus.js -->
<g id="node35" class="node"><title>scenes/menus.js</title>
<path fill="none" stroke="#c6c5fe" d="M1558.33,-460.944C1558.33,-460.944 1449.67,-460.944 1449.67,-460.944 1445.83,-460.944 1442,-457.111 1442,-453.278 1442,-453.278 1442,-445.611 1442,-445.611 1442,-441.778 1445.83,-437.944 1449.67,-437.944 1449.67,-437.944 1558.33,-437.944 1558.33,-437.944 1562.17,-437.944 1566,-441.778 1566,-445.611 1566,-445.611 1566,-453.278 1566,-453.278 1566,-457.111 1562.17,-460.944 1558.33,-460.944"/>
<text text-anchor="middle" x="1504" y="-445.744" font-family="Arial" font-size="14.00" fill="#c6c5fe">scenes/menus.js</text>
</g>
<!-- scenes/sceneFunctions.js&#45;&gt;scenes/menus.js -->
<g id="edge57" class="edge"><title>scenes/sceneFunctions.js&#45;&gt;scenes/menus.js</title>
<path fill="none" stroke="#757575" d="M1209.14,-421.659C1221.19,-422.966 1233.4,-424.26 1245,-425.444 1308.14,-431.889 1380.05,-438.52 1431.89,-443.174"/>
<polygon fill="#757575" stroke="#757575" points="1431.71,-446.672 1441.98,-444.078 1432.33,-439.7 1431.71,-446.672"/>
</g>
<!-- scenes/sceneSymbols.js -->
<g id="node36" class="node"><title>scenes/sceneSymbols.js</title>
<path fill="none" stroke="#cfffac" d="M3009.33,-487.944C3009.33,-487.944 2848.67,-487.944 2848.67,-487.944 2844.83,-487.944 2841,-484.111 2841,-480.278 2841,-480.278 2841,-472.611 2841,-472.611 2841,-468.778 2844.83,-464.944 2848.67,-464.944 2848.67,-464.944 3009.33,-464.944 3009.33,-464.944 3013.17,-464.944 3017,-468.778 3017,-472.611 3017,-472.611 3017,-480.278 3017,-480.278 3017,-484.111 3013.17,-487.944 3009.33,-487.944"/>
<text text-anchor="middle" x="2929" y="-472.744" font-family="Arial" font-size="14.00" fill="#cfffac">scenes/sceneSymbols.js</text>
</g>
<!-- scenes/sceneFunctions.js&#45;&gt;scenes/sceneSymbols.js -->
<g id="edge58" class="edge"><title>scenes/sceneFunctions.js&#45;&gt;scenes/sceneSymbols.js</title>
<path fill="none" stroke="#757575" d="M1209.04,-409.375C1355.68,-406.189 1655.24,-400.444 1909,-400.444 1909,-400.444 1909,-400.444 2129.5,-400.444 2392.13,-400.444 2701.18,-441.693 2845.71,-463.414"/>
<polygon fill="#757575" stroke="#757575" points="2845.42,-466.909 2855.83,-464.943 2846.46,-459.988 2845.42,-466.909"/>
</g>
<!-- scenes/tests/testing.js -->
<g id="node40" class="node"><title>scenes/tests/testing.js</title>
<path fill="none" stroke="#cfffac" d="M1396.83,-382.944C1396.83,-382.944 1254.17,-382.944 1254.17,-382.944 1250.33,-382.944 1246.5,-379.111 1246.5,-375.278 1246.5,-375.278 1246.5,-367.611 1246.5,-367.611 1246.5,-363.778 1250.33,-359.944 1254.17,-359.944 1254.17,-359.944 1396.83,-359.944 1396.83,-359.944 1400.67,-359.944 1404.5,-363.778 1404.5,-367.611 1404.5,-367.611 1404.5,-375.278 1404.5,-375.278 1404.5,-379.111 1400.67,-382.944 1396.83,-382.944"/>
<text text-anchor="middle" x="1325.5" y="-367.744" font-family="Arial" font-size="14.00" fill="#cfffac">scenes/tests/testing.js</text>
</g>
<!-- scenes/sceneFunctions.js&#45;&gt;scenes/tests/testing.js -->
<g id="edge59" class="edge"><title>scenes/sceneFunctions.js&#45;&gt;scenes/tests/testing.js</title>
<path fill="none" stroke="#757575" d="M1178.16,-399.928C1202.34,-395.222 1230.48,-389.746 1255.58,-384.86"/>
<polygon fill="#757575" stroke="#757575" points="1256.25,-388.295 1265.4,-382.948 1254.91,-381.424 1256.25,-388.295"/>
</g>
<!-- actions/Player.js -->
<g id="node6" class="node"><title>actions/Player.js</title>
<path fill="none" stroke="#c6c5fe" d="M2180.33,-606.944C2180.33,-606.944 2076.67,-606.944 2076.67,-606.944 2072.83,-606.944 2069,-603.111 2069,-599.278 2069,-599.278 2069,-591.611 2069,-591.611 2069,-587.778 2072.83,-583.944 2076.67,-583.944 2076.67,-583.944 2180.33,-583.944 2180.33,-583.944 2184.17,-583.944 2188,-587.778 2188,-591.611 2188,-591.611 2188,-599.278 2188,-599.278 2188,-603.111 2184.17,-606.944 2180.33,-606.944"/>
<text text-anchor="middle" x="2128.5" y="-591.744" font-family="Arial" font-size="14.00" fill="#c6c5fe">actions/Player.js</text>
</g>
<!-- actions/Player.js&#45;&gt;store/store.js -->
<g id="edge5" class="edge"><title>actions/Player.js&#45;&gt;store/store.js</title>
<path fill="none" stroke="#757575" d="M2188.04,-592.647C2200.23,-589.518 2212.06,-584.214 2221,-575.444 2270.24,-527.122 2222.73,-484.324 2257,-424.444 2269.61,-402.404 2290.89,-382.803 2307.73,-369.476"/>
<polygon fill="#757575" stroke="#757575" points="2310.25,-371.957 2316.06,-363.099 2305.99,-366.398 2310.25,-371.957"/>
</g>
<!-- actions/playerMsg.js -->
<g id="node7" class="node"><title>actions/playerMsg.js</title>
<path fill="none" stroke="#cfffac" d="M2993.83,-232.944C2993.83,-232.944 2864.17,-232.944 2864.17,-232.944 2860.33,-232.944 2856.5,-229.111 2856.5,-225.278 2856.5,-225.278 2856.5,-217.611 2856.5,-217.611 2856.5,-213.778 2860.33,-209.944 2864.17,-209.944 2864.17,-209.944 2993.83,-209.944 2993.83,-209.944 2997.67,-209.944 3001.5,-213.778 3001.5,-217.611 3001.5,-217.611 3001.5,-225.278 3001.5,-225.278 3001.5,-229.111 2997.67,-232.944 2993.83,-232.944"/>
<text text-anchor="middle" x="2929" y="-217.744" font-family="Arial" font-size="14.00" fill="#cfffac">actions/playerMsg.js</text>
</g>
<!-- actions/Player.js&#45;&gt;actions/playerMsg.js -->
<g id="edge4" class="edge"><title>actions/Player.js&#45;&gt;actions/playerMsg.js</title>
<path fill="none" stroke="#757575" d="M2188.26,-588.485C2199.64,-585.543 2211.09,-581.367 2221,-575.444 2242.1,-562.832 2237.43,-548.332 2257,-533.444 2366.62,-450.034 2763.42,-287.438 2889.36,-236.847"/>
<polygon fill="#757575" stroke="#757575" points="2891.01,-239.957 2898.99,-232.987 2888.4,-233.46 2891.01,-239.957"/>
</g>
<!-- symbols/breastCup.js -->
<g id="node8" class="node"><title>symbols/breastCup.js</title>
<path fill="none" stroke="#c6c5fe" d="M2403.33,-565.944C2403.33,-565.944 2264.67,-565.944 2264.67,-565.944 2260.83,-565.944 2257,-562.111 2257,-558.278 2257,-558.278 2257,-550.611 2257,-550.611 2257,-546.778 2260.83,-542.944 2264.67,-542.944 2264.67,-542.944 2403.33,-542.944 2403.33,-542.944 2407.17,-542.944 2411,-546.778 2411,-550.611 2411,-550.611 2411,-558.278 2411,-558.278 2411,-562.111 2407.17,-565.944 2403.33,-565.944"/>
<text text-anchor="middle" x="2334" y="-550.744" font-family="Arial" font-size="14.00" fill="#c6c5fe">symbols/breastCup.js</text>
</g>
<!-- actions/Player.js&#45;&gt;symbols/breastCup.js -->
<g id="edge6" class="edge"><title>actions/Player.js&#45;&gt;symbols/breastCup.js</title>
<path fill="none" stroke="#757575" d="M2186.73,-583.915C2211.32,-578.959 2240.24,-573.132 2265.85,-567.974"/>
<polygon fill="#757575" stroke="#757575" points="2266.74,-571.365 2275.85,-565.959 2265.36,-564.503 2266.74,-571.365"/>
</g>
<!-- symbols/cockType.js -->
<g id="node9" class="node"><title>symbols/cockType.js</title>
<path fill="none" stroke="#cfffac" d="M2401.33,-606.944C2401.33,-606.944 2266.67,-606.944 2266.67,-606.944 2262.83,-606.944 2259,-603.111 2259,-599.278 2259,-599.278 2259,-591.611 2259,-591.611 2259,-587.778 2262.83,-583.944 2266.67,-583.944 2266.67,-583.944 2401.33,-583.944 2401.33,-583.944 2405.17,-583.944 2409,-587.778 2409,-591.611 2409,-591.611 2409,-599.278 2409,-599.278 2409,-603.111 2405.17,-606.944 2401.33,-606.944"/>
<text text-anchor="middle" x="2334" y="-591.744" font-family="Arial" font-size="14.00" fill="#cfffac">symbols/cockType.js</text>
</g>
<!-- actions/Player.js&#45;&gt;symbols/cockType.js -->
<g id="edge7" class="edge"><title>actions/Player.js&#45;&gt;symbols/cockType.js</title>
<path fill="none" stroke="#757575" d="M2188.09,-595.444C2206.97,-595.444 2228.29,-595.444 2248.65,-595.444"/>
<polygon fill="#757575" stroke="#757575" points="2248.87,-598.945 2258.87,-595.444 2248.87,-591.945 2248.87,-598.945"/>
</g>
<!-- symbols/vaginas.js -->
<g id="node10" class="node"><title>symbols/vaginas.js</title>
<path fill="none" stroke="#c6c5fe" d="M2575.33,-684.944C2575.33,-684.944 2454.67,-684.944 2454.67,-684.944 2450.83,-684.944 2447,-681.111 2447,-677.278 2447,-677.278 2447,-669.611 2447,-669.611 2447,-665.778 2450.83,-661.944 2454.67,-661.944 2454.67,-661.944 2575.33,-661.944 2575.33,-661.944 2579.17,-661.944 2583,-665.778 2583,-669.611 2583,-669.611 2583,-677.278 2583,-677.278 2583,-681.111 2579.17,-684.944 2575.33,-684.944"/>
<text text-anchor="middle" x="2515" y="-669.744" font-family="Arial" font-size="14.00" fill="#c6c5fe">symbols/vaginas.js</text>
</g>
<!-- actions/Player.js&#45;&gt;symbols/vaginas.js -->
<g id="edge8" class="edge"><title>actions/Player.js&#45;&gt;symbols/vaginas.js</title>
<path fill="none" stroke="#757575" d="M2186.23,-606.954C2255.66,-621.038 2373.07,-644.856 2446.91,-659.835"/>
<polygon fill="#757575" stroke="#757575" points="2446.54,-663.33 2457.03,-661.888 2447.93,-656.47 2446.54,-663.33"/>
</g>
<!-- utils.js -->
<g id="node33" class="node"><title>utils.js</title>
<path fill="none" stroke="#cfffac" d="M3101.33,-535.944C3101.33,-535.944 3060.67,-535.944 3060.67,-535.944 3056.83,-535.944 3053,-532.111 3053,-528.278 3053,-528.278 3053,-520.611 3053,-520.611 3053,-516.778 3056.83,-512.944 3060.67,-512.944 3060.67,-512.944 3101.33,-512.944 3101.33,-512.944 3105.17,-512.944 3109,-516.778 3109,-520.611 3109,-520.611 3109,-528.278 3109,-528.278 3109,-532.111 3105.17,-535.944 3101.33,-535.944"/>
<text text-anchor="middle" x="3081" y="-520.744" font-family="Arial" font-size="14.00" fill="#cfffac">utils.js</text>
</g>
<!-- symbols/breastCup.js&#45;&gt;utils.js -->
<g id="edge66" class="edge"><title>symbols/breastCup.js&#45;&gt;utils.js</title>
<path fill="none" stroke="#757575" d="M2411.23,-551.375C2568.92,-545.025 2925.97,-530.647 3042.47,-525.956"/>
<polygon fill="#757575" stroke="#757575" points="3042.81,-529.445 3052.66,-525.545 3042.53,-522.45 3042.81,-529.445"/>
</g>
<!-- symbols/vaginas.js&#45;&gt;utils.js -->
<g id="edge70" class="edge"><title>symbols/vaginas.js&#45;&gt;utils.js</title>
<path fill="none" stroke="#757575" d="M2583.46,-678.038C2703.3,-684.896 2947.27,-692.595 3017,-647.444 3052.54,-624.433 3069.02,-574.706 3075.83,-546.025"/>
<polygon fill="#757575" stroke="#757575" points="3079.26,-546.68 3077.98,-536.163 3072.43,-545.185 3079.26,-546.68"/>
</g>
<!-- actions/engineMsg.js -->
<g id="node11" class="node"><title>actions/engineMsg.js</title>
<path fill="none" stroke="#cfffac" d="M2778.83,-173.944C2778.83,-173.944 2645.17,-173.944 2645.17,-173.944 2641.33,-173.944 2637.5,-170.111 2637.5,-166.278 2637.5,-166.278 2637.5,-158.611 2637.5,-158.611 2637.5,-154.778 2641.33,-150.944 2645.17,-150.944 2645.17,-150.944 2778.83,-150.944 2778.83,-150.944 2782.67,-150.944 2786.5,-154.778 2786.5,-158.611 2786.5,-158.611 2786.5,-166.278 2786.5,-166.278 2786.5,-170.111 2782.67,-173.944 2778.83,-173.944"/>
<text text-anchor="middle" x="2712" y="-158.744" font-family="Arial" font-size="14.00" fill="#cfffac">actions/engineMsg.js</text>
</g>
<!-- appearance/appearance.js -->
<g id="node12" class="node"><title>appearance/appearance.js</title>
<path fill="none" stroke="#c6c5fe" d="M2213.33,-565.944C2213.33,-565.944 2043.67,-565.944 2043.67,-565.944 2039.83,-565.944 2036,-562.111 2036,-558.278 2036,-558.278 2036,-550.611 2036,-550.611 2036,-546.778 2039.83,-542.944 2043.67,-542.944 2043.67,-542.944 2213.33,-542.944 2213.33,-542.944 2217.17,-542.944 2221,-546.778 2221,-550.611 2221,-550.611 2221,-558.278 2221,-558.278 2221,-562.111 2217.17,-565.944 2213.33,-565.944"/>
<text text-anchor="middle" x="2128.5" y="-550.744" font-family="Arial" font-size="14.00" fill="#c6c5fe">appearance/appearance.js</text>
</g>
<!-- appearance/appearance.js&#45;&gt;store/store.js -->
<g id="edge9" class="edge"><title>appearance/appearance.js&#45;&gt;store/store.js</title>
<path fill="none" stroke="#757575" d="M2198.4,-542.869C2206.7,-539.268 2214.52,-534.57 2221,-528.444 2256.55,-494.846 2230.63,-465.641 2257,-424.444 2270.77,-402.925 2292.14,-383.16 2308.71,-369.639"/>
<polygon fill="#757575" stroke="#757575" points="2311.22,-372.118 2316.88,-363.161 2306.87,-366.634 2311.22,-372.118"/>
</g>
<!-- appearance/appearance.js&#45;&gt;symbols/breastCup.js -->
<g id="edge10" class="edge"><title>appearance/appearance.js&#45;&gt;symbols/breastCup.js</title>
<path fill="none" stroke="#757575" d="M2221.13,-554.444C2229.6,-554.444 2238.17,-554.444 2246.6,-554.444"/>
<polygon fill="#757575" stroke="#757575" points="2246.79,-557.945 2256.79,-554.444 2246.79,-550.945 2246.79,-557.945"/>
</g>
<!-- components/appRoot.js -->
<g id="node13" class="node"><title>components/appRoot.js</title>
<path fill="none" stroke="#c6c5fe" d="M298.333,-320.944C298.333,-320.944 145.667,-320.944 145.667,-320.944 141.833,-320.944 138,-317.111 138,-313.278 138,-313.278 138,-305.611 138,-305.611 138,-301.778 141.833,-297.944 145.667,-297.944 145.667,-297.944 298.333,-297.944 298.333,-297.944 302.167,-297.944 306,-301.778 306,-305.611 306,-305.611 306,-313.278 306,-313.278 306,-317.111 302.167,-320.944 298.333,-320.944"/>
<text text-anchor="middle" x="222" y="-305.744" font-family="Arial" font-size="14.00" fill="#c6c5fe">components/appRoot.js</text>
</g>
<!-- components/lowerButtons.js -->
<g id="node14" class="node"><title>components/lowerButtons.js</title>
<path fill="none" stroke="#c6c5fe" d="M529.333,-402.944C529.333,-402.944 349.667,-402.944 349.667,-402.944 345.833,-402.944 342,-399.111 342,-395.278 342,-395.278 342,-387.611 342,-387.611 342,-383.778 345.833,-379.944 349.667,-379.944 349.667,-379.944 529.333,-379.944 529.333,-379.944 533.167,-379.944 537,-383.778 537,-387.611 537,-387.611 537,-395.278 537,-395.278 537,-399.111 533.167,-402.944 529.333,-402.944"/>
<text text-anchor="middle" x="439.5" y="-387.744" font-family="Arial" font-size="14.00" fill="#c6c5fe">components/lowerButtons.js</text>
</g>
<!-- components/appRoot.js&#45;&gt;components/lowerButtons.js -->
<g id="edge11" class="edge"><title>components/appRoot.js&#45;&gt;components/lowerButtons.js</title>
<path fill="none" stroke="#757575" d="M241.687,-320.965C264.56,-334.602 304.845,-357.135 342,-370.444 349.207,-373.026 356.835,-375.346 364.519,-377.417"/>
<polygon fill="#757575" stroke="#757575" points="363.698,-380.819 374.253,-379.908 365.433,-374.038 363.698,-380.819"/>
</g>
<!-- components/menuBar.js -->
<g id="node15" class="node"><title>components/menuBar.js</title>
<path fill="none" stroke="#c6c5fe" d="M516.833,-361.944C516.833,-361.944 362.167,-361.944 362.167,-361.944 358.333,-361.944 354.5,-358.111 354.5,-354.278 354.5,-354.278 354.5,-346.611 354.5,-346.611 354.5,-342.778 358.333,-338.944 362.167,-338.944 362.167,-338.944 516.833,-338.944 516.833,-338.944 520.667,-338.944 524.5,-342.778 524.5,-346.611 524.5,-346.611 524.5,-354.278 524.5,-354.278 524.5,-358.111 520.667,-361.944 516.833,-361.944"/>
<text text-anchor="middle" x="439.5" y="-346.744" font-family="Arial" font-size="14.00" fill="#c6c5fe">components/menuBar.js</text>
</g>
<!-- components/appRoot.js&#45;&gt;components/menuBar.js -->
<g id="edge12" class="edge"><title>components/appRoot.js&#45;&gt;components/menuBar.js</title>
<path fill="none" stroke="#757575" d="M283.602,-320.974C309.88,-325.974 340.817,-331.86 368.106,-337.052"/>
<polygon fill="#757575" stroke="#757575" points="367.502,-340.499 377.98,-338.93 368.81,-333.623 367.502,-340.499"/>
</g>
<!-- components/output.js -->
<g id="node16" class="node"><title>components/output.js</title>
<path fill="none" stroke="#cfffac" d="M507.833,-279.944C507.833,-279.944 371.167,-279.944 371.167,-279.944 367.333,-279.944 363.5,-276.111 363.5,-272.278 363.5,-272.278 363.5,-264.611 363.5,-264.611 363.5,-260.778 367.333,-256.944 371.167,-256.944 371.167,-256.944 507.833,-256.944 507.833,-256.944 511.667,-256.944 515.5,-260.778 515.5,-264.611 515.5,-264.611 515.5,-272.278 515.5,-272.278 515.5,-276.111 511.667,-279.944 507.833,-279.944"/>
<text text-anchor="middle" x="439.5" y="-264.744" font-family="Arial" font-size="14.00" fill="#cfffac">components/output.js</text>
</g>
<!-- components/appRoot.js&#45;&gt;components/output.js -->
<g id="edge13" class="edge"><title>components/appRoot.js&#45;&gt;components/output.js</title>
<path fill="none" stroke="#757575" d="M283.602,-297.915C309.88,-292.915 340.817,-287.029 368.106,-281.837"/>
<polygon fill="#757575" stroke="#757575" points="368.81,-285.266 377.98,-279.959 367.502,-278.39 368.81,-285.266"/>
</g>
<!-- components/statBar.js -->
<g id="node17" class="node"><title>components/statBar.js</title>
<path fill="none" stroke="#c6c5fe" d="M510.833,-320.944C510.833,-320.944 368.167,-320.944 368.167,-320.944 364.333,-320.944 360.5,-317.111 360.5,-313.278 360.5,-313.278 360.5,-305.611 360.5,-305.611 360.5,-301.778 364.333,-297.944 368.167,-297.944 368.167,-297.944 510.833,-297.944 510.833,-297.944 514.667,-297.944 518.5,-301.778 518.5,-305.611 518.5,-305.611 518.5,-313.278 518.5,-313.278 518.5,-317.111 514.667,-320.944 510.833,-320.944"/>
<text text-anchor="middle" x="439.5" y="-305.744" font-family="Arial" font-size="14.00" fill="#c6c5fe">components/statBar.js</text>
</g>
<!-- components/appRoot.js&#45;&gt;components/statBar.js -->
<g id="edge14" class="edge"><title>components/appRoot.js&#45;&gt;components/statBar.js</title>
<path fill="none" stroke="#757575" d="M306.01,-309.444C320.557,-309.444 335.739,-309.444 350.418,-309.444"/>
<polygon fill="#757575" stroke="#757575" points="350.486,-312.945 360.486,-309.444 350.486,-305.945 350.486,-312.945"/>
</g>
<!-- components/buttonGrid.js -->
<g id="node19" class="node"><title>components/buttonGrid.js</title>
<path fill="none" stroke="#c6c5fe" d="M752.333,-402.944C752.333,-402.944 588.667,-402.944 588.667,-402.944 584.833,-402.944 581,-399.111 581,-395.278 581,-395.278 581,-387.611 581,-387.611 581,-383.778 584.833,-379.944 588.667,-379.944 588.667,-379.944 752.333,-379.944 752.333,-379.944 756.167,-379.944 760,-383.778 760,-387.611 760,-387.611 760,-395.278 760,-395.278 760,-399.111 756.167,-402.944 752.333,-402.944"/>
<text text-anchor="middle" x="670.5" y="-387.744" font-family="Arial" font-size="14.00" fill="#c6c5fe">components/buttonGrid.js</text>
</g>
<!-- components/lowerButtons.js&#45;&gt;components/buttonGrid.js -->
<g id="edge18" class="edge"><title>components/lowerButtons.js&#45;&gt;components/buttonGrid.js</title>
<path fill="none" stroke="#757575" d="M537.285,-391.444C548.313,-391.444 559.566,-391.444 570.621,-391.444"/>
<polygon fill="#757575" stroke="#757575" points="570.705,-394.945 580.705,-391.444 570.705,-387.945 570.705,-394.945"/>
</g>
<!-- components/menuBar.js&#45;&gt;components/buttonGrid.js -->
<g id="edge19" class="edge"><title>components/menuBar.js&#45;&gt;components/buttonGrid.js</title>
<path fill="none" stroke="#757575" d="M504.899,-361.974C532.945,-366.996 565.986,-372.911 595.078,-378.12"/>
<polygon fill="#757575" stroke="#757575" points="594.728,-381.613 605.188,-379.93 595.962,-374.722 594.728,-381.613"/>
</g>
<!-- components/spriteDisplay.js -->
<g id="node22" class="node"><title>components/spriteDisplay.js</title>
<path fill="none" stroke="#cfffac" d="M760.333,-279.944C760.333,-279.944 580.667,-279.944 580.667,-279.944 576.833,-279.944 573,-276.111 573,-272.278 573,-272.278 573,-264.611 573,-264.611 573,-260.778 576.833,-256.944 580.667,-256.944 580.667,-256.944 760.333,-256.944 760.333,-256.944 764.167,-256.944 768,-260.778 768,-264.611 768,-264.611 768,-272.278 768,-272.278 768,-276.111 764.167,-279.944 760.333,-279.944"/>
<text text-anchor="middle" x="670.5" y="-264.744" font-family="Arial" font-size="14.00" fill="#cfffac">components/spriteDisplay.js</text>
</g>
<!-- components/statBar.js&#45;&gt;components/spriteDisplay.js -->
<g id="edge22" class="edge"><title>components/statBar.js&#45;&gt;components/spriteDisplay.js</title>
<path fill="none" stroke="#757575" d="M504.899,-297.915C532.945,-292.893 565.986,-286.977 595.078,-281.769"/>
<polygon fill="#757575" stroke="#757575" points="595.962,-285.166 605.188,-279.959 594.728,-278.276 595.962,-285.166"/>
</g>
<!-- components/statDisplay.js -->
<g id="node24" class="node"><title>components/statDisplay.js</title>
<path fill="none" stroke="#c6c5fe" d="M753.833,-361.944C753.833,-361.944 587.167,-361.944 587.167,-361.944 583.333,-361.944 579.5,-358.111 579.5,-354.278 579.5,-354.278 579.5,-346.611 579.5,-346.611 579.5,-342.778 583.333,-338.944 587.167,-338.944 587.167,-338.944 753.833,-338.944 753.833,-338.944 757.667,-338.944 761.5,-342.778 761.5,-346.611 761.5,-346.611 761.5,-354.278 761.5,-354.278 761.5,-358.111 757.667,-361.944 753.833,-361.944"/>
<text text-anchor="middle" x="670.5" y="-346.744" font-family="Arial" font-size="14.00" fill="#c6c5fe">components/statDisplay.js</text>
</g>
<!-- components/statBar.js&#45;&gt;components/statDisplay.js -->
<g id="edge23" class="edge"><title>components/statBar.js&#45;&gt;components/statDisplay.js</title>
<path fill="none" stroke="#757575" d="M504.899,-320.974C532.945,-325.996 565.986,-331.911 595.078,-337.12"/>
<polygon fill="#757575" stroke="#757575" points="594.728,-340.613 605.188,-338.93 595.962,-333.722 594.728,-340.613"/>
</g>
<!-- components/timeDisplay.js -->
<g id="node25" class="node"><title>components/timeDisplay.js</title>
<path fill="none" stroke="#cfffac" d="M756.333,-320.944C756.333,-320.944 584.667,-320.944 584.667,-320.944 580.833,-320.944 577,-317.111 577,-313.278 577,-313.278 577,-305.611 577,-305.611 577,-301.778 580.833,-297.944 584.667,-297.944 584.667,-297.944 756.333,-297.944 756.333,-297.944 760.167,-297.944 764,-301.778 764,-305.611 764,-305.611 764,-313.278 764,-313.278 764,-317.111 760.167,-320.944 756.333,-320.944"/>
<text text-anchor="middle" x="670.5" y="-305.744" font-family="Arial" font-size="14.00" fill="#cfffac">components/timeDisplay.js</text>
</g>
<!-- components/statBar.js&#45;&gt;components/timeDisplay.js -->
<g id="edge24" class="edge"><title>components/statBar.js&#45;&gt;components/timeDisplay.js</title>
<path fill="none" stroke="#757575" d="M518.668,-309.444C533.974,-309.444 550.245,-309.444 566.223,-309.444"/>
<polygon fill="#757575" stroke="#757575" points="566.666,-312.945 576.666,-309.444 566.666,-305.945 566.666,-312.945"/>
</g>
<!-- components/button.js -->
<g id="node18" class="node"><title>components/button.js</title>
<path fill="none" stroke="#cfffac" d="M1186.33,-381.944C1186.33,-381.944 1049.67,-381.944 1049.67,-381.944 1045.83,-381.944 1042,-378.111 1042,-374.278 1042,-374.278 1042,-366.611 1042,-366.611 1042,-362.778 1045.83,-358.944 1049.67,-358.944 1049.67,-358.944 1186.33,-358.944 1186.33,-358.944 1190.17,-358.944 1194,-362.778 1194,-366.611 1194,-366.611 1194,-374.278 1194,-374.278 1194,-378.111 1190.17,-381.944 1186.33,-381.944"/>
<text text-anchor="middle" x="1118" y="-366.744" font-family="Arial" font-size="14.00" fill="#cfffac">components/button.js</text>
</g>
<!-- components/buttonGrid.js&#45;&gt;actions/Engine.js -->
<g id="edge15" class="edge"><title>components/buttonGrid.js&#45;&gt;actions/Engine.js</title>
<path fill="none" stroke="#757575" d="M760.103,-399.32C781.768,-401.246 804.672,-403.282 825.398,-405.124"/>
<polygon fill="#757575" stroke="#757575" points="825.112,-408.613 835.383,-406.012 825.732,-401.64 825.112,-408.613"/>
</g>
<!-- components/buttonWrap.js -->
<g id="node20" class="node"><title>components/buttonWrap.js</title>
<path fill="none" stroke="#c6c5fe" d="M983.333,-381.944C983.333,-381.944 811.667,-381.944 811.667,-381.944 807.833,-381.944 804,-378.111 804,-374.278 804,-374.278 804,-366.611 804,-366.611 804,-362.778 807.833,-358.944 811.667,-358.944 811.667,-358.944 983.333,-358.944 983.333,-358.944 987.167,-358.944 991,-362.778 991,-366.611 991,-366.611 991,-374.278 991,-374.278 991,-378.111 987.167,-381.944 983.333,-381.944"/>
<text text-anchor="middle" x="897.5" y="-366.744" font-family="Arial" font-size="14.00" fill="#c6c5fe">components/buttonWrap.js</text>
</g>
<!-- components/buttonGrid.js&#45;&gt;components/buttonWrap.js -->
<g id="edge16" class="edge"><title>components/buttonGrid.js&#45;&gt;components/buttonWrap.js</title>
<path fill="none" stroke="#757575" d="M760.103,-383.175C771.119,-382.147 782.455,-381.089 793.663,-380.043"/>
<polygon fill="#757575" stroke="#757575" points="794.275,-383.501 803.906,-379.087 793.624,-376.531 794.275,-383.501"/>
</g>
<!-- components/buttonWrap.js&#45;&gt;components/button.js -->
<g id="edge17" class="edge"><title>components/buttonWrap.js&#45;&gt;components/button.js</title>
<path fill="none" stroke="#757575" d="M991.164,-370.444C1004.6,-370.444 1018.39,-370.444 1031.67,-370.444"/>
<polygon fill="#757575" stroke="#757575" points="1031.72,-373.945 1041.72,-370.444 1031.72,-366.945 1031.72,-373.945"/>
</g>
<!-- components/nameInput.js -->
<g id="node21" class="node"><title>components/nameInput.js</title>
<path fill="none" stroke="#c6c5fe" d="M1992.33,-527.944C1992.33,-527.944 1827.67,-527.944 1827.67,-527.944 1823.83,-527.944 1820,-524.111 1820,-520.278 1820,-520.278 1820,-512.611 1820,-512.611 1820,-508.778 1823.83,-504.944 1827.67,-504.944 1827.67,-504.944 1992.33,-504.944 1992.33,-504.944 1996.17,-504.944 2000,-508.778 2000,-512.611 2000,-512.611 2000,-520.278 2000,-520.278 2000,-524.111 1996.17,-527.944 1992.33,-527.944"/>
<text text-anchor="middle" x="1910" y="-512.744" font-family="Arial" font-size="14.00" fill="#c6c5fe">components/nameInput.js</text>
</g>
<!-- components/nameInput.js&#45;&gt;store/store.js -->
<g id="edge21" class="edge"><title>components/nameInput.js&#45;&gt;store/store.js</title>
<path fill="none" stroke="#757575" d="M1940.67,-504.842C2015.21,-475.7 2210.28,-399.429 2293.96,-366.71"/>
<polygon fill="#757575" stroke="#757575" points="2295.32,-369.935 2303.36,-363.034 2292.77,-363.416 2295.32,-369.935"/>
</g>
<!-- components/nameInput.js&#45;&gt;actions/Player.js -->
<g id="edge20" class="edge"><title>components/nameInput.js&#45;&gt;actions/Player.js</title>
<path fill="none" stroke="#757575" d="M1931.63,-527.961C1955.93,-541.104 1997.84,-562.453 2036,-575.444 2043.36,-577.95 2051.16,-580.217 2058.99,-582.247"/>
<polygon fill="#757575" stroke="#757575" points="2058.33,-585.69 2068.87,-584.693 2060.01,-578.894 2058.33,-585.69"/>
</g>
<!-- components/stat.js -->
<g id="node23" class="node"><title>components/stat.js</title>
<path fill="none" stroke="#cfffac" d="M957.833,-340.944C957.833,-340.944 837.167,-340.944 837.167,-340.944 833.333,-340.944 829.5,-337.111 829.5,-333.278 829.5,-333.278 829.5,-325.611 829.5,-325.611 829.5,-321.778 833.333,-317.944 837.167,-317.944 837.167,-317.944 957.833,-317.944 957.833,-317.944 961.667,-317.944 965.5,-321.778 965.5,-325.611 965.5,-325.611 965.5,-333.278 965.5,-333.278 965.5,-337.111 961.667,-340.944 957.833,-340.944"/>
<text text-anchor="middle" x="897.5" y="-325.744" font-family="Arial" font-size="14.00" fill="#cfffac">components/stat.js</text>
</g>
<!-- components/statDisplay.js&#45;&gt;components/stat.js -->
<g id="edge25" class="edge"><title>components/statDisplay.js&#45;&gt;components/stat.js</title>
<path fill="none" stroke="#757575" d="M761.72,-342.024C780.804,-340.243 800.779,-338.378 819.327,-336.647"/>
<polygon fill="#757575" stroke="#757575" points="819.84,-340.115 829.471,-335.7 819.189,-333.145 819.84,-340.115"/>
</g>
<!-- index.js -->
<g id="node26" class="node"><title>index.js</title>
<path fill="none" stroke="#c6c5fe" d="M75.8333,-279.944C75.8333,-279.944 26.1667,-279.944 26.1667,-279.944 22.3333,-279.944 18.5,-276.111 18.5,-272.278 18.5,-272.278 18.5,-264.611 18.5,-264.611 18.5,-260.778 22.3333,-256.944 26.1667,-256.944 26.1667,-256.944 75.8333,-256.944 75.8333,-256.944 79.6667,-256.944 83.5,-260.778 83.5,-264.611 83.5,-264.611 83.5,-272.278 83.5,-272.278 83.5,-276.111 79.6667,-279.944 75.8333,-279.944"/>
<text text-anchor="middle" x="51" y="-264.744" font-family="Arial" font-size="14.00" fill="#c6c5fe">index.js</text>
</g>
<!-- index.js&#45;&gt;store/store.js -->
<g id="edge27" class="edge"><title>index.js&#45;&gt;store/store.js</title>
<path fill="none" stroke="#757575" d="M83.952,-262.883C149.963,-251.892 306.28,-228.444 438.5,-228.444 438.5,-228.444 438.5,-228.444 1911,-228.444 2052.15,-228.444 2087.66,-251.154 2221,-297.444 2250.09,-307.541 2281.53,-323.149 2303.67,-334.993"/>
<polygon fill="#757575" stroke="#757575" points="2302.1,-338.122 2312.56,-339.811 2305.43,-331.968 2302.1,-338.122"/>
</g>
<!-- index.js&#45;&gt;components/appRoot.js -->
<g id="edge26" class="edge"><title>index.js&#45;&gt;components/appRoot.js</title>
<path fill="none" stroke="#757575" d="M83.7876,-276.156C106.171,-281.586 136.77,-289.01 163.392,-295.469"/>
<polygon fill="#757575" stroke="#757575" points="162.832,-298.934 173.376,-297.891 164.483,-292.132 162.832,-298.934"/>
</g>
<!-- reducers/root.js&#45;&gt;actions/coreMsg.js -->
<g id="edge28" class="edge"><title>reducers/root.js&#45;&gt;actions/coreMsg.js</title>
<path fill="none" stroke="#757575" d="M2521.84,-210.909C2535.18,-185.89 2570.53,-126.774 2619,-100.444 2657.77,-79.3876 2772.65,-69.3292 2850.87,-64.8033"/>
<polygon fill="#757575" stroke="#757575" points="2851.39,-68.2801 2861.18,-64.2267 2851,-61.291 2851.39,-68.2801"/>
</g>
<!-- reducers/root.js&#45;&gt;actions/playerMsg.js -->
<g id="edge30" class="edge"><title>reducers/root.js&#45;&gt;actions/playerMsg.js</title>
<path fill="none" stroke="#757575" d="M2573.2,-221.79C2588.11,-221.647 2604.16,-221.516 2619,-221.444 2695.99,-221.071 2783.76,-221.116 2846.04,-221.228"/>
<polygon fill="#757575" stroke="#757575" points="2846.19,-224.728 2856.2,-221.247 2846.2,-217.728 2846.19,-224.728"/>
</g>
<!-- reducers/root.js&#45;&gt;actions/engineMsg.js -->
<g id="edge29" class="edge"><title>reducers/root.js&#45;&gt;actions/engineMsg.js</title>
<path fill="none" stroke="#757575" d="M2549.75,-210.895C2569.8,-204.134 2595.77,-195.557 2619,-188.444 2631.9,-184.495 2645.88,-180.432 2658.96,-176.726"/>
<polygon fill="#757575" stroke="#757575" points="2660.07,-180.049 2668.75,-173.97 2658.18,-173.311 2660.07,-180.049"/>
</g>
<!-- reducers/updateBodyArr.js -->
<g id="node28" class="node"><title>reducers/updateBodyArr.js</title>
<path fill="none" stroke="#c6c5fe" d="M2797.33,-253.944C2797.33,-253.944 2626.67,-253.944 2626.67,-253.944 2622.83,-253.944 2619,-250.111 2619,-246.278 2619,-246.278 2619,-238.611 2619,-238.611 2619,-234.778 2622.83,-230.944 2626.67,-230.944 2626.67,-230.944 2797.33,-230.944 2797.33,-230.944 2801.17,-230.944 2805,-234.778 2805,-238.611 2805,-238.611 2805,-246.278 2805,-246.278 2805,-250.111 2801.17,-253.944 2797.33,-253.944"/>
<text text-anchor="middle" x="2712" y="-238.744" font-family="Arial" font-size="14.00" fill="#c6c5fe">reducers/updateBodyArr.js</text>
</g>
<!-- reducers/root.js&#45;&gt;reducers/updateBodyArr.js -->
<g id="edge31" class="edge"><title>reducers/root.js&#45;&gt;reducers/updateBodyArr.js</title>
<path fill="none" stroke="#757575" d="M2573.19,-228.31C2584.43,-229.463 2596.53,-230.704 2608.74,-231.956"/>
<polygon fill="#757575" stroke="#757575" points="2608.69,-235.47 2619,-233.008 2609.41,-228.506 2608.69,-235.47"/>
</g>
<!-- reducers/updateButtons.js -->
<g id="node29" class="node"><title>reducers/updateButtons.js</title>
<path fill="none" stroke="#c6c5fe" d="M2795.33,-52.9444C2795.33,-52.9444 2628.67,-52.9444 2628.67,-52.9444 2624.83,-52.9444 2621,-49.1111 2621,-45.2778 2621,-45.2778 2621,-37.6111 2621,-37.6111 2621,-33.7778 2624.83,-29.9444 2628.67,-29.9444 2628.67,-29.9444 2795.33,-29.9444 2795.33,-29.9444 2799.17,-29.9444 2803,-33.7778 2803,-37.6111 2803,-37.6111 2803,-45.2778 2803,-45.2778 2803,-49.1111 2799.17,-52.9444 2795.33,-52.9444"/>
<text text-anchor="middle" x="2712" y="-37.7444" font-family="Arial" font-size="14.00" fill="#c6c5fe">reducers/updateButtons.js</text>
</g>
<!-- reducers/root.js&#45;&gt;reducers/updateButtons.js -->
<g id="edge32" class="edge"><title>reducers/root.js&#45;&gt;reducers/updateButtons.js</title>
<path fill="none" stroke="#757575" d="M2520.43,-210.662C2531.96,-181.643 2565.74,-106.268 2619,-67.4444 2624.81,-63.21 2631.29,-59.6641 2638.04,-56.695"/>
<polygon fill="#757575" stroke="#757575" points="2639.37,-59.931 2647.38,-52.9933 2636.8,-53.4233 2639.37,-59.931"/>
</g>
<!-- reducers/updateStats.js -->
<g id="node30" class="node"><title>reducers/updateStats.js</title>
<path fill="none" stroke="#c6c5fe" d="M2787.83,-132.944C2787.83,-132.944 2636.17,-132.944 2636.17,-132.944 2632.33,-132.944 2628.5,-129.111 2628.5,-125.278 2628.5,-125.278 2628.5,-117.611 2628.5,-117.611 2628.5,-113.778 2632.33,-109.944 2636.17,-109.944 2636.17,-109.944 2787.83,-109.944 2787.83,-109.944 2791.67,-109.944 2795.5,-113.778 2795.5,-117.611 2795.5,-117.611 2795.5,-125.278 2795.5,-125.278 2795.5,-129.111 2791.67,-132.944 2787.83,-132.944"/>
<text text-anchor="middle" x="2712" y="-117.744" font-family="Arial" font-size="14.00" fill="#c6c5fe">reducers/updateStats.js</text>
</g>
<!-- reducers/root.js&#45;&gt;reducers/updateStats.js -->
<g id="edge33" class="edge"><title>reducers/root.js&#45;&gt;reducers/updateStats.js</title>
<path fill="none" stroke="#757575" d="M2527.16,-210.769C2544.89,-192.953 2581.34,-159.185 2619,-141.444 2623.1,-139.512 2627.4,-137.763 2631.79,-136.181"/>
<polygon fill="#757575" stroke="#757575" points="2633.14,-139.423 2641.55,-132.977 2630.95,-132.773 2633.14,-139.423"/>
</g>
<!-- reducers/updateTime.js -->
<g id="node31" class="node"><title>reducers/updateTime.js</title>
<path fill="none" stroke="#c6c5fe" d="M3004.83,-291.944C3004.83,-291.944 2853.17,-291.944 2853.17,-291.944 2849.33,-291.944 2845.5,-288.111 2845.5,-284.278 2845.5,-284.278 2845.5,-276.611 2845.5,-276.611 2845.5,-272.778 2849.33,-268.944 2853.17,-268.944 2853.17,-268.944 3004.83,-268.944 3004.83,-268.944 3008.67,-268.944 3012.5,-272.778 3012.5,-276.611 3012.5,-276.611 3012.5,-284.278 3012.5,-284.278 3012.5,-288.111 3008.67,-291.944 3004.83,-291.944"/>
<text text-anchor="middle" x="2929" y="-276.744" font-family="Arial" font-size="14.00" fill="#c6c5fe">reducers/updateTime.js</text>
</g>
<!-- reducers/root.js&#45;&gt;reducers/updateTime.js -->
<g id="edge34" class="edge"><title>reducers/root.js&#45;&gt;reducers/updateTime.js</title>
<path fill="none" stroke="#757575" d="M2539.48,-234.003C2559.95,-243.475 2590.7,-256.284 2619,-262.444 2690.5,-278.006 2773.36,-282.106 2835.27,-282.534"/>
<polygon fill="#757575" stroke="#757575" points="2835.39,-286.034 2845.41,-282.573 2835.42,-279.034 2835.39,-286.034"/>
</g>
<!-- store/initialState.js -->
<g id="node32" class="node"><title>store/initialState.js</title>
<path fill="none" stroke="#c6c5fe" d="M2769.83,-409.944C2769.83,-409.944 2654.17,-409.944 2654.17,-409.944 2650.33,-409.944 2646.5,-406.111 2646.5,-402.278 2646.5,-402.278 2646.5,-394.611 2646.5,-394.611 2646.5,-390.778 2650.33,-386.944 2654.17,-386.944 2654.17,-386.944 2769.83,-386.944 2769.83,-386.944 2773.67,-386.944 2777.5,-390.778 2777.5,-394.611 2777.5,-394.611 2777.5,-402.278 2777.5,-402.278 2777.5,-406.111 2773.67,-409.944 2769.83,-409.944"/>
<text text-anchor="middle" x="2712" y="-394.744" font-family="Arial" font-size="14.00" fill="#c6c5fe">store/initialState.js</text>
</g>
<!-- reducers/root.js&#45;&gt;store/initialState.js -->
<g id="edge35" class="edge"><title>reducers/root.js&#45;&gt;store/initialState.js</title>
<path fill="none" stroke="#757575" d="M2525.2,-234.023C2542.36,-255.252 2580.98,-301.269 2619,-334.444 2639.25,-352.115 2664.43,-369.349 2683.33,-381.473"/>
<polygon fill="#757575" stroke="#757575" points="2681.46,-384.437 2691.79,-386.83 2685.21,-378.523 2681.46,-384.437"/>
</g>
<!-- reducers/root.js&#45;&gt;utils.js -->
<g id="edge36" class="edge"><title>reducers/root.js&#45;&gt;utils.js</title>
<path fill="none" stroke="#757575" d="M2531.61,-234.162C2551.13,-248.323 2586.01,-272.04 2619,-286.444 2787.08,-359.827 2875.77,-278.433 3017,-395.444 3050.87,-423.504 3067.98,-474.171 3075.34,-502.948"/>
<polygon fill="#757575" stroke="#757575" points="3071.97,-503.902 3077.7,-512.813 3078.78,-502.273 3071.97,-503.902"/>
</g>
<!-- reducers/updateBodyArr.js&#45;&gt;actions/playerMsg.js -->
<g id="edge37" class="edge"><title>reducers/updateBodyArr.js&#45;&gt;actions/playerMsg.js</title>
<path fill="none" stroke="#757575" d="M2805.11,-233.447C2818.74,-232.117 2832.7,-230.753 2846.1,-229.444"/>
<polygon fill="#757575" stroke="#757575" points="2846.6,-232.912 2856.22,-228.456 2845.92,-225.945 2846.6,-232.912"/>
</g>
<!-- reducers/updateButtons.js&#45;&gt;actions/coreMsg.js -->
<g id="edge38" class="edge"><title>reducers/updateButtons.js&#45;&gt;actions/coreMsg.js</title>
<path fill="none" stroke="#757575" d="M2803.24,-49.8393C2819.18,-51.3213 2835.63,-52.8515 2851.15,-54.2953"/>
<polygon fill="#757575" stroke="#757575" points="2850.92,-57.7888 2861.2,-55.2302 2851.56,-50.8189 2850.92,-57.7888"/>
</g>
<!-- reducers/updateStats.js&#45;&gt;actions/coreMsg.js -->
<g id="edge39" class="edge"><title>reducers/updateStats.js&#45;&gt;actions/coreMsg.js</title>
<path fill="none" stroke="#757575" d="M2754.45,-109.876C2789.4,-100.123 2839.56,-86.1263 2876.97,-75.6857"/>
<polygon fill="#757575" stroke="#757575" points="2877.98,-79.0368 2886.67,-72.9775 2876.1,-72.2944 2877.98,-79.0368"/>
</g>
<!-- reducers/updateStats.js&#45;&gt;actions/playerMsg.js -->
<g id="edge40" class="edge"><title>reducers/updateStats.js&#45;&gt;actions/playerMsg.js</title>
<path fill="none" stroke="#757575" d="M2780.21,-133.068C2788.7,-135.402 2797.16,-138.171 2805,-141.444 2843.11,-157.347 2882.27,-185.185 2905.87,-203.468"/>
<polygon fill="#757575" stroke="#757575" points="2903.81,-206.299 2913.83,-209.731 2908.14,-200.797 2903.81,-206.299"/>
</g>
<!-- reducers/updateStats.js&#45;&gt;utils.js -->
<g id="edge41" class="edge"><title>reducers/updateStats.js&#45;&gt;utils.js</title>
<path fill="none" stroke="#757575" d="M2795.59,-119.851C2864.77,-123.23 2960.95,-139.755 3017,-200.444 3058.16,-245.013 3074.33,-437.525 3078.69,-502.745"/>
<polygon fill="#757575" stroke="#757575" points="3075.2,-502.977 3079.33,-512.733 3082.19,-502.529 3075.2,-502.977"/>
</g>
<!-- reducers/updateTime.js&#45;&gt;utils.js -->
<g id="edge42" class="edge"><title>reducers/updateTime.js&#45;&gt;utils.js</title>
<path fill="none" stroke="#757575" d="M2995.39,-291.97C3003.4,-295.573 3010.9,-300.286 3017,-306.444 3071.08,-361.018 3079.33,-458.96 3080.18,-502.521"/>
<polygon fill="#757575" stroke="#757575" points="3076.69,-502.625 3080.27,-512.596 3083.69,-502.568 3076.69,-502.625"/>
</g>
<!-- store/initialState.js&#45;&gt;scenes/sceneSymbols.js -->
<g id="edge63" class="edge"><title>store/initialState.js&#45;&gt;scenes/sceneSymbols.js</title>
<path fill="none" stroke="#757575" d="M2758.27,-410.031C2773.27,-414.189 2789.97,-419.165 2805,-424.444 2835.51,-435.159 2869.29,-449.635 2893.72,-460.593"/>
<polygon fill="#757575" stroke="#757575" points="2892.37,-463.823 2902.92,-464.753 2895.25,-457.445 2892.37,-463.823"/>
</g>
<!-- symbols/skin.js -->
<g id="node42" class="node"><title>symbols/skin.js</title>
<path fill="none" stroke="#c6c5fe" d="M2977.83,-427.944C2977.83,-427.944 2880.17,-427.944 2880.17,-427.944 2876.33,-427.944 2872.5,-424.111 2872.5,-420.278 2872.5,-420.278 2872.5,-412.611 2872.5,-412.611 2872.5,-408.778 2876.33,-404.944 2880.17,-404.944 2880.17,-404.944 2977.83,-404.944 2977.83,-404.944 2981.67,-404.944 2985.5,-408.778 2985.5,-412.611 2985.5,-412.611 2985.5,-420.278 2985.5,-420.278 2985.5,-424.111 2981.67,-427.944 2977.83,-427.944"/>
<text text-anchor="middle" x="2929" y="-412.744" font-family="Arial" font-size="14.00" fill="#c6c5fe">symbols/skin.js</text>
</g>
<!-- store/initialState.js&#45;&gt;symbols/skin.js -->
<g id="edge64" class="edge"><title>store/initialState.js&#45;&gt;symbols/skin.js</title>
<path fill="none" stroke="#757575" d="M2777.51,-403.845C2804.27,-406.086 2835.29,-408.682 2862.18,-410.934"/>
<polygon fill="#757575" stroke="#757575" points="2862.02,-414.432 2872.27,-411.779 2862.6,-407.457 2862.02,-414.432"/>
</g>
<!-- scenes/charCreation.js&#45;&gt;actions/Core.js -->
<g id="edge43" class="edge"><title>scenes/charCreation.js&#45;&gt;actions/Core.js</title>
<path fill="none" stroke="#757575" d="M1332.54,-563.536C1347.29,-535.628 1387.96,-465.561 1442,-428.444 1498.01,-389.979 1573.94,-370.175 1627.37,-360.357"/>
<polygon fill="#757575" stroke="#757575" points="1628.17,-363.77 1637.41,-358.581 1626.96,-356.877 1628.17,-363.77"/>
</g>
<!-- scenes/charCreation.js&#45;&gt;actions/Player.js -->
<g id="edge44" class="edge"><title>scenes/charCreation.js&#45;&gt;actions/Player.js</title>
<path fill="none" stroke="#757575" d="M1406.23,-577.435C1563.41,-581.36 1910.83,-590.034 2058.7,-593.727"/>
<polygon fill="#757575" stroke="#757575" points="2058.91,-597.233 2069,-593.984 2059.09,-590.235 2058.91,-597.233"/>
</g>
<!-- scenes/charCreation.js&#45;&gt;symbols/breastCup.js -->
<g id="edge49" class="edge"><title>scenes/charCreation.js&#45;&gt;symbols/breastCup.js</title>
<path fill="none" stroke="#757575" d="M1368.89,-587.013C1436.63,-604.448 1573.68,-635.444 1692,-635.444 1692,-635.444 1692,-635.444 1911,-635.444 2049.04,-635.444 2097.05,-677.196 2221,-616.444 2242.77,-605.772 2236.45,-588.324 2257,-575.444 2260.2,-573.436 2263.6,-571.616 2267.11,-569.969"/>
<polygon fill="#757575" stroke="#757575" points="2268.75,-573.08 2276.62,-565.995 2266.05,-566.621 2268.75,-573.08"/>
</g>
<!-- scenes/charCreation.js&#45;&gt;appearance/appearance.js -->
<g id="edge45" class="edge"><title>scenes/charCreation.js&#45;&gt;appearance/appearance.js</title>
<path fill="none" stroke="#757575" d="M1406.23,-573.354C1552.6,-569.517 1863.91,-561.355 2025.46,-557.12"/>
<polygon fill="#757575" stroke="#757575" points="2025.98,-560.607 2035.88,-556.846 2025.8,-553.61 2025.98,-560.607"/>
</g>
<!-- scenes/charCreation.js&#45;&gt;scenes/menus.js -->
<g id="edge46" class="edge"><title>scenes/charCreation.js&#45;&gt;scenes/menus.js</title>
<path fill="none" stroke="#757575" d="M1342.79,-563.817C1373.92,-541.595 1442.01,-492.987 1478.59,-466.867"/>
<polygon fill="#757575" stroke="#757575" points="1480.65,-469.703 1486.75,-461.044 1476.58,-464.006 1480.65,-469.703"/>
</g>
<!-- scenes/charCreation.js&#45;&gt;scenes/sceneSymbols.js -->
<g id="edge47" class="edge"><title>scenes/charCreation.js&#45;&gt;scenes/sceneSymbols.js</title>
<path fill="none" stroke="#757575" d="M1347.57,-587.082C1370.25,-599.133 1407.69,-617.674 1442,-628.444 1549.71,-662.255 1579.1,-673.444 1692,-673.444 1692,-673.444 1692,-673.444 1911,-673.444 2134.66,-673.444 2192.28,-663.184 2411,-616.444 2586.3,-578.984 2790.75,-518.555 2881.05,-490.99"/>
<polygon fill="#757575" stroke="#757575" points="2882.18,-494.305 2890.71,-488.032 2880.13,-487.612 2882.18,-494.305"/>
</g>
<!-- scenes/sceneTextStore.js -->
<g id="node37" class="node"><title>scenes/sceneTextStore.js</title>
<path fill="none" stroke="#c6c5fe" d="M1776.33,-508.944C1776.33,-508.944 1609.67,-508.944 1609.67,-508.944 1605.83,-508.944 1602,-505.111 1602,-501.278 1602,-501.278 1602,-493.611 1602,-493.611 1602,-489.778 1605.83,-485.944 1609.67,-485.944 1609.67,-485.944 1776.33,-485.944 1776.33,-485.944 1780.17,-485.944 1784,-489.778 1784,-493.611 1784,-493.611 1784,-501.278 1784,-501.278 1784,-505.111 1780.17,-508.944 1776.33,-508.944"/>
<text text-anchor="middle" x="1693" y="-493.744" font-family="Arial" font-size="14.00" fill="#c6c5fe">scenes/sceneTextStore.js</text>
</g>
<!-- scenes/charCreation.js&#45;&gt;scenes/sceneTextStore.js -->
<g id="edge48" class="edge"><title>scenes/charCreation.js&#45;&gt;scenes/sceneTextStore.js</title>
<path fill="none" stroke="#757575" d="M1363.45,-563.867C1385.99,-557.056 1415.49,-548.601 1442,-542.444 1496.34,-529.824 1558.02,-518.688 1606.52,-510.651"/>
<polygon fill="#757575" stroke="#757575" points="1607.36,-514.06 1616.66,-508.984 1606.23,-507.153 1607.36,-514.06"/>
</g>
<!-- symbols/butt.js -->
<g id="node38" class="node"><title>symbols/butt.js</title>
<path fill="none" stroke="#c6c5fe" d="M1957.83,-724.944C1957.83,-724.944 1862.17,-724.944 1862.17,-724.944 1858.33,-724.944 1854.5,-721.111 1854.5,-717.278 1854.5,-717.278 1854.5,-709.611 1854.5,-709.611 1854.5,-705.778 1858.33,-701.944 1862.17,-701.944 1862.17,-701.944 1957.83,-701.944 1957.83,-701.944 1961.67,-701.944 1965.5,-705.778 1965.5,-709.611 1965.5,-709.611 1965.5,-717.278 1965.5,-717.278 1965.5,-721.111 1961.67,-724.944 1957.83,-724.944"/>
<text text-anchor="middle" x="1910" y="-709.744" font-family="Arial" font-size="14.00" fill="#c6c5fe">symbols/butt.js</text>
</g>
<!-- scenes/charCreation.js&#45;&gt;symbols/butt.js -->
<g id="edge50" class="edge"><title>scenes/charCreation.js&#45;&gt;symbols/butt.js</title>
<path fill="none" stroke="#757575" d="M1334.05,-587.032C1350.37,-610.945 1391.6,-665.369 1442,-687.444 1575.35,-745.849 1750.96,-735.202 1844.24,-723.575"/>
<polygon fill="#757575" stroke="#757575" points="1844.91,-727.018 1854.38,-722.267 1844.01,-720.076 1844.91,-727.018"/>
</g>
<!-- symbols/hips.js -->
<g id="node39" class="node"><title>symbols/hips.js</title>
<path fill="none" stroke="#c6c5fe" d="M1553.33,-763.944C1553.33,-763.944 1454.67,-763.944 1454.67,-763.944 1450.83,-763.944 1447,-760.111 1447,-756.278 1447,-756.278 1447,-748.611 1447,-748.611 1447,-744.778 1450.83,-740.944 1454.67,-740.944 1454.67,-740.944 1553.33,-740.944 1553.33,-740.944 1557.17,-740.944 1561,-744.778 1561,-748.611 1561,-748.611 1561,-756.278 1561,-756.278 1561,-760.111 1557.17,-763.944 1553.33,-763.944"/>
<text text-anchor="middle" x="1504" y="-748.744" font-family="Arial" font-size="14.00" fill="#c6c5fe">symbols/hips.js</text>
</g>
<!-- scenes/charCreation.js&#45;&gt;symbols/hips.js -->
<g id="edge51" class="edge"><title>scenes/charCreation.js&#45;&gt;symbols/hips.js</title>
<path fill="none" stroke="#757575" d="M1332.72,-587.307C1347.87,-615.176 1389.35,-685.549 1442,-726.444 1446.95,-730.291 1452.56,-733.677 1458.32,-736.626"/>
<polygon fill="#757575" stroke="#757575" points="1456.88,-739.817 1467.42,-740.901 1459.85,-733.481 1456.88,-739.817"/>
</g>
<!-- scenes/menus.js&#45;&gt;actions/Core.js -->
<g id="edge52" class="edge"><title>scenes/menus.js&#45;&gt;actions/Core.js</title>
<path fill="none" stroke="#757575" d="M1527.19,-437.818C1560.36,-420.43 1623.04,-387.585 1660.81,-367.79"/>
<polygon fill="#757575" stroke="#757575" points="1662.61,-370.798 1669.84,-363.056 1659.36,-364.598 1662.61,-370.798"/>
</g>
<!-- scenes/menus.js&#45;&gt;scenes/sceneSymbols.js -->
<g id="edge53" class="edge"><title>scenes/menus.js&#45;&gt;scenes/sceneSymbols.js</title>
<path fill="none" stroke="#757575" d="M1566.14,-450.605C1788.71,-454.828 2556.86,-469.402 2830.36,-474.592"/>
<polygon fill="#757575" stroke="#757575" points="2830.6,-478.097 2840.66,-474.787 2830.73,-471.098 2830.6,-478.097"/>
</g>
<!-- scenes/menus.js&#45;&gt;scenes/sceneTextStore.js -->
<g id="edge54" class="edge"><title>scenes/menus.js&#45;&gt;scenes/sceneTextStore.js</title>
<path fill="none" stroke="#757575" d="M1550.27,-461.064C1576.45,-467.785 1609.59,-476.291 1637.24,-483.387"/>
<polygon fill="#757575" stroke="#757575" points="1636.59,-486.836 1647.15,-485.932 1638.33,-480.056 1636.59,-486.836"/>
</g>
<!-- scenes/sceneTextStore.js&#45;&gt;components/nameInput.js -->
<g id="edge61" class="edge"><title>scenes/sceneTextStore.js&#45;&gt;components/nameInput.js</title>
<path fill="none" stroke="#757575" d="M1784.24,-505.42C1792.58,-506.156 1801.05,-506.905 1809.46,-507.648"/>
<polygon fill="#757575" stroke="#757575" points="1809.41,-511.157 1819.68,-508.551 1810.02,-504.184 1809.41,-511.157"/>
</g>
<!-- scenes/sceneTextStore.js&#45;&gt;scenes/sceneSymbols.js -->
<g id="edge62" class="edge"><title>scenes/sceneTextStore.js&#45;&gt;scenes/sceneSymbols.js</title>
<path fill="none" stroke="#757575" d="M1784.16,-495.895C1796.21,-495.723 1808.41,-495.566 1820,-495.444 2257.76,-490.859 2367.98,-516.348 2805,-490.444 2813.33,-489.951 2821.96,-489.285 2830.6,-488.511"/>
<polygon fill="#757575" stroke="#757575" points="2831.12,-491.978 2840.75,-487.556 2830.47,-485.009 2831.12,-491.978"/>
</g>
<!-- symbols/butt.js&#45;&gt;utils.js -->
<g id="edge67" class="edge"><title>symbols/butt.js&#45;&gt;utils.js</title>
<path fill="none" stroke="#757575" d="M1965.63,-713.444C2046.07,-713.444 2201.13,-713.444 2333,-713.444 2333,-713.444 2333,-713.444 2713,-713.444 2849.06,-713.444 2908.61,-759.678 3017,-677.444 3059.15,-645.466 3073.26,-580.307 3077.86,-546.263"/>
<polygon fill="#757575" stroke="#757575" points="3081.37,-546.348 3079.08,-536.004 3074.42,-545.52 3081.37,-546.348"/>
</g>
<!-- symbols/hips.js&#45;&gt;utils.js -->
<g id="edge68" class="edge"><title>symbols/hips.js&#45;&gt;utils.js</title>
<path fill="none" stroke="#757575" d="M1561.21,-752.671C1639.25,-752.966 1784.85,-753.444 1909,-753.444 1909,-753.444 1909,-753.444 2713,-753.444 2849.16,-753.444 2911.84,-801.935 3017,-715.444 3068.77,-672.87 3078.32,-586.757 3079.86,-546.333"/>
<polygon fill="#757575" stroke="#757575" points="3083.37,-546.301 3080.11,-536.217 3076.37,-546.128 3083.37,-546.301"/>
</g>
<!-- setupTests.js -->
<g id="node41" class="node"><title>setupTests.js</title>
<path fill="none" stroke="#cfffac" d="M94.3333,-320.944C94.3333,-320.944 7.66667,-320.944 7.66667,-320.944 3.83333,-320.944 0,-317.111 0,-313.278 0,-313.278 0,-305.611 0,-305.611 0,-301.778 3.83333,-297.944 7.66667,-297.944 7.66667,-297.944 94.3333,-297.944 94.3333,-297.944 98.1667,-297.944 102,-301.778 102,-305.611 102,-305.611 102,-313.278 102,-313.278 102,-317.111 98.1667,-320.944 94.3333,-320.944"/>
<text text-anchor="middle" x="51" y="-305.744" font-family="Arial" font-size="14.00" fill="#cfffac">setupTests.js</text>
</g>
<!-- symbols/skin.js&#45;&gt;utils.js -->
<g id="edge69" class="edge"><title>symbols/skin.js&#45;&gt;utils.js</title>
<path fill="none" stroke="#757575" d="M2964.37,-428.08C2981.12,-434.663 3001.04,-443.902 3017,-455.444 3036.12,-469.271 3053.85,-489.66 3065.6,-504.692"/>
<polygon fill="#757575" stroke="#757575" points="3062.95,-506.991 3071.79,-512.832 3068.52,-502.754 3062.95,-506.991"/>
</g>
</g>
</svg>
