<?xml version="1.0" encoding="UTF-8" standalone="no"?>
<!DOCTYPE svg PUBLIC "-//W3C//DTD SVG 1.1//EN"
 "http://www.w3.org/Graphics/SVG/1.1/DTD/svg11.dtd">
<!-- Generated by graphviz version 2.38.0 (20140413.2041)
 -->
<!-- Title: G Pages: 1 -->
<svg width="2799pt" height="595pt"
 viewBox="0.00 0.00 2799.20 595.20" xmlns="http://www.w3.org/2000/svg" xmlns:xlink="http://www.w3.org/1999/xlink">
<g id="graph0" class="graph" transform="scale(1 1) rotate(0) translate(21.6 573.6)">
<title>G</title>
<polygon fill="#111111" stroke="none" points="-21.6,21.6 -21.6,-573.6 2777.6,-573.6 2777.6,21.6 -21.6,21.6"/>
<!-- actions/Core.js -->
<g id="node1" class="node"><title>actions/Core.js</title>
<path fill="none" stroke="#c6c5fe" d="M945.333,-375.5C945.333,-375.5 849.667,-375.5 849.667,-375.5 845.833,-375.5 842,-371.667 842,-367.833 842,-367.833 842,-360.167 842,-360.167 842,-356.333 845.833,-352.5 849.667,-352.5 849.667,-352.5 945.333,-352.5 945.333,-352.5 949.167,-352.5 953,-356.333 953,-360.167 953,-360.167 953,-367.833 953,-367.833 953,-371.667 949.167,-375.5 945.333,-375.5"/>
<text text-anchor="middle" x="897.5" y="-360.3" font-family="Arial" font-size="14.00" fill="#c6c5fe">actions/Core.js</text>
</g>
<!-- actions/Player.js -->
<g id="node2" class="node"><title>actions/Player.js</title>
<path fill="none" stroke="#cfffac" d="M2719.83,-487.5C2719.83,-487.5 2616.17,-487.5 2616.17,-487.5 2612.33,-487.5 2608.5,-483.667 2608.5,-479.833 2608.5,-479.833 2608.5,-472.167 2608.5,-472.167 2608.5,-468.333 2612.33,-464.5 2616.17,-464.5 2616.17,-464.5 2719.83,-464.5 2719.83,-464.5 2723.67,-464.5 2727.5,-468.333 2727.5,-472.167 2727.5,-472.167 2727.5,-479.833 2727.5,-479.833 2727.5,-483.667 2723.67,-487.5 2719.83,-487.5"/>
<text text-anchor="middle" x="2668" y="-472.3" font-family="Arial" font-size="14.00" fill="#cfffac">actions/Player.js</text>
</g>
<!-- actions/Core.js&#45;&gt;actions/Player.js -->
<g id="edge1" class="edge"><title>actions/Core.js&#45;&gt;actions/Player.js</title>
<path fill="none" stroke="#757575" d="M916.858,-375.537C941.103,-390.2 985.582,-415.148 1027,-428 1405.07,-545.317 1513.14,-552 1909,-552 1909,-552 1909,-552 2230,-552 2370.47,-552 2406.74,-545.871 2544,-516 2572.54,-509.789 2603.83,-499.562 2627.71,-491.005"/>
<polygon fill="#757575" stroke="#757575" points="2628.93,-494.285 2637.14,-487.577 2626.54,-487.707 2628.93,-494.285"/>
</g>
<!-- actions/UI.js -->
<g id="node3" class="node"><title>actions/UI.js</title>
<path fill="none" stroke="#cfffac" d="M2472.83,-165.5C2472.83,-165.5 2394.17,-165.5 2394.17,-165.5 2390.33,-165.5 2386.5,-161.667 2386.5,-157.833 2386.5,-157.833 2386.5,-150.167 2386.5,-150.167 2386.5,-146.333 2390.33,-142.5 2394.17,-142.5 2394.17,-142.5 2472.83,-142.5 2472.83,-142.5 2476.67,-142.5 2480.5,-146.333 2480.5,-150.167 2480.5,-150.167 2480.5,-157.833 2480.5,-157.833 2480.5,-161.667 2476.67,-165.5 2472.83,-165.5"/>
<text text-anchor="middle" x="2433.5" y="-150.3" font-family="Arial" font-size="14.00" fill="#cfffac">actions/UI.js</text>
</g>
<!-- actions/Core.js&#45;&gt;actions/UI.js -->
<g id="edge2" class="edge"><title>actions/Core.js&#45;&gt;actions/UI.js</title>
<path fill="none" stroke="#757575" d="M953.247,-358.729C1034.28,-351.394 1190.96,-339 1324.5,-339 1324.5,-339 1324.5,-339 1505,-339 1592.92,-339 2211.59,-263.202 2287,-218 2308.67,-205.01 2301.24,-186.836 2323,-174 2338.94,-164.601 2358.27,-159.435 2376.23,-156.65"/>
<polygon fill="#757575" stroke="#757575" points="2376.87,-160.096 2386.32,-155.304 2375.94,-153.157 2376.87,-160.096"/>
</g>
<!-- scenes/sceneFunctions.js -->
<g id="node4" class="node"><title>scenes/sceneFunctions.js</title>
<path fill="none" stroke="#c6c5fe" d="M1201.33,-247.5C1201.33,-247.5 1034.67,-247.5 1034.67,-247.5 1030.83,-247.5 1027,-243.667 1027,-239.833 1027,-239.833 1027,-232.167 1027,-232.167 1027,-228.333 1030.83,-224.5 1034.67,-224.5 1034.67,-224.5 1201.33,-224.5 1201.33,-224.5 1205.17,-224.5 1209,-228.333 1209,-232.167 1209,-232.167 1209,-239.833 1209,-239.833 1209,-243.667 1205.17,-247.5 1201.33,-247.5"/>
<text text-anchor="middle" x="1118" y="-232.3" font-family="Arial" font-size="14.00" fill="#c6c5fe">scenes/sceneFunctions.js</text>
</g>
<!-- actions/Core.js&#45;&gt;scenes/sceneFunctions.js -->
<g id="edge3" class="edge"><title>actions/Core.js&#45;&gt;scenes/sceneFunctions.js</title>
<path fill="none" stroke="#757575" d="M953.323,-356.109C966.101,-353.045 979.364,-348.818 991,-343 1035.51,-320.746 1077.53,-279.549 1100.01,-255.28"/>
<polygon fill="#757575" stroke="#757575" points="1102.72,-257.503 1106.86,-247.751 1097.55,-252.792 1102.72,-257.503"/>
</g>
<!-- store/store.js -->
<g id="node5" class="node"><title>store/store.js</title>
<path fill="none" stroke="#c6c5fe" d="M2127.33,-467.5C2127.33,-467.5 2043.67,-467.5 2043.67,-467.5 2039.83,-467.5 2036,-463.667 2036,-459.833 2036,-459.833 2036,-452.167 2036,-452.167 2036,-448.333 2039.83,-444.5 2043.67,-444.5 2043.67,-444.5 2127.33,-444.5 2127.33,-444.5 2131.17,-444.5 2135,-448.333 2135,-452.167 2135,-452.167 2135,-459.833 2135,-459.833 2135,-463.667 2131.17,-467.5 2127.33,-467.5"/>
<text text-anchor="middle" x="2085.5" y="-452.3" font-family="Arial" font-size="14.00" fill="#c6c5fe">store/store.js</text>
</g>
<!-- actions/Core.js&#45;&gt;store/store.js -->
<g id="edge4" class="edge"><title>actions/Core.js&#45;&gt;store/store.js</title>
<path fill="none" stroke="#757575" d="M938.039,-375.563C1012.81,-396.375 1180.37,-438 1324.5,-438 1324.5,-438 1324.5,-438 1694,-438 1811.65,-438 1949.02,-446.253 2025.46,-451.583"/>
<polygon fill="#757575" stroke="#757575" points="2025.61,-455.102 2035.83,-452.314 2026.1,-448.119 2025.61,-455.102"/>
</g>
<!-- scenes/charCreation.js -->
<g id="node27" class="node"><title>scenes/charCreation.js</title>
<path fill="none" stroke="#c6c5fe" d="M1398.33,-226.5C1398.33,-226.5 1252.67,-226.5 1252.67,-226.5 1248.83,-226.5 1245,-222.667 1245,-218.833 1245,-218.833 1245,-211.167 1245,-211.167 1245,-207.333 1248.83,-203.5 1252.67,-203.5 1252.67,-203.5 1398.33,-203.5 1398.33,-203.5 1402.17,-203.5 1406,-207.333 1406,-211.167 1406,-211.167 1406,-218.833 1406,-218.833 1406,-222.667 1402.17,-226.5 1398.33,-226.5"/>
<text text-anchor="middle" x="1325.5" y="-211.3" font-family="Arial" font-size="14.00" fill="#c6c5fe">scenes/charCreation.js</text>
</g>
<!-- scenes/sceneFunctions.js&#45;&gt;scenes/charCreation.js -->
<g id="edge44" class="edge"><title>scenes/sceneFunctions.js&#45;&gt;scenes/charCreation.js</title>
<path fill="none" stroke="#757575" d="M1209.14,-226.789C1217.57,-225.927 1226.12,-225.054 1234.55,-224.192"/>
<polygon fill="#757575" stroke="#757575" points="1235.17,-227.647 1244.76,-223.149 1234.46,-220.683 1235.17,-227.647"/>
</g>
<!-- scenes/menus.js -->
<g id="node28" class="node"><title>scenes/menus.js</title>
<path fill="none" stroke="#c6c5fe" d="M1558.33,-167.5C1558.33,-167.5 1449.67,-167.5 1449.67,-167.5 1445.83,-167.5 1442,-163.667 1442,-159.833 1442,-159.833 1442,-152.167 1442,-152.167 1442,-148.333 1445.83,-144.5 1449.67,-144.5 1449.67,-144.5 1558.33,-144.5 1558.33,-144.5 1562.17,-144.5 1566,-148.333 1566,-152.167 1566,-152.167 1566,-159.833 1566,-159.833 1566,-163.667 1562.17,-167.5 1558.33,-167.5"/>
<text text-anchor="middle" x="1504" y="-152.3" font-family="Arial" font-size="14.00" fill="#c6c5fe">scenes/menus.js</text>
</g>
<!-- scenes/sceneFunctions.js&#45;&gt;scenes/menus.js -->
<g id="edge45" class="edge"><title>scenes/sceneFunctions.js&#45;&gt;scenes/menus.js</title>
<path fill="none" stroke="#757575" d="M1179.8,-224.434C1189.71,-221.805 1199.76,-218.677 1209,-215 1226.21,-208.153 1227.52,-200.128 1245,-194 1305.78,-172.693 1378.69,-163.332 1431.47,-159.22"/>
<polygon fill="#757575" stroke="#757575" points="1432.03,-162.688 1441.75,-158.466 1431.52,-155.707 1432.03,-162.688"/>
</g>
<!-- scenes/sceneSymbols.js -->
<g id="node29" class="node"><title>scenes/sceneSymbols.js</title>
<path fill="none" stroke="#cfffac" d="M2748.33,-87.5C2748.33,-87.5 2587.67,-87.5 2587.67,-87.5 2583.83,-87.5 2580,-83.6667 2580,-79.8333 2580,-79.8333 2580,-72.1667 2580,-72.1667 2580,-68.3333 2583.83,-64.5 2587.67,-64.5 2587.67,-64.5 2748.33,-64.5 2748.33,-64.5 2752.17,-64.5 2756,-68.3333 2756,-72.1667 2756,-72.1667 2756,-79.8333 2756,-79.8333 2756,-83.6667 2752.17,-87.5 2748.33,-87.5"/>
<text text-anchor="middle" x="2668" y="-72.3" font-family="Arial" font-size="14.00" fill="#cfffac">scenes/sceneSymbols.js</text>
</g>
<!-- scenes/sceneFunctions.js&#45;&gt;scenes/sceneSymbols.js -->
<g id="edge46" class="edge"><title>scenes/sceneFunctions.js&#45;&gt;scenes/sceneSymbols.js</title>
<path fill="none" stroke="#757575" d="M1191.93,-224.324C1197.98,-221.791 1203.77,-218.72 1209,-215 1233.41,-197.631 1223.67,-179.04 1245,-158 1340.73,-63.5817 1368.54,-0 1503,-0 1503,-0 1503,-0 2230,-0 2370.52,-0 2406.63,-7.40888 2544,-37 2572.07,-43.0471 2602.87,-52.8169 2626.63,-61.0649"/>
<polygon fill="#757575" stroke="#757575" points="2625.75,-64.4681 2636.35,-64.4914 2628.08,-57.8662 2625.75,-64.4681"/>
</g>
<!-- scenes/tests/testing.js -->
<g id="node31" class="node"><title>scenes/tests/testing.js</title>
<path fill="none" stroke="#cfffac" d="M1396.83,-267.5C1396.83,-267.5 1254.17,-267.5 1254.17,-267.5 1250.33,-267.5 1246.5,-263.667 1246.5,-259.833 1246.5,-259.833 1246.5,-252.167 1246.5,-252.167 1246.5,-248.333 1250.33,-244.5 1254.17,-244.5 1254.17,-244.5 1396.83,-244.5 1396.83,-244.5 1400.67,-244.5 1404.5,-248.333 1404.5,-252.167 1404.5,-252.167 1404.5,-259.833 1404.5,-259.833 1404.5,-263.667 1400.67,-267.5 1396.83,-267.5"/>
<text text-anchor="middle" x="1325.5" y="-252.3" font-family="Arial" font-size="14.00" fill="#cfffac">scenes/tests/testing.js</text>
</g>
<!-- scenes/sceneFunctions.js&#45;&gt;scenes/tests/testing.js -->
<g id="edge47" class="edge"><title>scenes/sceneFunctions.js&#45;&gt;scenes/tests/testing.js</title>
<path fill="none" stroke="#757575" d="M1209.14,-244.772C1218.15,-245.649 1227.29,-246.539 1236.28,-247.414"/>
<polygon fill="#757575" stroke="#757575" points="1236.06,-250.909 1246.35,-248.394 1236.74,-243.942 1236.06,-250.909"/>
</g>
<!-- reducers/root.js -->
<g id="node20" class="node"><title>reducers/root.js</title>
<path fill="none" stroke="#c6c5fe" d="M2279.33,-348.5C2279.33,-348.5 2178.67,-348.5 2178.67,-348.5 2174.83,-348.5 2171,-344.667 2171,-340.833 2171,-340.833 2171,-333.167 2171,-333.167 2171,-329.333 2174.83,-325.5 2178.67,-325.5 2178.67,-325.5 2279.33,-325.5 2279.33,-325.5 2283.17,-325.5 2287,-329.333 2287,-333.167 2287,-333.167 2287,-340.833 2287,-340.833 2287,-344.667 2283.17,-348.5 2279.33,-348.5"/>
<text text-anchor="middle" x="2229" y="-333.3" font-family="Arial" font-size="14.00" fill="#c6c5fe">reducers/root.js</text>
</g>
<!-- store/store.js&#45;&gt;reducers/root.js -->
<g id="edge51" class="edge"><title>store/store.js&#45;&gt;reducers/root.js</title>
<path fill="none" stroke="#757575" d="M2100.33,-444.373C2124.99,-423.632 2176.74,-380.105 2206.23,-355.312"/>
<polygon fill="#757575" stroke="#757575" points="2208.51,-357.965 2213.91,-348.85 2204,-352.608 2208.51,-357.965"/>
</g>
<!-- components/appRoot.js -->
<g id="node6" class="node"><title>components/appRoot.js</title>
<path fill="none" stroke="#c6c5fe" d="M298.333,-381.5C298.333,-381.5 145.667,-381.5 145.667,-381.5 141.833,-381.5 138,-377.667 138,-373.833 138,-373.833 138,-366.167 138,-366.167 138,-362.333 141.833,-358.5 145.667,-358.5 145.667,-358.5 298.333,-358.5 298.333,-358.5 302.167,-358.5 306,-362.333 306,-366.167 306,-366.167 306,-373.833 306,-373.833 306,-377.667 302.167,-381.5 298.333,-381.5"/>
<text text-anchor="middle" x="222" y="-366.3" font-family="Arial" font-size="14.00" fill="#c6c5fe">components/appRoot.js</text>
</g>
<!-- components/lowerButtons.js -->
<g id="node7" class="node"><title>components/lowerButtons.js</title>
<path fill="none" stroke="#c6c5fe" d="M529.333,-340.5C529.333,-340.5 349.667,-340.5 349.667,-340.5 345.833,-340.5 342,-336.667 342,-332.833 342,-332.833 342,-325.167 342,-325.167 342,-321.333 345.833,-317.5 349.667,-317.5 349.667,-317.5 529.333,-317.5 529.333,-317.5 533.167,-317.5 537,-321.333 537,-325.167 537,-325.167 537,-332.833 537,-332.833 537,-336.667 533.167,-340.5 529.333,-340.5"/>
<text text-anchor="middle" x="439.5" y="-325.3" font-family="Arial" font-size="14.00" fill="#c6c5fe">components/lowerButtons.js</text>
</g>
<!-- components/appRoot.js&#45;&gt;components/lowerButtons.js -->
<g id="edge5" class="edge"><title>components/appRoot.js&#45;&gt;components/lowerButtons.js</title>
<path fill="none" stroke="#757575" d="M283.602,-358.47C309.88,-353.471 340.817,-347.585 368.106,-342.393"/>
<polygon fill="#757575" stroke="#757575" points="368.81,-345.822 377.98,-340.514 367.502,-338.945 368.81,-345.822"/>
</g>
<!-- components/menuBar.js -->
<g id="node8" class="node"><title>components/menuBar.js</title>
<path fill="none" stroke="#c6c5fe" d="M516.833,-381.5C516.833,-381.5 362.167,-381.5 362.167,-381.5 358.333,-381.5 354.5,-377.667 354.5,-373.833 354.5,-373.833 354.5,-366.167 354.5,-366.167 354.5,-362.333 358.333,-358.5 362.167,-358.5 362.167,-358.5 516.833,-358.5 516.833,-358.5 520.667,-358.5 524.5,-362.333 524.5,-366.167 524.5,-366.167 524.5,-373.833 524.5,-373.833 524.5,-377.667 520.667,-381.5 516.833,-381.5"/>
<text text-anchor="middle" x="439.5" y="-366.3" font-family="Arial" font-size="14.00" fill="#c6c5fe">components/menuBar.js</text>
</g>
<!-- components/appRoot.js&#45;&gt;components/menuBar.js -->
<g id="edge6" class="edge"><title>components/appRoot.js&#45;&gt;components/menuBar.js</title>
<path fill="none" stroke="#757575" d="M306.01,-370C318.546,-370 331.556,-370 344.307,-370"/>
<polygon fill="#757575" stroke="#757575" points="344.465,-373.5 354.465,-370 344.465,-366.5 344.465,-373.5"/>
</g>
<!-- components/output.js -->
<g id="node9" class="node"><title>components/output.js</title>
<path fill="none" stroke="#cfffac" d="M507.833,-422.5C507.833,-422.5 371.167,-422.5 371.167,-422.5 367.333,-422.5 363.5,-418.667 363.5,-414.833 363.5,-414.833 363.5,-407.167 363.5,-407.167 363.5,-403.333 367.333,-399.5 371.167,-399.5 371.167,-399.5 507.833,-399.5 507.833,-399.5 511.667,-399.5 515.5,-403.333 515.5,-407.167 515.5,-407.167 515.5,-414.833 515.5,-414.833 515.5,-418.667 511.667,-422.5 507.833,-422.5"/>
<text text-anchor="middle" x="439.5" y="-407.3" font-family="Arial" font-size="14.00" fill="#cfffac">components/output.js</text>
</g>
<!-- components/appRoot.js&#45;&gt;components/output.js -->
<g id="edge7" class="edge"><title>components/appRoot.js&#45;&gt;components/output.js</title>
<path fill="none" stroke="#757575" d="M283.602,-381.53C309.88,-386.529 340.817,-392.415 368.106,-397.607"/>
<polygon fill="#757575" stroke="#757575" points="367.502,-401.055 377.98,-399.486 368.81,-394.178 367.502,-401.055"/>
</g>
<!-- components/statBar.js -->
<g id="node10" class="node"><title>components/statBar.js</title>
<path fill="none" stroke="#c6c5fe" d="M510.833,-283.5C510.833,-283.5 368.167,-283.5 368.167,-283.5 364.333,-283.5 360.5,-279.667 360.5,-275.833 360.5,-275.833 360.5,-268.167 360.5,-268.167 360.5,-264.333 364.333,-260.5 368.167,-260.5 368.167,-260.5 510.833,-260.5 510.833,-260.5 514.667,-260.5 518.5,-264.333 518.5,-268.167 518.5,-268.167 518.5,-275.833 518.5,-275.833 518.5,-279.667 514.667,-283.5 510.833,-283.5"/>
<text text-anchor="middle" x="439.5" y="-268.3" font-family="Arial" font-size="14.00" fill="#c6c5fe">components/statBar.js</text>
</g>
<!-- components/appRoot.js&#45;&gt;components/statBar.js -->
<g id="edge8" class="edge"><title>components/appRoot.js&#45;&gt;components/statBar.js</title>
<path fill="none" stroke="#757575" d="M243.26,-358.465C266.646,-345.382 306.457,-323.817 342,-308 358.934,-300.464 377.976,-293.129 394.642,-287.067"/>
<polygon fill="#757575" stroke="#757575" points="395.918,-290.328 404.147,-283.653 393.552,-283.74 395.918,-290.328"/>
</g>
<!-- components/buttonGrid.js -->
<g id="node12" class="node"><title>components/buttonGrid.js</title>
<path fill="none" stroke="#c6c5fe" d="M752.333,-355.5C752.333,-355.5 588.667,-355.5 588.667,-355.5 584.833,-355.5 581,-351.667 581,-347.833 581,-347.833 581,-340.167 581,-340.167 581,-336.333 584.833,-332.5 588.667,-332.5 588.667,-332.5 752.333,-332.5 752.333,-332.5 756.167,-332.5 760,-336.333 760,-340.167 760,-340.167 760,-347.833 760,-347.833 760,-351.667 756.167,-355.5 752.333,-355.5"/>
<text text-anchor="middle" x="670.5" y="-340.3" font-family="Arial" font-size="14.00" fill="#c6c5fe">components/buttonGrid.js</text>
</g>
<!-- components/lowerButtons.js&#45;&gt;components/buttonGrid.js -->
<g id="edge12" class="edge"><title>components/lowerButtons.js&#45;&gt;components/buttonGrid.js</title>
<path fill="none" stroke="#757575" d="M537.285,-335.34C548.313,-336.062 559.566,-336.799 570.621,-337.523"/>
<polygon fill="#757575" stroke="#757575" points="570.498,-341.023 580.705,-338.184 570.955,-334.038 570.498,-341.023"/>
</g>
<!-- components/menuBar.js&#45;&gt;components/buttonGrid.js -->
<g id="edge13" class="edge"><title>components/menuBar.js&#45;&gt;components/buttonGrid.js</title>
<path fill="none" stroke="#757575" d="M524.796,-360.429C539.755,-358.731 555.456,-356.948 570.773,-355.209"/>
<polygon fill="#757575" stroke="#757575" points="571.23,-358.68 580.771,-354.074 570.44,-351.725 571.23,-358.68"/>
</g>
<!-- components/spriteDisplay.js -->
<g id="node15" class="node"><title>components/spriteDisplay.js</title>
<path fill="none" stroke="#cfffac" d="M760.333,-222.5C760.333,-222.5 580.667,-222.5 580.667,-222.5 576.833,-222.5 573,-218.667 573,-214.833 573,-214.833 573,-207.167 573,-207.167 573,-203.333 576.833,-199.5 580.667,-199.5 580.667,-199.5 760.333,-199.5 760.333,-199.5 764.167,-199.5 768,-203.333 768,-207.167 768,-207.167 768,-214.833 768,-214.833 768,-218.667 764.167,-222.5 760.333,-222.5"/>
<text text-anchor="middle" x="670.5" y="-207.3" font-family="Arial" font-size="14.00" fill="#cfffac">components/spriteDisplay.js</text>
</g>
<!-- components/statBar.js&#45;&gt;components/spriteDisplay.js -->
<g id="edge16" class="edge"><title>components/statBar.js&#45;&gt;components/spriteDisplay.js</title>
<path fill="none" stroke="#757575" d="M474.56,-260.474C501.172,-251.71 539.189,-239.713 573,-231 581.487,-228.813 590.441,-226.7 599.335,-224.72"/>
<polygon fill="#757575" stroke="#757575" points="600.298,-228.092 609.324,-222.543 598.808,-221.253 600.298,-228.092"/>
</g>
<!-- components/statDisplay.js -->
<g id="node17" class="node"><title>components/statDisplay.js</title>
<path fill="none" stroke="#c6c5fe" d="M753.833,-304.5C753.833,-304.5 587.167,-304.5 587.167,-304.5 583.333,-304.5 579.5,-300.667 579.5,-296.833 579.5,-296.833 579.5,-289.167 579.5,-289.167 579.5,-285.333 583.333,-281.5 587.167,-281.5 587.167,-281.5 753.833,-281.5 753.833,-281.5 757.667,-281.5 761.5,-285.333 761.5,-289.167 761.5,-289.167 761.5,-296.833 761.5,-296.833 761.5,-300.667 757.667,-304.5 753.833,-304.5"/>
<text text-anchor="middle" x="670.5" y="-289.3" font-family="Arial" font-size="14.00" fill="#c6c5fe">components/statDisplay.js</text>
</g>
<!-- components/statBar.js&#45;&gt;components/statDisplay.js -->
<g id="edge17" class="edge"><title>components/statBar.js&#45;&gt;components/statDisplay.js</title>
<path fill="none" stroke="#757575" d="M518.668,-279.168C535.023,-280.668 552.482,-282.269 569.505,-283.83"/>
<polygon fill="#757575" stroke="#757575" points="569.189,-287.316 579.467,-284.744 569.828,-280.345 569.189,-287.316"/>
</g>
<!-- components/timeDisplay.js -->
<g id="node18" class="node"><title>components/timeDisplay.js</title>
<path fill="none" stroke="#cfffac" d="M756.333,-263.5C756.333,-263.5 584.667,-263.5 584.667,-263.5 580.833,-263.5 577,-259.667 577,-255.833 577,-255.833 577,-248.167 577,-248.167 577,-244.333 580.833,-240.5 584.667,-240.5 584.667,-240.5 756.333,-240.5 756.333,-240.5 760.167,-240.5 764,-244.333 764,-248.167 764,-248.167 764,-255.833 764,-255.833 764,-259.667 760.167,-263.5 756.333,-263.5"/>
<text text-anchor="middle" x="670.5" y="-248.3" font-family="Arial" font-size="14.00" fill="#cfffac">components/timeDisplay.js</text>
</g>
<!-- components/statBar.js&#45;&gt;components/timeDisplay.js -->
<g id="edge18" class="edge"><title>components/statBar.js&#45;&gt;components/timeDisplay.js</title>
<path fill="none" stroke="#757575" d="M518.668,-265.173C534.119,-263.824 550.555,-262.388 566.679,-260.98"/>
<polygon fill="#757575" stroke="#757575" points="567.009,-264.465 576.666,-260.108 566.4,-257.491 567.009,-264.465"/>
</g>
<!-- components/button.js -->
<g id="node11" class="node"><title>components/button.js</title>
<path fill="none" stroke="#cfffac" d="M1186.33,-206.5C1186.33,-206.5 1049.67,-206.5 1049.67,-206.5 1045.83,-206.5 1042,-202.667 1042,-198.833 1042,-198.833 1042,-191.167 1042,-191.167 1042,-187.333 1045.83,-183.5 1049.67,-183.5 1049.67,-183.5 1186.33,-183.5 1186.33,-183.5 1190.17,-183.5 1194,-187.333 1194,-191.167 1194,-191.167 1194,-198.833 1194,-198.833 1194,-202.667 1190.17,-206.5 1186.33,-206.5"/>
<text text-anchor="middle" x="1118" y="-191.3" font-family="Arial" font-size="14.00" fill="#cfffac">components/button.js</text>
</g>
<!-- components/buttonGrid.js&#45;&gt;actions/Core.js -->
<g id="edge9" class="edge"><title>components/buttonGrid.js&#45;&gt;actions/Core.js</title>
<path fill="none" stroke="#757575" d="M760.103,-351.876C783.991,-353.999 809.386,-356.257 831.706,-358.241"/>
<polygon fill="#757575" stroke="#757575" points="831.458,-361.732 841.729,-359.131 832.078,-354.76 831.458,-361.732"/>
</g>
<!-- components/buttonWrap.js -->
<g id="node13" class="node"><title>components/buttonWrap.js</title>
<path fill="none" stroke="#c6c5fe" d="M983.333,-334.5C983.333,-334.5 811.667,-334.5 811.667,-334.5 807.833,-334.5 804,-330.667 804,-326.833 804,-326.833 804,-319.167 804,-319.167 804,-315.333 807.833,-311.5 811.667,-311.5 811.667,-311.5 983.333,-311.5 983.333,-311.5 987.167,-311.5 991,-315.333 991,-319.167 991,-319.167 991,-326.833 991,-326.833 991,-330.667 987.167,-334.5 983.333,-334.5"/>
<text text-anchor="middle" x="897.5" y="-319.3" font-family="Arial" font-size="14.00" fill="#c6c5fe">components/buttonWrap.js</text>
</g>
<!-- components/buttonGrid.js&#45;&gt;components/buttonWrap.js -->
<g id="edge10" class="edge"><title>components/buttonGrid.js&#45;&gt;components/buttonWrap.js</title>
<path fill="none" stroke="#757575" d="M760.103,-335.73C771.119,-334.702 782.455,-333.644 793.663,-332.598"/>
<polygon fill="#757575" stroke="#757575" points="794.275,-336.056 803.906,-331.642 793.624,-329.087 794.275,-336.056"/>
</g>
<!-- components/buttonWrap.js&#45;&gt;components/button.js -->
<g id="edge11" class="edge"><title>components/buttonWrap.js&#45;&gt;components/button.js</title>
<path fill="none" stroke="#757575" d="M976.437,-311.38C981.665,-308.81 986.595,-305.717 991,-302 1022.98,-275.015 994.955,-241.912 1027,-215 1028.79,-213.495 1030.67,-212.096 1032.63,-210.797"/>
<polygon fill="#757575" stroke="#757575" points="1034.63,-213.684 1041.62,-205.714 1031.19,-207.59 1034.63,-213.684"/>
</g>
<!-- components/nameInput.js -->
<g id="node14" class="node"><title>components/nameInput.js</title>
<path fill="none" stroke="#c6c5fe" d="M1992.33,-348.5C1992.33,-348.5 1827.67,-348.5 1827.67,-348.5 1823.83,-348.5 1820,-344.667 1820,-340.833 1820,-340.833 1820,-333.167 1820,-333.167 1820,-329.333 1823.83,-325.5 1827.67,-325.5 1827.67,-325.5 1992.33,-325.5 1992.33,-325.5 1996.17,-325.5 2000,-329.333 2000,-333.167 2000,-333.167 2000,-340.833 2000,-340.833 2000,-344.667 1996.17,-348.5 1992.33,-348.5"/>
<text text-anchor="middle" x="1910" y="-333.3" font-family="Arial" font-size="14.00" fill="#c6c5fe">components/nameInput.js</text>
</g>
<!-- components/nameInput.js&#45;&gt;actions/Player.js -->
<g id="edge14" class="edge"><title>components/nameInput.js&#45;&gt;actions/Player.js</title>
<path fill="none" stroke="#757575" d="M1950.47,-348.51C2046.21,-376.357 2285.68,-445.558 2323,-452 2417.41,-468.297 2528.22,-473.597 2598.02,-475.281"/>
<polygon fill="#757575" stroke="#757575" points="2598.37,-478.789 2608.44,-475.513 2598.52,-471.791 2598.37,-478.789"/>
</g>
<!-- components/nameInput.js&#45;&gt;store/store.js -->
<g id="edge15" class="edge"><title>components/nameInput.js&#45;&gt;store/store.js</title>
<path fill="none" stroke="#757575" d="M1973.97,-348.514C1983.32,-352.106 1992.37,-356.818 2000,-363 2026.26,-384.282 2012.09,-406.108 2036,-430 2039.41,-433.408 2043.36,-436.482 2047.51,-439.223"/>
<polygon fill="#757575" stroke="#757575" points="2045.8,-442.277 2056.18,-444.378 2049.37,-436.26 2045.8,-442.277"/>
</g>
<!-- components/stat.js -->
<g id="node16" class="node"><title>components/stat.js</title>
<path fill="none" stroke="#cfffac" d="M957.833,-293.5C957.833,-293.5 837.167,-293.5 837.167,-293.5 833.333,-293.5 829.5,-289.667 829.5,-285.833 829.5,-285.833 829.5,-278.167 829.5,-278.167 829.5,-274.333 833.333,-270.5 837.167,-270.5 837.167,-270.5 957.833,-270.5 957.833,-270.5 961.667,-270.5 965.5,-274.333 965.5,-278.167 965.5,-278.167 965.5,-285.833 965.5,-285.833 965.5,-289.667 961.667,-293.5 957.833,-293.5"/>
<text text-anchor="middle" x="897.5" y="-278.3" font-family="Arial" font-size="14.00" fill="#cfffac">components/stat.js</text>
</g>
<!-- components/statDisplay.js&#45;&gt;components/stat.js -->
<g id="edge19" class="edge"><title>components/statDisplay.js&#45;&gt;components/stat.js</title>
<path fill="none" stroke="#757575" d="M761.72,-288.589C780.804,-287.656 800.779,-286.68 819.327,-285.773"/>
<polygon fill="#757575" stroke="#757575" points="819.654,-289.261 829.471,-285.277 819.312,-282.27 819.654,-289.261"/>
</g>
<!-- index.js -->
<g id="node19" class="node"><title>index.js</title>
<path fill="none" stroke="#c6c5fe" d="M75.8333,-446.5C75.8333,-446.5 26.1667,-446.5 26.1667,-446.5 22.3333,-446.5 18.5,-442.667 18.5,-438.833 18.5,-438.833 18.5,-431.167 18.5,-431.167 18.5,-427.333 22.3333,-423.5 26.1667,-423.5 26.1667,-423.5 75.8333,-423.5 75.8333,-423.5 79.6667,-423.5 83.5,-427.333 83.5,-431.167 83.5,-431.167 83.5,-438.833 83.5,-438.833 83.5,-442.667 79.6667,-446.5 75.8333,-446.5"/>
<text text-anchor="middle" x="51" y="-431.3" font-family="Arial" font-size="14.00" fill="#c6c5fe">index.js</text>
</g>
<!-- index.js&#45;&gt;store/store.js -->
<g id="edge21" class="edge"><title>index.js&#45;&gt;store/store.js</title>
<path fill="none" stroke="#757575" d="M83.6197,-445.985C149.017,-467.692 304.263,-514 438.5,-514 438.5,-514 438.5,-514 1119,-514 1463.31,-514 1875.44,-476.793 2025.88,-461.98"/>
<polygon fill="#757575" stroke="#757575" points="2026.23,-465.463 2035.84,-460.995 2025.54,-458.497 2026.23,-465.463"/>
</g>
<!-- index.js&#45;&gt;components/appRoot.js -->
<g id="edge20" class="edge"><title>index.js&#45;&gt;components/appRoot.js</title>
<path fill="none" stroke="#757575" d="M82.2138,-423.379C109.971,-412.703 151.281,-396.815 181.616,-385.148"/>
<polygon fill="#757575" stroke="#757575" points="182.971,-388.377 191.048,-381.52 180.458,-381.843 182.971,-388.377"/>
</g>
<!-- reducers/root.js&#45;&gt;actions/Player.js -->
<g id="edge22" class="edge"><title>reducers/root.js&#45;&gt;actions/Player.js</title>
<path fill="none" stroke="#757575" d="M2239.44,-348.778C2254.83,-367.08 2287.22,-402.007 2323,-419 2347.4,-430.59 2505.01,-453.729 2598.21,-466.677"/>
<polygon fill="#757575" stroke="#757575" points="2597.75,-470.146 2608.13,-468.051 2598.71,-463.212 2597.75,-470.146"/>
</g>
<!-- reducers/root.js&#45;&gt;actions/UI.js -->
<g id="edge23" class="edge"><title>reducers/root.js&#45;&gt;actions/UI.js</title>
<path fill="none" stroke="#757575" d="M2267.9,-325.447C2275.05,-321.797 2281.89,-317.073 2287,-311 2327.55,-262.845 2276.82,-216.786 2323,-174 2337.3,-160.752 2357.33,-154.839 2376.36,-152.537"/>
<polygon fill="#757575" stroke="#757575" points="2376.83,-156.009 2386.48,-151.625 2376.21,-149.037 2376.83,-156.009"/>
</g>
<!-- reducers/updateLowerButtons.js -->
<g id="node21" class="node"><title>reducers/updateLowerButtons.js</title>
<path fill="none" stroke="#c6c5fe" d="M2536.33,-247.5C2536.33,-247.5 2330.67,-247.5 2330.67,-247.5 2326.83,-247.5 2323,-243.667 2323,-239.833 2323,-239.833 2323,-232.167 2323,-232.167 2323,-228.333 2326.83,-224.5 2330.67,-224.5 2330.67,-224.5 2536.33,-224.5 2536.33,-224.5 2540.17,-224.5 2544,-228.333 2544,-232.167 2544,-232.167 2544,-239.833 2544,-239.833 2544,-243.667 2540.17,-247.5 2536.33,-247.5"/>
<text text-anchor="middle" x="2433.5" y="-232.3" font-family="Arial" font-size="14.00" fill="#c6c5fe">reducers/updateLowerButtons.js</text>
</g>
<!-- reducers/root.js&#45;&gt;reducers/updateLowerButtons.js -->
<g id="edge24" class="edge"><title>reducers/root.js&#45;&gt;reducers/updateLowerButtons.js</title>
<path fill="none" stroke="#757575" d="M2263.02,-325.366C2271.34,-321.543 2279.91,-316.763 2287,-311 2307.97,-293.954 2300.47,-276.926 2323,-262 2329.53,-257.675 2336.7,-254.067 2344.14,-251.057"/>
<polygon fill="#757575" stroke="#757575" points="2345.51,-254.283 2353.7,-247.556 2343.11,-247.71 2345.51,-254.283"/>
</g>
<!-- reducers/updateMenuBar.js -->
<g id="node22" class="node"><title>reducers/updateMenuBar.js</title>
<path fill="none" stroke="#c6c5fe" d="M2521.33,-368.5C2521.33,-368.5 2345.67,-368.5 2345.67,-368.5 2341.83,-368.5 2338,-364.667 2338,-360.833 2338,-360.833 2338,-353.167 2338,-353.167 2338,-349.333 2341.83,-345.5 2345.67,-345.5 2345.67,-345.5 2521.33,-345.5 2521.33,-345.5 2525.17,-345.5 2529,-349.333 2529,-353.167 2529,-353.167 2529,-360.833 2529,-360.833 2529,-364.667 2525.17,-368.5 2521.33,-368.5"/>
<text text-anchor="middle" x="2433.5" y="-353.3" font-family="Arial" font-size="14.00" fill="#c6c5fe">reducers/updateMenuBar.js</text>
</g>
<!-- reducers/root.js&#45;&gt;reducers/updateMenuBar.js -->
<g id="edge25" class="edge"><title>reducers/root.js&#45;&gt;reducers/updateMenuBar.js</title>
<path fill="none" stroke="#757575" d="M2287.22,-342.651C2299.92,-343.906 2313.78,-345.274 2327.72,-346.651"/>
<polygon fill="#757575" stroke="#757575" points="2327.58,-350.154 2337.87,-347.654 2328.27,-343.188 2327.58,-350.154"/>
</g>
<!-- reducers/updateStats.js -->
<g id="node23" class="node"><title>reducers/updateStats.js</title>
<path fill="none" stroke="#c6c5fe" d="M2509.33,-409.5C2509.33,-409.5 2357.67,-409.5 2357.67,-409.5 2353.83,-409.5 2350,-405.667 2350,-401.833 2350,-401.833 2350,-394.167 2350,-394.167 2350,-390.333 2353.83,-386.5 2357.67,-386.5 2357.67,-386.5 2509.33,-386.5 2509.33,-386.5 2513.17,-386.5 2517,-390.333 2517,-394.167 2517,-394.167 2517,-401.833 2517,-401.833 2517,-405.667 2513.17,-409.5 2509.33,-409.5"/>
<text text-anchor="middle" x="2433.5" y="-394.3" font-family="Arial" font-size="14.00" fill="#c6c5fe">reducers/updateStats.js</text>
</g>
<!-- reducers/root.js&#45;&gt;reducers/updateStats.js -->
<g id="edge26" class="edge"><title>reducers/root.js&#45;&gt;reducers/updateStats.js</title>
<path fill="none" stroke="#757575" d="M2253.17,-348.638C2271.67,-357.518 2298.47,-369.47 2323,-377 2331.86,-379.719 2341.23,-382.156 2350.62,-384.32"/>
<polygon fill="#757575" stroke="#757575" points="2349.87,-387.738 2360.39,-386.478 2351.38,-380.903 2349.87,-387.738"/>
</g>
<!-- reducers/updateTime.js -->
<g id="node24" class="node"><title>reducers/updateTime.js</title>
<path fill="none" stroke="#c6c5fe" d="M2509.33,-327.5C2509.33,-327.5 2357.67,-327.5 2357.67,-327.5 2353.83,-327.5 2350,-323.667 2350,-319.833 2350,-319.833 2350,-312.167 2350,-312.167 2350,-308.333 2353.83,-304.5 2357.67,-304.5 2357.67,-304.5 2509.33,-304.5 2509.33,-304.5 2513.17,-304.5 2517,-308.333 2517,-312.167 2517,-312.167 2517,-319.833 2517,-319.833 2517,-323.667 2513.17,-327.5 2509.33,-327.5"/>
<text text-anchor="middle" x="2433.5" y="-312.3" font-family="Arial" font-size="14.00" fill="#c6c5fe">reducers/updateTime.js</text>
</g>
<!-- reducers/root.js&#45;&gt;reducers/updateTime.js -->
<g id="edge27" class="edge"><title>reducers/root.js&#45;&gt;reducers/updateTime.js</title>
<path fill="none" stroke="#757575" d="M2287.22,-331.066C2303.45,-329.383 2321.55,-327.506 2339.32,-325.663"/>
<polygon fill="#757575" stroke="#757575" points="2340.14,-329.097 2349.73,-324.584 2339.42,-322.134 2340.14,-329.097"/>
</g>
<!-- store/initialState.js -->
<g id="node25" class="node"><title>store/initialState.js</title>
<path fill="none" stroke="#c6c5fe" d="M2491.33,-206.5C2491.33,-206.5 2375.67,-206.5 2375.67,-206.5 2371.83,-206.5 2368,-202.667 2368,-198.833 2368,-198.833 2368,-191.167 2368,-191.167 2368,-187.333 2371.83,-183.5 2375.67,-183.5 2375.67,-183.5 2491.33,-183.5 2491.33,-183.5 2495.17,-183.5 2499,-187.333 2499,-191.167 2499,-191.167 2499,-198.833 2499,-198.833 2499,-202.667 2495.17,-206.5 2491.33,-206.5"/>
<text text-anchor="middle" x="2433.5" y="-191.3" font-family="Arial" font-size="14.00" fill="#c6c5fe">store/initialState.js</text>
</g>
<!-- reducers/root.js&#45;&gt;store/initialState.js -->
<g id="edge28" class="edge"><title>reducers/root.js&#45;&gt;store/initialState.js</title>
<path fill="none" stroke="#757575" d="M2266.55,-325.478C2274.05,-321.791 2281.36,-317.044 2287,-311 2318.09,-277.684 2288.04,-244.228 2323,-215 2332.98,-206.654 2345.29,-201.314 2358.01,-197.977"/>
<polygon fill="#757575" stroke="#757575" points="2358.78,-201.391 2367.78,-195.799 2357.26,-194.558 2358.78,-201.391"/>
</g>
<!-- utils.js -->
<g id="node26" class="node"><title>utils.js</title>
<path fill="none" stroke="#cfffac" d="M2688.33,-327.5C2688.33,-327.5 2647.67,-327.5 2647.67,-327.5 2643.83,-327.5 2640,-323.667 2640,-319.833 2640,-319.833 2640,-312.167 2640,-312.167 2640,-308.333 2643.83,-304.5 2647.67,-304.5 2647.67,-304.5 2688.33,-304.5 2688.33,-304.5 2692.17,-304.5 2696,-308.333 2696,-312.167 2696,-312.167 2696,-319.833 2696,-319.833 2696,-323.667 2692.17,-327.5 2688.33,-327.5"/>
<text text-anchor="middle" x="2668" y="-312.3" font-family="Arial" font-size="14.00" fill="#cfffac">utils.js</text>
</g>
<!-- reducers/root.js&#45;&gt;utils.js -->
<g id="edge29" class="edge"><title>reducers/root.js&#45;&gt;utils.js</title>
<path fill="none" stroke="#757575" d="M2255.58,-325.371C2282.8,-313.009 2322.1,-295.195 2323,-295 2432.71,-271.376 2566.31,-293.641 2629.91,-307.234"/>
<polygon fill="#757575" stroke="#757575" points="2629.35,-310.694 2639.86,-309.414 2630.84,-303.856 2629.35,-310.694"/>
</g>
<!-- reducers/updateLowerButtons.js&#45;&gt;utils.js -->
<g id="edge30" class="edge"><title>reducers/updateLowerButtons.js&#45;&gt;utils.js</title>
<path fill="none" stroke="#757575" d="M2491.6,-247.503C2508.64,-251.485 2527.23,-256.38 2544,-262 2575.62,-272.6 2610.3,-288.209 2634.75,-299.923"/>
<polygon fill="#757575" stroke="#757575" points="2633.39,-303.153 2643.92,-304.361 2636.44,-296.853 2633.39,-303.153"/>
</g>
<!-- reducers/updateMenuBar.js&#45;&gt;utils.js -->
<g id="edge31" class="edge"><title>reducers/updateMenuBar.js&#45;&gt;utils.js</title>
<path fill="none" stroke="#757575" d="M2499.88,-345.47C2541.75,-338.086 2594.59,-328.768 2629.52,-322.609"/>
<polygon fill="#757575" stroke="#757575" points="2630.51,-325.988 2639.75,-320.805 2629.3,-319.095 2630.51,-325.988"/>
</g>
<!-- reducers/updateStats.js&#45;&gt;actions/Player.js -->
<g id="edge32" class="edge"><title>reducers/updateStats.js&#45;&gt;actions/Player.js</title>
<path fill="none" stroke="#757575" d="M2490.99,-409.516C2508.18,-413.526 2527.01,-418.435 2544,-424 2575.12,-434.194 2609.34,-448.969 2633.77,-460.167"/>
<polygon fill="#757575" stroke="#757575" points="2632.41,-463.392 2642.95,-464.418 2635.35,-457.04 2632.41,-463.392"/>
</g>
<!-- reducers/updateStats.js&#45;&gt;utils.js -->
<g id="edge33" class="edge"><title>reducers/updateStats.js&#45;&gt;utils.js</title>
<path fill="none" stroke="#757575" d="M2509.42,-386.44C2521.13,-383.831 2532.99,-380.708 2544,-377 2578.05,-365.529 2614.65,-346.417 2638.99,-332.639"/>
<polygon fill="#757575" stroke="#757575" points="2640.75,-335.661 2647.68,-327.647 2637.27,-329.59 2640.75,-335.661"/>
</g>
<!-- reducers/updateTime.js&#45;&gt;utils.js -->
<g id="edge34" class="edge"><title>reducers/updateTime.js&#45;&gt;utils.js</title>
<path fill="none" stroke="#757575" d="M2517.13,-316C2555.65,-316 2599.58,-316 2629.86,-316"/>
<polygon fill="#757575" stroke="#757575" points="2629.98,-319.5 2639.98,-316 2629.98,-312.5 2629.98,-319.5"/>
</g>
<!-- store/initialState.js&#45;&gt;scenes/sceneSymbols.js -->
<g id="edge50" class="edge"><title>store/initialState.js&#45;&gt;scenes/sceneSymbols.js</title>
<path fill="none" stroke="#757575" d="M2499.23,-187.93C2514.36,-184.836 2530.11,-180.39 2544,-174 2586.38,-154.506 2626.98,-117.381 2649.3,-94.8418"/>
<polygon fill="#757575" stroke="#757575" points="2651.94,-97.1415 2656.4,-87.5306 2646.92,-92.2632 2651.94,-97.1415"/>
</g>
<!-- scenes/charCreation.js&#45;&gt;actions/Player.js -->
<g id="edge35" class="edge"><title>scenes/charCreation.js&#45;&gt;actions/Player.js</title>
<path fill="none" stroke="#757575" d="M1389.85,-226.622C1395.54,-228.928 1401.02,-231.69 1406,-235 1428.2,-249.767 1421.49,-265.957 1442,-283 1620.1,-430.989 1677.44,-514 1909,-514 1909,-514 1909,-514 2230,-514 2360.63,-514 2512.39,-496.94 2598.33,-485.682"/>
<polygon fill="#757575" stroke="#757575" points="2599.02,-489.121 2608.47,-484.339 2598.1,-482.181 2599.02,-489.121"/>
</g>
<!-- scenes/charCreation.js&#45;&gt;actions/UI.js -->
<g id="edge36" class="edge"><title>scenes/charCreation.js&#45;&gt;actions/UI.js</title>
<path fill="none" stroke="#757575" d="M1406.29,-221.539C1480.3,-227.035 1593.51,-234 1692,-234 1692,-234 1692,-234 2086.5,-234 2194.94,-234 2217.05,-197.089 2323,-174 2340.28,-170.234 2359.21,-166.604 2376.39,-163.494"/>
<polygon fill="#757575" stroke="#757575" points="2377.05,-166.932 2386.28,-161.726 2375.82,-160.041 2377.05,-166.932"/>
</g>
<!-- scenes/charCreation.js&#45;&gt;store/store.js -->
<g id="edge40" class="edge"><title>scenes/charCreation.js&#45;&gt;store/store.js</title>
<path fill="none" stroke="#757575" d="M1375.48,-226.504C1385.62,-229.114 1396.2,-232.006 1406,-235 1422.27,-239.97 1425.88,-242.551 1442,-248 1688.34,-331.29 1754.31,-338.807 2000,-424 2015.05,-429.219 2031.46,-435.334 2045.78,-440.812"/>
<polygon fill="#757575" stroke="#757575" points="2044.73,-444.157 2055.32,-444.484 2047.24,-437.625 2044.73,-444.157"/>
</g>
<!-- scenes/charCreation.js&#45;&gt;scenes/menus.js -->
<g id="edge37" class="edge"><title>scenes/charCreation.js&#45;&gt;scenes/menus.js</title>
<path fill="none" stroke="#757575" d="M1360.95,-203.484C1388.8,-194.174 1428.21,-181 1458.46,-170.889"/>
<polygon fill="#757575" stroke="#757575" points="1459.96,-174.077 1468.34,-167.587 1457.74,-167.438 1459.96,-174.077"/>
</g>
<!-- scenes/charCreation.js&#45;&gt;scenes/sceneSymbols.js -->
<g id="edge38" class="edge"><title>scenes/charCreation.js&#45;&gt;scenes/sceneSymbols.js</title>
<path fill="none" stroke="#757575" d="M1339.33,-203.387C1384.21,-164.009 1539.71,-38 1692,-38 1692,-38 1692,-38 2230,-38 2349.16,-38 2485.91,-52.1959 2574.23,-63.2344"/>
<polygon fill="#757575" stroke="#757575" points="2573.86,-66.7157 2584.22,-64.4956 2574.74,-59.7708 2573.86,-66.7157"/>
</g>
<!-- scenes/sceneTextStore.js -->
<g id="node30" class="node"><title>scenes/sceneTextStore.js</title>
<path fill="none" stroke="#c6c5fe" d="M1776.33,-205.5C1776.33,-205.5 1609.67,-205.5 1609.67,-205.5 1605.83,-205.5 1602,-201.667 1602,-197.833 1602,-197.833 1602,-190.167 1602,-190.167 1602,-186.333 1605.83,-182.5 1609.67,-182.5 1609.67,-182.5 1776.33,-182.5 1776.33,-182.5 1780.17,-182.5 1784,-186.333 1784,-190.167 1784,-190.167 1784,-197.833 1784,-197.833 1784,-201.667 1780.17,-205.5 1776.33,-205.5"/>
<text text-anchor="middle" x="1693" y="-190.3" font-family="Arial" font-size="14.00" fill="#c6c5fe">scenes/sceneTextStore.js</text>
</g>
<!-- scenes/charCreation.js&#45;&gt;scenes/sceneTextStore.js -->
<g id="edge39" class="edge"><title>scenes/charCreation.js&#45;&gt;scenes/sceneTextStore.js</title>
<path fill="none" stroke="#757575" d="M1406.26,-210.417C1460.76,-207.286 1533.42,-203.112 1591.82,-199.756"/>
<polygon fill="#757575" stroke="#757575" points="1592.03,-203.25 1601.81,-199.182 1591.62,-196.261 1592.03,-203.25"/>
</g>
<!-- scenes/menus.js&#45;&gt;actions/UI.js -->
<g id="edge41" class="edge"><title>scenes/menus.js&#45;&gt;actions/UI.js</title>
<path fill="none" stroke="#757575" d="M1566.26,-155.508C1645.41,-154.916 1787.48,-154 1909,-154 1909,-154 1909,-154 2086.5,-154 2188.63,-154 2307.72,-154 2376.19,-154"/>
<polygon fill="#757575" stroke="#757575" points="2376.33,-157.5 2386.33,-154 2376.33,-150.5 2376.33,-157.5"/>
</g>
<!-- scenes/menus.js&#45;&gt;scenes/sceneSymbols.js -->
<g id="edge42" class="edge"><title>scenes/menus.js&#45;&gt;scenes/sceneSymbols.js</title>
<path fill="none" stroke="#757575" d="M1539.4,-144.453C1608.56,-122.298 1769.75,-76 1909,-76 1909,-76 1909,-76 2230,-76 2346.88,-76 2481.35,-76 2569.91,-76"/>
<polygon fill="#757575" stroke="#757575" points="2569.94,-79.5001 2579.94,-76 2569.94,-72.5001 2569.94,-79.5001"/>
</g>
<!-- scenes/menus.js&#45;&gt;scenes/sceneTextStore.js -->
<g id="edge43" class="edge"><title>scenes/menus.js&#45;&gt;scenes/sceneTextStore.js</title>
<path fill="none" stroke="#757575" d="M1561.61,-167.504C1581.66,-171.578 1604.4,-176.199 1625.21,-180.429"/>
<polygon fill="#757575" stroke="#757575" points="1624.76,-183.908 1635.26,-182.469 1626.15,-177.048 1624.76,-183.908"/>
</g>
<!-- scenes/sceneTextStore.js&#45;&gt;components/nameInput.js -->
<g id="edge48" class="edge"><title>scenes/sceneTextStore.js&#45;&gt;components/nameInput.js</title>
<path fill="none" stroke="#757575" d="M1711.59,-205.702C1749.41,-230.851 1838.57,-290.159 1882.96,-319.68"/>
<polygon fill="#757575" stroke="#757575" points="1881.2,-322.713 1891.46,-325.337 1885.08,-316.884 1881.2,-322.713"/>
</g>
<!-- scenes/sceneTextStore.js&#45;&gt;scenes/sceneSymbols.js -->
<g id="edge49" class="edge"><title>scenes/sceneTextStore.js&#45;&gt;scenes/sceneSymbols.js</title>
<path fill="none" stroke="#757575" d="M1727.22,-182.453C1794.02,-160.298 1949.73,-114 2084.5,-114 2084.5,-114 2084.5,-114 2230,-114 2349.16,-114 2485.91,-99.8041 2574.23,-88.7656"/>
<polygon fill="#757575" stroke="#757575" points="2574.74,-92.2292 2584.22,-87.5044 2573.86,-85.2843 2574.74,-92.2292"/>
</g>
<!-- setupTests.js -->
<g id="node32" class="node"><title>setupTests.js</title>
<path fill="none" stroke="#cfffac" d="M94.3333,-487.5C94.3333,-487.5 7.66667,-487.5 7.66667,-487.5 3.83333,-487.5 0,-483.667 0,-479.833 0,-479.833 0,-472.167 0,-472.167 0,-468.333 3.83333,-464.5 7.66667,-464.5 7.66667,-464.5 94.3333,-464.5 94.3333,-464.5 98.1667,-464.5 102,-468.333 102,-472.167 102,-472.167 102,-479.833 102,-479.833 102,-483.667 98.1667,-487.5 94.3333,-487.5"/>
<text text-anchor="middle" x="51" y="-472.3" font-family="Arial" font-size="14.00" fill="#cfffac">setupTests.js</text>
</g>
</g>
</svg>
