<?xml version="1.0" encoding="UTF-8" standalone="no"?>
<!DOCTYPE svg PUBLIC "-//W3C//DTD SVG 1.1//EN"
 "http://www.w3.org/Graphics/SVG/1.1/DTD/svg11.dtd">
<!-- Generated by graphviz version 2.38.0 (20140413.2041)
 -->
<!-- Title: G Pages: 1 -->
<svg width="2915pt" height="593pt"
 viewBox="0.00 0.00 2915.20 593.20" xmlns="http://www.w3.org/2000/svg" xmlns:xlink="http://www.w3.org/1999/xlink">
<g id="graph0" class="graph" transform="scale(1 1) rotate(0) translate(21.6 571.6)">
<title>G</title>
<polygon fill="#111111" stroke="none" points="-21.6,21.6 -21.6,-571.6 2893.6,-571.6 2893.6,21.6 -21.6,21.6"/>
<!-- actions/Core.js -->
<g id="node1" class="node"><title>actions/Core.js</title>
<path fill="none" stroke="#c6c5fe" d="M1740.83,-243.5C1740.83,-243.5 1645.17,-243.5 1645.17,-243.5 1641.33,-243.5 1637.5,-239.667 1637.5,-235.833 1637.5,-235.833 1637.5,-228.167 1637.5,-228.167 1637.5,-224.333 1641.33,-220.5 1645.17,-220.5 1645.17,-220.5 1740.83,-220.5 1740.83,-220.5 1744.67,-220.5 1748.5,-224.333 1748.5,-228.167 1748.5,-228.167 1748.5,-235.833 1748.5,-235.833 1748.5,-239.667 1744.67,-243.5 1740.83,-243.5"/>
<text text-anchor="middle" x="1693" y="-228.3" font-family="Arial" font-size="14.00" fill="#c6c5fe">actions/Core.js</text>
</g>
<!-- actions/coreMsg.js -->
<g id="node2" class="node"><title>actions/coreMsg.js</title>
<path fill="none" stroke="#cfffac" d="M2843.83,-523.5C2843.83,-523.5 2724.17,-523.5 2724.17,-523.5 2720.33,-523.5 2716.5,-519.667 2716.5,-515.833 2716.5,-515.833 2716.5,-508.167 2716.5,-508.167 2716.5,-504.333 2720.33,-500.5 2724.17,-500.5 2724.17,-500.5 2843.83,-500.5 2843.83,-500.5 2847.67,-500.5 2851.5,-504.333 2851.5,-508.167 2851.5,-508.167 2851.5,-515.833 2851.5,-515.833 2851.5,-519.667 2847.67,-523.5 2843.83,-523.5"/>
<text text-anchor="middle" x="2784" y="-508.3" font-family="Arial" font-size="14.00" fill="#cfffac">actions/coreMsg.js</text>
</g>
<!-- actions/Core.js&#45;&gt;actions/coreMsg.js -->
<g id="edge1" class="edge"><title>actions/Core.js&#45;&gt;actions/coreMsg.js</title>
<path fill="none" stroke="#757575" d="M1700.72,-243.695C1734.64,-301.066 1893.4,-550 2094.5,-550 2094.5,-550 2094.5,-550 2385,-550 2497.16,-550 2626.3,-534.86 2706.3,-523.693"/>
<polygon fill="#757575" stroke="#757575" points="2706.87,-527.146 2716.29,-522.283 2705.9,-520.215 2706.87,-527.146"/>
</g>
<!-- store/store.js -->
<g id="node3" class="node"><title>store/store.js</title>
<path fill="none" stroke="#c6c5fe" d="M2282.33,-303.5C2282.33,-303.5 2198.67,-303.5 2198.67,-303.5 2194.83,-303.5 2191,-299.667 2191,-295.833 2191,-295.833 2191,-288.167 2191,-288.167 2191,-284.333 2194.83,-280.5 2198.67,-280.5 2198.67,-280.5 2282.33,-280.5 2282.33,-280.5 2286.17,-280.5 2290,-284.333 2290,-288.167 2290,-288.167 2290,-295.833 2290,-295.833 2290,-299.667 2286.17,-303.5 2282.33,-303.5"/>
<text text-anchor="middle" x="2240.5" y="-288.3" font-family="Arial" font-size="14.00" fill="#c6c5fe">store/store.js</text>
</g>
<!-- actions/Core.js&#45;&gt;store/store.js -->
<g id="edge2" class="edge"><title>actions/Core.js&#45;&gt;store/store.js</title>
<path fill="none" stroke="#757575" d="M1748.61,-227.155C1835.97,-220.973 2011.87,-214.991 2155,-251 2175.22,-256.088 2196.33,-266.326 2212.39,-275.298"/>
<polygon fill="#757575" stroke="#757575" points="2210.81,-278.425 2221.22,-280.385 2214.3,-272.36 2210.81,-278.425"/>
</g>
<!-- reducers/root.js -->
<g id="node24" class="node"><title>reducers/root.js</title>
<path fill="none" stroke="#c6c5fe" d="M2434.33,-324.5C2434.33,-324.5 2333.67,-324.5 2333.67,-324.5 2329.83,-324.5 2326,-320.667 2326,-316.833 2326,-316.833 2326,-309.167 2326,-309.167 2326,-305.333 2329.83,-301.5 2333.67,-301.5 2333.67,-301.5 2434.33,-301.5 2434.33,-301.5 2438.17,-301.5 2442,-305.333 2442,-309.167 2442,-309.167 2442,-316.833 2442,-316.833 2442,-320.667 2438.17,-324.5 2434.33,-324.5"/>
<text text-anchor="middle" x="2384" y="-309.3" font-family="Arial" font-size="14.00" fill="#c6c5fe">reducers/root.js</text>
</g>
<!-- store/store.js&#45;&gt;reducers/root.js -->
<g id="edge54" class="edge"><title>store/store.js&#45;&gt;reducers/root.js</title>
<path fill="none" stroke="#757575" d="M2290.2,-299.227C2298.47,-300.455 2307.19,-301.749 2315.84,-303.033"/>
<polygon fill="#757575" stroke="#757575" points="2315.53,-306.524 2325.93,-304.53 2316.55,-299.6 2315.53,-306.524"/>
</g>
<!-- actions/Engine.js -->
<g id="node4" class="node"><title>actions/Engine.js</title>
<path fill="none" stroke="#c6c5fe" d="M951.833,-157.5C951.833,-157.5 843.167,-157.5 843.167,-157.5 839.333,-157.5 835.5,-153.667 835.5,-149.833 835.5,-149.833 835.5,-142.167 835.5,-142.167 835.5,-138.333 839.333,-134.5 843.167,-134.5 843.167,-134.5 951.833,-134.5 951.833,-134.5 955.667,-134.5 959.5,-138.333 959.5,-142.167 959.5,-142.167 959.5,-149.833 959.5,-149.833 959.5,-153.667 955.667,-157.5 951.833,-157.5"/>
<text text-anchor="middle" x="897.5" y="-142.3" font-family="Arial" font-size="14.00" fill="#c6c5fe">actions/Engine.js</text>
</g>
<!-- scenes/sceneFunctions.js -->
<g id="node5" class="node"><title>scenes/sceneFunctions.js</title>
<path fill="none" stroke="#c6c5fe" d="M1201.33,-157.5C1201.33,-157.5 1034.67,-157.5 1034.67,-157.5 1030.83,-157.5 1027,-153.667 1027,-149.833 1027,-149.833 1027,-142.167 1027,-142.167 1027,-138.333 1030.83,-134.5 1034.67,-134.5 1034.67,-134.5 1201.33,-134.5 1201.33,-134.5 1205.17,-134.5 1209,-138.333 1209,-142.167 1209,-142.167 1209,-149.833 1209,-149.833 1209,-153.667 1205.17,-157.5 1201.33,-157.5"/>
<text text-anchor="middle" x="1118" y="-142.3" font-family="Arial" font-size="14.00" fill="#c6c5fe">scenes/sceneFunctions.js</text>
</g>
<!-- actions/Engine.js&#45;&gt;scenes/sceneFunctions.js -->
<g id="edge3" class="edge"><title>actions/Engine.js&#45;&gt;scenes/sceneFunctions.js</title>
<path fill="none" stroke="#757575" d="M959.655,-146C977.394,-146 997.247,-146 1016.72,-146"/>
<polygon fill="#757575" stroke="#757575" points="1016.85,-149.5 1026.85,-146 1016.85,-142.5 1016.85,-149.5"/>
</g>
<!-- scenes/sceneSymbols.js -->
<g id="node6" class="node"><title>scenes/sceneSymbols.js</title>
<path fill="none" stroke="#cfffac" d="M2864.33,-106.5C2864.33,-106.5 2703.67,-106.5 2703.67,-106.5 2699.83,-106.5 2696,-102.667 2696,-98.8333 2696,-98.8333 2696,-91.1667 2696,-91.1667 2696,-87.3333 2699.83,-83.5 2703.67,-83.5 2703.67,-83.5 2864.33,-83.5 2864.33,-83.5 2868.17,-83.5 2872,-87.3333 2872,-91.1667 2872,-91.1667 2872,-98.8333 2872,-98.8333 2872,-102.667 2868.17,-106.5 2864.33,-106.5"/>
<text text-anchor="middle" x="2784" y="-91.3" font-family="Arial" font-size="14.00" fill="#cfffac">scenes/sceneSymbols.js</text>
</g>
<!-- actions/Engine.js&#45;&gt;scenes/sceneSymbols.js -->
<g id="edge4" class="edge"><title>actions/Engine.js&#45;&gt;scenes/sceneSymbols.js</title>
<path fill="none" stroke="#757575" d="M917.652,-134.299C976.243,-99.6538 1159.15,-0 1324.5,-0 1324.5,-0 1324.5,-0 2385,-0 2508.45,-0 2541.5,-4.40392 2660,-39 2693.21,-48.6945 2728.96,-65.7957 2753.31,-78.5574"/>
<polygon fill="#757575" stroke="#757575" points="2751.9,-81.7726 2762.38,-83.3827 2755.19,-75.5937 2751.9,-81.7726"/>
</g>
<!-- scenes/sceneFunctions.js&#45;&gt;actions/Core.js -->
<g id="edge45" class="edge"><title>scenes/sceneFunctions.js&#45;&gt;actions/Core.js</title>
<path fill="none" stroke="#757575" d="M1190.86,-157.552C1197.21,-159.872 1203.35,-162.657 1209,-166 1229.87,-178.352 1223.2,-196.386 1245,-207 1369.32,-267.522 1536.71,-256.003 1627.28,-243.34"/>
<polygon fill="#757575" stroke="#757575" points="1628.01,-246.771 1637.4,-241.875 1627,-239.844 1628.01,-246.771"/>
</g>
<!-- scenes/sceneFunctions.js&#45;&gt;store/store.js -->
<g id="edge50" class="edge"><title>scenes/sceneFunctions.js&#45;&gt;store/store.js</title>
<path fill="none" stroke="#757575" d="M1195.52,-157.565C1200.33,-159.91 1204.88,-162.695 1209,-166 1238.47,-189.639 1216.04,-218.738 1245,-243 1335.98,-319.229 1384.3,-312 1503,-312 1503,-312 1503,-312 1911,-312 2005.51,-312 2115.02,-303.651 2180.7,-297.742"/>
<polygon fill="#757575" stroke="#757575" points="2181.22,-301.209 2190.86,-296.816 2180.58,-294.238 2181.22,-301.209"/>
</g>
<!-- scenes/sceneFunctions.js&#45;&gt;scenes/sceneSymbols.js -->
<g id="edge48" class="edge"><title>scenes/sceneFunctions.js&#45;&gt;scenes/sceneSymbols.js</title>
<path fill="none" stroke="#757575" d="M1142.61,-134.442C1201.76,-106.581 1361.72,-38 1503,-38 1503,-38 1503,-38 2385,-38 2506.58,-38 2646.96,-64.387 2724.28,-81.2541"/>
<polygon fill="#757575" stroke="#757575" points="2723.78,-84.7292 2734.3,-83.4652 2725.29,-77.8935 2723.78,-84.7292"/>
</g>
<!-- scenes/charCreation.js -->
<g id="node30" class="node"><title>scenes/charCreation.js</title>
<path fill="none" stroke="#c6c5fe" d="M1398.33,-198.5C1398.33,-198.5 1252.67,-198.5 1252.67,-198.5 1248.83,-198.5 1245,-194.667 1245,-190.833 1245,-190.833 1245,-183.167 1245,-183.167 1245,-179.333 1248.83,-175.5 1252.67,-175.5 1252.67,-175.5 1398.33,-175.5 1398.33,-175.5 1402.17,-175.5 1406,-179.333 1406,-183.167 1406,-183.167 1406,-190.833 1406,-190.833 1406,-194.667 1402.17,-198.5 1398.33,-198.5"/>
<text text-anchor="middle" x="1325.5" y="-183.3" font-family="Arial" font-size="14.00" fill="#c6c5fe">scenes/charCreation.js</text>
</g>
<!-- scenes/sceneFunctions.js&#45;&gt;scenes/charCreation.js -->
<g id="edge46" class="edge"><title>scenes/sceneFunctions.js&#45;&gt;scenes/charCreation.js</title>
<path fill="none" stroke="#757575" d="M1176.79,-157.53C1201.63,-162.485 1230.83,-168.312 1256.69,-173.47"/>
<polygon fill="#757575" stroke="#757575" points="1256.3,-176.961 1266.79,-175.486 1257.67,-170.097 1256.3,-176.961"/>
</g>
<!-- scenes/menus.js -->
<g id="node31" class="node"><title>scenes/menus.js</title>
<path fill="none" stroke="#c6c5fe" d="M1558.33,-127.5C1558.33,-127.5 1449.67,-127.5 1449.67,-127.5 1445.83,-127.5 1442,-123.667 1442,-119.833 1442,-119.833 1442,-112.167 1442,-112.167 1442,-108.333 1445.83,-104.5 1449.67,-104.5 1449.67,-104.5 1558.33,-104.5 1558.33,-104.5 1562.17,-104.5 1566,-108.333 1566,-112.167 1566,-112.167 1566,-119.833 1566,-119.833 1566,-123.667 1562.17,-127.5 1558.33,-127.5"/>
<text text-anchor="middle" x="1504" y="-112.3" font-family="Arial" font-size="14.00" fill="#c6c5fe">scenes/menus.js</text>
</g>
<!-- scenes/sceneFunctions.js&#45;&gt;scenes/menus.js -->
<g id="edge47" class="edge"><title>scenes/sceneFunctions.js&#45;&gt;scenes/menus.js</title>
<path fill="none" stroke="#757575" d="M1178.39,-134.466C1199.36,-130.829 1223.15,-127.192 1245,-125 1307.92,-118.686 1379.86,-116.598 1431.75,-115.996"/>
<polygon fill="#757575" stroke="#757575" points="1431.89,-119.495 1441.86,-115.894 1431.82,-112.495 1431.89,-119.495"/>
</g>
<!-- scenes/tests/testing.js -->
<g id="node33" class="node"><title>scenes/tests/testing.js</title>
<path fill="none" stroke="#cfffac" d="M1396.83,-157.5C1396.83,-157.5 1254.17,-157.5 1254.17,-157.5 1250.33,-157.5 1246.5,-153.667 1246.5,-149.833 1246.5,-149.833 1246.5,-142.167 1246.5,-142.167 1246.5,-138.333 1250.33,-134.5 1254.17,-134.5 1254.17,-134.5 1396.83,-134.5 1396.83,-134.5 1400.67,-134.5 1404.5,-138.333 1404.5,-142.167 1404.5,-142.167 1404.5,-149.833 1404.5,-149.833 1404.5,-153.667 1400.67,-157.5 1396.83,-157.5"/>
<text text-anchor="middle" x="1325.5" y="-142.3" font-family="Arial" font-size="14.00" fill="#cfffac">scenes/tests/testing.js</text>
</g>
<!-- scenes/sceneFunctions.js&#45;&gt;scenes/tests/testing.js -->
<g id="edge49" class="edge"><title>scenes/sceneFunctions.js&#45;&gt;scenes/tests/testing.js</title>
<path fill="none" stroke="#757575" d="M1209.14,-146C1218.15,-146 1227.29,-146 1236.28,-146"/>
<polygon fill="#757575" stroke="#757575" points="1236.35,-149.5 1246.35,-146 1236.35,-142.5 1236.35,-149.5"/>
</g>
<!-- actions/Player.js -->
<g id="node7" class="node"><title>actions/Player.js</title>
<path fill="none" stroke="#c6c5fe" d="M2147.33,-283.5C2147.33,-283.5 2043.67,-283.5 2043.67,-283.5 2039.83,-283.5 2036,-279.667 2036,-275.833 2036,-275.833 2036,-268.167 2036,-268.167 2036,-264.333 2039.83,-260.5 2043.67,-260.5 2043.67,-260.5 2147.33,-260.5 2147.33,-260.5 2151.17,-260.5 2155,-264.333 2155,-268.167 2155,-268.167 2155,-275.833 2155,-275.833 2155,-279.667 2151.17,-283.5 2147.33,-283.5"/>
<text text-anchor="middle" x="2095.5" y="-268.3" font-family="Arial" font-size="14.00" fill="#c6c5fe">actions/Player.js</text>
</g>
<!-- actions/Player.js&#45;&gt;store/store.js -->
<g id="edge6" class="edge"><title>actions/Player.js&#45;&gt;store/store.js</title>
<path fill="none" stroke="#757575" d="M2155.08,-280.192C2163.52,-281.374 2172.21,-282.589 2180.66,-283.771"/>
<polygon fill="#757575" stroke="#757575" points="2180.43,-287.272 2190.82,-285.191 2181.4,-280.34 2180.43,-287.272"/>
</g>
<!-- actions/playerMsg.js -->
<g id="node8" class="node"><title>actions/playerMsg.js</title>
<path fill="none" stroke="#cfffac" d="M2848.83,-445.5C2848.83,-445.5 2719.17,-445.5 2719.17,-445.5 2715.33,-445.5 2711.5,-441.667 2711.5,-437.833 2711.5,-437.833 2711.5,-430.167 2711.5,-430.167 2711.5,-426.333 2715.33,-422.5 2719.17,-422.5 2719.17,-422.5 2848.83,-422.5 2848.83,-422.5 2852.67,-422.5 2856.5,-426.333 2856.5,-430.167 2856.5,-430.167 2856.5,-437.833 2856.5,-437.833 2856.5,-441.667 2852.67,-445.5 2848.83,-445.5"/>
<text text-anchor="middle" x="2784" y="-430.3" font-family="Arial" font-size="14.00" fill="#cfffac">actions/playerMsg.js</text>
</g>
<!-- actions/Player.js&#45;&gt;actions/playerMsg.js -->
<g id="edge5" class="edge"><title>actions/Player.js&#45;&gt;actions/playerMsg.js</title>
<path fill="none" stroke="#757575" d="M2113.72,-283.726C2165.74,-318.345 2326.98,-419.822 2478,-454 2562.33,-473.084 2662.86,-459.775 2724.81,-447.576"/>
<polygon fill="#757575" stroke="#757575" points="2725.68,-450.97 2734.79,-445.554 2724.29,-444.109 2725.68,-450.97"/>
</g>
<!-- actions/engineMsg.js -->
<g id="node9" class="node"><title>actions/engineMsg.js</title>
<path fill="none" stroke="#cfffac" d="M2635.83,-324.5C2635.83,-324.5 2502.17,-324.5 2502.17,-324.5 2498.33,-324.5 2494.5,-320.667 2494.5,-316.833 2494.5,-316.833 2494.5,-309.167 2494.5,-309.167 2494.5,-305.333 2498.33,-301.5 2502.17,-301.5 2502.17,-301.5 2635.83,-301.5 2635.83,-301.5 2639.67,-301.5 2643.5,-305.333 2643.5,-309.167 2643.5,-309.167 2643.5,-316.833 2643.5,-316.833 2643.5,-320.667 2639.67,-324.5 2635.83,-324.5"/>
<text text-anchor="middle" x="2569" y="-309.3" font-family="Arial" font-size="14.00" fill="#cfffac">actions/engineMsg.js</text>
</g>
<!-- components/appRoot.js -->
<g id="node10" class="node"><title>components/appRoot.js</title>
<path fill="none" stroke="#c6c5fe" d="M298.333,-280.5C298.333,-280.5 145.667,-280.5 145.667,-280.5 141.833,-280.5 138,-276.667 138,-272.833 138,-272.833 138,-265.167 138,-265.167 138,-261.333 141.833,-257.5 145.667,-257.5 145.667,-257.5 298.333,-257.5 298.333,-257.5 302.167,-257.5 306,-261.333 306,-265.167 306,-265.167 306,-272.833 306,-272.833 306,-276.667 302.167,-280.5 298.333,-280.5"/>
<text text-anchor="middle" x="222" y="-265.3" font-family="Arial" font-size="14.00" fill="#c6c5fe">components/appRoot.js</text>
</g>
<!-- components/lowerButtons.js -->
<g id="node11" class="node"><title>components/lowerButtons.js</title>
<path fill="none" stroke="#c6c5fe" d="M529.333,-239.5C529.333,-239.5 349.667,-239.5 349.667,-239.5 345.833,-239.5 342,-235.667 342,-231.833 342,-231.833 342,-224.167 342,-224.167 342,-220.333 345.833,-216.5 349.667,-216.5 349.667,-216.5 529.333,-216.5 529.333,-216.5 533.167,-216.5 537,-220.333 537,-224.167 537,-224.167 537,-231.833 537,-231.833 537,-235.667 533.167,-239.5 529.333,-239.5"/>
<text text-anchor="middle" x="439.5" y="-224.3" font-family="Arial" font-size="14.00" fill="#c6c5fe">components/lowerButtons.js</text>
</g>
<!-- components/appRoot.js&#45;&gt;components/lowerButtons.js -->
<g id="edge7" class="edge"><title>components/appRoot.js&#45;&gt;components/lowerButtons.js</title>
<path fill="none" stroke="#757575" d="M283.602,-257.47C309.88,-252.471 340.817,-246.585 368.106,-241.393"/>
<polygon fill="#757575" stroke="#757575" points="368.81,-244.822 377.98,-239.514 367.502,-237.945 368.81,-244.822"/>
</g>
<!-- components/menuBar.js -->
<g id="node12" class="node"><title>components/menuBar.js</title>
<path fill="none" stroke="#c6c5fe" d="M516.833,-198.5C516.833,-198.5 362.167,-198.5 362.167,-198.5 358.333,-198.5 354.5,-194.667 354.5,-190.833 354.5,-190.833 354.5,-183.167 354.5,-183.167 354.5,-179.333 358.333,-175.5 362.167,-175.5 362.167,-175.5 516.833,-175.5 516.833,-175.5 520.667,-175.5 524.5,-179.333 524.5,-183.167 524.5,-183.167 524.5,-190.833 524.5,-190.833 524.5,-194.667 520.667,-198.5 516.833,-198.5"/>
<text text-anchor="middle" x="439.5" y="-183.3" font-family="Arial" font-size="14.00" fill="#c6c5fe">components/menuBar.js</text>
</g>
<!-- components/appRoot.js&#45;&gt;components/menuBar.js -->
<g id="edge8" class="edge"><title>components/appRoot.js&#45;&gt;components/menuBar.js</title>
<path fill="none" stroke="#757575" d="M241.235,-257.456C263.986,-243.543 304.476,-220.372 342,-207 348.029,-204.852 354.356,-202.904 360.766,-201.144"/>
<polygon fill="#757575" stroke="#757575" points="362.069,-204.423 370.875,-198.532 360.317,-197.645 362.069,-204.423"/>
</g>
<!-- components/output.js -->
<g id="node13" class="node"><title>components/output.js</title>
<path fill="none" stroke="#cfffac" d="M507.833,-321.5C507.833,-321.5 371.167,-321.5 371.167,-321.5 367.333,-321.5 363.5,-317.667 363.5,-313.833 363.5,-313.833 363.5,-306.167 363.5,-306.167 363.5,-302.333 367.333,-298.5 371.167,-298.5 371.167,-298.5 507.833,-298.5 507.833,-298.5 511.667,-298.5 515.5,-302.333 515.5,-306.167 515.5,-306.167 515.5,-313.833 515.5,-313.833 515.5,-317.667 511.667,-321.5 507.833,-321.5"/>
<text text-anchor="middle" x="439.5" y="-306.3" font-family="Arial" font-size="14.00" fill="#cfffac">components/output.js</text>
</g>
<!-- components/appRoot.js&#45;&gt;components/output.js -->
<g id="edge9" class="edge"><title>components/appRoot.js&#45;&gt;components/output.js</title>
<path fill="none" stroke="#757575" d="M283.602,-280.53C309.88,-285.529 340.817,-291.415 368.106,-296.607"/>
<polygon fill="#757575" stroke="#757575" points="367.502,-300.055 377.98,-298.486 368.81,-293.178 367.502,-300.055"/>
</g>
<!-- components/statBar.js -->
<g id="node14" class="node"><title>components/statBar.js</title>
<path fill="none" stroke="#c6c5fe" d="M510.833,-280.5C510.833,-280.5 368.167,-280.5 368.167,-280.5 364.333,-280.5 360.5,-276.667 360.5,-272.833 360.5,-272.833 360.5,-265.167 360.5,-265.167 360.5,-261.333 364.333,-257.5 368.167,-257.5 368.167,-257.5 510.833,-257.5 510.833,-257.5 514.667,-257.5 518.5,-261.333 518.5,-265.167 518.5,-265.167 518.5,-272.833 518.5,-272.833 518.5,-276.667 514.667,-280.5 510.833,-280.5"/>
<text text-anchor="middle" x="439.5" y="-265.3" font-family="Arial" font-size="14.00" fill="#c6c5fe">components/statBar.js</text>
</g>
<!-- components/appRoot.js&#45;&gt;components/statBar.js -->
<g id="edge10" class="edge"><title>components/appRoot.js&#45;&gt;components/statBar.js</title>
<path fill="none" stroke="#757575" d="M306.01,-269C320.557,-269 335.739,-269 350.418,-269"/>
<polygon fill="#757575" stroke="#757575" points="350.486,-272.5 360.486,-269 350.486,-265.5 350.486,-272.5"/>
</g>
<!-- components/buttonGrid.js -->
<g id="node16" class="node"><title>components/buttonGrid.js</title>
<path fill="none" stroke="#c6c5fe" d="M752.333,-198.5C752.333,-198.5 588.667,-198.5 588.667,-198.5 584.833,-198.5 581,-194.667 581,-190.833 581,-190.833 581,-183.167 581,-183.167 581,-179.333 584.833,-175.5 588.667,-175.5 588.667,-175.5 752.333,-175.5 752.333,-175.5 756.167,-175.5 760,-179.333 760,-183.167 760,-183.167 760,-190.833 760,-190.833 760,-194.667 756.167,-198.5 752.333,-198.5"/>
<text text-anchor="middle" x="670.5" y="-183.3" font-family="Arial" font-size="14.00" fill="#c6c5fe">components/buttonGrid.js</text>
</g>
<!-- components/lowerButtons.js&#45;&gt;components/buttonGrid.js -->
<g id="edge14" class="edge"><title>components/lowerButtons.js&#45;&gt;components/buttonGrid.js</title>
<path fill="none" stroke="#757575" d="M504.899,-216.47C532.945,-211.449 565.986,-205.533 595.078,-200.325"/>
<polygon fill="#757575" stroke="#757575" points="595.962,-203.722 605.188,-198.514 594.728,-196.832 595.962,-203.722"/>
</g>
<!-- components/menuBar.js&#45;&gt;components/buttonGrid.js -->
<g id="edge15" class="edge"><title>components/menuBar.js&#45;&gt;components/buttonGrid.js</title>
<path fill="none" stroke="#757575" d="M524.796,-187C539.613,-187 555.157,-187 570.335,-187"/>
<polygon fill="#757575" stroke="#757575" points="570.771,-190.5 580.771,-187 570.771,-183.5 570.771,-190.5"/>
</g>
<!-- components/spriteDisplay.js -->
<g id="node19" class="node"><title>components/spriteDisplay.js</title>
<path fill="none" stroke="#cfffac" d="M760.333,-280.5C760.333,-280.5 580.667,-280.5 580.667,-280.5 576.833,-280.5 573,-276.667 573,-272.833 573,-272.833 573,-265.167 573,-265.167 573,-261.333 576.833,-257.5 580.667,-257.5 580.667,-257.5 760.333,-257.5 760.333,-257.5 764.167,-257.5 768,-261.333 768,-265.167 768,-265.167 768,-272.833 768,-272.833 768,-276.667 764.167,-280.5 760.333,-280.5"/>
<text text-anchor="middle" x="670.5" y="-265.3" font-family="Arial" font-size="14.00" fill="#cfffac">components/spriteDisplay.js</text>
</g>
<!-- components/statBar.js&#45;&gt;components/spriteDisplay.js -->
<g id="edge18" class="edge"><title>components/statBar.js&#45;&gt;components/spriteDisplay.js</title>
<path fill="none" stroke="#757575" d="M518.668,-269C532.775,-269 547.703,-269 562.464,-269"/>
<polygon fill="#757575" stroke="#757575" points="562.645,-272.5 572.645,-269 562.645,-265.5 562.645,-272.5"/>
</g>
<!-- components/statDisplay.js -->
<g id="node21" class="node"><title>components/statDisplay.js</title>
<path fill="none" stroke="#c6c5fe" d="M753.833,-239.5C753.833,-239.5 587.167,-239.5 587.167,-239.5 583.333,-239.5 579.5,-235.667 579.5,-231.833 579.5,-231.833 579.5,-224.167 579.5,-224.167 579.5,-220.333 583.333,-216.5 587.167,-216.5 587.167,-216.5 753.833,-216.5 753.833,-216.5 757.667,-216.5 761.5,-220.333 761.5,-224.167 761.5,-224.167 761.5,-231.833 761.5,-231.833 761.5,-235.667 757.667,-239.5 753.833,-239.5"/>
<text text-anchor="middle" x="670.5" y="-224.3" font-family="Arial" font-size="14.00" fill="#c6c5fe">components/statDisplay.js</text>
</g>
<!-- components/statBar.js&#45;&gt;components/statDisplay.js -->
<g id="edge19" class="edge"><title>components/statBar.js&#45;&gt;components/statDisplay.js</title>
<path fill="none" stroke="#757575" d="M504.899,-257.47C532.945,-252.449 565.986,-246.533 595.078,-241.325"/>
<polygon fill="#757575" stroke="#757575" points="595.962,-244.722 605.188,-239.514 594.728,-237.832 595.962,-244.722"/>
</g>
<!-- components/timeDisplay.js -->
<g id="node22" class="node"><title>components/timeDisplay.js</title>
<path fill="none" stroke="#cfffac" d="M756.333,-321.5C756.333,-321.5 584.667,-321.5 584.667,-321.5 580.833,-321.5 577,-317.667 577,-313.833 577,-313.833 577,-306.167 577,-306.167 577,-302.333 580.833,-298.5 584.667,-298.5 584.667,-298.5 756.333,-298.5 756.333,-298.5 760.167,-298.5 764,-302.333 764,-306.167 764,-306.167 764,-313.833 764,-313.833 764,-317.667 760.167,-321.5 756.333,-321.5"/>
<text text-anchor="middle" x="670.5" y="-306.3" font-family="Arial" font-size="14.00" fill="#cfffac">components/timeDisplay.js</text>
</g>
<!-- components/statBar.js&#45;&gt;components/timeDisplay.js -->
<g id="edge20" class="edge"><title>components/statBar.js&#45;&gt;components/timeDisplay.js</title>
<path fill="none" stroke="#757575" d="M504.899,-280.53C532.945,-285.551 565.986,-291.467 595.078,-296.675"/>
<polygon fill="#757575" stroke="#757575" points="594.728,-300.168 605.188,-298.486 595.962,-293.278 594.728,-300.168"/>
</g>
<!-- components/button.js -->
<g id="node15" class="node"><title>components/button.js</title>
<path fill="none" stroke="#cfffac" d="M1186.33,-198.5C1186.33,-198.5 1049.67,-198.5 1049.67,-198.5 1045.83,-198.5 1042,-194.667 1042,-190.833 1042,-190.833 1042,-183.167 1042,-183.167 1042,-179.333 1045.83,-175.5 1049.67,-175.5 1049.67,-175.5 1186.33,-175.5 1186.33,-175.5 1190.17,-175.5 1194,-179.333 1194,-183.167 1194,-183.167 1194,-190.833 1194,-190.833 1194,-194.667 1190.17,-198.5 1186.33,-198.5"/>
<text text-anchor="middle" x="1118" y="-183.3" font-family="Arial" font-size="14.00" fill="#cfffac">components/button.js</text>
</g>
<!-- components/buttonGrid.js&#45;&gt;actions/Engine.js -->
<g id="edge11" class="edge"><title>components/buttonGrid.js&#45;&gt;actions/Engine.js</title>
<path fill="none" stroke="#757575" d="M734.774,-175.47C762.911,-170.343 796.166,-164.283 825.181,-158.996"/>
<polygon fill="#757575" stroke="#757575" points="826.042,-162.397 835.252,-157.161 824.787,-155.51 826.042,-162.397"/>
</g>
<!-- components/buttonWrap.js -->
<g id="node17" class="node"><title>components/buttonWrap.js</title>
<path fill="none" stroke="#c6c5fe" d="M983.333,-198.5C983.333,-198.5 811.667,-198.5 811.667,-198.5 807.833,-198.5 804,-194.667 804,-190.833 804,-190.833 804,-183.167 804,-183.167 804,-179.333 807.833,-175.5 811.667,-175.5 811.667,-175.5 983.333,-175.5 983.333,-175.5 987.167,-175.5 991,-179.333 991,-183.167 991,-183.167 991,-190.833 991,-190.833 991,-194.667 987.167,-198.5 983.333,-198.5"/>
<text text-anchor="middle" x="897.5" y="-183.3" font-family="Arial" font-size="14.00" fill="#c6c5fe">components/buttonWrap.js</text>
</g>
<!-- components/buttonGrid.js&#45;&gt;components/buttonWrap.js -->
<g id="edge12" class="edge"><title>components/buttonGrid.js&#45;&gt;components/buttonWrap.js</title>
<path fill="none" stroke="#757575" d="M760.103,-187C771.119,-187 782.455,-187 793.663,-187"/>
<polygon fill="#757575" stroke="#757575" points="793.906,-190.5 803.906,-187 793.906,-183.5 793.906,-190.5"/>
</g>
<!-- components/buttonWrap.js&#45;&gt;components/button.js -->
<g id="edge13" class="edge"><title>components/buttonWrap.js&#45;&gt;components/button.js</title>
<path fill="none" stroke="#757575" d="M991.164,-187C1004.6,-187 1018.39,-187 1031.67,-187"/>
<polygon fill="#757575" stroke="#757575" points="1031.72,-190.5 1041.72,-187 1031.72,-183.5 1031.72,-190.5"/>
</g>
<!-- components/nameInput.js -->
<g id="node18" class="node"><title>components/nameInput.js</title>
<path fill="none" stroke="#c6c5fe" d="M1992.33,-203.5C1992.33,-203.5 1827.67,-203.5 1827.67,-203.5 1823.83,-203.5 1820,-199.667 1820,-195.833 1820,-195.833 1820,-188.167 1820,-188.167 1820,-184.333 1823.83,-180.5 1827.67,-180.5 1827.67,-180.5 1992.33,-180.5 1992.33,-180.5 1996.17,-180.5 2000,-184.333 2000,-188.167 2000,-188.167 2000,-195.833 2000,-195.833 2000,-199.667 1996.17,-203.5 1992.33,-203.5"/>
<text text-anchor="middle" x="1910" y="-188.3" font-family="Arial" font-size="14.00" fill="#c6c5fe">components/nameInput.js</text>
</g>
<!-- components/nameInput.js&#45;&gt;store/store.js -->
<g id="edge17" class="edge"><title>components/nameInput.js&#45;&gt;store/store.js</title>
<path fill="none" stroke="#757575" d="M2000.12,-188.71C2047.85,-190.05 2106.61,-196.813 2155,-218 2182.79,-230.166 2208,-254.867 2223.51,-272.379"/>
<polygon fill="#757575" stroke="#757575" points="2221.15,-275 2230.32,-280.312 2226.46,-270.443 2221.15,-275"/>
</g>
<!-- components/nameInput.js&#45;&gt;actions/Player.js -->
<g id="edge16" class="edge"><title>components/nameInput.js&#45;&gt;actions/Player.js</title>
<path fill="none" stroke="#757575" d="M1937.68,-203.633C1969.57,-217.536 2023.07,-240.861 2058.58,-256.34"/>
<polygon fill="#757575" stroke="#757575" points="2057.52,-259.695 2068.08,-260.483 2060.32,-253.278 2057.52,-259.695"/>
</g>
<!-- components/stat.js -->
<g id="node20" class="node"><title>components/stat.js</title>
<path fill="none" stroke="#cfffac" d="M957.833,-239.5C957.833,-239.5 837.167,-239.5 837.167,-239.5 833.333,-239.5 829.5,-235.667 829.5,-231.833 829.5,-231.833 829.5,-224.167 829.5,-224.167 829.5,-220.333 833.333,-216.5 837.167,-216.5 837.167,-216.5 957.833,-216.5 957.833,-216.5 961.667,-216.5 965.5,-220.333 965.5,-224.167 965.5,-224.167 965.5,-231.833 965.5,-231.833 965.5,-235.667 961.667,-239.5 957.833,-239.5"/>
<text text-anchor="middle" x="897.5" y="-224.3" font-family="Arial" font-size="14.00" fill="#cfffac">components/stat.js</text>
</g>
<!-- components/statDisplay.js&#45;&gt;components/stat.js -->
<g id="edge21" class="edge"><title>components/statDisplay.js&#45;&gt;components/stat.js</title>
<path fill="none" stroke="#757575" d="M761.72,-228C780.804,-228 800.779,-228 819.327,-228"/>
<polygon fill="#757575" stroke="#757575" points="819.471,-231.5 829.471,-228 819.471,-224.5 819.471,-231.5"/>
</g>
<!-- index.js -->
<g id="node23" class="node"><title>index.js</title>
<path fill="none" stroke="#c6c5fe" d="M75.8333,-320.5C75.8333,-320.5 26.1667,-320.5 26.1667,-320.5 22.3333,-320.5 18.5,-316.667 18.5,-312.833 18.5,-312.833 18.5,-305.167 18.5,-305.167 18.5,-301.333 22.3333,-297.5 26.1667,-297.5 26.1667,-297.5 75.8333,-297.5 75.8333,-297.5 79.6667,-297.5 83.5,-301.333 83.5,-305.167 83.5,-305.167 83.5,-312.833 83.5,-312.833 83.5,-316.667 79.6667,-320.5 75.8333,-320.5"/>
<text text-anchor="middle" x="51" y="-305.3" font-family="Arial" font-size="14.00" fill="#c6c5fe">index.js</text>
</g>
<!-- index.js&#45;&gt;store/store.js -->
<g id="edge23" class="edge"><title>index.js&#45;&gt;store/store.js</title>
<path fill="none" stroke="#757575" d="M83.9462,-314.701C149.946,-325.967 306.245,-350 438.5,-350 438.5,-350 438.5,-350 1911,-350 2020.32,-350 2048.27,-342.624 2155,-319 2169.4,-315.813 2184.85,-311.232 2198.55,-306.747"/>
<polygon fill="#757575" stroke="#757575" points="2199.81,-310.017 2208.18,-303.519 2197.58,-303.38 2199.81,-310.017"/>
</g>
<!-- index.js&#45;&gt;components/appRoot.js -->
<g id="edge22" class="edge"><title>index.js&#45;&gt;components/appRoot.js</title>
<path fill="none" stroke="#757575" d="M83.7876,-301.476C105.916,-296.239 136.075,-289.101 162.483,-282.85"/>
<polygon fill="#757575" stroke="#757575" points="163.471,-286.213 172.396,-280.504 161.859,-279.401 163.471,-286.213"/>
</g>
<!-- reducers/root.js&#45;&gt;actions/coreMsg.js -->
<g id="edge24" class="edge"><title>reducers/root.js&#45;&gt;actions/coreMsg.js</title>
<path fill="none" stroke="#757575" d="M2389.09,-324.79C2399.3,-352.353 2428.71,-421.151 2478,-454 2546.01,-499.325 2640.47,-511.305 2706.17,-513.54"/>
<polygon fill="#757575" stroke="#757575" points="2706.37,-517.046 2716.46,-513.818 2706.56,-510.049 2706.37,-517.046"/>
</g>
<!-- reducers/root.js&#45;&gt;actions/playerMsg.js -->
<g id="edge26" class="edge"><title>reducers/root.js&#45;&gt;actions/playerMsg.js</title>
<path fill="none" stroke="#757575" d="M2398.84,-324.584C2416.2,-338.5 2447.43,-361.527 2478,-374 2499.01,-382.571 2624.02,-405.772 2707.34,-420.684"/>
<polygon fill="#757575" stroke="#757575" points="2706.83,-424.147 2717.28,-422.46 2708.06,-417.256 2706.83,-424.147"/>
</g>
<!-- reducers/root.js&#45;&gt;actions/engineMsg.js -->
<g id="edge25" class="edge"><title>reducers/root.js&#45;&gt;actions/engineMsg.js</title>
<path fill="none" stroke="#757575" d="M2442.15,-313C2455.48,-313 2469.95,-313 2484.18,-313"/>
<polygon fill="#757575" stroke="#757575" points="2484.47,-316.5 2494.47,-313 2484.47,-309.5 2484.47,-316.5"/>
</g>
<!-- reducers/updateButtons.js -->
<g id="node25" class="node"><title>reducers/updateButtons.js</title>
<path fill="none" stroke="#c6c5fe" d="M2652.33,-244.5C2652.33,-244.5 2485.67,-244.5 2485.67,-244.5 2481.83,-244.5 2478,-240.667 2478,-236.833 2478,-236.833 2478,-229.167 2478,-229.167 2478,-225.333 2481.83,-221.5 2485.67,-221.5 2485.67,-221.5 2652.33,-221.5 2652.33,-221.5 2656.17,-221.5 2660,-225.333 2660,-229.167 2660,-229.167 2660,-236.833 2660,-236.833 2660,-240.667 2656.17,-244.5 2652.33,-244.5"/>
<text text-anchor="middle" x="2569" y="-229.3" font-family="Arial" font-size="14.00" fill="#c6c5fe">reducers/updateButtons.js</text>
</g>
<!-- reducers/root.js&#45;&gt;reducers/updateButtons.js -->
<g id="edge27" class="edge"><title>reducers/root.js&#45;&gt;reducers/updateButtons.js</title>
<path fill="none" stroke="#757575" d="M2402.16,-301.31C2420.33,-289.349 2450.18,-270.88 2478,-259 2488.08,-254.696 2499.08,-250.857 2509.83,-247.535"/>
<polygon fill="#757575" stroke="#757575" points="2511.01,-250.837 2519.6,-244.632 2509.02,-244.127 2511.01,-250.837"/>
</g>
<!-- reducers/updateStats.js -->
<g id="node26" class="node"><title>reducers/updateStats.js</title>
<path fill="none" stroke="#c6c5fe" d="M2644.83,-445.5C2644.83,-445.5 2493.17,-445.5 2493.17,-445.5 2489.33,-445.5 2485.5,-441.667 2485.5,-437.833 2485.5,-437.833 2485.5,-430.167 2485.5,-430.167 2485.5,-426.333 2489.33,-422.5 2493.17,-422.5 2493.17,-422.5 2644.83,-422.5 2644.83,-422.5 2648.67,-422.5 2652.5,-426.333 2652.5,-430.167 2652.5,-430.167 2652.5,-437.833 2652.5,-437.833 2652.5,-441.667 2648.67,-445.5 2644.83,-445.5"/>
<text text-anchor="middle" x="2569" y="-430.3" font-family="Arial" font-size="14.00" fill="#c6c5fe">reducers/updateStats.js</text>
</g>
<!-- reducers/root.js&#45;&gt;reducers/updateStats.js -->
<g id="edge28" class="edge"><title>reducers/root.js&#45;&gt;reducers/updateStats.js</title>
<path fill="none" stroke="#757575" d="M2393.08,-324.517C2407.71,-344.507 2440.55,-385.623 2478,-408 2485.33,-412.377 2493.43,-416.053 2501.68,-419.13"/>
<polygon fill="#757575" stroke="#757575" points="2500.81,-422.531 2511.4,-422.473 2503.09,-415.911 2500.81,-422.531"/>
</g>
<!-- reducers/updateTime.js -->
<g id="node27" class="node"><title>reducers/updateTime.js</title>
<path fill="none" stroke="#c6c5fe" d="M2644.83,-365.5C2644.83,-365.5 2493.17,-365.5 2493.17,-365.5 2489.33,-365.5 2485.5,-361.667 2485.5,-357.833 2485.5,-357.833 2485.5,-350.167 2485.5,-350.167 2485.5,-346.333 2489.33,-342.5 2493.17,-342.5 2493.17,-342.5 2644.83,-342.5 2644.83,-342.5 2648.67,-342.5 2652.5,-346.333 2652.5,-350.167 2652.5,-350.167 2652.5,-357.833 2652.5,-357.833 2652.5,-361.667 2648.67,-365.5 2644.83,-365.5"/>
<text text-anchor="middle" x="2569" y="-350.3" font-family="Arial" font-size="14.00" fill="#c6c5fe">reducers/updateTime.js</text>
</g>
<!-- reducers/root.js&#45;&gt;reducers/updateTime.js -->
<g id="edge29" class="edge"><title>reducers/root.js&#45;&gt;reducers/updateTime.js</title>
<path fill="none" stroke="#757575" d="M2436.46,-324.53C2458.29,-329.42 2483.9,-335.158 2506.69,-340.265"/>
<polygon fill="#757575" stroke="#757575" points="2506.08,-343.715 2516.61,-342.486 2507.61,-336.884 2506.08,-343.715"/>
</g>
<!-- store/initialState.js -->
<g id="node28" class="node"><title>store/initialState.js</title>
<path fill="none" stroke="#c6c5fe" d="M2626.83,-203.5C2626.83,-203.5 2511.17,-203.5 2511.17,-203.5 2507.33,-203.5 2503.5,-199.667 2503.5,-195.833 2503.5,-195.833 2503.5,-188.167 2503.5,-188.167 2503.5,-184.333 2507.33,-180.5 2511.17,-180.5 2511.17,-180.5 2626.83,-180.5 2626.83,-180.5 2630.67,-180.5 2634.5,-184.333 2634.5,-188.167 2634.5,-188.167 2634.5,-195.833 2634.5,-195.833 2634.5,-199.667 2630.67,-203.5 2626.83,-203.5"/>
<text text-anchor="middle" x="2569" y="-188.3" font-family="Arial" font-size="14.00" fill="#c6c5fe">store/initialState.js</text>
</g>
<!-- reducers/root.js&#45;&gt;store/initialState.js -->
<g id="edge30" class="edge"><title>reducers/root.js&#45;&gt;store/initialState.js</title>
<path fill="none" stroke="#757575" d="M2392.31,-301.168C2406.2,-279.763 2438.55,-234.726 2478,-212 2482.85,-209.204 2488.06,-206.798 2493.44,-204.729"/>
<polygon fill="#757575" stroke="#757575" points="2494.94,-207.915 2503.26,-201.355 2492.66,-201.295 2494.94,-207.915"/>
</g>
<!-- utils.js -->
<g id="node29" class="node"><title>utils.js</title>
<path fill="none" stroke="#cfffac" d="M2804.33,-325.5C2804.33,-325.5 2763.67,-325.5 2763.67,-325.5 2759.83,-325.5 2756,-321.667 2756,-317.833 2756,-317.833 2756,-310.167 2756,-310.167 2756,-306.333 2759.83,-302.5 2763.67,-302.5 2763.67,-302.5 2804.33,-302.5 2804.33,-302.5 2808.17,-302.5 2812,-306.333 2812,-310.167 2812,-310.167 2812,-317.833 2812,-317.833 2812,-321.667 2808.17,-325.5 2804.33,-325.5"/>
<text text-anchor="middle" x="2784" y="-310.3" font-family="Arial" font-size="14.00" fill="#cfffac">utils.js</text>
</g>
<!-- reducers/root.js&#45;&gt;utils.js -->
<g id="edge31" class="edge"><title>reducers/root.js&#45;&gt;utils.js</title>
<path fill="none" stroke="#757575" d="M2426.79,-301.487C2442.69,-297.658 2461.06,-293.889 2478,-292 2558.39,-283.036 2579.43,-284.851 2660,-292 2689.12,-294.583 2721.66,-300.543 2745.96,-305.608"/>
<polygon fill="#757575" stroke="#757575" points="2745.32,-309.051 2755.83,-307.712 2746.78,-302.204 2745.32,-309.051"/>
</g>
<!-- reducers/updateButtons.js&#45;&gt;utils.js -->
<g id="edge32" class="edge"><title>reducers/updateButtons.js&#45;&gt;utils.js</title>
<path fill="none" stroke="#757575" d="M2614.8,-244.615C2629.36,-248.74 2645.49,-253.69 2660,-259 2691.42,-270.498 2726.12,-286.315 2750.63,-298.036"/>
<polygon fill="#757575" stroke="#757575" points="2749.29,-301.277 2759.82,-302.468 2752.33,-294.972 2749.29,-301.277"/>
</g>
<!-- reducers/updateStats.js&#45;&gt;actions/coreMsg.js -->
<g id="edge33" class="edge"><title>reducers/updateStats.js&#45;&gt;actions/coreMsg.js</title>
<path fill="none" stroke="#757575" d="M2601.43,-445.509C2638.71,-459.162 2700.97,-481.96 2742.01,-496.988"/>
<polygon fill="#757575" stroke="#757575" points="2740.85,-500.291 2751.44,-500.444 2743.26,-493.718 2740.85,-500.291"/>
</g>
<!-- reducers/updateStats.js&#45;&gt;actions/playerMsg.js -->
<g id="edge34" class="edge"><title>reducers/updateStats.js&#45;&gt;actions/playerMsg.js</title>
<path fill="none" stroke="#757575" d="M2652.66,-434C2668.58,-434 2685.25,-434 2701.15,-434"/>
<polygon fill="#757575" stroke="#757575" points="2701.47,-437.5 2711.47,-434 2701.47,-430.5 2701.47,-437.5"/>
</g>
<!-- reducers/updateStats.js&#45;&gt;utils.js -->
<g id="edge35" class="edge"><title>reducers/updateStats.js&#45;&gt;utils.js</title>
<path fill="none" stroke="#757575" d="M2590.42,-422.494C2628.34,-401.135 2709.72,-355.287 2753.57,-330.582"/>
<polygon fill="#757575" stroke="#757575" points="2755.33,-333.605 2762.33,-325.648 2751.9,-327.507 2755.33,-333.605"/>
</g>
<!-- reducers/updateTime.js&#45;&gt;utils.js -->
<g id="edge36" class="edge"><title>reducers/updateTime.js&#45;&gt;utils.js</title>
<path fill="none" stroke="#757575" d="M2631.32,-342.484C2668.31,-335.538 2714.23,-326.915 2745.79,-320.987"/>
<polygon fill="#757575" stroke="#757575" points="2746.73,-324.372 2755.91,-319.087 2745.44,-317.493 2746.73,-324.372"/>
</g>
<!-- store/initialState.js&#45;&gt;scenes/sceneSymbols.js -->
<g id="edge53" class="edge"><title>store/initialState.js&#45;&gt;scenes/sceneSymbols.js</title>
<path fill="none" stroke="#757575" d="M2617.93,-180.479C2631.75,-176.538 2646.68,-171.668 2660,-166 2695.21,-151.017 2732.92,-128.111 2757.17,-112.392"/>
<polygon fill="#757575" stroke="#757575" points="2759.33,-115.162 2765.77,-106.751 2755.49,-109.309 2759.33,-115.162"/>
</g>
<!-- scenes/charCreation.js&#45;&gt;actions/Core.js -->
<g id="edge37" class="edge"><title>scenes/charCreation.js&#45;&gt;actions/Core.js</title>
<path fill="none" stroke="#757575" d="M1406.26,-196.82C1472.52,-204.977 1565.59,-216.437 1627.29,-224.033"/>
<polygon fill="#757575" stroke="#757575" points="1626.94,-227.516 1637.29,-225.264 1627.8,-220.569 1626.94,-227.516"/>
</g>
<!-- scenes/charCreation.js&#45;&gt;scenes/sceneSymbols.js -->
<g id="edge40" class="edge"><title>scenes/charCreation.js&#45;&gt;scenes/sceneSymbols.js</title>
<path fill="none" stroke="#757575" d="M1390.51,-175.413C1396.07,-172.867 1401.34,-169.77 1406,-166 1433.51,-143.756 1412.58,-114.646 1442,-95 1534.67,-33.125 1580.57,-76 1692,-76 1692,-76 1692,-76 2385,-76 2487.66,-76 2605.04,-82.385 2685.58,-87.7522"/>
<polygon fill="#757575" stroke="#757575" points="2685.5,-91.2543 2695.71,-88.4347 2685.97,-84.2701 2685.5,-91.2543"/>
</g>
<!-- scenes/charCreation.js&#45;&gt;actions/Player.js -->
<g id="edge38" class="edge"><title>scenes/charCreation.js&#45;&gt;actions/Player.js</title>
<path fill="none" stroke="#757575" d="M1360.05,-198.658C1382.94,-206.312 1414.05,-216.14 1442,-223 1649.97,-274.053 1905.46,-276.489 2025.72,-274.224"/>
<polygon fill="#757575" stroke="#757575" points="2025.96,-277.72 2035.88,-274.015 2025.81,-270.721 2025.96,-277.72"/>
</g>
<!-- scenes/charCreation.js&#45;&gt;scenes/menus.js -->
<g id="edge39" class="edge"><title>scenes/charCreation.js&#45;&gt;scenes/menus.js</title>
<path fill="none" stroke="#757575" d="M1379.94,-175.486C1388.82,-172.84 1397.8,-169.693 1406,-166 1423.53,-158.104 1425.08,-151.142 1442,-142 1448.68,-138.388 1455.98,-134.91 1463.12,-131.737"/>
<polygon fill="#757575" stroke="#757575" points="1464.89,-134.784 1472.69,-127.616 1462.13,-128.354 1464.89,-134.784"/>
</g>
<!-- scenes/sceneTextStore.js -->
<g id="node32" class="node"><title>scenes/sceneTextStore.js</title>
<path fill="none" stroke="#c6c5fe" d="M1776.33,-166.5C1776.33,-166.5 1609.67,-166.5 1609.67,-166.5 1605.83,-166.5 1602,-162.667 1602,-158.833 1602,-158.833 1602,-151.167 1602,-151.167 1602,-147.333 1605.83,-143.5 1609.67,-143.5 1609.67,-143.5 1776.33,-143.5 1776.33,-143.5 1780.17,-143.5 1784,-147.333 1784,-151.167 1784,-151.167 1784,-158.833 1784,-158.833 1784,-162.667 1780.17,-166.5 1776.33,-166.5"/>
<text text-anchor="middle" x="1693" y="-151.3" font-family="Arial" font-size="14.00" fill="#c6c5fe">scenes/sceneTextStore.js</text>
</g>
<!-- scenes/charCreation.js&#45;&gt;scenes/sceneTextStore.js -->
<g id="edge41" class="edge"><title>scenes/charCreation.js&#45;&gt;scenes/sceneTextStore.js</title>
<path fill="none" stroke="#757575" d="M1406.26,-180.017C1460.76,-175.245 1533.42,-168.884 1591.82,-163.771"/>
<polygon fill="#757575" stroke="#757575" points="1592.15,-167.255 1601.81,-162.896 1591.54,-160.282 1592.15,-167.255"/>
</g>
<!-- scenes/menus.js&#45;&gt;actions/Core.js -->
<g id="edge42" class="edge"><title>scenes/menus.js&#45;&gt;actions/Core.js</title>
<path fill="none" stroke="#757575" d="M1523.61,-127.547C1556.71,-148.078 1625.94,-191.023 1664.53,-214.959"/>
<polygon fill="#757575" stroke="#757575" points="1662.84,-218.031 1673.18,-220.328 1666.53,-212.082 1662.84,-218.031"/>
</g>
<!-- scenes/menus.js&#45;&gt;scenes/sceneSymbols.js -->
<g id="edge43" class="edge"><title>scenes/menus.js&#45;&gt;scenes/sceneSymbols.js</title>
<path fill="none" stroke="#757575" d="M1566.26,-115.508C1645.41,-114.916 1787.48,-114 1909,-114 1909,-114 1909,-114 2385,-114 2487.66,-114 2605.04,-107.615 2685.58,-102.248"/>
<polygon fill="#757575" stroke="#757575" points="2685.97,-105.73 2695.71,-101.565 2685.5,-98.7457 2685.97,-105.73"/>
</g>
<!-- scenes/menus.js&#45;&gt;scenes/sceneTextStore.js -->
<g id="edge44" class="edge"><title>scenes/menus.js&#45;&gt;scenes/sceneTextStore.js</title>
<path fill="none" stroke="#757575" d="M1560.35,-127.543C1581.27,-131.906 1605.26,-136.911 1626.99,-141.442"/>
<polygon fill="#757575" stroke="#757575" points="1626.29,-144.871 1636.79,-143.487 1627.72,-138.019 1626.29,-144.871"/>
</g>
<!-- scenes/sceneTextStore.js&#45;&gt;scenes/sceneSymbols.js -->
<g id="edge52" class="edge"><title>scenes/sceneTextStore.js&#45;&gt;scenes/sceneSymbols.js</title>
<path fill="none" stroke="#757575" d="M1784.27,-153.938C1865.44,-153.075 1987.94,-152 2094.5,-152 2094.5,-152 2094.5,-152 2385,-152 2507.69,-152 2539.18,-149.311 2660,-128 2685.79,-123.45 2714.06,-116.044 2736.98,-109.4"/>
<polygon fill="#757575" stroke="#757575" points="2738.17,-112.696 2746.78,-106.512 2736.2,-105.982 2738.17,-112.696"/>
</g>
<!-- scenes/sceneTextStore.js&#45;&gt;components/nameInput.js -->
<g id="edge51" class="edge"><title>scenes/sceneTextStore.js&#45;&gt;components/nameInput.js</title>
<path fill="none" stroke="#757575" d="M1760.85,-166.504C1783.29,-170.366 1808.51,-174.706 1831.68,-178.694"/>
<polygon fill="#757575" stroke="#757575" points="1831.37,-182.192 1841.82,-180.439 1832.56,-175.294 1831.37,-182.192"/>
</g>
<!-- setupTests.js -->
<g id="node34" class="node"><title>setupTests.js</title>
<path fill="none" stroke="#cfffac" d="M94.3333,-361.5C94.3333,-361.5 7.66667,-361.5 7.66667,-361.5 3.83333,-361.5 0,-357.667 0,-353.833 0,-353.833 0,-346.167 0,-346.167 0,-342.333 3.83333,-338.5 7.66667,-338.5 7.66667,-338.5 94.3333,-338.5 94.3333,-338.5 98.1667,-338.5 102,-342.333 102,-346.167 102,-346.167 102,-353.833 102,-353.833 102,-357.667 98.1667,-361.5 94.3333,-361.5"/>
<text text-anchor="middle" x="51" y="-346.3" font-family="Arial" font-size="14.00" fill="#cfffac">setupTests.js</text>
</g>
</g>
</svg>
