<?xml version="1.0" encoding="UTF-8" standalone="no"?>
<!DOCTYPE svg PUBLIC "-//W3C//DTD SVG 1.1//EN"
 "http://www.w3.org/Graphics/SVG/1.1/DTD/svg11.dtd">
<!-- Generated by graphviz version 2.38.0 (20140413.2041)
 -->
<!-- Title: G Pages: 1 -->
<svg width="3237pt" height="1074pt"
 viewBox="0.00 0.00 3237.20 1074.20" xmlns="http://www.w3.org/2000/svg" xmlns:xlink="http://www.w3.org/1999/xlink">
<g id="graph0" class="graph" transform="scale(1 1) rotate(0) translate(21.6 1052.6)">
<title>G</title>
<polygon fill="#111111" stroke="none" points="-21.6,21.6 -21.6,-1052.6 3215.6,-1052.6 3215.6,21.6 -21.6,21.6"/>
<!-- actions/Core.js -->
<g id="node1" class="node"><title>actions/Core.js</title>
<path fill="none" stroke="#c6c5fe" d="M2212.33,-465.5C2212.33,-465.5 2116.67,-465.5 2116.67,-465.5 2112.83,-465.5 2109,-461.667 2109,-457.834 2109,-457.834 2109,-450.167 2109,-450.167 2109,-446.334 2112.83,-442.5 2116.67,-442.5 2116.67,-442.5 2212.33,-442.5 2212.33,-442.5 2216.17,-442.5 2220,-446.334 2220,-450.167 2220,-450.167 2220,-457.834 2220,-457.834 2220,-461.667 2216.17,-465.5 2212.33,-465.5"/>
<text text-anchor="middle" x="2164.5" y="-450.3" font-family="Arial" font-size="14.00" fill="#c6c5fe">actions/Core.js</text>
</g>
<!-- actions/coreMsg.js -->
<g id="node2" class="node"><title>actions/coreMsg.js</title>
<path fill="none" stroke="#cfffac" d="M3069.33,-286.5C3069.33,-286.5 2949.67,-286.5 2949.67,-286.5 2945.83,-286.5 2942,-282.667 2942,-278.834 2942,-278.834 2942,-271.167 2942,-271.167 2942,-267.334 2945.83,-263.5 2949.67,-263.5 2949.67,-263.5 3069.33,-263.5 3069.33,-263.5 3073.17,-263.5 3077,-267.334 3077,-271.167 3077,-271.167 3077,-278.834 3077,-278.834 3077,-282.667 3073.17,-286.5 3069.33,-286.5"/>
<text text-anchor="middle" x="3009.5" y="-271.3" font-family="Arial" font-size="14.00" fill="#cfffac">actions/coreMsg.js</text>
</g>
<!-- actions/Core.js&#45;&gt;actions/coreMsg.js -->
<g id="edge1" class="edge"><title>actions/Core.js&#45;&gt;actions/coreMsg.js</title>
<path fill="none" stroke="#757575" d="M2180.31,-442.232C2240.12,-395.63 2471.25,-224.123 2695,-174 2775.67,-155.93 2802.93,-146.825 2881,-174 2927.48,-190.181 2969.77,-231.147 2992.03,-255.648"/>
<polygon fill="#757575" stroke="#757575" points="2989.54,-258.108 2998.79,-263.267 2994.77,-253.463 2989.54,-258.108"/>
</g>
<!-- store/store.js -->
<g id="node3" class="node"><title>store/store.js</title>
<path fill="none" stroke="#c6c5fe" d="M2411.83,-465.5C2411.83,-465.5 2328.17,-465.5 2328.17,-465.5 2324.33,-465.5 2320.5,-461.667 2320.5,-457.834 2320.5,-457.834 2320.5,-450.167 2320.5,-450.167 2320.5,-446.334 2324.33,-442.5 2328.17,-442.5 2328.17,-442.5 2411.83,-442.5 2411.83,-442.5 2415.67,-442.5 2419.5,-446.334 2419.5,-450.167 2419.5,-450.167 2419.5,-457.834 2419.5,-457.834 2419.5,-461.667 2415.67,-465.5 2411.83,-465.5"/>
<text text-anchor="middle" x="2370" y="-450.3" font-family="Arial" font-size="14.00" fill="#c6c5fe">store/store.js</text>
</g>
<!-- actions/Core.js&#45;&gt;store/store.js -->
<g id="edge2" class="edge"><title>actions/Core.js&#45;&gt;store/store.js</title>
<path fill="none" stroke="#757575" d="M2220.03,-454C2247.82,-454 2281.64,-454 2310.03,-454"/>
<polygon fill="#757575" stroke="#757575" points="2310.23,-457.501 2320.23,-454 2310.23,-450.501 2310.23,-457.501"/>
</g>
<!-- reducers/root.js -->
<g id="node33" class="node"><title>reducers/root.js</title>
<path fill="none" stroke="#c6c5fe" d="M2621.33,-306.5C2621.33,-306.5 2520.67,-306.5 2520.67,-306.5 2516.83,-306.5 2513,-302.667 2513,-298.834 2513,-298.834 2513,-291.167 2513,-291.167 2513,-287.334 2516.83,-283.5 2520.67,-283.5 2520.67,-283.5 2621.33,-283.5 2621.33,-283.5 2625.17,-283.5 2629,-287.334 2629,-291.167 2629,-291.167 2629,-298.834 2629,-298.834 2629,-302.667 2625.17,-306.5 2621.33,-306.5"/>
<text text-anchor="middle" x="2571" y="-291.3" font-family="Arial" font-size="14.00" fill="#c6c5fe">reducers/root.js</text>
</g>
<!-- store/store.js&#45;&gt;reducers/root.js -->
<g id="edge85" class="edge"><title>store/store.js&#45;&gt;reducers/root.js</title>
<path fill="none" stroke="#757575" d="M2385.63,-442.309C2420.06,-414.8 2506.38,-345.831 2547.52,-312.963"/>
<polygon fill="#757575" stroke="#757575" points="2549.72,-315.686 2555.35,-306.709 2545.35,-310.217 2549.72,-315.686"/>
</g>
<!-- actions/Enemy.js -->
<g id="node4" class="node"><title>actions/Enemy.js</title>
<path fill="none" stroke="#c6c5fe" d="M2218.83,-345.5C2218.83,-345.5 2110.17,-345.5 2110.17,-345.5 2106.33,-345.5 2102.5,-341.667 2102.5,-337.834 2102.5,-337.834 2102.5,-330.167 2102.5,-330.167 2102.5,-326.334 2106.33,-322.5 2110.17,-322.5 2110.17,-322.5 2218.83,-322.5 2218.83,-322.5 2222.67,-322.5 2226.5,-326.334 2226.5,-330.167 2226.5,-330.167 2226.5,-337.834 2226.5,-337.834 2226.5,-341.667 2222.67,-345.5 2218.83,-345.5"/>
<text text-anchor="middle" x="2164.5" y="-330.3" font-family="Arial" font-size="14.00" fill="#c6c5fe">actions/Enemy.js</text>
</g>
<!-- actions/Enemy.js&#45;&gt;store/store.js -->
<g id="edge4" class="edge"><title>actions/Enemy.js&#45;&gt;store/store.js</title>
<path fill="none" stroke="#757575" d="M2220.67,-345.622C2233.01,-349.318 2245.77,-354.044 2257,-360 2294.39,-379.825 2330.58,-413.69 2351.27,-434.904"/>
<polygon fill="#757575" stroke="#757575" points="2348.97,-437.561 2358.42,-442.359 2354.02,-432.717 2348.97,-437.561"/>
</g>
<!-- actions/enemyMsg.js -->
<g id="node5" class="node"><title>actions/enemyMsg.js</title>
<path fill="none" stroke="#cfffac" d="M2854.83,-88.5005C2854.83,-88.5005 2721.17,-88.5005 2721.17,-88.5005 2717.33,-88.5005 2713.5,-84.6672 2713.5,-80.8338 2713.5,-80.8338 2713.5,-73.1672 2713.5,-73.1672 2713.5,-69.3338 2717.33,-65.5005 2721.17,-65.5005 2721.17,-65.5005 2854.83,-65.5005 2854.83,-65.5005 2858.67,-65.5005 2862.5,-69.3338 2862.5,-73.1672 2862.5,-73.1672 2862.5,-80.8338 2862.5,-80.8338 2862.5,-84.6672 2858.67,-88.5005 2854.83,-88.5005"/>
<text text-anchor="middle" x="2788" y="-73.3005" font-family="Arial" font-size="14.00" fill="#cfffac">actions/enemyMsg.js</text>
</g>
<!-- actions/Enemy.js&#45;&gt;actions/enemyMsg.js -->
<g id="edge3" class="edge"><title>actions/Enemy.js&#45;&gt;actions/enemyMsg.js</title>
<path fill="none" stroke="#757575" d="M2171.85,-322.322C2197.25,-275.613 2290.32,-104.68 2293,-103 2359.11,-61.5996 2580.11,-65.8605 2702.91,-71.8284"/>
<polygon fill="#757575" stroke="#757575" points="2702.87,-75.3305 2713.03,-72.3348 2703.22,-68.3393 2702.87,-75.3305"/>
</g>
<!-- actions/Engine.js -->
<g id="node6" class="node"><title>actions/Engine.js</title>
<path fill="none" stroke="#c6c5fe" d="M987.833,-617.5C987.833,-617.5 879.167,-617.5 879.167,-617.5 875.333,-617.5 871.5,-613.667 871.5,-609.834 871.5,-609.834 871.5,-602.167 871.5,-602.167 871.5,-598.334 875.333,-594.5 879.167,-594.5 879.167,-594.5 987.833,-594.5 987.833,-594.5 991.667,-594.5 995.5,-598.334 995.5,-602.167 995.5,-602.167 995.5,-609.834 995.5,-609.834 995.5,-613.667 991.667,-617.5 987.833,-617.5"/>
<text text-anchor="middle" x="933.5" y="-602.3" font-family="Arial" font-size="14.00" fill="#c6c5fe">actions/Engine.js</text>
</g>
<!-- scenes/sceneFunctions.js -->
<g id="node7" class="node"><title>scenes/sceneFunctions.js</title>
<path fill="none" stroke="#c6c5fe" d="M1237.33,-617.5C1237.33,-617.5 1070.67,-617.5 1070.67,-617.5 1066.83,-617.5 1063,-613.667 1063,-609.834 1063,-609.834 1063,-602.167 1063,-602.167 1063,-598.334 1066.83,-594.5 1070.67,-594.5 1070.67,-594.5 1237.33,-594.5 1237.33,-594.5 1241.17,-594.5 1245,-598.334 1245,-602.167 1245,-602.167 1245,-609.834 1245,-609.834 1245,-613.667 1241.17,-617.5 1237.33,-617.5"/>
<text text-anchor="middle" x="1154" y="-602.3" font-family="Arial" font-size="14.00" fill="#c6c5fe">scenes/sceneFunctions.js</text>
</g>
<!-- actions/Engine.js&#45;&gt;scenes/sceneFunctions.js -->
<g id="edge5" class="edge"><title>actions/Engine.js&#45;&gt;scenes/sceneFunctions.js</title>
<path fill="none" stroke="#757575" d="M995.655,-606C1013.39,-606 1033.25,-606 1052.72,-606"/>
<polygon fill="#757575" stroke="#757575" points="1052.85,-609.501 1062.85,-606 1052.85,-602.501 1052.85,-609.501"/>
</g>
<!-- scenes/sceneFunctions.js&#45;&gt;actions/Core.js -->
<g id="edge67" class="edge"><title>scenes/sceneFunctions.js&#45;&gt;actions/Core.js</title>
<path fill="none" stroke="#757575" d="M1162.36,-594.143C1179.45,-567.821 1224.66,-504.734 1281,-478 1385.04,-428.635 1423.84,-454 1539,-454 1539,-454 1539,-454 1730,-454 1860.77,-454 2013.72,-454 2098.51,-454"/>
<polygon fill="#757575" stroke="#757575" points="2098.75,-457.501 2108.75,-454 2098.75,-450.501 2098.75,-457.501"/>
</g>
<!-- scenes/sceneFunctions.js&#45;&gt;store/store.js -->
<g id="edge73" class="edge"><title>scenes/sceneFunctions.js&#45;&gt;store/store.js</title>
<path fill="none" stroke="#757575" d="M1221.35,-594.47C1286.54,-583.39 1388.92,-566.656 1478,-555 1823.15,-509.84 1912.32,-522.628 2257,-474 2274.41,-471.544 2293.26,-468.377 2310.44,-465.291"/>
<polygon fill="#757575" stroke="#757575" points="2311.12,-468.724 2320.33,-463.49 2309.87,-461.837 2311.12,-468.724"/>
</g>
<!-- scenes/charCreation.js -->
<g id="node40" class="node"><title>scenes/charCreation.js</title>
<path fill="none" stroke="#c6c5fe" d="M1434.33,-731.5C1434.33,-731.5 1288.67,-731.5 1288.67,-731.5 1284.83,-731.5 1281,-727.667 1281,-723.834 1281,-723.834 1281,-716.167 1281,-716.167 1281,-712.334 1284.83,-708.5 1288.67,-708.5 1288.67,-708.5 1434.33,-708.5 1434.33,-708.5 1438.17,-708.5 1442,-712.334 1442,-716.167 1442,-716.167 1442,-723.834 1442,-723.834 1442,-727.667 1438.17,-731.5 1434.33,-731.5"/>
<text text-anchor="middle" x="1361.5" y="-716.3" font-family="Arial" font-size="14.00" fill="#c6c5fe">scenes/charCreation.js</text>
</g>
<!-- scenes/sceneFunctions.js&#45;&gt;scenes/charCreation.js -->
<g id="edge68" class="edge"><title>scenes/sceneFunctions.js&#45;&gt;scenes/charCreation.js</title>
<path fill="none" stroke="#757575" d="M1223,-617.524C1230.6,-619.857 1238.08,-622.652 1245,-626 1284.17,-644.965 1321.76,-679.631 1342.92,-701.15"/>
<polygon fill="#757575" stroke="#757575" points="1340.48,-703.663 1349.94,-708.43 1345.52,-698.803 1340.48,-703.663"/>
</g>
<!-- scenes/menus.js -->
<g id="node41" class="node"><title>scenes/menus.js</title>
<path fill="none" stroke="#c6c5fe" d="M1594.33,-944.5C1594.33,-944.5 1485.67,-944.5 1485.67,-944.5 1481.83,-944.5 1478,-940.667 1478,-936.834 1478,-936.834 1478,-929.167 1478,-929.167 1478,-925.334 1481.83,-921.5 1485.67,-921.5 1485.67,-921.5 1594.33,-921.5 1594.33,-921.5 1598.17,-921.5 1602,-925.334 1602,-929.167 1602,-929.167 1602,-936.834 1602,-936.834 1602,-940.667 1598.17,-944.5 1594.33,-944.5"/>
<text text-anchor="middle" x="1540" y="-929.3" font-family="Arial" font-size="14.00" fill="#c6c5fe">scenes/menus.js</text>
</g>
<!-- scenes/sceneFunctions.js&#45;&gt;scenes/menus.js -->
<g id="edge70" class="edge"><title>scenes/sceneFunctions.js&#45;&gt;scenes/menus.js</title>
<path fill="none" stroke="#757575" d="M1233.3,-617.656C1237.51,-619.998 1241.46,-622.756 1245,-626 1284.17,-661.898 1242.17,-703.733 1281,-740 1334.81,-790.255 1388.5,-728.421 1442,-779 1482.15,-816.961 1443.61,-854.752 1478,-898 1483.92,-905.44 1491.87,-911.591 1500.09,-916.549"/>
<polygon fill="#757575" stroke="#757575" points="1498.56,-919.707 1509.01,-921.466 1501.94,-913.575 1498.56,-919.707"/>
</g>
<!-- scenes/sceneSymbols.js -->
<g id="node42" class="node"><title>scenes/sceneSymbols.js</title>
<path fill="none" stroke="#cfffac" d="M3089.83,-966.5C3089.83,-966.5 2929.17,-966.5 2929.17,-966.5 2925.33,-966.5 2921.5,-962.667 2921.5,-958.834 2921.5,-958.834 2921.5,-951.167 2921.5,-951.167 2921.5,-947.334 2925.33,-943.5 2929.17,-943.5 2929.17,-943.5 3089.83,-943.5 3089.83,-943.5 3093.67,-943.5 3097.5,-947.334 3097.5,-951.167 3097.5,-951.167 3097.5,-958.834 3097.5,-958.834 3097.5,-962.667 3093.67,-966.5 3089.83,-966.5"/>
<text text-anchor="middle" x="3009.5" y="-951.3" font-family="Arial" font-size="14.00" fill="#cfffac">scenes/sceneSymbols.js</text>
</g>
<!-- scenes/sceneFunctions.js&#45;&gt;scenes/sceneSymbols.js -->
<g id="edge71" class="edge"><title>scenes/sceneFunctions.js&#45;&gt;scenes/sceneSymbols.js</title>
<path fill="none" stroke="#757575" d="M1234.6,-617.659C1238.38,-620.015 1241.89,-622.775 1245,-626 1306.18,-689.434 1237.27,-744.486 1281,-821 1354.37,-949.363 1391.15,-1031 1539,-1031 1539,-1031 1539,-1031 2572,-1031 2710.31,-1031 2745.67,-1022.56 2881,-994 2910.06,-987.866 2942.03,-978.083 2966.68,-969.85"/>
<polygon fill="#757575" stroke="#757575" points="2968.08,-973.072 2976.42,-966.549 2965.83,-966.442 2968.08,-973.072"/>
</g>
<!-- scenes/combat/combat.js -->
<g id="node46" class="node"><title>scenes/combat/combat.js</title>
<path fill="none" stroke="#c6c5fe" d="M2027.83,-425.5C2027.83,-425.5 1864.17,-425.5 1864.17,-425.5 1860.33,-425.5 1856.5,-421.667 1856.5,-417.834 1856.5,-417.834 1856.5,-410.167 1856.5,-410.167 1856.5,-406.334 1860.33,-402.5 1864.17,-402.5 1864.17,-402.5 2027.83,-402.5 2027.83,-402.5 2031.67,-402.5 2035.5,-406.334 2035.5,-410.167 2035.5,-410.167 2035.5,-417.834 2035.5,-417.834 2035.5,-421.667 2031.67,-425.5 2027.83,-425.5"/>
<text text-anchor="middle" x="1946" y="-410.3" font-family="Arial" font-size="14.00" fill="#c6c5fe">scenes/combat/combat.js</text>
</g>
<!-- scenes/sceneFunctions.js&#45;&gt;scenes/combat/combat.js -->
<g id="edge69" class="edge"><title>scenes/sceneFunctions.js&#45;&gt;scenes/combat/combat.js</title>
<path fill="none" stroke="#757575" d="M1159.59,-594.349C1172.79,-562.627 1214.26,-474.775 1281,-440 1376.42,-390.283 1685.31,-399.213 1845.93,-407.722"/>
<polygon fill="#757575" stroke="#757575" points="1846.11,-411.237 1856.29,-408.281 1846.49,-404.247 1846.11,-411.237"/>
</g>
<!-- scenes/tests/testing.js -->
<g id="node47" class="node"><title>scenes/tests/testing.js</title>
<path fill="none" stroke="#cfffac" d="M1432.83,-811.5C1432.83,-811.5 1290.17,-811.5 1290.17,-811.5 1286.33,-811.5 1282.5,-807.667 1282.5,-803.834 1282.5,-803.834 1282.5,-796.167 1282.5,-796.167 1282.5,-792.334 1286.33,-788.5 1290.17,-788.5 1290.17,-788.5 1432.83,-788.5 1432.83,-788.5 1436.67,-788.5 1440.5,-792.334 1440.5,-796.167 1440.5,-796.167 1440.5,-803.834 1440.5,-803.834 1440.5,-807.667 1436.67,-811.5 1432.83,-811.5"/>
<text text-anchor="middle" x="1361.5" y="-796.3" font-family="Arial" font-size="14.00" fill="#cfffac">scenes/tests/testing.js</text>
</g>
<!-- scenes/sceneFunctions.js&#45;&gt;scenes/tests/testing.js -->
<g id="edge72" class="edge"><title>scenes/sceneFunctions.js&#45;&gt;scenes/tests/testing.js</title>
<path fill="none" stroke="#757575" d="M1233.98,-617.624C1237.97,-619.981 1241.69,-622.751 1245,-626 1293.34,-673.389 1235.02,-724.315 1281,-774 1284.4,-777.671 1288.32,-780.824 1292.56,-783.533"/>
<polygon fill="#757575" stroke="#757575" points="1291.2,-786.78 1301.66,-788.493 1294.55,-780.634 1291.2,-786.78"/>
</g>
<!-- actions/Perks.js -->
<g id="node8" class="node"><title>actions/Perks.js</title>
<path fill="none" stroke="#c6c5fe" d="M2214.83,-156.5C2214.83,-156.5 2114.17,-156.5 2114.17,-156.5 2110.33,-156.5 2106.5,-152.667 2106.5,-148.834 2106.5,-148.834 2106.5,-141.167 2106.5,-141.167 2106.5,-137.334 2110.33,-133.5 2114.17,-133.5 2114.17,-133.5 2214.83,-133.5 2214.83,-133.5 2218.67,-133.5 2222.5,-137.334 2222.5,-141.167 2222.5,-141.167 2222.5,-148.834 2222.5,-148.834 2222.5,-152.667 2218.67,-156.5 2214.83,-156.5"/>
<text text-anchor="middle" x="2164.5" y="-141.3" font-family="Arial" font-size="14.00" fill="#c6c5fe">actions/Perks.js</text>
</g>
<!-- actions/Perks.js&#45;&gt;store/store.js -->
<g id="edge7" class="edge"><title>actions/Perks.js&#45;&gt;store/store.js</title>
<path fill="none" stroke="#757575" d="M2173.23,-156.736C2203.83,-203.197 2316.7,-374.589 2355.67,-433.757"/>
<polygon fill="#757575" stroke="#757575" points="2352.84,-435.826 2361.26,-442.253 2358.69,-431.976 2352.84,-435.826"/>
</g>
<!-- actions/engineMsg.js -->
<g id="node9" class="node"><title>actions/engineMsg.js</title>
<path fill="none" stroke="#cfffac" d="M3076.33,-47.5005C3076.33,-47.5005 2942.67,-47.5005 2942.67,-47.5005 2938.83,-47.5005 2935,-43.6672 2935,-39.8338 2935,-39.8338 2935,-32.1672 2935,-32.1672 2935,-28.3338 2938.83,-24.5005 2942.67,-24.5005 2942.67,-24.5005 3076.33,-24.5005 3076.33,-24.5005 3080.17,-24.5005 3084,-28.3338 3084,-32.1672 3084,-32.1672 3084,-39.8338 3084,-39.8338 3084,-43.6672 3080.17,-47.5005 3076.33,-47.5005"/>
<text text-anchor="middle" x="3009.5" y="-32.3005" font-family="Arial" font-size="14.00" fill="#cfffac">actions/engineMsg.js</text>
</g>
<!-- actions/Perks.js&#45;&gt;actions/engineMsg.js -->
<g id="edge6" class="edge"><title>actions/Perks.js&#45;&gt;actions/engineMsg.js</title>
<path fill="none" stroke="#757575" d="M2181.63,-133.273C2205.1,-116.686 2250.51,-86.3519 2293,-68.0005 2373.48,-33.2429 2396.14,-26.8881 2483,-15.0005 2658.26,8.98515 2704.7,-0.578815 2881,-15.0005 2900.61,-16.6047 2921.75,-19.5748 2941.07,-22.7866"/>
<polygon fill="#757575" stroke="#757575" points="2940.54,-26.247 2950.99,-24.4822 2941.72,-19.3471 2940.54,-26.247"/>
</g>
<!-- actions/Player.js -->
<g id="node10" class="node"><title>actions/Player.js</title>
<path fill="none" stroke="#c6c5fe" d="M2216.33,-813.5C2216.33,-813.5 2112.67,-813.5 2112.67,-813.5 2108.83,-813.5 2105,-809.667 2105,-805.834 2105,-805.834 2105,-798.167 2105,-798.167 2105,-794.334 2108.83,-790.5 2112.67,-790.5 2112.67,-790.5 2216.33,-790.5 2216.33,-790.5 2220.17,-790.5 2224,-794.334 2224,-798.167 2224,-798.167 2224,-805.834 2224,-805.834 2224,-809.667 2220.17,-813.5 2216.33,-813.5"/>
<text text-anchor="middle" x="2164.5" y="-798.3" font-family="Arial" font-size="14.00" fill="#c6c5fe">actions/Player.js</text>
</g>
<!-- actions/Player.js&#45;&gt;store/store.js -->
<g id="edge9" class="edge"><title>actions/Player.js&#45;&gt;store/store.js</title>
<path fill="none" stroke="#757575" d="M2191.58,-790.434C2211.87,-780.265 2239.43,-763.702 2257,-742 2265.95,-730.942 2337.01,-540.358 2361.07,-475.448"/>
<polygon fill="#757575" stroke="#757575" points="2364.44,-476.421 2364.63,-465.828 2357.88,-473.99 2364.44,-476.421"/>
</g>
<!-- actions/playerMsg.js -->
<g id="node11" class="node"><title>actions/playerMsg.js</title>
<path fill="none" stroke="#cfffac" d="M3074.33,-366.5C3074.33,-366.5 2944.67,-366.5 2944.67,-366.5 2940.83,-366.5 2937,-362.667 2937,-358.834 2937,-358.834 2937,-351.167 2937,-351.167 2937,-347.334 2940.83,-343.5 2944.67,-343.5 2944.67,-343.5 3074.33,-343.5 3074.33,-343.5 3078.17,-343.5 3082,-347.334 3082,-351.167 3082,-351.167 3082,-358.834 3082,-358.834 3082,-362.667 3078.17,-366.5 3074.33,-366.5"/>
<text text-anchor="middle" x="3009.5" y="-351.3" font-family="Arial" font-size="14.00" fill="#cfffac">actions/playerMsg.js</text>
</g>
<!-- actions/Player.js&#45;&gt;actions/playerMsg.js -->
<g id="edge8" class="edge"><title>actions/Player.js&#45;&gt;actions/playerMsg.js</title>
<path fill="none" stroke="#757575" d="M2224.13,-796.008C2282.52,-788.513 2373.77,-772.614 2447,-741 2473.85,-729.408 2861.54,-464.834 2881,-443 2903.75,-417.473 2889.77,-395.683 2917,-375 2920.26,-372.526 2923.76,-370.345 2927.42,-368.424"/>
<polygon fill="#757575" stroke="#757575" points="2929.16,-371.478 2936.83,-364.163 2926.27,-365.103 2929.16,-371.478"/>
</g>
<!-- symbols/breastCup.js -->
<g id="node12" class="node"><title>symbols/breastCup.js</title>
<path fill="none" stroke="#c6c5fe" d="M2439.33,-732.5C2439.33,-732.5 2300.67,-732.5 2300.67,-732.5 2296.83,-732.5 2293,-728.667 2293,-724.834 2293,-724.834 2293,-717.167 2293,-717.167 2293,-713.334 2296.83,-709.5 2300.67,-709.5 2300.67,-709.5 2439.33,-709.5 2439.33,-709.5 2443.17,-709.5 2447,-713.334 2447,-717.167 2447,-717.167 2447,-724.834 2447,-724.834 2447,-728.667 2443.17,-732.5 2439.33,-732.5"/>
<text text-anchor="middle" x="2370" y="-717.3" font-family="Arial" font-size="14.00" fill="#c6c5fe">symbols/breastCup.js</text>
</g>
<!-- actions/Player.js&#45;&gt;symbols/breastCup.js -->
<g id="edge10" class="edge"><title>actions/Player.js&#45;&gt;symbols/breastCup.js</title>
<path fill="none" stroke="#757575" d="M2219.62,-790.498C2232.26,-786.767 2245.41,-781.996 2257,-776 2275.25,-766.559 2275.01,-756.92 2293,-747 2300.63,-742.793 2309.06,-739.091 2317.45,-735.898"/>
<polygon fill="#757575" stroke="#757575" points="2318.64,-739.191 2326.86,-732.509 2316.27,-732.605 2318.64,-739.191"/>
</g>
<!-- symbols/cockType.js -->
<g id="node13" class="node"><title>symbols/cockType.js</title>
<path fill="none" stroke="#cfffac" d="M2437.33,-850.5C2437.33,-850.5 2302.67,-850.5 2302.67,-850.5 2298.83,-850.5 2295,-846.667 2295,-842.834 2295,-842.834 2295,-835.167 2295,-835.167 2295,-831.334 2298.83,-827.5 2302.67,-827.5 2302.67,-827.5 2437.33,-827.5 2437.33,-827.5 2441.17,-827.5 2445,-831.334 2445,-835.167 2445,-835.167 2445,-842.834 2445,-842.834 2445,-846.667 2441.17,-850.5 2437.33,-850.5"/>
<text text-anchor="middle" x="2370" y="-835.3" font-family="Arial" font-size="14.00" fill="#cfffac">symbols/cockType.js</text>
</g>
<!-- actions/Player.js&#45;&gt;symbols/cockType.js -->
<g id="edge11" class="edge"><title>actions/Player.js&#45;&gt;symbols/cockType.js</title>
<path fill="none" stroke="#757575" d="M2224.09,-812.653C2246.38,-816.706 2272.07,-821.377 2295.57,-825.65"/>
<polygon fill="#757575" stroke="#757575" points="2295.03,-829.108 2305.49,-827.453 2296.28,-822.221 2295.03,-829.108"/>
</g>
<!-- symbols/vaginas.js -->
<g id="node14" class="node"><title>symbols/vaginas.js</title>
<path fill="none" stroke="#c6c5fe" d="M2631.33,-850.5C2631.33,-850.5 2510.67,-850.5 2510.67,-850.5 2506.83,-850.5 2503,-846.667 2503,-842.834 2503,-842.834 2503,-835.167 2503,-835.167 2503,-831.334 2506.83,-827.5 2510.67,-827.5 2510.67,-827.5 2631.33,-827.5 2631.33,-827.5 2635.17,-827.5 2639,-831.334 2639,-835.167 2639,-835.167 2639,-842.834 2639,-842.834 2639,-846.667 2635.17,-850.5 2631.33,-850.5"/>
<text text-anchor="middle" x="2571" y="-835.3" font-family="Arial" font-size="14.00" fill="#c6c5fe">symbols/vaginas.js</text>
</g>
<!-- actions/Player.js&#45;&gt;symbols/vaginas.js -->
<g id="edge12" class="edge"><title>actions/Player.js&#45;&gt;symbols/vaginas.js</title>
<path fill="none" stroke="#757575" d="M2224.14,-803.818C2281.19,-805.993 2370.24,-810.464 2447,-819 2463.2,-820.803 2480.53,-823.277 2496.9,-825.871"/>
<polygon fill="#757575" stroke="#757575" points="2496.53,-829.356 2506.96,-827.497 2497.65,-822.446 2496.53,-829.356"/>
</g>
<!-- utils.js -->
<g id="node39" class="node"><title>utils.js</title>
<path fill="none" stroke="#cfffac" d="M3186.33,-612.5C3186.33,-612.5 3145.67,-612.5 3145.67,-612.5 3141.83,-612.5 3138,-608.667 3138,-604.834 3138,-604.834 3138,-597.167 3138,-597.167 3138,-593.334 3141.83,-589.5 3145.67,-589.5 3145.67,-589.5 3186.33,-589.5 3186.33,-589.5 3190.17,-589.5 3194,-593.334 3194,-597.167 3194,-597.167 3194,-604.834 3194,-604.834 3194,-608.667 3190.17,-612.5 3186.33,-612.5"/>
<text text-anchor="middle" x="3166" y="-597.3" font-family="Arial" font-size="14.00" fill="#cfffac">utils.js</text>
</g>
<!-- symbols/breastCup.js&#45;&gt;utils.js -->
<g id="edge86" class="edge"><title>symbols/breastCup.js&#45;&gt;utils.js</title>
<path fill="none" stroke="#757575" d="M2424.29,-732.528C2573.65,-763.582 2992.6,-841.695 3102,-766 3149.3,-733.27 3161.11,-659.907 3164.04,-623.037"/>
<polygon fill="#757575" stroke="#757575" points="3167.55,-623.056 3164.7,-612.852 3160.56,-622.607 3167.55,-623.056"/>
</g>
<!-- symbols/vaginas.js&#45;&gt;utils.js -->
<g id="edge97" class="edge"><title>symbols/vaginas.js&#45;&gt;utils.js</title>
<path fill="none" stroke="#757575" d="M2639.3,-844.986C2765.65,-854.76 3031.98,-867.962 3102,-813 3132.4,-789.142 3153.94,-671.748 3161.76,-622.65"/>
<polygon fill="#757575" stroke="#757575" points="3165.22,-623.17 3163.3,-612.752 3158.31,-622.096 3165.22,-623.17"/>
</g>
<!-- appearance/appearance.js -->
<g id="node15" class="node"><title>appearance/appearance.js</title>
<path fill="none" stroke="#c6c5fe" d="M2249.33,-733.5C2249.33,-733.5 2079.67,-733.5 2079.67,-733.5 2075.83,-733.5 2072,-729.667 2072,-725.834 2072,-725.834 2072,-718.167 2072,-718.167 2072,-714.334 2075.83,-710.5 2079.67,-710.5 2079.67,-710.5 2249.33,-710.5 2249.33,-710.5 2253.17,-710.5 2257,-714.334 2257,-718.167 2257,-718.167 2257,-725.834 2257,-725.834 2257,-729.667 2253.17,-733.5 2249.33,-733.5"/>
<text text-anchor="middle" x="2164.5" y="-718.3" font-family="Arial" font-size="14.00" fill="#c6c5fe">appearance/appearance.js</text>
</g>
<!-- appearance/appearance.js&#45;&gt;store/store.js -->
<g id="edge13" class="edge"><title>appearance/appearance.js&#45;&gt;store/store.js</title>
<path fill="none" stroke="#757575" d="M2232.44,-710.379C2241.34,-706.796 2249.84,-702.116 2257,-696 2327.06,-636.139 2355.88,-523.068 2365.24,-475.718"/>
<polygon fill="#757575" stroke="#757575" points="2368.72,-476.132 2367.12,-465.658 2361.84,-474.842 2368.72,-476.132"/>
</g>
<!-- appearance/appearance.js&#45;&gt;symbols/breastCup.js -->
<g id="edge14" class="edge"><title>appearance/appearance.js&#45;&gt;symbols/breastCup.js</title>
<path fill="none" stroke="#757575" d="M2257.13,-721.55C2265.6,-721.509 2274.17,-721.466 2282.6,-721.425"/>
<polygon fill="#757575" stroke="#757575" points="2282.81,-724.924 2292.79,-721.375 2282.77,-717.924 2282.81,-724.924"/>
</g>
<!-- symbols/gender.js -->
<g id="node16" class="node"><title>symbols/gender.js</title>
<path fill="none" stroke="#c6c5fe" d="M2428.83,-691.5C2428.83,-691.5 2311.17,-691.5 2311.17,-691.5 2307.33,-691.5 2303.5,-687.667 2303.5,-683.834 2303.5,-683.834 2303.5,-676.167 2303.5,-676.167 2303.5,-672.334 2307.33,-668.5 2311.17,-668.5 2311.17,-668.5 2428.83,-668.5 2428.83,-668.5 2432.67,-668.5 2436.5,-672.334 2436.5,-676.167 2436.5,-676.167 2436.5,-683.834 2436.5,-683.834 2436.5,-687.667 2432.67,-691.5 2428.83,-691.5"/>
<text text-anchor="middle" x="2370" y="-676.3" font-family="Arial" font-size="14.00" fill="#c6c5fe">symbols/gender.js</text>
</g>
<!-- appearance/appearance.js&#45;&gt;symbols/gender.js -->
<g id="edge15" class="edge"><title>appearance/appearance.js&#45;&gt;symbols/gender.js</title>
<path fill="none" stroke="#757575" d="M2221.38,-710.468C2246.73,-705.236 2276.89,-699.011 2303.32,-693.556"/>
<polygon fill="#757575" stroke="#757575" points="2304.16,-696.956 2313.25,-691.507 2302.75,-690.101 2304.16,-696.956"/>
</g>
<!-- symbols/gender.js&#45;&gt;utils.js -->
<g id="edge90" class="edge"><title>symbols/gender.js&#45;&gt;utils.js</title>
<path fill="none" stroke="#757575" d="M2421.11,-691.54C2567.12,-724 2989.03,-809.172 3102,-737 3141.62,-711.687 3156.7,-654.351 3162.14,-622.81"/>
<polygon fill="#757575" stroke="#757575" points="3165.61,-623.242 3163.69,-612.824 3158.7,-622.17 3165.61,-623.242"/>
</g>
<!-- components/appRoot.js -->
<g id="node17" class="node"><title>components/appRoot.js</title>
<path fill="none" stroke="#c6c5fe" d="M334.333,-657.5C334.333,-657.5 181.667,-657.5 181.667,-657.5 177.833,-657.5 174,-653.667 174,-649.834 174,-649.834 174,-642.167 174,-642.167 174,-638.334 177.833,-634.5 181.667,-634.5 181.667,-634.5 334.333,-634.5 334.333,-634.5 338.167,-634.5 342,-638.334 342,-642.167 342,-642.167 342,-649.834 342,-649.834 342,-653.667 338.167,-657.5 334.333,-657.5"/>
<text text-anchor="middle" x="258" y="-642.3" font-family="Arial" font-size="14.00" fill="#c6c5fe">components/appRoot.js</text>
</g>
<!-- components/lowerButtons.js -->
<g id="node18" class="node"><title>components/lowerButtons.js</title>
<path fill="none" stroke="#c6c5fe" d="M565.333,-657.5C565.333,-657.5 385.667,-657.5 385.667,-657.5 381.833,-657.5 378,-653.667 378,-649.834 378,-649.834 378,-642.167 378,-642.167 378,-638.334 381.833,-634.5 385.667,-634.5 385.667,-634.5 565.333,-634.5 565.333,-634.5 569.167,-634.5 573,-638.334 573,-642.167 573,-642.167 573,-649.834 573,-649.834 573,-653.667 569.167,-657.5 565.333,-657.5"/>
<text text-anchor="middle" x="475.5" y="-642.3" font-family="Arial" font-size="14.00" fill="#c6c5fe">components/lowerButtons.js</text>
</g>
<!-- components/appRoot.js&#45;&gt;components/lowerButtons.js -->
<g id="edge16" class="edge"><title>components/appRoot.js&#45;&gt;components/lowerButtons.js</title>
<path fill="none" stroke="#757575" d="M342.01,-646C350.447,-646 359.097,-646 367.74,-646"/>
<polygon fill="#757575" stroke="#757575" points="367.868,-649.501 377.868,-646 367.868,-642.501 367.868,-649.501"/>
</g>
<!-- components/menuBar.js -->
<g id="node19" class="node"><title>components/menuBar.js</title>
<path fill="none" stroke="#c6c5fe" d="M552.833,-616.5C552.833,-616.5 398.167,-616.5 398.167,-616.5 394.333,-616.5 390.5,-612.667 390.5,-608.834 390.5,-608.834 390.5,-601.167 390.5,-601.167 390.5,-597.334 394.333,-593.5 398.167,-593.5 398.167,-593.5 552.833,-593.5 552.833,-593.5 556.667,-593.5 560.5,-597.334 560.5,-601.167 560.5,-601.167 560.5,-608.834 560.5,-608.834 560.5,-612.667 556.667,-616.5 552.833,-616.5"/>
<text text-anchor="middle" x="475.5" y="-601.3" font-family="Arial" font-size="14.00" fill="#c6c5fe">components/menuBar.js</text>
</g>
<!-- components/appRoot.js&#45;&gt;components/menuBar.js -->
<g id="edge17" class="edge"><title>components/appRoot.js&#45;&gt;components/menuBar.js</title>
<path fill="none" stroke="#757575" d="M319.602,-634.471C345.88,-629.471 376.817,-623.585 404.106,-618.393"/>
<polygon fill="#757575" stroke="#757575" points="404.81,-621.822 413.98,-616.515 403.502,-614.946 404.81,-621.822"/>
</g>
<!-- components/output.js -->
<g id="node20" class="node"><title>components/output.js</title>
<path fill="none" stroke="#cfffac" d="M543.833,-739.5C543.833,-739.5 407.167,-739.5 407.167,-739.5 403.333,-739.5 399.5,-735.667 399.5,-731.834 399.5,-731.834 399.5,-724.167 399.5,-724.167 399.5,-720.334 403.333,-716.5 407.167,-716.5 407.167,-716.5 543.833,-716.5 543.833,-716.5 547.667,-716.5 551.5,-720.334 551.5,-724.167 551.5,-724.167 551.5,-731.834 551.5,-731.834 551.5,-735.667 547.667,-739.5 543.833,-739.5"/>
<text text-anchor="middle" x="475.5" y="-724.3" font-family="Arial" font-size="14.00" fill="#cfffac">components/output.js</text>
</g>
<!-- components/appRoot.js&#45;&gt;components/output.js -->
<g id="edge18" class="edge"><title>components/appRoot.js&#45;&gt;components/output.js</title>
<path fill="none" stroke="#757575" d="M277.687,-657.521C300.56,-671.158 340.845,-693.691 378,-707 385.207,-709.582 392.835,-711.902 400.519,-713.973"/>
<polygon fill="#757575" stroke="#757575" points="399.698,-717.376 410.253,-716.464 401.433,-710.594 399.698,-717.376"/>
</g>
<!-- components/statBar.js -->
<g id="node21" class="node"><title>components/statBar.js</title>
<path fill="none" stroke="#c6c5fe" d="M546.833,-698.5C546.833,-698.5 404.167,-698.5 404.167,-698.5 400.333,-698.5 396.5,-694.667 396.5,-690.834 396.5,-690.834 396.5,-683.167 396.5,-683.167 396.5,-679.334 400.333,-675.5 404.167,-675.5 404.167,-675.5 546.833,-675.5 546.833,-675.5 550.667,-675.5 554.5,-679.334 554.5,-683.167 554.5,-683.167 554.5,-690.834 554.5,-690.834 554.5,-694.667 550.667,-698.5 546.833,-698.5"/>
<text text-anchor="middle" x="475.5" y="-683.3" font-family="Arial" font-size="14.00" fill="#c6c5fe">components/statBar.js</text>
</g>
<!-- components/appRoot.js&#45;&gt;components/statBar.js -->
<g id="edge19" class="edge"><title>components/appRoot.js&#45;&gt;components/statBar.js</title>
<path fill="none" stroke="#757575" d="M319.602,-657.53C345.88,-662.53 376.817,-668.416 404.106,-673.608"/>
<polygon fill="#757575" stroke="#757575" points="403.502,-677.055 413.98,-675.486 404.81,-670.179 403.502,-677.055"/>
</g>
<!-- components/buttonGrid.js -->
<g id="node23" class="node"><title>components/buttonGrid.js</title>
<path fill="none" stroke="#c6c5fe" d="M788.333,-627.5C788.333,-627.5 624.667,-627.5 624.667,-627.5 620.833,-627.5 617,-623.667 617,-619.834 617,-619.834 617,-612.167 617,-612.167 617,-608.334 620.833,-604.5 624.667,-604.5 624.667,-604.5 788.333,-604.5 788.333,-604.5 792.167,-604.5 796,-608.334 796,-612.167 796,-612.167 796,-619.834 796,-619.834 796,-623.667 792.167,-627.5 788.333,-627.5"/>
<text text-anchor="middle" x="706.5" y="-612.3" font-family="Arial" font-size="14.00" fill="#c6c5fe">components/buttonGrid.js</text>
</g>
<!-- components/lowerButtons.js&#45;&gt;components/buttonGrid.js -->
<g id="edge24" class="edge"><title>components/lowerButtons.js&#45;&gt;components/buttonGrid.js</title>
<path fill="none" stroke="#757575" d="M564.382,-634.488C578.389,-632.653 592.958,-630.744 607.187,-628.88"/>
<polygon fill="#757575" stroke="#757575" points="608.014,-632.302 617.474,-627.532 607.104,-625.361 608.014,-632.302"/>
</g>
<!-- components/menuBar.js&#45;&gt;components/buttonGrid.js -->
<g id="edge25" class="edge"><title>components/menuBar.js&#45;&gt;components/buttonGrid.js</title>
<path fill="none" stroke="#757575" d="M560.796,-609.05C575.755,-609.768 591.456,-610.522 606.773,-611.258"/>
<polygon fill="#757575" stroke="#757575" points="606.615,-614.754 616.771,-611.738 606.951,-607.763 606.615,-614.754"/>
</g>
<!-- components/spriteDisplay.js -->
<g id="node28" class="node"><title>components/spriteDisplay.js</title>
<path fill="none" stroke="#cfffac" d="M796.333,-729.5C796.333,-729.5 616.667,-729.5 616.667,-729.5 612.833,-729.5 609,-725.667 609,-721.834 609,-721.834 609,-714.167 609,-714.167 609,-710.334 612.833,-706.5 616.667,-706.5 616.667,-706.5 796.333,-706.5 796.333,-706.5 800.167,-706.5 804,-710.334 804,-714.167 804,-714.167 804,-721.834 804,-721.834 804,-725.667 800.167,-729.5 796.333,-729.5"/>
<text text-anchor="middle" x="706.5" y="-714.3" font-family="Arial" font-size="14.00" fill="#cfffac">components/spriteDisplay.js</text>
</g>
<!-- components/statBar.js&#45;&gt;components/spriteDisplay.js -->
<g id="edge28" class="edge"><title>components/statBar.js&#45;&gt;components/spriteDisplay.js</title>
<path fill="none" stroke="#757575" d="M554.668,-697.582C572.571,-700.006 591.795,-702.608 610.324,-705.116"/>
<polygon fill="#757575" stroke="#757575" points="609.856,-708.585 620.235,-706.458 610.795,-701.648 609.856,-708.585"/>
</g>
<!-- components/statDisplay.js -->
<g id="node30" class="node"><title>components/statDisplay.js</title>
<path fill="none" stroke="#c6c5fe" d="M789.833,-688.5C789.833,-688.5 623.167,-688.5 623.167,-688.5 619.333,-688.5 615.5,-684.667 615.5,-680.834 615.5,-680.834 615.5,-673.167 615.5,-673.167 615.5,-669.334 619.333,-665.5 623.167,-665.5 623.167,-665.5 789.833,-665.5 789.833,-665.5 793.667,-665.5 797.5,-669.334 797.5,-673.167 797.5,-673.167 797.5,-680.834 797.5,-680.834 797.5,-684.667 793.667,-688.5 789.833,-688.5"/>
<text text-anchor="middle" x="706.5" y="-673.3" font-family="Arial" font-size="14.00" fill="#c6c5fe">components/statDisplay.js</text>
</g>
<!-- components/statBar.js&#45;&gt;components/statDisplay.js -->
<g id="edge29" class="edge"><title>components/statBar.js&#45;&gt;components/statDisplay.js</title>
<path fill="none" stroke="#757575" d="M554.668,-683.587C570.871,-682.88 588.156,-682.125 605.028,-681.388"/>
<polygon fill="#757575" stroke="#757575" points="605.629,-684.865 615.467,-680.932 605.324,-677.872 605.629,-684.865"/>
</g>
<!-- components/timeDisplay.js -->
<g id="node31" class="node"><title>components/timeDisplay.js</title>
<path fill="none" stroke="#cfffac" d="M792.333,-770.5C792.333,-770.5 620.667,-770.5 620.667,-770.5 616.833,-770.5 613,-766.667 613,-762.834 613,-762.834 613,-755.167 613,-755.167 613,-751.334 616.833,-747.5 620.667,-747.5 620.667,-747.5 792.333,-747.5 792.333,-747.5 796.167,-747.5 800,-751.334 800,-755.167 800,-755.167 800,-762.834 800,-762.834 800,-766.667 796.167,-770.5 792.333,-770.5"/>
<text text-anchor="middle" x="706.5" y="-755.3" font-family="Arial" font-size="14.00" fill="#cfffac">components/timeDisplay.js</text>
</g>
<!-- components/statBar.js&#45;&gt;components/timeDisplay.js -->
<g id="edge30" class="edge"><title>components/statBar.js&#45;&gt;components/timeDisplay.js</title>
<path fill="none" stroke="#757575" d="M551.28,-698.509C558.798,-700.838 566.17,-703.637 573,-707 591.942,-716.33 590.105,-728.578 609,-738 613.628,-740.309 618.506,-742.364 623.509,-744.195"/>
<polygon fill="#757575" stroke="#757575" points="622.66,-747.601 633.254,-747.446 624.875,-740.961 622.66,-747.601"/>
</g>
<!-- components/button.js -->
<g id="node22" class="node"><title>components/button.js</title>
<path fill="none" stroke="#cfffac" d="M1222.33,-658.5C1222.33,-658.5 1085.67,-658.5 1085.67,-658.5 1081.83,-658.5 1078,-654.667 1078,-650.834 1078,-650.834 1078,-643.167 1078,-643.167 1078,-639.334 1081.83,-635.5 1085.67,-635.5 1085.67,-635.5 1222.33,-635.5 1222.33,-635.5 1226.17,-635.5 1230,-639.334 1230,-643.167 1230,-643.167 1230,-650.834 1230,-650.834 1230,-654.667 1226.17,-658.5 1222.33,-658.5"/>
<text text-anchor="middle" x="1154" y="-643.3" font-family="Arial" font-size="14.00" fill="#cfffac">components/button.js</text>
</g>
<!-- components/buttonGrid.js&#45;&gt;actions/Engine.js -->
<g id="edge20" class="edge"><title>components/buttonGrid.js&#45;&gt;actions/Engine.js</title>
<path fill="none" stroke="#757575" d="M796.103,-612.063C817.669,-611.104 840.464,-610.091 861.115,-609.173"/>
<polygon fill="#757575" stroke="#757575" points="861.548,-612.657 871.383,-608.717 861.237,-605.664 861.548,-612.657"/>
</g>
<!-- components/buttonWrap.js -->
<g id="node24" class="node"><title>components/buttonWrap.js</title>
<path fill="none" stroke="#c6c5fe" d="M1019.33,-658.5C1019.33,-658.5 847.667,-658.5 847.667,-658.5 843.833,-658.5 840,-654.667 840,-650.834 840,-650.834 840,-643.167 840,-643.167 840,-639.334 843.833,-635.5 847.667,-635.5 847.667,-635.5 1019.33,-635.5 1019.33,-635.5 1023.17,-635.5 1027,-639.334 1027,-643.167 1027,-643.167 1027,-650.834 1027,-650.834 1027,-654.667 1023.17,-658.5 1019.33,-658.5"/>
<text text-anchor="middle" x="933.5" y="-643.3" font-family="Arial" font-size="14.00" fill="#c6c5fe">components/buttonWrap.js</text>
</g>
<!-- components/buttonGrid.js&#45;&gt;components/buttonWrap.js -->
<g id="edge21" class="edge"><title>components/buttonGrid.js&#45;&gt;components/buttonWrap.js</title>
<path fill="none" stroke="#757575" d="M791.282,-627.544C806.758,-629.676 823.011,-631.915 838.76,-634.085"/>
<polygon fill="#757575" stroke="#757575" points="838.639,-637.601 849.023,-635.499 839.594,-630.667 838.639,-637.601"/>
</g>
<!-- components/buttonWrap.js&#45;&gt;components/button.js -->
<g id="edge22" class="edge"><title>components/buttonWrap.js&#45;&gt;components/button.js</title>
<path fill="none" stroke="#757575" d="M1027.16,-647C1040.6,-647 1054.39,-647 1067.67,-647"/>
<polygon fill="#757575" stroke="#757575" points="1067.72,-650.501 1077.72,-647 1067.72,-643.501 1067.72,-650.501"/>
</g>
<!-- components/dropdown.js -->
<g id="node25" class="node"><title>components/dropdown.js</title>
<path fill="none" stroke="#c6c5fe" d="M2651.33,-47.5005C2651.33,-47.5005 2490.67,-47.5005 2490.67,-47.5005 2486.83,-47.5005 2483,-43.6672 2483,-39.8338 2483,-39.8338 2483,-32.1672 2483,-32.1672 2483,-28.3338 2486.83,-24.5005 2490.67,-24.5005 2490.67,-24.5005 2651.33,-24.5005 2651.33,-24.5005 2655.17,-24.5005 2659,-28.3338 2659,-32.1672 2659,-32.1672 2659,-39.8338 2659,-39.8338 2659,-43.6672 2655.17,-47.5005 2651.33,-47.5005"/>
<text text-anchor="middle" x="2571" y="-32.3005" font-family="Arial" font-size="14.00" fill="#c6c5fe">components/dropdown.js</text>
</g>
<!-- symbols/perks.js -->
<g id="node26" class="node"><title>symbols/perks.js</title>
<path fill="none" stroke="#c6c5fe" d="M2841.83,-47.5005C2841.83,-47.5005 2734.17,-47.5005 2734.17,-47.5005 2730.33,-47.5005 2726.5,-43.6672 2726.5,-39.8338 2726.5,-39.8338 2726.5,-32.1672 2726.5,-32.1672 2726.5,-28.3338 2730.33,-24.5005 2734.17,-24.5005 2734.17,-24.5005 2841.83,-24.5005 2841.83,-24.5005 2845.67,-24.5005 2849.5,-28.3338 2849.5,-32.1672 2849.5,-32.1672 2849.5,-39.8338 2849.5,-39.8338 2849.5,-43.6672 2845.67,-47.5005 2841.83,-47.5005"/>
<text text-anchor="middle" x="2788" y="-32.3005" font-family="Arial" font-size="14.00" fill="#c6c5fe">symbols/perks.js</text>
</g>
<!-- components/dropdown.js&#45;&gt;symbols/perks.js -->
<g id="edge23" class="edge"><title>components/dropdown.js&#45;&gt;symbols/perks.js</title>
<path fill="none" stroke="#757575" d="M2659.14,-36.0005C2678.1,-36.0005 2697.95,-36.0005 2716.19,-36.0005"/>
<polygon fill="#757575" stroke="#757575" points="2716.43,-39.5006 2726.43,-36.0005 2716.43,-32.5006 2716.43,-39.5006"/>
</g>
<!-- symbols/perks.js&#45;&gt;actions/engineMsg.js -->
<g id="edge93" class="edge"><title>symbols/perks.js&#45;&gt;actions/engineMsg.js</title>
<path fill="none" stroke="#757575" d="M2849.56,-36.0005C2872.76,-36.0005 2899.65,-36.0005 2924.65,-36.0005"/>
<polygon fill="#757575" stroke="#757575" points="2924.86,-39.5006 2934.86,-36.0005 2924.86,-32.5006 2924.86,-39.5006"/>
</g>
<!-- components/nameInput.js -->
<g id="node27" class="node"><title>components/nameInput.js</title>
<path fill="none" stroke="#c6c5fe" d="M2028.33,-809.5C2028.33,-809.5 1863.67,-809.5 1863.67,-809.5 1859.83,-809.5 1856,-805.667 1856,-801.834 1856,-801.834 1856,-794.167 1856,-794.167 1856,-790.334 1859.83,-786.5 1863.67,-786.5 1863.67,-786.5 2028.33,-786.5 2028.33,-786.5 2032.17,-786.5 2036,-790.334 2036,-794.167 2036,-794.167 2036,-801.834 2036,-801.834 2036,-805.667 2032.17,-809.5 2028.33,-809.5"/>
<text text-anchor="middle" x="1946" y="-794.3" font-family="Arial" font-size="14.00" fill="#c6c5fe">components/nameInput.js</text>
</g>
<!-- components/nameInput.js&#45;&gt;store/store.js -->
<g id="edge27" class="edge"><title>components/nameInput.js&#45;&gt;store/store.js</title>
<path fill="none" stroke="#757575" d="M1961.31,-786.226C1984.22,-767.532 2030.74,-730.194 2072,-701 2151.81,-644.533 2182.97,-645.859 2257,-582 2296.37,-548.036 2334.57,-500.233 2354.58,-473.7"/>
<polygon fill="#757575" stroke="#757575" points="2357.48,-475.677 2360.65,-465.569 2351.86,-471.492 2357.48,-475.677"/>
</g>
<!-- components/nameInput.js&#45;&gt;actions/Player.js -->
<g id="edge26" class="edge"><title>components/nameInput.js&#45;&gt;actions/Player.js</title>
<path fill="none" stroke="#757575" d="M2036.31,-799.651C2055.77,-800.01 2076.07,-800.385 2094.59,-800.727"/>
<polygon fill="#757575" stroke="#757575" points="2094.62,-804.228 2104.68,-800.914 2094.75,-797.23 2094.62,-804.228"/>
</g>
<!-- components/stat.js -->
<g id="node29" class="node"><title>components/stat.js</title>
<path fill="none" stroke="#cfffac" d="M993.833,-699.5C993.833,-699.5 873.167,-699.5 873.167,-699.5 869.333,-699.5 865.5,-695.667 865.5,-691.834 865.5,-691.834 865.5,-684.167 865.5,-684.167 865.5,-680.334 869.333,-676.5 873.167,-676.5 873.167,-676.5 993.833,-676.5 993.833,-676.5 997.667,-676.5 1001.5,-680.334 1001.5,-684.167 1001.5,-684.167 1001.5,-691.834 1001.5,-691.834 1001.5,-695.667 997.667,-699.5 993.833,-699.5"/>
<text text-anchor="middle" x="933.5" y="-684.3" font-family="Arial" font-size="14.00" fill="#cfffac">components/stat.js</text>
</g>
<!-- components/statDisplay.js&#45;&gt;components/stat.js -->
<g id="edge31" class="edge"><title>components/statDisplay.js&#45;&gt;components/stat.js</title>
<path fill="none" stroke="#757575" d="M797.72,-681.411C816.804,-682.344 836.779,-683.321 855.327,-684.228"/>
<polygon fill="#757575" stroke="#757575" points="855.312,-687.731 865.471,-684.724 855.654,-680.739 855.312,-687.731"/>
</g>
<!-- index.js -->
<g id="node32" class="node"><title>index.js</title>
<path fill="none" stroke="#c6c5fe" d="M93.8333,-454.5C93.8333,-454.5 44.1667,-454.5 44.1667,-454.5 40.3333,-454.5 36.5,-450.667 36.5,-446.834 36.5,-446.834 36.5,-439.167 36.5,-439.167 36.5,-435.334 40.3333,-431.5 44.1667,-431.5 44.1667,-431.5 93.8333,-431.5 93.8333,-431.5 97.6667,-431.5 101.5,-435.334 101.5,-439.167 101.5,-439.167 101.5,-446.834 101.5,-446.834 101.5,-450.667 97.6667,-454.5 93.8333,-454.5"/>
<text text-anchor="middle" x="69" y="-439.3" font-family="Arial" font-size="14.00" fill="#c6c5fe">index.js</text>
</g>
<!-- index.js&#45;&gt;store/store.js -->
<g id="edge33" class="edge"><title>index.js&#45;&gt;store/store.js</title>
<path fill="none" stroke="#757575" d="M101.673,-433.838C169.442,-415.068 333.801,-374 474.5,-374 474.5,-374 474.5,-374 1947,-374 2085.98,-374 2121.79,-382.872 2257,-415 2282.36,-421.027 2310.03,-430.632 2331.52,-438.801"/>
<polygon fill="#757575" stroke="#757575" points="2330.34,-442.097 2340.93,-442.436 2332.87,-435.568 2330.34,-442.097"/>
</g>
<!-- index.js&#45;&gt;components/appRoot.js -->
<g id="edge32" class="edge"><title>index.js&#45;&gt;components/appRoot.js</title>
<path fill="none" stroke="#757575" d="M101.56,-447.447C113.828,-450.351 127.44,-455.136 138,-463 195.787,-506.038 233.376,-586.086 248.895,-624.434"/>
<polygon fill="#757575" stroke="#757575" points="245.771,-626.051 252.686,-634.078 252.286,-623.491 245.771,-626.051"/>
</g>
<!-- reducers/root.js&#45;&gt;actions/coreMsg.js -->
<g id="edge34" class="edge"><title>reducers/root.js&#45;&gt;actions/coreMsg.js</title>
<path fill="none" stroke="#757575" d="M2629.05,-297.65C2691.14,-299.915 2793.29,-301.838 2881,-295 2899.47,-293.561 2919.31,-290.964 2937.71,-288.109"/>
<polygon fill="#757575" stroke="#757575" points="2938.44,-291.536 2947.77,-286.502 2937.34,-284.624 2938.44,-291.536"/>
</g>
<!-- reducers/root.js&#45;&gt;actions/enemyMsg.js -->
<g id="edge35" class="edge"><title>reducers/root.js&#45;&gt;actions/enemyMsg.js</title>
<path fill="none" stroke="#757575" d="M2579.64,-283.238C2597.6,-256.131 2644.79,-187.998 2695,-141 2714.38,-122.865 2739.22,-105.887 2758.21,-93.9806"/>
<polygon fill="#757575" stroke="#757575" points="2760.07,-96.9471 2766.74,-88.721 2756.39,-90.9877 2760.07,-96.9471"/>
</g>
<!-- reducers/root.js&#45;&gt;actions/engineMsg.js -->
<g id="edge36" class="edge"><title>reducers/root.js&#45;&gt;actions/engineMsg.js</title>
<path fill="none" stroke="#757575" d="M2581.33,-283.157C2600.42,-259.575 2646.3,-206.248 2695,-174 2769.6,-124.606 2799.28,-133.432 2881,-97.0005 2913.59,-82.4704 2950.3,-64.7642 2975.93,-52.179"/>
<polygon fill="#757575" stroke="#757575" points="2977.75,-55.1821 2985.18,-47.6237 2974.66,-48.9024 2977.75,-55.1821"/>
</g>
<!-- reducers/root.js&#45;&gt;actions/playerMsg.js -->
<g id="edge37" class="edge"><title>reducers/root.js&#45;&gt;actions/playerMsg.js</title>
<path fill="none" stroke="#757575" d="M2579.12,-306.579C2595.67,-332.217 2639.56,-393.301 2695,-416 2771.5,-447.322 2805.69,-450.095 2881,-416 2903.09,-405.999 2896.11,-387.316 2917,-375 2920.27,-373.07 2923.71,-371.325 2927.26,-369.749"/>
<polygon fill="#757575" stroke="#757575" points="2928.85,-372.886 2936.86,-365.955 2926.27,-366.375 2928.85,-372.886"/>
</g>
<!-- reducers/root.js&#45;&gt;symbols/perks.js -->
<g id="edge43" class="edge"><title>reducers/root.js&#45;&gt;symbols/perks.js</title>
<path fill="none" stroke="#757575" d="M2574.33,-283.275C2582.75,-244.147 2615.42,-117.101 2695,-56.0005 2701.45,-51.0468 2708.87,-47.2633 2716.64,-44.3821"/>
<polygon fill="#757575" stroke="#757575" points="2717.8,-47.6873 2726.25,-41.2974 2715.66,-41.0225 2717.8,-47.6873"/>
</g>
<!-- reducers/updateBodyArr.js -->
<g id="node34" class="node"><title>reducers/updateBodyArr.js</title>
<path fill="none" stroke="#c6c5fe" d="M2873.33,-407.5C2873.33,-407.5 2702.67,-407.5 2702.67,-407.5 2698.83,-407.5 2695,-403.667 2695,-399.834 2695,-399.834 2695,-392.167 2695,-392.167 2695,-388.334 2698.83,-384.5 2702.67,-384.5 2702.67,-384.5 2873.33,-384.5 2873.33,-384.5 2877.17,-384.5 2881,-388.334 2881,-392.167 2881,-392.167 2881,-399.834 2881,-399.834 2881,-403.667 2877.17,-407.5 2873.33,-407.5"/>
<text text-anchor="middle" x="2788" y="-392.3" font-family="Arial" font-size="14.00" fill="#c6c5fe">reducers/updateBodyArr.js</text>
</g>
<!-- reducers/root.js&#45;&gt;reducers/updateBodyArr.js -->
<g id="edge38" class="edge"><title>reducers/root.js&#45;&gt;reducers/updateBodyArr.js</title>
<path fill="none" stroke="#757575" d="M2586.19,-306.658C2608.15,-324.115 2652.31,-356.923 2695,-375 2700.74,-377.432 2706.81,-379.605 2712.98,-381.542"/>
<polygon fill="#757575" stroke="#757575" points="2712.15,-384.945 2722.73,-384.395 2714.12,-378.227 2712.15,-384.945"/>
</g>
<!-- reducers/updateButtons.js -->
<g id="node35" class="node"><title>reducers/updateButtons.js</title>
<path fill="none" stroke="#cfffac" d="M2871.33,-286.5C2871.33,-286.5 2704.67,-286.5 2704.67,-286.5 2700.83,-286.5 2697,-282.667 2697,-278.834 2697,-278.834 2697,-271.167 2697,-271.167 2697,-267.334 2700.83,-263.5 2704.67,-263.5 2704.67,-263.5 2871.33,-263.5 2871.33,-263.5 2875.17,-263.5 2879,-267.334 2879,-271.167 2879,-271.167 2879,-278.834 2879,-278.834 2879,-282.667 2875.17,-286.5 2871.33,-286.5"/>
<text text-anchor="middle" x="2788" y="-271.3" font-family="Arial" font-size="14.00" fill="#cfffac">reducers/updateButtons.js</text>
</g>
<!-- reducers/root.js&#45;&gt;reducers/updateButtons.js -->
<g id="edge39" class="edge"><title>reducers/root.js&#45;&gt;reducers/updateButtons.js</title>
<path fill="none" stroke="#757575" d="M2629.05,-289.693C2646.82,-288.04 2666.98,-286.165 2686.8,-284.322"/>
<polygon fill="#757575" stroke="#757575" points="2687.17,-287.802 2696.8,-283.391 2686.52,-280.833 2687.17,-287.802"/>
</g>
<!-- reducers/updateStats.js -->
<g id="node36" class="node"><title>reducers/updateStats.js</title>
<path fill="none" stroke="#c6c5fe" d="M2863.83,-366.5C2863.83,-366.5 2712.17,-366.5 2712.17,-366.5 2708.33,-366.5 2704.5,-362.667 2704.5,-358.834 2704.5,-358.834 2704.5,-351.167 2704.5,-351.167 2704.5,-347.334 2708.33,-343.5 2712.17,-343.5 2712.17,-343.5 2863.83,-343.5 2863.83,-343.5 2867.67,-343.5 2871.5,-347.334 2871.5,-351.167 2871.5,-351.167 2871.5,-358.834 2871.5,-358.834 2871.5,-362.667 2867.67,-366.5 2863.83,-366.5"/>
<text text-anchor="middle" x="2788" y="-351.3" font-family="Arial" font-size="14.00" fill="#c6c5fe">reducers/updateStats.js</text>
</g>
<!-- reducers/root.js&#45;&gt;reducers/updateStats.js -->
<g id="edge40" class="edge"><title>reducers/root.js&#45;&gt;reducers/updateStats.js</title>
<path fill="none" stroke="#757575" d="M2613.45,-306.569C2648.4,-316.322 2698.56,-330.319 2735.97,-340.759"/>
<polygon fill="#757575" stroke="#757575" points="2735.1,-344.151 2745.67,-343.467 2736.98,-337.408 2735.1,-344.151"/>
</g>
<!-- reducers/updateTime.js -->
<g id="node37" class="node"><title>reducers/updateTime.js</title>
<path fill="none" stroke="#c6c5fe" d="M2863.83,-206.5C2863.83,-206.5 2712.17,-206.5 2712.17,-206.5 2708.33,-206.5 2704.5,-202.667 2704.5,-198.834 2704.5,-198.834 2704.5,-191.167 2704.5,-191.167 2704.5,-187.334 2708.33,-183.5 2712.17,-183.5 2712.17,-183.5 2863.83,-183.5 2863.83,-183.5 2867.67,-183.5 2871.5,-187.334 2871.5,-191.167 2871.5,-191.167 2871.5,-198.834 2871.5,-198.834 2871.5,-202.667 2867.67,-206.5 2863.83,-206.5"/>
<text text-anchor="middle" x="2788" y="-191.3" font-family="Arial" font-size="14.00" fill="#c6c5fe">reducers/updateTime.js</text>
</g>
<!-- reducers/root.js&#45;&gt;reducers/updateTime.js -->
<g id="edge41" class="edge"><title>reducers/root.js&#45;&gt;reducers/updateTime.js</title>
<path fill="none" stroke="#757575" d="M2587.96,-283.485C2610.73,-267.515 2654.29,-238.622 2695,-221 2705.15,-216.609 2716.24,-212.742 2727.1,-209.425"/>
<polygon fill="#757575" stroke="#757575" points="2728.37,-212.702 2736.98,-206.533 2726.4,-205.984 2728.37,-212.702"/>
</g>
<!-- store/initialState.js -->
<g id="node38" class="node"><title>store/initialState.js</title>
<path fill="none" stroke="#c6c5fe" d="M2845.83,-612.5C2845.83,-612.5 2730.17,-612.5 2730.17,-612.5 2726.33,-612.5 2722.5,-608.667 2722.5,-604.834 2722.5,-604.834 2722.5,-597.167 2722.5,-597.167 2722.5,-593.334 2726.33,-589.5 2730.17,-589.5 2730.17,-589.5 2845.83,-589.5 2845.83,-589.5 2849.67,-589.5 2853.5,-593.334 2853.5,-597.167 2853.5,-597.167 2853.5,-604.834 2853.5,-604.834 2853.5,-608.667 2849.67,-612.5 2845.83,-612.5"/>
<text text-anchor="middle" x="2788" y="-597.3" font-family="Arial" font-size="14.00" fill="#c6c5fe">store/initialState.js</text>
</g>
<!-- reducers/root.js&#45;&gt;store/initialState.js -->
<g id="edge42" class="edge"><title>reducers/root.js&#45;&gt;store/initialState.js</title>
<path fill="none" stroke="#757575" d="M2580.17,-306.622C2612.49,-352.632 2731.75,-522.36 2772.91,-580.953"/>
<polygon fill="#757575" stroke="#757575" points="2770.21,-583.197 2778.83,-589.367 2775.94,-579.173 2770.21,-583.197"/>
</g>
<!-- reducers/root.js&#45;&gt;utils.js -->
<g id="edge44" class="edge"><title>reducers/root.js&#45;&gt;utils.js</title>
<path fill="none" stroke="#757575" d="M2598.25,-283.5C2622.73,-273.441 2660.56,-259.589 2695,-254 2784.28,-239.513 3032.57,-196.04 3102,-254 3152.2,-295.908 3162.49,-509.474 3164.52,-579.054"/>
<polygon fill="#757575" stroke="#757575" points="3161.03,-579.377 3164.79,-589.282 3168.02,-579.193 3161.03,-579.377"/>
</g>
<!-- reducers/updateBodyArr.js&#45;&gt;actions/playerMsg.js -->
<g id="edge45" class="edge"><title>reducers/updateBodyArr.js&#45;&gt;actions/playerMsg.js</title>
<path fill="none" stroke="#757575" d="M2850.73,-384.471C2877.49,-379.471 2909,-373.585 2936.8,-368.393"/>
<polygon fill="#757575" stroke="#757575" points="2937.67,-371.792 2946.86,-366.515 2936.38,-364.911 2937.67,-371.792"/>
</g>
<!-- reducers/updateStats.js&#45;&gt;actions/coreMsg.js -->
<g id="edge46" class="edge"><title>reducers/updateStats.js&#45;&gt;actions/coreMsg.js</title>
<path fill="none" stroke="#757575" d="M2843.34,-343.387C2856.06,-339.66 2869.3,-334.918 2881,-329 2899.09,-319.852 2898.92,-310.161 2917,-301 2925.84,-296.522 2935.56,-292.715 2945.27,-289.51"/>
<polygon fill="#757575" stroke="#757575" points="2946.42,-292.816 2954.93,-286.504 2944.34,-286.132 2946.42,-292.816"/>
</g>
<!-- reducers/updateStats.js&#45;&gt;actions/playerMsg.js -->
<g id="edge47" class="edge"><title>reducers/updateStats.js&#45;&gt;actions/playerMsg.js</title>
<path fill="none" stroke="#757575" d="M2871.67,-355C2889.63,-355 2908.63,-355 2926.56,-355"/>
<polygon fill="#757575" stroke="#757575" points="2926.69,-358.501 2936.69,-355 2926.69,-351.501 2926.69,-358.501"/>
</g>
<!-- reducers/updateStats.js&#45;&gt;utils.js -->
<g id="edge48" class="edge"><title>reducers/updateStats.js&#45;&gt;utils.js</title>
<path fill="none" stroke="#757575" d="M2813.39,-343.478C2870.73,-318.271 3015.74,-265.723 3102,-334 3140.69,-364.621 3158.02,-520.565 3163.22,-578.921"/>
<polygon fill="#757575" stroke="#757575" points="3159.76,-579.559 3164.1,-589.224 3166.74,-578.962 3159.76,-579.559"/>
</g>
<!-- reducers/updateTime.js&#45;&gt;utils.js -->
<g id="edge49" class="edge"><title>reducers/updateTime.js&#45;&gt;utils.js</title>
<path fill="none" stroke="#757575" d="M2833.77,-183.461C2901.26,-169.017 3028.93,-153.649 3102,-221 3154.98,-269.829 3163.4,-505.669 3164.75,-579.116"/>
<polygon fill="#757575" stroke="#757575" points="3161.25,-579.512 3164.91,-589.456 3168.25,-579.403 3161.25,-579.512"/>
</g>
<!-- store/initialState.js&#45;&gt;scenes/sceneSymbols.js -->
<g id="edge76" class="edge"><title>store/initialState.js&#45;&gt;scenes/sceneSymbols.js</title>
<path fill="none" stroke="#757575" d="M2796.3,-612.779C2828.14,-664.12 2955,-868.724 2995.8,-934.513"/>
<polygon fill="#757575" stroke="#757575" points="2992.93,-936.524 3001.17,-943.178 2998.87,-932.835 2992.93,-936.524"/>
</g>
<!-- symbols/enemies/goblin.js -->
<g id="node50" class="node"><title>symbols/enemies/goblin.js</title>
<path fill="none" stroke="#cfffac" d="M3094.33,-489.5C3094.33,-489.5 2924.67,-489.5 2924.67,-489.5 2920.83,-489.5 2917,-485.667 2917,-481.834 2917,-481.834 2917,-474.167 2917,-474.167 2917,-470.334 2920.83,-466.5 2924.67,-466.5 2924.67,-466.5 3094.33,-466.5 3094.33,-466.5 3098.17,-466.5 3102,-470.334 3102,-474.167 3102,-474.167 3102,-481.834 3102,-481.834 3102,-485.667 3098.17,-489.5 3094.33,-489.5"/>
<text text-anchor="middle" x="3009.5" y="-474.3" font-family="Arial" font-size="14.00" fill="#cfffac">symbols/enemies/goblin.js</text>
</g>
<!-- store/initialState.js&#45;&gt;symbols/enemies/goblin.js -->
<g id="edge77" class="edge"><title>store/initialState.js&#45;&gt;symbols/enemies/goblin.js</title>
<path fill="none" stroke="#757575" d="M2853.92,-590.318C2863.72,-586.626 2873.16,-581.665 2881,-575 2909.79,-550.535 2887.49,-521.588 2917,-498 2918.4,-496.884 2919.84,-495.826 2921.33,-494.824"/>
<polygon fill="#757575" stroke="#757575" points="2923.35,-497.702 2930.27,-489.679 2919.85,-491.636 2923.35,-497.702"/>
</g>
<!-- symbols/face.js -->
<g id="node51" class="node"><title>symbols/face.js</title>
<path fill="none" stroke="#c6c5fe" d="M3059.83,-530.5C3059.83,-530.5 2959.17,-530.5 2959.17,-530.5 2955.33,-530.5 2951.5,-526.667 2951.5,-522.834 2951.5,-522.834 2951.5,-515.167 2951.5,-515.167 2951.5,-511.334 2955.33,-507.5 2959.17,-507.5 2959.17,-507.5 3059.83,-507.5 3059.83,-507.5 3063.67,-507.5 3067.5,-511.334 3067.5,-515.167 3067.5,-515.167 3067.5,-522.834 3067.5,-522.834 3067.5,-526.667 3063.67,-530.5 3059.83,-530.5"/>
<text text-anchor="middle" x="3009.5" y="-515.3" font-family="Arial" font-size="14.00" fill="#c6c5fe">symbols/face.js</text>
</g>
<!-- store/initialState.js&#45;&gt;symbols/face.js -->
<g id="edge78" class="edge"><title>store/initialState.js&#45;&gt;symbols/face.js</title>
<path fill="none" stroke="#757575" d="M2847.29,-589.383C2858.9,-585.748 2870.69,-581.046 2881,-575 2900.52,-563.554 2897.15,-549.855 2917,-539 2924.49,-534.908 2932.75,-531.653 2941.15,-529.064"/>
<polygon fill="#757575" stroke="#757575" points="2942.34,-532.365 2951.04,-526.32 2940.47,-525.62 2942.34,-532.365"/>
</g>
<!-- symbols/gear.js -->
<g id="node52" class="node"><title>symbols/gear.js</title>
<path fill="none" stroke="#c6c5fe" d="M3059.83,-448.5C3059.83,-448.5 2959.17,-448.5 2959.17,-448.5 2955.33,-448.5 2951.5,-444.667 2951.5,-440.834 2951.5,-440.834 2951.5,-433.167 2951.5,-433.167 2951.5,-429.334 2955.33,-425.5 2959.17,-425.5 2959.17,-425.5 3059.83,-425.5 3059.83,-425.5 3063.67,-425.5 3067.5,-429.334 3067.5,-433.167 3067.5,-433.167 3067.5,-440.834 3067.5,-440.834 3067.5,-444.667 3063.67,-448.5 3059.83,-448.5"/>
<text text-anchor="middle" x="3009.5" y="-433.3" font-family="Arial" font-size="14.00" fill="#c6c5fe">symbols/gear.js</text>
</g>
<!-- store/initialState.js&#45;&gt;symbols/gear.js -->
<g id="edge79" class="edge"><title>store/initialState.js&#45;&gt;symbols/gear.js</title>
<path fill="none" stroke="#757575" d="M2853.82,-591.607C2863.87,-587.775 2873.41,-582.434 2881,-575 2920.17,-536.632 2876.69,-494.172 2917,-457 2924.01,-450.537 2932.61,-445.985 2941.7,-442.808"/>
<polygon fill="#757575" stroke="#757575" points="2942.71,-446.161 2951.31,-439.973 2940.72,-439.447 2942.71,-446.161"/>
</g>
<!-- symbols/lowerBody.js -->
<g id="node53" class="node"><title>symbols/lowerBody.js</title>
<path fill="none" stroke="#c6c5fe" d="M3079.33,-407.5C3079.33,-407.5 2939.67,-407.5 2939.67,-407.5 2935.83,-407.5 2932,-403.667 2932,-399.834 2932,-399.834 2932,-392.167 2932,-392.167 2932,-388.334 2935.83,-384.5 2939.67,-384.5 2939.67,-384.5 3079.33,-384.5 3079.33,-384.5 3083.17,-384.5 3087,-388.334 3087,-392.167 3087,-392.167 3087,-399.834 3087,-399.834 3087,-403.667 3083.17,-407.5 3079.33,-407.5"/>
<text text-anchor="middle" x="3009.5" y="-392.3" font-family="Arial" font-size="14.00" fill="#c6c5fe">symbols/lowerBody.js</text>
</g>
<!-- store/initialState.js&#45;&gt;symbols/lowerBody.js -->
<g id="edge80" class="edge"><title>store/initialState.js&#45;&gt;symbols/lowerBody.js</title>
<path fill="none" stroke="#757575" d="M2853.82,-592.249C2863.99,-588.356 2873.58,-582.828 2881,-575 2930.86,-522.433 2865.58,-467.043 2917,-416 2918.92,-414.096 2920.97,-412.355 2923.14,-410.763"/>
<polygon fill="#757575" stroke="#757575" points="2925.29,-413.549 2931.99,-405.34 2921.64,-407.581 2925.29,-413.549"/>
</g>
<!-- symbols/skin.js -->
<g id="node54" class="node"><title>symbols/skin.js</title>
<path fill="none" stroke="#c6c5fe" d="M3058.33,-694.5C3058.33,-694.5 2960.67,-694.5 2960.67,-694.5 2956.83,-694.5 2953,-690.667 2953,-686.834 2953,-686.834 2953,-679.167 2953,-679.167 2953,-675.334 2956.83,-671.5 2960.67,-671.5 2960.67,-671.5 3058.33,-671.5 3058.33,-671.5 3062.17,-671.5 3066,-675.334 3066,-679.167 3066,-679.167 3066,-686.834 3066,-686.834 3066,-690.667 3062.17,-694.5 3058.33,-694.5"/>
<text text-anchor="middle" x="3009.5" y="-679.3" font-family="Arial" font-size="14.00" fill="#c6c5fe">symbols/skin.js</text>
</g>
<!-- store/initialState.js&#45;&gt;symbols/skin.js -->
<g id="edge81" class="edge"><title>store/initialState.js&#45;&gt;symbols/skin.js</title>
<path fill="none" stroke="#757575" d="M2809.69,-612.606C2834.51,-626.116 2877.71,-648.317 2917,-662 2925.28,-664.883 2934.11,-667.481 2942.91,-669.787"/>
<polygon fill="#757575" stroke="#757575" points="2942.24,-673.227 2952.79,-672.265 2943.94,-666.437 2942.24,-673.227"/>
</g>
<!-- symbols/tail.js -->
<g id="node55" class="node"><title>symbols/tail.js</title>
<path fill="none" stroke="#c6c5fe" d="M3054.33,-653.5C3054.33,-653.5 2964.67,-653.5 2964.67,-653.5 2960.83,-653.5 2957,-649.667 2957,-645.834 2957,-645.834 2957,-638.167 2957,-638.167 2957,-634.334 2960.83,-630.5 2964.67,-630.5 2964.67,-630.5 3054.33,-630.5 3054.33,-630.5 3058.17,-630.5 3062,-634.334 3062,-638.167 3062,-638.167 3062,-645.834 3062,-645.834 3062,-649.667 3058.17,-653.5 3054.33,-653.5"/>
<text text-anchor="middle" x="3009.5" y="-638.3" font-family="Arial" font-size="14.00" fill="#c6c5fe">symbols/tail.js</text>
</g>
<!-- store/initialState.js&#45;&gt;symbols/tail.js -->
<g id="edge82" class="edge"><title>store/initialState.js&#45;&gt;symbols/tail.js</title>
<path fill="none" stroke="#757575" d="M2850.73,-612.53C2880.8,-618.148 2916.87,-624.886 2946.93,-630.499"/>
<polygon fill="#757575" stroke="#757575" points="2946.4,-633.961 2956.87,-632.357 2947.68,-627.08 2946.4,-633.961"/>
</g>
<!-- symbols/tongue.js -->
<g id="node56" class="node"><title>symbols/tongue.js</title>
<path fill="none" stroke="#c6c5fe" d="M3067.33,-612.5C3067.33,-612.5 2951.67,-612.5 2951.67,-612.5 2947.83,-612.5 2944,-608.667 2944,-604.834 2944,-604.834 2944,-597.167 2944,-597.167 2944,-593.334 2947.83,-589.5 2951.67,-589.5 2951.67,-589.5 3067.33,-589.5 3067.33,-589.5 3071.17,-589.5 3075,-593.334 3075,-597.167 3075,-597.167 3075,-604.834 3075,-604.834 3075,-608.667 3071.17,-612.5 3067.33,-612.5"/>
<text text-anchor="middle" x="3009.5" y="-597.3" font-family="Arial" font-size="14.00" fill="#c6c5fe">symbols/tongue.js</text>
</g>
<!-- store/initialState.js&#45;&gt;symbols/tongue.js -->
<g id="edge83" class="edge"><title>store/initialState.js&#45;&gt;symbols/tongue.js</title>
<path fill="none" stroke="#757575" d="M2853.67,-601C2878.79,-601 2907.72,-601 2933.73,-601"/>
<polygon fill="#757575" stroke="#757575" points="2933.91,-604.501 2943.91,-601 2933.91,-597.501 2933.91,-604.501"/>
</g>
<!-- symbols/wings.js -->
<g id="node57" class="node"><title>symbols/wings.js</title>
<path fill="none" stroke="#c6c5fe" d="M3063.83,-571.5C3063.83,-571.5 2955.17,-571.5 2955.17,-571.5 2951.33,-571.5 2947.5,-567.667 2947.5,-563.834 2947.5,-563.834 2947.5,-556.167 2947.5,-556.167 2947.5,-552.334 2951.33,-548.5 2955.17,-548.5 2955.17,-548.5 3063.83,-548.5 3063.83,-548.5 3067.67,-548.5 3071.5,-552.334 3071.5,-556.167 3071.5,-556.167 3071.5,-563.834 3071.5,-563.834 3071.5,-567.667 3067.67,-571.5 3063.83,-571.5"/>
<text text-anchor="middle" x="3009.5" y="-556.3" font-family="Arial" font-size="14.00" fill="#c6c5fe">symbols/wings.js</text>
</g>
<!-- store/initialState.js&#45;&gt;symbols/wings.js -->
<g id="edge84" class="edge"><title>store/initialState.js&#45;&gt;symbols/wings.js</title>
<path fill="none" stroke="#757575" d="M2850.73,-589.471C2877.61,-584.45 2909.27,-578.535 2937.15,-573.328"/>
<polygon fill="#757575" stroke="#757575" points="2938.05,-576.721 2947.24,-571.444 2936.76,-569.84 2938.05,-576.721"/>
</g>
<!-- scenes/charCreation.js&#45;&gt;actions/Core.js -->
<g id="edge50" class="edge"><title>scenes/charCreation.js&#45;&gt;actions/Core.js</title>
<path fill="none" stroke="#757575" d="M1366.78,-708.285C1378.82,-677.169 1416.19,-592.227 1478,-554 1504.36,-537.696 1932.93,-482.788 2098.72,-462.035"/>
<polygon fill="#757575" stroke="#757575" points="2099.3,-465.49 2108.78,-460.777 2098.43,-458.545 2099.3,-465.49"/>
</g>
<!-- scenes/charCreation.js&#45;&gt;store/store.js -->
<g id="edge56" class="edge"><title>scenes/charCreation.js&#45;&gt;store/store.js</title>
<path fill="none" stroke="#757575" d="M1368.38,-708.447C1382.8,-681.514 1422.81,-614.745 1478,-587 1577.56,-536.954 1616.57,-568 1728,-568 1728,-568 1728,-568 1947,-568 2085.19,-568 2128.52,-594.884 2257,-544 2295.87,-528.607 2331.84,-494.798 2352.06,-473.281"/>
<polygon fill="#757575" stroke="#757575" points="2354.83,-475.437 2359.01,-465.701 2349.67,-470.707 2354.83,-475.437"/>
</g>
<!-- scenes/charCreation.js&#45;&gt;actions/Player.js -->
<g id="edge51" class="edge"><title>scenes/charCreation.js&#45;&gt;actions/Player.js</title>
<path fill="none" stroke="#757575" d="M1432.3,-731.511C1435.64,-732.847 1438.9,-734.338 1442,-736 1461.94,-746.689 1457.67,-762.066 1478,-772 1701.61,-881.273 1787.67,-835.483 2036,-819 2055.17,-817.728 2075.86,-815.391 2094.87,-812.848"/>
<polygon fill="#757575" stroke="#757575" points="2095.52,-816.292 2104.95,-811.462 2094.56,-809.358 2095.52,-816.292"/>
</g>
<!-- scenes/charCreation.js&#45;&gt;symbols/breastCup.js -->
<g id="edge57" class="edge"><title>scenes/charCreation.js&#45;&gt;symbols/breastCup.js</title>
<path fill="none" stroke="#757575" d="M1441.59,-731.522C1453.76,-732.932 1466.2,-734.168 1478,-735 1741.36,-753.589 1807.99,-740.445 2072,-742 2154.22,-742.485 2175.13,-749.609 2257,-742 2266.35,-741.131 2284.17,-738.018 2302.9,-734.445"/>
<polygon fill="#757575" stroke="#757575" points="2303.57,-737.879 2312.73,-732.544 2302.25,-731.006 2303.57,-737.879"/>
</g>
<!-- scenes/charCreation.js&#45;&gt;appearance/appearance.js -->
<g id="edge52" class="edge"><title>scenes/charCreation.js&#45;&gt;appearance/appearance.js</title>
<path fill="none" stroke="#757575" d="M1442.23,-720.2C1588.6,-720.565 1899.91,-721.342 2061.46,-721.746"/>
<polygon fill="#757575" stroke="#757575" points="2061.87,-725.247 2071.88,-721.772 2061.89,-718.247 2061.87,-725.247"/>
</g>
<!-- scenes/charCreation.js&#45;&gt;symbols/gender.js -->
<g id="edge59" class="edge"><title>scenes/charCreation.js&#45;&gt;symbols/gender.js</title>
<path fill="none" stroke="#757575" d="M1442.32,-716.828C1631.93,-709.293 2107.35,-690.399 2293.02,-683.02"/>
<polygon fill="#757575" stroke="#757575" points="2293.39,-686.508 2303.24,-682.614 2293.11,-679.514 2293.39,-686.508"/>
</g>
<!-- scenes/charCreation.js&#45;&gt;scenes/menus.js -->
<g id="edge53" class="edge"><title>scenes/charCreation.js&#45;&gt;scenes/menus.js</title>
<path fill="none" stroke="#757575" d="M1421.84,-731.6C1429.41,-735.186 1436.43,-739.873 1442,-746 1491.3,-800.278 1431.11,-850.635 1478,-907 1480.94,-910.531 1484.44,-913.592 1488.26,-916.245"/>
<polygon fill="#757575" stroke="#757575" points="1486.65,-919.356 1497.04,-921.424 1490.2,-913.327 1486.65,-919.356"/>
</g>
<!-- scenes/charCreation.js&#45;&gt;scenes/sceneSymbols.js -->
<g id="edge54" class="edge"><title>scenes/charCreation.js&#45;&gt;scenes/sceneSymbols.js</title>
<path fill="none" stroke="#757575" d="M1386.45,-731.599C1404.55,-741.627 1428.51,-757.842 1442,-779 1484.69,-845.955 1420.52,-899.219 1478,-954 1559.41,-1031.58 1615.55,-993 1728,-993 1728,-993 1728,-993 2572,-993 2691.02,-993 2827.62,-978.805 2915.84,-967.766"/>
<polygon fill="#757575" stroke="#757575" points="2916.34,-971.231 2925.82,-966.505 2915.46,-964.286 2916.34,-971.231"/>
</g>
<!-- scenes/sceneTextStore.js -->
<g id="node43" class="node"><title>scenes/sceneTextStore.js</title>
<path fill="none" stroke="#c6c5fe" d="M1812.33,-926.5C1812.33,-926.5 1645.67,-926.5 1645.67,-926.5 1641.83,-926.5 1638,-922.667 1638,-918.834 1638,-918.834 1638,-911.167 1638,-911.167 1638,-907.334 1641.83,-903.5 1645.67,-903.5 1645.67,-903.5 1812.33,-903.5 1812.33,-903.5 1816.17,-903.5 1820,-907.334 1820,-911.167 1820,-911.167 1820,-918.834 1820,-918.834 1820,-922.667 1816.17,-926.5 1812.33,-926.5"/>
<text text-anchor="middle" x="1729" y="-911.3" font-family="Arial" font-size="14.00" fill="#c6c5fe">scenes/sceneTextStore.js</text>
</g>
<!-- scenes/charCreation.js&#45;&gt;scenes/sceneTextStore.js -->
<g id="edge55" class="edge"><title>scenes/charCreation.js&#45;&gt;scenes/sceneTextStore.js</title>
<path fill="none" stroke="#757575" d="M1420.66,-731.588C1428.58,-735.171 1436.02,-739.861 1442,-746 1481.14,-786.204 1436.4,-829.348 1478,-867 1500.07,-886.976 1568.13,-899.22 1627.68,-906.338"/>
<polygon fill="#757575" stroke="#757575" points="1627.58,-909.85 1637.92,-907.523 1628.39,-902.896 1627.58,-909.85"/>
</g>
<!-- symbols/butt.js -->
<g id="node44" class="node"><title>symbols/butt.js</title>
<path fill="none" stroke="#c6c5fe" d="M1776.83,-885.5C1776.83,-885.5 1681.17,-885.5 1681.17,-885.5 1677.33,-885.5 1673.5,-881.667 1673.5,-877.834 1673.5,-877.834 1673.5,-870.167 1673.5,-870.167 1673.5,-866.334 1677.33,-862.5 1681.17,-862.5 1681.17,-862.5 1776.83,-862.5 1776.83,-862.5 1780.67,-862.5 1784.5,-866.334 1784.5,-870.167 1784.5,-870.167 1784.5,-877.834 1784.5,-877.834 1784.5,-881.667 1780.67,-885.5 1776.83,-885.5"/>
<text text-anchor="middle" x="1729" y="-870.3" font-family="Arial" font-size="14.00" fill="#c6c5fe">symbols/butt.js</text>
</g>
<!-- scenes/charCreation.js&#45;&gt;symbols/butt.js -->
<g id="edge58" class="edge"><title>scenes/charCreation.js&#45;&gt;symbols/butt.js</title>
<path fill="none" stroke="#757575" d="M1418.85,-731.669C1427.29,-735.243 1435.37,-739.909 1442,-746 1472.21,-773.759 1445.85,-805.516 1478,-831 1530.28,-872.443 1608.23,-879.895 1663.16,-879.073"/>
<polygon fill="#757575" stroke="#757575" points="1663.57,-882.564 1673.48,-878.818 1663.4,-875.567 1663.57,-882.564"/>
</g>
<!-- symbols/hips.js -->
<g id="node45" class="node"><title>symbols/hips.js</title>
<path fill="none" stroke="#c6c5fe" d="M1589.33,-619.5C1589.33,-619.5 1490.67,-619.5 1490.67,-619.5 1486.83,-619.5 1483,-615.667 1483,-611.834 1483,-611.834 1483,-604.167 1483,-604.167 1483,-600.334 1486.83,-596.5 1490.67,-596.5 1490.67,-596.5 1589.33,-596.5 1589.33,-596.5 1593.17,-596.5 1597,-600.334 1597,-604.167 1597,-604.167 1597,-611.834 1597,-611.834 1597,-615.667 1593.17,-619.5 1589.33,-619.5"/>
<text text-anchor="middle" x="1540" y="-604.3" font-family="Arial" font-size="14.00" fill="#c6c5fe">symbols/hips.js</text>
</g>
<!-- scenes/charCreation.js&#45;&gt;symbols/hips.js -->
<g id="edge60" class="edge"><title>scenes/charCreation.js&#45;&gt;symbols/hips.js</title>
<path fill="none" stroke="#757575" d="M1375.98,-708.279C1396.81,-690.572 1438.55,-656.667 1478,-634 1484.45,-630.294 1491.53,-626.802 1498.51,-623.653"/>
<polygon fill="#757575" stroke="#757575" points="1500.12,-626.771 1507.91,-619.582 1497.34,-620.348 1500.12,-626.771"/>
</g>
<!-- scenes/menus.js&#45;&gt;actions/Core.js -->
<g id="edge64" class="edge"><title>scenes/menus.js&#45;&gt;actions/Core.js</title>
<path fill="none" stroke="#757575" d="M1555.02,-921.341C1573.78,-905.797 1608.14,-877.515 1638,-854 1829.3,-703.36 2064.84,-527.382 2139.58,-471.771"/>
<polygon fill="#757575" stroke="#757575" points="2141.95,-474.372 2147.88,-465.596 2137.77,-468.755 2141.95,-474.372"/>
</g>
<!-- scenes/menus.js&#45;&gt;scenes/sceneSymbols.js -->
<g id="edge65" class="edge"><title>scenes/menus.js&#45;&gt;scenes/sceneSymbols.js</title>
<path fill="none" stroke="#757575" d="M1602.2,-938.41C1681.29,-944.924 1823.3,-955 1945,-955 1945,-955 1945,-955 2572,-955 2688.57,-955 2822.65,-955 2911.11,-955"/>
<polygon fill="#757575" stroke="#757575" points="2911.13,-958.501 2921.13,-955 2911.13,-951.501 2911.13,-958.501"/>
</g>
<!-- scenes/menus.js&#45;&gt;scenes/sceneTextStore.js -->
<g id="edge66" class="edge"><title>scenes/menus.js&#45;&gt;scenes/sceneTextStore.js</title>
<path fill="none" stroke="#757575" d="M1602.23,-927.107C1610.42,-926.318 1618.99,-925.493 1627.64,-924.661"/>
<polygon fill="#757575" stroke="#757575" points="1628.19,-928.124 1637.81,-923.682 1627.52,-921.156 1628.19,-928.124"/>
</g>
<!-- scenes/sceneTextStore.js&#45;&gt;components/nameInput.js -->
<g id="edge74" class="edge"><title>scenes/sceneTextStore.js&#45;&gt;components/nameInput.js</title>
<path fill="none" stroke="#757575" d="M1797.45,-903.461C1805.22,-901.128 1812.9,-898.336 1820,-895 1862.25,-875.144 1903.5,-838.898 1926.45,-816.777"/>
<polygon fill="#757575" stroke="#757575" points="1929.09,-819.093 1933.78,-809.592 1924.19,-814.095 1929.09,-819.093"/>
</g>
<!-- scenes/sceneTextStore.js&#45;&gt;scenes/sceneSymbols.js -->
<g id="edge75" class="edge"><title>scenes/sceneTextStore.js&#45;&gt;scenes/sceneSymbols.js</title>
<path fill="none" stroke="#757575" d="M1820.08,-915.658C1907.76,-916.241 2044.78,-917 2163.5,-917 2163.5,-917 2163.5,-917 2572,-917 2691.02,-917 2827.62,-931.196 2915.84,-942.235"/>
<polygon fill="#757575" stroke="#757575" points="2915.46,-945.715 2925.82,-943.496 2916.34,-938.77 2915.46,-945.715"/>
</g>
<!-- symbols/butt.js&#45;&gt;utils.js -->
<g id="edge87" class="edge"><title>symbols/butt.js&#45;&gt;utils.js</title>
<path fill="none" stroke="#757575" d="M1784.74,-875.036C1866.97,-876.501 2027.27,-879 2163.5,-879 2163.5,-879 2163.5,-879 2789,-879 2928.88,-879 2996.11,-937.4 3102,-846 3136.07,-816.597 3155.96,-677.278 3162.55,-622.856"/>
<polygon fill="#757575" stroke="#757575" points="3166.06,-622.941 3163.75,-612.601 3159.11,-622.125 3166.06,-622.941"/>
</g>
<!-- symbols/hips.js&#45;&gt;utils.js -->
<g id="edge91" class="edge"><title>symbols/hips.js&#45;&gt;utils.js</title>
<path fill="none" stroke="#757575" d="M1597.24,-610.439C1739.6,-616.771 2125.73,-634.928 2447,-659 2656.22,-674.677 2707.43,-693.212 2917,-703 2999.13,-706.837 3030.19,-743.05 3102,-703 3132.72,-685.868 3150.33,-646.906 3158.76,-622.402"/>
<polygon fill="#757575" stroke="#757575" points="3162.19,-623.181 3161.91,-612.59 3155.52,-621.042 3162.19,-623.181"/>
</g>
<!-- scenes/combat/combat.js&#45;&gt;actions/Core.js -->
<g id="edge61" class="edge"><title>scenes/combat/combat.js&#45;&gt;actions/Core.js</title>
<path fill="none" stroke="#757575" d="M2009.33,-425.516C2037.37,-430.696 2070.45,-436.808 2098.76,-442.04"/>
<polygon fill="#757575" stroke="#757575" points="2098.49,-445.549 2108.96,-443.924 2099.76,-438.665 2098.49,-445.549"/>
</g>
<!-- scenes/combat/combat.js&#45;&gt;store/store.js -->
<g id="edge63" class="edge"><title>scenes/combat/combat.js&#45;&gt;store/store.js</title>
<path fill="none" stroke="#757575" d="M2035.8,-416.517C2097.92,-418.992 2182.75,-423.801 2257,-433 2274.48,-435.166 2293.35,-438.365 2310.52,-441.617"/>
<polygon fill="#757575" stroke="#757575" points="2309.93,-445.068 2320.42,-443.531 2311.26,-438.196 2309.93,-445.068"/>
</g>
<!-- scenes/combat/combat.js&#45;&gt;actions/Enemy.js -->
<g id="edge62" class="edge"><title>scenes/combat/combat.js&#45;&gt;actions/Enemy.js</title>
<path fill="none" stroke="#757575" d="M1978.48,-402.368C2016.59,-388.286 2080.85,-364.54 2122.72,-349.069"/>
<polygon fill="#757575" stroke="#757575" points="2124.17,-352.267 2132.33,-345.517 2121.74,-345.701 2124.17,-352.267"/>
</g>
<!-- setupTests.js -->
<g id="node48" class="node"><title>setupTests.js</title>
<path fill="none" stroke="#cfffac" d="M112.333,-495.5C112.333,-495.5 25.6667,-495.5 25.6667,-495.5 21.8333,-495.5 18,-491.667 18,-487.834 18,-487.834 18,-480.167 18,-480.167 18,-476.334 21.8333,-472.5 25.6667,-472.5 25.6667,-472.5 112.333,-472.5 112.333,-472.5 116.167,-472.5 120,-476.334 120,-480.167 120,-480.167 120,-487.834 120,-487.834 120,-491.667 116.167,-495.5 112.333,-495.5"/>
<text text-anchor="middle" x="69" y="-480.3" font-family="Arial" font-size="14.00" fill="#cfffac">setupTests.js</text>
</g>
<!-- store/gameFlags.js -->
<g id="node49" class="node"><title>store/gameFlags.js</title>
<path fill="none" stroke="#cfffac" d="M130.333,-536.5C130.333,-536.5 7.66667,-536.5 7.66667,-536.5 3.83333,-536.5 0,-532.667 0,-528.834 0,-528.834 0,-521.167 0,-521.167 0,-517.334 3.83333,-513.5 7.66667,-513.5 7.66667,-513.5 130.333,-513.5 130.333,-513.5 134.167,-513.5 138,-517.334 138,-521.167 138,-521.167 138,-528.834 138,-528.834 138,-532.667 134.167,-536.5 130.333,-536.5"/>
<text text-anchor="middle" x="69" y="-521.3" font-family="Arial" font-size="14.00" fill="#cfffac">store/gameFlags.js</text>
</g>
<!-- symbols/face.js&#45;&gt;utils.js -->
<g id="edge88" class="edge"><title>symbols/face.js&#45;&gt;utils.js</title>
<path fill="none" stroke="#757575" d="M3067.92,-526.384C3079.64,-529.293 3091.56,-533.348 3102,-539 3121.22,-549.409 3138.56,-567.428 3150.15,-581.368"/>
<polygon fill="#757575" stroke="#757575" points="3147.62,-583.798 3156.6,-589.415 3153.08,-579.422 3147.62,-583.798"/>
</g>
<!-- symbols/gear.js&#45;&gt;utils.js -->
<g id="edge89" class="edge"><title>symbols/gear.js&#45;&gt;utils.js</title>
<path fill="none" stroke="#757575" d="M3067.95,-441.017C3080.18,-444.089 3092.32,-449.062 3102,-457 3140.13,-488.265 3155.82,-547.136 3161.75,-579.066"/>
<polygon fill="#757575" stroke="#757575" points="3158.34,-579.874 3163.46,-589.147 3165.24,-578.702 3158.34,-579.874"/>
</g>
<!-- symbols/lowerBody.js&#45;&gt;utils.js -->
<g id="edge92" class="edge"><title>symbols/lowerBody.js&#45;&gt;utils.js</title>
<path fill="none" stroke="#757575" d="M3087.41,-406.287C3092.69,-408.904 3097.63,-412.102 3102,-416 3150.14,-458.987 3161.52,-540.236 3164.19,-579.15"/>
<polygon fill="#757575" stroke="#757575" points="3160.71,-579.567 3164.76,-589.359 3167.7,-579.181 3160.71,-579.567"/>
</g>
<!-- symbols/skin.js&#45;&gt;utils.js -->
<g id="edge94" class="edge"><title>symbols/skin.js&#45;&gt;utils.js</title>
<path fill="none" stroke="#757575" d="M3066.45,-675.22C3078.63,-672.163 3091.11,-667.911 3102,-662 3120.84,-651.773 3138.01,-634.347 3149.65,-620.732"/>
<polygon fill="#757575" stroke="#757575" points="3152.49,-622.789 3156.15,-612.846 3147.09,-618.337 3152.49,-622.789"/>
</g>
<!-- symbols/tail.js&#45;&gt;utils.js -->
<g id="edge95" class="edge"><title>symbols/tail.js&#45;&gt;utils.js</title>
<path fill="none" stroke="#757575" d="M3062.46,-630.851C3075.43,-627.856 3089.26,-624.477 3102,-621 3110.51,-618.676 3119.6,-615.944 3128.14,-613.257"/>
<polygon fill="#757575" stroke="#757575" points="3129.4,-616.531 3137.86,-610.153 3127.26,-609.863 3129.4,-616.531"/>
</g>
<!-- symbols/tongue.js&#45;&gt;utils.js -->
<g id="edge96" class="edge"><title>symbols/tongue.js&#45;&gt;utils.js</title>
<path fill="none" stroke="#757575" d="M3075.13,-601C3093,-601 3111.8,-601 3127.55,-601"/>
<polygon fill="#757575" stroke="#757575" points="3127.93,-604.501 3137.93,-601 3127.93,-597.501 3127.93,-604.501"/>
</g>
<!-- symbols/wings.js&#45;&gt;utils.js -->
<g id="edge98" class="edge"><title>symbols/wings.js&#45;&gt;utils.js</title>
<path fill="none" stroke="#757575" d="M3067.84,-571.551C3079.21,-574.118 3091.03,-576.981 3102,-580 3110.55,-582.352 3119.65,-585.187 3128.19,-588.001"/>
<polygon fill="#757575" stroke="#757575" points="3127.31,-591.397 3137.91,-591.265 3129.54,-584.762 3127.31,-591.397"/>
</g>
</g>
</svg>
