<?xml version="1.0" encoding="UTF-8" standalone="no"?>
<!DOCTYPE svg PUBLIC "-//W3C//DTD SVG 1.1//EN"
 "http://www.w3.org/Graphics/SVG/1.1/DTD/svg11.dtd">
<!-- Generated by graphviz version 2.38.0 (20140413.2041)
 -->
<!-- Title: G Pages: 1 -->
<svg width="1218pt" height="354pt"
 viewBox="0.00 0.00 1218.20 354.20" xmlns="http://www.w3.org/2000/svg" xmlns:xlink="http://www.w3.org/1999/xlink">
<g id="graph0" class="graph" transform="scale(1 1) rotate(0) translate(21.6 332.6)">
<title>G</title>
<polygon fill="#111111" stroke="none" points="-21.6,21.6 -21.6,-332.6 1196.6,-332.6 1196.6,21.6 -21.6,21.6"/>
<!-- actions/UI.js -->
<g id="node1" class="node"><title>actions/UI.js</title>
<path fill="none" stroke="#cfffac" d="M1138.33,-185C1138.33,-185 1059.67,-185 1059.67,-185 1055.83,-185 1052,-181.167 1052,-177.333 1052,-177.333 1052,-169.667 1052,-169.667 1052,-165.833 1055.83,-162 1059.67,-162 1059.67,-162 1138.33,-162 1138.33,-162 1142.17,-162 1146,-165.833 1146,-169.667 1146,-169.667 1146,-177.333 1146,-177.333 1146,-181.167 1142.17,-185 1138.33,-185"/>
<text text-anchor="middle" x="1099" y="-169.8" font-family="Arial" font-size="14.00" fill="#cfffac">actions/UI.js</text>
</g>
<!-- actions/UI.test.js -->
<g id="node2" class="node"><title>actions/UI.test.js</title>
<path fill="none" stroke="#c6c5fe" d="M946.333,-185C946.333,-185 840.667,-185 840.667,-185 836.833,-185 833,-181.167 833,-177.333 833,-177.333 833,-169.667 833,-169.667 833,-165.833 836.833,-162 840.667,-162 840.667,-162 946.333,-162 946.333,-162 950.167,-162 954,-165.833 954,-169.667 954,-169.667 954,-177.333 954,-177.333 954,-181.167 950.167,-185 946.333,-185"/>
<text text-anchor="middle" x="893.5" y="-169.8" font-family="Arial" font-size="14.00" fill="#c6c5fe">actions/UI.test.js</text>
</g>
<!-- actions/UI.test.js&#45;&gt;actions/UI.js -->
<g id="edge1" class="edge"><title>actions/UI.test.js&#45;&gt;actions/UI.js</title>
<path fill="none" stroke="#757575" d="M954.182,-173.5C981.844,-173.5 1014.54,-173.5 1041.76,-173.5"/>
<polygon fill="#757575" stroke="#757575" points="1041.91,-177 1051.91,-173.5 1041.91,-170 1041.91,-177"/>
</g>
<!-- components/appRoot.js -->
<g id="node3" class="node"><title>components/appRoot.js</title>
<path fill="none" stroke="#c6c5fe" d="M261.333,-194C261.333,-194 108.667,-194 108.667,-194 104.833,-194 101,-190.167 101,-186.333 101,-186.333 101,-178.667 101,-178.667 101,-174.833 104.833,-171 108.667,-171 108.667,-171 261.333,-171 261.333,-171 265.167,-171 269,-174.833 269,-178.667 269,-178.667 269,-186.333 269,-186.333 269,-190.167 265.167,-194 261.333,-194"/>
<text text-anchor="middle" x="185" y="-178.8" font-family="Arial" font-size="14.00" fill="#c6c5fe">components/appRoot.js</text>
</g>
<!-- components/lowerButtons.js -->
<g id="node4" class="node"><title>components/lowerButtons.js</title>
<path fill="none" stroke="#c6c5fe" d="M492.333,-153C492.333,-153 312.667,-153 312.667,-153 308.833,-153 305,-149.167 305,-145.333 305,-145.333 305,-137.667 305,-137.667 305,-133.833 308.833,-130 312.667,-130 312.667,-130 492.333,-130 492.333,-130 496.167,-130 500,-133.833 500,-137.667 500,-137.667 500,-145.333 500,-145.333 500,-149.167 496.167,-153 492.333,-153"/>
<text text-anchor="middle" x="402.5" y="-137.8" font-family="Arial" font-size="14.00" fill="#c6c5fe">components/lowerButtons.js</text>
</g>
<!-- components/appRoot.js&#45;&gt;components/lowerButtons.js -->
<g id="edge2" class="edge"><title>components/appRoot.js&#45;&gt;components/lowerButtons.js</title>
<path fill="none" stroke="#757575" d="M246.602,-170.97C272.88,-165.971 303.817,-160.085 331.106,-154.893"/>
<polygon fill="#757575" stroke="#757575" points="331.81,-158.322 340.98,-153.014 330.502,-151.445 331.81,-158.322"/>
</g>
<!-- components/menuBar.js -->
<g id="node5" class="node"><title>components/menuBar.js</title>
<path fill="none" stroke="#c6c5fe" d="M479.833,-194C479.833,-194 325.167,-194 325.167,-194 321.333,-194 317.5,-190.167 317.5,-186.333 317.5,-186.333 317.5,-178.667 317.5,-178.667 317.5,-174.833 321.333,-171 325.167,-171 325.167,-171 479.833,-171 479.833,-171 483.667,-171 487.5,-174.833 487.5,-178.667 487.5,-178.667 487.5,-186.333 487.5,-186.333 487.5,-190.167 483.667,-194 479.833,-194"/>
<text text-anchor="middle" x="402.5" y="-178.8" font-family="Arial" font-size="14.00" fill="#c6c5fe">components/menuBar.js</text>
</g>
<!-- components/appRoot.js&#45;&gt;components/menuBar.js -->
<g id="edge3" class="edge"><title>components/appRoot.js&#45;&gt;components/menuBar.js</title>
<path fill="none" stroke="#757575" d="M269.01,-182.5C281.546,-182.5 294.556,-182.5 307.307,-182.5"/>
<polygon fill="#757575" stroke="#757575" points="307.465,-186 317.465,-182.5 307.465,-179 307.465,-186"/>
</g>
<!-- components/output.js -->
<g id="node6" class="node"><title>components/output.js</title>
<path fill="none" stroke="#cfffac" d="M470.833,-276C470.833,-276 334.167,-276 334.167,-276 330.333,-276 326.5,-272.167 326.5,-268.333 326.5,-268.333 326.5,-260.667 326.5,-260.667 326.5,-256.833 330.333,-253 334.167,-253 334.167,-253 470.833,-253 470.833,-253 474.667,-253 478.5,-256.833 478.5,-260.667 478.5,-260.667 478.5,-268.333 478.5,-268.333 478.5,-272.167 474.667,-276 470.833,-276"/>
<text text-anchor="middle" x="402.5" y="-260.8" font-family="Arial" font-size="14.00" fill="#cfffac">components/output.js</text>
</g>
<!-- components/appRoot.js&#45;&gt;components/output.js -->
<g id="edge4" class="edge"><title>components/appRoot.js&#45;&gt;components/output.js</title>
<path fill="none" stroke="#757575" d="M204.235,-194.044C226.986,-207.957 267.476,-231.128 305,-244.5 311.029,-246.648 317.356,-248.596 323.766,-250.356"/>
<polygon fill="#757575" stroke="#757575" points="323.317,-253.855 333.875,-252.968 325.069,-247.077 323.317,-253.855"/>
</g>
<!-- components/statBar.js -->
<g id="node7" class="node"><title>components/statBar.js</title>
<path fill="none" stroke="#c6c5fe" d="M473.833,-235C473.833,-235 331.167,-235 331.167,-235 327.333,-235 323.5,-231.167 323.5,-227.333 323.5,-227.333 323.5,-219.667 323.5,-219.667 323.5,-215.833 327.333,-212 331.167,-212 331.167,-212 473.833,-212 473.833,-212 477.667,-212 481.5,-215.833 481.5,-219.667 481.5,-219.667 481.5,-227.333 481.5,-227.333 481.5,-231.167 477.667,-235 473.833,-235"/>
<text text-anchor="middle" x="402.5" y="-219.8" font-family="Arial" font-size="14.00" fill="#c6c5fe">components/statBar.js</text>
</g>
<!-- components/appRoot.js&#45;&gt;components/statBar.js -->
<g id="edge5" class="edge"><title>components/appRoot.js&#45;&gt;components/statBar.js</title>
<path fill="none" stroke="#757575" d="M246.602,-194.03C272.88,-199.029 303.817,-204.915 331.106,-210.107"/>
<polygon fill="#757575" stroke="#757575" points="330.502,-213.555 340.98,-211.986 331.81,-206.678 330.502,-213.555"/>
</g>
<!-- components/buttonGrid.js -->
<g id="node9" class="node"><title>components/buttonGrid.js</title>
<path fill="none" stroke="#c6c5fe" d="M731.833,-188C731.833,-188 568.167,-188 568.167,-188 564.333,-188 560.5,-184.167 560.5,-180.333 560.5,-180.333 560.5,-172.667 560.5,-172.667 560.5,-168.833 564.333,-165 568.167,-165 568.167,-165 731.833,-165 731.833,-165 735.667,-165 739.5,-168.833 739.5,-172.667 739.5,-172.667 739.5,-180.333 739.5,-180.333 739.5,-184.167 735.667,-188 731.833,-188"/>
<text text-anchor="middle" x="650" y="-172.8" font-family="Arial" font-size="14.00" fill="#c6c5fe">components/buttonGrid.js</text>
</g>
<!-- components/lowerButtons.js&#45;&gt;components/buttonGrid.js -->
<g id="edge9" class="edge"><title>components/lowerButtons.js&#45;&gt;components/buttonGrid.js</title>
<path fill="none" stroke="#757575" d="M484.226,-153.009C507.932,-156.388 534.017,-160.107 558.301,-163.569"/>
<polygon fill="#757575" stroke="#757575" points="557.832,-167.038 568.226,-164.984 558.82,-160.108 557.832,-167.038"/>
</g>
<!-- components/menuBar.js&#45;&gt;components/buttonGrid.js -->
<g id="edge10" class="edge"><title>components/menuBar.js&#45;&gt;components/buttonGrid.js</title>
<path fill="none" stroke="#757575" d="M487.644,-180.444C507.803,-179.951 529.508,-179.42 550.261,-178.913"/>
<polygon fill="#757575" stroke="#757575" points="550.45,-182.41 560.361,-178.666 550.279,-175.412 550.45,-182.41"/>
</g>
<!-- components/spriteDisplay.js -->
<g id="node11" class="node"><title>components/spriteDisplay.js</title>
<path fill="none" stroke="#cfffac" d="M739.833,-229C739.833,-229 560.167,-229 560.167,-229 556.333,-229 552.5,-225.167 552.5,-221.333 552.5,-221.333 552.5,-213.667 552.5,-213.667 552.5,-209.833 556.333,-206 560.167,-206 560.167,-206 739.833,-206 739.833,-206 743.667,-206 747.5,-209.833 747.5,-213.667 747.5,-213.667 747.5,-221.333 747.5,-221.333 747.5,-225.167 743.667,-229 739.833,-229"/>
<text text-anchor="middle" x="650" y="-213.8" font-family="Arial" font-size="14.00" fill="#cfffac">components/spriteDisplay.js</text>
</g>
<!-- components/statBar.js&#45;&gt;components/spriteDisplay.js -->
<g id="edge11" class="edge"><title>components/statBar.js&#45;&gt;components/spriteDisplay.js</title>
<path fill="none" stroke="#757575" d="M481.515,-221.593C500.733,-221.124 521.645,-220.613 541.972,-220.116"/>
<polygon fill="#757575" stroke="#757575" points="542.303,-223.609 552.214,-219.865 542.132,-216.611 542.303,-223.609"/>
</g>
<!-- components/statDisplay.js -->
<g id="node12" class="node"><title>components/statDisplay.js</title>
<path fill="none" stroke="#cfffac" d="M733.333,-311C733.333,-311 566.667,-311 566.667,-311 562.833,-311 559,-307.167 559,-303.333 559,-303.333 559,-295.667 559,-295.667 559,-291.833 562.833,-288 566.667,-288 566.667,-288 733.333,-288 733.333,-288 737.167,-288 741,-291.833 741,-295.667 741,-295.667 741,-303.333 741,-303.333 741,-307.167 737.167,-311 733.333,-311"/>
<text text-anchor="middle" x="650" y="-295.8" font-family="Arial" font-size="14.00" fill="#cfffac">components/statDisplay.js</text>
</g>
<!-- components/statBar.js&#45;&gt;components/statDisplay.js -->
<g id="edge12" class="edge"><title>components/statBar.js&#45;&gt;components/statDisplay.js</title>
<path fill="none" stroke="#757575" d="M477.24,-235.013C485.155,-237.567 492.9,-240.688 500,-244.5 519.66,-255.057 516.137,-269.329 536,-279.5 540.264,-281.684 544.725,-283.633 549.306,-285.374"/>
<polygon fill="#757575" stroke="#757575" points="548.263,-288.716 558.858,-288.661 550.541,-282.097 548.263,-288.716"/>
</g>
<!-- components/timeDisplay.js -->
<g id="node13" class="node"><title>components/timeDisplay.js</title>
<path fill="none" stroke="#cfffac" d="M735.833,-270C735.833,-270 564.167,-270 564.167,-270 560.333,-270 556.5,-266.167 556.5,-262.333 556.5,-262.333 556.5,-254.667 556.5,-254.667 556.5,-250.833 560.333,-247 564.167,-247 564.167,-247 735.833,-247 735.833,-247 739.667,-247 743.5,-250.833 743.5,-254.667 743.5,-254.667 743.5,-262.333 743.5,-262.333 743.5,-266.167 739.667,-270 735.833,-270"/>
<text text-anchor="middle" x="650" y="-254.8" font-family="Arial" font-size="14.00" fill="#cfffac">components/timeDisplay.js</text>
</g>
<!-- components/statBar.js&#45;&gt;components/timeDisplay.js -->
<g id="edge13" class="edge"><title>components/statBar.js&#45;&gt;components/timeDisplay.js</title>
<path fill="none" stroke="#757575" d="M481.515,-234.622C505.933,-238.103 533.087,-241.975 558.301,-245.569"/>
<polygon fill="#757575" stroke="#757575" points="557.834,-249.038 568.228,-246.985 558.822,-242.108 557.834,-249.038"/>
</g>
<!-- components/button.js -->
<g id="node8" class="node"><title>components/button.js</title>
<path fill="none" stroke="#cfffac" d="M1167.33,-226C1167.33,-226 1030.67,-226 1030.67,-226 1026.83,-226 1023,-222.167 1023,-218.333 1023,-218.333 1023,-210.667 1023,-210.667 1023,-206.833 1026.83,-203 1030.67,-203 1030.67,-203 1167.33,-203 1167.33,-203 1171.17,-203 1175,-206.833 1175,-210.667 1175,-210.667 1175,-218.333 1175,-218.333 1175,-222.167 1171.17,-226 1167.33,-226"/>
<text text-anchor="middle" x="1099" y="-210.8" font-family="Arial" font-size="14.00" fill="#cfffac">components/button.js</text>
</g>
<!-- components/buttonWrap.js -->
<g id="node10" class="node"><title>components/buttonWrap.js</title>
<path fill="none" stroke="#c6c5fe" d="M979.333,-226C979.333,-226 807.667,-226 807.667,-226 803.833,-226 800,-222.167 800,-218.333 800,-218.333 800,-210.667 800,-210.667 800,-206.833 803.833,-203 807.667,-203 807.667,-203 979.333,-203 979.333,-203 983.167,-203 987,-206.833 987,-210.667 987,-210.667 987,-218.333 987,-218.333 987,-222.167 983.167,-226 979.333,-226"/>
<text text-anchor="middle" x="893.5" y="-210.8" font-family="Arial" font-size="14.00" fill="#c6c5fe">components/buttonWrap.js</text>
</g>
<!-- components/buttonGrid.js&#45;&gt;components/buttonWrap.js -->
<g id="edge6" class="edge"><title>components/buttonGrid.js&#45;&gt;components/buttonWrap.js</title>
<path fill="none" stroke="#757575" d="M724.113,-188.004C750.944,-192.226 781.512,-197.036 809.172,-201.388"/>
<polygon fill="#757575" stroke="#757575" points="808.796,-204.872 819.219,-202.969 809.884,-197.957 808.796,-204.872"/>
</g>
<!-- components/buttonWrap.js&#45;&gt;actions/UI.js -->
<g id="edge7" class="edge"><title>components/buttonWrap.js&#45;&gt;actions/UI.js</title>
<path fill="none" stroke="#757575" d="M951.728,-202.97C979.892,-197.296 1013.73,-190.479 1041.76,-184.832"/>
<polygon fill="#757575" stroke="#757575" points="1042.69,-188.214 1051.8,-182.808 1041.31,-181.352 1042.69,-188.214"/>
</g>
<!-- components/buttonWrap.js&#45;&gt;components/button.js -->
<g id="edge8" class="edge"><title>components/buttonWrap.js&#45;&gt;components/button.js</title>
<path fill="none" stroke="#757575" d="M987.02,-214.5C995.53,-214.5 1004.13,-214.5 1012.57,-214.5"/>
<polygon fill="#757575" stroke="#757575" points="1012.77,-218 1022.77,-214.5 1012.77,-211 1012.77,-218"/>
</g>
<!-- index.js -->
<g id="node14" class="node"><title>index.js</title>
<path fill="none" stroke="#c6c5fe" d="M57.3333,-148C57.3333,-148 7.66667,-148 7.66667,-148 3.83333,-148 0,-144.167 0,-140.333 0,-140.333 0,-132.667 0,-132.667 0,-128.833 3.83333,-125 7.66667,-125 7.66667,-125 57.3333,-125 57.3333,-125 61.1667,-125 65,-128.833 65,-132.667 65,-132.667 65,-140.333 65,-140.333 65,-144.167 61.1667,-148 57.3333,-148"/>
<text text-anchor="middle" x="32.5" y="-132.8" font-family="Arial" font-size="14.00" fill="#c6c5fe">index.js</text>
</g>
<!-- index.js&#45;&gt;components/appRoot.js -->
<g id="edge14" class="edge"><title>index.js&#45;&gt;components/appRoot.js</title>
<path fill="none" stroke="#757575" d="M65.0497,-146.143C85.7902,-152.482 113.309,-160.893 136.653,-168.029"/>
<polygon fill="#757575" stroke="#757575" points="135.784,-171.423 146.371,-170.999 137.83,-164.728 135.784,-171.423"/>
</g>
<!-- store/store.js -->
<g id="node15" class="node"><title>store/store.js</title>
<path fill="none" stroke="#c6c5fe" d="M226.833,-102C226.833,-102 143.167,-102 143.167,-102 139.333,-102 135.5,-98.1667 135.5,-94.3333 135.5,-94.3333 135.5,-86.6667 135.5,-86.6667 135.5,-82.8333 139.333,-79 143.167,-79 143.167,-79 226.833,-79 226.833,-79 230.667,-79 234.5,-82.8333 234.5,-86.6667 234.5,-86.6667 234.5,-94.3333 234.5,-94.3333 234.5,-98.1667 230.667,-102 226.833,-102"/>
<text text-anchor="middle" x="185" y="-86.8" font-family="Arial" font-size="14.00" fill="#c6c5fe">store/store.js</text>
</g>
<!-- index.js&#45;&gt;store/store.js -->
<g id="edge15" class="edge"><title>index.js&#45;&gt;store/store.js</title>
<path fill="none" stroke="#757575" d="M65.0497,-126.857C85.7902,-120.518 113.309,-112.107 136.653,-104.971"/>
<polygon fill="#757575" stroke="#757575" points="137.83,-108.272 146.371,-102.001 135.784,-101.577 137.83,-108.272"/>
</g>
<!-- reducers/root.js -->
<g id="node16" class="node"><title>reducers/root.js</title>
<path fill="none" stroke="#c6c5fe" d="M452.833,-102C452.833,-102 352.167,-102 352.167,-102 348.333,-102 344.5,-98.1667 344.5,-94.3333 344.5,-94.3333 344.5,-86.6667 344.5,-86.6667 344.5,-82.8333 348.333,-79 352.167,-79 352.167,-79 452.833,-79 452.833,-79 456.667,-79 460.5,-82.8333 460.5,-86.6667 460.5,-86.6667 460.5,-94.3333 460.5,-94.3333 460.5,-98.1667 456.667,-102 452.833,-102"/>
<text text-anchor="middle" x="402.5" y="-86.8" font-family="Arial" font-size="14.00" fill="#c6c5fe">reducers/root.js</text>
</g>
<!-- store/store.js&#45;&gt;reducers/root.js -->
<g id="edge20" class="edge"><title>store/store.js&#45;&gt;reducers/root.js</title>
<path fill="none" stroke="#757575" d="M234.631,-90.5C263.979,-90.5 301.803,-90.5 334.017,-90.5"/>
<polygon fill="#757575" stroke="#757575" points="334.262,-94.0001 344.262,-90.5 334.262,-87.0001 334.262,-94.0001"/>
</g>
<!-- store/initialState.js -->
<g id="node19" class="node"><title>store/initialState.js</title>
<path fill="none" stroke="#cfffac" d="M707.833,-23C707.833,-23 592.167,-23 592.167,-23 588.333,-23 584.5,-19.1667 584.5,-15.3333 584.5,-15.3333 584.5,-7.66667 584.5,-7.66667 584.5,-3.83333 588.333,-0 592.167,-0 592.167,-0 707.833,-0 707.833,-0 711.667,-0 715.5,-3.83333 715.5,-7.66667 715.5,-7.66667 715.5,-15.3333 715.5,-15.3333 715.5,-19.1667 711.667,-23 707.833,-23"/>
<text text-anchor="middle" x="650" y="-7.8" font-family="Arial" font-size="14.00" fill="#cfffac">store/initialState.js</text>
</g>
<!-- store/store.js&#45;&gt;store/initialState.js -->
<g id="edge21" class="edge"><title>store/store.js&#45;&gt;store/initialState.js</title>
<path fill="none" stroke="#757575" d="M234.62,-81.8336C256.174,-78.0138 281.846,-73.4949 305,-69.5 397.724,-53.5019 504.598,-35.5604 574.298,-23.9262"/>
<polygon fill="#757575" stroke="#757575" points="575.018,-27.3545 584.305,-22.2565 573.866,-20.45 575.018,-27.3545"/>
</g>
<!-- reducers/root.js&#45;&gt;actions/UI.js -->
<g id="edge16" class="edge"><title>reducers/root.js&#45;&gt;actions/UI.js</title>
<path fill="none" stroke="#757575" d="M460.73,-101.537C484.014,-105.739 511.226,-110.285 536,-113.5 735.519,-139.395 787.682,-125.099 987,-152.5 1004.95,-154.967 1024.39,-158.388 1041.92,-161.753"/>
<polygon fill="#757575" stroke="#757575" points="1041.51,-165.239 1052,-163.721 1042.85,-158.369 1041.51,-165.239"/>
</g>
<!-- reducers/updateLowerButtonUI.js -->
<g id="node17" class="node"><title>reducers/updateLowerButtonUI.js</title>
<path fill="none" stroke="#cfffac" d="M756.333,-105C756.333,-105 543.667,-105 543.667,-105 539.833,-105 536,-101.167 536,-97.3333 536,-97.3333 536,-89.6667 536,-89.6667 536,-85.8333 539.833,-82 543.667,-82 543.667,-82 756.333,-82 756.333,-82 760.167,-82 764,-85.8333 764,-89.6667 764,-89.6667 764,-97.3333 764,-97.3333 764,-101.167 760.167,-105 756.333,-105"/>
<text text-anchor="middle" x="650" y="-89.8" font-family="Arial" font-size="14.00" fill="#cfffac">reducers/updateLowerButtonUI.js</text>
</g>
<!-- reducers/root.js&#45;&gt;reducers/updateLowerButtonUI.js -->
<g id="edge17" class="edge"><title>reducers/root.js&#45;&gt;reducers/updateLowerButtonUI.js</title>
<path fill="none" stroke="#757575" d="M460.749,-91.1996C480.25,-91.4379 502.869,-91.7143 525.522,-91.9911"/>
<polygon fill="#757575" stroke="#757575" points="525.529,-95.4914 535.571,-92.1139 525.615,-88.4919 525.529,-95.4914"/>
</g>
<!-- reducers/updateStatUI.js -->
<g id="node18" class="node"><title>reducers/updateStatUI.js</title>
<path fill="none" stroke="#cfffac" d="M728.833,-64C728.833,-64 571.167,-64 571.167,-64 567.333,-64 563.5,-60.1667 563.5,-56.3333 563.5,-56.3333 563.5,-48.6667 563.5,-48.6667 563.5,-44.8333 567.333,-41 571.167,-41 571.167,-41 728.833,-41 728.833,-41 732.667,-41 736.5,-44.8333 736.5,-48.6667 736.5,-48.6667 736.5,-56.3333 736.5,-56.3333 736.5,-60.1667 732.667,-64 728.833,-64"/>
<text text-anchor="middle" x="650" y="-48.8" font-family="Arial" font-size="14.00" fill="#cfffac">reducers/updateStatUI.js</text>
</g>
<!-- reducers/root.js&#45;&gt;reducers/updateStatUI.js -->
<g id="edge18" class="edge"><title>reducers/root.js&#45;&gt;reducers/updateStatUI.js</title>
<path fill="none" stroke="#757575" d="M460.749,-81.6386C491.57,-76.868 530.182,-70.8914 564.401,-65.5947"/>
<polygon fill="#757575" stroke="#757575" points="565.048,-69.0364 574.395,-64.0479 563.977,-62.1188 565.048,-69.0364"/>
</g>
<!-- reducers/root.js&#45;&gt;store/initialState.js -->
<g id="edge19" class="edge"><title>reducers/root.js&#45;&gt;store/initialState.js</title>
<path fill="none" stroke="#757575" d="M427.478,-78.9755C459.508,-63.7304 514.691,-38.0229 536,-31.5 548.296,-27.736 561.576,-24.5986 574.561,-22.0111"/>
<polygon fill="#757575" stroke="#757575" points="575.242,-25.4445 584.412,-20.1384 573.934,-18.5676 575.242,-25.4445"/>
</g>
</g>
</svg>
