<?xml version="1.0" encoding="UTF-8" standalone="no"?>
<!DOCTYPE svg PUBLIC "-//W3C//DTD SVG 1.1//EN"
 "http://www.w3.org/Graphics/SVG/1.1/DTD/svg11.dtd">
<!-- Generated by graphviz version 2.40.1 (20161225.0304)
 -->
<!-- Title: G Pages: 1 -->
<svg width="783pt" height="311pt"
 viewBox="0.00 0.00 783.20 311.20" xmlns="http://www.w3.org/2000/svg" xmlns:xlink="http://www.w3.org/1999/xlink">
<g id="graph0" class="graph" transform="scale(1 1) rotate(0) translate(21.6 289.6)">
<title>G</title>
<polygon fill="#111111" stroke="transparent" points="-21.6,21.6 -21.6,-289.6 761.6,-289.6 761.6,21.6 -21.6,21.6"/>
<!-- actions/UI.js -->
<g id="node1" class="node">
<title>actions/UI.js</title>
<path fill="none" stroke="#cfffac" d="M681.3333,-207C681.3333,-207 601.6667,-207 601.6667,-207 597.8333,-207 594,-203.1667 594,-199.3333 594,-199.3333 594,-191.6667 594,-191.6667 594,-187.8333 597.8333,-184 601.6667,-184 601.6667,-184 681.3333,-184 681.3333,-184 685.1667,-184 689,-187.8333 689,-191.6667 689,-191.6667 689,-199.3333 689,-199.3333 689,-203.1667 685.1667,-207 681.3333,-207"/>
<text text-anchor="middle" x="641.5" y="-191.8" font-family="Arial" font-size="14.00" fill="#cfffac">actions/UI.js</text>
</g>
<!-- actions/UI.test.js -->
<g id="node2" class="node">
<title>actions/UI.test.js</title>
<path fill="none" stroke="#c6c5fe" d="M460.8333,-268C460.8333,-268 354.1667,-268 354.1667,-268 350.3333,-268 346.5,-264.1667 346.5,-260.3333 346.5,-260.3333 346.5,-252.6667 346.5,-252.6667 346.5,-248.8333 350.3333,-245 354.1667,-245 354.1667,-245 460.8333,-245 460.8333,-245 464.6667,-245 468.5,-248.8333 468.5,-252.6667 468.5,-252.6667 468.5,-260.3333 468.5,-260.3333 468.5,-264.1667 464.6667,-268 460.8333,-268"/>
<text text-anchor="middle" x="407.5" y="-252.8" font-family="Arial" font-size="14.00" fill="#c6c5fe">actions/UI.test.js</text>
</g>
<!-- actions/UI.test.js&#45;&gt;actions/UI.js -->
<g id="edge1" class="edge">
<title>actions/UI.test.js&#45;&gt;actions/UI.js</title>
<path fill="none" stroke="#757575" d="M468.7515,-245.1656C481.4469,-242.543 494.6991,-239.6033 507,-236.5 537.4334,-228.8223 571.2242,-218.5145 597.3232,-210.1553"/>
<polygon fill="#757575" stroke="#757575" points="598.4844,-213.4584 606.9263,-207.0565 596.3346,-206.7967 598.4844,-213.4584"/>
</g>
<!-- components/appRoot.js -->
<g id="node3" class="node">
<title>components/appRoot.js</title>
<path fill="none" stroke="#c6c5fe" d="M264.3333,-145C264.3333,-145 109.6667,-145 109.6667,-145 105.8333,-145 102,-141.1667 102,-137.3333 102,-137.3333 102,-129.6667 102,-129.6667 102,-125.8333 105.8333,-122 109.6667,-122 109.6667,-122 264.3333,-122 264.3333,-122 268.1667,-122 272,-125.8333 272,-129.6667 272,-129.6667 272,-137.3333 272,-137.3333 272,-141.1667 268.1667,-145 264.3333,-145"/>
<text text-anchor="middle" x="187" y="-129.8" font-family="Arial" font-size="14.00" fill="#c6c5fe">components/appRoot.js</text>
</g>
<!-- components/lowerButtons.js -->
<g id="node4" class="node">
<title>components/lowerButtons.js</title>
<path fill="none" stroke="#c6c5fe" d="M499.3333,-227C499.3333,-227 315.6667,-227 315.6667,-227 311.8333,-227 308,-223.1667 308,-219.3333 308,-219.3333 308,-211.6667 308,-211.6667 308,-207.8333 311.8333,-204 315.6667,-204 315.6667,-204 499.3333,-204 499.3333,-204 503.1667,-204 507,-207.8333 507,-211.6667 507,-211.6667 507,-219.3333 507,-219.3333 507,-223.1667 503.1667,-227 499.3333,-227"/>
<text text-anchor="middle" x="407.5" y="-211.8" font-family="Arial" font-size="14.00" fill="#c6c5fe">components/lowerButtons.js</text>
</g>
<!-- components/appRoot.js&#45;&gt;components/lowerButtons.js -->
<g id="edge2" class="edge">
<title>components/appRoot.js&#45;&gt;components/lowerButtons.js</title>
<path fill="none" stroke="#757575" d="M205.5573,-145.0658C228.7067,-159.0008 269.8932,-182.1941 308,-195.5 314.3148,-197.7049 320.9446,-199.6957 327.6572,-201.4874"/>
<polygon fill="#757575" stroke="#757575" points="326.9722,-204.9241 337.5242,-203.9717 328.6814,-198.136 326.9722,-204.9241"/>
</g>
<!-- components/menuBar.js -->
<g id="node5" class="node">
<title>components/menuBar.js</title>
<path fill="none" stroke="#c6c5fe" d="M486.3333,-186C486.3333,-186 328.6667,-186 328.6667,-186 324.8333,-186 321,-182.1667 321,-178.3333 321,-178.3333 321,-170.6667 321,-170.6667 321,-166.8333 324.8333,-163 328.6667,-163 328.6667,-163 486.3333,-163 486.3333,-163 490.1667,-163 494,-166.8333 494,-170.6667 494,-170.6667 494,-178.3333 494,-178.3333 494,-182.1667 490.1667,-186 486.3333,-186"/>
<text text-anchor="middle" x="407.5" y="-170.8" font-family="Arial" font-size="14.00" fill="#c6c5fe">components/menuBar.js</text>
</g>
<!-- components/appRoot.js&#45;&gt;components/menuBar.js -->
<g id="edge3" class="edge">
<title>components/appRoot.js&#45;&gt;components/menuBar.js</title>
<path fill="none" stroke="#757575" d="M249.0083,-145.0299C275.8954,-150.0293 307.5507,-155.9153 335.4729,-161.1072"/>
<polygon fill="#757575" stroke="#757575" points="335.1041,-164.5985 345.5754,-162.9857 336.3838,-157.7165 335.1041,-164.5985"/>
</g>
<!-- components/output.js -->
<g id="node6" class="node">
<title>components/output.js</title>
<path fill="none" stroke="#cfffac" d="M477.3333,-145C477.3333,-145 337.6667,-145 337.6667,-145 333.8333,-145 330,-141.1667 330,-137.3333 330,-137.3333 330,-129.6667 330,-129.6667 330,-125.8333 333.8333,-122 337.6667,-122 337.6667,-122 477.3333,-122 477.3333,-122 481.1667,-122 485,-125.8333 485,-129.6667 485,-129.6667 485,-137.3333 485,-137.3333 485,-141.1667 481.1667,-145 477.3333,-145"/>
<text text-anchor="middle" x="407.5" y="-129.8" font-family="Arial" font-size="14.00" fill="#cfffac">components/output.js</text>
</g>
<!-- components/appRoot.js&#45;&gt;components/output.js -->
<g id="edge4" class="edge">
<title>components/appRoot.js&#45;&gt;components/output.js</title>
<path fill="none" stroke="#757575" d="M272.2511,-133.5C287.7594,-133.5 303.9645,-133.5 319.5491,-133.5"/>
<polygon fill="#757575" stroke="#757575" points="319.6873,-137.0001 329.6872,-133.5 319.6872,-130.0001 319.6873,-137.0001"/>
</g>
<!-- components/statBar.js -->
<g id="node7" class="node">
<title>components/statBar.js</title>
<path fill="none" stroke="#c6c5fe" d="M479.8333,-104C479.8333,-104 335.1667,-104 335.1667,-104 331.3333,-104 327.5,-100.1667 327.5,-96.3333 327.5,-96.3333 327.5,-88.6667 327.5,-88.6667 327.5,-84.8333 331.3333,-81 335.1667,-81 335.1667,-81 479.8333,-81 479.8333,-81 483.6667,-81 487.5,-84.8333 487.5,-88.6667 487.5,-88.6667 487.5,-96.3333 487.5,-96.3333 487.5,-100.1667 483.6667,-104 479.8333,-104"/>
<text text-anchor="middle" x="407.5" y="-88.8" font-family="Arial" font-size="14.00" fill="#c6c5fe">components/statBar.js</text>
</g>
<!-- components/appRoot.js&#45;&gt;components/statBar.js -->
<g id="edge5" class="edge">
<title>components/appRoot.js&#45;&gt;components/statBar.js</title>
<path fill="none" stroke="#757575" d="M249.0083,-121.9701C275.8954,-116.9707 307.5507,-111.0847 335.4729,-105.8928"/>
<polygon fill="#757575" stroke="#757575" points="336.3838,-109.2835 345.5754,-104.0143 335.1041,-102.4015 336.3838,-109.2835"/>
</g>
<!-- components/lowerButtons.js&#45;&gt;actions/UI.js -->
<g id="edge6" class="edge">
<title>components/lowerButtons.js&#45;&gt;actions/UI.js</title>
<path fill="none" stroke="#757575" d="M507.0764,-206.9892C533.2989,-204.748 560.7158,-202.4046 583.8983,-200.4232"/>
<polygon fill="#757575" stroke="#757575" points="584.2288,-203.9078 593.8943,-199.5689 583.6326,-196.9333 584.2288,-203.9078"/>
</g>
<!-- components/menuBar.js&#45;&gt;actions/UI.js -->
<g id="edge7" class="edge">
<title>components/menuBar.js&#45;&gt;actions/UI.js</title>
<path fill="none" stroke="#757575" d="M494.3004,-182.2898C524.1715,-184.9705 556.8617,-187.9043 583.8319,-190.3247"/>
<polygon fill="#757575" stroke="#757575" points="583.5978,-193.8176 593.8706,-191.2256 584.2235,-186.8456 583.5978,-193.8176"/>
</g>
<!-- components/spriteDisplay.js -->
<g id="node8" class="node">
<title>components/spriteDisplay.js</title>
<path fill="none" stroke="#cfffac" d="M732.3333,-146C732.3333,-146 550.6667,-146 550.6667,-146 546.8333,-146 543,-142.1667 543,-138.3333 543,-138.3333 543,-130.6667 543,-130.6667 543,-126.8333 546.8333,-123 550.6667,-123 550.6667,-123 732.3333,-123 732.3333,-123 736.1667,-123 740,-126.8333 740,-130.6667 740,-130.6667 740,-138.3333 740,-138.3333 740,-142.1667 736.1667,-146 732.3333,-146"/>
<text text-anchor="middle" x="641.5" y="-130.8" font-family="Arial" font-size="14.00" fill="#cfffac">components/spriteDisplay.js</text>
</g>
<!-- components/statBar.js&#45;&gt;components/spriteDisplay.js -->
<g id="edge8" class="edge">
<title>components/statBar.js&#45;&gt;components/spriteDisplay.js</title>
<path fill="none" stroke="#757575" d="M471.751,-104.0322C501.2896,-109.334 536.5015,-115.6541 567.1777,-121.1601"/>
<polygon fill="#757575" stroke="#757575" points="566.9312,-124.6717 577.3923,-122.9935 568.1679,-117.7818 566.9312,-124.6717"/>
</g>
<!-- components/statDisplay.js -->
<g id="node9" class="node">
<title>components/statDisplay.js</title>
<path fill="none" stroke="#cfffac" d="M726.3333,-105C726.3333,-105 556.6667,-105 556.6667,-105 552.8333,-105 549,-101.1667 549,-97.3333 549,-97.3333 549,-89.6667 549,-89.6667 549,-85.8333 552.8333,-82 556.6667,-82 556.6667,-82 726.3333,-82 726.3333,-82 730.1667,-82 734,-85.8333 734,-89.6667 734,-89.6667 734,-97.3333 734,-97.3333 734,-101.1667 730.1667,-105 726.3333,-105"/>
<text text-anchor="middle" x="641.5" y="-89.8" font-family="Arial" font-size="14.00" fill="#cfffac">components/statDisplay.js</text>
</g>
<!-- components/statBar.js&#45;&gt;components/statDisplay.js -->
<g id="edge9" class="edge">
<title>components/statBar.js&#45;&gt;components/statDisplay.js</title>
<path fill="none" stroke="#757575" d="M487.7021,-92.8427C504.1809,-92.9132 521.7439,-92.9882 538.8884,-93.0615"/>
<polygon fill="#757575" stroke="#757575" points="538.9083,-96.5615 548.9232,-93.1044 538.9382,-89.5616 538.9083,-96.5615"/>
</g>
<!-- components/timeDisplay.js -->
<g id="node10" class="node">
<title>components/timeDisplay.js</title>
<path fill="none" stroke="#cfffac" d="M728.3333,-64C728.3333,-64 554.6667,-64 554.6667,-64 550.8333,-64 547,-60.1667 547,-56.3333 547,-56.3333 547,-48.6667 547,-48.6667 547,-44.8333 550.8333,-41 554.6667,-41 554.6667,-41 728.3333,-41 728.3333,-41 732.1667,-41 736,-44.8333 736,-48.6667 736,-48.6667 736,-56.3333 736,-56.3333 736,-60.1667 732.1667,-64 728.3333,-64"/>
<text text-anchor="middle" x="641.5" y="-48.8" font-family="Arial" font-size="14.00" fill="#cfffac">components/timeDisplay.js</text>
</g>
<!-- components/statBar.js&#45;&gt;components/timeDisplay.js -->
<g id="edge10" class="edge">
<title>components/statBar.js&#45;&gt;components/timeDisplay.js</title>
<path fill="none" stroke="#757575" d="M474.8686,-80.984C502.7678,-76.2149 535.2889,-70.6557 564.1569,-65.721"/>
<polygon fill="#757575" stroke="#757575" points="564.9346,-69.1389 574.2019,-64.0039 563.7551,-62.239 564.9346,-69.1389"/>
</g>
<!-- index.js -->
<g id="node11" class="node">
<title>index.js</title>
<path fill="none" stroke="#c6c5fe" d="M58.3333,-104C58.3333,-104 7.6667,-104 7.6667,-104 3.8333,-104 0,-100.1667 0,-96.3333 0,-96.3333 0,-88.6667 0,-88.6667 0,-84.8333 3.8333,-81 7.6667,-81 7.6667,-81 58.3333,-81 58.3333,-81 62.1667,-81 66,-84.8333 66,-88.6667 66,-88.6667 66,-96.3333 66,-96.3333 66,-100.1667 62.1667,-104 58.3333,-104"/>
<text text-anchor="middle" x="33" y="-88.8" font-family="Arial" font-size="14.00" fill="#c6c5fe">index.js</text>
</g>
<!-- index.js&#45;&gt;components/appRoot.js -->
<g id="edge11" class="edge">
<title>index.js&#45;&gt;components/appRoot.js</title>
<path fill="none" stroke="#757575" d="M66.0369,-101.2955C85.8225,-106.5631 111.4321,-113.3813 133.9899,-119.3869"/>
<polygon fill="#757575" stroke="#757575" points="133.2113,-122.8015 143.7751,-121.9921 135.0122,-116.0371 133.2113,-122.8015"/>
</g>
<!-- store/store.js -->
<g id="node12" class="node">
<title>store/store.js</title>
<path fill="none" stroke="#c6c5fe" d="M228.8333,-63C228.8333,-63 145.1667,-63 145.1667,-63 141.3333,-63 137.5,-59.1667 137.5,-55.3333 137.5,-55.3333 137.5,-47.6667 137.5,-47.6667 137.5,-43.8333 141.3333,-40 145.1667,-40 145.1667,-40 228.8333,-40 228.8333,-40 232.6667,-40 236.5,-43.8333 236.5,-47.6667 236.5,-47.6667 236.5,-55.3333 236.5,-55.3333 236.5,-59.1667 232.6667,-63 228.8333,-63"/>
<text text-anchor="middle" x="187" y="-47.8" font-family="Arial" font-size="14.00" fill="#c6c5fe">store/store.js</text>
</g>
<!-- index.js&#45;&gt;store/store.js -->
<g id="edge12" class="edge">
<title>index.js&#45;&gt;store/store.js</title>
<path fill="none" stroke="#757575" d="M66.0369,-83.7045C85.8225,-78.4369 111.4321,-71.6187 133.9899,-65.6131"/>
<polygon fill="#757575" stroke="#757575" points="135.0122,-68.9629 143.7751,-63.0079 133.2113,-62.1985 135.0122,-68.9629"/>
</g>
<!-- reducers/root.js -->
<g id="node13" class="node">
<title>reducers/root.js</title>
<path fill="none" stroke="#c6c5fe" d="M457.8333,-63C457.8333,-63 357.1667,-63 357.1667,-63 353.3333,-63 349.5,-59.1667 349.5,-55.3333 349.5,-55.3333 349.5,-47.6667 349.5,-47.6667 349.5,-43.8333 353.3333,-40 357.1667,-40 357.1667,-40 457.8333,-40 457.8333,-40 461.6667,-40 465.5,-43.8333 465.5,-47.6667 465.5,-47.6667 465.5,-55.3333 465.5,-55.3333 465.5,-59.1667 461.6667,-63 457.8333,-63"/>
<text text-anchor="middle" x="407.5" y="-47.8" font-family="Arial" font-size="14.00" fill="#c6c5fe">reducers/root.js</text>
</g>
<!-- store/store.js&#45;&gt;reducers/root.js -->
<g id="edge15" class="edge">
<title>store/store.js&#45;&gt;reducers/root.js</title>
<path fill="none" stroke="#757575" d="M236.7594,-51.5C267.0338,-51.5 306.1221,-51.5 339.2576,-51.5"/>
<polygon fill="#757575" stroke="#757575" points="339.3336,-55.0001 349.3336,-51.5 339.3336,-48.0001 339.3336,-55.0001"/>
</g>
<!-- store/initialState.js -->
<g id="node14" class="node">
<title>store/initialState.js</title>
<path fill="none" stroke="#cfffac" d="M700.3333,-23C700.3333,-23 582.6667,-23 582.6667,-23 578.8333,-23 575,-19.1667 575,-15.3333 575,-15.3333 575,-7.6667 575,-7.6667 575,-3.8333 578.8333,0 582.6667,0 582.6667,0 700.3333,0 700.3333,0 704.1667,0 708,-3.8333 708,-7.6667 708,-7.6667 708,-15.3333 708,-15.3333 708,-19.1667 704.1667,-23 700.3333,-23"/>
<text text-anchor="middle" x="641.5" y="-7.8" font-family="Arial" font-size="14.00" fill="#cfffac">store/initialState.js</text>
</g>
<!-- store/store.js&#45;&gt;store/initialState.js -->
<g id="edge16" class="edge">
<title>store/store.js&#45;&gt;store/initialState.js</title>
<path fill="none" stroke="#757575" d="M236.5593,-41.5742C258.3842,-37.5466 284.3824,-33.2131 308,-30.5 395.6817,-20.4274 496.975,-15.616 564.7086,-13.3701"/>
<polygon fill="#757575" stroke="#757575" points="564.9856,-16.8631 574.8682,-13.0442 564.761,-9.8667 564.9856,-16.8631"/>
</g>
<!-- reducers/root.js&#45;&gt;actions/UI.js -->
<g id="edge13" class="edge">
<title>reducers/root.js&#45;&gt;actions/UI.js</title>
<path fill="none" stroke="#757575" d="M465.5585,-54.3321C480.3272,-57.4399 495.3081,-62.9525 507,-72.5 538.1446,-97.9324 514.2356,-127.4037 543,-155.5 554.4267,-166.6613 569.3845,-174.8476 584.1802,-180.7947"/>
<polygon fill="#757575" stroke="#757575" points="583.248,-184.1823 593.8408,-184.3883 585.6885,-177.6215 583.248,-184.1823"/>
</g>
<!-- reducers/root.js&#45;&gt;store/initialState.js -->
<g id="edge14" class="edge">
<title>reducers/root.js&#45;&gt;store/initialState.js</title>
<path fill="none" stroke="#757575" d="M465.6434,-41.561C495.6965,-36.4237 532.7553,-30.0888 565.0919,-24.5612"/>
<polygon fill="#757575" stroke="#757575" points="565.6956,-28.0089 574.9628,-22.8739 564.516,-21.109 565.6956,-28.0089"/>
</g>
</g>
</svg>
