<?xml version="1.0" encoding="UTF-8" standalone="no"?>
<!DOCTYPE svg PUBLIC "-//W3C//DTD SVG 1.1//EN"
 "http://www.w3.org/Graphics/SVG/1.1/DTD/svg11.dtd">
<!-- Generated by graphviz version 2.38.0 (20140413.2041)
 -->
<!-- Title: G Pages: 1 -->
<svg width="2330pt" height="580pt"
 viewBox="0.00 0.00 2330.20 580.20" xmlns="http://www.w3.org/2000/svg" xmlns:xlink="http://www.w3.org/1999/xlink">
<g id="graph0" class="graph" transform="scale(1 1) rotate(0) translate(21.6 558.597)">
<title>G</title>
<polygon fill="#111111" stroke="none" points="-21.6,21.6 -21.6,-558.597 2308.6,-558.597 2308.6,21.6 -21.6,21.6"/>
<!-- actions/Core.js -->
<g id="node1" class="node"><title>actions/Core.js</title>
<path fill="none" stroke="#c6c5fe" d="M1057.83,-439.497C1057.83,-439.497 962.167,-439.497 962.167,-439.497 958.333,-439.497 954.5,-435.664 954.5,-431.831 954.5,-431.831 954.5,-424.164 954.5,-424.164 954.5,-420.331 958.333,-416.497 962.167,-416.497 962.167,-416.497 1057.83,-416.497 1057.83,-416.497 1061.67,-416.497 1065.5,-420.331 1065.5,-424.164 1065.5,-424.164 1065.5,-431.831 1065.5,-431.831 1065.5,-435.664 1061.67,-439.497 1057.83,-439.497"/>
<text text-anchor="middle" x="1010" y="-424.297" font-family="Arial" font-size="14.00" fill="#c6c5fe">actions/Core.js</text>
</g>
<!-- scenes/sceneFunctions.js -->
<g id="node2" class="node"><title>scenes/sceneFunctions.js</title>
<path fill="none" stroke="#c6c5fe" d="M1377.83,-439.497C1377.83,-439.497 1211.17,-439.497 1211.17,-439.497 1207.33,-439.497 1203.5,-435.664 1203.5,-431.831 1203.5,-431.831 1203.5,-424.164 1203.5,-424.164 1203.5,-420.331 1207.33,-416.497 1211.17,-416.497 1211.17,-416.497 1377.83,-416.497 1377.83,-416.497 1381.67,-416.497 1385.5,-420.331 1385.5,-424.164 1385.5,-424.164 1385.5,-431.831 1385.5,-431.831 1385.5,-435.664 1381.67,-439.497 1377.83,-439.497"/>
<text text-anchor="middle" x="1294.5" y="-424.297" font-family="Arial" font-size="14.00" fill="#c6c5fe">scenes/sceneFunctions.js</text>
</g>
<!-- actions/Core.js&#45;&gt;scenes/sceneFunctions.js -->
<g id="edge1" class="edge"><title>actions/Core.js&#45;&gt;scenes/sceneFunctions.js</title>
<path fill="none" stroke="#757575" d="M1065.8,-427.997C1101.9,-427.997 1150.24,-427.997 1193.08,-427.997"/>
<polygon fill="#757575" stroke="#757575" points="1193.28,-431.497 1203.28,-427.997 1193.28,-424.497 1193.28,-431.497"/>
</g>
<!-- scenes/sceneSymbols.js -->
<g id="node5" class="node"><title>scenes/sceneSymbols.js</title>
<path fill="none" stroke="#cfffac" d="M2279.33,-448.497C2279.33,-448.497 2118.67,-448.497 2118.67,-448.497 2114.83,-448.497 2111,-444.664 2111,-440.831 2111,-440.831 2111,-433.164 2111,-433.164 2111,-429.331 2114.83,-425.497 2118.67,-425.497 2118.67,-425.497 2279.33,-425.497 2279.33,-425.497 2283.17,-425.497 2287,-429.331 2287,-433.164 2287,-433.164 2287,-440.831 2287,-440.831 2287,-444.664 2283.17,-448.497 2279.33,-448.497"/>
<text text-anchor="middle" x="2199" y="-433.297" font-family="Arial" font-size="14.00" fill="#cfffac">scenes/sceneSymbols.js</text>
</g>
<!-- scenes/sceneFunctions.js&#45;&gt;scenes/sceneSymbols.js -->
<g id="edge47" class="edge"><title>scenes/sceneFunctions.js&#45;&gt;scenes/sceneSymbols.js</title>
<path fill="none" stroke="#757575" d="M1385.52,-431.851C1530.65,-437.559 1825.33,-447.07 2075,-441.997 2083.37,-441.827 2092.06,-441.592 2100.77,-441.316"/>
<polygon fill="#757575" stroke="#757575" points="2101.12,-444.806 2110.99,-440.974 2100.88,-437.81 2101.12,-444.806"/>
</g>
<!-- scenes/menus.js -->
<g id="node32" class="node"><title>scenes/menus.js</title>
<path fill="none" stroke="#c6c5fe" d="M1860.83,-332.497C1860.83,-332.497 1752.17,-332.497 1752.17,-332.497 1748.33,-332.497 1744.5,-328.664 1744.5,-324.831 1744.5,-324.831 1744.5,-317.164 1744.5,-317.164 1744.5,-313.331 1748.33,-309.497 1752.17,-309.497 1752.17,-309.497 1860.83,-309.497 1860.83,-309.497 1864.67,-309.497 1868.5,-313.331 1868.5,-317.164 1868.5,-317.164 1868.5,-324.831 1868.5,-324.831 1868.5,-328.664 1864.67,-332.497 1860.83,-332.497"/>
<text text-anchor="middle" x="1806.5" y="-317.297" font-family="Arial" font-size="14.00" fill="#c6c5fe">scenes/menus.js</text>
</g>
<!-- scenes/sceneFunctions.js&#45;&gt;scenes/menus.js -->
<g id="edge46" class="edge"><title>scenes/sceneFunctions.js&#45;&gt;scenes/menus.js</title>
<path fill="none" stroke="#757575" d="M1332.05,-416.406C1367.54,-405.447 1423.08,-389.074 1472,-377.997 1561.64,-357.701 1666.29,-340.922 1734.11,-330.942"/>
<polygon fill="#757575" stroke="#757575" points="1734.87,-334.369 1744.26,-329.459 1733.86,-327.442 1734.87,-334.369"/>
</g>
<!-- scenes/charCreation.js -->
<g id="node34" class="node"><title>scenes/charCreation.js</title>
<path fill="none" stroke="#c6c5fe" d="M1655.33,-410.497C1655.33,-410.497 1509.67,-410.497 1509.67,-410.497 1505.83,-410.497 1502,-406.664 1502,-402.831 1502,-402.831 1502,-395.164 1502,-395.164 1502,-391.331 1505.83,-387.497 1509.67,-387.497 1509.67,-387.497 1655.33,-387.497 1655.33,-387.497 1659.17,-387.497 1663,-391.331 1663,-395.164 1663,-395.164 1663,-402.831 1663,-402.831 1663,-406.664 1659.17,-410.497 1655.33,-410.497"/>
<text text-anchor="middle" x="1582.5" y="-395.297" font-family="Arial" font-size="14.00" fill="#c6c5fe">scenes/charCreation.js</text>
</g>
<!-- scenes/sceneFunctions.js&#45;&gt;scenes/charCreation.js -->
<g id="edge45" class="edge"><title>scenes/sceneFunctions.js&#45;&gt;scenes/charCreation.js</title>
<path fill="none" stroke="#757575" d="M1385.6,-418.861C1419.28,-415.446 1457.52,-411.568 1491.22,-408.151"/>
<polygon fill="#757575" stroke="#757575" points="1491.93,-411.597 1501.53,-407.106 1491.22,-404.633 1491.93,-411.597"/>
</g>
<!-- scenes/tests/testing.js -->
<g id="node36" class="node"><title>scenes/tests/testing.js</title>
<path fill="none" stroke="#cfffac" d="M1653.83,-508.497C1653.83,-508.497 1511.17,-508.497 1511.17,-508.497 1507.33,-508.497 1503.5,-504.664 1503.5,-500.831 1503.5,-500.831 1503.5,-493.164 1503.5,-493.164 1503.5,-489.331 1507.33,-485.497 1511.17,-485.497 1511.17,-485.497 1653.83,-485.497 1653.83,-485.497 1657.67,-485.497 1661.5,-489.331 1661.5,-493.164 1661.5,-493.164 1661.5,-500.831 1661.5,-500.831 1661.5,-504.664 1657.67,-508.497 1653.83,-508.497"/>
<text text-anchor="middle" x="1582.5" y="-493.297" font-family="Arial" font-size="14.00" fill="#cfffac">scenes/tests/testing.js</text>
</g>
<!-- scenes/sceneFunctions.js&#45;&gt;scenes/tests/testing.js -->
<g id="edge48" class="edge"><title>scenes/sceneFunctions.js&#45;&gt;scenes/tests/testing.js</title>
<path fill="none" stroke="#757575" d="M1342.68,-439.57C1378.22,-448.269 1428.15,-460.45 1472,-470.997 1488.44,-474.952 1506.28,-479.204 1522.69,-483.1"/>
<polygon fill="#757575" stroke="#757575" points="1522.16,-486.572 1532.7,-485.474 1523.78,-479.761 1522.16,-486.572"/>
</g>
<!-- actions/UI.js -->
<g id="node3" class="node"><title>actions/UI.js</title>
<path fill="none" stroke="#cfffac" d="M2036.83,-253.497C2036.83,-253.497 1958.17,-253.497 1958.17,-253.497 1954.33,-253.497 1950.5,-249.664 1950.5,-245.831 1950.5,-245.831 1950.5,-238.164 1950.5,-238.164 1950.5,-234.331 1954.33,-230.497 1958.17,-230.497 1958.17,-230.497 2036.83,-230.497 2036.83,-230.497 2040.67,-230.497 2044.5,-234.331 2044.5,-238.164 2044.5,-238.164 2044.5,-245.831 2044.5,-245.831 2044.5,-249.664 2040.67,-253.497 2036.83,-253.497"/>
<text text-anchor="middle" x="1997.5" y="-238.297" font-family="Arial" font-size="14.00" fill="#cfffac">actions/UI.js</text>
</g>
<!-- actions/tests/Core.test.js -->
<g id="node4" class="node"><title>actions/tests/Core.test.js</title>
<path fill="none" stroke="#c6c5fe" d="M848.333,-493.497C848.333,-493.497 690.667,-493.497 690.667,-493.497 686.833,-493.497 683,-489.664 683,-485.831 683,-485.831 683,-478.164 683,-478.164 683,-474.331 686.833,-470.497 690.667,-470.497 690.667,-470.497 848.333,-470.497 848.333,-470.497 852.167,-470.497 856,-474.331 856,-478.164 856,-478.164 856,-485.831 856,-485.831 856,-489.664 852.167,-493.497 848.333,-493.497"/>
<text text-anchor="middle" x="769.5" y="-478.297" font-family="Arial" font-size="14.00" fill="#c6c5fe">actions/tests/Core.test.js</text>
</g>
<!-- actions/tests/Core.test.js&#45;&gt;actions/Core.js -->
<g id="edge2" class="edge"><title>actions/tests/Core.test.js&#45;&gt;actions/Core.js</title>
<path fill="none" stroke="#757575" d="M821.372,-470.479C858.498,-462.073 908.979,-450.643 948.228,-441.757"/>
<polygon fill="#757575" stroke="#757575" points="949.226,-445.12 958.206,-439.498 947.68,-438.292 949.226,-445.12"/>
</g>
<!-- actions/tests/Core.test.js&#45;&gt;scenes/sceneSymbols.js -->
<g id="edge3" class="edge"><title>actions/tests/Core.test.js&#45;&gt;scenes/sceneSymbols.js</title>
<path fill="none" stroke="#757575" d="M837.137,-493.527C936.295,-509.655 1128.7,-536.997 1293.5,-536.997 1293.5,-536.997 1293.5,-536.997 1807.5,-536.997 1941.91,-536.997 2094.43,-480.715 2162.24,-452.598"/>
<polygon fill="#757575" stroke="#757575" points="2163.75,-455.76 2171.61,-448.664 2161.04,-449.305 2163.75,-455.76"/>
</g>
<!-- actions/tests/UI.test.js -->
<g id="node6" class="node"><title>actions/tests/UI.test.js</title>
<path fill="none" stroke="#c6c5fe" d="M1876.33,-174.497C1876.33,-174.497 1736.67,-174.497 1736.67,-174.497 1732.83,-174.497 1729,-170.664 1729,-166.831 1729,-166.831 1729,-159.164 1729,-159.164 1729,-155.331 1732.83,-151.497 1736.67,-151.497 1736.67,-151.497 1876.33,-151.497 1876.33,-151.497 1880.17,-151.497 1884,-155.331 1884,-159.164 1884,-159.164 1884,-166.831 1884,-166.831 1884,-170.664 1880.17,-174.497 1876.33,-174.497"/>
<text text-anchor="middle" x="1806.5" y="-159.297" font-family="Arial" font-size="14.00" fill="#c6c5fe">actions/tests/UI.test.js</text>
</g>
<!-- actions/tests/UI.test.js&#45;&gt;actions/UI.js -->
<g id="edge4" class="edge"><title>actions/tests/UI.test.js&#45;&gt;actions/UI.js</title>
<path fill="none" stroke="#757575" d="M1844.39,-174.599C1857.06,-178.831 1871.25,-183.848 1884,-188.997 1911.85,-200.249 1942.66,-214.924 1964.98,-225.979"/>
<polygon fill="#757575" stroke="#757575" points="1963.48,-229.144 1973.99,-230.474 1966.61,-222.879 1963.48,-229.144"/>
</g>
<!-- components/appRoot.js -->
<g id="node7" class="node"><title>components/appRoot.js</title>
<path fill="none" stroke="#c6c5fe" d="M321.333,-296.497C321.333,-296.497 168.667,-296.497 168.667,-296.497 164.833,-296.497 161,-292.664 161,-288.831 161,-288.831 161,-281.164 161,-281.164 161,-277.331 164.833,-273.497 168.667,-273.497 168.667,-273.497 321.333,-273.497 321.333,-273.497 325.167,-273.497 329,-277.331 329,-281.164 329,-281.164 329,-288.831 329,-288.831 329,-292.664 325.167,-296.497 321.333,-296.497"/>
<text text-anchor="middle" x="245" y="-281.297" font-family="Arial" font-size="14.00" fill="#c6c5fe">components/appRoot.js</text>
</g>
<!-- components/lowerButtons.js -->
<g id="node8" class="node"><title>components/lowerButtons.js</title>
<path fill="none" stroke="#c6c5fe" d="M601.833,-296.497C601.833,-296.497 422.167,-296.497 422.167,-296.497 418.333,-296.497 414.5,-292.664 414.5,-288.831 414.5,-288.831 414.5,-281.164 414.5,-281.164 414.5,-277.331 418.333,-273.497 422.167,-273.497 422.167,-273.497 601.833,-273.497 601.833,-273.497 605.667,-273.497 609.5,-277.331 609.5,-281.164 609.5,-281.164 609.5,-288.831 609.5,-288.831 609.5,-292.664 605.667,-296.497 601.833,-296.497"/>
<text text-anchor="middle" x="512" y="-281.297" font-family="Arial" font-size="14.00" fill="#c6c5fe">components/lowerButtons.js</text>
</g>
<!-- components/appRoot.js&#45;&gt;components/lowerButtons.js -->
<g id="edge5" class="edge"><title>components/appRoot.js&#45;&gt;components/lowerButtons.js</title>
<path fill="none" stroke="#757575" d="M329.121,-284.997C352.867,-284.997 379.083,-284.997 404.042,-284.997"/>
<polygon fill="#757575" stroke="#757575" points="404.277,-288.497 414.277,-284.997 404.277,-281.497 404.277,-288.497"/>
</g>
<!-- components/menuBar.js -->
<g id="node9" class="node"><title>components/menuBar.js</title>
<path fill="none" stroke="#c6c5fe" d="M589.333,-337.497C589.333,-337.497 434.667,-337.497 434.667,-337.497 430.833,-337.497 427,-333.664 427,-329.831 427,-329.831 427,-322.164 427,-322.164 427,-318.331 430.833,-314.497 434.667,-314.497 434.667,-314.497 589.333,-314.497 589.333,-314.497 593.167,-314.497 597,-318.331 597,-322.164 597,-322.164 597,-329.831 597,-329.831 597,-333.664 593.167,-337.497 589.333,-337.497"/>
<text text-anchor="middle" x="512" y="-322.297" font-family="Arial" font-size="14.00" fill="#c6c5fe">components/menuBar.js</text>
</g>
<!-- components/appRoot.js&#45;&gt;components/menuBar.js -->
<g id="edge6" class="edge"><title>components/appRoot.js&#45;&gt;components/menuBar.js</title>
<path fill="none" stroke="#757575" d="M320.522,-296.527C353.544,-301.636 392.551,-307.671 426.638,-312.945"/>
<polygon fill="#757575" stroke="#757575" points="426.161,-316.413 436.578,-314.483 427.231,-309.495 426.161,-316.413"/>
</g>
<!-- components/output.js -->
<g id="node10" class="node"><title>components/output.js</title>
<path fill="none" stroke="#cfffac" d="M580.333,-378.497C580.333,-378.497 443.667,-378.497 443.667,-378.497 439.833,-378.497 436,-374.664 436,-370.831 436,-370.831 436,-363.164 436,-363.164 436,-359.331 439.833,-355.497 443.667,-355.497 443.667,-355.497 580.333,-355.497 580.333,-355.497 584.167,-355.497 588,-359.331 588,-363.164 588,-363.164 588,-370.831 588,-370.831 588,-374.664 584.167,-378.497 580.333,-378.497"/>
<text text-anchor="middle" x="512" y="-363.297" font-family="Arial" font-size="14.00" fill="#cfffac">components/output.js</text>
</g>
<!-- components/appRoot.js&#45;&gt;components/output.js -->
<g id="edge7" class="edge"><title>components/appRoot.js&#45;&gt;components/output.js</title>
<path fill="none" stroke="#757575" d="M268.499,-296.647C295.992,-310.41 344.258,-333.067 388,-345.997 400.048,-349.559 412.951,-352.584 425.701,-355.134"/>
<polygon fill="#757575" stroke="#757575" points="425.396,-358.639 435.875,-357.078 426.71,-351.764 425.396,-358.639"/>
</g>
<!-- components/statBar.js -->
<g id="node11" class="node"><title>components/statBar.js</title>
<path fill="none" stroke="#c6c5fe" d="M583.333,-214.497C583.333,-214.497 440.667,-214.497 440.667,-214.497 436.833,-214.497 433,-210.664 433,-206.831 433,-206.831 433,-199.164 433,-199.164 433,-195.331 436.833,-191.497 440.667,-191.497 440.667,-191.497 583.333,-191.497 583.333,-191.497 587.167,-191.497 591,-195.331 591,-199.164 591,-199.164 591,-206.831 591,-206.831 591,-210.664 587.167,-214.497 583.333,-214.497"/>
<text text-anchor="middle" x="512" y="-199.297" font-family="Arial" font-size="14.00" fill="#c6c5fe">components/statBar.js</text>
</g>
<!-- components/appRoot.js&#45;&gt;components/statBar.js -->
<g id="edge8" class="edge"><title>components/appRoot.js&#45;&gt;components/statBar.js</title>
<path fill="none" stroke="#757575" d="M267.975,-273.329C295.34,-259.291 343.875,-235.993 388,-222.997 399.187,-219.702 411.117,-216.908 422.98,-214.55"/>
<polygon fill="#757575" stroke="#757575" points="423.738,-217.969 432.912,-212.67 422.436,-211.091 423.738,-217.969"/>
</g>
<!-- components/buttonGrid.js -->
<g id="node13" class="node"><title>components/buttonGrid.js</title>
<path fill="none" stroke="#c6c5fe" d="M851.333,-296.497C851.333,-296.497 687.667,-296.497 687.667,-296.497 683.833,-296.497 680,-292.664 680,-288.831 680,-288.831 680,-281.164 680,-281.164 680,-277.331 683.833,-273.497 687.667,-273.497 687.667,-273.497 851.333,-273.497 851.333,-273.497 855.167,-273.497 859,-277.331 859,-281.164 859,-281.164 859,-288.831 859,-288.831 859,-292.664 855.167,-296.497 851.333,-296.497"/>
<text text-anchor="middle" x="769.5" y="-281.297" font-family="Arial" font-size="14.00" fill="#c6c5fe">components/buttonGrid.js</text>
</g>
<!-- components/lowerButtons.js&#45;&gt;components/buttonGrid.js -->
<g id="edge13" class="edge"><title>components/lowerButtons.js&#45;&gt;components/buttonGrid.js</title>
<path fill="none" stroke="#757575" d="M609.594,-284.997C629.209,-284.997 649.868,-284.997 669.562,-284.997"/>
<polygon fill="#757575" stroke="#757575" points="669.763,-288.497 679.763,-284.997 669.763,-281.497 669.763,-288.497"/>
</g>
<!-- components/menuBar.js&#45;&gt;components/buttonGrid.js -->
<g id="edge14" class="edge"><title>components/menuBar.js&#45;&gt;components/buttonGrid.js</title>
<path fill="none" stroke="#757575" d="M584.851,-314.467C616.552,-309.38 653.974,-303.375 686.739,-298.117"/>
<polygon fill="#757575" stroke="#757575" points="687.427,-301.552 696.746,-296.512 686.318,-294.64 687.427,-301.552"/>
</g>
<!-- components/spriteDisplay.js -->
<g id="node15" class="node"><title>components/spriteDisplay.js</title>
<path fill="none" stroke="#cfffac" d="M859.333,-214.497C859.333,-214.497 679.667,-214.497 679.667,-214.497 675.833,-214.497 672,-210.664 672,-206.831 672,-206.831 672,-199.164 672,-199.164 672,-195.331 675.833,-191.497 679.667,-191.497 679.667,-191.497 859.333,-191.497 859.333,-191.497 863.167,-191.497 867,-195.331 867,-199.164 867,-199.164 867,-206.831 867,-206.831 867,-210.664 863.167,-214.497 859.333,-214.497"/>
<text text-anchor="middle" x="769.5" y="-199.297" font-family="Arial" font-size="14.00" fill="#cfffac">components/spriteDisplay.js</text>
</g>
<!-- components/statBar.js&#45;&gt;components/spriteDisplay.js -->
<g id="edge15" class="edge"><title>components/statBar.js&#45;&gt;components/spriteDisplay.js</title>
<path fill="none" stroke="#757575" d="M591.047,-202.997C613.39,-202.997 638.136,-202.997 661.881,-202.997"/>
<polygon fill="#757575" stroke="#757575" points="661.986,-206.497 671.986,-202.997 661.986,-199.497 661.986,-206.497"/>
</g>
<!-- components/statDisplay.js -->
<g id="node16" class="node"><title>components/statDisplay.js</title>
<path fill="none" stroke="#cfffac" d="M852.833,-173.497C852.833,-173.497 686.167,-173.497 686.167,-173.497 682.333,-173.497 678.5,-169.664 678.5,-165.831 678.5,-165.831 678.5,-158.164 678.5,-158.164 678.5,-154.331 682.333,-150.497 686.167,-150.497 686.167,-150.497 852.833,-150.497 852.833,-150.497 856.667,-150.497 860.5,-154.331 860.5,-158.164 860.5,-158.164 860.5,-165.831 860.5,-165.831 860.5,-169.664 856.667,-173.497 852.833,-173.497"/>
<text text-anchor="middle" x="769.5" y="-158.297" font-family="Arial" font-size="14.00" fill="#cfffac">components/statDisplay.js</text>
</g>
<!-- components/statBar.js&#45;&gt;components/statDisplay.js -->
<g id="edge16" class="edge"><title>components/statBar.js&#45;&gt;components/statDisplay.js</title>
<path fill="none" stroke="#757575" d="M584.851,-191.467C616.552,-186.38 653.974,-180.375 686.739,-175.117"/>
<polygon fill="#757575" stroke="#757575" points="687.427,-178.552 696.746,-173.512 686.318,-171.64 687.427,-178.552"/>
</g>
<!-- components/timeDisplay.js -->
<g id="node17" class="node"><title>components/timeDisplay.js</title>
<path fill="none" stroke="#cfffac" d="M855.333,-255.497C855.333,-255.497 683.667,-255.497 683.667,-255.497 679.833,-255.497 676,-251.664 676,-247.831 676,-247.831 676,-240.164 676,-240.164 676,-236.331 679.833,-232.497 683.667,-232.497 683.667,-232.497 855.333,-232.497 855.333,-232.497 859.167,-232.497 863,-236.331 863,-240.164 863,-240.164 863,-247.831 863,-247.831 863,-251.664 859.167,-255.497 855.333,-255.497"/>
<text text-anchor="middle" x="769.5" y="-240.297" font-family="Arial" font-size="14.00" fill="#cfffac">components/timeDisplay.js</text>
</g>
<!-- components/statBar.js&#45;&gt;components/timeDisplay.js -->
<g id="edge17" class="edge"><title>components/statBar.js&#45;&gt;components/timeDisplay.js</title>
<path fill="none" stroke="#757575" d="M584.851,-214.527C616.552,-219.614 653.974,-225.619 686.739,-230.877"/>
<polygon fill="#757575" stroke="#757575" points="686.318,-234.354 696.746,-232.483 687.427,-227.443 686.318,-234.354"/>
</g>
<!-- components/button.js -->
<g id="node12" class="node"><title>components/button.js</title>
<path fill="none" stroke="#cfffac" d="M1362.83,-245.497C1362.83,-245.497 1226.17,-245.497 1226.17,-245.497 1222.33,-245.497 1218.5,-241.664 1218.5,-237.831 1218.5,-237.831 1218.5,-230.164 1218.5,-230.164 1218.5,-226.331 1222.33,-222.497 1226.17,-222.497 1226.17,-222.497 1362.83,-222.497 1362.83,-222.497 1366.67,-222.497 1370.5,-226.331 1370.5,-230.164 1370.5,-230.164 1370.5,-237.831 1370.5,-237.831 1370.5,-241.664 1366.67,-245.497 1362.83,-245.497"/>
<text text-anchor="middle" x="1294.5" y="-230.297" font-family="Arial" font-size="14.00" fill="#cfffac">components/button.js</text>
</g>
<!-- components/buttonGrid.js&#45;&gt;actions/Core.js -->
<g id="edge9" class="edge"><title>components/buttonGrid.js&#45;&gt;actions/Core.js</title>
<path fill="none" stroke="#757575" d="M790.017,-296.699C832.137,-321.954 931.703,-381.652 980.727,-411.046"/>
<polygon fill="#757575" stroke="#757575" points="979.171,-414.193 989.547,-416.334 982.771,-408.19 979.171,-414.193"/>
</g>
<!-- components/buttonGrid.js&#45;&gt;actions/UI.js -->
<g id="edge10" class="edge"><title>components/buttonGrid.js&#45;&gt;actions/UI.js</title>
<path fill="none" stroke="#757575" d="M859.277,-284.215C1023.79,-282.468 1387.14,-277.218 1693,-262.997 1779.28,-258.985 1879.18,-251.529 1940.09,-246.667"/>
<polygon fill="#757575" stroke="#757575" points="1940.57,-250.139 1950.26,-245.85 1940.01,-243.162 1940.57,-250.139"/>
</g>
<!-- components/buttonWrap.js -->
<g id="node14" class="node"><title>components/buttonWrap.js</title>
<path fill="none" stroke="#c6c5fe" d="M1095.83,-213.497C1095.83,-213.497 924.167,-213.497 924.167,-213.497 920.333,-213.497 916.5,-209.664 916.5,-205.831 916.5,-205.831 916.5,-198.164 916.5,-198.164 916.5,-194.331 920.333,-190.497 924.167,-190.497 924.167,-190.497 1095.83,-190.497 1095.83,-190.497 1099.67,-190.497 1103.5,-194.331 1103.5,-198.164 1103.5,-198.164 1103.5,-205.831 1103.5,-205.831 1103.5,-209.664 1099.67,-213.497 1095.83,-213.497"/>
<text text-anchor="middle" x="1010" y="-198.297" font-family="Arial" font-size="14.00" fill="#c6c5fe">components/buttonWrap.js</text>
</g>
<!-- components/buttonGrid.js&#45;&gt;components/buttonWrap.js -->
<g id="edge11" class="edge"><title>components/buttonGrid.js&#45;&gt;components/buttonWrap.js</title>
<path fill="none" stroke="#757575" d="M846.6,-273.425C853.743,-270.879 860.67,-267.776 867,-263.997 888.11,-251.394 881.717,-234.305 903,-221.997 905.878,-220.333 908.866,-218.804 911.935,-217.398"/>
<polygon fill="#757575" stroke="#757575" points="913.429,-220.569 921.359,-213.542 910.778,-214.09 913.429,-220.569"/>
</g>
<!-- components/buttonWrap.js&#45;&gt;components/button.js -->
<g id="edge12" class="edge"><title>components/buttonWrap.js&#45;&gt;components/button.js</title>
<path fill="none" stroke="#757575" d="M1103.5,-212.475C1137.19,-216.291 1175.09,-220.585 1208.13,-224.327"/>
<polygon fill="#757575" stroke="#757575" points="1207.89,-227.822 1218.22,-225.47 1208.68,-220.866 1207.89,-227.822"/>
</g>
<!-- components/tests/button.test.js -->
<g id="node18" class="node"><title>components/tests/button.test.js</title>
<path fill="none" stroke="#c6c5fe" d="M1109.33,-254.497C1109.33,-254.497 910.667,-254.497 910.667,-254.497 906.833,-254.497 903,-250.664 903,-246.831 903,-246.831 903,-239.164 903,-239.164 903,-235.331 906.833,-231.497 910.667,-231.497 910.667,-231.497 1109.33,-231.497 1109.33,-231.497 1113.17,-231.497 1117,-235.331 1117,-239.164 1117,-239.164 1117,-246.831 1117,-246.831 1117,-250.664 1113.17,-254.497 1109.33,-254.497"/>
<text text-anchor="middle" x="1010" y="-239.297" font-family="Arial" font-size="14.00" fill="#c6c5fe">components/tests/button.test.js</text>
</g>
<!-- components/tests/button.test.js&#45;&gt;components/button.js -->
<g id="edge18" class="edge"><title>components/tests/button.test.js&#45;&gt;components/button.js</title>
<path fill="none" stroke="#757575" d="M1117.4,-239.608C1147.35,-238.653 1179.53,-237.628 1208.08,-236.719"/>
<polygon fill="#757575" stroke="#757575" points="1208.54,-240.206 1218.42,-236.389 1208.32,-233.209 1208.54,-240.206"/>
</g>
<!-- components/tests/output.test.js -->
<g id="node19" class="node"><title>components/tests/output.test.js</title>
<path fill="none" stroke="#c6c5fe" d="M344.333,-378.497C344.333,-378.497 145.667,-378.497 145.667,-378.497 141.833,-378.497 138,-374.664 138,-370.831 138,-370.831 138,-363.164 138,-363.164 138,-359.331 141.833,-355.497 145.667,-355.497 145.667,-355.497 344.333,-355.497 344.333,-355.497 348.167,-355.497 352,-359.331 352,-363.164 352,-363.164 352,-370.831 352,-370.831 352,-374.664 348.167,-378.497 344.333,-378.497"/>
<text text-anchor="middle" x="245" y="-363.297" font-family="Arial" font-size="14.00" fill="#c6c5fe">components/tests/output.test.js</text>
</g>
<!-- components/tests/output.test.js&#45;&gt;components/output.js -->
<g id="edge19" class="edge"><title>components/tests/output.test.js&#45;&gt;components/output.js</title>
<path fill="none" stroke="#757575" d="M352.259,-366.997C376.593,-366.997 402.157,-366.997 425.488,-366.997"/>
<polygon fill="#757575" stroke="#757575" points="425.688,-370.497 435.688,-366.997 425.687,-363.497 425.688,-370.497"/>
</g>
<!-- components/tests/timeDisplay.test.js -->
<g id="node20" class="node"><title>components/tests/timeDisplay.test.js</title>
<path fill="none" stroke="#c6c5fe" d="M628.333,-255.497C628.333,-255.497 395.667,-255.497 395.667,-255.497 391.833,-255.497 388,-251.664 388,-247.831 388,-247.831 388,-240.164 388,-240.164 388,-236.331 391.833,-232.497 395.667,-232.497 395.667,-232.497 628.333,-232.497 628.333,-232.497 632.167,-232.497 636,-236.331 636,-240.164 636,-240.164 636,-247.831 636,-247.831 636,-251.664 632.167,-255.497 628.333,-255.497"/>
<text text-anchor="middle" x="512" y="-240.297" font-family="Arial" font-size="14.00" fill="#c6c5fe">components/tests/timeDisplay.test.js</text>
</g>
<!-- components/tests/timeDisplay.test.js&#45;&gt;components/timeDisplay.js -->
<g id="edge20" class="edge"><title>components/tests/timeDisplay.test.js&#45;&gt;components/timeDisplay.js</title>
<path fill="none" stroke="#757575" d="M636.26,-243.997C646.109,-243.997 655.995,-243.997 665.682,-243.997"/>
<polygon fill="#757575" stroke="#757575" points="665.694,-247.497 675.694,-243.997 665.694,-240.497 665.694,-247.497"/>
</g>
<!-- index.js -->
<g id="node21" class="node"><title>index.js</title>
<path fill="none" stroke="#c6c5fe" d="M75.8333,-245.497C75.8333,-245.497 26.1667,-245.497 26.1667,-245.497 22.3333,-245.497 18.5,-241.664 18.5,-237.831 18.5,-237.831 18.5,-230.164 18.5,-230.164 18.5,-226.331 22.3333,-222.497 26.1667,-222.497 26.1667,-222.497 75.8333,-222.497 75.8333,-222.497 79.6667,-222.497 83.5,-226.331 83.5,-230.164 83.5,-230.164 83.5,-237.831 83.5,-237.831 83.5,-241.664 79.6667,-245.497 75.8333,-245.497"/>
<text text-anchor="middle" x="51" y="-230.297" font-family="Arial" font-size="14.00" fill="#c6c5fe">index.js</text>
</g>
<!-- index.js&#45;&gt;components/appRoot.js -->
<g id="edge21" class="edge"><title>index.js&#45;&gt;components/appRoot.js</title>
<path fill="none" stroke="#757575" d="M83.7049,-242.419C112.69,-250.118 156.148,-261.662 190.505,-270.788"/>
<polygon fill="#757575" stroke="#757575" points="189.828,-274.229 200.391,-273.414 191.625,-267.464 189.828,-274.229"/>
</g>
<!-- store/store.js -->
<g id="node22" class="node"><title>store/store.js</title>
<path fill="none" stroke="#c6c5fe" d="M286.833,-194.497C286.833,-194.497 203.167,-194.497 203.167,-194.497 199.333,-194.497 195.5,-190.664 195.5,-186.831 195.5,-186.831 195.5,-179.164 195.5,-179.164 195.5,-175.331 199.333,-171.497 203.167,-171.497 203.167,-171.497 286.833,-171.497 286.833,-171.497 290.667,-171.497 294.5,-175.331 294.5,-179.164 294.5,-179.164 294.5,-186.831 294.5,-186.831 294.5,-190.664 290.667,-194.497 286.833,-194.497"/>
<text text-anchor="middle" x="245" y="-179.297" font-family="Arial" font-size="14.00" fill="#c6c5fe">store/store.js</text>
</g>
<!-- index.js&#45;&gt;store/store.js -->
<g id="edge22" class="edge"><title>index.js&#45;&gt;store/store.js</title>
<path fill="none" stroke="#757575" d="M83.7049,-225.576C112.69,-217.876 156.148,-206.333 190.505,-197.207"/>
<polygon fill="#757575" stroke="#757575" points="191.625,-200.531 200.391,-194.581 189.828,-193.765 191.625,-200.531"/>
</g>
<!-- reducers/root.js -->
<g id="node23" class="node"><title>reducers/root.js</title>
<path fill="none" stroke="#c6c5fe" d="M1344.83,-135.497C1344.83,-135.497 1244.17,-135.497 1244.17,-135.497 1240.33,-135.497 1236.5,-131.664 1236.5,-127.831 1236.5,-127.831 1236.5,-120.164 1236.5,-120.164 1236.5,-116.331 1240.33,-112.497 1244.17,-112.497 1244.17,-112.497 1344.83,-112.497 1344.83,-112.497 1348.67,-112.497 1352.5,-116.331 1352.5,-120.164 1352.5,-120.164 1352.5,-127.831 1352.5,-127.831 1352.5,-131.664 1348.67,-135.497 1344.83,-135.497"/>
<text text-anchor="middle" x="1294.5" y="-120.297" font-family="Arial" font-size="14.00" fill="#c6c5fe">reducers/root.js</text>
</g>
<!-- store/store.js&#45;&gt;reducers/root.js -->
<g id="edge51" class="edge"><title>store/store.js&#45;&gt;reducers/root.js</title>
<path fill="none" stroke="#757575" d="M294.784,-177.051C373.854,-167.669 534.97,-149.615 672,-140.997 873.357,-128.333 1112,-125.099 1226.14,-124.276"/>
<polygon fill="#757575" stroke="#757575" points="1226.48,-127.774 1236.46,-124.206 1226.43,-120.774 1226.48,-127.774"/>
</g>
<!-- reducers/root.js&#45;&gt;actions/UI.js -->
<g id="edge23" class="edge"><title>reducers/root.js&#45;&gt;actions/UI.js</title>
<path fill="none" stroke="#757575" d="M1352.5,-130C1378.85,-134.3 1409.99,-141.616 1436,-153.997 1454.55,-162.827 1453.04,-175.09 1472,-182.997 1514.47,-200.706 1813.16,-226.945 1939.88,-237.429"/>
<polygon fill="#757575" stroke="#757575" points="1939.9,-240.942 1950.15,-238.275 1940.47,-233.965 1939.9,-240.942"/>
</g>
<!-- reducers/updateLowerButtons.js -->
<g id="node24" class="node"><title>reducers/updateLowerButtons.js</title>
<path fill="none" stroke="#c6c5fe" d="M1685.33,-94.4972C1685.33,-94.4972 1479.67,-94.4972 1479.67,-94.4972 1475.83,-94.4972 1472,-90.6639 1472,-86.8305 1472,-86.8305 1472,-79.1639 1472,-79.1639 1472,-75.3305 1475.83,-71.4972 1479.67,-71.4972 1479.67,-71.4972 1685.33,-71.4972 1685.33,-71.4972 1689.17,-71.4972 1693,-75.3305 1693,-79.1639 1693,-79.1639 1693,-86.8305 1693,-86.8305 1693,-90.6639 1689.17,-94.4972 1685.33,-94.4972"/>
<text text-anchor="middle" x="1582.5" y="-79.2972" font-family="Arial" font-size="14.00" fill="#c6c5fe">reducers/updateLowerButtons.js</text>
</g>
<!-- reducers/root.js&#45;&gt;reducers/updateLowerButtons.js -->
<g id="edge24" class="edge"><title>reducers/root.js&#45;&gt;reducers/updateLowerButtons.js</title>
<path fill="none" stroke="#757575" d="M1352.69,-115.799C1392.24,-110.128 1445.7,-102.465 1490.99,-95.9719"/>
<polygon fill="#757575" stroke="#757575" points="1491.72,-99.4038 1501.12,-94.5201 1490.73,-92.4746 1491.72,-99.4038"/>
</g>
<!-- reducers/updateMenuBar.js -->
<g id="node25" class="node"><title>reducers/updateMenuBar.js</title>
<path fill="none" stroke="#c6c5fe" d="M1670.33,-174.497C1670.33,-174.497 1494.67,-174.497 1494.67,-174.497 1490.83,-174.497 1487,-170.664 1487,-166.831 1487,-166.831 1487,-159.164 1487,-159.164 1487,-155.331 1490.83,-151.497 1494.67,-151.497 1494.67,-151.497 1670.33,-151.497 1670.33,-151.497 1674.17,-151.497 1678,-155.331 1678,-159.164 1678,-159.164 1678,-166.831 1678,-166.831 1678,-170.664 1674.17,-174.497 1670.33,-174.497"/>
<text text-anchor="middle" x="1582.5" y="-159.297" font-family="Arial" font-size="14.00" fill="#c6c5fe">reducers/updateMenuBar.js</text>
</g>
<!-- reducers/root.js&#45;&gt;reducers/updateMenuBar.js -->
<g id="edge25" class="edge"><title>reducers/root.js&#45;&gt;reducers/updateMenuBar.js</title>
<path fill="none" stroke="#757575" d="M1352.69,-131.796C1391.11,-137.035 1442.64,-144.061 1487.07,-150.12"/>
<polygon fill="#757575" stroke="#757575" points="1486.64,-153.594 1497.02,-151.477 1487.58,-146.658 1486.64,-153.594"/>
</g>
<!-- reducers/updateStats.js -->
<g id="node26" class="node"><title>reducers/updateStats.js</title>
<path fill="none" stroke="#c6c5fe" d="M1658.33,-53.4972C1658.33,-53.4972 1506.67,-53.4972 1506.67,-53.4972 1502.83,-53.4972 1499,-49.6639 1499,-45.8305 1499,-45.8305 1499,-38.1639 1499,-38.1639 1499,-34.3305 1502.83,-30.4972 1506.67,-30.4972 1506.67,-30.4972 1658.33,-30.4972 1658.33,-30.4972 1662.17,-30.4972 1666,-34.3305 1666,-38.1639 1666,-38.1639 1666,-45.8305 1666,-45.8305 1666,-49.6639 1662.17,-53.4972 1658.33,-53.4972"/>
<text text-anchor="middle" x="1582.5" y="-38.2972" font-family="Arial" font-size="14.00" fill="#c6c5fe">reducers/updateStats.js</text>
</g>
<!-- reducers/root.js&#45;&gt;reducers/updateStats.js -->
<g id="edge26" class="edge"><title>reducers/root.js&#45;&gt;reducers/updateStats.js</title>
<path fill="none" stroke="#757575" d="M1352.72,-124.342C1379.41,-122.34 1410.78,-116.755 1436,-102.997 1457.29,-91.3861 1450.9,-73.9505 1472,-61.9972 1477.46,-58.9028 1483.3,-56.2717 1489.33,-54.0361"/>
<polygon fill="#757575" stroke="#757575" points="1490.56,-57.3163 1498.95,-50.8389 1488.35,-50.6741 1490.56,-57.3163"/>
</g>
<!-- store/initialState.js -->
<g id="node27" class="node"><title>store/initialState.js</title>
<path fill="none" stroke="#c6c5fe" d="M1640.33,-254.497C1640.33,-254.497 1524.67,-254.497 1524.67,-254.497 1520.83,-254.497 1517,-250.664 1517,-246.831 1517,-246.831 1517,-239.164 1517,-239.164 1517,-235.331 1520.83,-231.497 1524.67,-231.497 1524.67,-231.497 1640.33,-231.497 1640.33,-231.497 1644.17,-231.497 1648,-235.331 1648,-239.164 1648,-239.164 1648,-246.831 1648,-246.831 1648,-250.664 1644.17,-254.497 1640.33,-254.497"/>
<text text-anchor="middle" x="1582.5" y="-239.297" font-family="Arial" font-size="14.00" fill="#c6c5fe">store/initialState.js</text>
</g>
<!-- reducers/root.js&#45;&gt;store/initialState.js -->
<g id="edge27" class="edge"><title>reducers/root.js&#45;&gt;store/initialState.js</title>
<path fill="none" stroke="#757575" d="M1352.56,-125.532C1379.99,-128.773 1412.03,-136.487 1436,-153.997 1462.04,-173.023 1446.18,-197.677 1472,-216.997 1482.25,-224.664 1494.42,-230.109 1506.85,-233.968"/>
<polygon fill="#757575" stroke="#757575" points="1506.29,-237.442 1516.86,-236.735 1508.15,-230.696 1506.29,-237.442"/>
</g>
<!-- utils.js -->
<g id="node28" class="node"><title>utils.js</title>
<path fill="none" stroke="#cfffac" d="M1826.83,-113.497C1826.83,-113.497 1786.17,-113.497 1786.17,-113.497 1782.33,-113.497 1778.5,-109.664 1778.5,-105.831 1778.5,-105.831 1778.5,-98.1639 1778.5,-98.1639 1778.5,-94.3305 1782.33,-90.4972 1786.17,-90.4972 1786.17,-90.4972 1826.83,-90.4972 1826.83,-90.4972 1830.67,-90.4972 1834.5,-94.3305 1834.5,-98.1639 1834.5,-98.1639 1834.5,-105.831 1834.5,-105.831 1834.5,-109.664 1830.67,-113.497 1826.83,-113.497"/>
<text text-anchor="middle" x="1806.5" y="-98.2972" font-family="Arial" font-size="14.00" fill="#cfffac">utils.js</text>
</g>
<!-- reducers/root.js&#45;&gt;utils.js -->
<g id="edge28" class="edge"><title>reducers/root.js&#45;&gt;utils.js</title>
<path fill="none" stroke="#757575" d="M1352.52,-121.538C1457.8,-116.996 1679.99,-107.411 1768.23,-103.605"/>
<polygon fill="#757575" stroke="#757575" points="1768.47,-107.098 1778.31,-103.17 1768.17,-100.104 1768.47,-107.098"/>
</g>
<!-- reducers/updateLowerButtons.js&#45;&gt;utils.js -->
<g id="edge35" class="edge"><title>reducers/updateLowerButtons.js&#45;&gt;utils.js</title>
<path fill="none" stroke="#757575" d="M1693.2,-92.3859C1720.3,-94.7053 1747.5,-97.0336 1768.35,-98.8176"/>
<polygon fill="#757575" stroke="#757575" points="1768.08,-102.307 1778.34,-99.6725 1768.67,-95.3324 1768.08,-102.307"/>
</g>
<!-- reducers/updateMenuBar.js&#45;&gt;utils.js -->
<g id="edge36" class="edge"><title>reducers/updateMenuBar.js&#45;&gt;utils.js</title>
<path fill="none" stroke="#757575" d="M1635.21,-151.486C1653.53,-147.205 1674.25,-142.134 1693,-136.997 1718.49,-130.015 1746.91,-121.164 1768.81,-114.111"/>
<polygon fill="#757575" stroke="#757575" points="1769.94,-117.422 1778.37,-111.009 1767.78,-110.763 1769.94,-117.422"/>
</g>
<!-- reducers/updateStats.js&#45;&gt;utils.js -->
<g id="edge37" class="edge"><title>reducers/updateStats.js&#45;&gt;utils.js</title>
<path fill="none" stroke="#757575" d="M1656.02,-53.5418C1668.43,-56.002 1681.14,-58.829 1693,-61.9972 1718.7,-68.8659 1746.91,-78.9013 1768.65,-87.2017"/>
<polygon fill="#757575" stroke="#757575" points="1767.56,-90.5335 1778.15,-90.8757 1770.09,-84.0046 1767.56,-90.5335"/>
</g>
<!-- store/initialState.js&#45;&gt;scenes/menus.js -->
<g id="edge50" class="edge"><title>store/initialState.js&#45;&gt;scenes/menus.js</title>
<path fill="none" stroke="#757575" d="M1616.26,-254.506C1655.2,-268.188 1720.27,-291.053 1763.04,-306.08"/>
<polygon fill="#757575" stroke="#757575" points="1762.01,-309.428 1772.61,-309.441 1764.33,-302.824 1762.01,-309.428"/>
</g>
<!-- reducers/tests/root.test.js -->
<g id="node29" class="node"><title>reducers/tests/root.test.js</title>
<path fill="none" stroke="#c6c5fe" d="M1090.83,-53.4972C1090.83,-53.4972 929.167,-53.4972 929.167,-53.4972 925.333,-53.4972 921.5,-49.6639 921.5,-45.8305 921.5,-45.8305 921.5,-38.1639 921.5,-38.1639 921.5,-34.3305 925.333,-30.4972 929.167,-30.4972 929.167,-30.4972 1090.83,-30.4972 1090.83,-30.4972 1094.67,-30.4972 1098.5,-34.3305 1098.5,-38.1639 1098.5,-38.1639 1098.5,-45.8305 1098.5,-45.8305 1098.5,-49.6639 1094.67,-53.4972 1090.83,-53.4972"/>
<text text-anchor="middle" x="1010" y="-38.2972" font-family="Arial" font-size="14.00" fill="#c6c5fe">reducers/tests/root.test.js</text>
</g>
<!-- reducers/tests/root.test.js&#45;&gt;actions/UI.js -->
<g id="edge29" class="edge"><title>reducers/tests/root.test.js&#45;&gt;actions/UI.js</title>
<path fill="none" stroke="#757575" d="M1075.1,-30.4776C1099.41,-26.6471 1127.4,-22.8799 1153,-20.9972 1392.35,-3.39426 1455.77,15.3869 1693,-20.9972 1780.95,-34.4865 1812.24,-28.3862 1884,-80.9972 1935.09,-118.454 1971.28,-186.337 1987.28,-220.758"/>
<polygon fill="#757575" stroke="#757575" points="1984.29,-222.626 1991.6,-230.295 1990.66,-219.741 1984.29,-222.626"/>
</g>
<!-- reducers/tests/root.test.js&#45;&gt;reducers/root.js -->
<g id="edge30" class="edge"><title>reducers/tests/root.test.js&#45;&gt;reducers/root.js</title>
<path fill="none" stroke="#757575" d="M1032.97,-53.5556C1060.34,-67.4463 1108.87,-90.4476 1153,-102.997 1176.45,-109.667 1202.75,-114.317 1226.19,-117.513"/>
<polygon fill="#757575" stroke="#757575" points="1226.02,-121.021 1236.39,-118.838 1226.93,-114.079 1226.02,-121.021"/>
</g>
<!-- reducers/tests/updateLowerButtons.test.js -->
<g id="node30" class="node"><title>reducers/tests/updateLowerButtons.test.js</title>
<path fill="none" stroke="#c6c5fe" d="M1428.33,-94.4972C1428.33,-94.4972 1160.67,-94.4972 1160.67,-94.4972 1156.83,-94.4972 1153,-90.6639 1153,-86.8305 1153,-86.8305 1153,-79.1639 1153,-79.1639 1153,-75.3305 1156.83,-71.4972 1160.67,-71.4972 1160.67,-71.4972 1428.33,-71.4972 1428.33,-71.4972 1432.17,-71.4972 1436,-75.3305 1436,-79.1639 1436,-79.1639 1436,-86.8305 1436,-86.8305 1436,-90.6639 1432.17,-94.4972 1428.33,-94.4972"/>
<text text-anchor="middle" x="1294.5" y="-79.2972" font-family="Arial" font-size="14.00" fill="#c6c5fe">reducers/tests/updateLowerButtons.test.js</text>
</g>
<!-- reducers/tests/updateLowerButtons.test.js&#45;&gt;reducers/updateLowerButtons.js -->
<g id="edge31" class="edge"><title>reducers/tests/updateLowerButtons.test.js&#45;&gt;reducers/updateLowerButtons.js</title>
<path fill="none" stroke="#757575" d="M1436.41,-82.9972C1444.83,-82.9972 1453.26,-82.9972 1461.58,-82.9972"/>
<polygon fill="#757575" stroke="#757575" points="1461.67,-86.4973 1471.67,-82.9972 1461.67,-79.4973 1461.67,-86.4973"/>
</g>
<!-- reducers/tests/updateMenuBar.test.js -->
<g id="node31" class="node"><title>reducers/tests/updateMenuBar.test.js</title>
<path fill="none" stroke="#c6c5fe" d="M1412.83,-186.497C1412.83,-186.497 1176.17,-186.497 1176.17,-186.497 1172.33,-186.497 1168.5,-182.664 1168.5,-178.831 1168.5,-178.831 1168.5,-171.164 1168.5,-171.164 1168.5,-167.331 1172.33,-163.497 1176.17,-163.497 1176.17,-163.497 1412.83,-163.497 1412.83,-163.497 1416.67,-163.497 1420.5,-167.331 1420.5,-171.164 1420.5,-171.164 1420.5,-178.831 1420.5,-178.831 1420.5,-182.664 1416.67,-186.497 1412.83,-186.497"/>
<text text-anchor="middle" x="1294.5" y="-171.297" font-family="Arial" font-size="14.00" fill="#c6c5fe">reducers/tests/updateMenuBar.test.js</text>
</g>
<!-- reducers/tests/updateMenuBar.test.js&#45;&gt;reducers/updateMenuBar.js -->
<g id="edge32" class="edge"><title>reducers/tests/updateMenuBar.test.js&#45;&gt;reducers/updateMenuBar.js</title>
<path fill="none" stroke="#757575" d="M1420.53,-169.751C1439.3,-168.964 1458.49,-168.159 1476.78,-167.391"/>
<polygon fill="#757575" stroke="#757575" points="1476.99,-170.885 1486.83,-166.969 1476.7,-163.892 1476.99,-170.885"/>
</g>
<!-- reducers/tests/updateMenuBar.test.js&#45;&gt;scenes/menus.js -->
<g id="edge33" class="edge"><title>reducers/tests/updateMenuBar.test.js&#45;&gt;scenes/menus.js</title>
<path fill="none" stroke="#757575" d="M1375.08,-186.553C1396.16,-192.186 1418.03,-200.557 1436,-212.997 1458.52,-228.582 1448.79,-248.464 1472,-262.997 1551.87,-313.016 1662.54,-323.129 1734.09,-323.704"/>
<polygon fill="#757575" stroke="#757575" points="1734.34,-327.204 1744.35,-323.723 1734.36,-320.204 1734.34,-327.204"/>
</g>
<!-- scenes/menus.js&#45;&gt;actions/UI.js -->
<g id="edge42" class="edge"><title>scenes/menus.js&#45;&gt;actions/UI.js</title>
<path fill="none" stroke="#757575" d="M1844.39,-309.395C1857.06,-305.164 1871.25,-300.147 1884,-294.997 1911.85,-283.746 1942.66,-269.07 1964.98,-258.016"/>
<polygon fill="#757575" stroke="#757575" points="1966.61,-261.115 1973.99,-253.52 1963.48,-254.851 1966.61,-261.115"/>
</g>
<!-- scenes/menus.js&#45;&gt;scenes/sceneSymbols.js -->
<g id="edge44" class="edge"><title>scenes/menus.js&#45;&gt;scenes/sceneSymbols.js</title>
<path fill="none" stroke="#757575" d="M1868.72,-328.994C1923.72,-337.251 2006.19,-352.305 2075,-375.997 2108.97,-387.694 2145.59,-406.766 2169.95,-420.473"/>
<polygon fill="#757575" stroke="#757575" points="2168.23,-423.524 2178.65,-425.436 2171.7,-417.443 2168.23,-423.524"/>
</g>
<!-- scenes/sceneStore.js -->
<g id="node35" class="node"><title>scenes/sceneStore.js</title>
<path fill="none" stroke="#c6c5fe" d="M2067.33,-408.497C2067.33,-408.497 1927.67,-408.497 1927.67,-408.497 1923.83,-408.497 1920,-404.664 1920,-400.831 1920,-400.831 1920,-393.164 1920,-393.164 1920,-389.331 1923.83,-385.497 1927.67,-385.497 1927.67,-385.497 2067.33,-385.497 2067.33,-385.497 2071.17,-385.497 2075,-389.331 2075,-393.164 2075,-393.164 2075,-400.831 2075,-400.831 2075,-404.664 2071.17,-408.497 2067.33,-408.497"/>
<text text-anchor="middle" x="1997.5" y="-393.297" font-family="Arial" font-size="14.00" fill="#c6c5fe">scenes/sceneStore.js</text>
</g>
<!-- scenes/menus.js&#45;&gt;scenes/sceneStore.js -->
<g id="edge43" class="edge"><title>scenes/menus.js&#45;&gt;scenes/sceneStore.js</title>
<path fill="none" stroke="#757575" d="M1836.21,-332.54C1868.77,-345.635 1922.03,-367.051 1958.14,-381.571"/>
<polygon fill="#757575" stroke="#757575" points="1957.25,-384.987 1967.84,-385.471 1959.86,-378.492 1957.25,-384.987"/>
</g>
<!-- reducers/tests/updateStats.test.js -->
<g id="node33" class="node"><title>reducers/tests/updateStats.test.js</title>
<path fill="none" stroke="#c6c5fe" d="M1400.83,-53.4972C1400.83,-53.4972 1188.17,-53.4972 1188.17,-53.4972 1184.33,-53.4972 1180.5,-49.6639 1180.5,-45.8305 1180.5,-45.8305 1180.5,-38.1639 1180.5,-38.1639 1180.5,-34.3305 1184.33,-30.4972 1188.17,-30.4972 1188.17,-30.4972 1400.83,-30.4972 1400.83,-30.4972 1404.67,-30.4972 1408.5,-34.3305 1408.5,-38.1639 1408.5,-38.1639 1408.5,-45.8305 1408.5,-45.8305 1408.5,-49.6639 1404.67,-53.4972 1400.83,-53.4972"/>
<text text-anchor="middle" x="1294.5" y="-38.2972" font-family="Arial" font-size="14.00" fill="#c6c5fe">reducers/tests/updateStats.test.js</text>
</g>
<!-- reducers/tests/updateStats.test.js&#45;&gt;reducers/updateStats.js -->
<g id="edge34" class="edge"><title>reducers/tests/updateStats.test.js&#45;&gt;reducers/updateStats.js</title>
<path fill="none" stroke="#757575" d="M1408.53,-41.9972C1435.14,-41.9972 1463.19,-41.9972 1488.78,-41.9972"/>
<polygon fill="#757575" stroke="#757575" points="1488.83,-45.4973 1498.83,-41.9972 1488.83,-38.4973 1488.83,-45.4973"/>
</g>
<!-- scenes/charCreation.js&#45;&gt;actions/UI.js -->
<g id="edge38" class="edge"><title>scenes/charCreation.js&#45;&gt;actions/UI.js</title>
<path fill="none" stroke="#757575" d="M1663.05,-395.061C1725.81,-389.325 1814.12,-375.286 1884,-340.997 1923.73,-321.502 1960.33,-284.202 1980.42,-261.368"/>
<polygon fill="#757575" stroke="#757575" points="1983.18,-263.531 1987.05,-253.67 1977.88,-258.964 1983.18,-263.531"/>
</g>
<!-- scenes/charCreation.js&#45;&gt;scenes/sceneSymbols.js -->
<g id="edge41" class="edge"><title>scenes/charCreation.js&#45;&gt;scenes/sceneSymbols.js</title>
<path fill="none" stroke="#757575" d="M1663.13,-406.631C1684.51,-408.539 1707.62,-410.473 1729,-411.997 1857.3,-421.146 2005.57,-428.512 2100.48,-432.819"/>
<polygon fill="#757575" stroke="#757575" points="2100.49,-436.323 2110.64,-433.278 2100.81,-429.33 2100.49,-436.323"/>
</g>
<!-- scenes/charCreation.js&#45;&gt;scenes/menus.js -->
<g id="edge39" class="edge"><title>scenes/charCreation.js&#45;&gt;scenes/menus.js</title>
<path fill="none" stroke="#757575" d="M1650.62,-387.458C1664.96,-383.791 1679.76,-379.056 1693,-372.997 1710.95,-364.782 1711.46,-356.051 1729,-346.997 1736.97,-342.883 1745.73,-339.202 1754.39,-335.995"/>
<polygon fill="#757575" stroke="#757575" points="1755.81,-339.205 1764.08,-332.577 1753.48,-332.604 1755.81,-339.205"/>
</g>
<!-- scenes/charCreation.js&#45;&gt;scenes/sceneStore.js -->
<g id="edge40" class="edge"><title>scenes/charCreation.js&#45;&gt;scenes/sceneStore.js</title>
<path fill="none" stroke="#757575" d="M1663.13,-398.612C1733.87,-398.269 1837.05,-397.769 1909.84,-397.417"/>
<polygon fill="#757575" stroke="#757575" points="1909.92,-400.917 1919.91,-397.368 1909.89,-393.917 1909.92,-400.917"/>
</g>
<!-- scenes/sceneStore.js&#45;&gt;scenes/sceneSymbols.js -->
<g id="edge49" class="edge"><title>scenes/sceneStore.js&#45;&gt;scenes/sceneSymbols.js</title>
<path fill="none" stroke="#757575" d="M2055.94,-408.513C2079.31,-413.199 2106.48,-418.648 2130.77,-423.517"/>
<polygon fill="#757575" stroke="#757575" points="2130.13,-426.959 2140.62,-425.493 2131.51,-420.096 2130.13,-426.959"/>
</g>
<!-- setupTests.js -->
<g id="node37" class="node"><title>setupTests.js</title>
<path fill="none" stroke="#cfffac" d="M94.3333,-286.497C94.3333,-286.497 7.66667,-286.497 7.66667,-286.497 3.83333,-286.497 0,-282.664 0,-278.831 0,-278.831 0,-271.164 0,-271.164 0,-267.331 3.83333,-263.497 7.66667,-263.497 7.66667,-263.497 94.3333,-263.497 94.3333,-263.497 98.1667,-263.497 102,-267.331 102,-271.164 102,-271.164 102,-278.831 102,-278.831 102,-282.664 98.1667,-286.497 94.3333,-286.497"/>
<text text-anchor="middle" x="51" y="-271.297" font-family="Arial" font-size="14.00" fill="#cfffac">setupTests.js</text>
</g>
</g>
</svg>
