<?xml version="1.0" encoding="UTF-8" standalone="no"?>
<!DOCTYPE svg PUBLIC "-//W3C//DTD SVG 1.1//EN"
 "http://www.w3.org/Graphics/SVG/1.1/DTD/svg11.dtd">
<!-- Generated by graphviz version 2.38.0 (20140413.2041)
 -->
<!-- Title: G Pages: 1 -->
<svg width="3400pt" height="1077pt"
 viewBox="0.00 0.00 3400.20 1076.81" xmlns="http://www.w3.org/2000/svg" xmlns:xlink="http://www.w3.org/1999/xlink">
<g id="graph0" class="graph" transform="scale(1 1) rotate(0) translate(21.6 1055.21)">
<title>G</title>
<polygon fill="#111111" stroke="none" points="-21.6,21.6 -21.6,-1055.21 3378.6,-1055.21 3378.6,21.6 -21.6,21.6"/>
<!-- actions/Core.js -->
<g id="node1" class="node"><title>actions/Core.js</title>
<path fill="none" stroke="#c6c5fe" d="M2417.83,-639.607C2417.83,-639.607 2322.17,-639.607 2322.17,-639.607 2318.33,-639.607 2314.5,-635.773 2314.5,-631.94 2314.5,-631.94 2314.5,-624.273 2314.5,-624.273 2314.5,-620.44 2318.33,-616.607 2322.17,-616.607 2322.17,-616.607 2417.83,-616.607 2417.83,-616.607 2421.67,-616.607 2425.5,-620.44 2425.5,-624.273 2425.5,-624.273 2425.5,-631.94 2425.5,-631.94 2425.5,-635.773 2421.67,-639.607 2417.83,-639.607"/>
<text text-anchor="middle" x="2370" y="-624.407" font-family="Arial" font-size="14.00" fill="#c6c5fe">actions/Core.js</text>
</g>
<!-- actions/coreMsg.js -->
<g id="node2" class="node"><title>actions/coreMsg.js</title>
<path fill="none" stroke="#cfffac" d="M3236.83,-630.607C3236.83,-630.607 3117.17,-630.607 3117.17,-630.607 3113.33,-630.607 3109.5,-626.773 3109.5,-622.94 3109.5,-622.94 3109.5,-615.273 3109.5,-615.273 3109.5,-611.44 3113.33,-607.607 3117.17,-607.607 3117.17,-607.607 3236.83,-607.607 3236.83,-607.607 3240.67,-607.607 3244.5,-611.44 3244.5,-615.273 3244.5,-615.273 3244.5,-622.94 3244.5,-622.94 3244.5,-626.773 3240.67,-630.607 3236.83,-630.607"/>
<text text-anchor="middle" x="3177" y="-615.407" font-family="Arial" font-size="14.00" fill="#cfffac">actions/coreMsg.js</text>
</g>
<!-- actions/Core.js&#45;&gt;actions/coreMsg.js -->
<g id="edge1" class="edge"><title>actions/Core.js&#45;&gt;actions/coreMsg.js</title>
<path fill="none" stroke="#757575" d="M2425.7,-627.495C2565.68,-625.93 2937.21,-621.776 3098.96,-619.968"/>
<polygon fill="#757575" stroke="#757575" points="3099.34,-623.464 3109.3,-619.852 3099.26,-616.465 3099.34,-623.464"/>
</g>
<!-- store/store.js -->
<g id="node3" class="node"><title>store/store.js</title>
<path fill="none" stroke="#c6c5fe" d="M2592.83,-479.607C2592.83,-479.607 2509.17,-479.607 2509.17,-479.607 2505.33,-479.607 2501.5,-475.773 2501.5,-471.94 2501.5,-471.94 2501.5,-464.273 2501.5,-464.273 2501.5,-460.44 2505.33,-456.607 2509.17,-456.607 2509.17,-456.607 2592.83,-456.607 2592.83,-456.607 2596.67,-456.607 2600.5,-460.44 2600.5,-464.273 2600.5,-464.273 2600.5,-471.94 2600.5,-471.94 2600.5,-475.773 2596.67,-479.607 2592.83,-479.607"/>
<text text-anchor="middle" x="2551" y="-464.407" font-family="Arial" font-size="14.00" fill="#c6c5fe">store/store.js</text>
</g>
<!-- actions/Core.js&#45;&gt;store/store.js -->
<g id="edge2" class="edge"><title>actions/Core.js&#45;&gt;store/store.js</title>
<path fill="none" stroke="#757575" d="M2418.91,-616.492C2428.73,-612.835 2438.62,-608.124 2447,-602.107 2489.83,-571.363 2523.28,-517.76 2539.42,-488.534"/>
<polygon fill="#757575" stroke="#757575" points="2542.55,-490.09 2544.21,-479.625 2536.39,-486.771 2542.55,-490.09"/>
</g>
<!-- reducers/root.js -->
<g id="node35" class="node"><title>reducers/root.js</title>
<path fill="none" stroke="#c6c5fe" d="M2793.33,-487.607C2793.33,-487.607 2692.67,-487.607 2692.67,-487.607 2688.83,-487.607 2685,-483.773 2685,-479.94 2685,-479.94 2685,-472.273 2685,-472.273 2685,-468.44 2688.83,-464.607 2692.67,-464.607 2692.67,-464.607 2793.33,-464.607 2793.33,-464.607 2797.17,-464.607 2801,-468.44 2801,-472.273 2801,-472.273 2801,-479.94 2801,-479.94 2801,-483.773 2797.17,-487.607 2793.33,-487.607"/>
<text text-anchor="middle" x="2743" y="-472.407" font-family="Arial" font-size="14.00" fill="#c6c5fe">reducers/root.js</text>
</g>
<!-- store/store.js&#45;&gt;reducers/root.js -->
<g id="edge96" class="edge"><title>store/store.js&#45;&gt;reducers/root.js</title>
<path fill="none" stroke="#757575" d="M2600.93,-470.167C2623.35,-471.111 2650.28,-472.245 2674.58,-473.268"/>
<polygon fill="#757575" stroke="#757575" points="2674.67,-476.775 2684.81,-473.699 2674.96,-469.781 2674.67,-476.775"/>
</g>
<!-- actions/Enemy.js -->
<g id="node4" class="node"><title>actions/Enemy.js</title>
<path fill="none" stroke="#c6c5fe" d="M2424.33,-363.607C2424.33,-363.607 2315.67,-363.607 2315.67,-363.607 2311.83,-363.607 2308,-359.773 2308,-355.94 2308,-355.94 2308,-348.273 2308,-348.273 2308,-344.44 2311.83,-340.607 2315.67,-340.607 2315.67,-340.607 2424.33,-340.607 2424.33,-340.607 2428.17,-340.607 2432,-344.44 2432,-348.273 2432,-348.273 2432,-355.94 2432,-355.94 2432,-359.773 2428.17,-363.607 2424.33,-363.607"/>
<text text-anchor="middle" x="2370" y="-348.407" font-family="Arial" font-size="14.00" fill="#c6c5fe">actions/Enemy.js</text>
</g>
<!-- actions/Enemy.js&#45;&gt;store/store.js -->
<g id="edge4" class="edge"><title>actions/Enemy.js&#45;&gt;store/store.js</title>
<path fill="none" stroke="#757575" d="M2414.09,-363.61C2425.19,-367.433 2436.86,-372.247 2447,-378.107 2480.76,-397.613 2513.59,-429.123 2532.79,-449.213"/>
<polygon fill="#757575" stroke="#757575" points="2530.29,-451.663 2539.69,-456.555 2535.39,-446.87 2530.29,-451.663"/>
</g>
<!-- actions/enemyMsg.js -->
<g id="node5" class="node"><title>actions/enemyMsg.js</title>
<path fill="none" stroke="#cfffac" d="M3026.83,-325.607C3026.83,-325.607 2893.17,-325.607 2893.17,-325.607 2889.33,-325.607 2885.5,-321.773 2885.5,-317.94 2885.5,-317.94 2885.5,-310.273 2885.5,-310.273 2885.5,-306.44 2889.33,-302.607 2893.17,-302.607 2893.17,-302.607 3026.83,-302.607 3026.83,-302.607 3030.67,-302.607 3034.5,-306.44 3034.5,-310.273 3034.5,-310.273 3034.5,-317.94 3034.5,-317.94 3034.5,-321.773 3030.67,-325.607 3026.83,-325.607"/>
<text text-anchor="middle" x="2960" y="-310.407" font-family="Arial" font-size="14.00" fill="#cfffac">actions/enemyMsg.js</text>
</g>
<!-- actions/Enemy.js&#45;&gt;actions/enemyMsg.js -->
<g id="edge3" class="edge"><title>actions/Enemy.js&#45;&gt;actions/enemyMsg.js</title>
<path fill="none" stroke="#757575" d="M2432.26,-348.148C2538.01,-341.313 2754.97,-327.292 2874.81,-319.547"/>
<polygon fill="#757575" stroke="#757575" points="2875.29,-323.024 2885.04,-318.887 2874.83,-316.039 2875.29,-323.024"/>
</g>
<!-- actions/Engine.js -->
<g id="node6" class="node"><title>actions/Engine.js</title>
<path fill="none" stroke="#c6c5fe" d="M987.833,-399.607C987.833,-399.607 879.167,-399.607 879.167,-399.607 875.333,-399.607 871.5,-395.773 871.5,-391.94 871.5,-391.94 871.5,-384.273 871.5,-384.273 871.5,-380.44 875.333,-376.607 879.167,-376.607 879.167,-376.607 987.833,-376.607 987.833,-376.607 991.667,-376.607 995.5,-380.44 995.5,-384.273 995.5,-384.273 995.5,-391.94 995.5,-391.94 995.5,-395.773 991.667,-399.607 987.833,-399.607"/>
<text text-anchor="middle" x="933.5" y="-384.407" font-family="Arial" font-size="14.00" fill="#c6c5fe">actions/Engine.js</text>
</g>
<!-- scenes/sceneFunctions.js -->
<g id="node7" class="node"><title>scenes/sceneFunctions.js</title>
<path fill="none" stroke="#c6c5fe" d="M1237.33,-459.607C1237.33,-459.607 1070.67,-459.607 1070.67,-459.607 1066.83,-459.607 1063,-455.773 1063,-451.94 1063,-451.94 1063,-444.273 1063,-444.273 1063,-440.44 1066.83,-436.607 1070.67,-436.607 1070.67,-436.607 1237.33,-436.607 1237.33,-436.607 1241.17,-436.607 1245,-440.44 1245,-444.273 1245,-444.273 1245,-451.94 1245,-451.94 1245,-455.773 1241.17,-459.607 1237.33,-459.607"/>
<text text-anchor="middle" x="1154" y="-444.407" font-family="Arial" font-size="14.00" fill="#c6c5fe">scenes/sceneFunctions.js</text>
</g>
<!-- actions/Engine.js&#45;&gt;scenes/sceneFunctions.js -->
<g id="edge5" class="edge"><title>actions/Engine.js&#45;&gt;scenes/sceneFunctions.js</title>
<path fill="none" stroke="#757575" d="M976.629,-399.675C1012.15,-409.428 1063.12,-423.425 1101.14,-433.865"/>
<polygon fill="#757575" stroke="#757575" points="1100.43,-437.301 1111,-436.574 1102.28,-430.551 1100.43,-437.301"/>
</g>
<!-- scenes/sceneFunctions.js&#45;&gt;actions/Core.js -->
<g id="edge78" class="edge"><title>scenes/sceneFunctions.js&#45;&gt;actions/Core.js</title>
<path fill="none" stroke="#757575" d="M1180.53,-459.665C1286.84,-506.918 1705.94,-684.498 2072,-718.107 2153.88,-725.624 2187.29,-761.713 2257,-718.107 2288.01,-698.71 2264.17,-666.611 2293,-644.107 2296.63,-641.277 2300.63,-638.917 2304.86,-636.952"/>
<polygon fill="#757575" stroke="#757575" points="2306.33,-640.134 2314.39,-633.253 2303.8,-633.608 2306.33,-640.134"/>
</g>
<!-- scenes/sceneFunctions.js&#45;&gt;store/store.js -->
<g id="edge85" class="edge"><title>scenes/sceneFunctions.js&#45;&gt;store/store.js</title>
<path fill="none" stroke="#757575" d="M1162.24,-436.298C1196.73,-381.67 1350.56,-156.107 1539,-156.107 1539,-156.107 1539,-156.107 1730,-156.107 1894.01,-156.107 2310.06,-240.847 2447,-331.107 2491.87,-360.68 2524.69,-416.703 2540.13,-447.144"/>
<polygon fill="#757575" stroke="#757575" points="2537.14,-448.986 2544.7,-456.411 2543.42,-445.894 2537.14,-448.986"/>
</g>
<!-- scenes/charCreation.js -->
<g id="node42" class="node"><title>scenes/charCreation.js</title>
<path fill="none" stroke="#c6c5fe" d="M1434.33,-717.607C1434.33,-717.607 1288.67,-717.607 1288.67,-717.607 1284.83,-717.607 1281,-713.773 1281,-709.94 1281,-709.94 1281,-702.273 1281,-702.273 1281,-698.44 1284.83,-694.607 1288.67,-694.607 1288.67,-694.607 1434.33,-694.607 1434.33,-694.607 1438.17,-694.607 1442,-698.44 1442,-702.273 1442,-702.273 1442,-709.94 1442,-709.94 1442,-713.773 1438.17,-717.607 1434.33,-717.607"/>
<text text-anchor="middle" x="1361.5" y="-702.407" font-family="Arial" font-size="14.00" fill="#c6c5fe">scenes/charCreation.js</text>
</g>
<!-- scenes/sceneFunctions.js&#45;&gt;scenes/charCreation.js -->
<g id="edge79" class="edge"><title>scenes/sceneFunctions.js&#45;&gt;scenes/charCreation.js</title>
<path fill="none" stroke="#757575" d="M1162.4,-459.658C1181.03,-488.438 1231.87,-565.258 1281,-624.107 1300,-646.867 1323.93,-671.016 1340.54,-687.165"/>
<polygon fill="#757575" stroke="#757575" points="1338.43,-689.989 1348.06,-694.409 1343.29,-684.949 1338.43,-689.989"/>
</g>
<!-- scenes/menus.js -->
<g id="node43" class="node"><title>scenes/menus.js</title>
<path fill="none" stroke="#c6c5fe" d="M1594.33,-459.607C1594.33,-459.607 1485.67,-459.607 1485.67,-459.607 1481.83,-459.607 1478,-455.773 1478,-451.94 1478,-451.94 1478,-444.273 1478,-444.273 1478,-440.44 1481.83,-436.607 1485.67,-436.607 1485.67,-436.607 1594.33,-436.607 1594.33,-436.607 1598.17,-436.607 1602,-440.44 1602,-444.273 1602,-444.273 1602,-451.94 1602,-451.94 1602,-455.773 1598.17,-459.607 1594.33,-459.607"/>
<text text-anchor="middle" x="1540" y="-444.407" font-family="Arial" font-size="14.00" fill="#c6c5fe">scenes/menus.js</text>
</g>
<!-- scenes/sceneFunctions.js&#45;&gt;scenes/menus.js -->
<g id="edge82" class="edge"><title>scenes/sceneFunctions.js&#45;&gt;scenes/menus.js</title>
<path fill="none" stroke="#757575" d="M1245.03,-448.107C1312.96,-448.107 1404.88,-448.107 1467.74,-448.107"/>
<polygon fill="#757575" stroke="#757575" points="1467.96,-451.607 1477.96,-448.107 1467.96,-444.607 1467.96,-451.607"/>
</g>
<!-- scenes/sceneSymbols.js -->
<g id="node44" class="node"><title>scenes/sceneSymbols.js</title>
<path fill="none" stroke="#cfffac" d="M3257.33,-110.607C3257.33,-110.607 3096.67,-110.607 3096.67,-110.607 3092.83,-110.607 3089,-106.773 3089,-102.94 3089,-102.94 3089,-95.2734 3089,-95.2734 3089,-91.4401 3092.83,-87.6068 3096.67,-87.6068 3096.67,-87.6068 3257.33,-87.6068 3257.33,-87.6068 3261.17,-87.6068 3265,-91.4401 3265,-95.2734 3265,-95.2734 3265,-102.94 3265,-102.94 3265,-106.773 3261.17,-110.607 3257.33,-110.607"/>
<text text-anchor="middle" x="3177" y="-95.4068" font-family="Arial" font-size="14.00" fill="#cfffac">scenes/sceneSymbols.js</text>
</g>
<!-- scenes/sceneFunctions.js&#45;&gt;scenes/sceneSymbols.js -->
<g id="edge83" class="edge"><title>scenes/sceneFunctions.js&#45;&gt;scenes/sceneSymbols.js</title>
<path fill="none" stroke="#757575" d="M1164.28,-436.373C1182.31,-413.05 1222.27,-358.657 1245,-307.107 1269.88,-250.681 1237.11,-216.423 1281,-173.107 1497.75,40.7918 1640.48,-4.10677 1945,-4.10677 1945,-4.10677 1945,-4.10677 2744,-4.10677 2882.6,-4.10677 2919.46,-9.0088 3053,-46.1068 3085.44,-55.1178 3120.53,-70.8884 3144.89,-82.8907"/>
<polygon fill="#757575" stroke="#757575" points="3143.49,-86.1019 3154,-87.4465 3146.62,-79.8417 3143.49,-86.1019"/>
</g>
<!-- scenes/combat/combat.js -->
<g id="node48" class="node"><title>scenes/combat/combat.js</title>
<path fill="none" stroke="#c6c5fe" d="M2027.83,-401.607C2027.83,-401.607 1864.17,-401.607 1864.17,-401.607 1860.33,-401.607 1856.5,-397.773 1856.5,-393.94 1856.5,-393.94 1856.5,-386.273 1856.5,-386.273 1856.5,-382.44 1860.33,-378.607 1864.17,-378.607 1864.17,-378.607 2027.83,-378.607 2027.83,-378.607 2031.67,-378.607 2035.5,-382.44 2035.5,-386.273 2035.5,-386.273 2035.5,-393.94 2035.5,-393.94 2035.5,-397.773 2031.67,-401.607 2027.83,-401.607"/>
<text text-anchor="middle" x="1946" y="-386.407" font-family="Arial" font-size="14.00" fill="#c6c5fe">scenes/combat/combat.js</text>
</g>
<!-- scenes/sceneFunctions.js&#45;&gt;scenes/combat/combat.js -->
<g id="edge80" class="edge"><title>scenes/sceneFunctions.js&#45;&gt;scenes/combat/combat.js</title>
<path fill="none" stroke="#757575" d="M1245.24,-441.482C1394.49,-430.524 1691.6,-408.711 1846.26,-397.356"/>
<polygon fill="#757575" stroke="#757575" points="1846.52,-400.846 1856.24,-396.623 1846.01,-393.865 1846.52,-400.846"/>
</g>
<!-- scenes/inv/inv.js -->
<g id="node50" class="node"><title>scenes/inv/inv.js</title>
<path fill="none" stroke="#c6c5fe" d="M1997.83,-669.607C1997.83,-669.607 1894.17,-669.607 1894.17,-669.607 1890.33,-669.607 1886.5,-665.773 1886.5,-661.94 1886.5,-661.94 1886.5,-654.273 1886.5,-654.273 1886.5,-650.44 1890.33,-646.607 1894.17,-646.607 1894.17,-646.607 1997.83,-646.607 1997.83,-646.607 2001.67,-646.607 2005.5,-650.44 2005.5,-654.273 2005.5,-654.273 2005.5,-661.94 2005.5,-661.94 2005.5,-665.773 2001.67,-669.607 1997.83,-669.607"/>
<text text-anchor="middle" x="1946" y="-654.407" font-family="Arial" font-size="14.00" fill="#c6c5fe">scenes/inv/inv.js</text>
</g>
<!-- scenes/sceneFunctions.js&#45;&gt;scenes/inv/inv.js -->
<g id="edge81" class="edge"><title>scenes/sceneFunctions.js&#45;&gt;scenes/inv/inv.js</title>
<path fill="none" stroke="#757575" d="M1245.06,-459.103C1414.56,-480.211 1768.66,-526.415 1820,-550.107 1865.39,-571.053 1906.91,-613.541 1928.8,-638.527"/>
<polygon fill="#757575" stroke="#757575" points="1926.28,-640.963 1935.45,-646.273 1931.59,-636.405 1926.28,-640.963"/>
</g>
<!-- scenes/tests/testing.js -->
<g id="node52" class="node"><title>scenes/tests/testing.js</title>
<path fill="none" stroke="#cfffac" d="M1432.83,-615.607C1432.83,-615.607 1290.17,-615.607 1290.17,-615.607 1286.33,-615.607 1282.5,-611.773 1282.5,-607.94 1282.5,-607.94 1282.5,-600.273 1282.5,-600.273 1282.5,-596.44 1286.33,-592.607 1290.17,-592.607 1290.17,-592.607 1432.83,-592.607 1432.83,-592.607 1436.67,-592.607 1440.5,-596.44 1440.5,-600.273 1440.5,-600.273 1440.5,-607.94 1440.5,-607.94 1440.5,-611.773 1436.67,-615.607 1432.83,-615.607"/>
<text text-anchor="middle" x="1361.5" y="-600.407" font-family="Arial" font-size="14.00" fill="#cfffac">scenes/tests/testing.js</text>
</g>
<!-- scenes/sceneFunctions.js&#45;&gt;scenes/tests/testing.js -->
<g id="edge84" class="edge"><title>scenes/sceneFunctions.js&#45;&gt;scenes/tests/testing.js</title>
<path fill="none" stroke="#757575" d="M1163.07,-459.641C1181.24,-484.792 1227.96,-544.959 1281,-578.107 1287.83,-582.374 1295.43,-586.013 1303.15,-589.095"/>
<polygon fill="#757575" stroke="#757575" points="1301.98,-592.396 1312.58,-592.583 1304.41,-585.831 1301.98,-592.396"/>
</g>
<!-- actions/Inv.js -->
<g id="node8" class="node"><title>actions/Inv.js</title>
<path fill="none" stroke="#c6c5fe" d="M2411.33,-760.607C2411.33,-760.607 2328.67,-760.607 2328.67,-760.607 2324.83,-760.607 2321,-756.773 2321,-752.94 2321,-752.94 2321,-745.273 2321,-745.273 2321,-741.44 2324.83,-737.607 2328.67,-737.607 2328.67,-737.607 2411.33,-737.607 2411.33,-737.607 2415.17,-737.607 2419,-741.44 2419,-745.273 2419,-745.273 2419,-752.94 2419,-752.94 2419,-756.773 2415.17,-760.607 2411.33,-760.607"/>
<text text-anchor="middle" x="2370" y="-745.407" font-family="Arial" font-size="14.00" fill="#c6c5fe">actions/Inv.js</text>
</g>
<!-- actions/Inv.js&#45;&gt;store/store.js -->
<g id="edge7" class="edge"><title>actions/Inv.js&#45;&gt;store/store.js</title>
<path fill="none" stroke="#757575" d="M2419.01,-742.992C2429.16,-739.854 2439.16,-735.148 2447,-728.107 2519.72,-662.821 2541.76,-539.471 2547.86,-489.719"/>
<polygon fill="#757575" stroke="#757575" points="2551.34,-490.081 2548.99,-479.751 2544.39,-489.295 2551.34,-490.081"/>
</g>
<!-- actions/invMsg.js -->
<g id="node9" class="node"><title>actions/invMsg.js</title>
<path fill="none" stroke="#cfffac" d="M3014.33,-764.607C3014.33,-764.607 2905.67,-764.607 2905.67,-764.607 2901.83,-764.607 2898,-760.773 2898,-756.94 2898,-756.94 2898,-749.273 2898,-749.273 2898,-745.44 2901.83,-741.607 2905.67,-741.607 2905.67,-741.607 3014.33,-741.607 3014.33,-741.607 3018.17,-741.607 3022,-745.44 3022,-749.273 3022,-749.273 3022,-756.94 3022,-756.94 3022,-760.773 3018.17,-764.607 3014.33,-764.607"/>
<text text-anchor="middle" x="2960" y="-749.407" font-family="Arial" font-size="14.00" fill="#cfffac">actions/invMsg.js</text>
</g>
<!-- actions/Inv.js&#45;&gt;actions/invMsg.js -->
<g id="edge6" class="edge"><title>actions/Inv.js&#45;&gt;actions/invMsg.js</title>
<path fill="none" stroke="#757575" d="M2419.12,-749.434C2522.39,-750.137 2765.75,-751.792 2887.3,-752.619"/>
<polygon fill="#757575" stroke="#757575" points="2887.59,-756.121 2897.61,-752.689 2887.63,-749.121 2887.59,-756.121"/>
</g>
<!-- actions/Perks.js -->
<g id="node10" class="node"><title>actions/Perks.js</title>
<path fill="none" stroke="#c6c5fe" d="M2420.33,-207.607C2420.33,-207.607 2319.67,-207.607 2319.67,-207.607 2315.83,-207.607 2312,-203.773 2312,-199.94 2312,-199.94 2312,-192.273 2312,-192.273 2312,-188.44 2315.83,-184.607 2319.67,-184.607 2319.67,-184.607 2420.33,-184.607 2420.33,-184.607 2424.17,-184.607 2428,-188.44 2428,-192.273 2428,-192.273 2428,-199.94 2428,-199.94 2428,-203.773 2424.17,-207.607 2420.33,-207.607"/>
<text text-anchor="middle" x="2370" y="-192.407" font-family="Arial" font-size="14.00" fill="#c6c5fe">actions/Perks.js</text>
</g>
<!-- actions/Perks.js&#45;&gt;store/store.js -->
<g id="edge9" class="edge"><title>actions/Perks.js&#45;&gt;store/store.js</title>
<path fill="none" stroke="#757575" d="M2424.13,-207.757C2432.47,-211.337 2440.48,-216.01 2447,-222.107 2514.31,-285.057 2539.22,-398.831 2546.97,-446.342"/>
<polygon fill="#757575" stroke="#757575" points="2543.54,-447.076 2548.52,-456.431 2550.46,-446.016 2543.54,-447.076"/>
</g>
<!-- actions/engineMsg.js -->
<g id="node11" class="node"><title>actions/engineMsg.js</title>
<path fill="none" stroke="#cfffac" d="M3243.83,-224.607C3243.83,-224.607 3110.17,-224.607 3110.17,-224.607 3106.33,-224.607 3102.5,-220.773 3102.5,-216.94 3102.5,-216.94 3102.5,-209.273 3102.5,-209.273 3102.5,-205.44 3106.33,-201.607 3110.17,-201.607 3110.17,-201.607 3243.83,-201.607 3243.83,-201.607 3247.67,-201.607 3251.5,-205.44 3251.5,-209.273 3251.5,-209.273 3251.5,-216.94 3251.5,-216.94 3251.5,-220.773 3247.67,-224.607 3243.83,-224.607"/>
<text text-anchor="middle" x="3177" y="-209.407" font-family="Arial" font-size="14.00" fill="#cfffac">actions/engineMsg.js</text>
</g>
<!-- actions/Perks.js&#45;&gt;actions/engineMsg.js -->
<g id="edge8" class="edge"><title>actions/Perks.js&#45;&gt;actions/engineMsg.js</title>
<path fill="none" stroke="#757575" d="M2428.25,-197.316C2568.19,-200.271 2928.11,-207.872 3092.21,-211.337"/>
<polygon fill="#757575" stroke="#757575" points="3092.19,-214.838 3102.26,-211.55 3092.34,-207.839 3092.19,-214.838"/>
</g>
<!-- actions/Player.js -->
<g id="node12" class="node"><title>actions/Player.js</title>
<path fill="none" stroke="#c6c5fe" d="M2216.33,-789.607C2216.33,-789.607 2112.67,-789.607 2112.67,-789.607 2108.83,-789.607 2105,-785.773 2105,-781.94 2105,-781.94 2105,-774.273 2105,-774.273 2105,-770.44 2108.83,-766.607 2112.67,-766.607 2112.67,-766.607 2216.33,-766.607 2216.33,-766.607 2220.17,-766.607 2224,-770.44 2224,-774.273 2224,-774.273 2224,-781.94 2224,-781.94 2224,-785.773 2220.17,-789.607 2216.33,-789.607"/>
<text text-anchor="middle" x="2164.5" y="-774.407" font-family="Arial" font-size="14.00" fill="#c6c5fe">actions/Player.js</text>
</g>
<!-- actions/Player.js&#45;&gt;actions/Core.js -->
<g id="edge10" class="edge"><title>actions/Player.js&#45;&gt;actions/Core.js</title>
<path fill="none" stroke="#757575" d="M2224.42,-770.125C2236.31,-766.249 2247.92,-760.529 2257,-752.107 2291.02,-720.552 2259.82,-686.548 2293,-654.107 2296.93,-650.268 2301.44,-646.995 2306.27,-644.204"/>
<polygon fill="#757575" stroke="#757575" points="2307.89,-647.307 2315.25,-639.685 2304.75,-641.054 2307.89,-647.307"/>
</g>
<!-- actions/Player.js&#45;&gt;store/store.js -->
<g id="edge12" class="edge"><title>actions/Player.js&#45;&gt;store/store.js</title>
<path fill="none" stroke="#757575" d="M2224.45,-768.733C2236.06,-764.936 2247.56,-759.602 2257,-752.107 2282.87,-731.575 2266.84,-707.263 2293,-687.107 2348.93,-644.012 2390.77,-690.81 2447,-648.107 2501.28,-606.881 2531.61,-528.193 2543.72,-489.994"/>
<polygon fill="#757575" stroke="#757575" points="2547.22,-490.527 2546.78,-479.941 2540.52,-488.488 2547.22,-490.527"/>
</g>
<!-- actions/playerMsg.js -->
<g id="node13" class="node"><title>actions/playerMsg.js</title>
<path fill="none" stroke="#cfffac" d="M3241.83,-710.607C3241.83,-710.607 3112.17,-710.607 3112.17,-710.607 3108.33,-710.607 3104.5,-706.773 3104.5,-702.94 3104.5,-702.94 3104.5,-695.273 3104.5,-695.273 3104.5,-691.44 3108.33,-687.607 3112.17,-687.607 3112.17,-687.607 3241.83,-687.607 3241.83,-687.607 3245.67,-687.607 3249.5,-691.44 3249.5,-695.273 3249.5,-695.273 3249.5,-702.94 3249.5,-702.94 3249.5,-706.773 3245.67,-710.607 3241.83,-710.607"/>
<text text-anchor="middle" x="3177" y="-695.407" font-family="Arial" font-size="14.00" fill="#cfffac">actions/playerMsg.js</text>
</g>
<!-- actions/Player.js&#45;&gt;actions/playerMsg.js -->
<g id="edge11" class="edge"><title>actions/Player.js&#45;&gt;actions/playerMsg.js</title>
<path fill="none" stroke="#757575" d="M2224.06,-783.092C2396.73,-796.963 2901.22,-831.304 3053,-773.107 3072.99,-765.443 3071.19,-752.985 3089,-741.107 3104.14,-731.011 3122.07,-721.929 3137.71,-714.815"/>
<polygon fill="#757575" stroke="#757575" points="3139.38,-717.902 3147.1,-710.649 3136.54,-711.503 3139.38,-717.902"/>
</g>
<!-- symbols/breastCup.js -->
<g id="node14" class="node"><title>symbols/breastCup.js</title>
<path fill="none" stroke="#c6c5fe" d="M2439.33,-992.607C2439.33,-992.607 2300.67,-992.607 2300.67,-992.607 2296.83,-992.607 2293,-988.773 2293,-984.94 2293,-984.94 2293,-977.273 2293,-977.273 2293,-973.44 2296.83,-969.607 2300.67,-969.607 2300.67,-969.607 2439.33,-969.607 2439.33,-969.607 2443.17,-969.607 2447,-973.44 2447,-977.273 2447,-977.273 2447,-984.94 2447,-984.94 2447,-988.773 2443.17,-992.607 2439.33,-992.607"/>
<text text-anchor="middle" x="2370" y="-977.407" font-family="Arial" font-size="14.00" fill="#c6c5fe">symbols/breastCup.js</text>
</g>
<!-- actions/Player.js&#45;&gt;symbols/breastCup.js -->
<g id="edge13" class="edge"><title>actions/Player.js&#45;&gt;symbols/breastCup.js</title>
<path fill="none" stroke="#757575" d="M2177.32,-789.898C2211.11,-823.605 2308.34,-920.596 2349.85,-962.001"/>
<polygon fill="#757575" stroke="#757575" points="2347.6,-964.698 2357.15,-969.283 2352.54,-959.742 2347.6,-964.698"/>
</g>
<!-- symbols/cockType.js -->
<g id="node15" class="node"><title>symbols/cockType.js</title>
<path fill="none" stroke="#cfffac" d="M2437.33,-719.607C2437.33,-719.607 2302.67,-719.607 2302.67,-719.607 2298.83,-719.607 2295,-715.773 2295,-711.94 2295,-711.94 2295,-704.273 2295,-704.273 2295,-700.44 2298.83,-696.607 2302.67,-696.607 2302.67,-696.607 2437.33,-696.607 2437.33,-696.607 2441.17,-696.607 2445,-700.44 2445,-704.273 2445,-704.273 2445,-711.94 2445,-711.94 2445,-715.773 2441.17,-719.607 2437.33,-719.607"/>
<text text-anchor="middle" x="2370" y="-704.407" font-family="Arial" font-size="14.00" fill="#cfffac">symbols/cockType.js</text>
</g>
<!-- actions/Player.js&#45;&gt;symbols/cockType.js -->
<g id="edge14" class="edge"><title>actions/Player.js&#45;&gt;symbols/cockType.js</title>
<path fill="none" stroke="#757575" d="M2216.85,-766.541C2230.22,-762.718 2244.4,-757.92 2257,-752.107 2274.46,-744.048 2275.46,-735.995 2293,-728.107 2297.29,-726.179 2301.79,-724.409 2306.39,-722.787"/>
<polygon fill="#757575" stroke="#757575" points="2307.48,-726.112 2315.89,-719.667 2305.29,-719.462 2307.48,-726.112"/>
</g>
<!-- symbols/vaginas.js -->
<g id="node16" class="node"><title>symbols/vaginas.js</title>
<path fill="none" stroke="#c6c5fe" d="M2611.33,-840.607C2611.33,-840.607 2490.67,-840.607 2490.67,-840.607 2486.83,-840.607 2483,-836.773 2483,-832.94 2483,-832.94 2483,-825.273 2483,-825.273 2483,-821.44 2486.83,-817.607 2490.67,-817.607 2490.67,-817.607 2611.33,-817.607 2611.33,-817.607 2615.17,-817.607 2619,-821.44 2619,-825.273 2619,-825.273 2619,-832.94 2619,-832.94 2619,-836.773 2615.17,-840.607 2611.33,-840.607"/>
<text text-anchor="middle" x="2551" y="-825.407" font-family="Arial" font-size="14.00" fill="#c6c5fe">symbols/vaginas.js</text>
</g>
<!-- actions/Player.js&#45;&gt;symbols/vaginas.js -->
<g id="edge15" class="edge"><title>actions/Player.js&#45;&gt;symbols/vaginas.js</title>
<path fill="none" stroke="#757575" d="M2218.35,-789.611C2241.22,-794.293 2268.34,-799.45 2293,-803.107 2353.2,-812.034 2421.79,-818.803 2472.96,-823.193"/>
<polygon fill="#757575" stroke="#757575" points="2472.7,-826.683 2482.96,-824.039 2473.29,-819.708 2472.7,-826.683"/>
</g>
<!-- utils.js -->
<g id="node41" class="node"><title>utils.js</title>
<path fill="none" stroke="#cfffac" d="M3349.33,-570.607C3349.33,-570.607 3308.67,-570.607 3308.67,-570.607 3304.83,-570.607 3301,-566.773 3301,-562.94 3301,-562.94 3301,-555.273 3301,-555.273 3301,-551.44 3304.83,-547.607 3308.67,-547.607 3308.67,-547.607 3349.33,-547.607 3349.33,-547.607 3353.17,-547.607 3357,-551.44 3357,-555.273 3357,-555.273 3357,-562.94 3357,-562.94 3357,-566.773 3353.17,-570.607 3349.33,-570.607"/>
<text text-anchor="middle" x="3329" y="-555.407" font-family="Arial" font-size="14.00" fill="#cfffac">utils.js</text>
</g>
<!-- symbols/breastCup.js&#45;&gt;utils.js -->
<g id="edge97" class="edge"><title>symbols/breastCup.js&#45;&gt;utils.js</title>
<path fill="none" stroke="#757575" d="M2447.33,-975.238C2522.3,-969.985 2639.95,-963.107 2742,-963.107 2742,-963.107 2742,-963.107 2961,-963.107 3097.39,-963.107 3166.88,-1015.85 3265,-921.107 3314.22,-873.578 3325.19,-651.504 3327.45,-580.792"/>
<polygon fill="#757575" stroke="#757575" points="3330.95,-580.891 3327.74,-570.793 3323.95,-580.686 3330.95,-580.891"/>
</g>
<!-- symbols/vaginas.js&#45;&gt;utils.js -->
<g id="edge111" class="edge"><title>symbols/vaginas.js&#45;&gt;utils.js</title>
<path fill="none" stroke="#757575" d="M2619.29,-831.055C2778.85,-834.179 3173.68,-832.662 3265,-745.107 3311.81,-700.223 3323.84,-619.345 3326.93,-580.746"/>
<polygon fill="#757575" stroke="#757575" points="3330.43,-580.838 3327.61,-570.626 3323.45,-580.37 3330.43,-580.838"/>
</g>
<!-- appearance/appearance.js -->
<g id="node17" class="node"><title>appearance/appearance.js</title>
<path fill="none" stroke="#c6c5fe" d="M2249.33,-954.607C2249.33,-954.607 2079.67,-954.607 2079.67,-954.607 2075.83,-954.607 2072,-950.773 2072,-946.94 2072,-946.94 2072,-939.273 2072,-939.273 2072,-935.44 2075.83,-931.607 2079.67,-931.607 2079.67,-931.607 2249.33,-931.607 2249.33,-931.607 2253.17,-931.607 2257,-935.44 2257,-939.273 2257,-939.273 2257,-946.94 2257,-946.94 2257,-950.773 2253.17,-954.607 2249.33,-954.607"/>
<text text-anchor="middle" x="2164.5" y="-939.407" font-family="Arial" font-size="14.00" fill="#c6c5fe">appearance/appearance.js</text>
</g>
<!-- appearance/appearance.js&#45;&gt;store/store.js -->
<g id="edge16" class="edge"><title>appearance/appearance.js&#45;&gt;store/store.js</title>
<path fill="none" stroke="#757575" d="M2197.95,-931.566C2256.19,-909.239 2378.74,-854.662 2447,-769.107 2517.11,-681.238 2540.84,-542.837 2547.63,-489.788"/>
<polygon fill="#757575" stroke="#757575" points="2551.11,-490.16 2548.83,-479.813 2544.16,-489.323 2551.11,-490.16"/>
</g>
<!-- appearance/appearance.js&#45;&gt;symbols/breastCup.js -->
<g id="edge17" class="edge"><title>appearance/appearance.js&#45;&gt;symbols/breastCup.js</title>
<path fill="none" stroke="#757575" d="M2227.11,-954.611C2249.22,-958.74 2274.35,-963.432 2297.25,-967.708"/>
<polygon fill="#757575" stroke="#757575" points="2296.78,-971.181 2307.25,-969.576 2298.06,-964.3 2296.78,-971.181"/>
</g>
<!-- symbols/gender.js -->
<g id="node18" class="node"><title>symbols/gender.js</title>
<path fill="none" stroke="#c6c5fe" d="M2428.83,-1033.61C2428.83,-1033.61 2311.17,-1033.61 2311.17,-1033.61 2307.33,-1033.61 2303.5,-1029.77 2303.5,-1025.94 2303.5,-1025.94 2303.5,-1018.27 2303.5,-1018.27 2303.5,-1014.44 2307.33,-1010.61 2311.17,-1010.61 2311.17,-1010.61 2428.83,-1010.61 2428.83,-1010.61 2432.67,-1010.61 2436.5,-1014.44 2436.5,-1018.27 2436.5,-1018.27 2436.5,-1025.94 2436.5,-1025.94 2436.5,-1029.77 2432.67,-1033.61 2428.83,-1033.61"/>
<text text-anchor="middle" x="2370" y="-1018.41" font-family="Arial" font-size="14.00" fill="#c6c5fe">symbols/gender.js</text>
</g>
<!-- appearance/appearance.js&#45;&gt;symbols/gender.js -->
<g id="edge18" class="edge"><title>appearance/appearance.js&#45;&gt;symbols/gender.js</title>
<path fill="none" stroke="#757575" d="M2188.08,-954.692C2213.22,-967.278 2255.28,-987.414 2293,-1001.11 2299.4,-1003.43 2306.18,-1005.64 2312.95,-1007.7"/>
<polygon fill="#757575" stroke="#757575" points="2312.24,-1011.14 2322.82,-1010.6 2314.21,-1004.42 2312.24,-1011.14"/>
</g>
<!-- symbols/gender.js&#45;&gt;utils.js -->
<g id="edge103" class="edge"><title>symbols/gender.js&#45;&gt;utils.js</title>
<path fill="none" stroke="#757575" d="M2436.66,-1018.98C2510.79,-1015.73 2635.03,-1011.11 2742,-1011.11 2742,-1011.11 2742,-1011.11 2961,-1011.11 3097.72,-1011.11 3168.28,-1060.73 3265,-964.107 3319.47,-909.692 3326.87,-657.897 3327.85,-581.284"/>
<polygon fill="#757575" stroke="#757575" points="3331.36,-580.956 3327.96,-570.921 3324.36,-580.884 3331.36,-580.956"/>
</g>
<!-- components/appRoot.js -->
<g id="node19" class="node"><title>components/appRoot.js</title>
<path fill="none" stroke="#c6c5fe" d="M334.333,-216.607C334.333,-216.607 181.667,-216.607 181.667,-216.607 177.833,-216.607 174,-212.773 174,-208.94 174,-208.94 174,-201.273 174,-201.273 174,-197.44 177.833,-193.607 181.667,-193.607 181.667,-193.607 334.333,-193.607 334.333,-193.607 338.167,-193.607 342,-197.44 342,-201.273 342,-201.273 342,-208.94 342,-208.94 342,-212.773 338.167,-216.607 334.333,-216.607"/>
<text text-anchor="middle" x="258" y="-201.407" font-family="Arial" font-size="14.00" fill="#c6c5fe">components/appRoot.js</text>
</g>
<!-- components/lowerButtons.js -->
<g id="node20" class="node"><title>components/lowerButtons.js</title>
<path fill="none" stroke="#c6c5fe" d="M565.333,-257.607C565.333,-257.607 385.667,-257.607 385.667,-257.607 381.833,-257.607 378,-253.773 378,-249.94 378,-249.94 378,-242.273 378,-242.273 378,-238.44 381.833,-234.607 385.667,-234.607 385.667,-234.607 565.333,-234.607 565.333,-234.607 569.167,-234.607 573,-238.44 573,-242.273 573,-242.273 573,-249.94 573,-249.94 573,-253.773 569.167,-257.607 565.333,-257.607"/>
<text text-anchor="middle" x="475.5" y="-242.407" font-family="Arial" font-size="14.00" fill="#c6c5fe">components/lowerButtons.js</text>
</g>
<!-- components/appRoot.js&#45;&gt;components/lowerButtons.js -->
<g id="edge19" class="edge"><title>components/appRoot.js&#45;&gt;components/lowerButtons.js</title>
<path fill="none" stroke="#757575" d="M319.602,-216.637C345.88,-221.636 376.817,-227.522 404.106,-232.714"/>
<polygon fill="#757575" stroke="#757575" points="403.502,-236.162 413.98,-234.592 404.81,-229.285 403.502,-236.162"/>
</g>
<!-- components/menuBar.js -->
<g id="node21" class="node"><title>components/menuBar.js</title>
<path fill="none" stroke="#c6c5fe" d="M552.833,-298.607C552.833,-298.607 398.167,-298.607 398.167,-298.607 394.333,-298.607 390.5,-294.773 390.5,-290.94 390.5,-290.94 390.5,-283.273 390.5,-283.273 390.5,-279.44 394.333,-275.607 398.167,-275.607 398.167,-275.607 552.833,-275.607 552.833,-275.607 556.667,-275.607 560.5,-279.44 560.5,-283.273 560.5,-283.273 560.5,-290.94 560.5,-290.94 560.5,-294.773 556.667,-298.607 552.833,-298.607"/>
<text text-anchor="middle" x="475.5" y="-283.407" font-family="Arial" font-size="14.00" fill="#c6c5fe">components/menuBar.js</text>
</g>
<!-- components/appRoot.js&#45;&gt;components/menuBar.js -->
<g id="edge20" class="edge"><title>components/appRoot.js&#45;&gt;components/menuBar.js</title>
<path fill="none" stroke="#757575" d="M277.687,-216.628C300.56,-230.265 340.845,-252.797 378,-266.107 385.207,-268.688 392.835,-271.008 400.519,-273.079"/>
<polygon fill="#757575" stroke="#757575" points="399.698,-276.482 410.253,-275.57 401.433,-269.7 399.698,-276.482"/>
</g>
<!-- components/output.js -->
<g id="node22" class="node"><title>components/output.js</title>
<path fill="none" stroke="#cfffac" d="M543.833,-175.607C543.833,-175.607 407.167,-175.607 407.167,-175.607 403.333,-175.607 399.5,-171.773 399.5,-167.94 399.5,-167.94 399.5,-160.273 399.5,-160.273 399.5,-156.44 403.333,-152.607 407.167,-152.607 407.167,-152.607 543.833,-152.607 543.833,-152.607 547.667,-152.607 551.5,-156.44 551.5,-160.273 551.5,-160.273 551.5,-167.94 551.5,-167.94 551.5,-171.773 547.667,-175.607 543.833,-175.607"/>
<text text-anchor="middle" x="475.5" y="-160.407" font-family="Arial" font-size="14.00" fill="#cfffac">components/output.js</text>
</g>
<!-- components/appRoot.js&#45;&gt;components/output.js -->
<g id="edge21" class="edge"><title>components/appRoot.js&#45;&gt;components/output.js</title>
<path fill="none" stroke="#757575" d="M319.602,-193.577C345.88,-188.577 376.817,-182.691 404.106,-177.5"/>
<polygon fill="#757575" stroke="#757575" points="404.81,-180.929 413.98,-175.621 403.502,-174.052 404.81,-180.929"/>
</g>
<!-- components/statBar.js -->
<g id="node23" class="node"><title>components/statBar.js</title>
<path fill="none" stroke="#c6c5fe" d="M546.833,-216.607C546.833,-216.607 404.167,-216.607 404.167,-216.607 400.333,-216.607 396.5,-212.773 396.5,-208.94 396.5,-208.94 396.5,-201.273 396.5,-201.273 396.5,-197.44 400.333,-193.607 404.167,-193.607 404.167,-193.607 546.833,-193.607 546.833,-193.607 550.667,-193.607 554.5,-197.44 554.5,-201.273 554.5,-201.273 554.5,-208.94 554.5,-208.94 554.5,-212.773 550.667,-216.607 546.833,-216.607"/>
<text text-anchor="middle" x="475.5" y="-201.407" font-family="Arial" font-size="14.00" fill="#c6c5fe">components/statBar.js</text>
</g>
<!-- components/appRoot.js&#45;&gt;components/statBar.js -->
<g id="edge22" class="edge"><title>components/appRoot.js&#45;&gt;components/statBar.js</title>
<path fill="none" stroke="#757575" d="M342.01,-205.107C356.557,-205.107 371.739,-205.107 386.418,-205.107"/>
<polygon fill="#757575" stroke="#757575" points="386.486,-208.607 396.486,-205.107 386.486,-201.607 386.486,-208.607"/>
</g>
<!-- components/buttonGrid.js -->
<g id="node25" class="node"><title>components/buttonGrid.js</title>
<path fill="none" stroke="#c6c5fe" d="M788.333,-298.607C788.333,-298.607 624.667,-298.607 624.667,-298.607 620.833,-298.607 617,-294.773 617,-290.94 617,-290.94 617,-283.273 617,-283.273 617,-279.44 620.833,-275.607 624.667,-275.607 624.667,-275.607 788.333,-275.607 788.333,-275.607 792.167,-275.607 796,-279.44 796,-283.273 796,-283.273 796,-290.94 796,-290.94 796,-294.773 792.167,-298.607 788.333,-298.607"/>
<text text-anchor="middle" x="706.5" y="-283.407" font-family="Arial" font-size="14.00" fill="#c6c5fe">components/buttonGrid.js</text>
</g>
<!-- components/lowerButtons.js&#45;&gt;components/buttonGrid.js -->
<g id="edge27" class="edge"><title>components/lowerButtons.js&#45;&gt;components/buttonGrid.js</title>
<path fill="none" stroke="#757575" d="M540.899,-257.637C568.945,-262.658 601.986,-268.574 631.078,-273.782"/>
<polygon fill="#757575" stroke="#757575" points="630.728,-277.275 641.188,-275.592 631.962,-270.385 630.728,-277.275"/>
</g>
<!-- components/menuBar.js&#45;&gt;components/buttonGrid.js -->
<g id="edge28" class="edge"><title>components/menuBar.js&#45;&gt;components/buttonGrid.js</title>
<path fill="none" stroke="#757575" d="M560.796,-287.107C575.613,-287.107 591.157,-287.107 606.335,-287.107"/>
<polygon fill="#757575" stroke="#757575" points="606.771,-290.607 616.771,-287.107 606.771,-283.607 606.771,-290.607"/>
</g>
<!-- components/spriteDisplay.js -->
<g id="node30" class="node"><title>components/spriteDisplay.js</title>
<path fill="none" stroke="#cfffac" d="M796.333,-175.607C796.333,-175.607 616.667,-175.607 616.667,-175.607 612.833,-175.607 609,-171.773 609,-167.94 609,-167.94 609,-160.273 609,-160.273 609,-156.44 612.833,-152.607 616.667,-152.607 616.667,-152.607 796.333,-152.607 796.333,-152.607 800.167,-152.607 804,-156.44 804,-160.273 804,-160.273 804,-167.94 804,-167.94 804,-171.773 800.167,-175.607 796.333,-175.607"/>
<text text-anchor="middle" x="706.5" y="-160.407" font-family="Arial" font-size="14.00" fill="#cfffac">components/spriteDisplay.js</text>
</g>
<!-- components/statBar.js&#45;&gt;components/spriteDisplay.js -->
<g id="edge31" class="edge"><title>components/statBar.js&#45;&gt;components/spriteDisplay.js</title>
<path fill="none" stroke="#757575" d="M540.899,-193.577C568.945,-188.556 601.986,-182.64 631.078,-177.431"/>
<polygon fill="#757575" stroke="#757575" points="631.962,-180.829 641.188,-175.621 630.728,-173.938 631.962,-180.829"/>
</g>
<!-- components/statDisplay.js -->
<g id="node32" class="node"><title>components/statDisplay.js</title>
<path fill="none" stroke="#c6c5fe" d="M789.833,-257.607C789.833,-257.607 623.167,-257.607 623.167,-257.607 619.333,-257.607 615.5,-253.773 615.5,-249.94 615.5,-249.94 615.5,-242.273 615.5,-242.273 615.5,-238.44 619.333,-234.607 623.167,-234.607 623.167,-234.607 789.833,-234.607 789.833,-234.607 793.667,-234.607 797.5,-238.44 797.5,-242.273 797.5,-242.273 797.5,-249.94 797.5,-249.94 797.5,-253.773 793.667,-257.607 789.833,-257.607"/>
<text text-anchor="middle" x="706.5" y="-242.407" font-family="Arial" font-size="14.00" fill="#c6c5fe">components/statDisplay.js</text>
</g>
<!-- components/statBar.js&#45;&gt;components/statDisplay.js -->
<g id="edge32" class="edge"><title>components/statBar.js&#45;&gt;components/statDisplay.js</title>
<path fill="none" stroke="#757575" d="M540.899,-216.637C568.945,-221.658 601.986,-227.574 631.078,-232.782"/>
<polygon fill="#757575" stroke="#757575" points="630.728,-236.275 641.188,-234.592 631.962,-229.385 630.728,-236.275"/>
</g>
<!-- components/timeDisplay.js -->
<g id="node33" class="node"><title>components/timeDisplay.js</title>
<path fill="none" stroke="#cfffac" d="M792.333,-216.607C792.333,-216.607 620.667,-216.607 620.667,-216.607 616.833,-216.607 613,-212.773 613,-208.94 613,-208.94 613,-201.273 613,-201.273 613,-197.44 616.833,-193.607 620.667,-193.607 620.667,-193.607 792.333,-193.607 792.333,-193.607 796.167,-193.607 800,-197.44 800,-201.273 800,-201.273 800,-208.94 800,-208.94 800,-212.773 796.167,-216.607 792.333,-216.607"/>
<text text-anchor="middle" x="706.5" y="-201.407" font-family="Arial" font-size="14.00" fill="#cfffac">components/timeDisplay.js</text>
</g>
<!-- components/statBar.js&#45;&gt;components/timeDisplay.js -->
<g id="edge33" class="edge"><title>components/statBar.js&#45;&gt;components/timeDisplay.js</title>
<path fill="none" stroke="#757575" d="M554.668,-205.107C569.974,-205.107 586.245,-205.107 602.223,-205.107"/>
<polygon fill="#757575" stroke="#757575" points="602.666,-208.607 612.666,-205.107 602.666,-201.607 602.666,-208.607"/>
</g>
<!-- components/button.js -->
<g id="node24" class="node"><title>components/button.js</title>
<path fill="none" stroke="#cfffac" d="M1222.33,-298.607C1222.33,-298.607 1085.67,-298.607 1085.67,-298.607 1081.83,-298.607 1078,-294.773 1078,-290.94 1078,-290.94 1078,-283.273 1078,-283.273 1078,-279.44 1081.83,-275.607 1085.67,-275.607 1085.67,-275.607 1222.33,-275.607 1222.33,-275.607 1226.17,-275.607 1230,-279.44 1230,-283.273 1230,-283.273 1230,-290.94 1230,-290.94 1230,-294.773 1226.17,-298.607 1222.33,-298.607"/>
<text text-anchor="middle" x="1154" y="-283.407" font-family="Arial" font-size="14.00" fill="#cfffac">components/button.js</text>
</g>
<!-- components/buttonGrid.js&#45;&gt;actions/Engine.js -->
<g id="edge23" class="edge"><title>components/buttonGrid.js&#45;&gt;actions/Engine.js</title>
<path fill="none" stroke="#757575" d="M733.31,-298.693C773.722,-316.833 852.001,-351.972 897.467,-372.381"/>
<polygon fill="#757575" stroke="#757575" points="896.089,-375.599 906.645,-376.501 898.955,-369.212 896.089,-375.599"/>
</g>
<!-- components/buttonWrap.js -->
<g id="node26" class="node"><title>components/buttonWrap.js</title>
<path fill="none" stroke="#c6c5fe" d="M1019.33,-298.607C1019.33,-298.607 847.667,-298.607 847.667,-298.607 843.833,-298.607 840,-294.773 840,-290.94 840,-290.94 840,-283.273 840,-283.273 840,-279.44 843.833,-275.607 847.667,-275.607 847.667,-275.607 1019.33,-275.607 1019.33,-275.607 1023.17,-275.607 1027,-279.44 1027,-283.273 1027,-283.273 1027,-290.94 1027,-290.94 1027,-294.773 1023.17,-298.607 1019.33,-298.607"/>
<text text-anchor="middle" x="933.5" y="-283.407" font-family="Arial" font-size="14.00" fill="#c6c5fe">components/buttonWrap.js</text>
</g>
<!-- components/buttonGrid.js&#45;&gt;components/buttonWrap.js -->
<g id="edge24" class="edge"><title>components/buttonGrid.js&#45;&gt;components/buttonWrap.js</title>
<path fill="none" stroke="#757575" d="M796.103,-287.107C807.119,-287.107 818.455,-287.107 829.663,-287.107"/>
<polygon fill="#757575" stroke="#757575" points="829.906,-290.607 839.906,-287.107 829.906,-283.607 829.906,-290.607"/>
</g>
<!-- components/buttonWrap.js&#45;&gt;components/button.js -->
<g id="edge25" class="edge"><title>components/buttonWrap.js&#45;&gt;components/button.js</title>
<path fill="none" stroke="#757575" d="M1027.16,-287.107C1040.6,-287.107 1054.39,-287.107 1067.67,-287.107"/>
<polygon fill="#757575" stroke="#757575" points="1067.72,-290.607 1077.72,-287.107 1067.72,-283.607 1067.72,-290.607"/>
</g>
<!-- components/dropdown.js -->
<g id="node27" class="node"><title>components/dropdown.js</title>
<path fill="none" stroke="#c6c5fe" d="M2823.33,-245.607C2823.33,-245.607 2662.67,-245.607 2662.67,-245.607 2658.83,-245.607 2655,-241.773 2655,-237.94 2655,-237.94 2655,-230.273 2655,-230.273 2655,-226.44 2658.83,-222.607 2662.67,-222.607 2662.67,-222.607 2823.33,-222.607 2823.33,-222.607 2827.17,-222.607 2831,-226.44 2831,-230.273 2831,-230.273 2831,-237.94 2831,-237.94 2831,-241.773 2827.17,-245.607 2823.33,-245.607"/>
<text text-anchor="middle" x="2743" y="-230.407" font-family="Arial" font-size="14.00" fill="#c6c5fe">components/dropdown.js</text>
</g>
<!-- symbols/perks.js -->
<g id="node28" class="node"><title>symbols/perks.js</title>
<path fill="none" stroke="#c6c5fe" d="M3013.83,-245.607C3013.83,-245.607 2906.17,-245.607 2906.17,-245.607 2902.33,-245.607 2898.5,-241.773 2898.5,-237.94 2898.5,-237.94 2898.5,-230.273 2898.5,-230.273 2898.5,-226.44 2902.33,-222.607 2906.17,-222.607 2906.17,-222.607 3013.83,-222.607 3013.83,-222.607 3017.67,-222.607 3021.5,-226.44 3021.5,-230.273 3021.5,-230.273 3021.5,-237.94 3021.5,-237.94 3021.5,-241.773 3017.67,-245.607 3013.83,-245.607"/>
<text text-anchor="middle" x="2960" y="-230.407" font-family="Arial" font-size="14.00" fill="#c6c5fe">symbols/perks.js</text>
</g>
<!-- components/dropdown.js&#45;&gt;symbols/perks.js -->
<g id="edge26" class="edge"><title>components/dropdown.js&#45;&gt;symbols/perks.js</title>
<path fill="none" stroke="#757575" d="M2831.14,-234.107C2850.1,-234.107 2869.95,-234.107 2888.19,-234.107"/>
<polygon fill="#757575" stroke="#757575" points="2888.43,-237.607 2898.43,-234.107 2888.43,-230.607 2888.43,-237.607"/>
</g>
<!-- symbols/perks.js&#45;&gt;actions/engineMsg.js -->
<g id="edge107" class="edge"><title>symbols/perks.js&#45;&gt;actions/engineMsg.js</title>
<path fill="none" stroke="#757575" d="M3021.75,-228.173C3043.7,-226.029 3068.87,-223.57 3092.43,-221.269"/>
<polygon fill="#757575" stroke="#757575" points="3092.81,-224.749 3102.42,-220.294 3092.13,-217.783 3092.81,-224.749"/>
</g>
<!-- components/nameInput.js -->
<g id="node29" class="node"><title>components/nameInput.js</title>
<path fill="none" stroke="#c6c5fe" d="M2028.33,-459.607C2028.33,-459.607 1863.67,-459.607 1863.67,-459.607 1859.83,-459.607 1856,-455.773 1856,-451.94 1856,-451.94 1856,-444.273 1856,-444.273 1856,-440.44 1859.83,-436.607 1863.67,-436.607 1863.67,-436.607 2028.33,-436.607 2028.33,-436.607 2032.17,-436.607 2036,-440.44 2036,-444.273 2036,-444.273 2036,-451.94 2036,-451.94 2036,-455.773 2032.17,-459.607 2028.33,-459.607"/>
<text text-anchor="middle" x="1946" y="-444.407" font-family="Arial" font-size="14.00" fill="#c6c5fe">components/nameInput.js</text>
</g>
<!-- components/nameInput.js&#45;&gt;store/store.js -->
<g id="edge30" class="edge"><title>components/nameInput.js&#45;&gt;store/store.js</title>
<path fill="none" stroke="#757575" d="M2036.11,-445.876C2136.22,-444.137 2303.5,-443.534 2447,-454.107 2461.34,-455.163 2476.73,-456.918 2491.12,-458.834"/>
<polygon fill="#757575" stroke="#757575" points="2491.02,-462.352 2501.4,-460.25 2491.97,-455.418 2491.02,-462.352"/>
</g>
<!-- components/nameInput.js&#45;&gt;actions/Player.js -->
<g id="edge29" class="edge"><title>components/nameInput.js&#45;&gt;actions/Player.js</title>
<path fill="none" stroke="#757575" d="M1952.71,-460.005C1966.98,-489.758 2005.21,-569.829 2036,-637.107 2052.39,-672.93 2046.49,-688.085 2072,-718.107 2087.64,-736.519 2110.33,-751.446 2129.2,-761.806"/>
<polygon fill="#757575" stroke="#757575" points="2127.63,-764.936 2138.11,-766.52 2130.9,-758.749 2127.63,-764.936"/>
</g>
<!-- components/stat.js -->
<g id="node31" class="node"><title>components/stat.js</title>
<path fill="none" stroke="#cfffac" d="M993.833,-257.607C993.833,-257.607 873.167,-257.607 873.167,-257.607 869.333,-257.607 865.5,-253.773 865.5,-249.94 865.5,-249.94 865.5,-242.273 865.5,-242.273 865.5,-238.44 869.333,-234.607 873.167,-234.607 873.167,-234.607 993.833,-234.607 993.833,-234.607 997.667,-234.607 1001.5,-238.44 1001.5,-242.273 1001.5,-242.273 1001.5,-249.94 1001.5,-249.94 1001.5,-253.773 997.667,-257.607 993.833,-257.607"/>
<text text-anchor="middle" x="933.5" y="-242.407" font-family="Arial" font-size="14.00" fill="#cfffac">components/stat.js</text>
</g>
<!-- components/statDisplay.js&#45;&gt;components/stat.js -->
<g id="edge34" class="edge"><title>components/statDisplay.js&#45;&gt;components/stat.js</title>
<path fill="none" stroke="#757575" d="M797.72,-246.107C816.804,-246.107 836.779,-246.107 855.327,-246.107"/>
<polygon fill="#757575" stroke="#757575" points="855.471,-249.607 865.471,-246.107 855.471,-242.607 855.471,-249.607"/>
</g>
<!-- index.js -->
<g id="node34" class="node"><title>index.js</title>
<path fill="none" stroke="#c6c5fe" d="M93.8333,-115.607C93.8333,-115.607 44.1667,-115.607 44.1667,-115.607 40.3333,-115.607 36.5,-111.773 36.5,-107.94 36.5,-107.94 36.5,-100.273 36.5,-100.273 36.5,-96.4401 40.3333,-92.6068 44.1667,-92.6068 44.1667,-92.6068 93.8333,-92.6068 93.8333,-92.6068 97.6667,-92.6068 101.5,-96.4401 101.5,-100.273 101.5,-100.273 101.5,-107.94 101.5,-107.94 101.5,-111.773 97.6667,-115.607 93.8333,-115.607"/>
<text text-anchor="middle" x="69" y="-100.407" font-family="Arial" font-size="14.00" fill="#c6c5fe">index.js</text>
</g>
<!-- index.js&#45;&gt;store/store.js -->
<g id="edge36" class="edge"><title>index.js&#45;&gt;store/store.js</title>
<path fill="none" stroke="#757575" d="M97.3737,-92.4398C161.832,-66.0609 328.735,-4.10677 474.5,-4.10677 474.5,-4.10677 474.5,-4.10677 1362.5,-4.10677 1769.68,-4.10677 1867.34,-83.9708 2257,-202.107 2273.43,-207.088 2276.75,-210.583 2293,-216.107 2360.51,-239.051 2392.31,-215.351 2447,-261.107 2506.77,-311.115 2535.12,-404.331 2545.34,-446.454"/>
<polygon fill="#757575" stroke="#757575" points="2541.99,-447.501 2547.65,-456.455 2548.81,-445.924 2541.99,-447.501"/>
</g>
<!-- index.js&#45;&gt;components/appRoot.js -->
<g id="edge35" class="edge"><title>index.js&#45;&gt;components/appRoot.js</title>
<path fill="none" stroke="#757575" d="M101.557,-111.191C113.297,-114.391 126.542,-118.687 138,-124.107 174.459,-141.353 212.242,-169.045 235.19,-187.159"/>
<polygon fill="#757575" stroke="#757575" points="233.231,-190.074 243.225,-193.591 237.605,-184.609 233.231,-190.074"/>
</g>
<!-- reducers/root.js&#45;&gt;actions/coreMsg.js -->
<g id="edge37" class="edge"><title>reducers/root.js&#45;&gt;actions/coreMsg.js</title>
<path fill="none" stroke="#757575" d="M2801.08,-485.857C2887.45,-500.773 3042.47,-528.255 3053,-535.107 3076.56,-550.44 3066.77,-569.898 3089,-587.107 3097.96,-594.041 3108.56,-599.582 3119.24,-603.97"/>
<polygon fill="#757575" stroke="#757575" points="3118,-607.246 3128.6,-607.536 3120.5,-600.705 3118,-607.246"/>
</g>
<!-- reducers/root.js&#45;&gt;actions/enemyMsg.js -->
<g id="edge38" class="edge"><title>reducers/root.js&#45;&gt;actions/enemyMsg.js</title>
<path fill="none" stroke="#757575" d="M2751.32,-464.251C2768.26,-437.805 2812.9,-373.684 2867,-340.107 2874.1,-335.703 2881.96,-332.026 2890,-328.96"/>
<polygon fill="#757575" stroke="#757575" points="2891.22,-332.241 2899.51,-325.635 2888.91,-325.634 2891.22,-332.241"/>
</g>
<!-- reducers/root.js&#45;&gt;actions/invMsg.js -->
<g id="edge40" class="edge"><title>reducers/root.js&#45;&gt;actions/invMsg.js</title>
<path fill="none" stroke="#757575" d="M2748.61,-487.872C2762.42,-522.051 2806.31,-623.088 2867,-689.107 2884.62,-708.274 2908.95,-724.889 2928.17,-736.384"/>
<polygon fill="#757575" stroke="#757575" points="2926.47,-739.441 2936.87,-741.45 2929.99,-733.392 2926.47,-739.441"/>
</g>
<!-- reducers/root.js&#45;&gt;actions/engineMsg.js -->
<g id="edge39" class="edge"><title>reducers/root.js&#45;&gt;actions/engineMsg.js</title>
<path fill="none" stroke="#757575" d="M2754.2,-464.392C2773.76,-442.72 2818.89,-396.459 2867,-373.107 2942.99,-336.223 2984.54,-383.575 3053,-334.107 3078.83,-315.445 3067.27,-295.411 3089,-272.107 3104.9,-255.058 3126.59,-240.333 3144.34,-229.859"/>
<polygon fill="#757575" stroke="#757575" points="3146.27,-232.786 3153.21,-224.779 3142.79,-226.712 3146.27,-232.786"/>
</g>
<!-- reducers/root.js&#45;&gt;actions/playerMsg.js -->
<g id="edge41" class="edge"><title>reducers/root.js&#45;&gt;actions/playerMsg.js</title>
<path fill="none" stroke="#757575" d="M2750.61,-487.756C2766.72,-515.016 2810.82,-583.208 2867,-617.107 2939.73,-660.991 2971.04,-638.779 3053,-661.107 3079.13,-668.226 3108.09,-677.12 3131.34,-684.514"/>
<polygon fill="#757575" stroke="#757575" points="3130.34,-687.868 3140.93,-687.581 3132.47,-681.201 3130.34,-687.868"/>
</g>
<!-- reducers/root.js&#45;&gt;symbols/perks.js -->
<g id="edge47" class="edge"><title>reducers/root.js&#45;&gt;symbols/perks.js</title>
<path fill="none" stroke="#757575" d="M2749.79,-464.203C2765.34,-433.149 2810.64,-348.264 2867,-293.107 2884.6,-275.885 2907.99,-260.962 2926.79,-250.434"/>
<polygon fill="#757575" stroke="#757575" points="2928.5,-253.489 2935.6,-245.627 2925.14,-247.343 2928.5,-253.489"/>
</g>
<!-- reducers/updateBodyArr.js -->
<g id="node36" class="node"><title>reducers/updateBodyArr.js</title>
<path fill="none" stroke="#c6c5fe" d="M3045.33,-608.607C3045.33,-608.607 2874.67,-608.607 2874.67,-608.607 2870.83,-608.607 2867,-604.773 2867,-600.94 2867,-600.94 2867,-593.273 2867,-593.273 2867,-589.44 2870.83,-585.607 2874.67,-585.607 2874.67,-585.607 3045.33,-585.607 3045.33,-585.607 3049.17,-585.607 3053,-589.44 3053,-593.273 3053,-593.273 3053,-600.94 3053,-600.94 3053,-604.773 3049.17,-608.607 3045.33,-608.607"/>
<text text-anchor="middle" x="2960" y="-593.407" font-family="Arial" font-size="14.00" fill="#c6c5fe">reducers/updateBodyArr.js</text>
</g>
<!-- reducers/root.js&#45;&gt;reducers/updateBodyArr.js -->
<g id="edge42" class="edge"><title>reducers/root.js&#45;&gt;reducers/updateBodyArr.js</title>
<path fill="none" stroke="#757575" d="M2754.62,-487.719C2774.54,-508.746 2819.75,-553.076 2867,-576.107 2871.67,-578.381 2876.59,-580.414 2881.63,-582.231"/>
<polygon fill="#757575" stroke="#757575" points="2880.84,-585.657 2891.43,-585.465 2883.03,-579.009 2880.84,-585.657"/>
</g>
<!-- reducers/updateButtons.js -->
<g id="node37" class="node"><title>reducers/updateButtons.js</title>
<path fill="none" stroke="#cfffac" d="M3043.33,-487.607C3043.33,-487.607 2876.67,-487.607 2876.67,-487.607 2872.83,-487.607 2869,-483.773 2869,-479.94 2869,-479.94 2869,-472.273 2869,-472.273 2869,-468.44 2872.83,-464.607 2876.67,-464.607 2876.67,-464.607 3043.33,-464.607 3043.33,-464.607 3047.17,-464.607 3051,-468.44 3051,-472.273 3051,-472.273 3051,-479.94 3051,-479.94 3051,-483.773 3047.17,-487.607 3043.33,-487.607"/>
<text text-anchor="middle" x="2960" y="-472.407" font-family="Arial" font-size="14.00" fill="#cfffac">reducers/updateButtons.js</text>
</g>
<!-- reducers/root.js&#45;&gt;reducers/updateButtons.js -->
<g id="edge43" class="edge"><title>reducers/root.js&#45;&gt;reducers/updateButtons.js</title>
<path fill="none" stroke="#757575" d="M2801.05,-476.107C2818.82,-476.107 2838.98,-476.107 2858.8,-476.107"/>
<polygon fill="#757575" stroke="#757575" points="2858.8,-479.607 2868.8,-476.107 2858.8,-472.607 2858.8,-479.607"/>
</g>
<!-- reducers/updateStats.js -->
<g id="node38" class="node"><title>reducers/updateStats.js</title>
<path fill="none" stroke="#c6c5fe" d="M3035.83,-567.607C3035.83,-567.607 2884.17,-567.607 2884.17,-567.607 2880.33,-567.607 2876.5,-563.773 2876.5,-559.94 2876.5,-559.94 2876.5,-552.273 2876.5,-552.273 2876.5,-548.44 2880.33,-544.607 2884.17,-544.607 2884.17,-544.607 3035.83,-544.607 3035.83,-544.607 3039.67,-544.607 3043.5,-548.44 3043.5,-552.273 3043.5,-552.273 3043.5,-559.94 3043.5,-559.94 3043.5,-563.773 3039.67,-567.607 3035.83,-567.607"/>
<text text-anchor="middle" x="2960" y="-552.407" font-family="Arial" font-size="14.00" fill="#c6c5fe">reducers/updateStats.js</text>
</g>
<!-- reducers/root.js&#45;&gt;reducers/updateStats.js -->
<g id="edge44" class="edge"><title>reducers/root.js&#45;&gt;reducers/updateStats.js</title>
<path fill="none" stroke="#757575" d="M2767.64,-487.657C2792.12,-499.335 2831.66,-517.424 2867,-530.107 2878.59,-534.268 2891.2,-538.201 2903.25,-541.69"/>
<polygon fill="#757575" stroke="#757575" points="2902.64,-545.154 2913.22,-544.511 2904.55,-538.418 2902.64,-545.154"/>
</g>
<!-- reducers/updateTime.js -->
<g id="node39" class="node"><title>reducers/updateTime.js</title>
<path fill="none" stroke="#c6c5fe" d="M3035.83,-446.607C3035.83,-446.607 2884.17,-446.607 2884.17,-446.607 2880.33,-446.607 2876.5,-442.773 2876.5,-438.94 2876.5,-438.94 2876.5,-431.273 2876.5,-431.273 2876.5,-427.44 2880.33,-423.607 2884.17,-423.607 2884.17,-423.607 3035.83,-423.607 3035.83,-423.607 3039.67,-423.607 3043.5,-427.44 3043.5,-431.273 3043.5,-431.273 3043.5,-438.94 3043.5,-438.94 3043.5,-442.773 3039.67,-446.607 3035.83,-446.607"/>
<text text-anchor="middle" x="2960" y="-431.407" font-family="Arial" font-size="14.00" fill="#c6c5fe">reducers/updateTime.js</text>
</g>
<!-- reducers/root.js&#45;&gt;reducers/updateTime.js -->
<g id="edge45" class="edge"><title>reducers/root.js&#45;&gt;reducers/updateTime.js</title>
<path fill="none" stroke="#757575" d="M2801.05,-465.227C2827.98,-460.092 2860.38,-453.914 2888.8,-448.494"/>
<polygon fill="#757575" stroke="#757575" points="2889.5,-451.923 2898.67,-446.611 2888.19,-445.047 2889.5,-451.923"/>
</g>
<!-- store/initialState.js -->
<g id="node40" class="node"><title>store/initialState.js</title>
<path fill="none" stroke="#c6c5fe" d="M3017.83,-405.607C3017.83,-405.607 2902.17,-405.607 2902.17,-405.607 2898.33,-405.607 2894.5,-401.773 2894.5,-397.94 2894.5,-397.94 2894.5,-390.273 2894.5,-390.273 2894.5,-386.44 2898.33,-382.607 2902.17,-382.607 2902.17,-382.607 3017.83,-382.607 3017.83,-382.607 3021.67,-382.607 3025.5,-386.44 3025.5,-390.273 3025.5,-390.273 3025.5,-397.94 3025.5,-397.94 3025.5,-401.773 3021.67,-405.607 3017.83,-405.607"/>
<text text-anchor="middle" x="2960" y="-390.407" font-family="Arial" font-size="14.00" fill="#c6c5fe">store/initialState.js</text>
</g>
<!-- reducers/root.js&#45;&gt;store/initialState.js -->
<g id="edge46" class="edge"><title>reducers/root.js&#45;&gt;store/initialState.js</title>
<path fill="none" stroke="#757575" d="M2763.34,-464.413C2787.01,-450.569 2828.68,-427.682 2867,-414.107 2872.97,-411.993 2879.23,-410.062 2885.57,-408.305"/>
<polygon fill="#757575" stroke="#757575" points="2886.77,-411.609 2895.56,-405.688 2885,-404.837 2886.77,-411.609"/>
</g>
<!-- reducers/root.js&#45;&gt;utils.js -->
<g id="edge48" class="edge"><title>reducers/root.js&#45;&gt;utils.js</title>
<path fill="none" stroke="#757575" d="M2748.7,-487.63C2762.15,-519.152 2803.94,-607.488 2867,-653.107 2950.4,-713.436 2987.14,-704.286 3089,-719.107 3166.41,-730.37 3200.35,-763.135 3265,-719.107 3311.09,-687.72 3323.46,-616.957 3326.78,-580.987"/>
<polygon fill="#757575" stroke="#757575" points="3330.3,-580.863 3327.57,-570.625 3323.32,-580.33 3330.3,-580.863"/>
</g>
<!-- reducers/updateBodyArr.js&#45;&gt;actions/playerMsg.js -->
<g id="edge49" class="edge"><title>reducers/updateBodyArr.js&#45;&gt;actions/playerMsg.js</title>
<path fill="none" stroke="#757575" d="M3023.94,-608.759C3034.2,-612.339 3044.3,-617.012 3053,-623.107 3075.43,-638.818 3066.69,-657.228 3089,-673.107 3094.92,-677.318 3101.52,-680.855 3108.37,-683.825"/>
<polygon fill="#757575" stroke="#757575" points="3107.24,-687.141 3117.83,-687.532 3109.8,-680.624 3107.24,-687.141"/>
</g>
<!-- reducers/updateStats.js&#45;&gt;actions/coreMsg.js -->
<g id="edge50" class="edge"><title>reducers/updateStats.js&#45;&gt;actions/coreMsg.js</title>
<path fill="none" stroke="#757575" d="M3023.39,-567.656C3033.39,-570.083 3043.56,-572.898 3053,-576.107 3069.75,-581.801 3072.48,-586.778 3089,-593.107 3099.82,-597.25 3111.59,-601.157 3122.88,-604.621"/>
<polygon fill="#757575" stroke="#757575" points="3122.06,-608.029 3132.64,-607.547 3124.07,-601.323 3122.06,-608.029"/>
</g>
<!-- reducers/updateStats.js&#45;&gt;actions/playerMsg.js -->
<g id="edge51" class="edge"><title>reducers/updateStats.js&#45;&gt;actions/playerMsg.js</title>
<path fill="none" stroke="#757575" d="M3040.85,-567.833C3045.2,-570.158 3049.3,-572.893 3053,-576.107 3087.73,-606.246 3055.45,-641.664 3089,-673.107 3093.1,-676.947 3097.74,-680.222 3102.7,-683.014"/>
<polygon fill="#757575" stroke="#757575" points="3101.39,-686.27 3111.9,-687.538 3104.47,-679.987 3101.39,-686.27"/>
</g>
<!-- reducers/updateStats.js&#45;&gt;utils.js -->
<g id="edge52" class="edge"><title>reducers/updateStats.js&#45;&gt;utils.js</title>
<path fill="none" stroke="#757575" d="M3038.45,-567.727C3043.61,-570.053 3048.52,-572.82 3053,-576.107 3079,-595.18 3061.11,-622.92 3089,-639.107 3156.66,-678.369 3194.63,-673.262 3265,-639.107 3290.17,-626.89 3308.3,-599.204 3318.47,-579.844"/>
<polygon fill="#757575" stroke="#757575" points="3321.62,-581.371 3322.94,-570.859 3315.35,-578.253 3321.62,-581.371"/>
</g>
<!-- reducers/updateTime.js&#45;&gt;utils.js -->
<g id="edge53" class="edge"><title>reducers/updateTime.js&#45;&gt;utils.js</title>
<path fill="none" stroke="#757575" d="M3040.93,-446.737C3045.26,-449.086 3049.33,-451.852 3053,-455.107 3089.59,-487.572 3049.16,-530.735 3089,-559.107 3148.92,-601.775 3240.47,-585.346 3291.1,-571.209"/>
<polygon fill="#757575" stroke="#757575" points="3292.34,-574.494 3300.96,-568.339 3290.38,-567.773 3292.34,-574.494"/>
</g>
<!-- store/initialState.js&#45;&gt;scenes/sceneSymbols.js -->
<g id="edge88" class="edge"><title>store/initialState.js&#45;&gt;scenes/sceneSymbols.js</title>
<path fill="none" stroke="#757575" d="M2989.25,-382.53C3009.92,-372.638 3037.03,-356.446 3053,-334.107 3090.86,-281.139 3057.78,-249.238 3089,-192.107 3105.4,-162.096 3133.75,-134.397 3153.61,-117.174"/>
<polygon fill="#757575" stroke="#757575" points="3155.92,-119.807 3161.29,-110.673 3151.4,-114.466 3155.92,-119.807"/>
</g>
<!-- symbols/face.js -->
<g id="node55" class="node"><title>symbols/face.js</title>
<path fill="none" stroke="#c6c5fe" d="M3227.33,-427.607C3227.33,-427.607 3126.67,-427.607 3126.67,-427.607 3122.83,-427.607 3119,-423.773 3119,-419.94 3119,-419.94 3119,-412.273 3119,-412.273 3119,-408.44 3122.83,-404.607 3126.67,-404.607 3126.67,-404.607 3227.33,-404.607 3227.33,-404.607 3231.17,-404.607 3235,-408.44 3235,-412.273 3235,-412.273 3235,-419.94 3235,-419.94 3235,-423.773 3231.17,-427.607 3227.33,-427.607"/>
<text text-anchor="middle" x="3177" y="-412.407" font-family="Arial" font-size="14.00" fill="#c6c5fe">symbols/face.js</text>
</g>
<!-- store/initialState.js&#45;&gt;symbols/face.js -->
<g id="edge89" class="edge"><title>store/initialState.js&#45;&gt;symbols/face.js</title>
<path fill="none" stroke="#757575" d="M3025.51,-400.707C3051.83,-403.401 3082.27,-406.516 3108.86,-409.236"/>
<polygon fill="#757575" stroke="#757575" points="3108.54,-412.722 3118.84,-410.258 3109.25,-405.758 3108.54,-412.722"/>
</g>
<!-- symbols/gear.js -->
<g id="node56" class="node"><title>symbols/gear.js</title>
<path fill="none" stroke="#c6c5fe" d="M3227.33,-386.607C3227.33,-386.607 3126.67,-386.607 3126.67,-386.607 3122.83,-386.607 3119,-382.773 3119,-378.94 3119,-378.94 3119,-371.273 3119,-371.273 3119,-367.44 3122.83,-363.607 3126.67,-363.607 3126.67,-363.607 3227.33,-363.607 3227.33,-363.607 3231.17,-363.607 3235,-367.44 3235,-371.273 3235,-371.273 3235,-378.94 3235,-378.94 3235,-382.773 3231.17,-386.607 3227.33,-386.607"/>
<text text-anchor="middle" x="3177" y="-371.407" font-family="Arial" font-size="14.00" fill="#c6c5fe">symbols/gear.js</text>
</g>
<!-- store/initialState.js&#45;&gt;symbols/gear.js -->
<g id="edge90" class="edge"><title>store/initialState.js&#45;&gt;symbols/gear.js</title>
<path fill="none" stroke="#757575" d="M3025.51,-388.406C3051.83,-386.08 3082.27,-383.39 3108.86,-381.04"/>
<polygon fill="#757575" stroke="#757575" points="3109.19,-384.525 3118.84,-380.158 3108.57,-377.552 3109.19,-384.525"/>
</g>
<!-- symbols/lowerBody.js -->
<g id="node57" class="node"><title>symbols/lowerBody.js</title>
<path fill="none" stroke="#c6c5fe" d="M3246.83,-345.607C3246.83,-345.607 3107.17,-345.607 3107.17,-345.607 3103.33,-345.607 3099.5,-341.773 3099.5,-337.94 3099.5,-337.94 3099.5,-330.273 3099.5,-330.273 3099.5,-326.44 3103.33,-322.607 3107.17,-322.607 3107.17,-322.607 3246.83,-322.607 3246.83,-322.607 3250.67,-322.607 3254.5,-326.44 3254.5,-330.273 3254.5,-330.273 3254.5,-337.94 3254.5,-337.94 3254.5,-341.773 3250.67,-345.607 3246.83,-345.607"/>
<text text-anchor="middle" x="3177" y="-330.407" font-family="Arial" font-size="14.00" fill="#c6c5fe">symbols/lowerBody.js</text>
</g>
<!-- store/initialState.js&#45;&gt;symbols/lowerBody.js -->
<g id="edge91" class="edge"><title>store/initialState.js&#45;&gt;symbols/lowerBody.js</title>
<path fill="none" stroke="#757575" d="M3005.25,-382.523C3020.48,-378.293 3037.58,-373.272 3053,-368.107 3069.28,-362.655 3072.59,-359.154 3089,-354.107 3095.93,-351.977 3103.22,-349.957 3110.52,-348.08"/>
<polygon fill="#757575" stroke="#757575" points="3111.59,-351.421 3120.45,-345.61 3109.9,-344.628 3111.59,-351.421"/>
</g>
<!-- symbols/skin.js -->
<g id="node58" class="node"><title>symbols/skin.js</title>
<path fill="none" stroke="#c6c5fe" d="M3225.83,-304.607C3225.83,-304.607 3128.17,-304.607 3128.17,-304.607 3124.33,-304.607 3120.5,-300.773 3120.5,-296.94 3120.5,-296.94 3120.5,-289.273 3120.5,-289.273 3120.5,-285.44 3124.33,-281.607 3128.17,-281.607 3128.17,-281.607 3225.83,-281.607 3225.83,-281.607 3229.67,-281.607 3233.5,-285.44 3233.5,-289.273 3233.5,-289.273 3233.5,-296.94 3233.5,-296.94 3233.5,-300.773 3229.67,-304.607 3225.83,-304.607"/>
<text text-anchor="middle" x="3177" y="-289.407" font-family="Arial" font-size="14.00" fill="#c6c5fe">symbols/skin.js</text>
</g>
<!-- store/initialState.js&#45;&gt;symbols/skin.js -->
<g id="edge92" class="edge"><title>store/initialState.js&#45;&gt;symbols/skin.js</title>
<path fill="none" stroke="#757575" d="M3025.13,-382.436C3035.03,-378.862 3044.71,-374.197 3053,-368.107 3076.55,-350.816 3065.03,-329.81 3089,-313.107 3095.6,-308.508 3103.1,-304.952 3110.86,-302.205"/>
<polygon fill="#757575" stroke="#757575" points="3111.9,-305.546 3120.42,-299.24 3109.83,-298.86 3111.9,-305.546"/>
</g>
<!-- symbols/tail.js -->
<g id="node59" class="node"><title>symbols/tail.js</title>
<path fill="none" stroke="#c6c5fe" d="M3221.83,-550.607C3221.83,-550.607 3132.17,-550.607 3132.17,-550.607 3128.33,-550.607 3124.5,-546.773 3124.5,-542.94 3124.5,-542.94 3124.5,-535.273 3124.5,-535.273 3124.5,-531.44 3128.33,-527.607 3132.17,-527.607 3132.17,-527.607 3221.83,-527.607 3221.83,-527.607 3225.67,-527.607 3229.5,-531.44 3229.5,-535.273 3229.5,-535.273 3229.5,-542.94 3229.5,-542.94 3229.5,-546.773 3225.67,-550.607 3221.83,-550.607"/>
<text text-anchor="middle" x="3177" y="-535.407" font-family="Arial" font-size="14.00" fill="#c6c5fe">symbols/tail.js</text>
</g>
<!-- store/initialState.js&#45;&gt;symbols/tail.js -->
<g id="edge93" class="edge"><title>store/initialState.js&#45;&gt;symbols/tail.js</title>
<path fill="none" stroke="#757575" d="M3025.89,-399.415C3035.81,-402.59 3045.3,-407.272 3053,-414.107 3089.59,-446.572 3052.79,-485.226 3089,-518.107 3096.26,-524.696 3105.22,-529.313 3114.61,-532.53"/>
<polygon fill="#757575" stroke="#757575" points="3113.91,-535.972 3124.49,-535.399 3115.87,-529.25 3113.91,-535.972"/>
</g>
<!-- symbols/tongue.js -->
<g id="node60" class="node"><title>symbols/tongue.js</title>
<path fill="none" stroke="#c6c5fe" d="M3234.83,-509.607C3234.83,-509.607 3119.17,-509.607 3119.17,-509.607 3115.33,-509.607 3111.5,-505.773 3111.5,-501.94 3111.5,-501.94 3111.5,-494.273 3111.5,-494.273 3111.5,-490.44 3115.33,-486.607 3119.17,-486.607 3119.17,-486.607 3234.83,-486.607 3234.83,-486.607 3238.67,-486.607 3242.5,-490.44 3242.5,-494.273 3242.5,-494.273 3242.5,-501.94 3242.5,-501.94 3242.5,-505.773 3238.67,-509.607 3234.83,-509.607"/>
<text text-anchor="middle" x="3177" y="-494.407" font-family="Arial" font-size="14.00" fill="#c6c5fe">symbols/tongue.js</text>
</g>
<!-- store/initialState.js&#45;&gt;symbols/tongue.js -->
<g id="edge94" class="edge"><title>store/initialState.js&#45;&gt;symbols/tongue.js</title>
<path fill="none" stroke="#757575" d="M3025.82,-400.976C3035.53,-403.987 3044.96,-408.21 3053,-414.107 3079,-433.18 3063.22,-457.738 3089,-477.107 3092.91,-480.043 3097.17,-482.575 3101.64,-484.758"/>
<polygon fill="#757575" stroke="#757575" points="3100.49,-488.072 3111.06,-488.764 3103.23,-481.63 3100.49,-488.072"/>
</g>
<!-- symbols/wings.js -->
<g id="node61" class="node"><title>symbols/wings.js</title>
<path fill="none" stroke="#c6c5fe" d="M3231.33,-468.607C3231.33,-468.607 3122.67,-468.607 3122.67,-468.607 3118.83,-468.607 3115,-464.773 3115,-460.94 3115,-460.94 3115,-453.273 3115,-453.273 3115,-449.44 3118.83,-445.607 3122.67,-445.607 3122.67,-445.607 3231.33,-445.607 3231.33,-445.607 3235.17,-445.607 3239,-449.44 3239,-453.273 3239,-453.273 3239,-460.94 3239,-460.94 3239,-464.773 3235.17,-468.607 3231.33,-468.607"/>
<text text-anchor="middle" x="3177" y="-453.407" font-family="Arial" font-size="14.00" fill="#c6c5fe">symbols/wings.js</text>
</g>
<!-- store/initialState.js&#45;&gt;symbols/wings.js -->
<g id="edge95" class="edge"><title>store/initialState.js&#45;&gt;symbols/wings.js</title>
<path fill="none" stroke="#757575" d="M3025.67,-405.289C3034.99,-407.725 3044.35,-410.64 3053,-414.107 3070.4,-421.085 3071.68,-428.931 3089,-436.107 3094.84,-438.526 3101.02,-440.707 3107.29,-442.664"/>
<polygon fill="#757575" stroke="#757575" points="3106.59,-446.106 3117.17,-445.557 3108.56,-439.388 3106.59,-446.106"/>
</g>
<!-- scenes/charCreation.js&#45;&gt;actions/Core.js -->
<g id="edge54" class="edge"><title>scenes/charCreation.js&#45;&gt;actions/Core.js</title>
<path fill="none" stroke="#757575" d="M1426.9,-694.576C1520.85,-678.328 1701.19,-649.318 1856,-637.107 1951.72,-629.556 1976,-634.804 2072,-633.107 2151.94,-631.694 2243.98,-630.158 2304.15,-629.167"/>
<polygon fill="#757575" stroke="#757575" points="2304.32,-632.665 2314.26,-629.001 2304.2,-625.666 2304.32,-632.665"/>
</g>
<!-- scenes/charCreation.js&#45;&gt;store/store.js -->
<g id="edge60" class="edge"><title>scenes/charCreation.js&#45;&gt;store/store.js</title>
<path fill="none" stroke="#757575" d="M1390.59,-694.555C1413.75,-685.361 1447.6,-672.659 1478,-664.107 1833.76,-564.013 1928.14,-557.949 2293,-499.107 2360.59,-488.206 2438.75,-479.301 2490.96,-473.877"/>
<polygon fill="#757575" stroke="#757575" points="2491.46,-477.344 2501.05,-472.839 2490.74,-470.381 2491.46,-477.344"/>
</g>
<!-- scenes/charCreation.js&#45;&gt;actions/Player.js -->
<g id="edge55" class="edge"><title>scenes/charCreation.js&#45;&gt;actions/Player.js</title>
<path fill="none" stroke="#757575" d="M1442.23,-713.274C1599.41,-727.402 1946.83,-758.631 2094.7,-771.923"/>
<polygon fill="#757575" stroke="#757575" points="2094.73,-775.439 2105,-772.848 2095.35,-768.467 2094.73,-775.439"/>
</g>
<!-- scenes/charCreation.js&#45;&gt;symbols/breastCup.js -->
<g id="edge61" class="edge"><title>scenes/charCreation.js&#45;&gt;symbols/breastCup.js</title>
<path fill="none" stroke="#757575" d="M1365.07,-717.772C1373.79,-754.456 1405.8,-868.34 1478,-924.107 1568.35,-993.892 1613.84,-983.107 1728,-983.107 1728,-983.107 1728,-983.107 1947,-983.107 2063.16,-983.107 2197.31,-982.34 2282.61,-981.756"/>
<polygon fill="#757575" stroke="#757575" points="2282.79,-985.254 2292.77,-981.685 2282.74,-978.255 2282.79,-985.254"/>
</g>
<!-- scenes/charCreation.js&#45;&gt;appearance/appearance.js -->
<g id="edge56" class="edge"><title>scenes/charCreation.js&#45;&gt;appearance/appearance.js</title>
<path fill="none" stroke="#757575" d="M1366.2,-717.89C1377.24,-750.961 1413.25,-845.155 1478,-890.107 1569.83,-953.853 1894.23,-952.692 2061.73,-947.477"/>
<polygon fill="#757575" stroke="#757575" points="2061.91,-950.973 2071.8,-947.153 2061.69,-943.977 2061.91,-950.973"/>
</g>
<!-- scenes/charCreation.js&#45;&gt;symbols/gender.js -->
<g id="edge63" class="edge"><title>scenes/charCreation.js&#45;&gt;symbols/gender.js</title>
<path fill="none" stroke="#757575" d="M1363.92,-717.706C1369.61,-758.885 1394.62,-899.207 1478,-967.107 1566.14,-1038.89 1614.33,-1021.11 1728,-1021.11 1728,-1021.11 1728,-1021.11 1947,-1021.11 2068.09,-1021.11 2208.73,-1021.52 2293.2,-1021.82"/>
<polygon fill="#757575" stroke="#757575" points="2293.2,-1025.32 2303.21,-1021.85 2293.23,-1018.32 2293.2,-1025.32"/>
</g>
<!-- scenes/charCreation.js&#45;&gt;scenes/menus.js -->
<g id="edge57" class="edge"><title>scenes/charCreation.js&#45;&gt;scenes/menus.js</title>
<path fill="none" stroke="#757575" d="M1377.89,-694.563C1396.03,-680.113 1425.76,-653.644 1442,-624.107 1475.03,-564.03 1433.74,-526.468 1478,-474.107 1480.96,-470.599 1484.49,-467.554 1488.32,-464.911"/>
<polygon fill="#757575" stroke="#757575" points="1490.26,-467.829 1497.11,-459.747 1486.72,-461.793 1490.26,-467.829"/>
</g>
<!-- scenes/charCreation.js&#45;&gt;scenes/sceneSymbols.js -->
<g id="edge58" class="edge"><title>scenes/charCreation.js&#45;&gt;scenes/sceneSymbols.js</title>
<path fill="none" stroke="#757575" d="M1378.49,-694.456C1396.93,-680.094 1426.66,-653.902 1442,-624.107 1482.73,-544.968 1441.85,-508.441 1478,-427.107 1525.37,-320.528 1546.63,-291.596 1638,-219.107 1899.87,-11.3442 2034.72,-42.1068 2369,-42.1068 2369,-42.1068 2369,-42.1068 2744,-42.1068 2876.3,-42.1068 3029.46,-68.7096 3113.23,-85.5669"/>
<polygon fill="#757575" stroke="#757575" points="3112.59,-89.0101 3123.09,-87.572 3113.99,-82.1504 3112.59,-89.0101"/>
</g>
<!-- scenes/sceneTextStore.js -->
<g id="node45" class="node"><title>scenes/sceneTextStore.js</title>
<path fill="none" stroke="#c6c5fe" d="M1812.33,-459.607C1812.33,-459.607 1645.67,-459.607 1645.67,-459.607 1641.83,-459.607 1638,-455.773 1638,-451.94 1638,-451.94 1638,-444.273 1638,-444.273 1638,-440.44 1641.83,-436.607 1645.67,-436.607 1645.67,-436.607 1812.33,-436.607 1812.33,-436.607 1816.17,-436.607 1820,-440.44 1820,-444.273 1820,-444.273 1820,-451.94 1820,-451.94 1820,-455.773 1816.17,-459.607 1812.33,-459.607"/>
<text text-anchor="middle" x="1729" y="-444.407" font-family="Arial" font-size="14.00" fill="#c6c5fe">scenes/sceneTextStore.js</text>
</g>
<!-- scenes/charCreation.js&#45;&gt;scenes/sceneTextStore.js -->
<g id="edge59" class="edge"><title>scenes/charCreation.js&#45;&gt;scenes/sceneTextStore.js</title>
<path fill="none" stroke="#757575" d="M1374.08,-694.189C1402.77,-664.664 1475.08,-590.339 1478,-588.107 1548.51,-534.138 1642.23,-487.366 1692.52,-463.993"/>
<polygon fill="#757575" stroke="#757575" points="1694.07,-467.134 1701.68,-459.77 1691.14,-460.777 1694.07,-467.134"/>
</g>
<!-- symbols/butt.js -->
<g id="node46" class="node"><title>symbols/butt.js</title>
<path fill="none" stroke="#c6c5fe" d="M1776.83,-914.607C1776.83,-914.607 1681.17,-914.607 1681.17,-914.607 1677.33,-914.607 1673.5,-910.773 1673.5,-906.94 1673.5,-906.94 1673.5,-899.273 1673.5,-899.273 1673.5,-895.44 1677.33,-891.607 1681.17,-891.607 1681.17,-891.607 1776.83,-891.607 1776.83,-891.607 1780.67,-891.607 1784.5,-895.44 1784.5,-899.273 1784.5,-899.273 1784.5,-906.94 1784.5,-906.94 1784.5,-910.773 1780.67,-914.607 1776.83,-914.607"/>
<text text-anchor="middle" x="1729" y="-899.407" font-family="Arial" font-size="14.00" fill="#c6c5fe">symbols/butt.js</text>
</g>
<!-- scenes/charCreation.js&#45;&gt;symbols/butt.js -->
<g id="edge62" class="edge"><title>scenes/charCreation.js&#45;&gt;symbols/butt.js</title>
<path fill="none" stroke="#757575" d="M1367.82,-717.729C1381.54,-746.3 1421.1,-820.177 1478,-855.107 1534.26,-889.643 1609.98,-900.218 1663.3,-903.036"/>
<polygon fill="#757575" stroke="#757575" points="1663.17,-906.534 1673.32,-903.489 1663.48,-899.541 1663.17,-906.534"/>
</g>
<!-- symbols/hips.js -->
<g id="node47" class="node"><title>symbols/hips.js</title>
<path fill="none" stroke="#c6c5fe" d="M1589.33,-846.607C1589.33,-846.607 1490.67,-846.607 1490.67,-846.607 1486.83,-846.607 1483,-842.773 1483,-838.94 1483,-838.94 1483,-831.273 1483,-831.273 1483,-827.44 1486.83,-823.607 1490.67,-823.607 1490.67,-823.607 1589.33,-823.607 1589.33,-823.607 1593.17,-823.607 1597,-827.44 1597,-831.273 1597,-831.273 1597,-838.94 1597,-838.94 1597,-842.773 1593.17,-846.607 1589.33,-846.607"/>
<text text-anchor="middle" x="1540" y="-831.407" font-family="Arial" font-size="14.00" fill="#c6c5fe">symbols/hips.js</text>
</g>
<!-- scenes/charCreation.js&#45;&gt;symbols/hips.js -->
<g id="edge64" class="edge"><title>scenes/charCreation.js&#45;&gt;symbols/hips.js</title>
<path fill="none" stroke="#757575" d="M1378.47,-717.782C1409.58,-740.519 1478.44,-790.848 1515.04,-817.598"/>
<polygon fill="#757575" stroke="#757575" points="1513.05,-820.476 1523.19,-823.551 1517.18,-814.824 1513.05,-820.476"/>
</g>
<!-- scenes/menus.js&#45;&gt;actions/Core.js -->
<g id="edge75" class="edge"><title>scenes/menus.js&#45;&gt;actions/Core.js</title>
<path fill="none" stroke="#757575" d="M1594.79,-459.629C1608.83,-462.518 1623.96,-465.527 1638,-468.107 1912.09,-518.479 1993,-478.862 2257,-568.107 2288.08,-578.615 2320.86,-597.169 2342.87,-610.871"/>
<polygon fill="#757575" stroke="#757575" points="2341.28,-614.01 2351.6,-616.408 2345.03,-608.098 2341.28,-614.01"/>
</g>
<!-- scenes/menus.js&#45;&gt;scenes/sceneSymbols.js -->
<g id="edge76" class="edge"><title>scenes/menus.js&#45;&gt;scenes/sceneSymbols.js</title>
<path fill="none" stroke="#757575" d="M1552.4,-436.338C1591.15,-397.005 1722.79,-268.79 1856,-201.107 2135.13,-59.2776 2236.9,-80.1068 2550,-80.1068 2550,-80.1068 2550,-80.1068 2744,-80.1068 2859,-80.1068 2991.05,-86.9098 3078.57,-92.3744"/>
<polygon fill="#757575" stroke="#757575" points="3078.56,-95.8801 3088.76,-93.0166 3079,-88.894 3078.56,-95.8801"/>
</g>
<!-- scenes/menus.js&#45;&gt;scenes/sceneTextStore.js -->
<g id="edge77" class="edge"><title>scenes/menus.js&#45;&gt;scenes/sceneTextStore.js</title>
<path fill="none" stroke="#757575" d="M1602.23,-448.107C1610.42,-448.107 1618.99,-448.107 1627.64,-448.107"/>
<polygon fill="#757575" stroke="#757575" points="1627.81,-451.607 1637.81,-448.107 1627.81,-444.607 1627.81,-451.607"/>
</g>
<!-- scenes/sceneTextStore.js&#45;&gt;components/nameInput.js -->
<g id="edge86" class="edge"><title>scenes/sceneTextStore.js&#45;&gt;components/nameInput.js</title>
<path fill="none" stroke="#757575" d="M1820.24,-448.107C1828.58,-448.107 1837.05,-448.107 1845.46,-448.107"/>
<polygon fill="#757575" stroke="#757575" points="1845.68,-451.607 1855.68,-448.107 1845.68,-444.607 1845.68,-451.607"/>
</g>
<!-- scenes/sceneTextStore.js&#45;&gt;scenes/sceneSymbols.js -->
<g id="edge87" class="edge"><title>scenes/sceneTextStore.js&#45;&gt;scenes/sceneSymbols.js</title>
<path fill="none" stroke="#757575" d="M1740.73,-436.442C1780.16,-394.415 1922.5,-249.823 2072,-185.107 2170.43,-142.498 2442.74,-118.107 2550,-118.107 2550,-118.107 2550,-118.107 2744,-118.107 2859,-118.107 2991.05,-111.304 3078.57,-105.839"/>
<polygon fill="#757575" stroke="#757575" points="3079,-109.32 3088.76,-105.197 3078.56,-102.333 3079,-109.32"/>
</g>
<!-- symbols/butt.js&#45;&gt;utils.js -->
<g id="edge98" class="edge"><title>symbols/butt.js&#45;&gt;utils.js</title>
<path fill="none" stroke="#757575" d="M1784.58,-903.474C1936.35,-904.463 2376.33,-907.107 2742,-907.107 2742,-907.107 2742,-907.107 2961,-907.107 3028.77,-907.107 3214.45,-928.235 3265,-883.107 3310.36,-842.613 3323.81,-646.594 3327.08,-580.738"/>
<polygon fill="#757575" stroke="#757575" points="3330.58,-580.823 3327.55,-570.67 3323.59,-580.496 3330.58,-580.823"/>
</g>
<!-- symbols/hips.js&#45;&gt;utils.js -->
<g id="edge104" class="edge"><title>symbols/hips.js&#45;&gt;utils.js</title>
<path fill="none" stroke="#757575" d="M1597.26,-837.832C1768.87,-845.9 2300.83,-869.107 2742,-869.107 2742,-869.107 2742,-869.107 2961,-869.107 3100.49,-869.107 3165.68,-889.047 3265,-791.107 3323.63,-733.294 3329.31,-626.808 3328.83,-581"/>
<polygon fill="#757575" stroke="#757575" points="3332.32,-580.648 3328.6,-570.728 3325.33,-580.802 3332.32,-580.648"/>
</g>
<!-- scenes/combat/combat.js&#45;&gt;actions/Core.js -->
<g id="edge65" class="edge"><title>scenes/combat/combat.js&#45;&gt;actions/Core.js</title>
<path fill="none" stroke="#757575" d="M1981.31,-401.664C2040.4,-422.406 2163.98,-469.499 2257,-530.107 2293.05,-553.598 2329.6,-588.002 2350.74,-609.177"/>
<polygon fill="#757575" stroke="#757575" points="2348.28,-611.674 2357.8,-616.335 2353.27,-606.758 2348.28,-611.674"/>
</g>
<!-- scenes/combat/combat.js&#45;&gt;store/store.js -->
<g id="edge69" class="edge"><title>scenes/combat/combat.js&#45;&gt;store/store.js</title>
<path fill="none" stroke="#757575" d="M2003.37,-378.589C2024.77,-374.758 2049.41,-370.991 2072,-369.107 2153.94,-362.272 2175.87,-355.77 2257,-369.107 2353.76,-385.012 2461.59,-428.61 2515.44,-452.293"/>
<polygon fill="#757575" stroke="#757575" points="2514.29,-455.613 2524.85,-456.472 2517.13,-449.215 2514.29,-455.613"/>
</g>
<!-- scenes/combat/combat.js&#45;&gt;actions/Enemy.js -->
<g id="edge66" class="edge"><title>scenes/combat/combat.js&#45;&gt;actions/Enemy.js</title>
<path fill="none" stroke="#757575" d="M1966.94,-378.439C1990.93,-365.139 2032.88,-344.196 2072,-336.107 2150.04,-319.971 2241.92,-329.104 2302.59,-338.904"/>
<polygon fill="#757575" stroke="#757575" points="2302.36,-342.413 2312.8,-340.606 2303.51,-335.509 2302.36,-342.413"/>
</g>
<!-- scenes/combat/combat.js&#45;&gt;actions/Player.js -->
<g id="edge67" class="edge"><title>scenes/combat/combat.js&#45;&gt;actions/Player.js</title>
<path fill="none" stroke="#757575" d="M1999.7,-401.664C2013.48,-407.166 2026.99,-415.25 2036,-427.107 2114.86,-530.856 2003.14,-607.468 2072,-718.107 2084.16,-737.649 2105.31,-752.133 2124.21,-761.97"/>
<polygon fill="#757575" stroke="#757575" points="2122.75,-765.149 2133.26,-766.428 2125.84,-758.869 2122.75,-765.149"/>
</g>
<!-- scenes/combat/combat.js&#45;&gt;scenes/sceneSymbols.js -->
<g id="edge68" class="edge"><title>scenes/combat/combat.js&#45;&gt;scenes/sceneSymbols.js</title>
<path fill="none" stroke="#757575" d="M1960.26,-378.43C2004,-340.728 2149.1,-221.981 2293,-175.107 2401.9,-139.634 2435.47,-156.107 2550,-156.107 2550,-156.107 2550,-156.107 2744,-156.107 2881.75,-156.107 2917.23,-155.386 3053,-132.107 3078.91,-127.664 3107.29,-120.229 3130.25,-113.54"/>
<polygon fill="#757575" stroke="#757575" points="3131.47,-116.829 3140.06,-110.632 3129.48,-110.118 3131.47,-116.829"/>
</g>
<!-- symbols/enemies/goblin.js -->
<g id="node49" class="node"><title>symbols/enemies/goblin.js</title>
<path fill="none" stroke="#c6c5fe" d="M2249.33,-401.607C2249.33,-401.607 2079.67,-401.607 2079.67,-401.607 2075.83,-401.607 2072,-397.773 2072,-393.94 2072,-393.94 2072,-386.273 2072,-386.273 2072,-382.44 2075.83,-378.607 2079.67,-378.607 2079.67,-378.607 2249.33,-378.607 2249.33,-378.607 2253.17,-378.607 2257,-382.44 2257,-386.273 2257,-386.273 2257,-393.94 2257,-393.94 2257,-397.773 2253.17,-401.607 2249.33,-401.607"/>
<text text-anchor="middle" x="2164.5" y="-386.407" font-family="Arial" font-size="14.00" fill="#c6c5fe">symbols/enemies/goblin.js</text>
</g>
<!-- scenes/combat/combat.js&#45;&gt;symbols/enemies/goblin.js -->
<g id="edge70" class="edge"><title>scenes/combat/combat.js&#45;&gt;symbols/enemies/goblin.js</title>
<path fill="none" stroke="#757575" d="M2035.68,-390.107C2044.24,-390.107 2052.97,-390.107 2061.65,-390.107"/>
<polygon fill="#757575" stroke="#757575" points="2061.79,-393.607 2071.79,-390.107 2061.79,-386.607 2061.79,-393.607"/>
</g>
<!-- symbols/enemies/goblin.js&#45;&gt;actions/Core.js -->
<g id="edge99" class="edge"><title>symbols/enemies/goblin.js&#45;&gt;actions/Core.js</title>
<path fill="none" stroke="#757575" d="M2176.37,-401.896C2193.68,-420.742 2228.47,-458.913 2257,-492.107 2292.08,-532.92 2331.85,-581.879 2353.29,-608.504"/>
<polygon fill="#757575" stroke="#757575" points="2350.58,-610.724 2359.58,-616.326 2356.04,-606.339 2350.58,-610.724"/>
</g>
<!-- symbols/enemies/goblin.js&#45;&gt;utils.js -->
<g id="edge100" class="edge"><title>symbols/enemies/goblin.js&#45;&gt;utils.js</title>
<path fill="none" stroke="#757575" d="M2187.02,-378.4C2211.91,-365.28 2254.41,-344.145 2293,-331.107 2403.84,-293.656 2433,-274.107 2550,-274.107 2550,-274.107 2550,-274.107 2744,-274.107 2801.89,-274.107 3219.89,-235.826 3265,-272.107 3306.63,-305.591 3322.31,-476.42 3326.64,-537.422"/>
<polygon fill="#757575" stroke="#757575" points="3323.15,-537.735 3327.32,-547.476 3330.14,-537.263 3323.15,-537.735"/>
</g>
<!-- scenes/inv/inv.js&#45;&gt;actions/Core.js -->
<g id="edge71" class="edge"><title>scenes/inv/inv.js&#45;&gt;actions/Core.js</title>
<path fill="none" stroke="#757575" d="M2005.68,-653.935C2084.19,-648.354 2222.95,-638.49 2304.38,-632.701"/>
<polygon fill="#757575" stroke="#757575" points="2304.77,-636.182 2314.5,-631.981 2304.28,-629.199 2304.77,-636.182"/>
</g>
<!-- scenes/inv/inv.js&#45;&gt;store/store.js -->
<g id="edge73" class="edge"><title>scenes/inv/inv.js&#45;&gt;store/store.js</title>
<path fill="none" stroke="#757575" d="M1983.81,-646.507C2088.54,-613.509 2388.01,-519.147 2503.65,-482.71"/>
<polygon fill="#757575" stroke="#757575" points="2504.8,-486.018 2513.29,-479.675 2502.7,-479.342 2504.8,-486.018"/>
</g>
<!-- scenes/inv/inv.js&#45;&gt;actions/Inv.js -->
<g id="edge72" class="edge"><title>scenes/inv/inv.js&#45;&gt;actions/Inv.js</title>
<path fill="none" stroke="#757575" d="M1952.87,-669.727C1967.98,-698.17 2011.33,-770.944 2072,-798.107 2147.04,-831.707 2176.52,-814.942 2257,-798.107 2286.81,-791.871 2318.39,-777.23 2340.39,-765.566"/>
<polygon fill="#757575" stroke="#757575" points="2342.08,-768.63 2349.2,-760.782 2338.74,-762.478 2342.08,-768.63"/>
</g>
<!-- symbols/items/apple.js -->
<g id="node51" class="node"><title>symbols/items/apple.js</title>
<path fill="none" stroke="#c6c5fe" d="M2237.33,-709.607C2237.33,-709.607 2091.67,-709.607 2091.67,-709.607 2087.83,-709.607 2084,-705.773 2084,-701.94 2084,-701.94 2084,-694.273 2084,-694.273 2084,-690.44 2087.83,-686.607 2091.67,-686.607 2091.67,-686.607 2237.33,-686.607 2237.33,-686.607 2241.17,-686.607 2245,-690.44 2245,-694.273 2245,-694.273 2245,-701.94 2245,-701.94 2245,-705.773 2241.17,-709.607 2237.33,-709.607"/>
<text text-anchor="middle" x="2164.5" y="-694.407" font-family="Arial" font-size="14.00" fill="#c6c5fe">symbols/items/apple.js</text>
</g>
<!-- scenes/inv/inv.js&#45;&gt;symbols/items/apple.js -->
<g id="edge74" class="edge"><title>scenes/inv/inv.js&#45;&gt;symbols/items/apple.js</title>
<path fill="none" stroke="#757575" d="M2005.59,-668.931C2031.91,-673.794 2063.23,-679.582 2091.01,-684.715"/>
<polygon fill="#757575" stroke="#757575" points="2090.6,-688.198 2101.07,-686.573 2091.88,-681.315 2090.6,-688.198"/>
</g>
<!-- symbols/items/apple.js&#45;&gt;actions/Core.js -->
<g id="edge105" class="edge"><title>symbols/items/apple.js&#45;&gt;actions/Core.js</title>
<path fill="none" stroke="#757575" d="M2212.6,-686.536C2227.04,-682.509 2242.84,-677.604 2257,-672.107 2273.68,-665.634 2276.5,-661.017 2293,-654.107 2302.36,-650.188 2312.53,-646.396 2322.31,-642.976"/>
<polygon fill="#757575" stroke="#757575" points="2323.58,-646.241 2331.9,-639.69 2321.31,-639.619 2323.58,-646.241"/>
</g>
<!-- setupTests.js -->
<g id="node53" class="node"><title>setupTests.js</title>
<path fill="none" stroke="#cfffac" d="M112.333,-156.607C112.333,-156.607 25.6667,-156.607 25.6667,-156.607 21.8333,-156.607 18,-152.773 18,-148.94 18,-148.94 18,-141.273 18,-141.273 18,-137.44 21.8333,-133.607 25.6667,-133.607 25.6667,-133.607 112.333,-133.607 112.333,-133.607 116.167,-133.607 120,-137.44 120,-141.273 120,-141.273 120,-148.94 120,-148.94 120,-152.773 116.167,-156.607 112.333,-156.607"/>
<text text-anchor="middle" x="69" y="-141.407" font-family="Arial" font-size="14.00" fill="#cfffac">setupTests.js</text>
</g>
<!-- store/gameFlags.js -->
<g id="node54" class="node"><title>store/gameFlags.js</title>
<path fill="none" stroke="#cfffac" d="M130.333,-197.607C130.333,-197.607 7.66667,-197.607 7.66667,-197.607 3.83333,-197.607 0,-193.773 0,-189.94 0,-189.94 0,-182.273 0,-182.273 0,-178.44 3.83333,-174.607 7.66667,-174.607 7.66667,-174.607 130.333,-174.607 130.333,-174.607 134.167,-174.607 138,-178.44 138,-182.273 138,-182.273 138,-189.94 138,-189.94 138,-193.773 134.167,-197.607 130.333,-197.607"/>
<text text-anchor="middle" x="69" y="-182.407" font-family="Arial" font-size="14.00" fill="#cfffac">store/gameFlags.js</text>
</g>
<!-- symbols/face.js&#45;&gt;utils.js -->
<g id="edge101" class="edge"><title>symbols/face.js&#45;&gt;utils.js</title>
<path fill="none" stroke="#757575" d="M3235.03,-421.752C3245.76,-424.796 3256.32,-429.345 3265,-436.107 3298.09,-461.876 3315.36,-509.799 3322.99,-537.609"/>
<polygon fill="#757575" stroke="#757575" points="3319.66,-538.705 3325.54,-547.522 3326.44,-536.966 3319.66,-538.705"/>
</g>
<!-- symbols/gear.js&#45;&gt;utils.js -->
<g id="edge102" class="edge"><title>symbols/gear.js&#45;&gt;utils.js</title>
<path fill="none" stroke="#757575" d="M3235.17,-379.913C3246.01,-383.008 3256.57,-387.791 3265,-395.107 3307.81,-432.277 3321.67,-501.934 3326.05,-537.303"/>
<polygon fill="#757575" stroke="#757575" points="3322.59,-537.936 3327.16,-547.496 3329.55,-537.176 3322.59,-537.936"/>
</g>
<!-- symbols/lowerBody.js&#45;&gt;utils.js -->
<g id="edge106" class="edge"><title>symbols/lowerBody.js&#45;&gt;utils.js</title>
<path fill="none" stroke="#757575" d="M3253.33,-345.714C3257.54,-348.061 3261.48,-350.834 3265,-354.107 3317.81,-403.239 3326.77,-495.415 3328.01,-537.345"/>
<polygon fill="#757575" stroke="#757575" points="3324.51,-537.6 3328.18,-547.539 3331.51,-537.482 3324.51,-537.6"/>
</g>
<!-- symbols/skin.js&#45;&gt;utils.js -->
<g id="edge108" class="edge"><title>symbols/skin.js&#45;&gt;utils.js</title>
<path fill="none" stroke="#757575" d="M3233.59,-296.545C3245.18,-299.644 3256.46,-304.774 3265,-313.107 3297.33,-344.65 3318.27,-483.324 3325.34,-537.404"/>
<polygon fill="#757575" stroke="#757575" points="3321.9,-538.113 3326.64,-547.591 3328.84,-537.229 3321.9,-538.113"/>
</g>
<!-- symbols/tail.js&#45;&gt;utils.js -->
<g id="edge109" class="edge"><title>symbols/tail.js&#45;&gt;utils.js</title>
<path fill="none" stroke="#757575" d="M3229.62,-545.99C3249.69,-548.666 3272.24,-551.673 3290.69,-554.132"/>
<polygon fill="#757575" stroke="#757575" points="3290.37,-557.621 3300.75,-555.473 3291.3,-550.682 3290.37,-557.621"/>
</g>
<!-- symbols/tongue.js&#45;&gt;utils.js -->
<g id="edge110" class="edge"><title>symbols/tongue.js&#45;&gt;utils.js</title>
<path fill="none" stroke="#757575" d="M3240.63,-509.704C3248.97,-512.056 3257.3,-514.837 3265,-518.107 3279.17,-524.121 3293.65,-533.295 3305.15,-541.442"/>
<polygon fill="#757575" stroke="#757575" points="3303.18,-544.33 3313.32,-547.402 3307.3,-538.677 3303.18,-544.33"/>
</g>
<!-- symbols/wings.js&#45;&gt;utils.js -->
<g id="edge112" class="edge"><title>symbols/wings.js&#45;&gt;utils.js</title>
<path fill="none" stroke="#757575" d="M3239.14,-465.49C3248.24,-468.314 3257.18,-472.082 3265,-477.107 3288.67,-492.306 3306.97,-519.618 3317.6,-538.522"/>
<polygon fill="#757575" stroke="#757575" points="3314.63,-540.385 3322.45,-547.532 3320.79,-537.068 3314.63,-540.385"/>
</g>
</g>
</svg>
