<?xml version="1.0" encoding="UTF-8" standalone="no"?>
<!DOCTYPE svg PUBLIC "-//W3C//DTD SVG 1.1//EN"
 "http://www.w3.org/Graphics/SVG/1.1/DTD/svg11.dtd">
<!-- Generated by graphviz version 2.38.0 (20140413.2041)
 -->
<!-- Title: G Pages: 1 -->
<svg width="3364pt" height="1173pt"
 viewBox="0.00 0.00 3364.20 1173.20" xmlns="http://www.w3.org/2000/svg" xmlns:xlink="http://www.w3.org/1999/xlink">
<g id="graph0" class="graph" transform="scale(1 1) rotate(0) translate(21.6 1151.6)">
<title>G</title>
<polygon fill="#111111" stroke="none" points="-21.6,21.6 -21.6,-1151.6 3342.6,-1151.6 3342.6,21.6 -21.6,21.6"/>
<!-- actions/Core.js -->
<g id="node1" class="node"><title>actions/Core.js</title>
<path fill="none" stroke="#c6c5fe" d="M2381.83,-429C2381.83,-429 2286.17,-429 2286.17,-429 2282.33,-429 2278.5,-425.167 2278.5,-421.333 2278.5,-421.333 2278.5,-413.667 2278.5,-413.667 2278.5,-409.833 2282.33,-406 2286.17,-406 2286.17,-406 2381.83,-406 2381.83,-406 2385.67,-406 2389.5,-409.833 2389.5,-413.667 2389.5,-413.667 2389.5,-421.333 2389.5,-421.333 2389.5,-425.167 2385.67,-429 2381.83,-429"/>
<text text-anchor="middle" x="2334" y="-413.8" font-family="Arial" font-size="14.00" fill="#c6c5fe">actions/Core.js</text>
</g>
<!-- actions/coreMsg.js -->
<g id="node2" class="node"><title>actions/coreMsg.js</title>
<path fill="none" stroke="#cfffac" d="M3200.83,-425C3200.83,-425 3081.17,-425 3081.17,-425 3077.33,-425 3073.5,-421.167 3073.5,-417.333 3073.5,-417.333 3073.5,-409.667 3073.5,-409.667 3073.5,-405.833 3077.33,-402 3081.17,-402 3081.17,-402 3200.83,-402 3200.83,-402 3204.67,-402 3208.5,-405.833 3208.5,-409.667 3208.5,-409.667 3208.5,-417.333 3208.5,-417.333 3208.5,-421.167 3204.67,-425 3200.83,-425"/>
<text text-anchor="middle" x="3141" y="-409.8" font-family="Arial" font-size="14.00" fill="#cfffac">actions/coreMsg.js</text>
</g>
<!-- actions/Core.js&#45;&gt;actions/coreMsg.js -->
<g id="edge1" class="edge"><title>actions/Core.js&#45;&gt;actions/coreMsg.js</title>
<path fill="none" stroke="#757575" d="M2389.92,-410.987C2505.93,-398.219 2784.42,-372.789 3017,-392.5 3035.76,-394.09 3055.96,-397.02 3074.45,-400.198"/>
<polygon fill="#757575" stroke="#757575" points="3074.08,-403.686 3084.54,-401.982 3075.3,-396.793 3074.08,-403.686"/>
</g>
<!-- store/store.js -->
<g id="node3" class="node"><title>store/store.js</title>
<path fill="none" stroke="#c6c5fe" d="M2556.83,-285C2556.83,-285 2473.17,-285 2473.17,-285 2469.33,-285 2465.5,-281.167 2465.5,-277.333 2465.5,-277.333 2465.5,-269.667 2465.5,-269.667 2465.5,-265.833 2469.33,-262 2473.17,-262 2473.17,-262 2556.83,-262 2556.83,-262 2560.67,-262 2564.5,-265.833 2564.5,-269.667 2564.5,-269.667 2564.5,-277.333 2564.5,-277.333 2564.5,-281.167 2560.67,-285 2556.83,-285"/>
<text text-anchor="middle" x="2515" y="-269.8" font-family="Arial" font-size="14.00" fill="#c6c5fe">store/store.js</text>
</g>
<!-- actions/Core.js&#45;&gt;store/store.js -->
<g id="edge2" class="edge"><title>actions/Core.js&#45;&gt;store/store.js</title>
<path fill="none" stroke="#757575" d="M2381.43,-405.922C2391.66,-402.224 2402.09,-397.487 2411,-391.5 2431.65,-377.633 2475.39,-323.325 2498.67,-293.458"/>
<polygon fill="#757575" stroke="#757575" points="2501.56,-295.437 2504.92,-285.39 2496.03,-291.148 2501.56,-295.437"/>
</g>
<!-- reducers/root.js -->
<g id="node35" class="node"><title>reducers/root.js</title>
<path fill="none" stroke="#c6c5fe" d="M2757.33,-285C2757.33,-285 2656.67,-285 2656.67,-285 2652.83,-285 2649,-281.167 2649,-277.333 2649,-277.333 2649,-269.667 2649,-269.667 2649,-265.833 2652.83,-262 2656.67,-262 2656.67,-262 2757.33,-262 2757.33,-262 2761.17,-262 2765,-265.833 2765,-269.667 2765,-269.667 2765,-277.333 2765,-277.333 2765,-281.167 2761.17,-285 2757.33,-285"/>
<text text-anchor="middle" x="2707" y="-269.8" font-family="Arial" font-size="14.00" fill="#c6c5fe">reducers/root.js</text>
</g>
<!-- store/store.js&#45;&gt;reducers/root.js -->
<g id="edge101" class="edge"><title>store/store.js&#45;&gt;reducers/root.js</title>
<path fill="none" stroke="#757575" d="M2564.93,-273.5C2587.35,-273.5 2614.28,-273.5 2638.58,-273.5"/>
<polygon fill="#757575" stroke="#757575" points="2638.81,-277 2648.81,-273.5 2638.81,-270 2638.81,-277"/>
</g>
<!-- actions/Enemy.js -->
<g id="node4" class="node"><title>actions/Enemy.js</title>
<path fill="none" stroke="#c6c5fe" d="M2388.33,-144C2388.33,-144 2279.67,-144 2279.67,-144 2275.83,-144 2272,-140.167 2272,-136.333 2272,-136.333 2272,-128.667 2272,-128.667 2272,-124.833 2275.83,-121 2279.67,-121 2279.67,-121 2388.33,-121 2388.33,-121 2392.17,-121 2396,-124.833 2396,-128.667 2396,-128.667 2396,-136.333 2396,-136.333 2396,-140.167 2392.17,-144 2388.33,-144"/>
<text text-anchor="middle" x="2334" y="-128.8" font-family="Arial" font-size="14.00" fill="#c6c5fe">actions/Enemy.js</text>
</g>
<!-- actions/Enemy.js&#45;&gt;store/store.js -->
<g id="edge4" class="edge"><title>actions/Enemy.js&#45;&gt;store/store.js</title>
<path fill="none" stroke="#757575" d="M2380.98,-144.018C2391.33,-147.734 2401.93,-152.494 2411,-158.5 2449.81,-184.204 2483.36,-227.96 2500.93,-253.444"/>
<polygon fill="#757575" stroke="#757575" points="2498.17,-255.606 2506.66,-261.939 2503.97,-251.692 2498.17,-255.606"/>
</g>
<!-- actions/enemyMsg.js -->
<g id="node5" class="node"><title>actions/enemyMsg.js</title>
<path fill="none" stroke="#cfffac" d="M2990.83,-144C2990.83,-144 2857.17,-144 2857.17,-144 2853.33,-144 2849.5,-140.167 2849.5,-136.333 2849.5,-136.333 2849.5,-128.667 2849.5,-128.667 2849.5,-124.833 2853.33,-121 2857.17,-121 2857.17,-121 2990.83,-121 2990.83,-121 2994.67,-121 2998.5,-124.833 2998.5,-128.667 2998.5,-128.667 2998.5,-136.333 2998.5,-136.333 2998.5,-140.167 2994.67,-144 2990.83,-144"/>
<text text-anchor="middle" x="2924" y="-128.8" font-family="Arial" font-size="14.00" fill="#cfffac">actions/enemyMsg.js</text>
</g>
<!-- actions/Enemy.js&#45;&gt;actions/enemyMsg.js -->
<g id="edge3" class="edge"><title>actions/Enemy.js&#45;&gt;actions/enemyMsg.js</title>
<path fill="none" stroke="#757575" d="M2396.26,-132.5C2502.01,-132.5 2718.97,-132.5 2838.81,-132.5"/>
<polygon fill="#757575" stroke="#757575" points="2839.04,-136 2849.04,-132.5 2839.04,-129 2839.04,-136"/>
</g>
<!-- actions/Engine.js -->
<g id="node6" class="node"><title>actions/Engine.js</title>
<path fill="none" stroke="#c6c5fe" d="M951.833,-416C951.833,-416 843.167,-416 843.167,-416 839.333,-416 835.5,-412.167 835.5,-408.333 835.5,-408.333 835.5,-400.667 835.5,-400.667 835.5,-396.833 839.333,-393 843.167,-393 843.167,-393 951.833,-393 951.833,-393 955.667,-393 959.5,-396.833 959.5,-400.667 959.5,-400.667 959.5,-408.333 959.5,-408.333 959.5,-412.167 955.667,-416 951.833,-416"/>
<text text-anchor="middle" x="897.5" y="-400.8" font-family="Arial" font-size="14.00" fill="#c6c5fe">actions/Engine.js</text>
</g>
<!-- scenes/sceneFunctions.js -->
<g id="node7" class="node"><title>scenes/sceneFunctions.js</title>
<path fill="none" stroke="#c6c5fe" d="M1201.33,-466C1201.33,-466 1034.67,-466 1034.67,-466 1030.83,-466 1027,-462.167 1027,-458.333 1027,-458.333 1027,-450.667 1027,-450.667 1027,-446.833 1030.83,-443 1034.67,-443 1034.67,-443 1201.33,-443 1201.33,-443 1205.17,-443 1209,-446.833 1209,-450.667 1209,-450.667 1209,-458.333 1209,-458.333 1209,-462.167 1205.17,-466 1201.33,-466"/>
<text text-anchor="middle" x="1118" y="-450.8" font-family="Arial" font-size="14.00" fill="#c6c5fe">scenes/sceneFunctions.js</text>
</g>
<!-- actions/Engine.js&#45;&gt;scenes/sceneFunctions.js -->
<g id="edge5" class="edge"><title>actions/Engine.js&#45;&gt;scenes/sceneFunctions.js</title>
<path fill="none" stroke="#757575" d="M948.903,-416.034C981.021,-423.384 1022.81,-432.947 1056.69,-440.699"/>
<polygon fill="#757575" stroke="#757575" points="1055.94,-444.119 1066.47,-442.938 1057.51,-437.295 1055.94,-444.119"/>
</g>
<!-- scenes/sceneFunctions.js&#45;&gt;actions/Core.js -->
<g id="edge82" class="edge"><title>scenes/sceneFunctions.js&#45;&gt;actions/Core.js</title>
<path fill="none" stroke="#757575" d="M1152.96,-442.972C1219.37,-421.492 1371.43,-377.5 1503,-377.5 1503,-377.5 1503,-377.5 1911,-377.5 2037.99,-377.5 2185.51,-395.673 2268.19,-407.52"/>
<polygon fill="#757575" stroke="#757575" points="2267.8,-410.999 2278.19,-408.968 2268.8,-404.072 2267.8,-410.999"/>
</g>
<!-- scenes/sceneFunctions.js&#45;&gt;store/store.js -->
<g id="edge90" class="edge"><title>scenes/sceneFunctions.js&#45;&gt;store/store.js</title>
<path fill="none" stroke="#757575" d="M1124.42,-442.955C1153.59,-382.745 1298.13,-107.5 1503,-107.5 1503,-107.5 1503,-107.5 1911,-107.5 2135.98,-107.5 2391.79,-216.245 2481.14,-257.704"/>
<polygon fill="#757575" stroke="#757575" points="2479.7,-260.891 2490.24,-261.959 2482.67,-254.551 2479.7,-260.891"/>
</g>
<!-- scenes/charCreation.js -->
<g id="node42" class="node"><title>scenes/charCreation.js</title>
<path fill="none" stroke="#c6c5fe" d="M1398.33,-778C1398.33,-778 1252.67,-778 1252.67,-778 1248.83,-778 1245,-774.167 1245,-770.333 1245,-770.333 1245,-762.667 1245,-762.667 1245,-758.833 1248.83,-755 1252.67,-755 1252.67,-755 1398.33,-755 1398.33,-755 1402.17,-755 1406,-758.833 1406,-762.667 1406,-762.667 1406,-770.333 1406,-770.333 1406,-774.167 1402.17,-778 1398.33,-778"/>
<text text-anchor="middle" x="1325.5" y="-762.8" font-family="Arial" font-size="14.00" fill="#c6c5fe">scenes/charCreation.js</text>
</g>
<!-- scenes/sceneFunctions.js&#45;&gt;scenes/charCreation.js -->
<g id="edge83" class="edge"><title>scenes/sceneFunctions.js&#45;&gt;scenes/charCreation.js</title>
<path fill="none" stroke="#757575" d="M1126.8,-466.35C1157.77,-513.367 1272.2,-687.097 1311.3,-746.462"/>
<polygon fill="#757575" stroke="#757575" points="1308.48,-748.544 1316.91,-754.97 1314.33,-744.694 1308.48,-748.544"/>
</g>
<!-- scenes/menus.js -->
<g id="node43" class="node"><title>scenes/menus.js</title>
<path fill="none" stroke="#c6c5fe" d="M1558.33,-545C1558.33,-545 1449.67,-545 1449.67,-545 1445.83,-545 1442,-541.167 1442,-537.333 1442,-537.333 1442,-529.667 1442,-529.667 1442,-525.833 1445.83,-522 1449.67,-522 1449.67,-522 1558.33,-522 1558.33,-522 1562.17,-522 1566,-525.833 1566,-529.667 1566,-529.667 1566,-537.333 1566,-537.333 1566,-541.167 1562.17,-545 1558.33,-545"/>
<text text-anchor="middle" x="1504" y="-529.8" font-family="Arial" font-size="14.00" fill="#c6c5fe">scenes/menus.js</text>
</g>
<!-- scenes/sceneFunctions.js&#45;&gt;scenes/menus.js -->
<g id="edge87" class="edge"><title>scenes/sceneFunctions.js&#45;&gt;scenes/menus.js</title>
<path fill="none" stroke="#757575" d="M1175.25,-466.072C1244.79,-480.378 1362.96,-504.69 1436.8,-519.881"/>
<polygon fill="#757575" stroke="#757575" points="1436.41,-523.374 1446.91,-521.961 1437.82,-516.518 1436.41,-523.374"/>
</g>
<!-- scenes/sceneSymbols.js -->
<g id="node44" class="node"><title>scenes/sceneSymbols.js</title>
<path fill="none" stroke="#cfffac" d="M3221.33,-758C3221.33,-758 3060.67,-758 3060.67,-758 3056.83,-758 3053,-754.167 3053,-750.333 3053,-750.333 3053,-742.667 3053,-742.667 3053,-738.833 3056.83,-735 3060.67,-735 3060.67,-735 3221.33,-735 3221.33,-735 3225.17,-735 3229,-738.833 3229,-742.667 3229,-742.667 3229,-750.333 3229,-750.333 3229,-754.167 3225.17,-758 3221.33,-758"/>
<text text-anchor="middle" x="3141" y="-742.8" font-family="Arial" font-size="14.00" fill="#cfffac">scenes/sceneSymbols.js</text>
</g>
<!-- scenes/sceneFunctions.js&#45;&gt;scenes/sceneSymbols.js -->
<g id="edge88" class="edge"><title>scenes/sceneFunctions.js&#45;&gt;scenes/sceneSymbols.js</title>
<path fill="none" stroke="#757575" d="M1120.63,-466.226C1132.82,-548.957 1217.43,-1041.5 1503,-1041.5 1503,-1041.5 1503,-1041.5 1694,-1041.5 2291.2,-1041.5 2460.82,-1024.02 3017,-806.5 3049.43,-793.818 3085.04,-775.994 3109.56,-763.071"/>
<polygon fill="#757575" stroke="#757575" points="3111.52,-765.992 3118.7,-758.207 3108.23,-759.812 3111.52,-765.992"/>
</g>
<!-- scenes/combat/combat.js -->
<g id="node48" class="node"><title>scenes/combat/combat.js</title>
<path fill="none" stroke="#c6c5fe" d="M1991.83,-503C1991.83,-503 1828.17,-503 1828.17,-503 1824.33,-503 1820.5,-499.167 1820.5,-495.333 1820.5,-495.333 1820.5,-487.667 1820.5,-487.667 1820.5,-483.833 1824.33,-480 1828.17,-480 1828.17,-480 1991.83,-480 1991.83,-480 1995.67,-480 1999.5,-483.833 1999.5,-487.667 1999.5,-487.667 1999.5,-495.333 1999.5,-495.333 1999.5,-499.167 1995.67,-503 1991.83,-503"/>
<text text-anchor="middle" x="1910" y="-487.8" font-family="Arial" font-size="14.00" fill="#c6c5fe">scenes/combat/combat.js</text>
</g>
<!-- scenes/sceneFunctions.js&#45;&gt;scenes/combat/combat.js -->
<g id="edge84" class="edge"><title>scenes/sceneFunctions.js&#45;&gt;scenes/combat/combat.js</title>
<path fill="none" stroke="#757575" d="M1209.24,-458.726C1358.34,-465.71 1655,-479.604 1809.8,-486.854"/>
<polygon fill="#757575" stroke="#757575" points="1810.09,-490.371 1820.24,-487.343 1810.41,-483.379 1810.09,-490.371"/>
</g>
<!-- scenes/ingnam/ingnam.js -->
<g id="node50" class="node"><title>scenes/ingnam/ingnam.js</title>
<path fill="none" stroke="#c6c5fe" d="M2208.83,-1092C2208.83,-1092 2048.17,-1092 2048.17,-1092 2044.33,-1092 2040.5,-1088.17 2040.5,-1084.33 2040.5,-1084.33 2040.5,-1076.67 2040.5,-1076.67 2040.5,-1072.83 2044.33,-1069 2048.17,-1069 2048.17,-1069 2208.83,-1069 2208.83,-1069 2212.67,-1069 2216.5,-1072.83 2216.5,-1076.67 2216.5,-1076.67 2216.5,-1084.33 2216.5,-1084.33 2216.5,-1088.17 2212.67,-1092 2208.83,-1092"/>
<text text-anchor="middle" x="2128.5" y="-1076.8" font-family="Arial" font-size="14.00" fill="#c6c5fe">scenes/ingnam/ingnam.js</text>
</g>
<!-- scenes/sceneFunctions.js&#45;&gt;scenes/ingnam/ingnam.js -->
<g id="edge85" class="edge"><title>scenes/sceneFunctions.js&#45;&gt;scenes/ingnam/ingnam.js</title>
<path fill="none" stroke="#757575" d="M1119.62,-466.18C1123.97,-542.784 1152.32,-972.819 1245,-1055.5 1330.93,-1132.16 1387.84,-1079.5 1503,-1079.5 1503,-1079.5 1503,-1079.5 1694,-1079.5 1809.47,-1079.5 1942.24,-1079.86 2030.1,-1080.15"/>
<polygon fill="#757575" stroke="#757575" points="2030.31,-1083.65 2040.32,-1080.18 2030.33,-1076.65 2030.31,-1083.65"/>
</g>
<!-- scenes/inv/inv.js -->
<g id="node52" class="node"><title>scenes/inv/inv.js</title>
<path fill="none" stroke="#c6c5fe" d="M1961.83,-271C1961.83,-271 1858.17,-271 1858.17,-271 1854.33,-271 1850.5,-267.167 1850.5,-263.333 1850.5,-263.333 1850.5,-255.667 1850.5,-255.667 1850.5,-251.833 1854.33,-248 1858.17,-248 1858.17,-248 1961.83,-248 1961.83,-248 1965.67,-248 1969.5,-251.833 1969.5,-255.667 1969.5,-255.667 1969.5,-263.333 1969.5,-263.333 1969.5,-267.167 1965.67,-271 1961.83,-271"/>
<text text-anchor="middle" x="1910" y="-255.8" font-family="Arial" font-size="14.00" fill="#c6c5fe">scenes/inv/inv.js</text>
</g>
<!-- scenes/sceneFunctions.js&#45;&gt;scenes/inv/inv.js -->
<g id="edge86" class="edge"><title>scenes/sceneFunctions.js&#45;&gt;scenes/inv/inv.js</title>
<path fill="none" stroke="#757575" d="M1131.02,-442.736C1152.13,-422.833 1198.09,-382.807 1245,-363.5 1449.92,-279.165 1716.22,-262.722 1840.06,-259.853"/>
<polygon fill="#757575" stroke="#757575" points="1840.24,-263.35 1850.16,-259.642 1840.09,-256.352 1840.24,-263.35"/>
</g>
<!-- scenes/tests/testing.js -->
<g id="node54" class="node"><title>scenes/tests/testing.js</title>
<path fill="none" stroke="#cfffac" d="M1396.83,-819C1396.83,-819 1254.17,-819 1254.17,-819 1250.33,-819 1246.5,-815.167 1246.5,-811.333 1246.5,-811.333 1246.5,-803.667 1246.5,-803.667 1246.5,-799.833 1250.33,-796 1254.17,-796 1254.17,-796 1396.83,-796 1396.83,-796 1400.67,-796 1404.5,-799.833 1404.5,-803.667 1404.5,-803.667 1404.5,-811.333 1404.5,-811.333 1404.5,-815.167 1400.67,-819 1396.83,-819"/>
<text text-anchor="middle" x="1325.5" y="-803.8" font-family="Arial" font-size="14.00" fill="#cfffac">scenes/tests/testing.js</text>
</g>
<!-- scenes/sceneFunctions.js&#45;&gt;scenes/tests/testing.js -->
<g id="edge89" class="edge"><title>scenes/sceneFunctions.js&#45;&gt;scenes/tests/testing.js</title>
<path fill="none" stroke="#757575" d="M1119.74,-466.307C1123.42,-514.144 1143.76,-695.32 1245,-786.5 1246.55,-787.897 1248.18,-789.203 1249.89,-790.424"/>
<polygon fill="#757575" stroke="#757575" points="1248.52,-793.686 1258.89,-795.845 1252.13,-787.689 1248.52,-793.686"/>
</g>
<!-- actions/Inv.js -->
<g id="node8" class="node"><title>actions/Inv.js</title>
<path fill="none" stroke="#c6c5fe" d="M2375.33,-103C2375.33,-103 2292.67,-103 2292.67,-103 2288.83,-103 2285,-99.1667 2285,-95.3333 2285,-95.3333 2285,-87.6667 2285,-87.6667 2285,-83.8333 2288.83,-80 2292.67,-80 2292.67,-80 2375.33,-80 2375.33,-80 2379.17,-80 2383,-83.8333 2383,-87.6667 2383,-87.6667 2383,-95.3333 2383,-95.3333 2383,-99.1667 2379.17,-103 2375.33,-103"/>
<text text-anchor="middle" x="2334" y="-87.8" font-family="Arial" font-size="14.00" fill="#c6c5fe">actions/Inv.js</text>
</g>
<!-- actions/Inv.js&#45;&gt;store/store.js -->
<g id="edge7" class="edge"><title>actions/Inv.js&#45;&gt;store/store.js</title>
<path fill="none" stroke="#757575" d="M2383.26,-98.4224C2393.06,-101.361 2402.85,-105.545 2411,-111.5 2461,-148.023 2492.67,-216.854 2506.29,-251.865"/>
<polygon fill="#757575" stroke="#757575" points="2503.14,-253.441 2509.93,-261.572 2509.69,-250.98 2503.14,-253.441"/>
</g>
<!-- actions/invMsg.js -->
<g id="node9" class="node"><title>actions/invMsg.js</title>
<path fill="none" stroke="#cfffac" d="M2978.33,-103C2978.33,-103 2869.67,-103 2869.67,-103 2865.83,-103 2862,-99.1667 2862,-95.3333 2862,-95.3333 2862,-87.6667 2862,-87.6667 2862,-83.8333 2865.83,-80 2869.67,-80 2869.67,-80 2978.33,-80 2978.33,-80 2982.17,-80 2986,-83.8333 2986,-87.6667 2986,-87.6667 2986,-95.3333 2986,-95.3333 2986,-99.1667 2982.17,-103 2978.33,-103"/>
<text text-anchor="middle" x="2924" y="-87.8" font-family="Arial" font-size="14.00" fill="#cfffac">actions/invMsg.js</text>
</g>
<!-- actions/Inv.js&#45;&gt;actions/invMsg.js -->
<g id="edge6" class="edge"><title>actions/Inv.js&#45;&gt;actions/invMsg.js</title>
<path fill="none" stroke="#757575" d="M2383.12,-91.5C2486.39,-91.5 2729.75,-91.5 2851.3,-91.5"/>
<polygon fill="#757575" stroke="#757575" points="2851.61,-95.0001 2861.61,-91.5 2851.61,-88.0001 2851.61,-95.0001"/>
</g>
<!-- actions/Perks.js -->
<g id="node10" class="node"><title>actions/Perks.js</title>
<path fill="none" stroke="#c6c5fe" d="M2384.33,-23C2384.33,-23 2283.67,-23 2283.67,-23 2279.83,-23 2276,-19.1667 2276,-15.3333 2276,-15.3333 2276,-7.66667 2276,-7.66667 2276,-3.83333 2279.83,-0 2283.67,-0 2283.67,-0 2384.33,-0 2384.33,-0 2388.17,-0 2392,-3.83333 2392,-7.66667 2392,-7.66667 2392,-15.3333 2392,-15.3333 2392,-19.1667 2388.17,-23 2384.33,-23"/>
<text text-anchor="middle" x="2334" y="-7.8" font-family="Arial" font-size="14.00" fill="#c6c5fe">actions/Perks.js</text>
</g>
<!-- actions/Perks.js&#45;&gt;store/store.js -->
<g id="edge9" class="edge"><title>actions/Perks.js&#45;&gt;store/store.js</title>
<path fill="none" stroke="#757575" d="M2387.66,-23.0662C2396.15,-26.6592 2404.33,-31.3583 2411,-37.5 2476,-97.3836 2502.03,-205.523 2510.52,-251.673"/>
<polygon fill="#757575" stroke="#757575" points="2507.11,-252.509 2512.27,-261.762 2514.01,-251.31 2507.11,-252.509"/>
</g>
<!-- actions/engineMsg.js -->
<g id="node11" class="node"><title>actions/engineMsg.js</title>
<path fill="none" stroke="#cfffac" d="M3207.83,-58C3207.83,-58 3074.17,-58 3074.17,-58 3070.33,-58 3066.5,-54.1667 3066.5,-50.3333 3066.5,-50.3333 3066.5,-42.6667 3066.5,-42.6667 3066.5,-38.8333 3070.33,-35 3074.17,-35 3074.17,-35 3207.83,-35 3207.83,-35 3211.67,-35 3215.5,-38.8333 3215.5,-42.6667 3215.5,-42.6667 3215.5,-50.3333 3215.5,-50.3333 3215.5,-54.1667 3211.67,-58 3207.83,-58"/>
<text text-anchor="middle" x="3141" y="-42.8" font-family="Arial" font-size="14.00" fill="#cfffac">actions/engineMsg.js</text>
</g>
<!-- actions/Perks.js&#45;&gt;actions/engineMsg.js -->
<g id="edge8" class="edge"><title>actions/Perks.js&#45;&gt;actions/engineMsg.js</title>
<path fill="none" stroke="#757575" d="M2392.15,-10.8713C2509.47,-10.0514 2785.92,-10.5407 3017,-29.5 3029.76,-30.5465 3043.21,-32.0219 3056.35,-33.6709"/>
<polygon fill="#757575" stroke="#757575" points="3055.96,-37.1491 3066.32,-34.9616 3056.86,-30.207 3055.96,-37.1491"/>
</g>
<!-- actions/Player.js -->
<g id="node12" class="node"><title>actions/Player.js</title>
<path fill="none" stroke="#c6c5fe" d="M2180.33,-699C2180.33,-699 2076.67,-699 2076.67,-699 2072.83,-699 2069,-695.167 2069,-691.333 2069,-691.333 2069,-683.667 2069,-683.667 2069,-679.833 2072.83,-676 2076.67,-676 2076.67,-676 2180.33,-676 2180.33,-676 2184.17,-676 2188,-679.833 2188,-683.667 2188,-683.667 2188,-691.333 2188,-691.333 2188,-695.167 2184.17,-699 2180.33,-699"/>
<text text-anchor="middle" x="2128.5" y="-683.8" font-family="Arial" font-size="14.00" fill="#c6c5fe">actions/Player.js</text>
</g>
<!-- actions/Player.js&#45;&gt;actions/Core.js -->
<g id="edge10" class="edge"><title>actions/Player.js&#45;&gt;actions/Core.js</title>
<path fill="none" stroke="#757575" d="M2154.15,-675.821C2174.69,-664.928 2203.36,-646.859 2221,-623.5 2250.48,-584.468 2234.12,-562.731 2257,-519.5 2273.45,-488.417 2298.84,-456.535 2315.69,-436.876"/>
<polygon fill="#757575" stroke="#757575" points="2318.41,-439.079 2322.33,-429.237 2313.13,-434.485 2318.41,-439.079"/>
</g>
<!-- actions/Player.js&#45;&gt;store/store.js -->
<g id="edge12" class="edge"><title>actions/Player.js&#45;&gt;store/store.js</title>
<path fill="none" stroke="#757575" d="M2151.63,-675.932C2171.65,-664.631 2200.96,-645.893 2221,-623.5 2243.28,-598.599 2233.49,-581.244 2257,-557.5 2312.16,-501.792 2356.39,-527.748 2411,-471.5 2462.67,-418.274 2494.66,-333.923 2507.51,-294.767"/>
<polygon fill="#757575" stroke="#757575" points="2510.86,-295.786 2510.56,-285.196 2504.19,-293.66 2510.86,-295.786"/>
</g>
<!-- actions/playerMsg.js -->
<g id="node13" class="node"><title>actions/playerMsg.js</title>
<path fill="none" stroke="#cfffac" d="M3205.83,-505C3205.83,-505 3076.17,-505 3076.17,-505 3072.33,-505 3068.5,-501.167 3068.5,-497.333 3068.5,-497.333 3068.5,-489.667 3068.5,-489.667 3068.5,-485.833 3072.33,-482 3076.17,-482 3076.17,-482 3205.83,-482 3205.83,-482 3209.67,-482 3213.5,-485.833 3213.5,-489.667 3213.5,-489.667 3213.5,-497.333 3213.5,-497.333 3213.5,-501.167 3209.67,-505 3205.83,-505"/>
<text text-anchor="middle" x="3141" y="-489.8" font-family="Arial" font-size="14.00" fill="#cfffac">actions/playerMsg.js</text>
</g>
<!-- actions/Player.js&#45;&gt;actions/playerMsg.js -->
<g id="edge11" class="edge"><title>actions/Player.js&#45;&gt;actions/playerMsg.js</title>
<path fill="none" stroke="#757575" d="M2151.34,-675.953C2208.92,-646.613 2370.37,-571.5 2514,-571.5 2514,-571.5 2514,-571.5 2708,-571.5 2849.79,-571.5 3013.65,-530.305 3092.62,-507.791"/>
<polygon fill="#757575" stroke="#757575" points="3093.63,-511.14 3102.27,-505.009 3091.7,-504.414 3093.63,-511.14"/>
</g>
<!-- symbols/breastCup.js -->
<g id="node14" class="node"><title>symbols/breastCup.js</title>
<path fill="none" stroke="#c6c5fe" d="M2403.33,-817C2403.33,-817 2264.67,-817 2264.67,-817 2260.83,-817 2257,-813.167 2257,-809.333 2257,-809.333 2257,-801.667 2257,-801.667 2257,-797.833 2260.83,-794 2264.67,-794 2264.67,-794 2403.33,-794 2403.33,-794 2407.17,-794 2411,-797.833 2411,-801.667 2411,-801.667 2411,-809.333 2411,-809.333 2411,-813.167 2407.17,-817 2403.33,-817"/>
<text text-anchor="middle" x="2334" y="-801.8" font-family="Arial" font-size="14.00" fill="#c6c5fe">symbols/breastCup.js</text>
</g>
<!-- actions/Player.js&#45;&gt;symbols/breastCup.js -->
<g id="edge13" class="edge"><title>actions/Player.js&#45;&gt;symbols/breastCup.js</title>
<path fill="none" stroke="#757575" d="M2149.38,-699.029C2185.55,-720.002 2262.24,-764.467 2304.15,-788.774"/>
<polygon fill="#757575" stroke="#757575" points="2302.63,-791.936 2313.04,-793.924 2306.14,-785.88 2302.63,-791.936"/>
</g>
<!-- symbols/cockType.js -->
<g id="node15" class="node"><title>symbols/cockType.js</title>
<path fill="none" stroke="#cfffac" d="M2401.33,-699C2401.33,-699 2266.67,-699 2266.67,-699 2262.83,-699 2259,-695.167 2259,-691.333 2259,-691.333 2259,-683.667 2259,-683.667 2259,-679.833 2262.83,-676 2266.67,-676 2266.67,-676 2401.33,-676 2401.33,-676 2405.17,-676 2409,-679.833 2409,-683.667 2409,-683.667 2409,-691.333 2409,-691.333 2409,-695.167 2405.17,-699 2401.33,-699"/>
<text text-anchor="middle" x="2334" y="-683.8" font-family="Arial" font-size="14.00" fill="#cfffac">symbols/cockType.js</text>
</g>
<!-- actions/Player.js&#45;&gt;symbols/cockType.js -->
<g id="edge14" class="edge"><title>actions/Player.js&#45;&gt;symbols/cockType.js</title>
<path fill="none" stroke="#757575" d="M2188.09,-687.5C2206.97,-687.5 2228.29,-687.5 2248.65,-687.5"/>
<polygon fill="#757575" stroke="#757575" points="2248.87,-691 2258.87,-687.5 2248.87,-684 2248.87,-691"/>
</g>
<!-- symbols/vaginas.js -->
<g id="node16" class="node"><title>symbols/vaginas.js</title>
<path fill="none" stroke="#c6c5fe" d="M2575.33,-679C2575.33,-679 2454.67,-679 2454.67,-679 2450.83,-679 2447,-675.167 2447,-671.333 2447,-671.333 2447,-663.667 2447,-663.667 2447,-659.833 2450.83,-656 2454.67,-656 2454.67,-656 2575.33,-656 2575.33,-656 2579.17,-656 2583,-659.833 2583,-663.667 2583,-663.667 2583,-671.333 2583,-671.333 2583,-675.167 2579.17,-679 2575.33,-679"/>
<text text-anchor="middle" x="2515" y="-663.8" font-family="Arial" font-size="14.00" fill="#c6c5fe">symbols/vaginas.js</text>
</g>
<!-- actions/Player.js&#45;&gt;symbols/vaginas.js -->
<g id="edge15" class="edge"><title>actions/Player.js&#45;&gt;symbols/vaginas.js</title>
<path fill="none" stroke="#757575" d="M2187.01,-675.982C2208.83,-672.151 2233.97,-668.384 2257,-666.5 2325.22,-660.92 2342.56,-666.168 2411,-666.5 2419.35,-666.541 2428.09,-666.6 2436.79,-666.669"/>
<polygon fill="#757575" stroke="#757575" points="2436.93,-670.17 2446.96,-666.755 2436.99,-663.171 2436.93,-670.17"/>
</g>
<!-- utils.js -->
<g id="node41" class="node"><title>utils.js</title>
<path fill="none" stroke="#cfffac" d="M3313.33,-465C3313.33,-465 3272.67,-465 3272.67,-465 3268.83,-465 3265,-461.167 3265,-457.333 3265,-457.333 3265,-449.667 3265,-449.667 3265,-445.833 3268.83,-442 3272.67,-442 3272.67,-442 3313.33,-442 3313.33,-442 3317.17,-442 3321,-445.833 3321,-449.667 3321,-449.667 3321,-457.333 3321,-457.333 3321,-461.167 3317.17,-465 3313.33,-465"/>
<text text-anchor="middle" x="3293" y="-449.8" font-family="Arial" font-size="14.00" fill="#cfffac">utils.js</text>
</g>
<!-- symbols/breastCup.js&#45;&gt;utils.js -->
<g id="edge102" class="edge"><title>symbols/breastCup.js&#45;&gt;utils.js</title>
<path fill="none" stroke="#757575" d="M2409.76,-817.039C2484.54,-827.569 2602.95,-841.5 2706,-841.5 2706,-841.5 2706,-841.5 2925,-841.5 3064.16,-841.5 3132.75,-867.008 3229,-766.5 3269.42,-724.297 3285.99,-539.299 3290.58,-475.344"/>
<polygon fill="#757575" stroke="#757575" points="3294.09,-475.407 3291.28,-465.19 3287.1,-474.926 3294.09,-475.407"/>
</g>
<!-- symbols/vaginas.js&#45;&gt;utils.js -->
<g id="edge116" class="edge"><title>symbols/vaginas.js&#45;&gt;utils.js</title>
<path fill="none" stroke="#757575" d="M2583.2,-672.347C2740.74,-682.323 3128.19,-698.366 3229,-623.5 3276.63,-588.127 3288.28,-512.676 3291.1,-475.346"/>
<polygon fill="#757575" stroke="#757575" points="3294.62,-475.266 3291.73,-465.072 3287.63,-474.841 3294.62,-475.266"/>
</g>
<!-- appearance/appearance.js -->
<g id="node17" class="node"><title>appearance/appearance.js</title>
<path fill="none" stroke="#c6c5fe" d="M2213.33,-855C2213.33,-855 2043.67,-855 2043.67,-855 2039.83,-855 2036,-851.167 2036,-847.333 2036,-847.333 2036,-839.667 2036,-839.667 2036,-835.833 2039.83,-832 2043.67,-832 2043.67,-832 2213.33,-832 2213.33,-832 2217.17,-832 2221,-835.833 2221,-839.667 2221,-839.667 2221,-847.333 2221,-847.333 2221,-851.167 2217.17,-855 2213.33,-855"/>
<text text-anchor="middle" x="2128.5" y="-839.8" font-family="Arial" font-size="14.00" fill="#c6c5fe">appearance/appearance.js</text>
</g>
<!-- appearance/appearance.js&#45;&gt;store/store.js -->
<g id="edge16" class="edge"><title>appearance/appearance.js&#45;&gt;store/store.js</title>
<path fill="none" stroke="#757575" d="M2171.25,-855.023C2232.03,-869.027 2344.84,-884.123 2411,-825.5 2416.14,-820.948 2492.01,-396.849 2510.13,-295.21"/>
<polygon fill="#757575" stroke="#757575" points="2513.61,-295.637 2511.92,-285.178 2506.72,-294.408 2513.61,-295.637"/>
</g>
<!-- appearance/appearance.js&#45;&gt;symbols/breastCup.js -->
<g id="edge17" class="edge"><title>appearance/appearance.js&#45;&gt;symbols/breastCup.js</title>
<path fill="none" stroke="#757575" d="M2191.11,-831.996C2213.22,-827.866 2238.35,-823.175 2261.25,-818.899"/>
<polygon fill="#757575" stroke="#757575" points="2262.06,-822.307 2271.25,-817.031 2260.78,-815.426 2262.06,-822.307"/>
</g>
<!-- symbols/gender.js -->
<g id="node18" class="node"><title>symbols/gender.js</title>
<path fill="none" stroke="#c6c5fe" d="M2392.83,-935C2392.83,-935 2275.17,-935 2275.17,-935 2271.33,-935 2267.5,-931.167 2267.5,-927.333 2267.5,-927.333 2267.5,-919.667 2267.5,-919.667 2267.5,-915.833 2271.33,-912 2275.17,-912 2275.17,-912 2392.83,-912 2392.83,-912 2396.67,-912 2400.5,-915.833 2400.5,-919.667 2400.5,-919.667 2400.5,-927.333 2400.5,-927.333 2400.5,-931.167 2396.67,-935 2392.83,-935"/>
<text text-anchor="middle" x="2334" y="-919.8" font-family="Arial" font-size="14.00" fill="#c6c5fe">symbols/gender.js</text>
</g>
<!-- appearance/appearance.js&#45;&gt;symbols/gender.js -->
<g id="edge18" class="edge"><title>appearance/appearance.js&#45;&gt;symbols/gender.js</title>
<path fill="none" stroke="#757575" d="M2159.09,-855.133C2194.76,-869.155 2254.81,-892.76 2294.17,-908.235"/>
<polygon fill="#757575" stroke="#757575" points="2293.12,-911.582 2303.7,-911.983 2295.68,-905.067 2293.12,-911.582"/>
</g>
<!-- symbols/gender.js&#45;&gt;utils.js -->
<g id="edge108" class="edge"><title>symbols/gender.js&#45;&gt;utils.js</title>
<path fill="none" stroke="#757575" d="M2400.67,-921.797C2474.82,-920.023 2599.07,-917.5 2706,-917.5 2706,-917.5 2706,-917.5 2925,-917.5 3066.96,-917.5 3135.96,-926.719 3229,-819.5 3274.23,-767.373 3287.87,-546.475 3291.12,-475.533"/>
<polygon fill="#757575" stroke="#757575" points="3294.64,-475.276 3291.57,-465.134 3287.64,-474.973 3294.64,-475.276"/>
</g>
<!-- components/appRoot.js -->
<g id="node19" class="node"><title>components/appRoot.js</title>
<path fill="none" stroke="#c6c5fe" d="M298.333,-235C298.333,-235 145.667,-235 145.667,-235 141.833,-235 138,-231.167 138,-227.333 138,-227.333 138,-219.667 138,-219.667 138,-215.833 141.833,-212 145.667,-212 145.667,-212 298.333,-212 298.333,-212 302.167,-212 306,-215.833 306,-219.667 306,-219.667 306,-227.333 306,-227.333 306,-231.167 302.167,-235 298.333,-235"/>
<text text-anchor="middle" x="222" y="-219.8" font-family="Arial" font-size="14.00" fill="#c6c5fe">components/appRoot.js</text>
</g>
<!-- components/lowerButtons.js -->
<g id="node20" class="node"><title>components/lowerButtons.js</title>
<path fill="none" stroke="#c6c5fe" d="M529.333,-276C529.333,-276 349.667,-276 349.667,-276 345.833,-276 342,-272.167 342,-268.333 342,-268.333 342,-260.667 342,-260.667 342,-256.833 345.833,-253 349.667,-253 349.667,-253 529.333,-253 529.333,-253 533.167,-253 537,-256.833 537,-260.667 537,-260.667 537,-268.333 537,-268.333 537,-272.167 533.167,-276 529.333,-276"/>
<text text-anchor="middle" x="439.5" y="-260.8" font-family="Arial" font-size="14.00" fill="#c6c5fe">components/lowerButtons.js</text>
</g>
<!-- components/appRoot.js&#45;&gt;components/lowerButtons.js -->
<g id="edge19" class="edge"><title>components/appRoot.js&#45;&gt;components/lowerButtons.js</title>
<path fill="none" stroke="#757575" d="M283.602,-235.03C309.88,-240.029 340.817,-245.915 368.106,-251.107"/>
<polygon fill="#757575" stroke="#757575" points="367.502,-254.555 377.98,-252.986 368.81,-247.678 367.502,-254.555"/>
</g>
<!-- components/menuBar.js -->
<g id="node21" class="node"><title>components/menuBar.js</title>
<path fill="none" stroke="#c6c5fe" d="M516.833,-235C516.833,-235 362.167,-235 362.167,-235 358.333,-235 354.5,-231.167 354.5,-227.333 354.5,-227.333 354.5,-219.667 354.5,-219.667 354.5,-215.833 358.333,-212 362.167,-212 362.167,-212 516.833,-212 516.833,-212 520.667,-212 524.5,-215.833 524.5,-219.667 524.5,-219.667 524.5,-227.333 524.5,-227.333 524.5,-231.167 520.667,-235 516.833,-235"/>
<text text-anchor="middle" x="439.5" y="-219.8" font-family="Arial" font-size="14.00" fill="#c6c5fe">components/menuBar.js</text>
</g>
<!-- components/appRoot.js&#45;&gt;components/menuBar.js -->
<g id="edge20" class="edge"><title>components/appRoot.js&#45;&gt;components/menuBar.js</title>
<path fill="none" stroke="#757575" d="M306.01,-223.5C318.546,-223.5 331.556,-223.5 344.307,-223.5"/>
<polygon fill="#757575" stroke="#757575" points="344.465,-227 354.465,-223.5 344.465,-220 344.465,-227"/>
</g>
<!-- components/output.js -->
<g id="node22" class="node"><title>components/output.js</title>
<path fill="none" stroke="#cfffac" d="M507.833,-317C507.833,-317 371.167,-317 371.167,-317 367.333,-317 363.5,-313.167 363.5,-309.333 363.5,-309.333 363.5,-301.667 363.5,-301.667 363.5,-297.833 367.333,-294 371.167,-294 371.167,-294 507.833,-294 507.833,-294 511.667,-294 515.5,-297.833 515.5,-301.667 515.5,-301.667 515.5,-309.333 515.5,-309.333 515.5,-313.167 511.667,-317 507.833,-317"/>
<text text-anchor="middle" x="439.5" y="-301.8" font-family="Arial" font-size="14.00" fill="#cfffac">components/output.js</text>
</g>
<!-- components/appRoot.js&#45;&gt;components/output.js -->
<g id="edge21" class="edge"><title>components/appRoot.js&#45;&gt;components/output.js</title>
<path fill="none" stroke="#757575" d="M241.687,-235.021C264.56,-248.658 304.845,-271.19 342,-284.5 349.207,-287.082 356.835,-289.401 364.519,-291.472"/>
<polygon fill="#757575" stroke="#757575" points="363.698,-294.875 374.253,-293.963 365.433,-288.094 363.698,-294.875"/>
</g>
<!-- components/statBar.js -->
<g id="node23" class="node"><title>components/statBar.js</title>
<path fill="none" stroke="#c6c5fe" d="M510.833,-194C510.833,-194 368.167,-194 368.167,-194 364.333,-194 360.5,-190.167 360.5,-186.333 360.5,-186.333 360.5,-178.667 360.5,-178.667 360.5,-174.833 364.333,-171 368.167,-171 368.167,-171 510.833,-171 510.833,-171 514.667,-171 518.5,-174.833 518.5,-178.667 518.5,-178.667 518.5,-186.333 518.5,-186.333 518.5,-190.167 514.667,-194 510.833,-194"/>
<text text-anchor="middle" x="439.5" y="-178.8" font-family="Arial" font-size="14.00" fill="#c6c5fe">components/statBar.js</text>
</g>
<!-- components/appRoot.js&#45;&gt;components/statBar.js -->
<g id="edge22" class="edge"><title>components/appRoot.js&#45;&gt;components/statBar.js</title>
<path fill="none" stroke="#757575" d="M283.602,-211.97C309.88,-206.971 340.817,-201.085 368.106,-195.893"/>
<polygon fill="#757575" stroke="#757575" points="368.81,-199.322 377.98,-194.014 367.502,-192.445 368.81,-199.322"/>
</g>
<!-- components/buttonGrid.js -->
<g id="node25" class="node"><title>components/buttonGrid.js</title>
<path fill="none" stroke="#c6c5fe" d="M752.333,-276C752.333,-276 588.667,-276 588.667,-276 584.833,-276 581,-272.167 581,-268.333 581,-268.333 581,-260.667 581,-260.667 581,-256.833 584.833,-253 588.667,-253 588.667,-253 752.333,-253 752.333,-253 756.167,-253 760,-256.833 760,-260.667 760,-260.667 760,-268.333 760,-268.333 760,-272.167 756.167,-276 752.333,-276"/>
<text text-anchor="middle" x="670.5" y="-260.8" font-family="Arial" font-size="14.00" fill="#c6c5fe">components/buttonGrid.js</text>
</g>
<!-- components/lowerButtons.js&#45;&gt;components/buttonGrid.js -->
<g id="edge27" class="edge"><title>components/lowerButtons.js&#45;&gt;components/buttonGrid.js</title>
<path fill="none" stroke="#757575" d="M537.285,-264.5C548.313,-264.5 559.566,-264.5 570.621,-264.5"/>
<polygon fill="#757575" stroke="#757575" points="570.705,-268 580.705,-264.5 570.705,-261 570.705,-268"/>
</g>
<!-- components/menuBar.js&#45;&gt;components/buttonGrid.js -->
<g id="edge28" class="edge"><title>components/menuBar.js&#45;&gt;components/buttonGrid.js</title>
<path fill="none" stroke="#757575" d="M504.899,-235.03C532.945,-240.051 565.986,-245.967 595.078,-251.175"/>
<polygon fill="#757575" stroke="#757575" points="594.728,-254.668 605.188,-252.986 595.962,-247.778 594.728,-254.668"/>
</g>
<!-- components/spriteDisplay.js -->
<g id="node30" class="node"><title>components/spriteDisplay.js</title>
<path fill="none" stroke="#cfffac" d="M760.333,-194C760.333,-194 580.667,-194 580.667,-194 576.833,-194 573,-190.167 573,-186.333 573,-186.333 573,-178.667 573,-178.667 573,-174.833 576.833,-171 580.667,-171 580.667,-171 760.333,-171 760.333,-171 764.167,-171 768,-174.833 768,-178.667 768,-178.667 768,-186.333 768,-186.333 768,-190.167 764.167,-194 760.333,-194"/>
<text text-anchor="middle" x="670.5" y="-178.8" font-family="Arial" font-size="14.00" fill="#cfffac">components/spriteDisplay.js</text>
</g>
<!-- components/statBar.js&#45;&gt;components/spriteDisplay.js -->
<g id="edge31" class="edge"><title>components/statBar.js&#45;&gt;components/spriteDisplay.js</title>
<path fill="none" stroke="#757575" d="M518.668,-182.5C532.775,-182.5 547.703,-182.5 562.464,-182.5"/>
<polygon fill="#757575" stroke="#757575" points="562.645,-186 572.645,-182.5 562.645,-179 562.645,-186"/>
</g>
<!-- components/statDisplay.js -->
<g id="node32" class="node"><title>components/statDisplay.js</title>
<path fill="none" stroke="#c6c5fe" d="M753.833,-153C753.833,-153 587.167,-153 587.167,-153 583.333,-153 579.5,-149.167 579.5,-145.333 579.5,-145.333 579.5,-137.667 579.5,-137.667 579.5,-133.833 583.333,-130 587.167,-130 587.167,-130 753.833,-130 753.833,-130 757.667,-130 761.5,-133.833 761.5,-137.667 761.5,-137.667 761.5,-145.333 761.5,-145.333 761.5,-149.167 757.667,-153 753.833,-153"/>
<text text-anchor="middle" x="670.5" y="-137.8" font-family="Arial" font-size="14.00" fill="#c6c5fe">components/statDisplay.js</text>
</g>
<!-- components/statBar.js&#45;&gt;components/statDisplay.js -->
<g id="edge32" class="edge"><title>components/statBar.js&#45;&gt;components/statDisplay.js</title>
<path fill="none" stroke="#757575" d="M504.899,-170.97C532.945,-165.949 565.986,-160.033 595.078,-154.825"/>
<polygon fill="#757575" stroke="#757575" points="595.962,-158.222 605.188,-153.014 594.728,-151.332 595.962,-158.222"/>
</g>
<!-- components/timeDisplay.js -->
<g id="node33" class="node"><title>components/timeDisplay.js</title>
<path fill="none" stroke="#cfffac" d="M756.333,-235C756.333,-235 584.667,-235 584.667,-235 580.833,-235 577,-231.167 577,-227.333 577,-227.333 577,-219.667 577,-219.667 577,-215.833 580.833,-212 584.667,-212 584.667,-212 756.333,-212 756.333,-212 760.167,-212 764,-215.833 764,-219.667 764,-219.667 764,-227.333 764,-227.333 764,-231.167 760.167,-235 756.333,-235"/>
<text text-anchor="middle" x="670.5" y="-219.8" font-family="Arial" font-size="14.00" fill="#cfffac">components/timeDisplay.js</text>
</g>
<!-- components/statBar.js&#45;&gt;components/timeDisplay.js -->
<g id="edge33" class="edge"><title>components/statBar.js&#45;&gt;components/timeDisplay.js</title>
<path fill="none" stroke="#757575" d="M504.899,-194.03C532.945,-199.051 565.986,-204.967 595.078,-210.175"/>
<polygon fill="#757575" stroke="#757575" points="594.728,-213.668 605.188,-211.986 595.962,-206.778 594.728,-213.668"/>
</g>
<!-- components/button.js -->
<g id="node24" class="node"><title>components/button.js</title>
<path fill="none" stroke="#cfffac" d="M1186.33,-276C1186.33,-276 1049.67,-276 1049.67,-276 1045.83,-276 1042,-272.167 1042,-268.333 1042,-268.333 1042,-260.667 1042,-260.667 1042,-256.833 1045.83,-253 1049.67,-253 1049.67,-253 1186.33,-253 1186.33,-253 1190.17,-253 1194,-256.833 1194,-260.667 1194,-260.667 1194,-268.333 1194,-268.333 1194,-272.167 1190.17,-276 1186.33,-276"/>
<text text-anchor="middle" x="1118" y="-260.8" font-family="Arial" font-size="14.00" fill="#cfffac">components/button.js</text>
</g>
<!-- components/buttonGrid.js&#45;&gt;actions/Engine.js -->
<g id="edge23" class="edge"><title>components/buttonGrid.js&#45;&gt;actions/Engine.js</title>
<path fill="none" stroke="#757575" d="M690.296,-276.196C730.101,-300.963 823.032,-358.786 869.311,-387.582"/>
<polygon fill="#757575" stroke="#757575" points="867.576,-390.625 877.915,-392.936 871.274,-384.681 867.576,-390.625"/>
</g>
<!-- components/buttonWrap.js -->
<g id="node26" class="node"><title>components/buttonWrap.js</title>
<path fill="none" stroke="#c6c5fe" d="M983.333,-276C983.333,-276 811.667,-276 811.667,-276 807.833,-276 804,-272.167 804,-268.333 804,-268.333 804,-260.667 804,-260.667 804,-256.833 807.833,-253 811.667,-253 811.667,-253 983.333,-253 983.333,-253 987.167,-253 991,-256.833 991,-260.667 991,-260.667 991,-268.333 991,-268.333 991,-272.167 987.167,-276 983.333,-276"/>
<text text-anchor="middle" x="897.5" y="-260.8" font-family="Arial" font-size="14.00" fill="#c6c5fe">components/buttonWrap.js</text>
</g>
<!-- components/buttonGrid.js&#45;&gt;components/buttonWrap.js -->
<g id="edge24" class="edge"><title>components/buttonGrid.js&#45;&gt;components/buttonWrap.js</title>
<path fill="none" stroke="#757575" d="M760.103,-264.5C771.119,-264.5 782.455,-264.5 793.663,-264.5"/>
<polygon fill="#757575" stroke="#757575" points="793.906,-268 803.906,-264.5 793.906,-261 793.906,-268"/>
</g>
<!-- components/buttonWrap.js&#45;&gt;components/button.js -->
<g id="edge25" class="edge"><title>components/buttonWrap.js&#45;&gt;components/button.js</title>
<path fill="none" stroke="#757575" d="M991.164,-264.5C1004.6,-264.5 1018.39,-264.5 1031.67,-264.5"/>
<polygon fill="#757575" stroke="#757575" points="1031.72,-268 1041.72,-264.5 1031.72,-261 1031.72,-268"/>
</g>
<!-- components/dropdown.js -->
<g id="node27" class="node"><title>components/dropdown.js</title>
<path fill="none" stroke="#c6c5fe" d="M2787.33,-62C2787.33,-62 2626.67,-62 2626.67,-62 2622.83,-62 2619,-58.1667 2619,-54.3333 2619,-54.3333 2619,-46.6667 2619,-46.6667 2619,-42.8333 2622.83,-39 2626.67,-39 2626.67,-39 2787.33,-39 2787.33,-39 2791.17,-39 2795,-42.8333 2795,-46.6667 2795,-46.6667 2795,-54.3333 2795,-54.3333 2795,-58.1667 2791.17,-62 2787.33,-62"/>
<text text-anchor="middle" x="2707" y="-46.8" font-family="Arial" font-size="14.00" fill="#c6c5fe">components/dropdown.js</text>
</g>
<!-- symbols/perks.js -->
<g id="node28" class="node"><title>symbols/perks.js</title>
<path fill="none" stroke="#c6c5fe" d="M2977.83,-62C2977.83,-62 2870.17,-62 2870.17,-62 2866.33,-62 2862.5,-58.1667 2862.5,-54.3333 2862.5,-54.3333 2862.5,-46.6667 2862.5,-46.6667 2862.5,-42.8333 2866.33,-39 2870.17,-39 2870.17,-39 2977.83,-39 2977.83,-39 2981.67,-39 2985.5,-42.8333 2985.5,-46.6667 2985.5,-46.6667 2985.5,-54.3333 2985.5,-54.3333 2985.5,-58.1667 2981.67,-62 2977.83,-62"/>
<text text-anchor="middle" x="2924" y="-46.8" font-family="Arial" font-size="14.00" fill="#c6c5fe">symbols/perks.js</text>
</g>
<!-- components/dropdown.js&#45;&gt;symbols/perks.js -->
<g id="edge26" class="edge"><title>components/dropdown.js&#45;&gt;symbols/perks.js</title>
<path fill="none" stroke="#757575" d="M2795.14,-50.5C2814.1,-50.5 2833.95,-50.5 2852.19,-50.5"/>
<polygon fill="#757575" stroke="#757575" points="2852.43,-54.0001 2862.43,-50.5 2852.43,-47.0001 2852.43,-54.0001"/>
</g>
<!-- symbols/perks.js&#45;&gt;actions/engineMsg.js -->
<g id="edge112" class="edge"><title>symbols/perks.js&#45;&gt;actions/engineMsg.js</title>
<path fill="none" stroke="#757575" d="M2985.75,-49.3698C3007.6,-48.9633 3032.65,-48.4972 3056.12,-48.0606"/>
<polygon fill="#757575" stroke="#757575" points="3056.49,-51.5544 3066.42,-47.8689 3056.36,-44.5557 3056.49,-51.5544"/>
</g>
<!-- components/nameInput.js -->
<g id="node29" class="node"><title>components/nameInput.js</title>
<path fill="none" stroke="#c6c5fe" d="M1992.33,-583C1992.33,-583 1827.67,-583 1827.67,-583 1823.83,-583 1820,-579.167 1820,-575.333 1820,-575.333 1820,-567.667 1820,-567.667 1820,-563.833 1823.83,-560 1827.67,-560 1827.67,-560 1992.33,-560 1992.33,-560 1996.17,-560 2000,-563.833 2000,-567.667 2000,-567.667 2000,-575.333 2000,-575.333 2000,-579.167 1996.17,-583 1992.33,-583"/>
<text text-anchor="middle" x="1910" y="-567.8" font-family="Arial" font-size="14.00" fill="#c6c5fe">components/nameInput.js</text>
</g>
<!-- components/nameInput.js&#45;&gt;store/store.js -->
<g id="edge30" class="edge"><title>components/nameInput.js&#45;&gt;store/store.js</title>
<path fill="none" stroke="#757575" d="M1961.74,-583.012C2027.72,-594.932 2143.66,-605.118 2221,-551.5 2253.04,-529.286 2226.75,-496.096 2257,-471.5 2311.39,-427.284 2353.7,-477.863 2411,-437.5 2462.32,-401.355 2493.56,-330.712 2506.72,-295.108"/>
<polygon fill="#757575" stroke="#757575" points="2510.17,-295.855 2510.23,-285.26 2503.58,-293.507 2510.17,-295.855"/>
</g>
<!-- components/nameInput.js&#45;&gt;actions/Player.js -->
<g id="edge29" class="edge"><title>components/nameInput.js&#45;&gt;actions/Player.js</title>
<path fill="none" stroke="#757575" d="M1923.88,-583.15C1945.53,-602.147 1991.22,-639.846 2036,-661.5 2045.24,-665.968 2055.38,-669.798 2065.45,-673.038"/>
<polygon fill="#757575" stroke="#757575" points="2064.46,-676.395 2075.05,-675.965 2066.5,-669.7 2064.46,-676.395"/>
</g>
<!-- components/stat.js -->
<g id="node31" class="node"><title>components/stat.js</title>
<path fill="none" stroke="#cfffac" d="M957.833,-153C957.833,-153 837.167,-153 837.167,-153 833.333,-153 829.5,-149.167 829.5,-145.333 829.5,-145.333 829.5,-137.667 829.5,-137.667 829.5,-133.833 833.333,-130 837.167,-130 837.167,-130 957.833,-130 957.833,-130 961.667,-130 965.5,-133.833 965.5,-137.667 965.5,-137.667 965.5,-145.333 965.5,-145.333 965.5,-149.167 961.667,-153 957.833,-153"/>
<text text-anchor="middle" x="897.5" y="-137.8" font-family="Arial" font-size="14.00" fill="#cfffac">components/stat.js</text>
</g>
<!-- components/statDisplay.js&#45;&gt;components/stat.js -->
<g id="edge34" class="edge"><title>components/statDisplay.js&#45;&gt;components/stat.js</title>
<path fill="none" stroke="#757575" d="M761.72,-141.5C780.804,-141.5 800.779,-141.5 819.327,-141.5"/>
<polygon fill="#757575" stroke="#757575" points="819.471,-145 829.471,-141.5 819.471,-138 819.471,-145"/>
</g>
<!-- index.js -->
<g id="node34" class="node"><title>index.js</title>
<path fill="none" stroke="#c6c5fe" d="M75.8333,-149C75.8333,-149 26.1667,-149 26.1667,-149 22.3333,-149 18.5,-145.167 18.5,-141.333 18.5,-141.333 18.5,-133.667 18.5,-133.667 18.5,-129.833 22.3333,-126 26.1667,-126 26.1667,-126 75.8333,-126 75.8333,-126 79.6667,-126 83.5,-129.833 83.5,-133.667 83.5,-133.667 83.5,-141.333 83.5,-141.333 83.5,-145.167 79.6667,-149 75.8333,-149"/>
<text text-anchor="middle" x="51" y="-133.8" font-family="Arial" font-size="14.00" fill="#c6c5fe">index.js</text>
</g>
<!-- index.js&#45;&gt;store/store.js -->
<g id="edge36" class="edge"><title>index.js&#45;&gt;store/store.js</title>
<path fill="none" stroke="#757575" d="M82.5461,-125.902C147.202,-102.427 303.079,-51.5 438.5,-51.5 438.5,-51.5 438.5,-51.5 2129.5,-51.5 2254.9,-51.5 2306.41,-1.32721 2411,-70.5 2475.29,-113.016 2501.4,-208.566 2510.19,-251.672"/>
<polygon fill="#757575" stroke="#757575" points="2506.79,-252.505 2512.11,-261.667 2513.67,-251.187 2506.79,-252.505"/>
</g>
<!-- index.js&#45;&gt;components/appRoot.js -->
<g id="edge35" class="edge"><title>index.js&#45;&gt;components/appRoot.js</title>
<path fill="none" stroke="#757575" d="M82.6709,-149.06C89.1205,-151.687 95.8352,-154.572 102,-157.5 134.026,-172.712 169.4,-192.771 193.19,-206.766"/>
<polygon fill="#757575" stroke="#757575" points="191.628,-209.909 202.016,-211.993 195.195,-203.886 191.628,-209.909"/>
</g>
<!-- reducers/root.js&#45;&gt;actions/coreMsg.js -->
<g id="edge37" class="edge"><title>reducers/root.js&#45;&gt;actions/coreMsg.js</title>
<path fill="none" stroke="#757575" d="M2765.05,-274.302C2843.06,-276.457 2977.85,-284.287 3017,-312.5 3047,-334.116 3024.88,-363.488 3053,-387.5 3057.61,-391.435 3062.79,-394.775 3068.28,-397.609"/>
<polygon fill="#757575" stroke="#757575" points="3067.19,-400.961 3077.75,-401.917 3070.09,-394.589 3067.19,-400.961"/>
</g>
<!-- reducers/root.js&#45;&gt;actions/enemyMsg.js -->
<g id="edge38" class="edge"><title>reducers/root.js&#45;&gt;actions/enemyMsg.js</title>
<path fill="none" stroke="#757575" d="M2717.17,-261.794C2735.97,-238.573 2781.35,-186.508 2831,-158.5 2838.86,-154.068 2847.52,-150.346 2856.3,-147.233"/>
<polygon fill="#757575" stroke="#757575" points="2857.44,-150.544 2865.84,-144.088 2855.25,-143.896 2857.44,-150.544"/>
</g>
<!-- reducers/root.js&#45;&gt;actions/invMsg.js -->
<g id="edge40" class="edge"><title>reducers/root.js&#45;&gt;actions/invMsg.js</title>
<path fill="none" stroke="#757575" d="M2713.22,-261.851C2727.4,-231.678 2769.67,-150.616 2831,-111.5 2837.35,-107.451 2844.39,-104.212 2851.67,-101.622"/>
<polygon fill="#757575" stroke="#757575" points="2853.21,-104.808 2861.7,-98.4782 2851.12,-98.1287 2853.21,-104.808"/>
</g>
<!-- reducers/root.js&#45;&gt;actions/engineMsg.js -->
<g id="edge39" class="edge"><title>reducers/root.js&#45;&gt;actions/engineMsg.js</title>
<path fill="none" stroke="#757575" d="M2721.74,-261.733C2743.45,-243.767 2787.69,-209.674 2831,-191.5 2908.88,-158.815 2951.89,-206.298 3017,-152.5 3048.94,-126.108 3021.31,-93.1988 3053,-66.5 3054.39,-65.3329 3055.83,-64.2306 3057.31,-63.1898"/>
<polygon fill="#757575" stroke="#757575" points="3059.47,-65.9822 3066.29,-57.8755 3055.9,-59.9589 3059.47,-65.9822"/>
</g>
<!-- reducers/root.js&#45;&gt;actions/playerMsg.js -->
<g id="edge41" class="edge"><title>reducers/root.js&#45;&gt;actions/playerMsg.js</title>
<path fill="none" stroke="#757575" d="M2713.22,-285.084C2727.37,-315.074 2769.6,-395.553 2831,-433.5 2840.96,-439.655 2976.09,-464.463 3064.32,-480.188"/>
<polygon fill="#757575" stroke="#757575" points="3063.84,-483.659 3074.3,-481.964 3065.07,-476.767 3063.84,-483.659"/>
</g>
<!-- reducers/root.js&#45;&gt;symbols/perks.js -->
<g id="edge47" class="edge"><title>reducers/root.js&#45;&gt;symbols/perks.js</title>
<path fill="none" stroke="#757575" d="M2711.43,-261.822C2722.39,-226.666 2760.07,-121.143 2831,-70.5 2837.45,-65.8921 2844.77,-62.3123 2852.38,-59.5366"/>
<polygon fill="#757575" stroke="#757575" points="2853.67,-62.7985 2862.14,-56.4338 2851.55,-56.1274 2853.67,-62.7985"/>
</g>
<!-- reducers/updateBodyArr.js -->
<g id="node36" class="node"><title>reducers/updateBodyArr.js</title>
<path fill="none" stroke="#c6c5fe" d="M3009.33,-505C3009.33,-505 2838.67,-505 2838.67,-505 2834.83,-505 2831,-501.167 2831,-497.333 2831,-497.333 2831,-489.667 2831,-489.667 2831,-485.833 2834.83,-482 2838.67,-482 2838.67,-482 3009.33,-482 3009.33,-482 3013.17,-482 3017,-485.833 3017,-489.667 3017,-489.667 3017,-497.333 3017,-497.333 3017,-501.167 3013.17,-505 3009.33,-505"/>
<text text-anchor="middle" x="2924" y="-489.8" font-family="Arial" font-size="14.00" fill="#c6c5fe">reducers/updateBodyArr.js</text>
</g>
<!-- reducers/root.js&#45;&gt;reducers/updateBodyArr.js -->
<g id="edge42" class="edge"><title>reducers/root.js&#45;&gt;reducers/updateBodyArr.js</title>
<path fill="none" stroke="#757575" d="M2711.98,-285.192C2724.1,-318.967 2763.86,-417.448 2831,-467.5 2836.54,-471.632 2842.72,-475.108 2849.17,-478.032"/>
<polygon fill="#757575" stroke="#757575" points="2848.21,-481.417 2858.79,-481.932 2850.84,-474.93 2848.21,-481.417"/>
</g>
<!-- reducers/updateButtons.js -->
<g id="node37" class="node"><title>reducers/updateButtons.js</title>
<path fill="none" stroke="#c6c5fe" d="M3007.33,-345C3007.33,-345 2840.67,-345 2840.67,-345 2836.83,-345 2833,-341.167 2833,-337.333 2833,-337.333 2833,-329.667 2833,-329.667 2833,-325.833 2836.83,-322 2840.67,-322 2840.67,-322 3007.33,-322 3007.33,-322 3011.17,-322 3015,-325.833 3015,-329.667 3015,-329.667 3015,-337.333 3015,-337.333 3015,-341.167 3011.17,-345 3007.33,-345"/>
<text text-anchor="middle" x="2924" y="-329.8" font-family="Arial" font-size="14.00" fill="#c6c5fe">reducers/updateButtons.js</text>
</g>
<!-- reducers/root.js&#45;&gt;reducers/updateButtons.js -->
<g id="edge43" class="edge"><title>reducers/root.js&#45;&gt;reducers/updateButtons.js</title>
<path fill="none" stroke="#757575" d="M2749.45,-285.069C2784.4,-294.822 2834.56,-308.818 2871.97,-319.259"/>
<polygon fill="#757575" stroke="#757575" points="2871.1,-322.65 2881.67,-321.967 2872.98,-315.908 2871.1,-322.65"/>
</g>
<!-- reducers/updateStats.js -->
<g id="node38" class="node"><title>reducers/updateStats.js</title>
<path fill="none" stroke="#c6c5fe" d="M2999.83,-425C2999.83,-425 2848.17,-425 2848.17,-425 2844.33,-425 2840.5,-421.167 2840.5,-417.333 2840.5,-417.333 2840.5,-409.667 2840.5,-409.667 2840.5,-405.833 2844.33,-402 2848.17,-402 2848.17,-402 2999.83,-402 2999.83,-402 3003.67,-402 3007.5,-405.833 3007.5,-409.667 3007.5,-409.667 3007.5,-417.333 3007.5,-417.333 3007.5,-421.167 3003.67,-425 2999.83,-425"/>
<text text-anchor="middle" x="2924" y="-409.8" font-family="Arial" font-size="14.00" fill="#c6c5fe">reducers/updateStats.js</text>
</g>
<!-- reducers/root.js&#45;&gt;reducers/updateStats.js -->
<g id="edge44" class="edge"><title>reducers/root.js&#45;&gt;reducers/updateStats.js</title>
<path fill="none" stroke="#757575" d="M2725.96,-285.196C2763.92,-309.911 2852.43,-367.546 2896.74,-396.402"/>
<polygon fill="#757575" stroke="#757575" points="2894.95,-399.412 2905.24,-401.936 2898.77,-393.546 2894.95,-399.412"/>
</g>
<!-- reducers/updateTime.js -->
<g id="node39" class="node"><title>reducers/updateTime.js</title>
<path fill="none" stroke="#c6c5fe" d="M2999.83,-265C2999.83,-265 2848.17,-265 2848.17,-265 2844.33,-265 2840.5,-261.167 2840.5,-257.333 2840.5,-257.333 2840.5,-249.667 2840.5,-249.667 2840.5,-245.833 2844.33,-242 2848.17,-242 2848.17,-242 2999.83,-242 2999.83,-242 3003.67,-242 3007.5,-245.833 3007.5,-249.667 3007.5,-249.667 3007.5,-257.333 3007.5,-257.333 3007.5,-261.167 3003.67,-265 2999.83,-265"/>
<text text-anchor="middle" x="2924" y="-249.8" font-family="Arial" font-size="14.00" fill="#c6c5fe">reducers/updateTime.js</text>
</g>
<!-- reducers/root.js&#45;&gt;reducers/updateTime.js -->
<g id="edge45" class="edge"><title>reducers/root.js&#45;&gt;reducers/updateTime.js</title>
<path fill="none" stroke="#757575" d="M2765.05,-268.193C2785.01,-266.336 2807.97,-264.201 2830.09,-262.143"/>
<polygon fill="#757575" stroke="#757575" points="2830.54,-265.616 2840.18,-261.204 2829.9,-258.646 2830.54,-265.616"/>
</g>
<!-- store/initialState.js -->
<g id="node40" class="node"><title>store/initialState.js</title>
<path fill="none" stroke="#c6c5fe" d="M2981.83,-224C2981.83,-224 2866.17,-224 2866.17,-224 2862.33,-224 2858.5,-220.167 2858.5,-216.333 2858.5,-216.333 2858.5,-208.667 2858.5,-208.667 2858.5,-204.833 2862.33,-201 2866.17,-201 2866.17,-201 2981.83,-201 2981.83,-201 2985.67,-201 2989.5,-204.833 2989.5,-208.667 2989.5,-208.667 2989.5,-216.333 2989.5,-216.333 2989.5,-220.167 2985.67,-224 2981.83,-224"/>
<text text-anchor="middle" x="2924" y="-208.8" font-family="Arial" font-size="14.00" fill="#c6c5fe">store/initialState.js</text>
</g>
<!-- reducers/root.js&#45;&gt;store/initialState.js -->
<g id="edge46" class="edge"><title>reducers/root.js&#45;&gt;store/initialState.js</title>
<path fill="none" stroke="#757575" d="M2739.57,-261.933C2764.25,-253.146 2799.53,-241.14 2831,-232.5 2838.84,-230.347 2847.12,-228.275 2855.35,-226.334"/>
<polygon fill="#757575" stroke="#757575" points="2856.39,-229.687 2865.35,-224.035 2854.82,-222.865 2856.39,-229.687"/>
</g>
<!-- reducers/root.js&#45;&gt;utils.js -->
<g id="edge48" class="edge"><title>reducers/root.js&#45;&gt;utils.js</title>
<path fill="none" stroke="#757575" d="M2709.7,-285.103C2716.34,-325.536 2744.51,-460.639 2831,-513.5 2981.93,-605.746 3064.76,-579.195 3229,-513.5 3249.21,-505.417 3266.63,-487.424 3277.99,-473.238"/>
<polygon fill="#757575" stroke="#757575" points="3280.98,-475.094 3284.26,-465.02 3275.41,-470.85 3280.98,-475.094"/>
</g>
<!-- reducers/updateBodyArr.js&#45;&gt;actions/playerMsg.js -->
<g id="edge49" class="edge"><title>reducers/updateBodyArr.js&#45;&gt;actions/playerMsg.js</title>
<path fill="none" stroke="#757575" d="M3017.11,-493.5C3030.74,-493.5 3044.7,-493.5 3058.1,-493.5"/>
<polygon fill="#757575" stroke="#757575" points="3058.22,-497 3068.22,-493.5 3058.22,-490 3058.22,-497"/>
</g>
<!-- reducers/updateButtons.js&#45;&gt;actions/coreMsg.js -->
<g id="edge50" class="edge"><title>reducers/updateButtons.js&#45;&gt;actions/coreMsg.js</title>
<path fill="none" stroke="#757575" d="M2979.34,-345.113C2992.06,-348.841 3005.3,-353.582 3017,-359.5 3035.09,-368.648 3034.98,-378.217 3053,-387.5 3061.53,-391.894 3070.92,-395.668 3080.28,-398.869"/>
<polygon fill="#757575" stroke="#757575" points="3079.39,-402.261 3089.99,-401.999 3081.54,-395.599 3079.39,-402.261"/>
</g>
<!-- reducers/updateStats.js&#45;&gt;actions/coreMsg.js -->
<g id="edge51" class="edge"><title>reducers/updateStats.js&#45;&gt;actions/coreMsg.js</title>
<path fill="none" stroke="#757575" d="M3007.51,-413.5C3025.81,-413.5 3045.13,-413.5 3063.19,-413.5"/>
<polygon fill="#757575" stroke="#757575" points="3063.37,-417 3073.37,-413.5 3063.37,-410 3063.37,-417"/>
</g>
<!-- reducers/updateStats.js&#45;&gt;actions/playerMsg.js -->
<g id="edge52" class="edge"><title>reducers/updateStats.js&#45;&gt;actions/playerMsg.js</title>
<path fill="none" stroke="#757575" d="M2979.34,-425.113C2992.06,-428.841 3005.3,-433.582 3017,-439.5 3035.09,-448.648 3034.98,-458.217 3053,-467.5 3061.53,-471.894 3070.92,-475.668 3080.28,-478.869"/>
<polygon fill="#757575" stroke="#757575" points="3079.39,-482.261 3089.99,-481.999 3081.54,-475.599 3079.39,-482.261"/>
</g>
<!-- reducers/updateStats.js&#45;&gt;utils.js -->
<g id="edge53" class="edge"><title>reducers/updateStats.js&#45;&gt;utils.js</title>
<path fill="none" stroke="#757575" d="M2992.96,-425.045C3012.32,-428.082 3033.46,-431.159 3053,-433.5 3124.11,-442.019 3207.55,-448.119 3254.65,-451.205"/>
<polygon fill="#757575" stroke="#757575" points="3254.49,-454.701 3264.7,-451.853 3254.94,-447.716 3254.49,-454.701"/>
</g>
<!-- reducers/updateTime.js&#45;&gt;utils.js -->
<g id="edge54" class="edge"><title>reducers/updateTime.js&#45;&gt;utils.js</title>
<path fill="none" stroke="#757575" d="M3003.71,-265.077C3008.45,-267.425 3012.94,-270.207 3017,-273.5 3047.29,-298.047 3022.76,-328.893 3053,-353.5 3115.15,-404.066 3158.45,-354.535 3229,-392.5 3247.87,-402.656 3265.04,-420.09 3276.67,-433.725"/>
<polygon fill="#757575" stroke="#757575" points="3274.11,-436.121 3283.16,-441.625 3279.52,-431.677 3274.11,-436.121"/>
</g>
<!-- store/initialState.js&#45;&gt;scenes/sceneSymbols.js -->
<g id="edge93" class="edge"><title>store/initialState.js&#45;&gt;scenes/sceneSymbols.js</title>
<path fill="none" stroke="#757575" d="M2989.76,-216.058C3000.06,-219.368 3009.71,-224.549 3017,-232.5 3059.55,-278.902 3037.89,-452.386 3053,-513.5 3072.93,-594.091 3111.99,-685.052 3130.21,-725.35"/>
<polygon fill="#757575" stroke="#757575" points="3127.13,-727.036 3134.47,-734.682 3133.5,-724.131 3127.13,-727.036"/>
</g>
<!-- symbols/face.js -->
<g id="node56" class="node"><title>symbols/face.js</title>
<path fill="none" stroke="#c6c5fe" d="M3191.33,-222C3191.33,-222 3090.67,-222 3090.67,-222 3086.83,-222 3083,-218.167 3083,-214.333 3083,-214.333 3083,-206.667 3083,-206.667 3083,-202.833 3086.83,-199 3090.67,-199 3090.67,-199 3191.33,-199 3191.33,-199 3195.17,-199 3199,-202.833 3199,-206.667 3199,-206.667 3199,-214.333 3199,-214.333 3199,-218.167 3195.17,-222 3191.33,-222"/>
<text text-anchor="middle" x="3141" y="-206.8" font-family="Arial" font-size="14.00" fill="#c6c5fe">symbols/face.js</text>
</g>
<!-- store/initialState.js&#45;&gt;symbols/face.js -->
<g id="edge94" class="edge"><title>store/initialState.js&#45;&gt;symbols/face.js</title>
<path fill="none" stroke="#757575" d="M2989.51,-211.9C3015.71,-211.656 3046,-211.374 3072.51,-211.128"/>
<polygon fill="#757575" stroke="#757575" points="3072.88,-214.625 3082.84,-211.032 3072.81,-207.625 3072.88,-214.625"/>
</g>
<!-- symbols/gear.js -->
<g id="node57" class="node"><title>symbols/gear.js</title>
<path fill="none" stroke="#c6c5fe" d="M3191.33,-181C3191.33,-181 3090.67,-181 3090.67,-181 3086.83,-181 3083,-177.167 3083,-173.333 3083,-173.333 3083,-165.667 3083,-165.667 3083,-161.833 3086.83,-158 3090.67,-158 3090.67,-158 3191.33,-158 3191.33,-158 3195.17,-158 3199,-161.833 3199,-165.667 3199,-165.667 3199,-173.333 3199,-173.333 3199,-177.167 3195.17,-181 3191.33,-181"/>
<text text-anchor="middle" x="3141" y="-165.8" font-family="Arial" font-size="14.00" fill="#c6c5fe">symbols/gear.js</text>
</g>
<!-- store/initialState.js&#45;&gt;symbols/gear.js -->
<g id="edge95" class="edge"><title>store/initialState.js&#45;&gt;symbols/gear.js</title>
<path fill="none" stroke="#757575" d="M2982.62,-200.977C3010.43,-195.413 3043.98,-188.705 3072.94,-182.913"/>
<polygon fill="#757575" stroke="#757575" points="3073.85,-186.299 3082.97,-180.906 3072.48,-179.435 3073.85,-186.299"/>
</g>
<!-- symbols/lowerBody.js -->
<g id="node58" class="node"><title>symbols/lowerBody.js</title>
<path fill="none" stroke="#c6c5fe" d="M3210.83,-140C3210.83,-140 3071.17,-140 3071.17,-140 3067.33,-140 3063.5,-136.167 3063.5,-132.333 3063.5,-132.333 3063.5,-124.667 3063.5,-124.667 3063.5,-120.833 3067.33,-117 3071.17,-117 3071.17,-117 3210.83,-117 3210.83,-117 3214.67,-117 3218.5,-120.833 3218.5,-124.667 3218.5,-124.667 3218.5,-132.333 3218.5,-132.333 3218.5,-136.167 3214.67,-140 3210.83,-140"/>
<text text-anchor="middle" x="3141" y="-124.8" font-family="Arial" font-size="14.00" fill="#c6c5fe">symbols/lowerBody.js</text>
</g>
<!-- store/initialState.js&#45;&gt;symbols/lowerBody.js -->
<g id="edge96" class="edge"><title>store/initialState.js&#45;&gt;symbols/lowerBody.js</title>
<path fill="none" stroke="#757575" d="M2983.9,-200.945C2995.35,-197.314 3006.92,-192.598 3017,-186.5 3036.91,-174.461 3032.8,-160.043 3053,-148.5 3055.89,-146.847 3058.91,-145.33 3062.02,-143.939"/>
<polygon fill="#757575" stroke="#757575" points="3063.57,-147.09 3071.56,-140.129 3060.97,-140.589 3063.57,-147.09"/>
</g>
<!-- symbols/skin.js -->
<g id="node59" class="node"><title>symbols/skin.js</title>
<path fill="none" stroke="#c6c5fe" d="M3189.83,-99C3189.83,-99 3092.17,-99 3092.17,-99 3088.33,-99 3084.5,-95.1667 3084.5,-91.3333 3084.5,-91.3333 3084.5,-83.6667 3084.5,-83.6667 3084.5,-79.8333 3088.33,-76 3092.17,-76 3092.17,-76 3189.83,-76 3189.83,-76 3193.67,-76 3197.5,-79.8333 3197.5,-83.6667 3197.5,-83.6667 3197.5,-91.3333 3197.5,-91.3333 3197.5,-95.1667 3193.67,-99 3189.83,-99"/>
<text text-anchor="middle" x="3141" y="-83.8" font-family="Arial" font-size="14.00" fill="#c6c5fe">symbols/skin.js</text>
</g>
<!-- store/initialState.js&#45;&gt;symbols/skin.js -->
<g id="edge97" class="edge"><title>store/initialState.js&#45;&gt;symbols/skin.js</title>
<path fill="none" stroke="#757575" d="M2989.97,-201.884C2999.77,-198.183 3009.19,-193.202 3017,-186.5 3046.28,-161.369 3023.11,-131.899 3053,-107.5 3059.32,-102.344 3066.71,-98.4627 3074.47,-95.5497"/>
<polygon fill="#757575" stroke="#757575" points="3075.63,-98.8537 3084.08,-92.4562 3073.49,-92.1908 3075.63,-98.8537"/>
</g>
<!-- symbols/tail.js -->
<g id="node60" class="node"><title>symbols/tail.js</title>
<path fill="none" stroke="#c6c5fe" d="M3185.83,-345C3185.83,-345 3096.17,-345 3096.17,-345 3092.33,-345 3088.5,-341.167 3088.5,-337.333 3088.5,-337.333 3088.5,-329.667 3088.5,-329.667 3088.5,-325.833 3092.33,-322 3096.17,-322 3096.17,-322 3185.83,-322 3185.83,-322 3189.67,-322 3193.5,-325.833 3193.5,-329.667 3193.5,-329.667 3193.5,-337.333 3193.5,-337.333 3193.5,-341.167 3189.67,-345 3185.83,-345"/>
<text text-anchor="middle" x="3141" y="-329.8" font-family="Arial" font-size="14.00" fill="#c6c5fe">symbols/tail.js</text>
</g>
<!-- store/initialState.js&#45;&gt;symbols/tail.js -->
<g id="edge98" class="edge"><title>store/initialState.js&#45;&gt;symbols/tail.js</title>
<path fill="none" stroke="#757575" d="M2989.86,-218.557C2999.67,-221.657 3009.13,-226.12 3017,-232.5 3047.29,-257.047 3022.99,-287.61 3053,-312.5 3060.37,-318.61 3069.23,-322.996 3078.43,-326.133"/>
<polygon fill="#757575" stroke="#757575" points="3077.52,-329.514 3088.11,-328.97 3079.5,-322.797 3077.52,-329.514"/>
</g>
<!-- symbols/tongue.js -->
<g id="node61" class="node"><title>symbols/tongue.js</title>
<path fill="none" stroke="#c6c5fe" d="M3198.83,-304C3198.83,-304 3083.17,-304 3083.17,-304 3079.33,-304 3075.5,-300.167 3075.5,-296.333 3075.5,-296.333 3075.5,-288.667 3075.5,-288.667 3075.5,-284.833 3079.33,-281 3083.17,-281 3083.17,-281 3198.83,-281 3198.83,-281 3202.67,-281 3206.5,-284.833 3206.5,-288.667 3206.5,-288.667 3206.5,-296.333 3206.5,-296.333 3206.5,-300.167 3202.67,-304 3198.83,-304"/>
<text text-anchor="middle" x="3141" y="-288.8" font-family="Arial" font-size="14.00" fill="#c6c5fe">symbols/tongue.js</text>
</g>
<!-- store/initialState.js&#45;&gt;symbols/tongue.js -->
<g id="edge99" class="edge"><title>store/initialState.js&#45;&gt;symbols/tongue.js</title>
<path fill="none" stroke="#757575" d="M2989.72,-221.294C2999.23,-224.066 3008.63,-227.711 3017,-232.5 3037.47,-244.215 3032.66,-259.552 3053,-271.5 3056.95,-273.82 3061.14,-275.885 3065.47,-277.722"/>
<polygon fill="#757575" stroke="#757575" points="3064.54,-281.109 3075.13,-281.39 3067.02,-274.566 3064.54,-281.109"/>
</g>
<!-- symbols/wings.js -->
<g id="node62" class="node"><title>symbols/wings.js</title>
<path fill="none" stroke="#c6c5fe" d="M3195.33,-263C3195.33,-263 3086.67,-263 3086.67,-263 3082.83,-263 3079,-259.167 3079,-255.333 3079,-255.333 3079,-247.667 3079,-247.667 3079,-243.833 3082.83,-240 3086.67,-240 3086.67,-240 3195.33,-240 3195.33,-240 3199.17,-240 3203,-243.833 3203,-247.667 3203,-247.667 3203,-255.333 3203,-255.333 3203,-259.167 3199.17,-263 3195.33,-263"/>
<text text-anchor="middle" x="3141" y="-247.8" font-family="Arial" font-size="14.00" fill="#c6c5fe">symbols/wings.js</text>
</g>
<!-- store/initialState.js&#45;&gt;symbols/wings.js -->
<g id="edge100" class="edge"><title>store/initialState.js&#45;&gt;symbols/wings.js</title>
<path fill="none" stroke="#757575" d="M2988.63,-224.043C3013.78,-228.604 3042.78,-233.865 3068.63,-238.555"/>
<polygon fill="#757575" stroke="#757575" points="3068.28,-242.048 3078.75,-240.389 3069.53,-235.16 3068.28,-242.048"/>
</g>
<!-- scenes/charCreation.js&#45;&gt;actions/Core.js -->
<g id="edge55" class="edge"><title>scenes/charCreation.js&#45;&gt;actions/Core.js</title>
<path fill="none" stroke="#757575" d="M1377.06,-754.99C1563.75,-712.414 2204.32,-565.574 2221,-551.5 2252.04,-525.306 2230.93,-498.647 2257,-467.5 2268.5,-453.759 2284.73,-442.377 2299.25,-433.962"/>
<polygon fill="#757575" stroke="#757575" points="2300.95,-437.019 2308,-429.112 2297.56,-430.896 2300.95,-437.019"/>
</g>
<!-- scenes/charCreation.js&#45;&gt;store/store.js -->
<g id="edge61" class="edge"><title>scenes/charCreation.js&#45;&gt;store/store.js</title>
<path fill="none" stroke="#757575" d="M1328.52,-754.779C1335.97,-714.99 1365.57,-583.612 1442,-512.5 1604.04,-361.724 1687.66,-339.5 1909,-339.5 1909,-339.5 1909,-339.5 2129.5,-339.5 2250.95,-339.5 2390.91,-307.118 2463.86,-287.718"/>
<polygon fill="#757575" stroke="#757575" points="2464.95,-291.049 2473.7,-285.072 2463.13,-284.289 2464.95,-291.049"/>
</g>
<!-- scenes/charCreation.js&#45;&gt;actions/Player.js -->
<g id="edge56" class="edge"><title>scenes/charCreation.js&#45;&gt;actions/Player.js</title>
<path fill="none" stroke="#757575" d="M1406.23,-758.636C1563.41,-743.134 1910.83,-708.869 2058.7,-694.285"/>
<polygon fill="#757575" stroke="#757575" points="2059.39,-697.735 2069,-693.27 2058.7,-690.768 2059.39,-697.735"/>
</g>
<!-- scenes/charCreation.js&#45;&gt;symbols/breastCup.js -->
<g id="edge62" class="edge"><title>scenes/charCreation.js&#45;&gt;symbols/breastCup.js</title>
<path fill="none" stroke="#757575" d="M1406.32,-769.593C1592.57,-776.81 2054.63,-794.714 2246.91,-802.164"/>
<polygon fill="#757575" stroke="#757575" points="2246.84,-805.664 2256.97,-802.554 2247.11,-798.669 2246.84,-805.664"/>
</g>
<!-- scenes/charCreation.js&#45;&gt;appearance/appearance.js -->
<g id="edge57" class="edge"><title>scenes/charCreation.js&#45;&gt;appearance/appearance.js</title>
<path fill="none" stroke="#757575" d="M1385.87,-778.046C1392.84,-780.382 1399.71,-783.173 1406,-786.5 1424.92,-796.51 1422.13,-810.529 1442,-818.5 1544.98,-859.817 1861.27,-854.23 2025.75,-848.131"/>
<polygon fill="#757575" stroke="#757575" points="2026.02,-851.623 2035.88,-847.747 2025.75,-844.628 2026.02,-851.623"/>
</g>
<!-- scenes/charCreation.js&#45;&gt;symbols/gender.js -->
<g id="edge64" class="edge"><title>scenes/charCreation.js&#45;&gt;symbols/gender.js</title>
<path fill="none" stroke="#757575" d="M1394.19,-778.08C1398.47,-780.415 1402.47,-783.195 1406,-786.5 1443.88,-821.921 1401.56,-865.033 1442,-897.5 1529.04,-967.378 1580.38,-921.5 1692,-921.5 1692,-921.5 1692,-921.5 1911,-921.5 2032.09,-921.5 2172.73,-922.334 2257.2,-922.925"/>
<polygon fill="#757575" stroke="#757575" points="2257.19,-926.424 2267.21,-922.995 2257.24,-919.425 2257.19,-926.424"/>
</g>
<!-- scenes/charCreation.js&#45;&gt;scenes/menus.js -->
<g id="edge58" class="edge"><title>scenes/charCreation.js&#45;&gt;scenes/menus.js</title>
<path fill="none" stroke="#757575" d="M1329.97,-754.942C1340.84,-720.535 1377.43,-617.561 1442,-559.5 1446.17,-555.747 1450.97,-552.481 1456,-549.652"/>
<polygon fill="#757575" stroke="#757575" points="1457.86,-552.637 1465.22,-545.022 1454.71,-546.381 1457.86,-552.637"/>
</g>
<!-- scenes/charCreation.js&#45;&gt;scenes/sceneSymbols.js -->
<g id="edge59" class="edge"><title>scenes/charCreation.js&#45;&gt;scenes/sceneSymbols.js</title>
<path fill="none" stroke="#757575" d="M1390.97,-778.016C1396.3,-780.345 1401.4,-783.142 1406,-786.5 1430.5,-804.396 1416.71,-827.746 1442,-844.5 1535.75,-906.6 1579.55,-883.5 1692,-883.5 1692,-883.5 1692,-883.5 2129.5,-883.5 2493.94,-883.5 2925.67,-794.914 3080.82,-760.21"/>
<polygon fill="#757575" stroke="#757575" points="3081.65,-763.612 3090.64,-758.004 3080.12,-756.782 3081.65,-763.612"/>
</g>
<!-- scenes/sceneTextStore.js -->
<g id="node45" class="node"><title>scenes/sceneTextStore.js</title>
<path fill="none" stroke="#c6c5fe" d="M1776.33,-583C1776.33,-583 1609.67,-583 1609.67,-583 1605.83,-583 1602,-579.167 1602,-575.333 1602,-575.333 1602,-567.667 1602,-567.667 1602,-563.833 1605.83,-560 1609.67,-560 1609.67,-560 1776.33,-560 1776.33,-560 1780.17,-560 1784,-563.833 1784,-567.667 1784,-567.667 1784,-575.333 1784,-575.333 1784,-579.167 1780.17,-583 1776.33,-583"/>
<text text-anchor="middle" x="1693" y="-567.8" font-family="Arial" font-size="14.00" fill="#c6c5fe">scenes/sceneTextStore.js</text>
</g>
<!-- scenes/charCreation.js&#45;&gt;scenes/sceneTextStore.js -->
<g id="edge60" class="edge"><title>scenes/charCreation.js&#45;&gt;scenes/sceneTextStore.js</title>
<path fill="none" stroke="#757575" d="M1330.46,-754.895C1341.94,-723.257 1378.5,-635.343 1442,-597.5 1486.44,-571.012 1543.35,-563.483 1591.63,-563.033"/>
<polygon fill="#757575" stroke="#757575" points="1591.8,-566.533 1601.8,-563.04 1591.8,-559.533 1591.8,-566.533"/>
</g>
<!-- symbols/butt.js -->
<g id="node46" class="node"><title>symbols/butt.js</title>
<path fill="none" stroke="#c6c5fe" d="M1740.83,-1013C1740.83,-1013 1645.17,-1013 1645.17,-1013 1641.33,-1013 1637.5,-1009.17 1637.5,-1005.33 1637.5,-1005.33 1637.5,-997.667 1637.5,-997.667 1637.5,-993.833 1641.33,-990 1645.17,-990 1645.17,-990 1740.83,-990 1740.83,-990 1744.67,-990 1748.5,-993.833 1748.5,-997.667 1748.5,-997.667 1748.5,-1005.33 1748.5,-1005.33 1748.5,-1009.17 1744.67,-1013 1740.83,-1013"/>
<text text-anchor="middle" x="1693" y="-997.8" font-family="Arial" font-size="14.00" fill="#c6c5fe">symbols/butt.js</text>
</g>
<!-- scenes/charCreation.js&#45;&gt;symbols/butt.js -->
<g id="edge63" class="edge"><title>scenes/charCreation.js&#45;&gt;symbols/butt.js</title>
<path fill="none" stroke="#757575" d="M1395.43,-778.011C1399.31,-780.375 1402.88,-783.178 1406,-786.5 1466.3,-850.777 1376.56,-922.464 1442,-981.5 1493.74,-1028.18 1578.49,-1024.31 1634.76,-1014.85"/>
<polygon fill="#757575" stroke="#757575" points="1635.7,-1018.24 1644.92,-1013.03 1634.46,-1011.35 1635.7,-1018.24"/>
</g>
<!-- symbols/hips.js -->
<g id="node47" class="node"><title>symbols/hips.js</title>
<path fill="none" stroke="#c6c5fe" d="M1553.33,-973C1553.33,-973 1454.67,-973 1454.67,-973 1450.83,-973 1447,-969.167 1447,-965.333 1447,-965.333 1447,-957.667 1447,-957.667 1447,-953.833 1450.83,-950 1454.67,-950 1454.67,-950 1553.33,-950 1553.33,-950 1557.17,-950 1561,-953.833 1561,-957.667 1561,-957.667 1561,-965.333 1561,-965.333 1561,-969.167 1557.17,-973 1553.33,-973"/>
<text text-anchor="middle" x="1504" y="-957.8" font-family="Arial" font-size="14.00" fill="#c6c5fe">symbols/hips.js</text>
</g>
<!-- scenes/charCreation.js&#45;&gt;symbols/hips.js -->
<g id="edge65" class="edge"><title>scenes/charCreation.js&#45;&gt;symbols/hips.js</title>
<path fill="none" stroke="#757575" d="M1395.22,-778.209C1399.15,-780.525 1402.79,-783.265 1406,-786.5 1453.95,-834.899 1397.98,-883.502 1442,-935.5 1444.97,-939.005 1448.49,-942.049 1452.33,-944.691"/>
<polygon fill="#757575" stroke="#757575" points="1450.73,-947.81 1461.12,-949.853 1454.27,-941.773 1450.73,-947.81"/>
</g>
<!-- scenes/menus.js&#45;&gt;actions/Core.js -->
<g id="edge79" class="edge"><title>scenes/menus.js&#45;&gt;actions/Core.js</title>
<path fill="none" stroke="#757575" d="M1554.93,-521.995C1616.84,-508.084 1725.71,-484.768 1820,-470.5 1980.53,-446.21 2171.03,-429.739 2268.5,-422.197"/>
<polygon fill="#757575" stroke="#757575" points="2268.79,-425.685 2278.5,-421.43 2268.26,-418.706 2268.79,-425.685"/>
</g>
<!-- scenes/menus.js&#45;&gt;scenes/sceneSymbols.js -->
<g id="edge80" class="edge"><title>scenes/menus.js&#45;&gt;scenes/sceneSymbols.js</title>
<path fill="none" stroke="#757575" d="M1521.08,-545.029C1539.74,-557.945 1571.82,-578.739 1602,-591.5 1906.37,-720.201 2002.54,-727.5 2333,-727.5 2333,-727.5 2333,-727.5 2708,-727.5 2823,-727.5 2955.05,-734.303 3042.57,-739.768"/>
<polygon fill="#757575" stroke="#757575" points="3042.56,-743.273 3052.76,-740.41 3043,-736.287 3042.56,-743.273"/>
</g>
<!-- scenes/menus.js&#45;&gt;scenes/sceneTextStore.js -->
<g id="edge81" class="edge"><title>scenes/menus.js&#45;&gt;scenes/sceneTextStore.js</title>
<path fill="none" stroke="#757575" d="M1561.61,-545.004C1581.66,-549.078 1604.4,-553.699 1625.21,-557.929"/>
<polygon fill="#757575" stroke="#757575" points="1624.76,-561.408 1635.26,-559.969 1626.15,-554.548 1624.76,-561.408"/>
</g>
<!-- scenes/sceneTextStore.js&#45;&gt;components/nameInput.js -->
<g id="edge91" class="edge"><title>scenes/sceneTextStore.js&#45;&gt;components/nameInput.js</title>
<path fill="none" stroke="#757575" d="M1784.24,-571.5C1792.58,-571.5 1801.05,-571.5 1809.46,-571.5"/>
<polygon fill="#757575" stroke="#757575" points="1809.68,-575 1819.68,-571.5 1809.68,-568 1809.68,-575"/>
</g>
<!-- scenes/sceneTextStore.js&#45;&gt;scenes/sceneSymbols.js -->
<g id="edge92" class="edge"><title>scenes/sceneTextStore.js&#45;&gt;scenes/sceneSymbols.js</title>
<path fill="none" stroke="#757575" d="M1715.35,-583.055C1794.59,-624.819 2080.26,-765.5 2333,-765.5 2333,-765.5 2333,-765.5 2708,-765.5 2823,-765.5 2955.05,-758.697 3042.57,-753.232"/>
<polygon fill="#757575" stroke="#757575" points="3043,-756.713 3052.76,-752.59 3042.56,-749.727 3043,-756.713"/>
</g>
<!-- symbols/butt.js&#45;&gt;utils.js -->
<g id="edge103" class="edge"><title>symbols/butt.js&#45;&gt;utils.js</title>
<path fill="none" stroke="#757575" d="M1748.75,-1001.71C1830.98,-1002 1991.28,-1002.5 2127.5,-1002.5 2127.5,-1002.5 2127.5,-1002.5 2335,-1002.5 2434.33,-1002.5 3154.9,-1073.65 3229,-1007.5 3269.46,-971.379 3287.36,-573.872 3291.2,-475.446"/>
<polygon fill="#757575" stroke="#757575" points="3294.7,-475.328 3291.58,-465.203 3287.71,-475.062 3294.7,-475.328"/>
</g>
<!-- symbols/hips.js&#45;&gt;utils.js -->
<g id="edge109" class="edge"><title>symbols/hips.js&#45;&gt;utils.js</title>
<path fill="none" stroke="#757575" d="M1561.46,-963.46C1846.02,-972.744 3113.95,-1006.83 3229,-881.5 3284.31,-821.25 3291.11,-553.746 3291.9,-475.233"/>
<polygon fill="#757575" stroke="#757575" points="3295.41,-475.094 3291.98,-465.067 3288.41,-475.04 3295.41,-475.094"/>
</g>
<!-- scenes/combat/combat.js&#45;&gt;actions/Core.js -->
<g id="edge66" class="edge"><title>scenes/combat/combat.js&#45;&gt;actions/Core.js</title>
<path fill="none" stroke="#757575" d="M1999.59,-496.376C2062.94,-497.076 2149.31,-492.265 2221,-467.5 2239.18,-461.221 2239.76,-452.016 2257,-443.5 2265.26,-439.418 2274.33,-435.711 2283.22,-432.457"/>
<polygon fill="#757575" stroke="#757575" points="2284.49,-435.721 2292.77,-429.107 2282.17,-429.116 2284.49,-435.721"/>
</g>
<!-- scenes/combat/combat.js&#45;&gt;store/store.js -->
<g id="edge70" class="edge"><title>scenes/combat/combat.js&#45;&gt;store/store.js</title>
<path fill="none" stroke="#757575" d="M1952.95,-479.98C2072.8,-447.057 2408.36,-354.826 2411,-353.5 2443.38,-337.264 2475.51,-310.083 2495.06,-291.975"/>
<polygon fill="#757575" stroke="#757575" points="2497.52,-294.466 2502.39,-285.059 2492.71,-289.374 2497.52,-294.466"/>
</g>
<!-- scenes/combat/combat.js&#45;&gt;actions/Enemy.js -->
<g id="edge67" class="edge"><title>scenes/combat/combat.js&#45;&gt;actions/Enemy.js</title>
<path fill="none" stroke="#757575" d="M1915.08,-479.776C1927.78,-444.844 1969.71,-340.068 2036,-278.5 2108.93,-210.765 2219.16,-167.846 2282.81,-147.175"/>
<polygon fill="#757575" stroke="#757575" points="2284.15,-150.421 2292.61,-144.048 2282.02,-143.752 2284.15,-150.421"/>
</g>
<!-- scenes/combat/combat.js&#45;&gt;actions/Player.js -->
<g id="edge68" class="edge"><title>scenes/combat/combat.js&#45;&gt;actions/Player.js</title>
<path fill="none" stroke="#757575" d="M1937.52,-503.084C1957.35,-513.008 1983.74,-529.093 2000,-550.5 2031.37,-591.803 1998.66,-625.508 2036,-661.5 2042.64,-667.897 2050.73,-672.74 2059.32,-676.403"/>
<polygon fill="#757575" stroke="#757575" points="2058.21,-679.724 2068.81,-679.932 2060.66,-673.164 2058.21,-679.724"/>
</g>
<!-- scenes/combat/combat.js&#45;&gt;scenes/sceneSymbols.js -->
<g id="edge69" class="edge"><title>scenes/combat/combat.js&#45;&gt;scenes/sceneSymbols.js</title>
<path fill="none" stroke="#757575" d="M1930.63,-503.096C1954.66,-516.769 1996.97,-539.188 2036,-551.5 2141.36,-584.737 2909.02,-690.158 3017,-713.5 3041.66,-718.831 3068.78,-725.966 3091.26,-732.238"/>
<polygon fill="#757575" stroke="#757575" points="3090.34,-735.615 3100.91,-734.957 3092.23,-728.877 3090.34,-735.615"/>
</g>
<!-- symbols/enemies/goblin.js -->
<g id="node49" class="node"><title>symbols/enemies/goblin.js</title>
<path fill="none" stroke="#c6c5fe" d="M2213.33,-543C2213.33,-543 2043.67,-543 2043.67,-543 2039.83,-543 2036,-539.167 2036,-535.333 2036,-535.333 2036,-527.667 2036,-527.667 2036,-523.833 2039.83,-520 2043.67,-520 2043.67,-520 2213.33,-520 2213.33,-520 2217.17,-520 2221,-523.833 2221,-527.667 2221,-527.667 2221,-535.333 2221,-535.333 2221,-539.167 2217.17,-543 2213.33,-543"/>
<text text-anchor="middle" x="2128.5" y="-527.8" font-family="Arial" font-size="14.00" fill="#c6c5fe">symbols/enemies/goblin.js</text>
</g>
<!-- scenes/combat/combat.js&#45;&gt;symbols/enemies/goblin.js -->
<g id="edge71" class="edge"><title>scenes/combat/combat.js&#45;&gt;symbols/enemies/goblin.js</title>
<path fill="none" stroke="#757575" d="M1973.33,-503.016C1998.92,-507.743 2028.71,-513.247 2055.24,-518.15"/>
<polygon fill="#757575" stroke="#757575" points="2054.77,-521.621 2065.23,-519.996 2056.04,-514.737 2054.77,-521.621"/>
</g>
<!-- symbols/enemies/goblin.js&#45;&gt;actions/Core.js -->
<g id="edge104" class="edge"><title>symbols/enemies/goblin.js&#45;&gt;actions/Core.js</title>
<path fill="none" stroke="#757575" d="M2194.05,-519.987C2203.69,-516.395 2213.05,-511.683 2221,-505.5 2246.16,-485.944 2232.37,-463.713 2257,-443.5 2261.88,-439.494 2267.41,-436.092 2273.21,-433.206"/>
<polygon fill="#757575" stroke="#757575" points="2274.78,-436.341 2282.49,-429.081 2271.93,-429.944 2274.78,-436.341"/>
</g>
<!-- symbols/enemies/goblin.js&#45;&gt;utils.js -->
<g id="edge105" class="edge"><title>symbols/enemies/goblin.js&#45;&gt;utils.js</title>
<path fill="none" stroke="#757575" d="M2221.12,-535.979C2355.03,-542.28 2612.13,-553.445 2831,-557.5 2913.65,-559.031 2934.33,-557.89 3017,-557.5 3111.23,-557.056 3146.92,-601.784 3229,-555.5 3259.64,-538.223 3277.28,-499.308 3285.73,-474.851"/>
<polygon fill="#757575" stroke="#757575" points="3289.15,-475.652 3288.89,-465.06 3282.49,-473.501 3289.15,-475.652"/>
</g>
<!-- scenes/ingnam/ingnam.js&#45;&gt;actions/Core.js -->
<g id="edge72" class="edge"><title>scenes/ingnam/ingnam.js&#45;&gt;actions/Core.js</title>
<path fill="none" stroke="#757575" d="M2135.61,-1068.61C2151.91,-1036.43 2196.81,-944.602 2221,-863.5 2246.44,-778.208 2235.97,-752.986 2257,-666.5 2277.82,-580.869 2311.01,-481.237 2325.65,-438.603"/>
<polygon fill="#757575" stroke="#757575" points="2329,-439.63 2328.96,-429.036 2322.38,-437.346 2329,-439.63"/>
</g>
<!-- scenes/ingnam/ingnam.js&#45;&gt;utils.js -->
<g id="edge74" class="edge"><title>scenes/ingnam/ingnam.js&#45;&gt;utils.js</title>
<path fill="none" stroke="#757575" d="M2216.54,-1079.79C2294.47,-1079.21 2411.87,-1078.5 2514,-1078.5 2514,-1078.5 2514,-1078.5 2925,-1078.5 3060.57,-1078.5 3132.06,-1148.27 3229,-1053.5 3271.23,-1012.21 3287.95,-577.943 3291.33,-475.201"/>
<polygon fill="#757575" stroke="#757575" points="3294.83,-475.19 3291.65,-465.083 3287.84,-474.965 3294.83,-475.19"/>
</g>
<!-- store/gameFlags.js -->
<g id="node51" class="node"><title>store/gameFlags.js</title>
<path fill="none" stroke="#cfffac" d="M2395.33,-1130C2395.33,-1130 2272.67,-1130 2272.67,-1130 2268.83,-1130 2265,-1126.17 2265,-1122.33 2265,-1122.33 2265,-1114.67 2265,-1114.67 2265,-1110.83 2268.83,-1107 2272.67,-1107 2272.67,-1107 2395.33,-1107 2395.33,-1107 2399.17,-1107 2403,-1110.83 2403,-1114.67 2403,-1114.67 2403,-1122.33 2403,-1122.33 2403,-1126.17 2399.17,-1130 2395.33,-1130"/>
<text text-anchor="middle" x="2334" y="-1114.8" font-family="Arial" font-size="14.00" fill="#cfffac">store/gameFlags.js</text>
</g>
<!-- scenes/ingnam/ingnam.js&#45;&gt;store/gameFlags.js -->
<g id="edge73" class="edge"><title>scenes/ingnam/ingnam.js&#45;&gt;store/gameFlags.js</title>
<path fill="none" stroke="#757575" d="M2191.11,-1092C2213.22,-1096.13 2238.35,-1100.83 2261.25,-1105.1"/>
<polygon fill="#757575" stroke="#757575" points="2260.78,-1108.57 2271.25,-1106.97 2262.06,-1101.69 2260.78,-1108.57"/>
</g>
<!-- scenes/inv/inv.js&#45;&gt;actions/Core.js -->
<g id="edge75" class="edge"><title>scenes/inv/inv.js&#45;&gt;actions/Core.js</title>
<path fill="none" stroke="#757575" d="M1969.52,-249.66C2034.74,-241.623 2141.48,-237.415 2221,-278.5 2271.43,-304.557 2307.04,-364.491 2323.21,-396.481"/>
<polygon fill="#757575" stroke="#757575" points="2320.23,-398.362 2327.77,-405.807 2326.52,-395.286 2320.23,-398.362"/>
</g>
<!-- scenes/inv/inv.js&#45;&gt;store/store.js -->
<g id="edge77" class="edge"><title>scenes/inv/inv.js&#45;&gt;store/store.js</title>
<path fill="none" stroke="#757575" d="M1969.61,-248.725C1990.49,-245.382 2014.22,-242.146 2036,-240.5 2187.15,-229.078 2365.32,-250.638 2455.45,-264.012"/>
<polygon fill="#757575" stroke="#757575" points="2455.06,-267.493 2465.47,-265.52 2456.1,-260.571 2455.06,-267.493"/>
</g>
<!-- scenes/inv/inv.js&#45;&gt;actions/Inv.js -->
<g id="edge76" class="edge"><title>scenes/inv/inv.js&#45;&gt;actions/Inv.js</title>
<path fill="none" stroke="#757575" d="M1923.84,-247.749C1945.41,-228.607 1991.01,-190.705 2036,-169.5 2114.57,-132.47 2213.43,-110.98 2274.93,-100.249"/>
<polygon fill="#757575" stroke="#757575" points="2275.58,-103.69 2284.85,-98.5561 2274.4,-96.7895 2275.58,-103.69"/>
</g>
<!-- symbols/items/apple.js -->
<g id="node53" class="node"><title>symbols/items/apple.js</title>
<path fill="none" stroke="#c6c5fe" d="M2201.33,-311C2201.33,-311 2055.67,-311 2055.67,-311 2051.83,-311 2048,-307.167 2048,-303.333 2048,-303.333 2048,-295.667 2048,-295.667 2048,-291.833 2051.83,-288 2055.67,-288 2055.67,-288 2201.33,-288 2201.33,-288 2205.17,-288 2209,-291.833 2209,-295.667 2209,-295.667 2209,-303.333 2209,-303.333 2209,-307.167 2205.17,-311 2201.33,-311"/>
<text text-anchor="middle" x="2128.5" y="-295.8" font-family="Arial" font-size="14.00" fill="#c6c5fe">symbols/items/apple.js</text>
</g>
<!-- scenes/inv/inv.js&#45;&gt;symbols/items/apple.js -->
<g id="edge78" class="edge"><title>scenes/inv/inv.js&#45;&gt;symbols/items/apple.js</title>
<path fill="none" stroke="#757575" d="M1969.59,-270.325C1995.91,-275.188 2027.23,-280.975 2055.01,-286.108"/>
<polygon fill="#757575" stroke="#757575" points="2054.6,-289.591 2065.07,-287.966 2055.88,-282.708 2054.6,-289.591"/>
</g>
<!-- symbols/items/apple.js&#45;&gt;actions/Core.js -->
<g id="edge110" class="edge"><title>symbols/items/apple.js&#45;&gt;actions/Core.js</title>
<path fill="none" stroke="#757575" d="M2149.38,-311.029C2185.55,-332.002 2262.24,-376.467 2304.15,-400.774"/>
<polygon fill="#757575" stroke="#757575" points="2302.63,-403.936 2313.04,-405.924 2306.14,-397.88 2302.63,-403.936"/>
</g>
<!-- setupTests.js -->
<g id="node55" class="node"><title>setupTests.js</title>
<path fill="none" stroke="#cfffac" d="M94.3333,-190C94.3333,-190 7.66667,-190 7.66667,-190 3.83333,-190 0,-186.167 0,-182.333 0,-182.333 0,-174.667 0,-174.667 0,-170.833 3.83333,-167 7.66667,-167 7.66667,-167 94.3333,-167 94.3333,-167 98.1667,-167 102,-170.833 102,-174.667 102,-174.667 102,-182.333 102,-182.333 102,-186.167 98.1667,-190 94.3333,-190"/>
<text text-anchor="middle" x="51" y="-174.8" font-family="Arial" font-size="14.00" fill="#cfffac">setupTests.js</text>
</g>
<!-- symbols/face.js&#45;&gt;utils.js -->
<g id="edge106" class="edge"><title>symbols/face.js&#45;&gt;utils.js</title>
<path fill="none" stroke="#757575" d="M3199.25,-214.591C3210.21,-217.722 3220.81,-222.7 3229,-230.5 3286.23,-284.975 3292.73,-387.121 3292.65,-431.727"/>
<polygon fill="#757575" stroke="#757575" points="3289.15,-431.952 3292.51,-441.999 3296.15,-432.047 3289.15,-431.952"/>
</g>
<!-- symbols/gear.js&#45;&gt;utils.js -->
<g id="edge107" class="edge"><title>symbols/gear.js&#45;&gt;utils.js</title>
<path fill="none" stroke="#757575" d="M3199.05,-173.207C3210.15,-176.346 3220.86,-181.424 3229,-189.5 3263.58,-223.795 3283.39,-374.845 3289.74,-431.729"/>
<polygon fill="#757575" stroke="#757575" points="3286.27,-432.224 3290.83,-441.788 3293.23,-431.469 3286.27,-432.224"/>
</g>
<!-- symbols/lowerBody.js&#45;&gt;utils.js -->
<g id="edge111" class="edge"><title>symbols/lowerBody.js&#45;&gt;utils.js</title>
<path fill="none" stroke="#757575" d="M3218.49,-140.209C3222.31,-142.545 3225.86,-145.287 3229,-148.5 3268.76,-189.16 3285.72,-368.955 3290.5,-431.759"/>
<polygon fill="#757575" stroke="#757575" points="3287.01,-432.033 3291.23,-441.751 3293.99,-431.522 3287.01,-432.033"/>
</g>
<!-- symbols/skin.js&#45;&gt;utils.js -->
<g id="edge113" class="edge"><title>symbols/skin.js&#45;&gt;utils.js</title>
<path fill="none" stroke="#757575" d="M3197.58,-90.3827C3209.31,-93.487 3220.65,-98.7584 3229,-107.5 3273.94,-154.552 3287.72,-363.088 3291.07,-431.604"/>
<polygon fill="#757575" stroke="#757575" points="3287.58,-431.865 3291.54,-441.693 3294.57,-431.542 3287.58,-431.865"/>
</g>
<!-- symbols/tail.js&#45;&gt;utils.js -->
<g id="edge114" class="edge"><title>symbols/tail.js&#45;&gt;utils.js</title>
<path fill="none" stroke="#757575" d="M3193.52,-342.574C3205.93,-346.404 3218.6,-351.828 3229,-359.5 3254.66,-378.423 3273.11,-411.133 3283.17,-432.544"/>
<polygon fill="#757575" stroke="#757575" points="3280.03,-434.081 3287.32,-441.766 3286.41,-431.21 3280.03,-434.081"/>
</g>
<!-- symbols/tongue.js&#45;&gt;utils.js -->
<g id="edge115" class="edge"><title>symbols/tongue.js&#45;&gt;utils.js</title>
<path fill="none" stroke="#757575" d="M3206.5,-300.114C3214.65,-303.074 3222.42,-307.085 3229,-312.5 3266.42,-343.274 3282.4,-400.853 3288.57,-432.064"/>
<polygon fill="#757575" stroke="#757575" points="3285.13,-432.705 3290.36,-441.918 3292.01,-431.453 3285.13,-432.705"/>
</g>
<!-- symbols/wings.js&#45;&gt;utils.js -->
<g id="edge117" class="edge"><title>symbols/wings.js&#45;&gt;utils.js</title>
<path fill="none" stroke="#757575" d="M3203.4,-257.338C3212.78,-260.452 3221.74,-264.976 3229,-271.5 3276.1,-313.796 3287.99,-393.065 3290.99,-431.494"/>
<polygon fill="#757575" stroke="#757575" points="3287.51,-431.852 3291.64,-441.605 3294.49,-431.4 3287.51,-431.852"/>
</g>
</g>
</svg>
