<?xml version="1.0" encoding="UTF-8" standalone="no"?>
<!DOCTYPE svg PUBLIC "-//W3C//DTD SVG 1.1//EN"
 "http://www.w3.org/Graphics/SVG/1.1/DTD/svg11.dtd">
<!-- Generated by graphviz version 2.40.1 (20161225.0304)
 -->
<!-- Title: G Pages: 1 -->
<svg width="771pt" height="219pt"
 viewBox="0.00 0.00 771.20 219.20" xmlns="http://www.w3.org/2000/svg" xmlns:xlink="http://www.w3.org/1999/xlink">
<g id="graph0" class="graph" transform="scale(1 1) rotate(0) translate(21.6 197.6)">
<title>G</title>
<polygon fill="#111111" stroke="transparent" points="-21.6,21.6 -21.6,-197.6 749.6,-197.6 749.6,21.6 -21.6,21.6"/>
<!-- actions/UI.js -->
<g id="node1" class="node">
<title>actions/UI.js</title>
<path fill="none" stroke="#cfffac" d="M675.3333,-84C675.3333,-84 595.6667,-84 595.6667,-84 591.8333,-84 588,-80.1667 588,-76.3333 588,-76.3333 588,-68.6667 588,-68.6667 588,-64.8333 591.8333,-61 595.6667,-61 595.6667,-61 675.3333,-61 675.3333,-61 679.1667,-61 683,-64.8333 683,-68.6667 683,-68.6667 683,-76.3333 683,-76.3333 683,-80.1667 679.1667,-84 675.3333,-84"/>
<text text-anchor="middle" x="635.5" y="-68.8" font-family="Arial" font-size="14.00" fill="#cfffac">actions/UI.js</text>
</g>
<!-- components/appRoot.js -->
<g id="node2" class="node">
<title>components/appRoot.js</title>
<path fill="none" stroke="#c6c5fe" d="M264.3333,-114C264.3333,-114 109.6667,-114 109.6667,-114 105.8333,-114 102,-110.1667 102,-106.3333 102,-106.3333 102,-98.6667 102,-98.6667 102,-94.8333 105.8333,-91 109.6667,-91 109.6667,-91 264.3333,-91 264.3333,-91 268.1667,-91 272,-94.8333 272,-98.6667 272,-98.6667 272,-106.3333 272,-106.3333 272,-110.1667 268.1667,-114 264.3333,-114"/>
<text text-anchor="middle" x="187" y="-98.8" font-family="Arial" font-size="14.00" fill="#c6c5fe">components/appRoot.js</text>
</g>
<!-- components/lowerButtons.js -->
<g id="node3" class="node">
<title>components/lowerButtons.js</title>
<path fill="none" stroke="#c6c5fe" d="M499.3333,-94C499.3333,-94 315.6667,-94 315.6667,-94 311.8333,-94 308,-90.1667 308,-86.3333 308,-86.3333 308,-78.6667 308,-78.6667 308,-74.8333 311.8333,-71 315.6667,-71 315.6667,-71 499.3333,-71 499.3333,-71 503.1667,-71 507,-74.8333 507,-78.6667 507,-78.6667 507,-86.3333 507,-86.3333 507,-90.1667 503.1667,-94 499.3333,-94"/>
<text text-anchor="middle" x="407.5" y="-78.8" font-family="Arial" font-size="14.00" fill="#c6c5fe">components/lowerButtons.js</text>
</g>
<!-- components/appRoot.js&#45;&gt;components/lowerButtons.js -->
<g id="edge1" class="edge">
<title>components/appRoot.js&#45;&gt;components/lowerButtons.js</title>
<path fill="none" stroke="#757575" d="M272.2511,-94.7675C280.6131,-94.009 289.1776,-93.2322 297.7383,-92.4557"/>
<polygon fill="#757575" stroke="#757575" points="298.1306,-95.9346 307.7735,-91.5455 297.4982,-88.9632 298.1306,-95.9346"/>
</g>
<!-- components/output.js -->
<g id="node4" class="node">
<title>components/output.js</title>
<path fill="none" stroke="#cfffac" d="M477.3333,-176C477.3333,-176 337.6667,-176 337.6667,-176 333.8333,-176 330,-172.1667 330,-168.3333 330,-168.3333 330,-160.6667 330,-160.6667 330,-156.8333 333.8333,-153 337.6667,-153 337.6667,-153 477.3333,-153 477.3333,-153 481.1667,-153 485,-156.8333 485,-160.6667 485,-160.6667 485,-168.3333 485,-168.3333 485,-172.1667 481.1667,-176 477.3333,-176"/>
<text text-anchor="middle" x="407.5" y="-160.8" font-family="Arial" font-size="14.00" fill="#cfffac">components/output.js</text>
</g>
<!-- components/appRoot.js&#45;&gt;components/output.js -->
<g id="edge2" class="edge">
<title>components/appRoot.js&#45;&gt;components/output.js</title>
<path fill="none" stroke="#757575" d="M216.9768,-114.1813C241.2481,-123.3281 276.464,-135.9001 308,-144.5 316.2751,-146.7566 325.0009,-148.8782 333.7068,-150.8345"/>
<polygon fill="#757575" stroke="#757575" points="332.9862,-154.2596 343.5025,-152.9714 334.4782,-147.4204 332.9862,-154.2596"/>
</g>
<!-- components/statBar.js -->
<g id="node5" class="node">
<title>components/statBar.js</title>
<path fill="none" stroke="#c6c5fe" d="M479.8333,-135C479.8333,-135 335.1667,-135 335.1667,-135 331.3333,-135 327.5,-131.1667 327.5,-127.3333 327.5,-127.3333 327.5,-119.6667 327.5,-119.6667 327.5,-115.8333 331.3333,-112 335.1667,-112 335.1667,-112 479.8333,-112 479.8333,-112 483.6667,-112 487.5,-115.8333 487.5,-119.6667 487.5,-119.6667 487.5,-127.3333 487.5,-127.3333 487.5,-131.1667 483.6667,-135 479.8333,-135"/>
<text text-anchor="middle" x="407.5" y="-119.8" font-family="Arial" font-size="14.00" fill="#c6c5fe">components/statBar.js</text>
</g>
<!-- components/appRoot.js&#45;&gt;components/statBar.js -->
<g id="edge3" class="edge">
<title>components/appRoot.js&#45;&gt;components/statBar.js</title>
<path fill="none" stroke="#757575" d="M272.2511,-110.6191C286.9225,-112.0164 302.2174,-113.4731 317.0206,-114.8829"/>
<polygon fill="#757575" stroke="#757575" points="316.89,-118.3862 327.1768,-115.8502 317.5537,-111.4178 316.89,-118.3862"/>
</g>
<!-- components/lowerButtons.js&#45;&gt;actions/UI.js -->
<g id="edge4" class="edge">
<title>components/lowerButtons.js&#45;&gt;actions/UI.js</title>
<path fill="none" stroke="#757575" d="M507.1724,-78.1284C531.2688,-77.0715 556.233,-75.9766 577.6661,-75.0366"/>
<polygon fill="#757575" stroke="#757575" points="578.0478,-78.5233 587.8848,-74.5884 577.741,-71.53 578.0478,-78.5233"/>
</g>
<!-- components/statDisplay.js -->
<g id="node6" class="node">
<title>components/statDisplay.js</title>
<path fill="none" stroke="#cfffac" d="M720.3333,-135C720.3333,-135 550.6667,-135 550.6667,-135 546.8333,-135 543,-131.1667 543,-127.3333 543,-127.3333 543,-119.6667 543,-119.6667 543,-115.8333 546.8333,-112 550.6667,-112 550.6667,-112 720.3333,-112 720.3333,-112 724.1667,-112 728,-115.8333 728,-119.6667 728,-119.6667 728,-127.3333 728,-127.3333 728,-131.1667 724.1667,-135 720.3333,-135"/>
<text text-anchor="middle" x="635.5" y="-119.8" font-family="Arial" font-size="14.00" fill="#cfffac">components/statDisplay.js</text>
</g>
<!-- components/statBar.js&#45;&gt;components/statDisplay.js -->
<g id="edge5" class="edge">
<title>components/statBar.js&#45;&gt;components/statDisplay.js</title>
<path fill="none" stroke="#757575" d="M487.5637,-123.5C502.055,-123.5 517.3512,-123.5 532.3923,-123.5"/>
<polygon fill="#757575" stroke="#757575" points="532.7515,-127.0001 542.7515,-123.5 532.7514,-120.0001 532.7515,-127.0001"/>
</g>
<!-- index.js -->
<g id="node7" class="node">
<title>index.js</title>
<path fill="none" stroke="#c6c5fe" d="M58.3333,-73C58.3333,-73 7.6667,-73 7.6667,-73 3.8333,-73 0,-69.1667 0,-65.3333 0,-65.3333 0,-57.6667 0,-57.6667 0,-53.8333 3.8333,-50 7.6667,-50 7.6667,-50 58.3333,-50 58.3333,-50 62.1667,-50 66,-53.8333 66,-57.6667 66,-57.6667 66,-65.3333 66,-65.3333 66,-69.1667 62.1667,-73 58.3333,-73"/>
<text text-anchor="middle" x="33" y="-57.8" font-family="Arial" font-size="14.00" fill="#c6c5fe">index.js</text>
</g>
<!-- index.js&#45;&gt;components/appRoot.js -->
<g id="edge6" class="edge">
<title>index.js&#45;&gt;components/appRoot.js</title>
<path fill="none" stroke="#757575" d="M66.0369,-70.2955C85.8225,-75.5631 111.4321,-82.3813 133.9899,-88.3869"/>
<polygon fill="#757575" stroke="#757575" points="133.2113,-91.8015 143.7751,-90.9921 135.0122,-85.0371 133.2113,-91.8015"/>
</g>
<!-- store/store.js -->
<g id="node8" class="node">
<title>store/store.js</title>
<path fill="none" stroke="#c6c5fe" d="M228.8333,-53C228.8333,-53 145.1667,-53 145.1667,-53 141.3333,-53 137.5,-49.1667 137.5,-45.3333 137.5,-45.3333 137.5,-37.6667 137.5,-37.6667 137.5,-33.8333 141.3333,-30 145.1667,-30 145.1667,-30 228.8333,-30 228.8333,-30 232.6667,-30 236.5,-33.8333 236.5,-37.6667 236.5,-37.6667 236.5,-45.3333 236.5,-45.3333 236.5,-49.1667 232.6667,-53 228.8333,-53"/>
<text text-anchor="middle" x="187" y="-37.8" font-family="Arial" font-size="14.00" fill="#c6c5fe">store/store.js</text>
</g>
<!-- index.js&#45;&gt;store/store.js -->
<g id="edge7" class="edge">
<title>index.js&#45;&gt;store/store.js</title>
<path fill="none" stroke="#757575" d="M66.0369,-57.2095C83.8854,-54.8915 106.4733,-51.958 127.285,-49.2552"/>
<polygon fill="#757575" stroke="#757575" points="127.8644,-52.7094 137.3303,-47.9506 126.9628,-45.7677 127.8644,-52.7094"/>
</g>
<!-- reducers/root.js -->
<g id="node9" class="node">
<title>reducers/root.js</title>
<path fill="none" stroke="#c6c5fe" d="M457.8333,-53C457.8333,-53 357.1667,-53 357.1667,-53 353.3333,-53 349.5,-49.1667 349.5,-45.3333 349.5,-45.3333 349.5,-37.6667 349.5,-37.6667 349.5,-33.8333 353.3333,-30 357.1667,-30 357.1667,-30 457.8333,-30 457.8333,-30 461.6667,-30 465.5,-33.8333 465.5,-37.6667 465.5,-37.6667 465.5,-45.3333 465.5,-45.3333 465.5,-49.1667 461.6667,-53 457.8333,-53"/>
<text text-anchor="middle" x="407.5" y="-37.8" font-family="Arial" font-size="14.00" fill="#c6c5fe">reducers/root.js</text>
</g>
<!-- store/store.js&#45;&gt;reducers/root.js -->
<g id="edge10" class="edge">
<title>store/store.js&#45;&gt;reducers/root.js</title>
<path fill="none" stroke="#757575" d="M236.7594,-41.5C267.0338,-41.5 306.1221,-41.5 339.2576,-41.5"/>
<polygon fill="#757575" stroke="#757575" points="339.3336,-45.0001 349.3336,-41.5 339.3336,-38.0001 339.3336,-45.0001"/>
</g>
<!-- store/initialState.js -->
<g id="node10" class="node">
<title>store/initialState.js</title>
<path fill="none" stroke="#cfffac" d="M694.3333,-23C694.3333,-23 576.6667,-23 576.6667,-23 572.8333,-23 569,-19.1667 569,-15.3333 569,-15.3333 569,-7.6667 569,-7.6667 569,-3.8333 572.8333,0 576.6667,0 576.6667,0 694.3333,0 694.3333,0 698.1667,0 702,-3.8333 702,-7.6667 702,-7.6667 702,-15.3333 702,-15.3333 702,-19.1667 698.1667,-23 694.3333,-23"/>
<text text-anchor="middle" x="635.5" y="-7.8" font-family="Arial" font-size="14.00" fill="#cfffac">store/initialState.js</text>
</g>
<!-- store/store.js&#45;&gt;store/initialState.js -->
<g id="edge11" class="edge">
<title>store/store.js&#45;&gt;store/initialState.js</title>
<path fill="none" stroke="#757575" d="M236.5235,-31.2417C258.342,-27.1539 284.3451,-22.8652 308,-20.5 393.4193,-11.959 491.9504,-10.3606 558.4436,-10.4873"/>
<polygon fill="#757575" stroke="#757575" points="558.8218,-13.9885 568.8334,-10.5217 558.8451,-6.9886 558.8218,-13.9885"/>
</g>
<!-- reducers/root.js&#45;&gt;actions/UI.js -->
<g id="edge8" class="edge">
<title>reducers/root.js&#45;&gt;actions/UI.js</title>
<path fill="none" stroke="#757575" d="M465.624,-49.4028C499.9394,-54.0685 543.2288,-59.9544 577.5193,-64.6167"/>
<polygon fill="#757575" stroke="#757575" points="577.4719,-68.1423 587.8523,-66.0216 578.4151,-61.2062 577.4719,-68.1423"/>
</g>
<!-- reducers/root.js&#45;&gt;store/initialState.js -->
<g id="edge9" class="edge">
<title>reducers/root.js&#45;&gt;store/initialState.js</title>
<path fill="none" stroke="#757575" d="M465.624,-33.8521C493.8354,-30.1401 528.1121,-25.63 558.4674,-21.6359"/>
<polygon fill="#757575" stroke="#757575" points="559.1391,-25.0777 568.597,-20.303 558.2259,-18.1376 559.1391,-25.0777"/>
</g>
</g>
</svg>
