<?xml version="1.0" encoding="UTF-8" standalone="no"?>
<!DOCTYPE svg PUBLIC "-//W3C//DTD SVG 1.1//EN"
 "http://www.w3.org/Graphics/SVG/1.1/DTD/svg11.dtd">
<!-- Generated by graphviz version 2.38.0 (20140413.2041)
 -->
<!-- Title: G Pages: 1 -->
<svg width="2954pt" height="695pt"
 viewBox="0.00 0.00 2954.20 695.20" xmlns="http://www.w3.org/2000/svg" xmlns:xlink="http://www.w3.org/1999/xlink">
<g id="graph0" class="graph" transform="scale(1 1) rotate(0) translate(21.6 673.6)">
<title>G</title>
<polygon fill="#111111" stroke="none" points="-21.6,21.6 -21.6,-673.6 2932.6,-673.6 2932.6,21.6 -21.6,21.6"/>
<!-- actions/Core.js -->
<g id="node1" class="node"><title>actions/Core.js</title>
<path fill="none" stroke="#c6c5fe" d="M1740.83,-369C1740.83,-369 1645.17,-369 1645.17,-369 1641.33,-369 1637.5,-365.167 1637.5,-361.333 1637.5,-361.333 1637.5,-353.667 1637.5,-353.667 1637.5,-349.833 1641.33,-346 1645.17,-346 1645.17,-346 1740.83,-346 1740.83,-346 1744.67,-346 1748.5,-349.833 1748.5,-353.667 1748.5,-353.667 1748.5,-361.333 1748.5,-361.333 1748.5,-365.167 1744.67,-369 1740.83,-369"/>
<text text-anchor="middle" x="1693" y="-353.8" font-family="Arial" font-size="14.00" fill="#c6c5fe">actions/Core.js</text>
</g>
<!-- actions/coreMsg.js -->
<g id="node2" class="node"><title>actions/coreMsg.js</title>
<path fill="none" stroke="#cfffac" d="M2882.83,-342C2882.83,-342 2763.17,-342 2763.17,-342 2759.33,-342 2755.5,-338.167 2755.5,-334.333 2755.5,-334.333 2755.5,-326.667 2755.5,-326.667 2755.5,-322.833 2759.33,-319 2763.17,-319 2763.17,-319 2882.83,-319 2882.83,-319 2886.67,-319 2890.5,-322.833 2890.5,-326.667 2890.5,-326.667 2890.5,-334.333 2890.5,-334.333 2890.5,-338.167 2886.67,-342 2882.83,-342"/>
<text text-anchor="middle" x="2823" y="-326.8" font-family="Arial" font-size="14.00" fill="#cfffac">actions/coreMsg.js</text>
</g>
<!-- actions/Core.js&#45;&gt;actions/coreMsg.js -->
<g id="edge1" class="edge"><title>actions/Core.js&#45;&gt;actions/coreMsg.js</title>
<path fill="none" stroke="#757575" d="M1748.66,-368.098C1770.73,-371.872 1796.48,-375.645 1820,-377.5 2164.74,-404.69 2577.53,-361.422 2745.39,-340.64"/>
<polygon fill="#757575" stroke="#757575" points="2745.88,-344.107 2755.37,-339.396 2745.01,-337.161 2745.88,-344.107"/>
</g>
<!-- store/store.js -->
<g id="node3" class="node"><title>store/store.js</title>
<path fill="none" stroke="#c6c5fe" d="M2282.33,-263C2282.33,-263 2198.67,-263 2198.67,-263 2194.83,-263 2191,-259.167 2191,-255.333 2191,-255.333 2191,-247.667 2191,-247.667 2191,-243.833 2194.83,-240 2198.67,-240 2198.67,-240 2282.33,-240 2282.33,-240 2286.17,-240 2290,-243.833 2290,-247.667 2290,-247.667 2290,-255.333 2290,-255.333 2290,-259.167 2286.17,-263 2282.33,-263"/>
<text text-anchor="middle" x="2240.5" y="-247.8" font-family="Arial" font-size="14.00" fill="#c6c5fe">store/store.js</text>
</g>
<!-- actions/Core.js&#45;&gt;store/store.js -->
<g id="edge2" class="edge"><title>actions/Core.js&#45;&gt;store/store.js</title>
<path fill="none" stroke="#757575" d="M1715.63,-345.994C1740.21,-333.457 1781.86,-313.813 1820,-303.5 1886.63,-285.483 2081.81,-265.87 2180.67,-256.732"/>
<polygon fill="#757575" stroke="#757575" points="2181.16,-260.202 2190.8,-255.802 2180.52,-253.232 2181.16,-260.202"/>
</g>
<!-- reducers/root.js -->
<g id="node24" class="node"><title>reducers/root.js</title>
<path fill="none" stroke="#c6c5fe" d="M2434.33,-203C2434.33,-203 2333.67,-203 2333.67,-203 2329.83,-203 2326,-199.167 2326,-195.333 2326,-195.333 2326,-187.667 2326,-187.667 2326,-183.833 2329.83,-180 2333.67,-180 2333.67,-180 2434.33,-180 2434.33,-180 2438.17,-180 2442,-183.833 2442,-187.667 2442,-187.667 2442,-195.333 2442,-195.333 2442,-199.167 2438.17,-203 2434.33,-203"/>
<text text-anchor="middle" x="2384" y="-187.8" font-family="Arial" font-size="14.00" fill="#c6c5fe">reducers/root.js</text>
</g>
<!-- store/store.js&#45;&gt;reducers/root.js -->
<g id="edge56" class="edge"><title>store/store.js&#45;&gt;reducers/root.js</title>
<path fill="none" stroke="#757575" d="M2268.78,-239.931C2290.9,-230.552 2322.28,-217.248 2346.55,-206.956"/>
<polygon fill="#757575" stroke="#757575" points="2347.96,-210.159 2355.8,-203.033 2345.23,-203.715 2347.96,-210.159"/>
</g>
<!-- actions/Engine.js -->
<g id="node4" class="node"><title>actions/Engine.js</title>
<path fill="none" stroke="#c6c5fe" d="M951.833,-508C951.833,-508 843.167,-508 843.167,-508 839.333,-508 835.5,-504.167 835.5,-500.333 835.5,-500.333 835.5,-492.667 835.5,-492.667 835.5,-488.833 839.333,-485 843.167,-485 843.167,-485 951.833,-485 951.833,-485 955.667,-485 959.5,-488.833 959.5,-492.667 959.5,-492.667 959.5,-500.333 959.5,-500.333 959.5,-504.167 955.667,-508 951.833,-508"/>
<text text-anchor="middle" x="897.5" y="-492.8" font-family="Arial" font-size="14.00" fill="#c6c5fe">actions/Engine.js</text>
</g>
<!-- scenes/sceneFunctions.js -->
<g id="node5" class="node"><title>scenes/sceneFunctions.js</title>
<path fill="none" stroke="#c6c5fe" d="M1201.33,-447C1201.33,-447 1034.67,-447 1034.67,-447 1030.83,-447 1027,-443.167 1027,-439.333 1027,-439.333 1027,-431.667 1027,-431.667 1027,-427.833 1030.83,-424 1034.67,-424 1034.67,-424 1201.33,-424 1201.33,-424 1205.17,-424 1209,-427.833 1209,-431.667 1209,-431.667 1209,-439.333 1209,-439.333 1209,-443.167 1205.17,-447 1201.33,-447"/>
<text text-anchor="middle" x="1118" y="-431.8" font-family="Arial" font-size="14.00" fill="#c6c5fe">scenes/sceneFunctions.js</text>
</g>
<!-- actions/Engine.js&#45;&gt;scenes/sceneFunctions.js -->
<g id="edge3" class="edge"><title>actions/Engine.js&#45;&gt;scenes/sceneFunctions.js</title>
<path fill="none" stroke="#757575" d="M939.855,-484.955C975.517,-474.999 1027.17,-460.579 1065.51,-449.876"/>
<polygon fill="#757575" stroke="#757575" points="1066.75,-453.162 1075.44,-447.102 1064.87,-446.42 1066.75,-453.162"/>
</g>
<!-- scenes/sceneSymbols.js -->
<g id="node6" class="node"><title>scenes/sceneSymbols.js</title>
<path fill="none" stroke="#cfffac" d="M2903.33,-517C2903.33,-517 2742.67,-517 2742.67,-517 2738.83,-517 2735,-513.167 2735,-509.333 2735,-509.333 2735,-501.667 2735,-501.667 2735,-497.833 2738.83,-494 2742.67,-494 2742.67,-494 2903.33,-494 2903.33,-494 2907.17,-494 2911,-497.833 2911,-501.667 2911,-501.667 2911,-509.333 2911,-509.333 2911,-513.167 2907.17,-517 2903.33,-517"/>
<text text-anchor="middle" x="2823" y="-501.8" font-family="Arial" font-size="14.00" fill="#cfffac">scenes/sceneSymbols.js</text>
</g>
<!-- actions/Engine.js&#45;&gt;scenes/sceneSymbols.js -->
<g id="edge4" class="edge"><title>actions/Engine.js&#45;&gt;scenes/sceneSymbols.js</title>
<path fill="none" stroke="#757575" d="M925.845,-508.027C992.64,-535.105 1169.96,-600.5 1324.5,-600.5 1324.5,-600.5 1324.5,-600.5 2385,-600.5 2525.74,-600.5 2563.43,-597.279 2699,-559.5 2731.72,-550.381 2767.03,-534.156 2791.39,-521.865"/>
<polygon fill="#757575" stroke="#757575" points="2793.17,-524.881 2800.47,-517.203 2789.98,-518.653 2793.17,-524.881"/>
</g>
<!-- scenes/sceneFunctions.js&#45;&gt;actions/Core.js -->
<g id="edge47" class="edge"><title>scenes/sceneFunctions.js&#45;&gt;actions/Core.js</title>
<path fill="none" stroke="#757575" d="M1155.82,-423.992C1215.28,-406.056 1336.47,-372.176 1442,-359.5 1504.49,-351.994 1576.4,-352.349 1627.01,-354.069"/>
<polygon fill="#757575" stroke="#757575" points="1627.03,-357.572 1637.16,-354.442 1627.29,-350.577 1627.03,-357.572"/>
</g>
<!-- scenes/sceneFunctions.js&#45;&gt;store/store.js -->
<g id="edge52" class="edge"><title>scenes/sceneFunctions.js&#45;&gt;store/store.js</title>
<path fill="none" stroke="#757575" d="M1123.28,-423.833C1135.95,-391.17 1176.72,-298.707 1245,-260.5 1345.34,-204.357 1388.02,-241.5 1503,-241.5 1503,-241.5 1503,-241.5 1911,-241.5 2005.37,-241.5 2114.93,-245.674 2180.65,-248.629"/>
<polygon fill="#757575" stroke="#757575" points="2180.67,-252.133 2190.81,-249.092 2180.98,-245.141 2180.67,-252.133"/>
</g>
<!-- scenes/sceneFunctions.js&#45;&gt;scenes/sceneSymbols.js -->
<g id="edge50" class="edge"><title>scenes/sceneFunctions.js&#45;&gt;scenes/sceneSymbols.js</title>
<path fill="none" stroke="#757575" d="M1139.03,-447.22C1194.73,-478.66 1356.95,-562.5 1503,-562.5 1503,-562.5 1503,-562.5 2385,-562.5 2525.19,-562.5 2560.5,-554.235 2699,-532.5 2720.99,-529.048 2744.95,-524.07 2765.84,-519.326"/>
<polygon fill="#757575" stroke="#757575" points="2766.86,-522.682 2775.82,-517.024 2765.29,-515.861 2766.86,-522.682"/>
</g>
<!-- scenes/charCreation.js -->
<g id="node31" class="node"><title>scenes/charCreation.js</title>
<path fill="none" stroke="#c6c5fe" d="M1398.33,-447C1398.33,-447 1252.67,-447 1252.67,-447 1248.83,-447 1245,-443.167 1245,-439.333 1245,-439.333 1245,-431.667 1245,-431.667 1245,-427.833 1248.83,-424 1252.67,-424 1252.67,-424 1398.33,-424 1398.33,-424 1402.17,-424 1406,-427.833 1406,-431.667 1406,-431.667 1406,-439.333 1406,-439.333 1406,-443.167 1402.17,-447 1398.33,-447"/>
<text text-anchor="middle" x="1325.5" y="-431.8" font-family="Arial" font-size="14.00" fill="#c6c5fe">scenes/charCreation.js</text>
</g>
<!-- scenes/sceneFunctions.js&#45;&gt;scenes/charCreation.js -->
<g id="edge48" class="edge"><title>scenes/sceneFunctions.js&#45;&gt;scenes/charCreation.js</title>
<path fill="none" stroke="#757575" d="M1209.14,-435.5C1217.57,-435.5 1226.12,-435.5 1234.55,-435.5"/>
<polygon fill="#757575" stroke="#757575" points="1234.76,-439 1244.76,-435.5 1234.76,-432 1234.76,-439"/>
</g>
<!-- scenes/menus.js -->
<g id="node32" class="node"><title>scenes/menus.js</title>
<path fill="none" stroke="#c6c5fe" d="M1558.33,-487C1558.33,-487 1449.67,-487 1449.67,-487 1445.83,-487 1442,-483.167 1442,-479.333 1442,-479.333 1442,-471.667 1442,-471.667 1442,-467.833 1445.83,-464 1449.67,-464 1449.67,-464 1558.33,-464 1558.33,-464 1562.17,-464 1566,-467.833 1566,-471.667 1566,-471.667 1566,-479.333 1566,-479.333 1566,-483.167 1562.17,-487 1558.33,-487"/>
<text text-anchor="middle" x="1504" y="-471.8" font-family="Arial" font-size="14.00" fill="#c6c5fe">scenes/menus.js</text>
</g>
<!-- scenes/sceneFunctions.js&#45;&gt;scenes/menus.js -->
<g id="edge49" class="edge"><title>scenes/sceneFunctions.js&#45;&gt;scenes/menus.js</title>
<path fill="none" stroke="#757575" d="M1181.32,-447.049C1201.58,-450.491 1224.19,-454.005 1245,-456.5 1307.92,-464.044 1379.85,-469.044 1431.75,-472.012"/>
<polygon fill="#757575" stroke="#757575" points="1431.68,-475.513 1441.86,-472.579 1432.07,-468.524 1431.68,-475.513"/>
</g>
<!-- scenes/tests/testing.js -->
<g id="node34" class="node"><title>scenes/tests/testing.js</title>
<path fill="none" stroke="#cfffac" d="M1396.83,-293C1396.83,-293 1254.17,-293 1254.17,-293 1250.33,-293 1246.5,-289.167 1246.5,-285.333 1246.5,-285.333 1246.5,-277.667 1246.5,-277.667 1246.5,-273.833 1250.33,-270 1254.17,-270 1254.17,-270 1396.83,-270 1396.83,-270 1400.67,-270 1404.5,-273.833 1404.5,-277.667 1404.5,-277.667 1404.5,-285.333 1404.5,-285.333 1404.5,-289.167 1400.67,-293 1396.83,-293"/>
<text text-anchor="middle" x="1325.5" y="-277.8" font-family="Arial" font-size="14.00" fill="#cfffac">scenes/tests/testing.js</text>
</g>
<!-- scenes/sceneFunctions.js&#45;&gt;scenes/tests/testing.js -->
<g id="edge51" class="edge"><title>scenes/sceneFunctions.js&#45;&gt;scenes/tests/testing.js</title>
<path fill="none" stroke="#757575" d="M1127.39,-423.774C1145.84,-398.805 1192.52,-340.017 1245,-307.5 1251.85,-303.259 1259.46,-299.635 1267.18,-296.561"/>
<polygon fill="#757575" stroke="#757575" points="1268.44,-299.825 1276.61,-293.078 1266.02,-293.259 1268.44,-299.825"/>
</g>
<!-- actions/Player.js -->
<g id="node7" class="node"><title>actions/Player.js</title>
<path fill="none" stroke="#c6c5fe" d="M2147.33,-369C2147.33,-369 2043.67,-369 2043.67,-369 2039.83,-369 2036,-365.167 2036,-361.333 2036,-361.333 2036,-353.667 2036,-353.667 2036,-349.833 2039.83,-346 2043.67,-346 2043.67,-346 2147.33,-346 2147.33,-346 2151.17,-346 2155,-349.833 2155,-353.667 2155,-353.667 2155,-361.333 2155,-361.333 2155,-365.167 2151.17,-369 2147.33,-369"/>
<text text-anchor="middle" x="2095.5" y="-353.8" font-family="Arial" font-size="14.00" fill="#c6c5fe">actions/Player.js</text>
</g>
<!-- actions/Player.js&#45;&gt;store/store.js -->
<g id="edge6" class="edge"><title>actions/Player.js&#45;&gt;store/store.js</title>
<path fill="none" stroke="#757575" d="M2131.15,-345.894C2139.49,-342.112 2148.01,-337.344 2155,-331.5 2176.85,-313.239 2169.99,-297.723 2191,-278.5 2195.13,-274.719 2199.89,-271.262 2204.77,-268.179"/>
<polygon fill="#757575" stroke="#757575" points="2206.71,-271.098 2213.59,-263.041 2203.19,-265.05 2206.71,-271.098"/>
</g>
<!-- actions/playerMsg.js -->
<g id="node8" class="node"><title>actions/playerMsg.js</title>
<path fill="none" stroke="#cfffac" d="M2887.83,-223C2887.83,-223 2758.17,-223 2758.17,-223 2754.33,-223 2750.5,-219.167 2750.5,-215.333 2750.5,-215.333 2750.5,-207.667 2750.5,-207.667 2750.5,-203.833 2754.33,-200 2758.17,-200 2758.17,-200 2887.83,-200 2887.83,-200 2891.67,-200 2895.5,-203.833 2895.5,-207.667 2895.5,-207.667 2895.5,-215.333 2895.5,-215.333 2895.5,-219.167 2891.67,-223 2887.83,-223"/>
<text text-anchor="middle" x="2823" y="-207.8" font-family="Arial" font-size="14.00" fill="#cfffac">actions/playerMsg.js</text>
</g>
<!-- actions/Player.js&#45;&gt;actions/playerMsg.js -->
<g id="edge5" class="edge"><title>actions/Player.js&#45;&gt;actions/playerMsg.js</title>
<path fill="none" stroke="#757575" d="M2155.17,-355.426C2264.48,-350.215 2505.76,-332.335 2699,-272.5 2733.53,-261.81 2770.3,-242.383 2794.55,-228.32"/>
<polygon fill="#757575" stroke="#757575" points="2796.36,-231.315 2803.2,-223.222 2792.81,-225.284 2796.36,-231.315"/>
</g>
<!-- actions/engineMsg.js -->
<g id="node9" class="node"><title>actions/engineMsg.js</title>
<path fill="none" stroke="#cfffac" d="M2655.33,-264C2655.33,-264 2521.67,-264 2521.67,-264 2517.83,-264 2514,-260.167 2514,-256.333 2514,-256.333 2514,-248.667 2514,-248.667 2514,-244.833 2517.83,-241 2521.67,-241 2521.67,-241 2655.33,-241 2655.33,-241 2659.17,-241 2663,-244.833 2663,-248.667 2663,-248.667 2663,-256.333 2663,-256.333 2663,-260.167 2659.17,-264 2655.33,-264"/>
<text text-anchor="middle" x="2588.5" y="-248.8" font-family="Arial" font-size="14.00" fill="#cfffac">actions/engineMsg.js</text>
</g>
<!-- components/appRoot.js -->
<g id="node10" class="node"><title>components/appRoot.js</title>
<path fill="none" stroke="#c6c5fe" d="M298.333,-487C298.333,-487 145.667,-487 145.667,-487 141.833,-487 138,-483.167 138,-479.333 138,-479.333 138,-471.667 138,-471.667 138,-467.833 141.833,-464 145.667,-464 145.667,-464 298.333,-464 298.333,-464 302.167,-464 306,-467.833 306,-471.667 306,-471.667 306,-479.333 306,-479.333 306,-483.167 302.167,-487 298.333,-487"/>
<text text-anchor="middle" x="222" y="-471.8" font-family="Arial" font-size="14.00" fill="#c6c5fe">components/appRoot.js</text>
</g>
<!-- components/lowerButtons.js -->
<g id="node11" class="node"><title>components/lowerButtons.js</title>
<path fill="none" stroke="#c6c5fe" d="M529.333,-487C529.333,-487 349.667,-487 349.667,-487 345.833,-487 342,-483.167 342,-479.333 342,-479.333 342,-471.667 342,-471.667 342,-467.833 345.833,-464 349.667,-464 349.667,-464 529.333,-464 529.333,-464 533.167,-464 537,-467.833 537,-471.667 537,-471.667 537,-479.333 537,-479.333 537,-483.167 533.167,-487 529.333,-487"/>
<text text-anchor="middle" x="439.5" y="-471.8" font-family="Arial" font-size="14.00" fill="#c6c5fe">components/lowerButtons.js</text>
</g>
<!-- components/appRoot.js&#45;&gt;components/lowerButtons.js -->
<g id="edge7" class="edge"><title>components/appRoot.js&#45;&gt;components/lowerButtons.js</title>
<path fill="none" stroke="#757575" d="M306.01,-475.5C314.447,-475.5 323.097,-475.5 331.74,-475.5"/>
<polygon fill="#757575" stroke="#757575" points="331.868,-479 341.868,-475.5 331.868,-472 331.868,-479"/>
</g>
<!-- components/menuBar.js -->
<g id="node12" class="node"><title>components/menuBar.js</title>
<path fill="none" stroke="#c6c5fe" d="M516.833,-528C516.833,-528 362.167,-528 362.167,-528 358.333,-528 354.5,-524.167 354.5,-520.333 354.5,-520.333 354.5,-512.667 354.5,-512.667 354.5,-508.833 358.333,-505 362.167,-505 362.167,-505 516.833,-505 516.833,-505 520.667,-505 524.5,-508.833 524.5,-512.667 524.5,-512.667 524.5,-520.333 524.5,-520.333 524.5,-524.167 520.667,-528 516.833,-528"/>
<text text-anchor="middle" x="439.5" y="-512.8" font-family="Arial" font-size="14.00" fill="#c6c5fe">components/menuBar.js</text>
</g>
<!-- components/appRoot.js&#45;&gt;components/menuBar.js -->
<g id="edge8" class="edge"><title>components/appRoot.js&#45;&gt;components/menuBar.js</title>
<path fill="none" stroke="#757575" d="M283.602,-487.03C309.88,-492.029 340.817,-497.915 368.106,-503.107"/>
<polygon fill="#757575" stroke="#757575" points="367.502,-506.555 377.98,-504.986 368.81,-499.678 367.502,-506.555"/>
</g>
<!-- components/output.js -->
<g id="node13" class="node"><title>components/output.js</title>
<path fill="none" stroke="#cfffac" d="M507.833,-446C507.833,-446 371.167,-446 371.167,-446 367.333,-446 363.5,-442.167 363.5,-438.333 363.5,-438.333 363.5,-430.667 363.5,-430.667 363.5,-426.833 367.333,-423 371.167,-423 371.167,-423 507.833,-423 507.833,-423 511.667,-423 515.5,-426.833 515.5,-430.667 515.5,-430.667 515.5,-438.333 515.5,-438.333 515.5,-442.167 511.667,-446 507.833,-446"/>
<text text-anchor="middle" x="439.5" y="-430.8" font-family="Arial" font-size="14.00" fill="#cfffac">components/output.js</text>
</g>
<!-- components/appRoot.js&#45;&gt;components/output.js -->
<g id="edge9" class="edge"><title>components/appRoot.js&#45;&gt;components/output.js</title>
<path fill="none" stroke="#757575" d="M283.602,-463.97C309.88,-458.971 340.817,-453.085 368.106,-447.893"/>
<polygon fill="#757575" stroke="#757575" points="368.81,-451.322 377.98,-446.014 367.502,-444.445 368.81,-451.322"/>
</g>
<!-- components/statBar.js -->
<g id="node14" class="node"><title>components/statBar.js</title>
<path fill="none" stroke="#c6c5fe" d="M510.833,-580C510.833,-580 368.167,-580 368.167,-580 364.333,-580 360.5,-576.167 360.5,-572.333 360.5,-572.333 360.5,-564.667 360.5,-564.667 360.5,-560.833 364.333,-557 368.167,-557 368.167,-557 510.833,-557 510.833,-557 514.667,-557 518.5,-560.833 518.5,-564.667 518.5,-564.667 518.5,-572.333 518.5,-572.333 518.5,-576.167 514.667,-580 510.833,-580"/>
<text text-anchor="middle" x="439.5" y="-564.8" font-family="Arial" font-size="14.00" fill="#c6c5fe">components/statBar.js</text>
</g>
<!-- components/appRoot.js&#45;&gt;components/statBar.js -->
<g id="edge10" class="edge"><title>components/appRoot.js&#45;&gt;components/statBar.js</title>
<path fill="none" stroke="#757575" d="M242.715,-487.096C265.922,-500.431 305.886,-522.419 342,-537.5 356.519,-543.563 372.668,-549.172 387.537,-553.905"/>
<polygon fill="#757575" stroke="#757575" points="386.505,-557.25 397.093,-556.885 388.589,-550.567 386.505,-557.25"/>
</g>
<!-- components/buttonGrid.js -->
<g id="node16" class="node"><title>components/buttonGrid.js</title>
<path fill="none" stroke="#c6c5fe" d="M752.333,-508C752.333,-508 588.667,-508 588.667,-508 584.833,-508 581,-504.167 581,-500.333 581,-500.333 581,-492.667 581,-492.667 581,-488.833 584.833,-485 588.667,-485 588.667,-485 752.333,-485 752.333,-485 756.167,-485 760,-488.833 760,-492.667 760,-492.667 760,-500.333 760,-500.333 760,-504.167 756.167,-508 752.333,-508"/>
<text text-anchor="middle" x="670.5" y="-492.8" font-family="Arial" font-size="14.00" fill="#c6c5fe">components/buttonGrid.js</text>
</g>
<!-- components/lowerButtons.js&#45;&gt;components/buttonGrid.js -->
<g id="edge14" class="edge"><title>components/lowerButtons.js&#45;&gt;components/buttonGrid.js</title>
<path fill="none" stroke="#757575" d="M537.285,-484.375C548.313,-485.387 559.566,-486.419 570.621,-487.432"/>
<polygon fill="#757575" stroke="#757575" points="570.427,-490.929 580.705,-488.357 571.067,-483.959 570.427,-490.929"/>
</g>
<!-- components/menuBar.js&#45;&gt;components/buttonGrid.js -->
<g id="edge15" class="edge"><title>components/menuBar.js&#45;&gt;components/buttonGrid.js</title>
<path fill="none" stroke="#757575" d="M524.796,-509.138C539.755,-507.831 555.456,-506.46 570.773,-505.122"/>
<polygon fill="#757575" stroke="#757575" points="571.114,-508.606 580.771,-504.249 570.505,-501.633 571.114,-508.606"/>
</g>
<!-- components/spriteDisplay.js -->
<g id="node19" class="node"><title>components/spriteDisplay.js</title>
<path fill="none" stroke="#cfffac" d="M760.333,-549C760.333,-549 580.667,-549 580.667,-549 576.833,-549 573,-545.167 573,-541.333 573,-541.333 573,-533.667 573,-533.667 573,-529.833 576.833,-526 580.667,-526 580.667,-526 760.333,-526 760.333,-526 764.167,-526 768,-529.833 768,-533.667 768,-533.667 768,-541.333 768,-541.333 768,-545.167 764.167,-549 760.333,-549"/>
<text text-anchor="middle" x="670.5" y="-533.8" font-family="Arial" font-size="14.00" fill="#cfffac">components/spriteDisplay.js</text>
</g>
<!-- components/statBar.js&#45;&gt;components/spriteDisplay.js -->
<g id="edge18" class="edge"><title>components/statBar.js&#45;&gt;components/spriteDisplay.js</title>
<path fill="none" stroke="#757575" d="M518.668,-557.918C536.571,-555.495 555.795,-552.892 574.324,-550.384"/>
<polygon fill="#757575" stroke="#757575" points="574.795,-553.852 584.235,-549.042 573.856,-546.916 574.795,-553.852"/>
</g>
<!-- components/statDisplay.js -->
<g id="node21" class="node"><title>components/statDisplay.js</title>
<path fill="none" stroke="#c6c5fe" d="M753.833,-631C753.833,-631 587.167,-631 587.167,-631 583.333,-631 579.5,-627.167 579.5,-623.333 579.5,-623.333 579.5,-615.667 579.5,-615.667 579.5,-611.833 583.333,-608 587.167,-608 587.167,-608 753.833,-608 753.833,-608 757.667,-608 761.5,-611.833 761.5,-615.667 761.5,-615.667 761.5,-623.333 761.5,-623.333 761.5,-627.167 757.667,-631 753.833,-631"/>
<text text-anchor="middle" x="670.5" y="-615.8" font-family="Arial" font-size="14.00" fill="#c6c5fe">components/statDisplay.js</text>
</g>
<!-- components/statBar.js&#45;&gt;components/statDisplay.js -->
<g id="edge19" class="edge"><title>components/statBar.js&#45;&gt;components/statDisplay.js</title>
<path fill="none" stroke="#757575" d="M488.58,-580.06C513.7,-586.021 544.97,-593.317 573,-599.5 582.586,-601.614 592.723,-603.786 602.681,-605.882"/>
<polygon fill="#757575" stroke="#757575" points="602.049,-609.325 612.554,-607.949 603.483,-602.474 602.049,-609.325"/>
</g>
<!-- components/timeDisplay.js -->
<g id="node22" class="node"><title>components/timeDisplay.js</title>
<path fill="none" stroke="#cfffac" d="M756.333,-590C756.333,-590 584.667,-590 584.667,-590 580.833,-590 577,-586.167 577,-582.333 577,-582.333 577,-574.667 577,-574.667 577,-570.833 580.833,-567 584.667,-567 584.667,-567 756.333,-567 756.333,-567 760.167,-567 764,-570.833 764,-574.667 764,-574.667 764,-582.333 764,-582.333 764,-586.167 760.167,-590 756.333,-590"/>
<text text-anchor="middle" x="670.5" y="-574.8" font-family="Arial" font-size="14.00" fill="#cfffac">components/timeDisplay.js</text>
</g>
<!-- components/statBar.js&#45;&gt;components/timeDisplay.js -->
<g id="edge20" class="edge"><title>components/statBar.js&#45;&gt;components/timeDisplay.js</title>
<path fill="none" stroke="#757575" d="M518.668,-571.913C533.974,-572.582 550.245,-573.292 566.223,-573.99"/>
<polygon fill="#757575" stroke="#757575" points="566.523,-577.506 576.666,-574.446 566.829,-570.513 566.523,-577.506"/>
</g>
<!-- components/button.js -->
<g id="node15" class="node"><title>components/button.js</title>
<path fill="none" stroke="#cfffac" d="M1186.33,-652C1186.33,-652 1049.67,-652 1049.67,-652 1045.83,-652 1042,-648.167 1042,-644.333 1042,-644.333 1042,-636.667 1042,-636.667 1042,-632.833 1045.83,-629 1049.67,-629 1049.67,-629 1186.33,-629 1186.33,-629 1190.17,-629 1194,-632.833 1194,-636.667 1194,-636.667 1194,-644.333 1194,-644.333 1194,-648.167 1190.17,-652 1186.33,-652"/>
<text text-anchor="middle" x="1118" y="-636.8" font-family="Arial" font-size="14.00" fill="#cfffac">components/button.js</text>
</g>
<!-- components/buttonGrid.js&#45;&gt;actions/Engine.js -->
<g id="edge11" class="edge"><title>components/buttonGrid.js&#45;&gt;actions/Engine.js</title>
<path fill="none" stroke="#757575" d="M760.103,-496.5C781.669,-496.5 804.464,-496.5 825.115,-496.5"/>
<polygon fill="#757575" stroke="#757575" points="825.383,-500 835.383,-496.5 825.383,-493 825.383,-500"/>
</g>
<!-- components/buttonWrap.js -->
<g id="node17" class="node"><title>components/buttonWrap.js</title>
<path fill="none" stroke="#c6c5fe" d="M983.333,-570C983.333,-570 811.667,-570 811.667,-570 807.833,-570 804,-566.167 804,-562.333 804,-562.333 804,-554.667 804,-554.667 804,-550.833 807.833,-547 811.667,-547 811.667,-547 983.333,-547 983.333,-547 987.167,-547 991,-550.833 991,-554.667 991,-554.667 991,-562.333 991,-562.333 991,-566.167 987.167,-570 983.333,-570"/>
<text text-anchor="middle" x="897.5" y="-554.8" font-family="Arial" font-size="14.00" fill="#c6c5fe">components/buttonWrap.js</text>
</g>
<!-- components/buttonGrid.js&#45;&gt;components/buttonWrap.js -->
<g id="edge12" class="edge"><title>components/buttonGrid.js&#45;&gt;components/buttonWrap.js</title>
<path fill="none" stroke="#757575" d="M728.866,-508.049C741.794,-510.911 755.413,-514.13 768,-517.5 796.856,-525.225 828.862,-535.432 853.713,-543.729"/>
<polygon fill="#757575" stroke="#757575" points="852.613,-547.051 863.207,-546.922 854.844,-540.417 852.613,-547.051"/>
</g>
<!-- components/buttonWrap.js&#45;&gt;components/button.js -->
<g id="edge13" class="edge"><title>components/buttonWrap.js&#45;&gt;components/button.js</title>
<path fill="none" stroke="#757575" d="M924.472,-570.034C958.994,-585.331 1016.84,-610.837 1027,-614.5 1038.47,-618.638 1050.95,-622.583 1062.86,-626.093"/>
<polygon fill="#757575" stroke="#757575" points="1062.11,-629.52 1072.69,-628.934 1064.05,-622.795 1062.11,-629.52"/>
</g>
<!-- components/nameInput.js -->
<g id="node18" class="node"><title>components/nameInput.js</title>
<path fill="none" stroke="#c6c5fe" d="M1992.33,-369C1992.33,-369 1827.67,-369 1827.67,-369 1823.83,-369 1820,-365.167 1820,-361.333 1820,-361.333 1820,-353.667 1820,-353.667 1820,-349.833 1823.83,-346 1827.67,-346 1827.67,-346 1992.33,-346 1992.33,-346 1996.17,-346 2000,-349.833 2000,-353.667 2000,-353.667 2000,-361.333 2000,-361.333 2000,-365.167 1996.17,-369 1992.33,-369"/>
<text text-anchor="middle" x="1910" y="-353.8" font-family="Arial" font-size="14.00" fill="#c6c5fe">components/nameInput.js</text>
</g>
<!-- components/nameInput.js&#45;&gt;store/store.js -->
<g id="edge17" class="edge"><title>components/nameInput.js&#45;&gt;store/store.js</title>
<path fill="none" stroke="#757575" d="M1968.23,-345.971C2018.34,-335.06 2092.67,-316.881 2155,-293.5 2173.98,-286.381 2194.35,-276.334 2210.33,-267.851"/>
<polygon fill="#757575" stroke="#757575" points="2212.05,-270.899 2219.19,-263.071 2208.73,-264.738 2212.05,-270.899"/>
</g>
<!-- components/nameInput.js&#45;&gt;actions/Player.js -->
<g id="edge16" class="edge"><title>components/nameInput.js&#45;&gt;actions/Player.js</title>
<path fill="none" stroke="#757575" d="M2000.06,-357.5C2008.7,-357.5 2017.36,-357.5 2025.75,-357.5"/>
<polygon fill="#757575" stroke="#757575" points="2025.83,-361 2035.83,-357.5 2025.83,-354 2025.83,-361"/>
</g>
<!-- components/stat.js -->
<g id="node20" class="node"><title>components/stat.js</title>
<path fill="none" stroke="#cfffac" d="M957.833,-631C957.833,-631 837.167,-631 837.167,-631 833.333,-631 829.5,-627.167 829.5,-623.333 829.5,-623.333 829.5,-615.667 829.5,-615.667 829.5,-611.833 833.333,-608 837.167,-608 837.167,-608 957.833,-608 957.833,-608 961.667,-608 965.5,-611.833 965.5,-615.667 965.5,-615.667 965.5,-623.333 965.5,-623.333 965.5,-627.167 961.667,-631 957.833,-631"/>
<text text-anchor="middle" x="897.5" y="-615.8" font-family="Arial" font-size="14.00" fill="#cfffac">components/stat.js</text>
</g>
<!-- components/statDisplay.js&#45;&gt;components/stat.js -->
<g id="edge21" class="edge"><title>components/statDisplay.js&#45;&gt;components/stat.js</title>
<path fill="none" stroke="#757575" d="M761.72,-619.5C780.804,-619.5 800.779,-619.5 819.327,-619.5"/>
<polygon fill="#757575" stroke="#757575" points="819.471,-623 829.471,-619.5 819.471,-616 819.471,-623"/>
</g>
<!-- index.js -->
<g id="node23" class="node"><title>index.js</title>
<path fill="none" stroke="#c6c5fe" d="M75.8333,-351C75.8333,-351 26.1667,-351 26.1667,-351 22.3333,-351 18.5,-347.167 18.5,-343.333 18.5,-343.333 18.5,-335.667 18.5,-335.667 18.5,-331.833 22.3333,-328 26.1667,-328 26.1667,-328 75.8333,-328 75.8333,-328 79.6667,-328 83.5,-331.833 83.5,-335.667 83.5,-335.667 83.5,-343.333 83.5,-343.333 83.5,-347.167 79.6667,-351 75.8333,-351"/>
<text text-anchor="middle" x="51" y="-335.8" font-family="Arial" font-size="14.00" fill="#c6c5fe">index.js</text>
</g>
<!-- index.js&#45;&gt;store/store.js -->
<g id="edge23" class="edge"><title>index.js&#45;&gt;store/store.js</title>
<path fill="none" stroke="#757575" d="M70.4834,-327.905C124.736,-295.016 289.119,-203.5 438.5,-203.5 438.5,-203.5 438.5,-203.5 1911,-203.5 2006.33,-203.5 2115.61,-223.537 2181.01,-237.72"/>
<polygon fill="#757575" stroke="#757575" points="2180.6,-241.214 2191.12,-239.942 2182.11,-234.377 2180.6,-241.214"/>
</g>
<!-- index.js&#45;&gt;components/appRoot.js -->
<g id="edge22" class="edge"><title>index.js&#45;&gt;components/appRoot.js</title>
<path fill="none" stroke="#757575" d="M83.6136,-349.957C89.9328,-352.643 96.3568,-355.83 102,-359.5 144.157,-386.914 184.072,-430.771 205.256,-455.972"/>
<polygon fill="#757575" stroke="#757575" points="202.625,-458.283 211.698,-463.753 208.016,-453.818 202.625,-458.283"/>
</g>
<!-- reducers/root.js&#45;&gt;actions/coreMsg.js -->
<g id="edge24" class="edge"><title>reducers/root.js&#45;&gt;actions/coreMsg.js</title>
<path fill="none" stroke="#757575" d="M2394.48,-203.12C2409.92,-221.18 2442.39,-255.656 2478,-272.5 2563.58,-312.977 2672.9,-325.648 2745.07,-329.378"/>
<polygon fill="#757575" stroke="#757575" points="2745.29,-332.892 2755.44,-329.866 2745.61,-325.9 2745.29,-332.892"/>
</g>
<!-- reducers/root.js&#45;&gt;actions/playerMsg.js -->
<g id="edge26" class="edge"><title>reducers/root.js&#45;&gt;actions/playerMsg.js</title>
<path fill="none" stroke="#757575" d="M2442.05,-190.79C2453.93,-190.669 2466.37,-190.563 2478,-190.5 2576.22,-189.972 2601.13,-182.205 2699,-190.5 2717.76,-192.09 2737.96,-195.02 2756.45,-198.198"/>
<polygon fill="#757575" stroke="#757575" points="2756.08,-201.686 2766.54,-199.982 2757.3,-194.793 2756.08,-201.686"/>
</g>
<!-- reducers/root.js&#45;&gt;actions/engineMsg.js -->
<g id="edge25" class="edge"><title>reducers/root.js&#45;&gt;actions/engineMsg.js</title>
<path fill="none" stroke="#757575" d="M2408.17,-203.138C2426.67,-212.018 2453.47,-223.97 2478,-231.5 2486.86,-234.219 2496.23,-236.656 2505.62,-238.82"/>
<polygon fill="#757575" stroke="#757575" points="2504.87,-242.238 2515.39,-240.978 2506.38,-235.403 2504.87,-242.238"/>
</g>
<!-- reducers/updateLowerButtons.js -->
<g id="node25" class="node"><title>reducers/updateLowerButtons.js</title>
<path fill="none" stroke="#c6c5fe" d="M2691.33,-105C2691.33,-105 2485.67,-105 2485.67,-105 2481.83,-105 2478,-101.167 2478,-97.3333 2478,-97.3333 2478,-89.6667 2478,-89.6667 2478,-85.8333 2481.83,-82 2485.67,-82 2485.67,-82 2691.33,-82 2691.33,-82 2695.17,-82 2699,-85.8333 2699,-89.6667 2699,-89.6667 2699,-97.3333 2699,-97.3333 2699,-101.167 2695.17,-105 2691.33,-105"/>
<text text-anchor="middle" x="2588.5" y="-89.8" font-family="Arial" font-size="14.00" fill="#c6c5fe">reducers/updateLowerButtons.js</text>
</g>
<!-- reducers/root.js&#45;&gt;reducers/updateLowerButtons.js -->
<g id="edge27" class="edge"><title>reducers/root.js&#45;&gt;reducers/updateLowerButtons.js</title>
<path fill="none" stroke="#757575" d="M2396.51,-179.887C2413.06,-163.862 2445.21,-135.177 2478,-119.5 2487.78,-114.822 2498.47,-110.95 2509.22,-107.755"/>
<polygon fill="#757575" stroke="#757575" points="2510.38,-111.064 2519.07,-105.007 2508.5,-104.322 2510.38,-111.064"/>
</g>
<!-- reducers/updateMenuBar.js -->
<g id="node26" class="node"><title>reducers/updateMenuBar.js</title>
<path fill="none" stroke="#c6c5fe" d="M2676.33,-23C2676.33,-23 2500.67,-23 2500.67,-23 2496.83,-23 2493,-19.1667 2493,-15.3333 2493,-15.3333 2493,-7.66667 2493,-7.66667 2493,-3.83333 2496.83,-0 2500.67,-0 2500.67,-0 2676.33,-0 2676.33,-0 2680.17,-0 2684,-3.83333 2684,-7.66667 2684,-7.66667 2684,-15.3333 2684,-15.3333 2684,-19.1667 2680.17,-23 2676.33,-23"/>
<text text-anchor="middle" x="2588.5" y="-7.8" font-family="Arial" font-size="14.00" fill="#c6c5fe">reducers/updateMenuBar.js</text>
</g>
<!-- reducers/root.js&#45;&gt;reducers/updateMenuBar.js -->
<g id="edge28" class="edge"><title>reducers/root.js&#45;&gt;reducers/updateMenuBar.js</title>
<path fill="none" stroke="#757575" d="M2388.06,-179.928C2396.63,-149.967 2423.84,-69.5498 2478,-31.5 2479.9,-30.1686 2481.85,-28.918 2483.86,-27.7436"/>
<polygon fill="#757575" stroke="#757575" points="2485.68,-30.745 2492.98,-23.0678 2482.49,-24.5161 2485.68,-30.745"/>
</g>
<!-- reducers/updateStats.js -->
<g id="node27" class="node"><title>reducers/updateStats.js</title>
<path fill="none" stroke="#c6c5fe" d="M2664.33,-223C2664.33,-223 2512.67,-223 2512.67,-223 2508.83,-223 2505,-219.167 2505,-215.333 2505,-215.333 2505,-207.667 2505,-207.667 2505,-203.833 2508.83,-200 2512.67,-200 2512.67,-200 2664.33,-200 2664.33,-200 2668.17,-200 2672,-203.833 2672,-207.667 2672,-207.667 2672,-215.333 2672,-215.333 2672,-219.167 2668.17,-223 2664.33,-223"/>
<text text-anchor="middle" x="2588.5" y="-207.8" font-family="Arial" font-size="14.00" fill="#c6c5fe">reducers/updateStats.js</text>
</g>
<!-- reducers/root.js&#45;&gt;reducers/updateStats.js -->
<g id="edge29" class="edge"><title>reducers/root.js&#45;&gt;reducers/updateStats.js</title>
<path fill="none" stroke="#757575" d="M2442.22,-197.151C2458.45,-198.754 2476.55,-200.542 2494.32,-202.297"/>
<polygon fill="#757575" stroke="#757575" points="2494.43,-205.825 2504.73,-203.325 2495.12,-198.859 2494.43,-205.825"/>
</g>
<!-- reducers/updateTime.js -->
<g id="node28" class="node"><title>reducers/updateTime.js</title>
<path fill="none" stroke="#c6c5fe" d="M2664.33,-64C2664.33,-64 2512.67,-64 2512.67,-64 2508.83,-64 2505,-60.1667 2505,-56.3333 2505,-56.3333 2505,-48.6667 2505,-48.6667 2505,-44.8333 2508.83,-41 2512.67,-41 2512.67,-41 2664.33,-41 2664.33,-41 2668.17,-41 2672,-44.8333 2672,-48.6667 2672,-48.6667 2672,-56.3333 2672,-56.3333 2672,-60.1667 2668.17,-64 2664.33,-64"/>
<text text-anchor="middle" x="2588.5" y="-48.8" font-family="Arial" font-size="14.00" fill="#c6c5fe">reducers/updateTime.js</text>
</g>
<!-- reducers/root.js&#45;&gt;reducers/updateTime.js -->
<g id="edge30" class="edge"><title>reducers/root.js&#45;&gt;reducers/updateTime.js</title>
<path fill="none" stroke="#757575" d="M2390.5,-179.711C2402.56,-155.293 2433.8,-99.2363 2478,-72.5 2483.43,-69.2179 2489.26,-66.4486 2495.31,-64.1145"/>
<polygon fill="#757575" stroke="#757575" points="2496.64,-67.3567 2504.96,-60.7939 2494.36,-60.7374 2496.64,-67.3567"/>
</g>
<!-- store/initialState.js -->
<g id="node29" class="node"><title>store/initialState.js</title>
<path fill="none" stroke="#c6c5fe" d="M2646.33,-420C2646.33,-420 2530.67,-420 2530.67,-420 2526.83,-420 2523,-416.167 2523,-412.333 2523,-412.333 2523,-404.667 2523,-404.667 2523,-400.833 2526.83,-397 2530.67,-397 2530.67,-397 2646.33,-397 2646.33,-397 2650.17,-397 2654,-400.833 2654,-404.667 2654,-404.667 2654,-412.333 2654,-412.333 2654,-416.167 2650.17,-420 2646.33,-420"/>
<text text-anchor="middle" x="2588.5" y="-404.8" font-family="Arial" font-size="14.00" fill="#c6c5fe">store/initialState.js</text>
</g>
<!-- reducers/root.js&#45;&gt;store/initialState.js -->
<g id="edge31" class="edge"><title>reducers/root.js&#45;&gt;store/initialState.js</title>
<path fill="none" stroke="#757575" d="M2389.69,-203.176C2401.2,-230.67 2433.22,-300.484 2478,-344.5 2498.84,-364.985 2527.5,-381.431 2550.27,-392.52"/>
<polygon fill="#757575" stroke="#757575" points="2548.78,-395.684 2559.32,-396.795 2551.77,-389.356 2548.78,-395.684"/>
</g>
<!-- utils.js -->
<g id="node30" class="node"><title>utils.js</title>
<path fill="none" stroke="#cfffac" d="M2843.33,-105C2843.33,-105 2802.67,-105 2802.67,-105 2798.83,-105 2795,-101.167 2795,-97.3333 2795,-97.3333 2795,-89.6667 2795,-89.6667 2795,-85.8333 2798.83,-82 2802.67,-82 2802.67,-82 2843.33,-82 2843.33,-82 2847.17,-82 2851,-85.8333 2851,-89.6667 2851,-89.6667 2851,-97.3333 2851,-97.3333 2851,-101.167 2847.17,-105 2843.33,-105"/>
<text text-anchor="middle" x="2823" y="-89.8" font-family="Arial" font-size="14.00" fill="#cfffac">utils.js</text>
</g>
<!-- reducers/root.js&#45;&gt;utils.js -->
<g id="edge32" class="edge"><title>reducers/root.js&#45;&gt;utils.js</title>
<path fill="none" stroke="#757575" d="M2436.41,-179.97C2525.59,-159.971 2706.87,-119.318 2784.91,-101.818"/>
<polygon fill="#757575" stroke="#757575" points="2785.79,-105.208 2794.78,-99.6047 2784.25,-98.3778 2785.79,-105.208"/>
</g>
<!-- reducers/updateLowerButtons.js&#45;&gt;utils.js -->
<g id="edge33" class="edge"><title>reducers/updateLowerButtons.js&#45;&gt;utils.js</title>
<path fill="none" stroke="#757575" d="M2699.28,-93.5C2730.07,-93.5 2761.47,-93.5 2784.8,-93.5"/>
<polygon fill="#757575" stroke="#757575" points="2784.92,-97.0001 2794.92,-93.5 2784.92,-90.0001 2784.92,-97.0001"/>
</g>
<!-- reducers/updateMenuBar.js&#45;&gt;utils.js -->
<g id="edge34" class="edge"><title>reducers/updateMenuBar.js&#45;&gt;utils.js</title>
<path fill="none" stroke="#757575" d="M2667.96,-23.0044C2678.52,-25.3707 2689.11,-28.18 2699,-31.5 2733.38,-43.0361 2770.18,-62.6573 2794.48,-76.739"/>
<polygon fill="#757575" stroke="#757575" points="2792.75,-79.7844 2803.15,-81.8363 2796.3,-73.7503 2792.75,-79.7844"/>
</g>
<!-- reducers/updateStats.js&#45;&gt;actions/coreMsg.js -->
<g id="edge35" class="edge"><title>reducers/updateStats.js&#45;&gt;actions/coreMsg.js</title>
<path fill="none" stroke="#757575" d="M2672.19,-222.01C2681.44,-224.524 2690.57,-227.64 2699,-231.5 2741.59,-250.989 2782.12,-288.561 2804.36,-311.398"/>
<polygon fill="#757575" stroke="#757575" points="2802.01,-313.996 2811.45,-318.808 2807.07,-309.16 2802.01,-313.996"/>
</g>
<!-- reducers/updateStats.js&#45;&gt;actions/playerMsg.js -->
<g id="edge36" class="edge"><title>reducers/updateStats.js&#45;&gt;actions/playerMsg.js</title>
<path fill="none" stroke="#757575" d="M2672.13,-211.5C2694.31,-211.5 2718.28,-211.5 2740.41,-211.5"/>
<polygon fill="#757575" stroke="#757575" points="2740.43,-215 2750.43,-211.5 2740.43,-208 2740.43,-215"/>
</g>
<!-- reducers/updateStats.js&#45;&gt;utils.js -->
<g id="edge37" class="edge"><title>reducers/updateStats.js&#45;&gt;utils.js</title>
<path fill="none" stroke="#757575" d="M2612.22,-199.971C2653.89,-178.822 2742.63,-133.784 2790.24,-109.618"/>
<polygon fill="#757575" stroke="#757575" points="2791.86,-112.723 2799.19,-105.076 2788.69,-106.481 2791.86,-112.723"/>
</g>
<!-- reducers/updateTime.js&#45;&gt;utils.js -->
<g id="edge38" class="edge"><title>reducers/updateTime.js&#45;&gt;utils.js</title>
<path fill="none" stroke="#757575" d="M2654.88,-64.0299C2696.75,-71.4137 2749.59,-80.7316 2784.52,-86.8907"/>
<polygon fill="#757575" stroke="#757575" points="2784.3,-90.4052 2794.75,-88.6951 2785.51,-83.5116 2784.3,-90.4052"/>
</g>
<!-- store/initialState.js&#45;&gt;scenes/sceneSymbols.js -->
<g id="edge55" class="edge"><title>store/initialState.js&#45;&gt;scenes/sceneSymbols.js</title>
<path fill="none" stroke="#757575" d="M2651.86,-420.004C2667.53,-423.788 2684.11,-428.582 2699,-434.5 2734.96,-448.793 2773.06,-472.248 2797.16,-488.257"/>
<polygon fill="#757575" stroke="#757575" points="2795.43,-491.31 2805.68,-493.994 2799.34,-485.505 2795.43,-491.31"/>
</g>
<!-- scenes/charCreation.js&#45;&gt;actions/Core.js -->
<g id="edge39" class="edge"><title>scenes/charCreation.js&#45;&gt;actions/Core.js</title>
<path fill="none" stroke="#757575" d="M1347.04,-423.817C1369.57,-411.588 1407.18,-392.888 1442,-383.5 1503.49,-366.923 1576.12,-360.796 1627.21,-358.593"/>
<polygon fill="#757575" stroke="#757575" points="1627.59,-362.081 1637.45,-358.191 1627.32,-355.086 1627.59,-362.081"/>
</g>
<!-- scenes/charCreation.js&#45;&gt;scenes/sceneSymbols.js -->
<g id="edge42" class="edge"><title>scenes/charCreation.js&#45;&gt;scenes/sceneSymbols.js</title>
<path fill="none" stroke="#757575" d="M1343.61,-447.185C1365.4,-461.431 1404.72,-485.021 1442,-496.5 1548.85,-529.404 1580.19,-524.5 1692,-524.5 1692,-524.5 1692,-524.5 2385,-524.5 2501.99,-524.5 2636.44,-517.619 2724.96,-512.139"/>
<polygon fill="#757575" stroke="#757575" points="2725.23,-515.629 2734.99,-511.512 2724.79,-508.643 2725.23,-515.629"/>
</g>
<!-- scenes/charCreation.js&#45;&gt;actions/Player.js -->
<g id="edge40" class="edge"><title>scenes/charCreation.js&#45;&gt;actions/Player.js</title>
<path fill="none" stroke="#757575" d="M1406.23,-432.16C1519.48,-426.282 1720.27,-411.342 1784,-377.5 1805.42,-366.127 1797.91,-346.501 1820,-336.5 1897.06,-301.612 1998.77,-325.001 2054.21,-342.762"/>
<polygon fill="#757575" stroke="#757575" points="2053.42,-346.185 2064.01,-345.998 2055.61,-339.538 2053.42,-346.185"/>
</g>
<!-- scenes/charCreation.js&#45;&gt;scenes/menus.js -->
<g id="edge41" class="edge"><title>scenes/charCreation.js&#45;&gt;scenes/menus.js</title>
<path fill="none" stroke="#757575" d="M1377.55,-447.07C1397.77,-451.651 1421.17,-456.955 1442.25,-461.731"/>
<polygon fill="#757575" stroke="#757575" points="1441.54,-465.159 1452.06,-463.956 1443.08,-458.333 1441.54,-465.159"/>
</g>
<!-- scenes/sceneTextStore.js -->
<g id="node33" class="node"><title>scenes/sceneTextStore.js</title>
<path fill="none" stroke="#c6c5fe" d="M1776.33,-458C1776.33,-458 1609.67,-458 1609.67,-458 1605.83,-458 1602,-454.167 1602,-450.333 1602,-450.333 1602,-442.667 1602,-442.667 1602,-438.833 1605.83,-435 1609.67,-435 1609.67,-435 1776.33,-435 1776.33,-435 1780.17,-435 1784,-438.833 1784,-442.667 1784,-442.667 1784,-450.333 1784,-450.333 1784,-454.167 1780.17,-458 1776.33,-458"/>
<text text-anchor="middle" x="1693" y="-442.8" font-family="Arial" font-size="14.00" fill="#c6c5fe">scenes/sceneTextStore.js</text>
</g>
<!-- scenes/charCreation.js&#45;&gt;scenes/sceneTextStore.js -->
<g id="edge43" class="edge"><title>scenes/charCreation.js&#45;&gt;scenes/sceneTextStore.js</title>
<path fill="none" stroke="#757575" d="M1406.26,-437.9C1460.65,-439.537 1533.12,-441.718 1591.46,-443.474"/>
<polygon fill="#757575" stroke="#757575" points="1591.71,-446.983 1601.81,-443.786 1591.92,-439.986 1591.71,-446.983"/>
</g>
<!-- scenes/menus.js&#45;&gt;actions/Core.js -->
<g id="edge44" class="edge"><title>scenes/menus.js&#45;&gt;actions/Core.js</title>
<path fill="none" stroke="#757575" d="M1523.27,-463.971C1556.37,-443.086 1626.38,-398.906 1665.01,-374.534"/>
<polygon fill="#757575" stroke="#757575" points="1667.07,-377.373 1673.66,-369.076 1663.33,-371.453 1667.07,-377.373"/>
</g>
<!-- scenes/menus.js&#45;&gt;scenes/sceneSymbols.js -->
<g id="edge45" class="edge"><title>scenes/menus.js&#45;&gt;scenes/sceneSymbols.js</title>
<path fill="none" stroke="#757575" d="M1566.24,-478.205C1645.38,-481.462 1787.44,-486.5 1909,-486.5 1909,-486.5 1909,-486.5 2385,-486.5 2501.99,-486.5 2636.44,-493.381 2724.96,-498.861"/>
<polygon fill="#757575" stroke="#757575" points="2724.79,-502.357 2734.99,-499.488 2725.23,-495.371 2724.79,-502.357"/>
</g>
<!-- scenes/menus.js&#45;&gt;scenes/sceneTextStore.js -->
<g id="edge46" class="edge"><title>scenes/menus.js&#45;&gt;scenes/sceneTextStore.js</title>
<path fill="none" stroke="#757575" d="M1566.23,-466.004C1579.43,-463.957 1593.61,-461.759 1607.52,-459.602"/>
<polygon fill="#757575" stroke="#757575" points="1608.24,-463.032 1617.58,-458.041 1607.16,-456.115 1608.24,-463.032"/>
</g>
<!-- scenes/sceneTextStore.js&#45;&gt;scenes/sceneSymbols.js -->
<g id="edge54" class="edge"><title>scenes/sceneTextStore.js&#45;&gt;scenes/sceneSymbols.js</title>
<path fill="none" stroke="#757575" d="M1784.27,-447.208C1865.44,-447.783 1987.94,-448.5 2094.5,-448.5 2094.5,-448.5 2094.5,-448.5 2385,-448.5 2524.96,-448.5 2561.04,-448.931 2699,-472.5 2724.91,-476.927 2753.29,-484.361 2776.25,-491.053"/>
<polygon fill="#757575" stroke="#757575" points="2775.48,-494.475 2786.06,-493.963 2777.47,-487.764 2775.48,-494.475"/>
</g>
<!-- scenes/sceneTextStore.js&#45;&gt;components/nameInput.js -->
<g id="edge53" class="edge"><title>scenes/sceneTextStore.js&#45;&gt;components/nameInput.js</title>
<path fill="none" stroke="#757575" d="M1724.52,-434.951C1742,-428.259 1764.3,-419.582 1784,-411.5 1814.31,-399.063 1848.44,-384.264 1873.37,-373.307"/>
<polygon fill="#757575" stroke="#757575" points="1875.04,-376.396 1882.78,-369.161 1872.22,-369.99 1875.04,-376.396"/>
</g>
<!-- setupTests.js -->
<g id="node35" class="node"><title>setupTests.js</title>
<path fill="none" stroke="#cfffac" d="M94.3333,-392C94.3333,-392 7.66667,-392 7.66667,-392 3.83333,-392 0,-388.167 0,-384.333 0,-384.333 0,-376.667 0,-376.667 0,-372.833 3.83333,-369 7.66667,-369 7.66667,-369 94.3333,-369 94.3333,-369 98.1667,-369 102,-372.833 102,-376.667 102,-376.667 102,-384.333 102,-384.333 102,-388.167 98.1667,-392 94.3333,-392"/>
<text text-anchor="middle" x="51" y="-376.8" font-family="Arial" font-size="14.00" fill="#cfffac">setupTests.js</text>
</g>
</g>
</svg>
