<?xml version="1.0" encoding="UTF-8" standalone="no"?>
<!DOCTYPE svg PUBLIC "-//W3C//DTD SVG 1.1//EN"
 "http://www.w3.org/Graphics/SVG/1.1/DTD/svg11.dtd">
<!-- Generated by graphviz version 2.38.0 (20140413.2041)
 -->
<!-- Title: G Pages: 1 -->
<svg width="1979pt" height="442pt"
 viewBox="0.00 0.00 1979.20 442.20" xmlns="http://www.w3.org/2000/svg" xmlns:xlink="http://www.w3.org/1999/xlink">
<g id="graph0" class="graph" transform="scale(1 1) rotate(0) translate(21.6 420.6)">
<title>G</title>
<polygon fill="#111111" stroke="none" points="-21.6,21.6 -21.6,-420.6 1957.6,-420.6 1957.6,21.6 -21.6,21.6"/>
<!-- actions/Core.js -->
<g id="node1" class="node"><title>actions/Core.js</title>
<path fill="none" stroke="#c6c5fe" d="M993.833,-294C993.833,-294 898.167,-294 898.167,-294 894.333,-294 890.5,-290.167 890.5,-286.333 890.5,-286.333 890.5,-278.667 890.5,-278.667 890.5,-274.833 894.333,-271 898.167,-271 898.167,-271 993.833,-271 993.833,-271 997.667,-271 1001.5,-274.833 1001.5,-278.667 1001.5,-278.667 1001.5,-286.333 1001.5,-286.333 1001.5,-290.167 997.667,-294 993.833,-294"/>
<text text-anchor="middle" x="946" y="-278.8" font-family="Arial" font-size="14.00" fill="#c6c5fe">actions/Core.js</text>
</g>
<!-- scenes/sceneFunctions.js -->
<g id="node2" class="node"><title>scenes/sceneFunctions.js</title>
<path fill="none" stroke="#c6c5fe" d="M1305.33,-304C1305.33,-304 1138.67,-304 1138.67,-304 1134.83,-304 1131,-300.167 1131,-296.333 1131,-296.333 1131,-288.667 1131,-288.667 1131,-284.833 1134.83,-281 1138.67,-281 1138.67,-281 1305.33,-281 1305.33,-281 1309.17,-281 1313,-284.833 1313,-288.667 1313,-288.667 1313,-296.333 1313,-296.333 1313,-300.167 1309.17,-304 1305.33,-304"/>
<text text-anchor="middle" x="1222" y="-288.8" font-family="Arial" font-size="14.00" fill="#c6c5fe">scenes/sceneFunctions.js</text>
</g>
<!-- actions/Core.js&#45;&gt;scenes/sceneFunctions.js -->
<g id="edge1" class="edge"><title>actions/Core.js&#45;&gt;scenes/sceneFunctions.js</title>
<path fill="none" stroke="#757575" d="M1001.79,-284.5C1035.84,-285.742 1080.64,-287.377 1120.86,-288.845"/>
<polygon fill="#757575" stroke="#757575" points="1120.86,-292.347 1130.98,-289.215 1121.11,-285.352 1120.86,-292.347"/>
</g>
<!-- scenes/menus.js -->
<g id="node25" class="node"><title>scenes/menus.js</title>
<path fill="none" stroke="#c6c5fe" d="M1506.83,-264C1506.83,-264 1398.17,-264 1398.17,-264 1394.33,-264 1390.5,-260.167 1390.5,-256.333 1390.5,-256.333 1390.5,-248.667 1390.5,-248.667 1390.5,-244.833 1394.33,-241 1398.17,-241 1398.17,-241 1506.83,-241 1506.83,-241 1510.67,-241 1514.5,-244.833 1514.5,-248.667 1514.5,-248.667 1514.5,-256.333 1514.5,-256.333 1514.5,-260.167 1510.67,-264 1506.83,-264"/>
<text text-anchor="middle" x="1452.5" y="-248.8" font-family="Arial" font-size="14.00" fill="#c6c5fe">scenes/menus.js</text>
</g>
<!-- scenes/sceneFunctions.js&#45;&gt;scenes/menus.js -->
<g id="edge35" class="edge"><title>scenes/sceneFunctions.js&#45;&gt;scenes/menus.js</title>
<path fill="none" stroke="#757575" d="M1288.79,-280.984C1317.44,-275.967 1351.1,-270.076 1380.34,-264.957"/>
<polygon fill="#757575" stroke="#757575" points="1381.23,-268.354 1390.48,-263.182 1380.03,-261.458 1381.23,-268.354"/>
</g>
<!-- scenes/charCreation.js -->
<g id="node27" class="node"><title>scenes/charCreation.js</title>
<path fill="none" stroke="#c6c5fe" d="M1525.33,-305C1525.33,-305 1379.67,-305 1379.67,-305 1375.83,-305 1372,-301.167 1372,-297.333 1372,-297.333 1372,-289.667 1372,-289.667 1372,-285.833 1375.83,-282 1379.67,-282 1379.67,-282 1525.33,-282 1525.33,-282 1529.17,-282 1533,-285.833 1533,-289.667 1533,-289.667 1533,-297.333 1533,-297.333 1533,-301.167 1529.17,-305 1525.33,-305"/>
<text text-anchor="middle" x="1452.5" y="-289.8" font-family="Arial" font-size="14.00" fill="#c6c5fe">scenes/charCreation.js</text>
</g>
<!-- scenes/sceneFunctions.js&#45;&gt;scenes/charCreation.js -->
<g id="edge34" class="edge"><title>scenes/sceneFunctions.js&#45;&gt;scenes/charCreation.js</title>
<path fill="none" stroke="#757575" d="M1313.31,-292.895C1329.17,-292.965 1345.68,-293.037 1361.53,-293.106"/>
<polygon fill="#757575" stroke="#757575" points="1361.82,-296.607 1371.84,-293.151 1361.85,-289.608 1361.82,-296.607"/>
</g>
<!-- scenes/sceneSymbols.js -->
<g id="node29" class="node"><title>scenes/sceneSymbols.js</title>
<path fill="none" stroke="#cfffac" d="M1928.33,-305C1928.33,-305 1767.67,-305 1767.67,-305 1763.83,-305 1760,-301.167 1760,-297.333 1760,-297.333 1760,-289.667 1760,-289.667 1760,-285.833 1763.83,-282 1767.67,-282 1767.67,-282 1928.33,-282 1928.33,-282 1932.17,-282 1936,-285.833 1936,-289.667 1936,-289.667 1936,-297.333 1936,-297.333 1936,-301.167 1932.17,-305 1928.33,-305"/>
<text text-anchor="middle" x="1848" y="-289.8" font-family="Arial" font-size="14.00" fill="#cfffac">scenes/sceneSymbols.js</text>
</g>
<!-- scenes/sceneFunctions.js&#45;&gt;scenes/sceneSymbols.js -->
<g id="edge36" class="edge"><title>scenes/sceneFunctions.js&#45;&gt;scenes/sceneSymbols.js</title>
<path fill="none" stroke="#757575" d="M1290.29,-304.02C1315.8,-307.851 1345.16,-311.618 1372,-313.5 1528.08,-324.445 1567.94,-318.813 1724,-307.5 1732.32,-306.897 1740.94,-306.155 1749.59,-305.33"/>
<polygon fill="#757575" stroke="#757575" points="1750.12,-308.794 1759.73,-304.327 1749.43,-301.828 1750.12,-308.794"/>
</g>
<!-- actions/UI.js -->
<g id="node3" class="node"><title>actions/UI.js</title>
<path fill="none" stroke="#cfffac" d="M1685.83,-205C1685.83,-205 1607.17,-205 1607.17,-205 1603.33,-205 1599.5,-201.167 1599.5,-197.333 1599.5,-197.333 1599.5,-189.667 1599.5,-189.667 1599.5,-185.833 1603.33,-182 1607.17,-182 1607.17,-182 1685.83,-182 1685.83,-182 1689.67,-182 1693.5,-185.833 1693.5,-189.667 1693.5,-189.667 1693.5,-197.333 1693.5,-197.333 1693.5,-201.167 1689.67,-205 1685.83,-205"/>
<text text-anchor="middle" x="1646.5" y="-189.8" font-family="Arial" font-size="14.00" fill="#cfffac">actions/UI.js</text>
</g>
<!-- actions/UI.test.js -->
<g id="node4" class="node"><title>actions/UI.test.js</title>
<path fill="none" stroke="#c6c5fe" d="M1505.33,-223C1505.33,-223 1399.67,-223 1399.67,-223 1395.83,-223 1392,-219.167 1392,-215.333 1392,-215.333 1392,-207.667 1392,-207.667 1392,-203.833 1395.83,-200 1399.67,-200 1399.67,-200 1505.33,-200 1505.33,-200 1509.17,-200 1513,-203.833 1513,-207.667 1513,-207.667 1513,-215.333 1513,-215.333 1513,-219.167 1509.17,-223 1505.33,-223"/>
<text text-anchor="middle" x="1452.5" y="-207.8" font-family="Arial" font-size="14.00" fill="#c6c5fe">actions/UI.test.js</text>
</g>
<!-- actions/UI.test.js&#45;&gt;actions/UI.js -->
<g id="edge2" class="edge"><title>actions/UI.test.js&#45;&gt;actions/UI.js</title>
<path fill="none" stroke="#757575" d="M1513.2,-205.903C1537.47,-203.628 1565.37,-201.012 1589.28,-198.771"/>
<polygon fill="#757575" stroke="#757575" points="1589.63,-202.253 1599.26,-197.835 1588.98,-195.284 1589.63,-202.253"/>
</g>
<!-- components/appRoot.js -->
<g id="node5" class="node"><title>components/appRoot.js</title>
<path fill="none" stroke="#c6c5fe" d="M261.333,-276C261.333,-276 108.667,-276 108.667,-276 104.833,-276 101,-272.167 101,-268.333 101,-268.333 101,-260.667 101,-260.667 101,-256.833 104.833,-253 108.667,-253 108.667,-253 261.333,-253 261.333,-253 265.167,-253 269,-256.833 269,-260.667 269,-260.667 269,-268.333 269,-268.333 269,-272.167 265.167,-276 261.333,-276"/>
<text text-anchor="middle" x="185" y="-260.8" font-family="Arial" font-size="14.00" fill="#c6c5fe">components/appRoot.js</text>
</g>
<!-- components/lowerButtons.js -->
<g id="node6" class="node"><title>components/lowerButtons.js</title>
<path fill="none" stroke="#c6c5fe" d="M518.833,-276C518.833,-276 339.167,-276 339.167,-276 335.333,-276 331.5,-272.167 331.5,-268.333 331.5,-268.333 331.5,-260.667 331.5,-260.667 331.5,-256.833 335.333,-253 339.167,-253 339.167,-253 518.833,-253 518.833,-253 522.667,-253 526.5,-256.833 526.5,-260.667 526.5,-260.667 526.5,-268.333 526.5,-268.333 526.5,-272.167 522.667,-276 518.833,-276"/>
<text text-anchor="middle" x="429" y="-260.8" font-family="Arial" font-size="14.00" fill="#c6c5fe">components/lowerButtons.js</text>
</g>
<!-- components/appRoot.js&#45;&gt;components/lowerButtons.js -->
<g id="edge3" class="edge"><title>components/appRoot.js&#45;&gt;components/lowerButtons.js</title>
<path fill="none" stroke="#757575" d="M269.283,-264.5C285.969,-264.5 303.719,-264.5 321.077,-264.5"/>
<polygon fill="#757575" stroke="#757575" points="321.241,-268 331.241,-264.5 321.241,-261 321.241,-268"/>
</g>
<!-- components/menuBar.js -->
<g id="node7" class="node"><title>components/menuBar.js</title>
<path fill="none" stroke="#c6c5fe" d="M506.333,-235C506.333,-235 351.667,-235 351.667,-235 347.833,-235 344,-231.167 344,-227.333 344,-227.333 344,-219.667 344,-219.667 344,-215.833 347.833,-212 351.667,-212 351.667,-212 506.333,-212 506.333,-212 510.167,-212 514,-215.833 514,-219.667 514,-219.667 514,-227.333 514,-227.333 514,-231.167 510.167,-235 506.333,-235"/>
<text text-anchor="middle" x="429" y="-219.8" font-family="Arial" font-size="14.00" fill="#c6c5fe">components/menuBar.js</text>
</g>
<!-- components/appRoot.js&#45;&gt;components/menuBar.js -->
<g id="edge4" class="edge"><title>components/appRoot.js&#45;&gt;components/menuBar.js</title>
<path fill="none" stroke="#757575" d="M250.511,-252.952C268.17,-249.836 287.315,-246.498 305,-243.5 318.302,-241.245 332.423,-238.902 346.174,-236.647"/>
<polygon fill="#757575" stroke="#757575" points="346.8,-240.091 356.104,-235.023 345.67,-233.183 346.8,-240.091"/>
</g>
<!-- components/output.js -->
<g id="node8" class="node"><title>components/output.js</title>
<path fill="none" stroke="#cfffac" d="M497.333,-358C497.333,-358 360.667,-358 360.667,-358 356.833,-358 353,-354.167 353,-350.333 353,-350.333 353,-342.667 353,-342.667 353,-338.833 356.833,-335 360.667,-335 360.667,-335 497.333,-335 497.333,-335 501.167,-335 505,-338.833 505,-342.667 505,-342.667 505,-350.333 505,-350.333 505,-354.167 501.167,-358 497.333,-358"/>
<text text-anchor="middle" x="429" y="-342.8" font-family="Arial" font-size="14.00" fill="#cfffac">components/output.js</text>
</g>
<!-- components/appRoot.js&#45;&gt;components/output.js -->
<g id="edge5" class="edge"><title>components/appRoot.js&#45;&gt;components/output.js</title>
<path fill="none" stroke="#757575" d="M204.188,-276.061C226.891,-289.955 267.334,-312.96 305,-325.5 317.12,-329.535 330.183,-332.826 343.112,-335.501"/>
<polygon fill="#757575" stroke="#757575" points="342.467,-338.941 352.954,-337.428 343.813,-332.071 342.467,-338.941"/>
</g>
<!-- components/statBar.js -->
<g id="node9" class="node"><title>components/statBar.js</title>
<path fill="none" stroke="#c6c5fe" d="M500.333,-317C500.333,-317 357.667,-317 357.667,-317 353.833,-317 350,-313.167 350,-309.333 350,-309.333 350,-301.667 350,-301.667 350,-297.833 353.833,-294 357.667,-294 357.667,-294 500.333,-294 500.333,-294 504.167,-294 508,-297.833 508,-301.667 508,-301.667 508,-309.333 508,-309.333 508,-313.167 504.167,-317 500.333,-317"/>
<text text-anchor="middle" x="429" y="-301.8" font-family="Arial" font-size="14.00" fill="#c6c5fe">components/statBar.js</text>
</g>
<!-- components/appRoot.js&#45;&gt;components/statBar.js -->
<g id="edge6" class="edge"><title>components/appRoot.js&#45;&gt;components/statBar.js</title>
<path fill="none" stroke="#757575" d="M254.054,-276.03C283.951,-281.095 319.22,-287.07 350.157,-292.312"/>
<polygon fill="#757575" stroke="#757575" points="349.593,-295.766 360.037,-293.986 350.763,-288.864 349.593,-295.766"/>
</g>
<!-- components/buttonGrid.js -->
<g id="node11" class="node"><title>components/buttonGrid.js</title>
<path fill="none" stroke="#c6c5fe" d="M768.333,-276C768.333,-276 604.667,-276 604.667,-276 600.833,-276 597,-272.167 597,-268.333 597,-268.333 597,-260.667 597,-260.667 597,-256.833 600.833,-253 604.667,-253 604.667,-253 768.333,-253 768.333,-253 772.167,-253 776,-256.833 776,-260.667 776,-260.667 776,-268.333 776,-268.333 776,-272.167 772.167,-276 768.333,-276"/>
<text text-anchor="middle" x="686.5" y="-260.8" font-family="Arial" font-size="14.00" fill="#c6c5fe">components/buttonGrid.js</text>
</g>
<!-- components/lowerButtons.js&#45;&gt;components/buttonGrid.js -->
<g id="edge11" class="edge"><title>components/lowerButtons.js&#45;&gt;components/buttonGrid.js</title>
<path fill="none" stroke="#757575" d="M526.594,-264.5C546.209,-264.5 566.868,-264.5 586.562,-264.5"/>
<polygon fill="#757575" stroke="#757575" points="586.763,-268 596.763,-264.5 586.763,-261 586.763,-268"/>
</g>
<!-- components/menuBar.js&#45;&gt;components/buttonGrid.js -->
<g id="edge12" class="edge"><title>components/menuBar.js&#45;&gt;components/buttonGrid.js</title>
<path fill="none" stroke="#757575" d="M501.851,-235.03C533.552,-240.117 570.974,-246.122 603.739,-251.38"/>
<polygon fill="#757575" stroke="#757575" points="603.318,-254.857 613.746,-252.986 604.427,-247.945 603.318,-254.857"/>
</g>
<!-- components/spriteDisplay.js -->
<g id="node13" class="node"><title>components/spriteDisplay.js</title>
<path fill="none" stroke="#cfffac" d="M776.333,-317C776.333,-317 596.667,-317 596.667,-317 592.833,-317 589,-313.167 589,-309.333 589,-309.333 589,-301.667 589,-301.667 589,-297.833 592.833,-294 596.667,-294 596.667,-294 776.333,-294 776.333,-294 780.167,-294 784,-297.833 784,-301.667 784,-301.667 784,-309.333 784,-309.333 784,-313.167 780.167,-317 776.333,-317"/>
<text text-anchor="middle" x="686.5" y="-301.8" font-family="Arial" font-size="14.00" fill="#cfffac">components/spriteDisplay.js</text>
</g>
<!-- components/statBar.js&#45;&gt;components/spriteDisplay.js -->
<g id="edge13" class="edge"><title>components/statBar.js&#45;&gt;components/spriteDisplay.js</title>
<path fill="none" stroke="#757575" d="M508.047,-305.5C530.39,-305.5 555.136,-305.5 578.881,-305.5"/>
<polygon fill="#757575" stroke="#757575" points="578.986,-309 588.986,-305.5 578.986,-302 578.986,-309"/>
</g>
<!-- components/statDisplay.js -->
<g id="node14" class="node"><title>components/statDisplay.js</title>
<path fill="none" stroke="#cfffac" d="M769.833,-358C769.833,-358 603.167,-358 603.167,-358 599.333,-358 595.5,-354.167 595.5,-350.333 595.5,-350.333 595.5,-342.667 595.5,-342.667 595.5,-338.833 599.333,-335 603.167,-335 603.167,-335 769.833,-335 769.833,-335 773.667,-335 777.5,-338.833 777.5,-342.667 777.5,-342.667 777.5,-350.333 777.5,-350.333 777.5,-354.167 773.667,-358 769.833,-358"/>
<text text-anchor="middle" x="686.5" y="-342.8" font-family="Arial" font-size="14.00" fill="#cfffac">components/statDisplay.js</text>
</g>
<!-- components/statBar.js&#45;&gt;components/statDisplay.js -->
<g id="edge14" class="edge"><title>components/statBar.js&#45;&gt;components/statDisplay.js</title>
<path fill="none" stroke="#757575" d="M501.851,-317.03C533.552,-322.117 570.974,-328.122 603.739,-333.38"/>
<polygon fill="#757575" stroke="#757575" points="603.318,-336.857 613.746,-334.986 604.427,-329.945 603.318,-336.857"/>
</g>
<!-- components/timeDisplay.js -->
<g id="node15" class="node"><title>components/timeDisplay.js</title>
<path fill="none" stroke="#cfffac" d="M772.333,-399C772.333,-399 600.667,-399 600.667,-399 596.833,-399 593,-395.167 593,-391.333 593,-391.333 593,-383.667 593,-383.667 593,-379.833 596.833,-376 600.667,-376 600.667,-376 772.333,-376 772.333,-376 776.167,-376 780,-379.833 780,-383.667 780,-383.667 780,-391.333 780,-391.333 780,-395.167 776.167,-399 772.333,-399"/>
<text text-anchor="middle" x="686.5" y="-383.8" font-family="Arial" font-size="14.00" fill="#cfffac">components/timeDisplay.js</text>
</g>
<!-- components/statBar.js&#45;&gt;components/timeDisplay.js -->
<g id="edge15" class="edge"><title>components/statBar.js&#45;&gt;components/timeDisplay.js</title>
<path fill="none" stroke="#757575" d="M508.165,-309.949C523.682,-313.071 539.373,-317.954 553,-325.5 574.214,-337.247 568.105,-354.194 589,-366.5 592.474,-368.546 596.124,-370.394 599.889,-372.061"/>
<polygon fill="#757575" stroke="#757575" points="598.861,-375.419 609.447,-375.849 601.439,-368.911 598.861,-375.419"/>
</g>
<!-- components/button.js -->
<g id="node10" class="node"><title>components/button.js</title>
<path fill="none" stroke="#cfffac" d="M1290.33,-345C1290.33,-345 1153.67,-345 1153.67,-345 1149.83,-345 1146,-341.167 1146,-337.333 1146,-337.333 1146,-329.667 1146,-329.667 1146,-325.833 1149.83,-322 1153.67,-322 1153.67,-322 1290.33,-322 1290.33,-322 1294.17,-322 1298,-325.833 1298,-329.667 1298,-329.667 1298,-337.333 1298,-337.333 1298,-341.167 1294.17,-345 1290.33,-345"/>
<text text-anchor="middle" x="1222" y="-329.8" font-family="Arial" font-size="14.00" fill="#cfffac">components/button.js</text>
</g>
<!-- components/buttonGrid.js&#45;&gt;actions/Core.js -->
<g id="edge7" class="edge"><title>components/buttonGrid.js&#45;&gt;actions/Core.js</title>
<path fill="none" stroke="#757575" d="M776.117,-270.695C810.379,-273.09 848.854,-275.779 880.417,-277.985"/>
<polygon fill="#757575" stroke="#757575" points="880.188,-281.478 890.408,-278.684 880.677,-274.495 880.188,-281.478"/>
</g>
<!-- components/buttonGrid.js&#45;&gt;actions/UI.js -->
<g id="edge8" class="edge"><title>components/buttonGrid.js&#45;&gt;actions/UI.js</title>
<path fill="none" stroke="#757575" d="M709.751,-252.835C735.507,-239.956 779.575,-219.813 820,-210.5 1102.49,-145.418 1453.82,-172.552 1588.93,-186.822"/>
<polygon fill="#757575" stroke="#757575" points="1588.73,-190.32 1599.05,-187.909 1589.48,-183.36 1588.73,-190.32"/>
</g>
<!-- components/buttonWrap.js -->
<g id="node12" class="node"><title>components/buttonWrap.js</title>
<path fill="none" stroke="#c6c5fe" d="M1031.83,-340C1031.83,-340 860.167,-340 860.167,-340 856.333,-340 852.5,-336.167 852.5,-332.333 852.5,-332.333 852.5,-324.667 852.5,-324.667 852.5,-320.833 856.333,-317 860.167,-317 860.167,-317 1031.83,-317 1031.83,-317 1035.67,-317 1039.5,-320.833 1039.5,-324.667 1039.5,-324.667 1039.5,-332.333 1039.5,-332.333 1039.5,-336.167 1035.67,-340 1031.83,-340"/>
<text text-anchor="middle" x="946" y="-324.8" font-family="Arial" font-size="14.00" fill="#c6c5fe">components/buttonWrap.js</text>
</g>
<!-- components/buttonGrid.js&#45;&gt;components/buttonWrap.js -->
<g id="edge9" class="edge"><title>components/buttonGrid.js&#45;&gt;components/buttonWrap.js</title>
<path fill="none" stroke="#757575" d="M754.56,-276.047C764.544,-278.441 774.625,-281.247 784,-284.5 800.9,-290.364 803.102,-296.63 820,-302.5 833.865,-307.317 848.921,-311.381 863.624,-314.76"/>
<polygon fill="#757575" stroke="#757575" points="863.208,-318.253 873.727,-316.991 864.717,-311.418 863.208,-318.253"/>
</g>
<!-- components/buttonWrap.js&#45;&gt;components/button.js -->
<g id="edge10" class="edge"><title>components/buttonWrap.js&#45;&gt;components/button.js</title>
<path fill="none" stroke="#757575" d="M1039.76,-330.193C1070.73,-330.758 1105.07,-331.385 1135.46,-331.939"/>
<polygon fill="#757575" stroke="#757575" points="1135.54,-335.441 1145.61,-332.124 1135.67,-328.442 1135.54,-335.441"/>
</g>
<!-- components/tests/timeDisplay.test.js -->
<g id="node16" class="node"><title>components/tests/timeDisplay.test.js</title>
<path fill="none" stroke="#c6c5fe" d="M545.333,-399C545.333,-399 312.667,-399 312.667,-399 308.833,-399 305,-395.167 305,-391.333 305,-391.333 305,-383.667 305,-383.667 305,-379.833 308.833,-376 312.667,-376 312.667,-376 545.333,-376 545.333,-376 549.167,-376 553,-379.833 553,-383.667 553,-383.667 553,-391.333 553,-391.333 553,-395.167 549.167,-399 545.333,-399"/>
<text text-anchor="middle" x="429" y="-383.8" font-family="Arial" font-size="14.00" fill="#c6c5fe">components/tests/timeDisplay.test.js</text>
</g>
<!-- components/tests/timeDisplay.test.js&#45;&gt;components/timeDisplay.js -->
<g id="edge16" class="edge"><title>components/tests/timeDisplay.test.js&#45;&gt;components/timeDisplay.js</title>
<path fill="none" stroke="#757575" d="M553.26,-387.5C563.109,-387.5 572.995,-387.5 582.682,-387.5"/>
<polygon fill="#757575" stroke="#757575" points="582.694,-391 592.694,-387.5 582.694,-384 582.694,-391"/>
</g>
<!-- index.js -->
<g id="node17" class="node"><title>index.js</title>
<path fill="none" stroke="#c6c5fe" d="M57.3333,-227C57.3333,-227 7.66667,-227 7.66667,-227 3.83333,-227 0,-223.167 0,-219.333 0,-219.333 0,-211.667 0,-211.667 0,-207.833 3.83333,-204 7.66667,-204 7.66667,-204 57.3333,-204 57.3333,-204 61.1667,-204 65,-207.833 65,-211.667 65,-211.667 65,-219.333 65,-219.333 65,-223.167 61.1667,-227 57.3333,-227"/>
<text text-anchor="middle" x="32.5" y="-211.8" font-family="Arial" font-size="14.00" fill="#c6c5fe">index.js</text>
</g>
<!-- index.js&#45;&gt;components/appRoot.js -->
<g id="edge17" class="edge"><title>index.js&#45;&gt;components/appRoot.js</title>
<path fill="none" stroke="#757575" d="M65.0497,-225.772C86.4889,-232.752 115.17,-242.09 138.998,-249.848"/>
<polygon fill="#757575" stroke="#757575" points="137.946,-253.186 148.538,-252.954 140.113,-246.53 137.946,-253.186"/>
</g>
<!-- store/store.js -->
<g id="node18" class="node"><title>store/store.js</title>
<path fill="none" stroke="#c6c5fe" d="M728.333,-144C728.333,-144 644.667,-144 644.667,-144 640.833,-144 637,-140.167 637,-136.333 637,-136.333 637,-128.667 637,-128.667 637,-124.833 640.833,-121 644.667,-121 644.667,-121 728.333,-121 728.333,-121 732.167,-121 736,-124.833 736,-128.667 736,-128.667 736,-136.333 736,-136.333 736,-140.167 732.167,-144 728.333,-144"/>
<text text-anchor="middle" x="686.5" y="-128.8" font-family="Arial" font-size="14.00" fill="#c6c5fe">store/store.js</text>
</g>
<!-- index.js&#45;&gt;store/store.js -->
<g id="edge18" class="edge"><title>index.js&#45;&gt;store/store.js</title>
<path fill="none" stroke="#757575" d="M65.3887,-211.441C168.298,-198.34 492.659,-157.049 626.676,-139.988"/>
<polygon fill="#757575" stroke="#757575" points="627.278,-143.44 636.755,-138.705 626.394,-136.496 627.278,-143.44"/>
</g>
<!-- reducers/root.js -->
<g id="node19" class="node"><title>reducers/root.js</title>
<path fill="none" stroke="#c6c5fe" d="M996.333,-104C996.333,-104 895.667,-104 895.667,-104 891.833,-104 888,-100.167 888,-96.3333 888,-96.3333 888,-88.6667 888,-88.6667 888,-84.8333 891.833,-81 895.667,-81 895.667,-81 996.333,-81 996.333,-81 1000.17,-81 1004,-84.8333 1004,-88.6667 1004,-88.6667 1004,-96.3333 1004,-96.3333 1004,-100.167 1000.17,-104 996.333,-104"/>
<text text-anchor="middle" x="946" y="-88.8" font-family="Arial" font-size="14.00" fill="#c6c5fe">reducers/root.js</text>
</g>
<!-- store/store.js&#45;&gt;reducers/root.js -->
<g id="edge39" class="edge"><title>store/store.js&#45;&gt;reducers/root.js</title>
<path fill="none" stroke="#757575" d="M736.237,-124.929C776.276,-118.71 833.42,-109.833 877.802,-102.938"/>
<polygon fill="#757575" stroke="#757575" points="878.583,-106.359 887.927,-101.366 877.509,-99.4422 878.583,-106.359"/>
</g>
<!-- store/initialState.js -->
<g id="node23" class="node"><title>store/initialState.js</title>
<path fill="none" stroke="#c6c5fe" d="M1279.83,-144C1279.83,-144 1164.17,-144 1164.17,-144 1160.33,-144 1156.5,-140.167 1156.5,-136.333 1156.5,-136.333 1156.5,-128.667 1156.5,-128.667 1156.5,-124.833 1160.33,-121 1164.17,-121 1164.17,-121 1279.83,-121 1279.83,-121 1283.67,-121 1287.5,-124.833 1287.5,-128.667 1287.5,-128.667 1287.5,-136.333 1287.5,-136.333 1287.5,-140.167 1283.67,-144 1279.83,-144"/>
<text text-anchor="middle" x="1222" y="-128.8" font-family="Arial" font-size="14.00" fill="#c6c5fe">store/initialState.js</text>
</g>
<!-- store/store.js&#45;&gt;store/initialState.js -->
<g id="edge40" class="edge"><title>store/store.js&#45;&gt;store/initialState.js</title>
<path fill="none" stroke="#757575" d="M736.259,-132.5C829.799,-132.5 1035,-132.5 1146.05,-132.5"/>
<polygon fill="#757575" stroke="#757575" points="1146.17,-136 1156.17,-132.5 1146.17,-129 1146.17,-136"/>
</g>
<!-- reducers/root.js&#45;&gt;actions/UI.js -->
<g id="edge19" class="edge"><title>reducers/root.js&#45;&gt;actions/UI.js</title>
<path fill="none" stroke="#757575" d="M1004.18,-82.7622C1034.86,-78.0251 1073.38,-72.8544 1108,-70.5 1209.1,-63.6245 1236.47,-51.4481 1336,-70.5 1443.68,-91.113 1561.64,-148.67 1615.58,-177.135"/>
<polygon fill="#757575" stroke="#757575" points="1614.12,-180.32 1624.59,-181.933 1617.41,-174.142 1614.12,-180.32"/>
</g>
<!-- reducers/updateLowerButtonUI.js -->
<g id="node20" class="node"><title>reducers/updateLowerButtonUI.js</title>
<path fill="none" stroke="#cfffac" d="M1328.33,-103C1328.33,-103 1115.67,-103 1115.67,-103 1111.83,-103 1108,-99.1667 1108,-95.3333 1108,-95.3333 1108,-87.6667 1108,-87.6667 1108,-83.8333 1111.83,-80 1115.67,-80 1115.67,-80 1328.33,-80 1328.33,-80 1332.17,-80 1336,-83.8333 1336,-87.6667 1336,-87.6667 1336,-95.3333 1336,-95.3333 1336,-99.1667 1332.17,-103 1328.33,-103"/>
<text text-anchor="middle" x="1222" y="-87.8" font-family="Arial" font-size="14.00" fill="#cfffac">reducers/updateLowerButtonUI.js</text>
</g>
<!-- reducers/root.js&#45;&gt;reducers/updateLowerButtonUI.js -->
<g id="edge20" class="edge"><title>reducers/root.js&#45;&gt;reducers/updateLowerButtonUI.js</title>
<path fill="none" stroke="#757575" d="M1004.11,-92.2916C1031.32,-92.1922 1065.01,-92.0693 1097.65,-91.9502"/>
<polygon fill="#757575" stroke="#757575" points="1097.75,-95.4499 1107.74,-91.9134 1097.73,-88.45 1097.75,-95.4499"/>
</g>
<!-- reducers/updateMenuBar.js -->
<g id="node21" class="node"><title>reducers/updateMenuBar.js</title>
<path fill="none" stroke="#c6c5fe" d="M1309.83,-224C1309.83,-224 1134.17,-224 1134.17,-224 1130.33,-224 1126.5,-220.167 1126.5,-216.333 1126.5,-216.333 1126.5,-208.667 1126.5,-208.667 1126.5,-204.833 1130.33,-201 1134.17,-201 1134.17,-201 1309.83,-201 1309.83,-201 1313.67,-201 1317.5,-204.833 1317.5,-208.667 1317.5,-208.667 1317.5,-216.333 1317.5,-216.333 1317.5,-220.167 1313.67,-224 1309.83,-224"/>
<text text-anchor="middle" x="1222" y="-208.8" font-family="Arial" font-size="14.00" fill="#c6c5fe">reducers/updateMenuBar.js</text>
</g>
<!-- reducers/root.js&#45;&gt;reducers/updateMenuBar.js -->
<g id="edge21" class="edge"><title>reducers/root.js&#45;&gt;reducers/updateMenuBar.js</title>
<path fill="none" stroke="#757575" d="M973.272,-104.006C1022.65,-125.633 1129.36,-172.368 1185.24,-196.838"/>
<polygon fill="#757575" stroke="#757575" points="1183.84,-200.047 1194.4,-200.852 1186.65,-193.635 1183.84,-200.047"/>
</g>
<!-- reducers/updateStatUI.js -->
<g id="node22" class="node"><title>reducers/updateStatUI.js</title>
<path fill="none" stroke="#cfffac" d="M1300.83,-23C1300.83,-23 1143.17,-23 1143.17,-23 1139.33,-23 1135.5,-19.1667 1135.5,-15.3333 1135.5,-15.3333 1135.5,-7.66667 1135.5,-7.66667 1135.5,-3.83333 1139.33,-0 1143.17,-0 1143.17,-0 1300.83,-0 1300.83,-0 1304.67,-0 1308.5,-3.83333 1308.5,-7.66667 1308.5,-7.66667 1308.5,-15.3333 1308.5,-15.3333 1308.5,-19.1667 1304.67,-23 1300.83,-23"/>
<text text-anchor="middle" x="1222" y="-7.8" font-family="Arial" font-size="14.00" fill="#cfffac">reducers/updateStatUI.js</text>
</g>
<!-- reducers/root.js&#45;&gt;reducers/updateStatUI.js -->
<g id="edge22" class="edge"><title>reducers/root.js&#45;&gt;reducers/updateStatUI.js</title>
<path fill="none" stroke="#757575" d="M977.865,-80.8948C1010.06,-69.0429 1062.12,-50.576 1108,-37.5 1123.33,-33.1319 1139.98,-28.9791 1155.67,-25.3262"/>
<polygon fill="#757575" stroke="#757575" points="1156.86,-28.6456 1165.82,-23.0007 1155.29,-21.8223 1156.86,-28.6456"/>
</g>
<!-- reducers/root.js&#45;&gt;store/initialState.js -->
<g id="edge23" class="edge"><title>reducers/root.js&#45;&gt;store/initialState.js</title>
<path fill="none" stroke="#757575" d="M1004.11,-100.837C1045.37,-106.861 1101.5,-115.055 1146.32,-121.598"/>
<polygon fill="#757575" stroke="#757575" points="1145.88,-125.071 1156.28,-123.052 1146.89,-118.144 1145.88,-125.071"/>
</g>
<!-- reducers/updateMenuBar.js&#45;&gt;scenes/menus.js -->
<g id="edge27" class="edge"><title>reducers/updateMenuBar.js&#45;&gt;scenes/menus.js</title>
<path fill="none" stroke="#757575" d="M1288.79,-224.016C1317.44,-229.033 1351.1,-234.924 1380.34,-240.043"/>
<polygon fill="#757575" stroke="#757575" points="1380.03,-243.542 1390.48,-241.818 1381.23,-236.646 1380.03,-243.542"/>
</g>
<!-- store/initialState.js&#45;&gt;scenes/menus.js -->
<g id="edge38" class="edge"><title>store/initialState.js&#45;&gt;scenes/menus.js</title>
<path fill="none" stroke="#757575" d="M1251.58,-144.006C1275.48,-154.398 1309.77,-171.157 1336,-191.5 1354.9,-206.156 1351.59,-219.037 1372,-231.5 1375.4,-233.575 1379,-235.447 1382.72,-237.135"/>
<polygon fill="#757575" stroke="#757575" points="1381.58,-240.45 1392.16,-240.966 1384.21,-233.964 1381.58,-240.45"/>
</g>
<!-- reducers/tests/updateMenuBar.test.js -->
<g id="node24" class="node"><title>reducers/tests/updateMenuBar.test.js</title>
<path fill="none" stroke="#c6c5fe" d="M1064.33,-243C1064.33,-243 827.667,-243 827.667,-243 823.833,-243 820,-239.167 820,-235.333 820,-235.333 820,-227.667 820,-227.667 820,-223.833 823.833,-220 827.667,-220 827.667,-220 1064.33,-220 1064.33,-220 1068.17,-220 1072,-223.833 1072,-227.667 1072,-227.667 1072,-235.333 1072,-235.333 1072,-239.167 1068.17,-243 1064.33,-243"/>
<text text-anchor="middle" x="946" y="-227.8" font-family="Arial" font-size="14.00" fill="#c6c5fe">reducers/tests/updateMenuBar.test.js</text>
</g>
<!-- reducers/tests/updateMenuBar.test.js&#45;&gt;reducers/updateMenuBar.js -->
<g id="edge24" class="edge"><title>reducers/tests/updateMenuBar.test.js&#45;&gt;reducers/updateMenuBar.js</title>
<path fill="none" stroke="#757575" d="M1072.37,-222.806C1087,-221.792 1101.81,-220.765 1116.12,-219.773"/>
<polygon fill="#757575" stroke="#757575" points="1116.7,-223.241 1126.44,-219.057 1116.22,-216.257 1116.7,-223.241"/>
</g>
<!-- reducers/tests/updateMenuBar.test.js&#45;&gt;scenes/menus.js -->
<g id="edge25" class="edge"><title>reducers/tests/updateMenuBar.test.js&#45;&gt;scenes/menus.js</title>
<path fill="none" stroke="#757575" d="M1072.03,-236.704C1168.94,-240.738 1299.78,-246.184 1379.76,-249.514"/>
<polygon fill="#757575" stroke="#757575" points="1380.08,-253.03 1390.22,-249.949 1380.37,-246.036 1380.08,-253.03"/>
</g>
<!-- scenes/menus.js&#45;&gt;actions/UI.js -->
<g id="edge31" class="edge"><title>scenes/menus.js&#45;&gt;actions/UI.js</title>
<path fill="none" stroke="#757575" d="M1499.47,-240.921C1510.49,-237.989 1522.2,-234.746 1533,-231.5 1536.56,-230.429 1571.89,-218.48 1602.02,-208.263"/>
<polygon fill="#757575" stroke="#757575" points="1603.22,-211.55 1611.57,-205.023 1600.98,-204.921 1603.22,-211.55"/>
</g>
<!-- scenes/sceneStore.js -->
<g id="node28" class="node"><title>scenes/sceneStore.js</title>
<path fill="none" stroke="#c6c5fe" d="M1716.33,-285C1716.33,-285 1576.67,-285 1576.67,-285 1572.83,-285 1569,-281.167 1569,-277.333 1569,-277.333 1569,-269.667 1569,-269.667 1569,-265.833 1572.83,-262 1576.67,-262 1576.67,-262 1716.33,-262 1716.33,-262 1720.17,-262 1724,-265.833 1724,-269.667 1724,-269.667 1724,-277.333 1724,-277.333 1724,-281.167 1720.17,-285 1716.33,-285"/>
<text text-anchor="middle" x="1646.5" y="-269.8" font-family="Arial" font-size="14.00" fill="#c6c5fe">scenes/sceneStore.js</text>
</g>
<!-- scenes/menus.js&#45;&gt;scenes/sceneStore.js -->
<g id="edge32" class="edge"><title>scenes/menus.js&#45;&gt;scenes/sceneStore.js</title>
<path fill="none" stroke="#757575" d="M1514.51,-259.173C1528.52,-260.705 1543.68,-262.363 1558.55,-263.989"/>
<polygon fill="#757575" stroke="#757575" points="1558.45,-267.5 1568.77,-265.108 1559.21,-260.541 1558.45,-267.5"/>
</g>
<!-- scenes/menus.js&#45;&gt;scenes/sceneSymbols.js -->
<g id="edge33" class="edge"><title>scenes/menus.js&#45;&gt;scenes/sceneSymbols.js</title>
<path fill="none" stroke="#757575" d="M1514.65,-246.947C1569.77,-243.253 1652.84,-240.953 1724,-252.5 1754.27,-257.412 1787.15,-268.707 1811.3,-278.2"/>
<polygon fill="#757575" stroke="#757575" points="1810.17,-281.517 1820.75,-282 1812.78,-275.023 1810.17,-281.517"/>
</g>
<!-- reducers/tests/updateStatUI.test.js -->
<g id="node26" class="node"><title>reducers/tests/updateStatUI.test.js</title>
<path fill="none" stroke="#c6c5fe" d="M1055.83,-23C1055.83,-23 836.167,-23 836.167,-23 832.333,-23 828.5,-19.1667 828.5,-15.3333 828.5,-15.3333 828.5,-7.66667 828.5,-7.66667 828.5,-3.83333 832.333,-0 836.167,-0 836.167,-0 1055.83,-0 1055.83,-0 1059.67,-0 1063.5,-3.83333 1063.5,-7.66667 1063.5,-7.66667 1063.5,-15.3333 1063.5,-15.3333 1063.5,-19.1667 1059.67,-23 1055.83,-23"/>
<text text-anchor="middle" x="946" y="-7.8" font-family="Arial" font-size="14.00" fill="#c6c5fe">reducers/tests/updateStatUI.test.js</text>
</g>
<!-- reducers/tests/updateStatUI.test.js&#45;&gt;reducers/updateStatUI.js -->
<g id="edge26" class="edge"><title>reducers/tests/updateStatUI.test.js&#45;&gt;reducers/updateStatUI.js</title>
<path fill="none" stroke="#757575" d="M1063.6,-11.5C1084.06,-11.5 1105.15,-11.5 1124.98,-11.5"/>
<polygon fill="#757575" stroke="#757575" points="1125.22,-15.0001 1135.22,-11.5 1125.22,-8.0001 1125.22,-15.0001"/>
</g>
<!-- scenes/charCreation.js&#45;&gt;actions/UI.js -->
<g id="edge28" class="edge"><title>scenes/charCreation.js&#45;&gt;actions/UI.js</title>
<path fill="none" stroke="#757575" d="M1507.87,-281.9C1516.46,-279.286 1525.1,-276.172 1533,-272.5 1567.58,-256.421 1602.82,-229.637 1624.43,-211.775"/>
<polygon fill="#757575" stroke="#757575" points="1626.87,-214.292 1632.28,-205.179 1622.37,-208.933 1626.87,-214.292"/>
</g>
<!-- scenes/charCreation.js&#45;&gt;scenes/sceneStore.js -->
<g id="edge29" class="edge"><title>scenes/charCreation.js&#45;&gt;scenes/sceneStore.js</title>
<path fill="none" stroke="#757575" d="M1533.26,-285.192C1541.61,-284.322 1550.13,-283.435 1558.55,-282.557"/>
<polygon fill="#757575" stroke="#757575" points="1559.18,-286.011 1568.77,-281.493 1558.46,-279.048 1559.18,-286.011"/>
</g>
<!-- scenes/charCreation.js&#45;&gt;scenes/sceneSymbols.js -->
<g id="edge30" class="edge"><title>scenes/charCreation.js&#45;&gt;scenes/sceneSymbols.js</title>
<path fill="none" stroke="#757575" d="M1533.13,-293.5C1595.72,-293.5 1683.17,-293.5 1749.87,-293.5"/>
<polygon fill="#757575" stroke="#757575" points="1749.97,-297 1759.97,-293.5 1749.97,-290 1749.97,-297"/>
</g>
<!-- scenes/sceneStore.js&#45;&gt;scenes/sceneSymbols.js -->
<g id="edge37" class="edge"><title>scenes/sceneStore.js&#45;&gt;scenes/sceneSymbols.js</title>
<path fill="none" stroke="#757575" d="M1724.06,-281.175C1732.51,-282.023 1741.2,-282.893 1749.86,-283.761"/>
<polygon fill="#757575" stroke="#757575" points="1749.7,-287.263 1760,-284.778 1750.39,-280.298 1749.7,-287.263"/>
</g>
</g>
</svg>
