<?xml version="1.0" encoding="UTF-8" standalone="no"?>
<!DOCTYPE svg PUBLIC "-//W3C//DTD SVG 1.1//EN"
 "http://www.w3.org/Graphics/SVG/1.1/DTD/svg11.dtd">
<!-- Generated by graphviz version 2.38.0 (20140413.2041)
 -->
<!-- Title: G Pages: 1 -->
<svg width="3152pt" height="849pt"
 viewBox="0.00 0.00 3152.20 848.70" xmlns="http://www.w3.org/2000/svg" xmlns:xlink="http://www.w3.org/1999/xlink">
<g id="graph0" class="graph" transform="scale(1 1) rotate(0) translate(21.6 827.104)">
<title>G</title>
<polygon fill="#111111" stroke="none" points="-21.6,21.6 -21.6,-827.104 3130.6,-827.104 3130.6,21.6 -21.6,21.6"/>
<!-- actions/Core.js -->
<g id="node1" class="node"><title>actions/Core.js</title>
<path fill="none" stroke="#c6c5fe" d="M1740.83,-374.239C1740.83,-374.239 1645.17,-374.239 1645.17,-374.239 1641.33,-374.239 1637.5,-370.405 1637.5,-366.572 1637.5,-366.572 1637.5,-358.905 1637.5,-358.905 1637.5,-355.072 1641.33,-351.239 1645.17,-351.239 1645.17,-351.239 1740.83,-351.239 1740.83,-351.239 1744.67,-351.239 1748.5,-355.072 1748.5,-358.905 1748.5,-358.905 1748.5,-366.572 1748.5,-366.572 1748.5,-370.405 1744.67,-374.239 1740.83,-374.239"/>
<text text-anchor="middle" x="1693" y="-359.039" font-family="Arial" font-size="14.00" fill="#c6c5fe">actions/Core.js</text>
</g>
<!-- actions/coreMsg.js -->
<g id="node2" class="node"><title>actions/coreMsg.js</title>
<path fill="none" stroke="#cfffac" d="M2988.83,-530.239C2988.83,-530.239 2869.17,-530.239 2869.17,-530.239 2865.33,-530.239 2861.5,-526.405 2861.5,-522.572 2861.5,-522.572 2861.5,-514.905 2861.5,-514.905 2861.5,-511.072 2865.33,-507.239 2869.17,-507.239 2869.17,-507.239 2988.83,-507.239 2988.83,-507.239 2992.67,-507.239 2996.5,-511.072 2996.5,-514.905 2996.5,-514.905 2996.5,-522.572 2996.5,-522.572 2996.5,-526.405 2992.67,-530.239 2988.83,-530.239"/>
<text text-anchor="middle" x="2929" y="-515.039" font-family="Arial" font-size="14.00" fill="#cfffac">actions/coreMsg.js</text>
</g>
<!-- actions/Core.js&#45;&gt;actions/coreMsg.js -->
<g id="edge1" class="edge"><title>actions/Core.js&#45;&gt;actions/coreMsg.js</title>
<path fill="none" stroke="#757575" d="M1716.01,-374.431C1769.19,-402.017 1909.63,-470.923 2036,-498.739 2331.39,-563.759 2695.12,-541.227 2851.08,-526.875"/>
<polygon fill="#757575" stroke="#757575" points="2851.87,-530.317 2861.5,-525.9 2851.21,-523.347 2851.87,-530.317"/>
</g>
<!-- store/store.js -->
<g id="node3" class="node"><title>store/store.js</title>
<path fill="none" stroke="#c6c5fe" d="M2375.83,-369.239C2375.83,-369.239 2292.17,-369.239 2292.17,-369.239 2288.33,-369.239 2284.5,-365.405 2284.5,-361.572 2284.5,-361.572 2284.5,-353.905 2284.5,-353.905 2284.5,-350.072 2288.33,-346.239 2292.17,-346.239 2292.17,-346.239 2375.83,-346.239 2375.83,-346.239 2379.67,-346.239 2383.5,-350.072 2383.5,-353.905 2383.5,-353.905 2383.5,-361.572 2383.5,-361.572 2383.5,-365.405 2379.67,-369.239 2375.83,-369.239"/>
<text text-anchor="middle" x="2334" y="-354.039" font-family="Arial" font-size="14.00" fill="#c6c5fe">store/store.js</text>
</g>
<!-- actions/Core.js&#45;&gt;store/store.js -->
<g id="edge2" class="edge"><title>actions/Core.js&#45;&gt;store/store.js</title>
<path fill="none" stroke="#757575" d="M1748.76,-362.31C1868.15,-361.376 2151.04,-359.162 2274.11,-358.199"/>
<polygon fill="#757575" stroke="#757575" points="2274.48,-361.697 2284.46,-358.118 2274.43,-354.697 2274.48,-361.697"/>
</g>
<!-- reducers/root.js -->
<g id="node28" class="node"><title>reducers/root.js</title>
<path fill="none" stroke="#c6c5fe" d="M2565.33,-369.239C2565.33,-369.239 2464.67,-369.239 2464.67,-369.239 2460.83,-369.239 2457,-365.405 2457,-361.572 2457,-361.572 2457,-353.905 2457,-353.905 2457,-350.072 2460.83,-346.239 2464.67,-346.239 2464.67,-346.239 2565.33,-346.239 2565.33,-346.239 2569.17,-346.239 2573,-350.072 2573,-353.905 2573,-353.905 2573,-361.572 2573,-361.572 2573,-365.405 2569.17,-369.239 2565.33,-369.239"/>
<text text-anchor="middle" x="2515" y="-354.039" font-family="Arial" font-size="14.00" fill="#c6c5fe">reducers/root.js</text>
</g>
<!-- store/store.js&#45;&gt;reducers/root.js -->
<g id="edge66" class="edge"><title>store/store.js&#45;&gt;reducers/root.js</title>
<path fill="none" stroke="#757575" d="M2383.91,-357.739C2403.31,-357.739 2425.92,-357.739 2446.81,-357.739"/>
<polygon fill="#757575" stroke="#757575" points="2446.9,-361.239 2456.9,-357.739 2446.9,-354.239 2446.9,-361.239"/>
</g>
<!-- actions/Engine.js -->
<g id="node4" class="node"><title>actions/Engine.js</title>
<path fill="none" stroke="#c6c5fe" d="M951.833,-214.239C951.833,-214.239 843.167,-214.239 843.167,-214.239 839.333,-214.239 835.5,-210.405 835.5,-206.572 835.5,-206.572 835.5,-198.905 835.5,-198.905 835.5,-195.072 839.333,-191.239 843.167,-191.239 843.167,-191.239 951.833,-191.239 951.833,-191.239 955.667,-191.239 959.5,-195.072 959.5,-198.905 959.5,-198.905 959.5,-206.572 959.5,-206.572 959.5,-210.405 955.667,-214.239 951.833,-214.239"/>
<text text-anchor="middle" x="897.5" y="-199.039" font-family="Arial" font-size="14.00" fill="#c6c5fe">actions/Engine.js</text>
</g>
<!-- scenes/sceneFunctions.js -->
<g id="node5" class="node"><title>scenes/sceneFunctions.js</title>
<path fill="none" stroke="#c6c5fe" d="M1201.33,-214.239C1201.33,-214.239 1034.67,-214.239 1034.67,-214.239 1030.83,-214.239 1027,-210.405 1027,-206.572 1027,-206.572 1027,-198.905 1027,-198.905 1027,-195.072 1030.83,-191.239 1034.67,-191.239 1034.67,-191.239 1201.33,-191.239 1201.33,-191.239 1205.17,-191.239 1209,-195.072 1209,-198.905 1209,-198.905 1209,-206.572 1209,-206.572 1209,-210.405 1205.17,-214.239 1201.33,-214.239"/>
<text text-anchor="middle" x="1118" y="-199.039" font-family="Arial" font-size="14.00" fill="#c6c5fe">scenes/sceneFunctions.js</text>
</g>
<!-- actions/Engine.js&#45;&gt;scenes/sceneFunctions.js -->
<g id="edge3" class="edge"><title>actions/Engine.js&#45;&gt;scenes/sceneFunctions.js</title>
<path fill="none" stroke="#757575" d="M959.655,-202.739C977.394,-202.739 997.247,-202.739 1016.72,-202.739"/>
<polygon fill="#757575" stroke="#757575" points="1016.85,-206.239 1026.85,-202.739 1016.85,-199.239 1016.85,-206.239"/>
</g>
<!-- scenes/sceneFunctions.js&#45;&gt;actions/Core.js -->
<g id="edge56" class="edge"><title>scenes/sceneFunctions.js&#45;&gt;actions/Core.js</title>
<path fill="none" stroke="#757575" d="M1209.03,-199.762C1266.33,-200.042 1341.61,-204.467 1406,-221.739 1508.22,-249.159 1617.27,-314.26 1665.94,-345.47"/>
<polygon fill="#757575" stroke="#757575" points="1664.28,-348.567 1674.58,-351.063 1668.08,-342.691 1664.28,-348.567"/>
</g>
<!-- scenes/sceneFunctions.js&#45;&gt;store/store.js -->
<g id="edge61" class="edge"><title>scenes/sceneFunctions.js&#45;&gt;store/store.js</title>
<path fill="none" stroke="#757575" d="M1173.05,-191.214C1184.96,-188.372 1197.46,-185.155 1209,-181.739 1225.31,-176.909 1228.59,-173.229 1245,-168.739 1357.58,-137.932 1386.28,-119.739 1503,-119.739 1503,-119.739 1503,-119.739 1911,-119.739 2088.58,-119.739 2260.26,-281.6 2315.01,-338.357"/>
<polygon fill="#757575" stroke="#757575" points="2312.79,-341.106 2322.22,-345.936 2317.86,-336.28 2312.79,-341.106"/>
</g>
<!-- scenes/charCreation.js -->
<g id="node35" class="node"><title>scenes/charCreation.js</title>
<path fill="none" stroke="#c6c5fe" d="M1398.33,-530.239C1398.33,-530.239 1252.67,-530.239 1252.67,-530.239 1248.83,-530.239 1245,-526.405 1245,-522.572 1245,-522.572 1245,-514.905 1245,-514.905 1245,-511.072 1248.83,-507.239 1252.67,-507.239 1252.67,-507.239 1398.33,-507.239 1398.33,-507.239 1402.17,-507.239 1406,-511.072 1406,-514.905 1406,-514.905 1406,-522.572 1406,-522.572 1406,-526.405 1402.17,-530.239 1398.33,-530.239"/>
<text text-anchor="middle" x="1325.5" y="-515.039" font-family="Arial" font-size="14.00" fill="#c6c5fe">scenes/charCreation.js</text>
</g>
<!-- scenes/sceneFunctions.js&#45;&gt;scenes/charCreation.js -->
<g id="edge57" class="edge"><title>scenes/sceneFunctions.js&#45;&gt;scenes/charCreation.js</title>
<path fill="none" stroke="#757575" d="M1126.56,-214.36C1157.14,-261.394 1271.99,-437.991 1311.25,-498.359"/>
<polygon fill="#757575" stroke="#757575" points="1308.49,-500.536 1316.87,-507.012 1314.36,-496.72 1308.49,-500.536"/>
</g>
<!-- scenes/menus.js -->
<g id="node36" class="node"><title>scenes/menus.js</title>
<path fill="none" stroke="#c6c5fe" d="M1558.33,-174.239C1558.33,-174.239 1449.67,-174.239 1449.67,-174.239 1445.83,-174.239 1442,-170.405 1442,-166.572 1442,-166.572 1442,-158.905 1442,-158.905 1442,-155.072 1445.83,-151.239 1449.67,-151.239 1449.67,-151.239 1558.33,-151.239 1558.33,-151.239 1562.17,-151.239 1566,-155.072 1566,-158.905 1566,-158.905 1566,-166.572 1566,-166.572 1566,-170.405 1562.17,-174.239 1558.33,-174.239"/>
<text text-anchor="middle" x="1504" y="-159.039" font-family="Arial" font-size="14.00" fill="#c6c5fe">scenes/menus.js</text>
</g>
<!-- scenes/sceneFunctions.js&#45;&gt;scenes/menus.js -->
<g id="edge58" class="edge"><title>scenes/sceneFunctions.js&#45;&gt;scenes/menus.js</title>
<path fill="none" stroke="#757575" d="M1209.15,-192.609C1221.2,-191.288 1233.4,-189.968 1245,-188.739 1308.16,-182.047 1380.07,-174.834 1431.9,-169.706"/>
<polygon fill="#757575" stroke="#757575" points="1432.38,-173.176 1441.99,-168.709 1431.7,-166.21 1432.38,-173.176"/>
</g>
<!-- scenes/sceneSymbols.js -->
<g id="node37" class="node"><title>scenes/sceneSymbols.js</title>
<path fill="none" stroke="#cfffac" d="M3009.33,-131.239C3009.33,-131.239 2848.67,-131.239 2848.67,-131.239 2844.83,-131.239 2841,-127.405 2841,-123.572 2841,-123.572 2841,-115.905 2841,-115.905 2841,-112.072 2844.83,-108.239 2848.67,-108.239 2848.67,-108.239 3009.33,-108.239 3009.33,-108.239 3013.17,-108.239 3017,-112.072 3017,-115.905 3017,-115.905 3017,-123.572 3017,-123.572 3017,-127.405 3013.17,-131.239 3009.33,-131.239"/>
<text text-anchor="middle" x="2929" y="-116.039" font-family="Arial" font-size="14.00" fill="#cfffac">scenes/sceneSymbols.js</text>
</g>
<!-- scenes/sceneFunctions.js&#45;&gt;scenes/sceneSymbols.js -->
<g id="edge59" class="edge"><title>scenes/sceneFunctions.js&#45;&gt;scenes/sceneSymbols.js</title>
<path fill="none" stroke="#757575" d="M1191.99,-191.148C1198.03,-188.598 1203.8,-185.499 1209,-181.739 1233.89,-163.739 1220.9,-141.786 1245,-122.739 1339.61,-47.9624 1382.41,-38.7386 1503,-38.7386 1503,-38.7386 1503,-38.7386 1694,-38.7386 1978.38,-38.7386 2048.62,-5.73864 2333,-5.73864 2333,-5.73864 2333,-5.73864 2516,-5.73864 2661.36,-5.73864 2825.47,-72.4728 2894.54,-103.824"/>
<polygon fill="#757575" stroke="#757575" points="2893.48,-107.188 2904.03,-108.18 2896.41,-100.827 2893.48,-107.188"/>
</g>
<!-- scenes/tests/testing.js -->
<g id="node41" class="node"><title>scenes/tests/testing.js</title>
<path fill="none" stroke="#cfffac" d="M1396.83,-254.239C1396.83,-254.239 1254.17,-254.239 1254.17,-254.239 1250.33,-254.239 1246.5,-250.405 1246.5,-246.572 1246.5,-246.572 1246.5,-238.905 1246.5,-238.905 1246.5,-235.072 1250.33,-231.239 1254.17,-231.239 1254.17,-231.239 1396.83,-231.239 1396.83,-231.239 1400.67,-231.239 1404.5,-235.072 1404.5,-238.905 1404.5,-238.905 1404.5,-246.572 1404.5,-246.572 1404.5,-250.405 1400.67,-254.239 1396.83,-254.239"/>
<text text-anchor="middle" x="1325.5" y="-239.039" font-family="Arial" font-size="14.00" fill="#cfffac">scenes/tests/testing.js</text>
</g>
<!-- scenes/sceneFunctions.js&#45;&gt;scenes/tests/testing.js -->
<g id="edge60" class="edge"><title>scenes/sceneFunctions.js&#45;&gt;scenes/tests/testing.js</title>
<path fill="none" stroke="#757575" d="M1178.16,-214.255C1202.34,-218.961 1230.48,-224.437 1255.58,-229.323"/>
<polygon fill="#757575" stroke="#757575" points="1254.91,-232.76 1265.4,-231.235 1256.25,-225.888 1254.91,-232.76"/>
</g>
<!-- actions/Player.js -->
<g id="node6" class="node"><title>actions/Player.js</title>
<path fill="none" stroke="#c6c5fe" d="M2180.33,-490.239C2180.33,-490.239 2076.67,-490.239 2076.67,-490.239 2072.83,-490.239 2069,-486.405 2069,-482.572 2069,-482.572 2069,-474.905 2069,-474.905 2069,-471.072 2072.83,-467.239 2076.67,-467.239 2076.67,-467.239 2180.33,-467.239 2180.33,-467.239 2184.17,-467.239 2188,-471.072 2188,-474.905 2188,-474.905 2188,-482.572 2188,-482.572 2188,-486.405 2184.17,-490.239 2180.33,-490.239"/>
<text text-anchor="middle" x="2128.5" y="-475.039" font-family="Arial" font-size="14.00" fill="#c6c5fe">actions/Player.js</text>
</g>
<!-- actions/Player.js&#45;&gt;store/store.js -->
<g id="edge5" class="edge"><title>actions/Player.js&#45;&gt;store/store.js</title>
<path fill="none" stroke="#757575" d="M2149.01,-467.137C2185.25,-445.59 2263.06,-399.327 2304.94,-374.424"/>
<polygon fill="#757575" stroke="#757575" points="2306.74,-377.425 2313.55,-369.306 2303.16,-371.408 2306.74,-377.425"/>
</g>
<!-- actions/playerMsg.js -->
<g id="node7" class="node"><title>actions/playerMsg.js</title>
<path fill="none" stroke="#cfffac" d="M2993.83,-410.239C2993.83,-410.239 2864.17,-410.239 2864.17,-410.239 2860.33,-410.239 2856.5,-406.405 2856.5,-402.572 2856.5,-402.572 2856.5,-394.905 2856.5,-394.905 2856.5,-391.072 2860.33,-387.239 2864.17,-387.239 2864.17,-387.239 2993.83,-387.239 2993.83,-387.239 2997.67,-387.239 3001.5,-391.072 3001.5,-394.905 3001.5,-394.905 3001.5,-402.572 3001.5,-402.572 3001.5,-406.405 2997.67,-410.239 2993.83,-410.239"/>
<text text-anchor="middle" x="2929" y="-395.039" font-family="Arial" font-size="14.00" fill="#cfffac">actions/playerMsg.js</text>
</g>
<!-- actions/Player.js&#45;&gt;actions/playerMsg.js -->
<g id="edge4" class="edge"><title>actions/Player.js&#45;&gt;actions/playerMsg.js</title>
<path fill="none" stroke="#757575" d="M2188.05,-467.932C2209.66,-464.252 2234.39,-460.4 2257,-457.739 2499.5,-429.201 2562.47,-447.028 2805,-418.739 2820.93,-416.881 2837.94,-414.422 2854.08,-411.867"/>
<polygon fill="#757575" stroke="#757575" points="2854.68,-415.315 2864,-410.267 2853.57,-408.404 2854.68,-415.315"/>
</g>
<!-- symbols/breastCup.js -->
<g id="node8" class="node"><title>symbols/breastCup.js</title>
<path fill="none" stroke="#c6c5fe" d="M2403.33,-649.239C2403.33,-649.239 2264.67,-649.239 2264.67,-649.239 2260.83,-649.239 2257,-645.405 2257,-641.572 2257,-641.572 2257,-633.905 2257,-633.905 2257,-630.072 2260.83,-626.239 2264.67,-626.239 2264.67,-626.239 2403.33,-626.239 2403.33,-626.239 2407.17,-626.239 2411,-630.072 2411,-633.905 2411,-633.905 2411,-641.572 2411,-641.572 2411,-645.405 2407.17,-649.239 2403.33,-649.239"/>
<text text-anchor="middle" x="2334" y="-634.039" font-family="Arial" font-size="14.00" fill="#c6c5fe">symbols/breastCup.js</text>
</g>
<!-- actions/Player.js&#45;&gt;symbols/breastCup.js -->
<g id="edge6" class="edge"><title>actions/Player.js&#45;&gt;symbols/breastCup.js</title>
<path fill="none" stroke="#757575" d="M2140.62,-490.26C2157.98,-508.303 2192.48,-544.407 2221,-575.739 2237.32,-593.673 2236.45,-603.859 2257,-616.739 2260.2,-618.747 2263.6,-620.567 2267.11,-622.215"/>
<polygon fill="#757575" stroke="#757575" points="2266.05,-625.562 2276.62,-626.188 2268.75,-619.103 2266.05,-625.562"/>
</g>
<!-- symbols/cockType.js -->
<g id="node9" class="node"><title>symbols/cockType.js</title>
<path fill="none" stroke="#cfffac" d="M2401.33,-490.239C2401.33,-490.239 2266.67,-490.239 2266.67,-490.239 2262.83,-490.239 2259,-486.405 2259,-482.572 2259,-482.572 2259,-474.905 2259,-474.905 2259,-471.072 2262.83,-467.239 2266.67,-467.239 2266.67,-467.239 2401.33,-467.239 2401.33,-467.239 2405.17,-467.239 2409,-471.072 2409,-474.905 2409,-474.905 2409,-482.572 2409,-482.572 2409,-486.405 2405.17,-490.239 2401.33,-490.239"/>
<text text-anchor="middle" x="2334" y="-475.039" font-family="Arial" font-size="14.00" fill="#cfffac">symbols/cockType.js</text>
</g>
<!-- actions/Player.js&#45;&gt;symbols/cockType.js -->
<g id="edge7" class="edge"><title>actions/Player.js&#45;&gt;symbols/cockType.js</title>
<path fill="none" stroke="#757575" d="M2188.09,-478.739C2206.97,-478.739 2228.29,-478.739 2248.65,-478.739"/>
<polygon fill="#757575" stroke="#757575" points="2248.87,-482.239 2258.87,-478.739 2248.87,-475.239 2248.87,-482.239"/>
</g>
<!-- symbols/vaginas.js -->
<g id="node10" class="node"><title>symbols/vaginas.js</title>
<path fill="none" stroke="#c6c5fe" d="M2575.33,-625.239C2575.33,-625.239 2454.67,-625.239 2454.67,-625.239 2450.83,-625.239 2447,-621.405 2447,-617.572 2447,-617.572 2447,-609.905 2447,-609.905 2447,-606.072 2450.83,-602.239 2454.67,-602.239 2454.67,-602.239 2575.33,-602.239 2575.33,-602.239 2579.17,-602.239 2583,-606.072 2583,-609.905 2583,-609.905 2583,-617.572 2583,-617.572 2583,-621.405 2579.17,-625.239 2575.33,-625.239"/>
<text text-anchor="middle" x="2515" y="-610.039" font-family="Arial" font-size="14.00" fill="#c6c5fe">symbols/vaginas.js</text>
</g>
<!-- actions/Player.js&#45;&gt;symbols/vaginas.js -->
<g id="edge8" class="edge"><title>actions/Player.js&#45;&gt;symbols/vaginas.js</title>
<path fill="none" stroke="#757575" d="M2163.82,-490.297C2216.92,-508.242 2322.15,-544.044 2411,-575.739 2431.64,-583.1 2454.51,-591.513 2473.45,-598.549"/>
<polygon fill="#757575" stroke="#757575" points="2472.37,-601.881 2482.96,-602.09 2474.81,-595.321 2472.37,-601.881"/>
</g>
<!-- utils.js -->
<g id="node34" class="node"><title>utils.js</title>
<path fill="none" stroke="#cfffac" d="M3101.33,-644.239C3101.33,-644.239 3060.67,-644.239 3060.67,-644.239 3056.83,-644.239 3053,-640.405 3053,-636.572 3053,-636.572 3053,-628.905 3053,-628.905 3053,-625.072 3056.83,-621.239 3060.67,-621.239 3060.67,-621.239 3101.33,-621.239 3101.33,-621.239 3105.17,-621.239 3109,-625.072 3109,-628.905 3109,-628.905 3109,-636.572 3109,-636.572 3109,-640.405 3105.17,-644.239 3101.33,-644.239"/>
<text text-anchor="middle" x="3081" y="-629.039" font-family="Arial" font-size="14.00" fill="#cfffac">utils.js</text>
</g>
<!-- symbols/breastCup.js&#45;&gt;utils.js -->
<g id="edge67" class="edge"><title>symbols/breastCup.js&#45;&gt;utils.js</title>
<path fill="none" stroke="#757575" d="M2355.67,-649.369C2377.56,-660.966 2413.51,-677.997 2447,-684.739 2571.18,-709.737 2897.8,-727.579 3017,-684.739 3035.17,-678.207 3051.84,-663.911 3063.46,-651.959"/>
<polygon fill="#757575" stroke="#757575" points="3066.1,-654.261 3070.33,-644.548 3060.96,-649.501 3066.1,-654.261"/>
</g>
<!-- symbols/vaginas.js&#45;&gt;utils.js -->
<g id="edge72" class="edge"><title>symbols/vaginas.js&#45;&gt;utils.js</title>
<path fill="none" stroke="#757575" d="M2583.19,-616.002C2702.86,-620.034 2949.14,-628.33 3042.76,-631.484"/>
<polygon fill="#757575" stroke="#757575" points="3042.78,-634.987 3052.89,-631.825 3043.02,-627.991 3042.78,-634.987"/>
</g>
<!-- actions/engineMsg.js -->
<g id="node11" class="node"><title>actions/engineMsg.js</title>
<path fill="none" stroke="#cfffac" d="M2778.83,-289.239C2778.83,-289.239 2645.17,-289.239 2645.17,-289.239 2641.33,-289.239 2637.5,-285.405 2637.5,-281.572 2637.5,-281.572 2637.5,-273.905 2637.5,-273.905 2637.5,-270.072 2641.33,-266.239 2645.17,-266.239 2645.17,-266.239 2778.83,-266.239 2778.83,-266.239 2782.67,-266.239 2786.5,-270.072 2786.5,-273.905 2786.5,-273.905 2786.5,-281.572 2786.5,-281.572 2786.5,-285.405 2782.67,-289.239 2778.83,-289.239"/>
<text text-anchor="middle" x="2712" y="-274.039" font-family="Arial" font-size="14.00" fill="#cfffac">actions/engineMsg.js</text>
</g>
<!-- appearance/appearance.js -->
<g id="node12" class="node"><title>appearance/appearance.js</title>
<path fill="none" stroke="#c6c5fe" d="M2213.33,-608.239C2213.33,-608.239 2043.67,-608.239 2043.67,-608.239 2039.83,-608.239 2036,-604.405 2036,-600.572 2036,-600.572 2036,-592.905 2036,-592.905 2036,-589.072 2039.83,-585.239 2043.67,-585.239 2043.67,-585.239 2213.33,-585.239 2213.33,-585.239 2217.17,-585.239 2221,-589.072 2221,-592.905 2221,-592.905 2221,-600.572 2221,-600.572 2221,-604.405 2217.17,-608.239 2213.33,-608.239"/>
<text text-anchor="middle" x="2128.5" y="-593.039" font-family="Arial" font-size="14.00" fill="#c6c5fe">appearance/appearance.js</text>
</g>
<!-- appearance/appearance.js&#45;&gt;store/store.js -->
<g id="edge9" class="edge"><title>appearance/appearance.js&#45;&gt;store/store.js</title>
<path fill="none" stroke="#757575" d="M2141.08,-584.952C2158.77,-566.826 2193.35,-530.833 2221,-498.739 2257.27,-456.638 2297.17,-405.02 2318.18,-377.401"/>
<polygon fill="#757575" stroke="#757575" points="2321.05,-379.403 2324.3,-369.32 2315.47,-375.175 2321.05,-379.403"/>
</g>
<!-- appearance/appearance.js&#45;&gt;symbols/breastCup.js -->
<g id="edge10" class="edge"><title>appearance/appearance.js&#45;&gt;symbols/breastCup.js</title>
<path fill="none" stroke="#757575" d="M2186.73,-608.269C2211.32,-613.224 2240.24,-619.051 2265.85,-624.209"/>
<polygon fill="#757575" stroke="#757575" points="2265.36,-627.68 2275.85,-626.224 2266.74,-620.818 2265.36,-627.68"/>
</g>
<!-- symbols/gender.js -->
<g id="node13" class="node"><title>symbols/gender.js</title>
<path fill="none" stroke="#c6c5fe" d="M2392.83,-608.239C2392.83,-608.239 2275.17,-608.239 2275.17,-608.239 2271.33,-608.239 2267.5,-604.405 2267.5,-600.572 2267.5,-600.572 2267.5,-592.905 2267.5,-592.905 2267.5,-589.072 2271.33,-585.239 2275.17,-585.239 2275.17,-585.239 2392.83,-585.239 2392.83,-585.239 2396.67,-585.239 2400.5,-589.072 2400.5,-592.905 2400.5,-592.905 2400.5,-600.572 2400.5,-600.572 2400.5,-604.405 2396.67,-608.239 2392.83,-608.239"/>
<text text-anchor="middle" x="2334" y="-593.039" font-family="Arial" font-size="14.00" fill="#c6c5fe">symbols/gender.js</text>
</g>
<!-- appearance/appearance.js&#45;&gt;symbols/gender.js -->
<g id="edge11" class="edge"><title>appearance/appearance.js&#45;&gt;symbols/gender.js</title>
<path fill="none" stroke="#757575" d="M2221.13,-596.739C2233.21,-596.739 2245.47,-596.739 2257.24,-596.739"/>
<polygon fill="#757575" stroke="#757575" points="2257.44,-600.239 2267.44,-596.739 2257.44,-593.239 2257.44,-600.239"/>
</g>
<!-- symbols/gender.js&#45;&gt;utils.js -->
<g id="edge69" class="edge"><title>symbols/gender.js&#45;&gt;utils.js</title>
<path fill="none" stroke="#757575" d="M2384.47,-608.344C2393.39,-610.835 2402.54,-613.657 2411,-616.739 2427.63,-622.794 2429.77,-629.692 2447,-633.739 2667.9,-685.633 2944.25,-653.166 3042.9,-638.663"/>
<polygon fill="#757575" stroke="#757575" points="3043.59,-642.098 3052.96,-637.154 3042.55,-635.175 3043.59,-642.098"/>
</g>
<!-- components/appRoot.js -->
<g id="node14" class="node"><title>components/appRoot.js</title>
<path fill="none" stroke="#c6c5fe" d="M298.333,-93.2386C298.333,-93.2386 145.667,-93.2386 145.667,-93.2386 141.833,-93.2386 138,-89.4053 138,-85.572 138,-85.572 138,-77.9053 138,-77.9053 138,-74.072 141.833,-70.2386 145.667,-70.2386 145.667,-70.2386 298.333,-70.2386 298.333,-70.2386 302.167,-70.2386 306,-74.072 306,-77.9053 306,-77.9053 306,-85.572 306,-85.572 306,-89.4053 302.167,-93.2386 298.333,-93.2386"/>
<text text-anchor="middle" x="222" y="-78.0386" font-family="Arial" font-size="14.00" fill="#c6c5fe">components/appRoot.js</text>
</g>
<!-- components/lowerButtons.js -->
<g id="node15" class="node"><title>components/lowerButtons.js</title>
<path fill="none" stroke="#c6c5fe" d="M529.333,-134.239C529.333,-134.239 349.667,-134.239 349.667,-134.239 345.833,-134.239 342,-130.405 342,-126.572 342,-126.572 342,-118.905 342,-118.905 342,-115.072 345.833,-111.239 349.667,-111.239 349.667,-111.239 529.333,-111.239 529.333,-111.239 533.167,-111.239 537,-115.072 537,-118.905 537,-118.905 537,-126.572 537,-126.572 537,-130.405 533.167,-134.239 529.333,-134.239"/>
<text text-anchor="middle" x="439.5" y="-119.039" font-family="Arial" font-size="14.00" fill="#c6c5fe">components/lowerButtons.js</text>
</g>
<!-- components/appRoot.js&#45;&gt;components/lowerButtons.js -->
<g id="edge12" class="edge"><title>components/appRoot.js&#45;&gt;components/lowerButtons.js</title>
<path fill="none" stroke="#757575" d="M283.602,-93.2685C309.88,-98.2679 340.817,-104.154 368.106,-109.346"/>
<polygon fill="#757575" stroke="#757575" points="367.502,-112.794 377.98,-111.224 368.81,-105.917 367.502,-112.794"/>
</g>
<!-- components/menuBar.js -->
<g id="node16" class="node"><title>components/menuBar.js</title>
<path fill="none" stroke="#c6c5fe" d="M516.833,-175.239C516.833,-175.239 362.167,-175.239 362.167,-175.239 358.333,-175.239 354.5,-171.405 354.5,-167.572 354.5,-167.572 354.5,-159.905 354.5,-159.905 354.5,-156.072 358.333,-152.239 362.167,-152.239 362.167,-152.239 516.833,-152.239 516.833,-152.239 520.667,-152.239 524.5,-156.072 524.5,-159.905 524.5,-159.905 524.5,-167.572 524.5,-167.572 524.5,-171.405 520.667,-175.239 516.833,-175.239"/>
<text text-anchor="middle" x="439.5" y="-160.039" font-family="Arial" font-size="14.00" fill="#c6c5fe">components/menuBar.js</text>
</g>
<!-- components/appRoot.js&#45;&gt;components/menuBar.js -->
<g id="edge13" class="edge"><title>components/appRoot.js&#45;&gt;components/menuBar.js</title>
<path fill="none" stroke="#757575" d="M241.687,-93.2595C264.56,-106.896 304.845,-129.429 342,-142.739 349.207,-145.32 356.835,-147.64 364.519,-149.711"/>
<polygon fill="#757575" stroke="#757575" points="363.698,-153.114 374.253,-152.202 365.433,-146.332 363.698,-153.114"/>
</g>
<!-- components/output.js -->
<g id="node17" class="node"><title>components/output.js</title>
<path fill="none" stroke="#cfffac" d="M507.833,-52.2386C507.833,-52.2386 371.167,-52.2386 371.167,-52.2386 367.333,-52.2386 363.5,-48.4053 363.5,-44.572 363.5,-44.572 363.5,-36.9053 363.5,-36.9053 363.5,-33.072 367.333,-29.2386 371.167,-29.2386 371.167,-29.2386 507.833,-29.2386 507.833,-29.2386 511.667,-29.2386 515.5,-33.072 515.5,-36.9053 515.5,-36.9053 515.5,-44.572 515.5,-44.572 515.5,-48.4053 511.667,-52.2386 507.833,-52.2386"/>
<text text-anchor="middle" x="439.5" y="-37.0386" font-family="Arial" font-size="14.00" fill="#cfffac">components/output.js</text>
</g>
<!-- components/appRoot.js&#45;&gt;components/output.js -->
<g id="edge14" class="edge"><title>components/appRoot.js&#45;&gt;components/output.js</title>
<path fill="none" stroke="#757575" d="M283.602,-70.2087C309.88,-65.2093 340.817,-59.3233 368.106,-54.1314"/>
<polygon fill="#757575" stroke="#757575" points="368.81,-57.5604 377.98,-52.253 367.502,-50.6837 368.81,-57.5604"/>
</g>
<!-- components/statBar.js -->
<g id="node18" class="node"><title>components/statBar.js</title>
<path fill="none" stroke="#c6c5fe" d="M510.833,-93.2386C510.833,-93.2386 368.167,-93.2386 368.167,-93.2386 364.333,-93.2386 360.5,-89.4053 360.5,-85.572 360.5,-85.572 360.5,-77.9053 360.5,-77.9053 360.5,-74.072 364.333,-70.2386 368.167,-70.2386 368.167,-70.2386 510.833,-70.2386 510.833,-70.2386 514.667,-70.2386 518.5,-74.072 518.5,-77.9053 518.5,-77.9053 518.5,-85.572 518.5,-85.572 518.5,-89.4053 514.667,-93.2386 510.833,-93.2386"/>
<text text-anchor="middle" x="439.5" y="-78.0386" font-family="Arial" font-size="14.00" fill="#c6c5fe">components/statBar.js</text>
</g>
<!-- components/appRoot.js&#45;&gt;components/statBar.js -->
<g id="edge15" class="edge"><title>components/appRoot.js&#45;&gt;components/statBar.js</title>
<path fill="none" stroke="#757575" d="M306.01,-81.7386C320.557,-81.7386 335.739,-81.7386 350.418,-81.7386"/>
<polygon fill="#757575" stroke="#757575" points="350.486,-85.2387 360.486,-81.7386 350.486,-78.2387 350.486,-85.2387"/>
</g>
<!-- components/buttonGrid.js -->
<g id="node20" class="node"><title>components/buttonGrid.js</title>
<path fill="none" stroke="#c6c5fe" d="M752.333,-175.239C752.333,-175.239 588.667,-175.239 588.667,-175.239 584.833,-175.239 581,-171.405 581,-167.572 581,-167.572 581,-159.905 581,-159.905 581,-156.072 584.833,-152.239 588.667,-152.239 588.667,-152.239 752.333,-152.239 752.333,-152.239 756.167,-152.239 760,-156.072 760,-159.905 760,-159.905 760,-167.572 760,-167.572 760,-171.405 756.167,-175.239 752.333,-175.239"/>
<text text-anchor="middle" x="670.5" y="-160.039" font-family="Arial" font-size="14.00" fill="#c6c5fe">components/buttonGrid.js</text>
</g>
<!-- components/lowerButtons.js&#45;&gt;components/buttonGrid.js -->
<g id="edge19" class="edge"><title>components/lowerButtons.js&#45;&gt;components/buttonGrid.js</title>
<path fill="none" stroke="#757575" d="M504.899,-134.269C532.945,-139.29 565.986,-145.206 595.078,-150.414"/>
<polygon fill="#757575" stroke="#757575" points="594.728,-153.907 605.188,-152.224 595.962,-147.017 594.728,-153.907"/>
</g>
<!-- components/menuBar.js&#45;&gt;components/buttonGrid.js -->
<g id="edge20" class="edge"><title>components/menuBar.js&#45;&gt;components/buttonGrid.js</title>
<path fill="none" stroke="#757575" d="M524.796,-163.739C539.613,-163.739 555.157,-163.739 570.335,-163.739"/>
<polygon fill="#757575" stroke="#757575" points="570.771,-167.239 580.771,-163.739 570.771,-160.239 570.771,-167.239"/>
</g>
<!-- components/spriteDisplay.js -->
<g id="node23" class="node"><title>components/spriteDisplay.js</title>
<path fill="none" stroke="#cfffac" d="M760.333,-52.2386C760.333,-52.2386 580.667,-52.2386 580.667,-52.2386 576.833,-52.2386 573,-48.4053 573,-44.572 573,-44.572 573,-36.9053 573,-36.9053 573,-33.072 576.833,-29.2386 580.667,-29.2386 580.667,-29.2386 760.333,-29.2386 760.333,-29.2386 764.167,-29.2386 768,-33.072 768,-36.9053 768,-36.9053 768,-44.572 768,-44.572 768,-48.4053 764.167,-52.2386 760.333,-52.2386"/>
<text text-anchor="middle" x="670.5" y="-37.0386" font-family="Arial" font-size="14.00" fill="#cfffac">components/spriteDisplay.js</text>
</g>
<!-- components/statBar.js&#45;&gt;components/spriteDisplay.js -->
<g id="edge23" class="edge"><title>components/statBar.js&#45;&gt;components/spriteDisplay.js</title>
<path fill="none" stroke="#757575" d="M504.899,-70.2087C532.945,-65.1874 565.986,-59.2717 595.078,-54.0632"/>
<polygon fill="#757575" stroke="#757575" points="595.962,-57.4606 605.188,-52.253 594.728,-50.5702 595.962,-57.4606"/>
</g>
<!-- components/statDisplay.js -->
<g id="node25" class="node"><title>components/statDisplay.js</title>
<path fill="none" stroke="#c6c5fe" d="M753.833,-134.239C753.833,-134.239 587.167,-134.239 587.167,-134.239 583.333,-134.239 579.5,-130.405 579.5,-126.572 579.5,-126.572 579.5,-118.905 579.5,-118.905 579.5,-115.072 583.333,-111.239 587.167,-111.239 587.167,-111.239 753.833,-111.239 753.833,-111.239 757.667,-111.239 761.5,-115.072 761.5,-118.905 761.5,-118.905 761.5,-126.572 761.5,-126.572 761.5,-130.405 757.667,-134.239 753.833,-134.239"/>
<text text-anchor="middle" x="670.5" y="-119.039" font-family="Arial" font-size="14.00" fill="#c6c5fe">components/statDisplay.js</text>
</g>
<!-- components/statBar.js&#45;&gt;components/statDisplay.js -->
<g id="edge24" class="edge"><title>components/statBar.js&#45;&gt;components/statDisplay.js</title>
<path fill="none" stroke="#757575" d="M504.899,-93.2685C532.945,-98.2899 565.986,-104.206 595.078,-109.414"/>
<polygon fill="#757575" stroke="#757575" points="594.728,-112.907 605.188,-111.224 595.962,-106.017 594.728,-112.907"/>
</g>
<!-- components/timeDisplay.js -->
<g id="node26" class="node"><title>components/timeDisplay.js</title>
<path fill="none" stroke="#cfffac" d="M756.333,-93.2386C756.333,-93.2386 584.667,-93.2386 584.667,-93.2386 580.833,-93.2386 577,-89.4053 577,-85.572 577,-85.572 577,-77.9053 577,-77.9053 577,-74.072 580.833,-70.2386 584.667,-70.2386 584.667,-70.2386 756.333,-70.2386 756.333,-70.2386 760.167,-70.2386 764,-74.072 764,-77.9053 764,-77.9053 764,-85.572 764,-85.572 764,-89.4053 760.167,-93.2386 756.333,-93.2386"/>
<text text-anchor="middle" x="670.5" y="-78.0386" font-family="Arial" font-size="14.00" fill="#cfffac">components/timeDisplay.js</text>
</g>
<!-- components/statBar.js&#45;&gt;components/timeDisplay.js -->
<g id="edge25" class="edge"><title>components/statBar.js&#45;&gt;components/timeDisplay.js</title>
<path fill="none" stroke="#757575" d="M518.668,-81.7386C533.974,-81.7386 550.245,-81.7386 566.223,-81.7386"/>
<polygon fill="#757575" stroke="#757575" points="566.666,-85.2387 576.666,-81.7386 566.666,-78.2387 566.666,-85.2387"/>
</g>
<!-- components/button.js -->
<g id="node19" class="node"><title>components/button.js</title>
<path fill="none" stroke="#cfffac" d="M1186.33,-173.239C1186.33,-173.239 1049.67,-173.239 1049.67,-173.239 1045.83,-173.239 1042,-169.405 1042,-165.572 1042,-165.572 1042,-157.905 1042,-157.905 1042,-154.072 1045.83,-150.239 1049.67,-150.239 1049.67,-150.239 1186.33,-150.239 1186.33,-150.239 1190.17,-150.239 1194,-154.072 1194,-157.905 1194,-157.905 1194,-165.572 1194,-165.572 1194,-169.405 1190.17,-173.239 1186.33,-173.239"/>
<text text-anchor="middle" x="1118" y="-158.039" font-family="Arial" font-size="14.00" fill="#cfffac">components/button.js</text>
</g>
<!-- components/buttonGrid.js&#45;&gt;actions/Engine.js -->
<g id="edge16" class="edge"><title>components/buttonGrid.js&#45;&gt;actions/Engine.js</title>
<path fill="none" stroke="#757575" d="M738.094,-175.282C765.562,-180.043 797.437,-185.568 825.361,-190.408"/>
<polygon fill="#757575" stroke="#757575" points="825.004,-193.898 835.455,-192.158 826.2,-187.001 825.004,-193.898"/>
</g>
<!-- components/buttonWrap.js -->
<g id="node21" class="node"><title>components/buttonWrap.js</title>
<path fill="none" stroke="#c6c5fe" d="M983.333,-173.239C983.333,-173.239 811.667,-173.239 811.667,-173.239 807.833,-173.239 804,-169.405 804,-165.572 804,-165.572 804,-157.905 804,-157.905 804,-154.072 807.833,-150.239 811.667,-150.239 811.667,-150.239 983.333,-150.239 983.333,-150.239 987.167,-150.239 991,-154.072 991,-157.905 991,-157.905 991,-165.572 991,-165.572 991,-169.405 987.167,-173.239 983.333,-173.239"/>
<text text-anchor="middle" x="897.5" y="-158.039" font-family="Arial" font-size="14.00" fill="#c6c5fe">components/buttonWrap.js</text>
</g>
<!-- components/buttonGrid.js&#45;&gt;components/buttonWrap.js -->
<g id="edge17" class="edge"><title>components/buttonGrid.js&#45;&gt;components/buttonWrap.js</title>
<path fill="none" stroke="#757575" d="M760.103,-162.951C771.119,-162.853 782.455,-162.752 793.663,-162.653"/>
<polygon fill="#757575" stroke="#757575" points="793.938,-166.151 803.906,-162.562 793.876,-159.151 793.938,-166.151"/>
</g>
<!-- components/buttonWrap.js&#45;&gt;components/button.js -->
<g id="edge18" class="edge"><title>components/buttonWrap.js&#45;&gt;components/button.js</title>
<path fill="none" stroke="#757575" d="M991.164,-161.739C1004.6,-161.739 1018.39,-161.739 1031.67,-161.739"/>
<polygon fill="#757575" stroke="#757575" points="1031.72,-165.239 1041.72,-161.739 1031.72,-158.239 1031.72,-165.239"/>
</g>
<!-- components/nameInput.js -->
<g id="node22" class="node"><title>components/nameInput.js</title>
<path fill="none" stroke="#c6c5fe" d="M1992.33,-334.239C1992.33,-334.239 1827.67,-334.239 1827.67,-334.239 1823.83,-334.239 1820,-330.405 1820,-326.572 1820,-326.572 1820,-318.905 1820,-318.905 1820,-315.072 1823.83,-311.239 1827.67,-311.239 1827.67,-311.239 1992.33,-311.239 1992.33,-311.239 1996.17,-311.239 2000,-315.072 2000,-318.905 2000,-318.905 2000,-326.572 2000,-326.572 2000,-330.405 1996.17,-334.239 1992.33,-334.239"/>
<text text-anchor="middle" x="1910" y="-319.039" font-family="Arial" font-size="14.00" fill="#c6c5fe">components/nameInput.js</text>
</g>
<!-- components/nameInput.js&#45;&gt;store/store.js -->
<g id="edge22" class="edge"><title>components/nameInput.js&#45;&gt;store/store.js</title>
<path fill="none" stroke="#757575" d="M2000.24,-330.14C2082.77,-336.985 2203.09,-346.964 2274.18,-352.86"/>
<polygon fill="#757575" stroke="#757575" points="2274.04,-356.361 2284.3,-353.699 2274.62,-349.385 2274.04,-356.361"/>
</g>
<!-- components/nameInput.js&#45;&gt;actions/Player.js -->
<g id="edge21" class="edge"><title>components/nameInput.js&#45;&gt;actions/Player.js</title>
<path fill="none" stroke="#757575" d="M1927.27,-334.464C1964.98,-361.634 2058.51,-429.026 2103.1,-461.156"/>
<polygon fill="#757575" stroke="#757575" points="2101.17,-464.084 2111.33,-467.09 2105.27,-458.404 2101.17,-464.084"/>
</g>
<!-- components/stat.js -->
<g id="node24" class="node"><title>components/stat.js</title>
<path fill="none" stroke="#cfffac" d="M957.833,-132.239C957.833,-132.239 837.167,-132.239 837.167,-132.239 833.333,-132.239 829.5,-128.405 829.5,-124.572 829.5,-124.572 829.5,-116.905 829.5,-116.905 829.5,-113.072 833.333,-109.239 837.167,-109.239 837.167,-109.239 957.833,-109.239 957.833,-109.239 961.667,-109.239 965.5,-113.072 965.5,-116.905 965.5,-116.905 965.5,-124.572 965.5,-124.572 965.5,-128.405 961.667,-132.239 957.833,-132.239"/>
<text text-anchor="middle" x="897.5" y="-117.039" font-family="Arial" font-size="14.00" fill="#cfffac">components/stat.js</text>
</g>
<!-- components/statDisplay.js&#45;&gt;components/stat.js -->
<g id="edge26" class="edge"><title>components/statDisplay.js&#45;&gt;components/stat.js</title>
<path fill="none" stroke="#757575" d="M761.72,-121.937C780.804,-121.767 800.779,-121.589 819.327,-121.425"/>
<polygon fill="#757575" stroke="#757575" points="819.503,-124.923 829.471,-121.334 819.44,-117.924 819.503,-124.923"/>
</g>
<!-- index.js -->
<g id="node27" class="node"><title>index.js</title>
<path fill="none" stroke="#c6c5fe" d="M75.8333,-52.2386C75.8333,-52.2386 26.1667,-52.2386 26.1667,-52.2386 22.3333,-52.2386 18.5,-48.4053 18.5,-44.572 18.5,-44.572 18.5,-36.9053 18.5,-36.9053 18.5,-33.072 22.3333,-29.2386 26.1667,-29.2386 26.1667,-29.2386 75.8333,-29.2386 75.8333,-29.2386 79.6667,-29.2386 83.5,-33.072 83.5,-36.9053 83.5,-36.9053 83.5,-44.572 83.5,-44.572 83.5,-48.4053 79.6667,-52.2386 75.8333,-52.2386"/>
<text text-anchor="middle" x="51" y="-37.0386" font-family="Arial" font-size="14.00" fill="#c6c5fe">index.js</text>
</g>
<!-- index.js&#45;&gt;store/store.js -->
<g id="edge28" class="edge"><title>index.js&#45;&gt;store/store.js</title>
<path fill="none" stroke="#757575" d="M83.952,-35.1768C149.963,-24.1859 306.28,-0.738641 438.5,-0.738641 438.5,-0.738641 438.5,-0.738641 1694,-0.738641 1936.35,-0.738641 2032.1,11.0796 2221,-140.739 2285.89,-192.889 2317.13,-292.706 2328.16,-336.385"/>
<polygon fill="#757575" stroke="#757575" points="2324.79,-337.32 2330.54,-346.217 2331.59,-335.674 2324.79,-337.32"/>
</g>
<!-- index.js&#45;&gt;components/appRoot.js -->
<g id="edge27" class="edge"><title>index.js&#45;&gt;components/appRoot.js</title>
<path fill="none" stroke="#757575" d="M83.7876,-48.4504C106.171,-53.8806 136.77,-61.304 163.392,-67.7628"/>
<polygon fill="#757575" stroke="#757575" points="162.832,-71.2285 173.376,-70.1848 164.483,-64.4258 162.832,-71.2285"/>
</g>
<!-- reducers/root.js&#45;&gt;actions/coreMsg.js -->
<g id="edge29" class="edge"><title>reducers/root.js&#45;&gt;actions/coreMsg.js</title>
<path fill="none" stroke="#757575" d="M2520.48,-369.557C2531.9,-397.811 2565.06,-469.113 2619,-498.739 2690.34,-537.921 2785.37,-537.753 2851.12,-531.074"/>
<polygon fill="#757575" stroke="#757575" points="2851.86,-534.515 2861.42,-529.952 2851.1,-527.557 2851.86,-534.515"/>
</g>
<!-- reducers/root.js&#45;&gt;actions/playerMsg.js -->
<g id="edge31" class="edge"><title>reducers/root.js&#45;&gt;actions/playerMsg.js</title>
<path fill="none" stroke="#757575" d="M2560.74,-346.199C2618.12,-333.274 2720.33,-316.606 2805,-336.739 2841.31,-345.372 2879.06,-366.521 2903,-381.717"/>
<polygon fill="#757575" stroke="#757575" points="2901.17,-384.704 2911.47,-387.211 2904.98,-378.832 2901.17,-384.704"/>
</g>
<!-- reducers/root.js&#45;&gt;actions/engineMsg.js -->
<g id="edge30" class="edge"><title>reducers/root.js&#45;&gt;actions/engineMsg.js</title>
<path fill="none" stroke="#757575" d="M2535.17,-346.14C2555.44,-334.254 2588.61,-315.845 2619,-303.739 2629.85,-299.415 2641.69,-295.503 2653.15,-292.104"/>
<polygon fill="#757575" stroke="#757575" points="2654.45,-295.373 2663.1,-289.251 2652.52,-288.645 2654.45,-295.373"/>
</g>
<!-- reducers/updateBodyArr.js -->
<g id="node29" class="node"><title>reducers/updateBodyArr.js</title>
<path fill="none" stroke="#c6c5fe" d="M2797.33,-369.239C2797.33,-369.239 2626.67,-369.239 2626.67,-369.239 2622.83,-369.239 2619,-365.405 2619,-361.572 2619,-361.572 2619,-353.905 2619,-353.905 2619,-350.072 2622.83,-346.239 2626.67,-346.239 2626.67,-346.239 2797.33,-346.239 2797.33,-346.239 2801.17,-346.239 2805,-350.072 2805,-353.905 2805,-353.905 2805,-361.572 2805,-361.572 2805,-365.405 2801.17,-369.239 2797.33,-369.239"/>
<text text-anchor="middle" x="2712" y="-354.039" font-family="Arial" font-size="14.00" fill="#c6c5fe">reducers/updateBodyArr.js</text>
</g>
<!-- reducers/root.js&#45;&gt;reducers/updateBodyArr.js -->
<g id="edge32" class="edge"><title>reducers/root.js&#45;&gt;reducers/updateBodyArr.js</title>
<path fill="none" stroke="#757575" d="M2573.19,-357.739C2584.43,-357.739 2596.53,-357.739 2608.74,-357.739"/>
<polygon fill="#757575" stroke="#757575" points="2609,-361.239 2619,-357.739 2609,-354.239 2609,-361.239"/>
</g>
<!-- reducers/updateButtons.js -->
<g id="node30" class="node"><title>reducers/updateButtons.js</title>
<path fill="none" stroke="#cfffac" d="M2795.33,-410.239C2795.33,-410.239 2628.67,-410.239 2628.67,-410.239 2624.83,-410.239 2621,-406.405 2621,-402.572 2621,-402.572 2621,-394.905 2621,-394.905 2621,-391.072 2624.83,-387.239 2628.67,-387.239 2628.67,-387.239 2795.33,-387.239 2795.33,-387.239 2799.17,-387.239 2803,-391.072 2803,-394.905 2803,-394.905 2803,-402.572 2803,-402.572 2803,-406.405 2799.17,-410.239 2795.33,-410.239"/>
<text text-anchor="middle" x="2712" y="-395.039" font-family="Arial" font-size="14.00" fill="#cfffac">reducers/updateButtons.js</text>
</g>
<!-- reducers/root.js&#45;&gt;reducers/updateButtons.js -->
<g id="edge33" class="edge"><title>reducers/root.js&#45;&gt;reducers/updateButtons.js</title>
<path fill="none" stroke="#757575" d="M2570.84,-369.269C2594.3,-374.202 2621.87,-379.999 2646.33,-385.141"/>
<polygon fill="#757575" stroke="#757575" points="2645.73,-388.592 2656.24,-387.224 2647.17,-381.742 2645.73,-388.592"/>
</g>
<!-- reducers/updateStats.js -->
<g id="node31" class="node"><title>reducers/updateStats.js</title>
<path fill="none" stroke="#c6c5fe" d="M2787.83,-490.239C2787.83,-490.239 2636.17,-490.239 2636.17,-490.239 2632.33,-490.239 2628.5,-486.405 2628.5,-482.572 2628.5,-482.572 2628.5,-474.905 2628.5,-474.905 2628.5,-471.072 2632.33,-467.239 2636.17,-467.239 2636.17,-467.239 2787.83,-467.239 2787.83,-467.239 2791.67,-467.239 2795.5,-471.072 2795.5,-474.905 2795.5,-474.905 2795.5,-482.572 2795.5,-482.572 2795.5,-486.405 2791.67,-490.239 2787.83,-490.239"/>
<text text-anchor="middle" x="2712" y="-475.039" font-family="Arial" font-size="14.00" fill="#c6c5fe">reducers/updateStats.js</text>
</g>
<!-- reducers/root.js&#45;&gt;reducers/updateStats.js -->
<g id="edge34" class="edge"><title>reducers/root.js&#45;&gt;reducers/updateStats.js</title>
<path fill="none" stroke="#757575" d="M2534.7,-369.341C2569.35,-390.842 2643.67,-436.957 2683.86,-461.896"/>
<polygon fill="#757575" stroke="#757575" points="2682.02,-464.873 2692.36,-467.172 2685.71,-458.925 2682.02,-464.873"/>
</g>
<!-- reducers/updateTime.js -->
<g id="node32" class="node"><title>reducers/updateTime.js</title>
<path fill="none" stroke="#c6c5fe" d="M3004.83,-310.239C3004.83,-310.239 2853.17,-310.239 2853.17,-310.239 2849.33,-310.239 2845.5,-306.405 2845.5,-302.572 2845.5,-302.572 2845.5,-294.905 2845.5,-294.905 2845.5,-291.072 2849.33,-287.239 2853.17,-287.239 2853.17,-287.239 3004.83,-287.239 3004.83,-287.239 3008.67,-287.239 3012.5,-291.072 3012.5,-294.905 3012.5,-294.905 3012.5,-302.572 3012.5,-302.572 3012.5,-306.405 3008.67,-310.239 3004.83,-310.239"/>
<text text-anchor="middle" x="2929" y="-295.039" font-family="Arial" font-size="14.00" fill="#c6c5fe">reducers/updateTime.js</text>
</g>
<!-- reducers/root.js&#45;&gt;reducers/updateTime.js -->
<g id="edge35" class="edge"><title>reducers/root.js&#45;&gt;reducers/updateTime.js</title>
<path fill="none" stroke="#757575" d="M2523.28,-346.069C2538.06,-323.64 2574.02,-275.112 2619,-256.739 2713.05,-218.323 2835.24,-258.789 2893.79,-283.138"/>
<polygon fill="#757575" stroke="#757575" points="2892.72,-286.487 2903.29,-287.183 2895.46,-280.046 2892.72,-286.487"/>
</g>
<!-- store/initialState.js -->
<g id="node33" class="node"><title>store/initialState.js</title>
<path fill="none" stroke="#c6c5fe" d="M2769.83,-209.239C2769.83,-209.239 2654.17,-209.239 2654.17,-209.239 2650.33,-209.239 2646.5,-205.405 2646.5,-201.572 2646.5,-201.572 2646.5,-193.905 2646.5,-193.905 2646.5,-190.072 2650.33,-186.239 2654.17,-186.239 2654.17,-186.239 2769.83,-186.239 2769.83,-186.239 2773.67,-186.239 2777.5,-190.072 2777.5,-193.905 2777.5,-193.905 2777.5,-201.572 2777.5,-201.572 2777.5,-205.405 2773.67,-209.239 2769.83,-209.239"/>
<text text-anchor="middle" x="2712" y="-194.039" font-family="Arial" font-size="14.00" fill="#c6c5fe">store/initialState.js</text>
</g>
<!-- reducers/root.js&#45;&gt;store/initialState.js -->
<g id="edge36" class="edge"><title>reducers/root.js&#45;&gt;store/initialState.js</title>
<path fill="none" stroke="#757575" d="M2521.66,-346.033C2534.88,-319.926 2570.41,-256.653 2619,-223.739 2625.38,-219.419 2632.46,-215.81 2639.8,-212.798"/>
<polygon fill="#757575" stroke="#757575" points="2641.04,-216.071 2649.18,-209.292 2638.59,-209.514 2641.04,-216.071"/>
</g>
<!-- reducers/root.js&#45;&gt;utils.js -->
<g id="edge37" class="edge"><title>reducers/root.js&#45;&gt;utils.js</title>
<path fill="none" stroke="#757575" d="M2519.43,-369.669C2529.21,-401.403 2560.35,-488.358 2619,-530.739 2653.73,-555.833 2939.2,-607.97 3042.7,-626.242"/>
<polygon fill="#757575" stroke="#757575" points="3042.25,-629.716 3052.71,-628.002 3043.46,-622.822 3042.25,-629.716"/>
</g>
<!-- reducers/updateBodyArr.js&#45;&gt;actions/playerMsg.js -->
<g id="edge38" class="edge"><title>reducers/updateBodyArr.js&#45;&gt;actions/playerMsg.js</title>
<path fill="none" stroke="#757575" d="M2773.46,-369.269C2799.68,-374.268 2830.54,-380.154 2857.77,-385.346"/>
<polygon fill="#757575" stroke="#757575" points="2857.14,-388.789 2867.62,-387.224 2858.45,-381.913 2857.14,-388.789"/>
</g>
<!-- reducers/updateStats.js&#45;&gt;actions/coreMsg.js -->
<g id="edge39" class="edge"><title>reducers/updateStats.js&#45;&gt;actions/coreMsg.js</title>
<path fill="none" stroke="#757575" d="M2774.9,-490.255C2800.31,-494.982 2829.89,-500.486 2856.24,-505.388"/>
<polygon fill="#757575" stroke="#757575" points="2855.69,-508.846 2866.17,-507.235 2856.98,-501.965 2855.69,-508.846"/>
</g>
<!-- reducers/updateStats.js&#45;&gt;actions/playerMsg.js -->
<g id="edge40" class="edge"><title>reducers/updateStats.js&#45;&gt;actions/playerMsg.js</title>
<path fill="none" stroke="#757575" d="M2758.78,-467.142C2773.66,-463.018 2790.16,-458.065 2805,-452.739 2836.2,-441.542 2870.67,-426.133 2895.16,-414.64"/>
<polygon fill="#757575" stroke="#757575" points="2896.81,-417.73 2904.36,-410.289 2893.82,-411.402 2896.81,-417.73"/>
</g>
<!-- reducers/updateStats.js&#45;&gt;utils.js -->
<g id="edge41" class="edge"><title>reducers/updateStats.js&#45;&gt;utils.js</title>
<path fill="none" stroke="#757575" d="M2764.03,-467.236C2828.83,-455.677 2941.3,-446.137 3017,-497.739 3055.45,-523.946 3070.97,-579.991 3076.8,-610.993"/>
<polygon fill="#757575" stroke="#757575" points="3073.41,-611.91 3078.54,-621.18 3080.31,-610.735 3073.41,-611.91"/>
</g>
<!-- reducers/updateTime.js&#45;&gt;utils.js -->
<g id="edge42" class="edge"><title>reducers/updateTime.js&#45;&gt;utils.js</title>
<path fill="none" stroke="#757575" d="M2948.26,-310.381C2968.22,-324.071 2999.65,-348.653 3017,-377.739 3063.19,-455.163 3075.61,-565.083 3078.87,-611.133"/>
<polygon fill="#757575" stroke="#757575" points="3075.38,-611.408 3079.51,-621.167 3082.37,-610.966 3075.38,-611.408"/>
</g>
<!-- store/initialState.js&#45;&gt;scenes/sceneSymbols.js -->
<g id="edge64" class="edge"><title>store/initialState.js&#45;&gt;scenes/sceneSymbols.js</title>
<path fill="none" stroke="#757575" d="M2758.27,-186.152C2773.27,-181.994 2789.97,-177.018 2805,-171.739 2835.51,-161.024 2869.29,-146.548 2893.72,-135.59"/>
<polygon fill="#757575" stroke="#757575" points="2895.25,-138.738 2902.92,-131.43 2892.37,-132.36 2895.25,-138.738"/>
</g>
<!-- symbols/skin.js -->
<g id="node43" class="node"><title>symbols/skin.js</title>
<path fill="none" stroke="#c6c5fe" d="M2977.83,-239.239C2977.83,-239.239 2880.17,-239.239 2880.17,-239.239 2876.33,-239.239 2872.5,-235.405 2872.5,-231.572 2872.5,-231.572 2872.5,-223.905 2872.5,-223.905 2872.5,-220.072 2876.33,-216.239 2880.17,-216.239 2880.17,-216.239 2977.83,-216.239 2977.83,-216.239 2981.67,-216.239 2985.5,-220.072 2985.5,-223.905 2985.5,-223.905 2985.5,-231.572 2985.5,-231.572 2985.5,-235.405 2981.67,-239.239 2977.83,-239.239"/>
<text text-anchor="middle" x="2929" y="-224.039" font-family="Arial" font-size="14.00" fill="#c6c5fe">symbols/skin.js</text>
</g>
<!-- store/initialState.js&#45;&gt;symbols/skin.js -->
<g id="edge65" class="edge"><title>store/initialState.js&#45;&gt;symbols/skin.js</title>
<path fill="none" stroke="#757575" d="M2777.51,-206.74C2804.27,-210.474 2835.29,-214.802 2862.18,-218.555"/>
<polygon fill="#757575" stroke="#757575" points="2861.89,-222.047 2872.27,-219.963 2862.85,-215.114 2861.89,-222.047"/>
</g>
<!-- scenes/charCreation.js&#45;&gt;actions/Core.js -->
<g id="edge43" class="edge"><title>scenes/charCreation.js&#45;&gt;actions/Core.js</title>
<path fill="none" stroke="#757575" d="M1353.67,-507.141C1418.43,-479.501 1581.91,-409.725 1655.32,-378.393"/>
<polygon fill="#757575" stroke="#757575" points="1656.82,-381.558 1664.65,-374.413 1654.08,-375.119 1656.82,-381.558"/>
</g>
<!-- scenes/charCreation.js&#45;&gt;actions/Player.js -->
<g id="edge44" class="edge"><title>scenes/charCreation.js&#45;&gt;actions/Player.js</title>
<path fill="none" stroke="#757575" d="M1406.23,-514.757C1563.41,-506.908 1910.83,-489.559 2058.7,-482.174"/>
<polygon fill="#757575" stroke="#757575" points="2059.19,-485.655 2069,-481.66 2058.84,-478.663 2059.19,-485.655"/>
</g>
<!-- scenes/charCreation.js&#45;&gt;symbols/breastCup.js -->
<g id="edge49" class="edge"><title>scenes/charCreation.js&#45;&gt;symbols/breastCup.js</title>
<path fill="none" stroke="#757575" d="M1339.61,-530.446C1359.96,-547.913 1401.08,-580.475 1442,-596.739 1546.64,-638.321 1579.4,-637.739 1692,-637.739 1692,-637.739 1692,-637.739 1911,-637.739 2027.16,-637.739 2161.31,-637.739 2246.61,-637.739"/>
<polygon fill="#757575" stroke="#757575" points="2246.76,-641.239 2256.76,-637.739 2246.76,-634.239 2246.76,-641.239"/>
</g>
<!-- scenes/charCreation.js&#45;&gt;appearance/appearance.js -->
<g id="edge45" class="edge"><title>scenes/charCreation.js&#45;&gt;appearance/appearance.js</title>
<path fill="none" stroke="#757575" d="M1346.11,-530.409C1368.45,-543.011 1406.46,-562.4 1442,-570.739 1644.7,-618.3 1890.23,-613.028 2025.57,-604.901"/>
<polygon fill="#757575" stroke="#757575" points="2026.16,-608.372 2035.92,-604.261 2025.72,-601.385 2026.16,-608.372"/>
</g>
<!-- scenes/charCreation.js&#45;&gt;symbols/gender.js -->
<g id="edge51" class="edge"><title>scenes/charCreation.js&#45;&gt;symbols/gender.js</title>
<path fill="none" stroke="#757575" d="M1395.67,-530.243C1469,-541.427 1588.33,-556.739 1692,-556.739 1692,-556.739 1692,-556.739 1911,-556.739 2049.04,-556.739 2084.01,-558.764 2221,-575.739 2236.62,-577.674 2253.35,-580.436 2268.99,-583.322"/>
<polygon fill="#757575" stroke="#757575" points="2268.62,-586.813 2279.09,-585.23 2269.92,-579.934 2268.62,-586.813"/>
</g>
<!-- scenes/charCreation.js&#45;&gt;scenes/menus.js -->
<g id="edge46" class="edge"><title>scenes/charCreation.js&#45;&gt;scenes/menus.js</title>
<path fill="none" stroke="#757575" d="M1329.36,-507.13C1339.77,-466.264 1378.4,-326.168 1442,-226.739 1452.96,-209.605 1468.91,-193.063 1481.76,-181.089"/>
<polygon fill="#757575" stroke="#757575" points="1484.23,-183.573 1489.28,-174.26 1479.53,-178.39 1484.23,-183.573"/>
</g>
<!-- scenes/charCreation.js&#45;&gt;scenes/sceneSymbols.js -->
<g id="edge47" class="edge"><title>scenes/charCreation.js&#45;&gt;scenes/sceneSymbols.js</title>
<path fill="none" stroke="#757575" d="M1336.99,-507.029C1356.18,-486.134 1398.94,-441.97 1442,-413.739 1507.21,-370.982 1527.55,-364.944 1602,-341.739 1696.04,-312.425 1722.92,-318.429 1820,-301.739 2256.96,-226.614 2368.47,-221.316 2805,-143.739 2823.25,-140.495 2842.99,-136.751 2861.19,-133.199"/>
<polygon fill="#757575" stroke="#757575" points="2861.98,-136.61 2871.12,-131.251 2860.64,-129.741 2861.98,-136.61"/>
</g>
<!-- scenes/sceneTextStore.js -->
<g id="node38" class="node"><title>scenes/sceneTextStore.js</title>
<path fill="none" stroke="#c6c5fe" d="M1776.33,-218.239C1776.33,-218.239 1609.67,-218.239 1609.67,-218.239 1605.83,-218.239 1602,-214.405 1602,-210.572 1602,-210.572 1602,-202.905 1602,-202.905 1602,-199.072 1605.83,-195.239 1609.67,-195.239 1609.67,-195.239 1776.33,-195.239 1776.33,-195.239 1780.17,-195.239 1784,-199.072 1784,-202.905 1784,-202.905 1784,-210.572 1784,-210.572 1784,-214.405 1780.17,-218.239 1776.33,-218.239"/>
<text text-anchor="middle" x="1693" y="-203.039" font-family="Arial" font-size="14.00" fill="#c6c5fe">scenes/sceneTextStore.js</text>
</g>
<!-- scenes/charCreation.js&#45;&gt;scenes/sceneTextStore.js -->
<g id="edge48" class="edge"><title>scenes/charCreation.js&#45;&gt;scenes/sceneTextStore.js</title>
<path fill="none" stroke="#757575" d="M1328.1,-507.208C1334.35,-466.904 1360.85,-331.172 1442,-264.739 1483.77,-230.545 1542,-215.726 1591.75,-209.601"/>
<polygon fill="#757575" stroke="#757575" points="1592.36,-213.055 1601.9,-208.456 1591.57,-206.099 1592.36,-213.055"/>
</g>
<!-- symbols/butt.js -->
<g id="node39" class="node"><title>symbols/butt.js</title>
<path fill="none" stroke="#c6c5fe" d="M1957.83,-798.239C1957.83,-798.239 1862.17,-798.239 1862.17,-798.239 1858.33,-798.239 1854.5,-794.405 1854.5,-790.572 1854.5,-790.572 1854.5,-782.905 1854.5,-782.905 1854.5,-779.072 1858.33,-775.239 1862.17,-775.239 1862.17,-775.239 1957.83,-775.239 1957.83,-775.239 1961.67,-775.239 1965.5,-779.072 1965.5,-782.905 1965.5,-782.905 1965.5,-790.572 1965.5,-790.572 1965.5,-794.405 1961.67,-798.239 1957.83,-798.239"/>
<text text-anchor="middle" x="1910" y="-783.039" font-family="Arial" font-size="14.00" fill="#c6c5fe">symbols/butt.js</text>
</g>
<!-- scenes/charCreation.js&#45;&gt;symbols/butt.js -->
<g id="edge50" class="edge"><title>scenes/charCreation.js&#45;&gt;symbols/butt.js</title>
<path fill="none" stroke="#757575" d="M1329.04,-530.301C1337.66,-566.633 1369.42,-679.197 1442,-731.739 1562.23,-818.778 1747.24,-809.926 1844.37,-797.487"/>
<polygon fill="#757575" stroke="#757575" points="1844.89,-800.948 1854.34,-796.157 1843.97,-794.009 1844.89,-800.948"/>
</g>
<!-- symbols/hips.js -->
<g id="node40" class="node"><title>symbols/hips.js</title>
<path fill="none" stroke="#c6c5fe" d="M1553.33,-723.239C1553.33,-723.239 1454.67,-723.239 1454.67,-723.239 1450.83,-723.239 1447,-719.405 1447,-715.572 1447,-715.572 1447,-707.905 1447,-707.905 1447,-704.072 1450.83,-700.239 1454.67,-700.239 1454.67,-700.239 1553.33,-700.239 1553.33,-700.239 1557.17,-700.239 1561,-704.072 1561,-707.905 1561,-707.905 1561,-715.572 1561,-715.572 1561,-719.405 1557.17,-723.239 1553.33,-723.239"/>
<text text-anchor="middle" x="1504" y="-708.039" font-family="Arial" font-size="14.00" fill="#c6c5fe">symbols/hips.js</text>
</g>
<!-- scenes/charCreation.js&#45;&gt;symbols/hips.js -->
<g id="edge52" class="edge"><title>scenes/charCreation.js&#45;&gt;symbols/hips.js</title>
<path fill="none" stroke="#757575" d="M1336.09,-530.392C1355.52,-553.861 1401.16,-608.283 1442,-651.739 1455.35,-665.946 1471.05,-681.357 1483.17,-693.002"/>
<polygon fill="#757575" stroke="#757575" points="1480.92,-695.686 1490.57,-700.061 1485.75,-690.624 1480.92,-695.686"/>
</g>
<!-- scenes/menus.js&#45;&gt;actions/Core.js -->
<g id="edge53" class="edge"><title>scenes/menus.js&#45;&gt;actions/Core.js</title>
<path fill="none" stroke="#757575" d="M1541.01,-174.285C1549.71,-178.067 1558.62,-182.851 1566,-188.739 1594.6,-211.561 1653.38,-301.618 1679.27,-342.436"/>
<polygon fill="#757575" stroke="#757575" points="1676.4,-344.437 1684.7,-351.024 1682.32,-340.7 1676.4,-344.437"/>
</g>
<!-- scenes/menus.js&#45;&gt;scenes/sceneSymbols.js -->
<g id="edge54" class="edge"><title>scenes/menus.js&#45;&gt;scenes/sceneSymbols.js</title>
<path fill="none" stroke="#757575" d="M1557.58,-151.219C1664.4,-128.857 1914.71,-81.7386 2127.5,-81.7386 2127.5,-81.7386 2127.5,-81.7386 2516,-81.7386 2628.17,-81.7386 2756.79,-95.8771 2840.06,-106.906"/>
<polygon fill="#757575" stroke="#757575" points="2839.6,-110.377 2849.98,-108.234 2840.53,-103.439 2839.6,-110.377"/>
</g>
<!-- scenes/menus.js&#45;&gt;scenes/sceneTextStore.js -->
<g id="edge55" class="edge"><title>scenes/menus.js&#45;&gt;scenes/sceneTextStore.js</title>
<path fill="none" stroke="#757575" d="M1554.13,-174.299C1578.3,-179.986 1607.62,-186.885 1633,-192.855"/>
<polygon fill="#757575" stroke="#757575" points="1632.34,-196.296 1642.87,-195.179 1633.94,-189.482 1632.34,-196.296"/>
</g>
<!-- scenes/sceneTextStore.js&#45;&gt;components/nameInput.js -->
<g id="edge62" class="edge"><title>scenes/sceneTextStore.js&#45;&gt;components/nameInput.js</title>
<path fill="none" stroke="#757575" d="M1715.4,-218.285C1753.78,-238.99 1834.4,-282.488 1878.53,-306.299"/>
<polygon fill="#757575" stroke="#757575" points="1876.9,-309.398 1887.37,-311.067 1880.23,-303.238 1876.9,-309.398"/>
</g>
<!-- scenes/sceneTextStore.js&#45;&gt;scenes/sceneSymbols.js -->
<g id="edge63" class="edge"><title>scenes/sceneTextStore.js&#45;&gt;scenes/sceneSymbols.js</title>
<path fill="none" stroke="#757575" d="M1784.24,-200.377C2009.93,-184.465 2597.45,-143.043 2830.6,-126.606"/>
<polygon fill="#757575" stroke="#757575" points="2831.03,-130.084 2840.76,-125.889 2830.54,-123.101 2831.03,-130.084"/>
</g>
<!-- symbols/butt.js&#45;&gt;utils.js -->
<g id="edge68" class="edge"><title>symbols/butt.js&#45;&gt;utils.js</title>
<path fill="none" stroke="#757575" d="M1965.63,-786.527C2046.07,-786.233 2201.12,-785.739 2333,-785.739 2333,-785.739 2333,-785.739 2713,-785.739 2848.57,-785.739 2904.94,-837.032 3017,-760.739 3053.31,-736.019 3069.55,-684.121 3076.1,-654.563"/>
<polygon fill="#757575" stroke="#757575" points="3079.59,-654.929 3078.15,-644.432 3072.73,-653.535 3079.59,-654.929"/>
</g>
<!-- symbols/hips.js&#45;&gt;utils.js -->
<g id="edge70" class="edge"><title>symbols/hips.js&#45;&gt;utils.js</title>
<path fill="none" stroke="#757575" d="M1561.07,-719.681C1638.96,-730.007 1784.39,-746.739 1909,-746.739 1909,-746.739 1909,-746.739 2713,-746.739 2849,-746.739 2898.05,-777.671 3017,-711.739 3041.04,-698.414 3059.25,-671.805 3069.77,-653.166"/>
<polygon fill="#757575" stroke="#757575" points="3072.9,-654.723 3074.55,-644.257 3066.74,-651.41 3072.9,-654.723"/>
</g>
<!-- setupTests.js -->
<g id="node42" class="node"><title>setupTests.js</title>
<path fill="none" stroke="#cfffac" d="M94.3333,-93.2386C94.3333,-93.2386 7.66667,-93.2386 7.66667,-93.2386 3.83333,-93.2386 0,-89.4053 0,-85.572 0,-85.572 0,-77.9053 0,-77.9053 0,-74.072 3.83333,-70.2386 7.66667,-70.2386 7.66667,-70.2386 94.3333,-70.2386 94.3333,-70.2386 98.1667,-70.2386 102,-74.072 102,-77.9053 102,-77.9053 102,-85.572 102,-85.572 102,-89.4053 98.1667,-93.2386 94.3333,-93.2386"/>
<text text-anchor="middle" x="51" y="-78.0386" font-family="Arial" font-size="14.00" fill="#cfffac">setupTests.js</text>
</g>
<!-- symbols/skin.js&#45;&gt;utils.js -->
<g id="edge71" class="edge"><title>symbols/skin.js&#45;&gt;utils.js</title>
<path fill="none" stroke="#757575" d="M2964.32,-239.241C2982.77,-247.188 3004.28,-259.635 3017,-277.739 3055.35,-332.322 3073.51,-542.087 3078.52,-610.803"/>
<polygon fill="#757575" stroke="#757575" points="3075.04,-611.189 3079.23,-620.917 3082.02,-610.695 3075.04,-611.189"/>
</g>
</g>
</svg>
