<?xml version="1.0" encoding="UTF-8" standalone="no"?>
<!DOCTYPE svg PUBLIC "-//W3C//DTD SVG 1.1//EN"
 "http://www.w3.org/Graphics/SVG/1.1/DTD/svg11.dtd">
<!-- Generated by graphviz version 2.38.0 (20140413.2041)
 -->
<!-- Title: G Pages: 1 -->
<svg width="1218pt" height="372pt"
 viewBox="0.00 0.00 1218.20 372.20" xmlns="http://www.w3.org/2000/svg" xmlns:xlink="http://www.w3.org/1999/xlink">
<g id="graph0" class="graph" transform="scale(1 1) rotate(0) translate(21.6 350.6)">
<title>G</title>
<polygon fill="#111111" stroke="none" points="-21.6,21.6 -21.6,-350.6 1196.6,-350.6 1196.6,21.6 -21.6,21.6"/>
<!-- actions/UI.js -->
<g id="node1" class="node"><title>actions/UI.js</title>
<path fill="none" stroke="#cfffac" d="M1138.33,-185C1138.33,-185 1059.67,-185 1059.67,-185 1055.83,-185 1052,-181.167 1052,-177.333 1052,-177.333 1052,-169.667 1052,-169.667 1052,-165.833 1055.83,-162 1059.67,-162 1059.67,-162 1138.33,-162 1138.33,-162 1142.17,-162 1146,-165.833 1146,-169.667 1146,-169.667 1146,-177.333 1146,-177.333 1146,-181.167 1142.17,-185 1138.33,-185"/>
<text text-anchor="middle" x="1099" y="-169.8" font-family="Arial" font-size="14.00" fill="#cfffac">actions/UI.js</text>
</g>
<!-- actions/UI.test.js -->
<g id="node2" class="node"><title>actions/UI.test.js</title>
<path fill="none" stroke="#c6c5fe" d="M946.333,-185C946.333,-185 840.667,-185 840.667,-185 836.833,-185 833,-181.167 833,-177.333 833,-177.333 833,-169.667 833,-169.667 833,-165.833 836.833,-162 840.667,-162 840.667,-162 946.333,-162 946.333,-162 950.167,-162 954,-165.833 954,-169.667 954,-169.667 954,-177.333 954,-177.333 954,-181.167 950.167,-185 946.333,-185"/>
<text text-anchor="middle" x="893.5" y="-169.8" font-family="Arial" font-size="14.00" fill="#c6c5fe">actions/UI.test.js</text>
</g>
<!-- actions/UI.test.js&#45;&gt;actions/UI.js -->
<g id="edge1" class="edge"><title>actions/UI.test.js&#45;&gt;actions/UI.js</title>
<path fill="none" stroke="#757575" d="M954.182,-173.5C981.844,-173.5 1014.54,-173.5 1041.76,-173.5"/>
<polygon fill="#757575" stroke="#757575" points="1041.91,-177 1051.91,-173.5 1041.91,-170 1041.91,-177"/>
</g>
<!-- components/appRoot.js -->
<g id="node3" class="node"><title>components/appRoot.js</title>
<path fill="none" stroke="#c6c5fe" d="M261.333,-226C261.333,-226 108.667,-226 108.667,-226 104.833,-226 101,-222.167 101,-218.333 101,-218.333 101,-210.667 101,-210.667 101,-206.833 104.833,-203 108.667,-203 108.667,-203 261.333,-203 261.333,-203 265.167,-203 269,-206.833 269,-210.667 269,-210.667 269,-218.333 269,-218.333 269,-222.167 265.167,-226 261.333,-226"/>
<text text-anchor="middle" x="185" y="-210.8" font-family="Arial" font-size="14.00" fill="#c6c5fe">components/appRoot.js</text>
</g>
<!-- components/lowerButtons.js -->
<g id="node4" class="node"><title>components/lowerButtons.js</title>
<path fill="none" stroke="#c6c5fe" d="M492.333,-185C492.333,-185 312.667,-185 312.667,-185 308.833,-185 305,-181.167 305,-177.333 305,-177.333 305,-169.667 305,-169.667 305,-165.833 308.833,-162 312.667,-162 312.667,-162 492.333,-162 492.333,-162 496.167,-162 500,-165.833 500,-169.667 500,-169.667 500,-177.333 500,-177.333 500,-181.167 496.167,-185 492.333,-185"/>
<text text-anchor="middle" x="402.5" y="-169.8" font-family="Arial" font-size="14.00" fill="#c6c5fe">components/lowerButtons.js</text>
</g>
<!-- components/appRoot.js&#45;&gt;components/lowerButtons.js -->
<g id="edge2" class="edge"><title>components/appRoot.js&#45;&gt;components/lowerButtons.js</title>
<path fill="none" stroke="#757575" d="M246.602,-202.97C272.88,-197.971 303.817,-192.085 331.106,-186.893"/>
<polygon fill="#757575" stroke="#757575" points="331.81,-190.322 340.98,-185.014 330.502,-183.445 331.81,-190.322"/>
</g>
<!-- components/menuBar.js -->
<g id="node5" class="node"><title>components/menuBar.js</title>
<path fill="none" stroke="#c6c5fe" d="M479.833,-226C479.833,-226 325.167,-226 325.167,-226 321.333,-226 317.5,-222.167 317.5,-218.333 317.5,-218.333 317.5,-210.667 317.5,-210.667 317.5,-206.833 321.333,-203 325.167,-203 325.167,-203 479.833,-203 479.833,-203 483.667,-203 487.5,-206.833 487.5,-210.667 487.5,-210.667 487.5,-218.333 487.5,-218.333 487.5,-222.167 483.667,-226 479.833,-226"/>
<text text-anchor="middle" x="402.5" y="-210.8" font-family="Arial" font-size="14.00" fill="#c6c5fe">components/menuBar.js</text>
</g>
<!-- components/appRoot.js&#45;&gt;components/menuBar.js -->
<g id="edge3" class="edge"><title>components/appRoot.js&#45;&gt;components/menuBar.js</title>
<path fill="none" stroke="#757575" d="M269.01,-214.5C281.546,-214.5 294.556,-214.5 307.307,-214.5"/>
<polygon fill="#757575" stroke="#757575" points="307.465,-218 317.465,-214.5 307.465,-211 307.465,-218"/>
</g>
<!-- components/output.js -->
<g id="node6" class="node"><title>components/output.js</title>
<path fill="none" stroke="#cfffac" d="M470.833,-308C470.833,-308 334.167,-308 334.167,-308 330.333,-308 326.5,-304.167 326.5,-300.333 326.5,-300.333 326.5,-292.667 326.5,-292.667 326.5,-288.833 330.333,-285 334.167,-285 334.167,-285 470.833,-285 470.833,-285 474.667,-285 478.5,-288.833 478.5,-292.667 478.5,-292.667 478.5,-300.333 478.5,-300.333 478.5,-304.167 474.667,-308 470.833,-308"/>
<text text-anchor="middle" x="402.5" y="-292.8" font-family="Arial" font-size="14.00" fill="#cfffac">components/output.js</text>
</g>
<!-- components/appRoot.js&#45;&gt;components/output.js -->
<g id="edge4" class="edge"><title>components/appRoot.js&#45;&gt;components/output.js</title>
<path fill="none" stroke="#757575" d="M204.235,-226.044C226.986,-239.957 267.476,-263.128 305,-276.5 311.029,-278.648 317.356,-280.596 323.766,-282.356"/>
<polygon fill="#757575" stroke="#757575" points="323.317,-285.855 333.875,-284.968 325.069,-279.077 323.317,-285.855"/>
</g>
<!-- components/statBar.js -->
<g id="node7" class="node"><title>components/statBar.js</title>
<path fill="none" stroke="#c6c5fe" d="M473.833,-267C473.833,-267 331.167,-267 331.167,-267 327.333,-267 323.5,-263.167 323.5,-259.333 323.5,-259.333 323.5,-251.667 323.5,-251.667 323.5,-247.833 327.333,-244 331.167,-244 331.167,-244 473.833,-244 473.833,-244 477.667,-244 481.5,-247.833 481.5,-251.667 481.5,-251.667 481.5,-259.333 481.5,-259.333 481.5,-263.167 477.667,-267 473.833,-267"/>
<text text-anchor="middle" x="402.5" y="-251.8" font-family="Arial" font-size="14.00" fill="#c6c5fe">components/statBar.js</text>
</g>
<!-- components/appRoot.js&#45;&gt;components/statBar.js -->
<g id="edge5" class="edge"><title>components/appRoot.js&#45;&gt;components/statBar.js</title>
<path fill="none" stroke="#757575" d="M246.602,-226.03C272.88,-231.029 303.817,-236.915 331.106,-242.107"/>
<polygon fill="#757575" stroke="#757575" points="330.502,-245.555 340.98,-243.986 331.81,-238.678 330.502,-245.555"/>
</g>
<!-- components/buttonGrid.js -->
<g id="node9" class="node"><title>components/buttonGrid.js</title>
<path fill="none" stroke="#c6c5fe" d="M731.833,-206C731.833,-206 568.167,-206 568.167,-206 564.333,-206 560.5,-202.167 560.5,-198.333 560.5,-198.333 560.5,-190.667 560.5,-190.667 560.5,-186.833 564.333,-183 568.167,-183 568.167,-183 731.833,-183 731.833,-183 735.667,-183 739.5,-186.833 739.5,-190.667 739.5,-190.667 739.5,-198.333 739.5,-198.333 739.5,-202.167 735.667,-206 731.833,-206"/>
<text text-anchor="middle" x="650" y="-190.8" font-family="Arial" font-size="14.00" fill="#c6c5fe">components/buttonGrid.js</text>
</g>
<!-- components/lowerButtons.js&#45;&gt;components/buttonGrid.js -->
<g id="edge9" class="edge"><title>components/lowerButtons.js&#45;&gt;components/buttonGrid.js</title>
<path fill="none" stroke="#757575" d="M500.176,-181.77C516.621,-183.176 533.721,-184.639 550.22,-186.05"/>
<polygon fill="#757575" stroke="#757575" points="550.142,-189.556 560.404,-186.922 550.739,-182.582 550.142,-189.556"/>
</g>
<!-- components/menuBar.js&#45;&gt;components/buttonGrid.js -->
<g id="edge10" class="edge"><title>components/menuBar.js&#45;&gt;components/buttonGrid.js</title>
<path fill="none" stroke="#757575" d="M487.644,-207.645C507.803,-206.003 529.508,-204.235 550.261,-202.544"/>
<polygon fill="#757575" stroke="#757575" points="550.679,-206.022 560.361,-201.721 550.11,-199.045 550.679,-206.022"/>
</g>
<!-- components/spriteDisplay.js -->
<g id="node11" class="node"><title>components/spriteDisplay.js</title>
<path fill="none" stroke="#cfffac" d="M739.833,-247C739.833,-247 560.167,-247 560.167,-247 556.333,-247 552.5,-243.167 552.5,-239.333 552.5,-239.333 552.5,-231.667 552.5,-231.667 552.5,-227.833 556.333,-224 560.167,-224 560.167,-224 739.833,-224 739.833,-224 743.667,-224 747.5,-227.833 747.5,-231.667 747.5,-231.667 747.5,-239.333 747.5,-239.333 747.5,-243.167 743.667,-247 739.833,-247"/>
<text text-anchor="middle" x="650" y="-231.8" font-family="Arial" font-size="14.00" fill="#cfffac">components/spriteDisplay.js</text>
</g>
<!-- components/statBar.js&#45;&gt;components/spriteDisplay.js -->
<g id="edge11" class="edge"><title>components/statBar.js&#45;&gt;components/spriteDisplay.js</title>
<path fill="none" stroke="#757575" d="M481.515,-249.144C500.733,-247.579 521.645,-245.875 541.972,-244.219"/>
<polygon fill="#757575" stroke="#757575" points="542.531,-247.685 552.214,-243.385 541.963,-240.708 542.531,-247.685"/>
</g>
<!-- components/statDisplay.js -->
<g id="node12" class="node"><title>components/statDisplay.js</title>
<path fill="none" stroke="#cfffac" d="M733.333,-329C733.333,-329 566.667,-329 566.667,-329 562.833,-329 559,-325.167 559,-321.333 559,-321.333 559,-313.667 559,-313.667 559,-309.833 562.833,-306 566.667,-306 566.667,-306 733.333,-306 733.333,-306 737.167,-306 741,-309.833 741,-313.667 741,-313.667 741,-321.333 741,-321.333 741,-325.167 737.167,-329 733.333,-329"/>
<text text-anchor="middle" x="650" y="-313.8" font-family="Arial" font-size="14.00" fill="#cfffac">components/statDisplay.js</text>
</g>
<!-- components/statBar.js&#45;&gt;components/statDisplay.js -->
<g id="edge12" class="edge"><title>components/statBar.js&#45;&gt;components/statDisplay.js</title>
<path fill="none" stroke="#757575" d="M469.723,-267.018C480.019,-269.633 490.413,-272.769 500,-276.5 517.262,-283.219 518.61,-291.12 536,-297.5 541.953,-299.684 548.173,-301.634 554.5,-303.375"/>
<polygon fill="#757575" stroke="#757575" points="553.954,-306.848 564.51,-305.941 555.693,-300.067 553.954,-306.848"/>
</g>
<!-- components/timeDisplay.js -->
<g id="node13" class="node"><title>components/timeDisplay.js</title>
<path fill="none" stroke="#cfffac" d="M735.833,-288C735.833,-288 564.167,-288 564.167,-288 560.333,-288 556.5,-284.167 556.5,-280.333 556.5,-280.333 556.5,-272.667 556.5,-272.667 556.5,-268.833 560.333,-265 564.167,-265 564.167,-265 735.833,-265 735.833,-265 739.667,-265 743.5,-268.833 743.5,-272.667 743.5,-272.667 743.5,-280.333 743.5,-280.333 743.5,-284.167 739.667,-288 735.833,-288"/>
<text text-anchor="middle" x="650" y="-272.8" font-family="Arial" font-size="14.00" fill="#cfffac">components/timeDisplay.js</text>
</g>
<!-- components/statBar.js&#45;&gt;components/timeDisplay.js -->
<g id="edge13" class="edge"><title>components/statBar.js&#45;&gt;components/timeDisplay.js</title>
<path fill="none" stroke="#757575" d="M481.515,-262.173C501.999,-263.926 524.408,-265.842 545.983,-267.688"/>
<polygon fill="#757575" stroke="#757575" points="545.897,-271.193 556.159,-268.558 546.494,-264.219 545.897,-271.193"/>
</g>
<!-- components/button.js -->
<g id="node8" class="node"><title>components/button.js</title>
<path fill="none" stroke="#cfffac" d="M1167.33,-226C1167.33,-226 1030.67,-226 1030.67,-226 1026.83,-226 1023,-222.167 1023,-218.333 1023,-218.333 1023,-210.667 1023,-210.667 1023,-206.833 1026.83,-203 1030.67,-203 1030.67,-203 1167.33,-203 1167.33,-203 1171.17,-203 1175,-206.833 1175,-210.667 1175,-210.667 1175,-218.333 1175,-218.333 1175,-222.167 1171.17,-226 1167.33,-226"/>
<text text-anchor="middle" x="1099" y="-210.8" font-family="Arial" font-size="14.00" fill="#cfffac">components/button.js</text>
</g>
<!-- components/buttonWrap.js -->
<g id="node10" class="node"><title>components/buttonWrap.js</title>
<path fill="none" stroke="#c6c5fe" d="M979.333,-226C979.333,-226 807.667,-226 807.667,-226 803.833,-226 800,-222.167 800,-218.333 800,-218.333 800,-210.667 800,-210.667 800,-206.833 803.833,-203 807.667,-203 807.667,-203 979.333,-203 979.333,-203 983.167,-203 987,-206.833 987,-210.667 987,-210.667 987,-218.333 987,-218.333 987,-222.167 983.167,-226 979.333,-226"/>
<text text-anchor="middle" x="893.5" y="-210.8" font-family="Arial" font-size="14.00" fill="#c6c5fe">components/buttonWrap.js</text>
</g>
<!-- components/buttonGrid.js&#45;&gt;components/buttonWrap.js -->
<g id="edge6" class="edge"><title>components/buttonGrid.js&#45;&gt;components/buttonWrap.js</title>
<path fill="none" stroke="#757575" d="M739.554,-201.834C755.83,-203.182 772.948,-204.599 789.603,-205.979"/>
<polygon fill="#757575" stroke="#757575" points="789.647,-209.494 799.901,-206.831 790.224,-202.518 789.647,-209.494"/>
</g>
<!-- components/buttonWrap.js&#45;&gt;actions/UI.js -->
<g id="edge7" class="edge"><title>components/buttonWrap.js&#45;&gt;actions/UI.js</title>
<path fill="none" stroke="#757575" d="M951.728,-202.97C979.892,-197.296 1013.73,-190.479 1041.76,-184.832"/>
<polygon fill="#757575" stroke="#757575" points="1042.69,-188.214 1051.8,-182.808 1041.31,-181.352 1042.69,-188.214"/>
</g>
<!-- components/buttonWrap.js&#45;&gt;components/button.js -->
<g id="edge8" class="edge"><title>components/buttonWrap.js&#45;&gt;components/button.js</title>
<path fill="none" stroke="#757575" d="M987.02,-214.5C995.53,-214.5 1004.13,-214.5 1012.57,-214.5"/>
<polygon fill="#757575" stroke="#757575" points="1012.77,-218 1022.77,-214.5 1012.77,-211 1012.77,-218"/>
</g>
<!-- index.js -->
<g id="node14" class="node"><title>index.js</title>
<path fill="none" stroke="#c6c5fe" d="M57.3333,-165C57.3333,-165 7.66667,-165 7.66667,-165 3.83333,-165 0,-161.167 0,-157.333 0,-157.333 0,-149.667 0,-149.667 0,-145.833 3.83333,-142 7.66667,-142 7.66667,-142 57.3333,-142 57.3333,-142 61.1667,-142 65,-145.833 65,-149.667 65,-149.667 65,-157.333 65,-157.333 65,-161.167 61.1667,-165 57.3333,-165"/>
<text text-anchor="middle" x="32.5" y="-149.8" font-family="Arial" font-size="14.00" fill="#c6c5fe">index.js</text>
</g>
<!-- index.js&#45;&gt;components/appRoot.js -->
<g id="edge14" class="edge"><title>index.js&#45;&gt;components/appRoot.js</title>
<path fill="none" stroke="#757575" d="M62.1621,-165.117C85.9082,-174.742 119.858,-188.502 145.892,-199.054"/>
<polygon fill="#757575" stroke="#757575" points="144.862,-202.413 155.445,-202.926 147.492,-195.926 144.862,-202.413"/>
</g>
<!-- store/store.js -->
<g id="node15" class="node"><title>store/store.js</title>
<path fill="none" stroke="#c6c5fe" d="M226.833,-95C226.833,-95 143.167,-95 143.167,-95 139.333,-95 135.5,-91.1667 135.5,-87.3333 135.5,-87.3333 135.5,-79.6667 135.5,-79.6667 135.5,-75.8333 139.333,-72 143.167,-72 143.167,-72 226.833,-72 226.833,-72 230.667,-72 234.5,-75.8333 234.5,-79.6667 234.5,-79.6667 234.5,-87.3333 234.5,-87.3333 234.5,-91.1667 230.667,-95 226.833,-95"/>
<text text-anchor="middle" x="185" y="-79.8" font-family="Arial" font-size="14.00" fill="#c6c5fe">store/store.js</text>
</g>
<!-- index.js&#45;&gt;store/store.js -->
<g id="edge15" class="edge"><title>index.js&#45;&gt;store/store.js</title>
<path fill="none" stroke="#757575" d="M58.352,-141.941C83.2962,-130.339 121.914,-112.377 149.754,-99.4286"/>
<polygon fill="#757575" stroke="#757575" points="151.52,-102.467 159.111,-95.0762 148.568,-96.1201 151.52,-102.467"/>
</g>
<!-- reducers/root.js -->
<g id="node16" class="node"><title>reducers/root.js</title>
<path fill="none" stroke="#c6c5fe" d="M452.833,-95C452.833,-95 352.167,-95 352.167,-95 348.333,-95 344.5,-91.1667 344.5,-87.3333 344.5,-87.3333 344.5,-79.6667 344.5,-79.6667 344.5,-75.8333 348.333,-72 352.167,-72 352.167,-72 452.833,-72 452.833,-72 456.667,-72 460.5,-75.8333 460.5,-79.6667 460.5,-79.6667 460.5,-87.3333 460.5,-87.3333 460.5,-91.1667 456.667,-95 452.833,-95"/>
<text text-anchor="middle" x="402.5" y="-79.8" font-family="Arial" font-size="14.00" fill="#c6c5fe">reducers/root.js</text>
</g>
<!-- store/store.js&#45;&gt;reducers/root.js -->
<g id="edge21" class="edge"><title>store/store.js&#45;&gt;reducers/root.js</title>
<path fill="none" stroke="#757575" d="M234.631,-83.5C263.979,-83.5 301.803,-83.5 334.017,-83.5"/>
<polygon fill="#757575" stroke="#757575" points="334.262,-87.0001 344.262,-83.5 334.262,-80.0001 334.262,-87.0001"/>
</g>
<!-- store/initialState.js -->
<g id="node19" class="node"><title>store/initialState.js</title>
<path fill="none" stroke="#c6c5fe" d="M707.833,-23C707.833,-23 592.167,-23 592.167,-23 588.333,-23 584.5,-19.1667 584.5,-15.3333 584.5,-15.3333 584.5,-7.66667 584.5,-7.66667 584.5,-3.83333 588.333,-0 592.167,-0 592.167,-0 707.833,-0 707.833,-0 711.667,-0 715.5,-3.83333 715.5,-7.66667 715.5,-7.66667 715.5,-15.3333 715.5,-15.3333 715.5,-19.1667 711.667,-23 707.833,-23"/>
<text text-anchor="middle" x="650" y="-7.8" font-family="Arial" font-size="14.00" fill="#c6c5fe">store/initialState.js</text>
</g>
<!-- store/store.js&#45;&gt;store/initialState.js -->
<g id="edge22" class="edge"><title>store/store.js&#45;&gt;store/initialState.js</title>
<path fill="none" stroke="#757575" d="M234.583,-74.6152C256.131,-70.7551 281.807,-66.2649 305,-62.5 397.586,-47.4703 504.49,-31.8998 574.234,-21.9803"/>
<polygon fill="#757575" stroke="#757575" points="574.839,-25.4295 584.248,-20.5585 573.855,-18.499 574.839,-25.4295"/>
</g>
<!-- reducers/root.js&#45;&gt;actions/UI.js -->
<g id="edge16" class="edge"><title>reducers/root.js&#45;&gt;actions/UI.js</title>
<path fill="none" stroke="#757575" d="M447.377,-95.0166C473.045,-101.355 506.17,-108.855 536,-113.5 734.797,-144.453 787.682,-125.099 987,-152.5 1004.95,-154.967 1024.39,-158.388 1041.92,-161.753"/>
<polygon fill="#757575" stroke="#757575" points="1041.51,-165.239 1052,-163.721 1042.85,-158.369 1041.51,-165.239"/>
</g>
<!-- reducers/updateLowerButtonUI.js -->
<g id="node17" class="node"><title>reducers/updateLowerButtonUI.js</title>
<path fill="none" stroke="#cfffac" d="M756.333,-105C756.333,-105 543.667,-105 543.667,-105 539.833,-105 536,-101.167 536,-97.3333 536,-97.3333 536,-89.6667 536,-89.6667 536,-85.8333 539.833,-82 543.667,-82 543.667,-82 756.333,-82 756.333,-82 760.167,-82 764,-85.8333 764,-89.6667 764,-89.6667 764,-97.3333 764,-97.3333 764,-101.167 760.167,-105 756.333,-105"/>
<text text-anchor="middle" x="650" y="-89.8" font-family="Arial" font-size="14.00" fill="#cfffac">reducers/updateLowerButtonUI.js</text>
</g>
<!-- reducers/root.js&#45;&gt;reducers/updateLowerButtonUI.js -->
<g id="edge17" class="edge"><title>reducers/root.js&#45;&gt;reducers/updateLowerButtonUI.js</title>
<path fill="none" stroke="#757575" d="M460.749,-85.8319C480.25,-86.6263 502.869,-87.5476 525.522,-88.4704"/>
<polygon fill="#757575" stroke="#757575" points="525.437,-91.9697 535.571,-88.8797 525.722,-84.9755 525.437,-91.9697"/>
</g>
<!-- reducers/updateStatUI.js -->
<g id="node18" class="node"><title>reducers/updateStatUI.js</title>
<path fill="none" stroke="#cfffac" d="M728.833,-64C728.833,-64 571.167,-64 571.167,-64 567.333,-64 563.5,-60.1667 563.5,-56.3333 563.5,-56.3333 563.5,-48.6667 563.5,-48.6667 563.5,-44.8333 567.333,-41 571.167,-41 571.167,-41 728.833,-41 728.833,-41 732.667,-41 736.5,-44.8333 736.5,-48.6667 736.5,-48.6667 736.5,-56.3333 736.5,-56.3333 736.5,-60.1667 732.667,-64 728.833,-64"/>
<text text-anchor="middle" x="650" y="-48.8" font-family="Arial" font-size="14.00" fill="#cfffac">reducers/updateStatUI.js</text>
</g>
<!-- reducers/root.js&#45;&gt;reducers/updateStatUI.js -->
<g id="edge18" class="edge"><title>reducers/root.js&#45;&gt;reducers/updateStatUI.js</title>
<path fill="none" stroke="#757575" d="M460.749,-76.271C488.237,-72.8001 521.922,-68.5465 553.161,-64.6019"/>
<polygon fill="#757575" stroke="#757575" points="553.724,-68.0587 563.207,-63.3334 552.847,-61.1138 553.724,-68.0587"/>
</g>
<!-- reducers/root.js&#45;&gt;store/initialState.js -->
<g id="edge19" class="edge"><title>reducers/root.js&#45;&gt;store/initialState.js</title>
<path fill="none" stroke="#757575" d="M428.877,-71.7886C455.171,-60.0736 497.705,-42.2876 536,-31.5 548.181,-28.0687 561.274,-25.1089 574.077,-22.5978"/>
<polygon fill="#757575" stroke="#757575" points="575.08,-25.9705 584.259,-20.6797 573.784,-19.0915 575.08,-25.9705"/>
</g>
<!-- scenes/menus.js -->
<g id="node20" class="node"><title>scenes/menus.js</title>
<path fill="none" stroke="#cfffac" d="M947.833,-23C947.833,-23 839.167,-23 839.167,-23 835.333,-23 831.5,-19.1667 831.5,-15.3333 831.5,-15.3333 831.5,-7.66667 831.5,-7.66667 831.5,-3.83333 835.333,-0 839.167,-0 839.167,-0 947.833,-0 947.833,-0 951.667,-0 955.5,-3.83333 955.5,-7.66667 955.5,-7.66667 955.5,-15.3333 955.5,-15.3333 955.5,-19.1667 951.667,-23 947.833,-23"/>
<text text-anchor="middle" x="893.5" y="-7.8" font-family="Arial" font-size="14.00" fill="#cfffac">scenes/menus.js</text>
</g>
<!-- store/initialState.js&#45;&gt;scenes/menus.js -->
<g id="edge20" class="edge"><title>store/initialState.js&#45;&gt;scenes/menus.js</title>
<path fill="none" stroke="#757575" d="M715.718,-11.5C748.259,-11.5 787.776,-11.5 821.188,-11.5"/>
<polygon fill="#757575" stroke="#757575" points="821.347,-15.0001 831.347,-11.5 821.347,-8.0001 821.347,-15.0001"/>
</g>
<!-- utils.js -->
<g id="node21" class="node"><title>utils.js</title>
<path fill="none" stroke="#cfffac" d="M52.8333,-206C52.8333,-206 12.1667,-206 12.1667,-206 8.33333,-206 4.5,-202.167 4.5,-198.333 4.5,-198.333 4.5,-190.667 4.5,-190.667 4.5,-186.833 8.33333,-183 12.1667,-183 12.1667,-183 52.8333,-183 52.8333,-183 56.6667,-183 60.5,-186.833 60.5,-190.667 60.5,-190.667 60.5,-198.333 60.5,-198.333 60.5,-202.167 56.6667,-206 52.8333,-206"/>
<text text-anchor="middle" x="32.5" y="-190.8" font-family="Arial" font-size="14.00" fill="#cfffac">utils.js</text>
</g>
</g>
</svg>
