<?xml version="1.0" encoding="UTF-8" standalone="no"?>
<!DOCTYPE svg PUBLIC "-//W3C//DTD SVG 1.1//EN"
 "http://www.w3.org/Graphics/SVG/1.1/DTD/svg11.dtd">
<!-- Generated by graphviz version 2.38.0 (20140413.2041)
 -->
<!-- Title: G Pages: 1 -->
<svg width="3409pt" height="1062pt"
 viewBox="0.00 0.00 3409.20 1062.38" xmlns="http://www.w3.org/2000/svg" xmlns:xlink="http://www.w3.org/1999/xlink">
<g id="graph0" class="graph" transform="scale(1 1) rotate(0) translate(21.6 1040.78)">
<title>G</title>
<polygon fill="#111111" stroke="none" points="-21.6,21.6 -21.6,-1040.78 3387.6,-1040.78 3387.6,21.6 -21.6,21.6"/>
<!-- actions/Core.js -->
<g id="node1" class="node"><title>actions/Core.js</title>
<path fill="none" stroke="#ff6c60" d="M2417.83,-523.685C2417.83,-523.685 2322.17,-523.685 2322.17,-523.685 2318.33,-523.685 2314.5,-519.852 2314.5,-516.018 2314.5,-516.018 2314.5,-508.352 2314.5,-508.352 2314.5,-504.518 2318.33,-500.685 2322.17,-500.685 2322.17,-500.685 2417.83,-500.685 2417.83,-500.685 2421.67,-500.685 2425.5,-504.518 2425.5,-508.352 2425.5,-508.352 2425.5,-516.018 2425.5,-516.018 2425.5,-519.852 2421.67,-523.685 2417.83,-523.685"/>
<text text-anchor="middle" x="2370" y="-508.485" font-family="Arial" font-size="14.00" fill="#ff6c60">actions/Core.js</text>
</g>
<!-- actions/coreMsg.js -->
<g id="node2" class="node"><title>actions/coreMsg.js</title>
<path fill="none" stroke="#cfffac" d="M3241.33,-617.685C3241.33,-617.685 3121.67,-617.685 3121.67,-617.685 3117.83,-617.685 3114,-613.852 3114,-610.018 3114,-610.018 3114,-602.352 3114,-602.352 3114,-598.518 3117.83,-594.685 3121.67,-594.685 3121.67,-594.685 3241.33,-594.685 3241.33,-594.685 3245.17,-594.685 3249,-598.518 3249,-602.352 3249,-602.352 3249,-610.018 3249,-610.018 3249,-613.852 3245.17,-617.685 3241.33,-617.685"/>
<text text-anchor="middle" x="3181.5" y="-602.485" font-family="Arial" font-size="14.00" fill="#cfffac">actions/coreMsg.js</text>
</g>
<!-- actions/Core.js&#45;&gt;actions/coreMsg.js -->
<g id="edge1" class="edge"><title>actions/Core.js&#45;&gt;actions/coreMsg.js</title>
<path fill="none" stroke="#757575" d="M2425.69,-518.535C2566.35,-534.87 2941.05,-578.38 3103.55,-597.249"/>
<polygon fill="#757575" stroke="#757575" points="3103.6,-600.779 3113.94,-598.456 3104.41,-593.825 3103.6,-600.779"/>
</g>
<!-- store/store.js -->
<g id="node3" class="node"><title>store/store.js</title>
<path fill="none" stroke="#ff6c60" d="M2592.83,-389.685C2592.83,-389.685 2509.17,-389.685 2509.17,-389.685 2505.33,-389.685 2501.5,-385.852 2501.5,-382.018 2501.5,-382.018 2501.5,-374.352 2501.5,-374.352 2501.5,-370.518 2505.33,-366.685 2509.17,-366.685 2509.17,-366.685 2592.83,-366.685 2592.83,-366.685 2596.67,-366.685 2600.5,-370.518 2600.5,-374.352 2600.5,-374.352 2600.5,-382.018 2600.5,-382.018 2600.5,-385.852 2596.67,-389.685 2592.83,-389.685"/>
<text text-anchor="middle" x="2551" y="-374.485" font-family="Arial" font-size="14.00" fill="#ff6c60">store/store.js</text>
</g>
<!-- actions/Core.js&#45;&gt;store/store.js -->
<g id="edge2" class="edge"><title>actions/Core.js&#45;&gt;store/store.js</title>
<path fill="none" stroke="#757575" d="M2383.13,-500.576C2398.15,-486.193 2424.5,-460.925 2447,-439.185 2463.05,-423.678 2464.22,-416.241 2483,-404.185 2489.14,-400.246 2495.96,-396.75 2502.84,-393.701"/>
<polygon fill="#757575" stroke="#757575" points="2504.3,-396.884 2512.2,-389.82 2501.62,-390.418 2504.3,-396.884"/>
</g>
<!-- reducers/root.js -->
<g id="node35" class="node"><title>reducers/root.js</title>
<path fill="none" stroke="#ff6c60" d="M2793.33,-483.685C2793.33,-483.685 2692.67,-483.685 2692.67,-483.685 2688.83,-483.685 2685,-479.852 2685,-476.018 2685,-476.018 2685,-468.352 2685,-468.352 2685,-464.518 2688.83,-460.685 2692.67,-460.685 2692.67,-460.685 2793.33,-460.685 2793.33,-460.685 2797.17,-460.685 2801,-464.518 2801,-468.352 2801,-468.352 2801,-476.018 2801,-476.018 2801,-479.852 2797.17,-483.685 2793.33,-483.685"/>
<text text-anchor="middle" x="2743" y="-468.485" font-family="Arial" font-size="14.00" fill="#ff6c60">reducers/root.js</text>
</g>
<!-- store/store.js&#45;&gt;reducers/root.js -->
<g id="edge96" class="edge"><title>store/store.js&#45;&gt;reducers/root.js</title>
<path fill="none" stroke="#757575" d="M2575.3,-389.711C2608.91,-406.343 2671.17,-437.143 2709.35,-456.034"/>
<polygon fill="#757575" stroke="#757575" points="2708,-459.267 2718.51,-460.564 2711.1,-452.993 2708,-459.267"/>
</g>
<!-- actions/Enemy.js -->
<g id="node4" class="node"><title>actions/Enemy.js</title>
<path fill="none" stroke="#c6c5fe" d="M2424.33,-244.685C2424.33,-244.685 2315.67,-244.685 2315.67,-244.685 2311.83,-244.685 2308,-240.852 2308,-237.018 2308,-237.018 2308,-229.352 2308,-229.352 2308,-225.518 2311.83,-221.685 2315.67,-221.685 2315.67,-221.685 2424.33,-221.685 2424.33,-221.685 2428.17,-221.685 2432,-225.518 2432,-229.352 2432,-229.352 2432,-237.018 2432,-237.018 2432,-240.852 2428.17,-244.685 2424.33,-244.685"/>
<text text-anchor="middle" x="2370" y="-229.485" font-family="Arial" font-size="14.00" fill="#c6c5fe">actions/Enemy.js</text>
</g>
<!-- actions/Enemy.js&#45;&gt;store/store.js -->
<g id="edge4" class="edge"><title>actions/Enemy.js&#45;&gt;store/store.js</title>
<path fill="none" stroke="#757575" d="M2417.45,-244.735C2427.68,-248.435 2438.1,-253.18 2447,-259.185 2486.54,-285.86 2520.05,-331.487 2537.37,-357.817"/>
<polygon fill="#757575" stroke="#757575" points="2534.64,-360.055 2542.99,-366.574 2540.53,-356.27 2534.64,-360.055"/>
</g>
<!-- actions/enemyMsg.js -->
<g id="node5" class="node"><title>actions/enemyMsg.js</title>
<path fill="none" stroke="#cfffac" d="M3026.83,-282.685C3026.83,-282.685 2893.17,-282.685 2893.17,-282.685 2889.33,-282.685 2885.5,-278.852 2885.5,-275.018 2885.5,-275.018 2885.5,-267.352 2885.5,-267.352 2885.5,-263.518 2889.33,-259.685 2893.17,-259.685 2893.17,-259.685 3026.83,-259.685 3026.83,-259.685 3030.67,-259.685 3034.5,-263.518 3034.5,-267.352 3034.5,-267.352 3034.5,-275.018 3034.5,-275.018 3034.5,-278.852 3030.67,-282.685 3026.83,-282.685"/>
<text text-anchor="middle" x="2960" y="-267.485" font-family="Arial" font-size="14.00" fill="#cfffac">actions/enemyMsg.js</text>
</g>
<!-- actions/Enemy.js&#45;&gt;actions/enemyMsg.js -->
<g id="edge3" class="edge"><title>actions/Enemy.js&#45;&gt;actions/enemyMsg.js</title>
<path fill="none" stroke="#757575" d="M2432.26,-237.144C2538.01,-243.978 2754.97,-257.999 2874.81,-265.744"/>
<polygon fill="#757575" stroke="#757575" points="2874.83,-269.253 2885.04,-266.405 2875.29,-262.267 2874.83,-269.253"/>
</g>
<!-- actions/Engine.js -->
<g id="node6" class="node"><title>actions/Engine.js</title>
<path fill="none" stroke="#c6c5fe" d="M987.833,-409.685C987.833,-409.685 879.167,-409.685 879.167,-409.685 875.333,-409.685 871.5,-405.852 871.5,-402.018 871.5,-402.018 871.5,-394.352 871.5,-394.352 871.5,-390.518 875.333,-386.685 879.167,-386.685 879.167,-386.685 987.833,-386.685 987.833,-386.685 991.667,-386.685 995.5,-390.518 995.5,-394.352 995.5,-394.352 995.5,-402.018 995.5,-402.018 995.5,-405.852 991.667,-409.685 987.833,-409.685"/>
<text text-anchor="middle" x="933.5" y="-394.485" font-family="Arial" font-size="14.00" fill="#c6c5fe">actions/Engine.js</text>
</g>
<!-- scenes/sceneFunctions.js -->
<g id="node7" class="node"><title>scenes/sceneFunctions.js</title>
<path fill="none" stroke="#c6c5fe" d="M1237.33,-436.685C1237.33,-436.685 1070.67,-436.685 1070.67,-436.685 1066.83,-436.685 1063,-432.852 1063,-429.018 1063,-429.018 1063,-421.352 1063,-421.352 1063,-417.518 1066.83,-413.685 1070.67,-413.685 1070.67,-413.685 1237.33,-413.685 1237.33,-413.685 1241.17,-413.685 1245,-417.518 1245,-421.352 1245,-421.352 1245,-429.018 1245,-429.018 1245,-432.852 1241.17,-436.685 1237.33,-436.685"/>
<text text-anchor="middle" x="1154" y="-421.485" font-family="Arial" font-size="14.00" fill="#c6c5fe">scenes/sceneFunctions.js</text>
</g>
<!-- actions/Engine.js&#45;&gt;scenes/sceneFunctions.js -->
<g id="edge5" class="edge"><title>actions/Engine.js&#45;&gt;scenes/sceneFunctions.js</title>
<path fill="none" stroke="#757575" d="M995.655,-405.742C1013.39,-407.934 1033.25,-410.387 1052.72,-412.793"/>
<polygon fill="#757575" stroke="#757575" points="1052.5,-416.292 1062.85,-414.045 1053.36,-409.345 1052.5,-416.292"/>
</g>
<!-- scenes/sceneFunctions.js&#45;&gt;actions/Core.js -->
<g id="edge77" class="edge"><title>scenes/sceneFunctions.js&#45;&gt;actions/Core.js</title>
<path fill="none" stroke="#757575" d="M1178.16,-436.77C1203.04,-448.82 1244,-467.524 1281,-479.185 1605.05,-581.318 1696.38,-609.165 2036,-599.185 2134.35,-596.295 2172.46,-636.521 2257,-586.185 2283.07,-570.664 2268.16,-545.6 2293,-528.185 2296.7,-525.59 2300.74,-523.4 2304.96,-521.553"/>
<polygon fill="#757575" stroke="#757575" points="2306.27,-524.799 2314.43,-518.037 2303.84,-518.237 2306.27,-524.799"/>
</g>
<!-- scenes/sceneFunctions.js&#45;&gt;store/store.js -->
<g id="edge84" class="edge"><title>scenes/sceneFunctions.js&#45;&gt;store/store.js</title>
<path fill="none" stroke="#757575" d="M1189.49,-413.642C1256.19,-392.381 1407.84,-349.185 1539,-349.185 1539,-349.185 1539,-349.185 2165.5,-349.185 2281.06,-349.185 2415.61,-362.372 2490.99,-370.961"/>
<polygon fill="#757575" stroke="#757575" points="2490.89,-374.473 2501.23,-372.141 2491.7,-367.519 2490.89,-374.473"/>
</g>
<!-- scenes/charCreation.js -->
<g id="node42" class="node"><title>scenes/charCreation.js</title>
<path fill="none" stroke="#c6c5fe" d="M1434.33,-673.685C1434.33,-673.685 1288.67,-673.685 1288.67,-673.685 1284.83,-673.685 1281,-669.852 1281,-666.018 1281,-666.018 1281,-658.352 1281,-658.352 1281,-654.518 1284.83,-650.685 1288.67,-650.685 1288.67,-650.685 1434.33,-650.685 1434.33,-650.685 1438.17,-650.685 1442,-654.518 1442,-658.352 1442,-658.352 1442,-666.018 1442,-666.018 1442,-669.852 1438.17,-673.685 1434.33,-673.685"/>
<text text-anchor="middle" x="1361.5" y="-658.485" font-family="Arial" font-size="14.00" fill="#c6c5fe">scenes/charCreation.js</text>
</g>
<!-- scenes/sceneFunctions.js&#45;&gt;scenes/charCreation.js -->
<g id="edge78" class="edge"><title>scenes/sceneFunctions.js&#45;&gt;scenes/charCreation.js</title>
<path fill="none" stroke="#757575" d="M1158.32,-436.936C1169.23,-473.368 1207.58,-585.318 1281,-641.185 1283.34,-642.968 1285.82,-644.6 1288.41,-646.094"/>
<polygon fill="#757575" stroke="#757575" points="1287.01,-649.31 1297.52,-650.658 1290.15,-643.051 1287.01,-649.31"/>
</g>
<!-- scenes/menus.js -->
<g id="node43" class="node"><title>scenes/menus.js</title>
<path fill="none" stroke="#c6c5fe" d="M1594.33,-436.685C1594.33,-436.685 1485.67,-436.685 1485.67,-436.685 1481.83,-436.685 1478,-432.852 1478,-429.018 1478,-429.018 1478,-421.352 1478,-421.352 1478,-417.518 1481.83,-413.685 1485.67,-413.685 1485.67,-413.685 1594.33,-413.685 1594.33,-413.685 1598.17,-413.685 1602,-417.518 1602,-421.352 1602,-421.352 1602,-429.018 1602,-429.018 1602,-432.852 1598.17,-436.685 1594.33,-436.685"/>
<text text-anchor="middle" x="1540" y="-421.485" font-family="Arial" font-size="14.00" fill="#c6c5fe">scenes/menus.js</text>
</g>
<!-- scenes/sceneFunctions.js&#45;&gt;scenes/menus.js -->
<g id="edge81" class="edge"><title>scenes/sceneFunctions.js&#45;&gt;scenes/menus.js</title>
<path fill="none" stroke="#757575" d="M1245.03,-425.185C1312.96,-425.185 1404.88,-425.185 1467.74,-425.185"/>
<polygon fill="#757575" stroke="#757575" points="1467.96,-428.685 1477.96,-425.185 1467.96,-421.685 1467.96,-428.685"/>
</g>
<!-- scenes/sceneSymbols.js -->
<g id="node44" class="node"><title>scenes/sceneSymbols.js</title>
<path fill="none" stroke="#cfffac" d="M3261.83,-121.685C3261.83,-121.685 3101.17,-121.685 3101.17,-121.685 3097.33,-121.685 3093.5,-117.852 3093.5,-114.018 3093.5,-114.018 3093.5,-106.352 3093.5,-106.352 3093.5,-102.518 3097.33,-98.6848 3101.17,-98.6848 3101.17,-98.6848 3261.83,-98.6848 3261.83,-98.6848 3265.67,-98.6848 3269.5,-102.518 3269.5,-106.352 3269.5,-106.352 3269.5,-114.018 3269.5,-114.018 3269.5,-117.852 3265.67,-121.685 3261.83,-121.685"/>
<text text-anchor="middle" x="3181.5" y="-106.485" font-family="Arial" font-size="14.00" fill="#cfffac">scenes/sceneSymbols.js</text>
</g>
<!-- scenes/sceneFunctions.js&#45;&gt;scenes/sceneSymbols.js -->
<g id="edge82" class="edge"><title>scenes/sceneFunctions.js&#45;&gt;scenes/sceneSymbols.js</title>
<path fill="none" stroke="#757575" d="M1165.56,-413.374C1226.98,-344.734 1535.42,-0.184837 1539,-0.184837 1539,-0.184837 1539,-0.184837 2744,-0.184837 2882.48,-0.184837 2921.35,2.77256 3053,-40.1848 3091.06,-52.6032 3130.87,-76.4852 3155.68,-92.8705"/>
<polygon fill="#757575" stroke="#757575" points="3153.85,-95.8609 3164.1,-98.5329 3157.76,-90.0506 3153.85,-95.8609"/>
</g>
<!-- scenes/combat/combat.js -->
<g id="node48" class="node"><title>scenes/combat/combat.js</title>
<path fill="none" stroke="#c6c5fe" d="M2027.83,-302.685C2027.83,-302.685 1864.17,-302.685 1864.17,-302.685 1860.33,-302.685 1856.5,-298.852 1856.5,-295.018 1856.5,-295.018 1856.5,-287.352 1856.5,-287.352 1856.5,-283.518 1860.33,-279.685 1864.17,-279.685 1864.17,-279.685 2027.83,-279.685 2027.83,-279.685 2031.67,-279.685 2035.5,-283.518 2035.5,-287.352 2035.5,-287.352 2035.5,-295.018 2035.5,-295.018 2035.5,-298.852 2031.67,-302.685 2027.83,-302.685"/>
<text text-anchor="middle" x="1946" y="-287.485" font-family="Arial" font-size="14.00" fill="#c6c5fe">scenes/combat/combat.js</text>
</g>
<!-- scenes/sceneFunctions.js&#45;&gt;scenes/combat/combat.js -->
<g id="edge79" class="edge"><title>scenes/sceneFunctions.js&#45;&gt;scenes/combat/combat.js</title>
<path fill="none" stroke="#757575" d="M1166.54,-413.431C1187.28,-393.19 1233.16,-352.282 1281,-335.185 1471.99,-266.935 1713.28,-271.599 1846.08,-281.27"/>
<polygon fill="#757575" stroke="#757575" points="1846,-284.773 1856.23,-282.034 1846.52,-277.793 1846,-284.773"/>
</g>
<!-- scenes/inv/inv.js -->
<g id="node49" class="node"><title>scenes/inv/inv.js</title>
<path fill="none" stroke="#c6c5fe" d="M1997.83,-590.685C1997.83,-590.685 1894.17,-590.685 1894.17,-590.685 1890.33,-590.685 1886.5,-586.852 1886.5,-583.018 1886.5,-583.018 1886.5,-575.352 1886.5,-575.352 1886.5,-571.518 1890.33,-567.685 1894.17,-567.685 1894.17,-567.685 1997.83,-567.685 1997.83,-567.685 2001.67,-567.685 2005.5,-571.518 2005.5,-575.352 2005.5,-575.352 2005.5,-583.018 2005.5,-583.018 2005.5,-586.852 2001.67,-590.685 1997.83,-590.685"/>
<text text-anchor="middle" x="1946" y="-575.485" font-family="Arial" font-size="14.00" fill="#c6c5fe">scenes/inv/inv.js</text>
</g>
<!-- scenes/sceneFunctions.js&#45;&gt;scenes/inv/inv.js -->
<g id="edge80" class="edge"><title>scenes/sceneFunctions.js&#45;&gt;scenes/inv/inv.js</title>
<path fill="none" stroke="#757575" d="M1214.06,-436.697C1357.45,-464.649 1723.43,-535.992 1876.29,-565.79"/>
<polygon fill="#757575" stroke="#757575" points="1876,-569.299 1886.48,-567.777 1877.34,-562.429 1876,-569.299"/>
</g>
<!-- scenes/tests/testing.js -->
<g id="node51" class="node"><title>scenes/tests/testing.js</title>
<path fill="none" stroke="#cfffac" d="M1432.83,-632.685C1432.83,-632.685 1290.17,-632.685 1290.17,-632.685 1286.33,-632.685 1282.5,-628.852 1282.5,-625.018 1282.5,-625.018 1282.5,-617.352 1282.5,-617.352 1282.5,-613.518 1286.33,-609.685 1290.17,-609.685 1290.17,-609.685 1432.83,-609.685 1432.83,-609.685 1436.67,-609.685 1440.5,-613.518 1440.5,-617.352 1440.5,-617.352 1440.5,-625.018 1440.5,-625.018 1440.5,-628.852 1436.67,-632.685 1432.83,-632.685"/>
<text text-anchor="middle" x="1361.5" y="-617.485" font-family="Arial" font-size="14.00" fill="#cfffac">scenes/tests/testing.js</text>
</g>
<!-- scenes/sceneFunctions.js&#45;&gt;scenes/tests/testing.js -->
<g id="edge83" class="edge"><title>scenes/sceneFunctions.js&#45;&gt;scenes/tests/testing.js</title>
<path fill="none" stroke="#757575" d="M1160.52,-437.043C1175.43,-467.821 1219.61,-550.935 1281,-595.185 1286.83,-599.388 1293.38,-602.937 1300.15,-605.929"/>
<polygon fill="#757575" stroke="#757575" points="1298.89,-609.195 1309.47,-609.672 1301.5,-602.699 1298.89,-609.195"/>
</g>
<!-- actions/Inv.js -->
<g id="node8" class="node"><title>actions/Inv.js</title>
<path fill="none" stroke="#c6c5fe" d="M2411.33,-756.685C2411.33,-756.685 2328.67,-756.685 2328.67,-756.685 2324.83,-756.685 2321,-752.852 2321,-749.018 2321,-749.018 2321,-741.352 2321,-741.352 2321,-737.518 2324.83,-733.685 2328.67,-733.685 2328.67,-733.685 2411.33,-733.685 2411.33,-733.685 2415.17,-733.685 2419,-737.518 2419,-741.352 2419,-741.352 2419,-749.018 2419,-749.018 2419,-752.852 2415.17,-756.685 2411.33,-756.685"/>
<text text-anchor="middle" x="2370" y="-741.485" font-family="Arial" font-size="14.00" fill="#c6c5fe">actions/Inv.js</text>
</g>
<!-- actions/Inv.js&#45;&gt;store/store.js -->
<g id="edge7" class="edge"><title>actions/Inv.js&#45;&gt;store/store.js</title>
<path fill="none" stroke="#757575" d="M2419.18,-736.311C2429.44,-732.487 2439.45,-727.014 2447,-719.185 2536.33,-626.552 2548.49,-459.206 2549.91,-399.812"/>
<polygon fill="#757575" stroke="#757575" points="2553.41,-399.777 2550.07,-389.723 2546.42,-399.666 2553.41,-399.777"/>
</g>
<!-- actions/invMsg.js -->
<g id="node9" class="node"><title>actions/invMsg.js</title>
<path fill="none" stroke="#cfffac" d="M3014.33,-760.685C3014.33,-760.685 2905.67,-760.685 2905.67,-760.685 2901.83,-760.685 2898,-756.852 2898,-753.018 2898,-753.018 2898,-745.352 2898,-745.352 2898,-741.518 2901.83,-737.685 2905.67,-737.685 2905.67,-737.685 3014.33,-737.685 3014.33,-737.685 3018.17,-737.685 3022,-741.518 3022,-745.352 3022,-745.352 3022,-753.018 3022,-753.018 3022,-756.852 3018.17,-760.685 3014.33,-760.685"/>
<text text-anchor="middle" x="2960" y="-745.485" font-family="Arial" font-size="14.00" fill="#cfffac">actions/invMsg.js</text>
</g>
<!-- actions/Inv.js&#45;&gt;actions/invMsg.js -->
<g id="edge6" class="edge"><title>actions/Inv.js&#45;&gt;actions/invMsg.js</title>
<path fill="none" stroke="#757575" d="M2419.12,-745.512C2522.39,-746.215 2765.75,-747.87 2887.3,-748.697"/>
<polygon fill="#757575" stroke="#757575" points="2887.59,-752.199 2897.61,-748.767 2887.63,-745.199 2887.59,-752.199"/>
</g>
<!-- actions/Perks.js -->
<g id="node10" class="node"><title>actions/Perks.js</title>
<path fill="none" stroke="#c6c5fe" d="M2420.33,-203.685C2420.33,-203.685 2319.67,-203.685 2319.67,-203.685 2315.83,-203.685 2312,-199.852 2312,-196.018 2312,-196.018 2312,-188.352 2312,-188.352 2312,-184.518 2315.83,-180.685 2319.67,-180.685 2319.67,-180.685 2420.33,-180.685 2420.33,-180.685 2424.17,-180.685 2428,-184.518 2428,-188.352 2428,-188.352 2428,-196.018 2428,-196.018 2428,-199.852 2424.17,-203.685 2420.33,-203.685"/>
<text text-anchor="middle" x="2370" y="-188.485" font-family="Arial" font-size="14.00" fill="#c6c5fe">actions/Perks.js</text>
</g>
<!-- actions/Perks.js&#45;&gt;store/store.js -->
<g id="edge9" class="edge"><title>actions/Perks.js&#45;&gt;store/store.js</title>
<path fill="none" stroke="#757575" d="M2428.39,-202.165C2435.02,-204.768 2441.4,-208.05 2447,-212.185 2497.92,-249.814 2529.35,-320.841 2542.64,-356.543"/>
<polygon fill="#757575" stroke="#757575" points="2539.51,-358.183 2546.18,-366.413 2546.09,-355.819 2539.51,-358.183"/>
</g>
<!-- actions/engineMsg.js -->
<g id="node11" class="node"><title>actions/engineMsg.js</title>
<path fill="none" stroke="#cfffac" d="M3248.33,-171.685C3248.33,-171.685 3114.67,-171.685 3114.67,-171.685 3110.83,-171.685 3107,-167.852 3107,-164.018 3107,-164.018 3107,-156.352 3107,-156.352 3107,-152.518 3110.83,-148.685 3114.67,-148.685 3114.67,-148.685 3248.33,-148.685 3248.33,-148.685 3252.17,-148.685 3256,-152.518 3256,-156.352 3256,-156.352 3256,-164.018 3256,-164.018 3256,-167.852 3252.17,-171.685 3248.33,-171.685"/>
<text text-anchor="middle" x="3181.5" y="-156.485" font-family="Arial" font-size="14.00" fill="#cfffac">actions/engineMsg.js</text>
</g>
<!-- actions/Perks.js&#45;&gt;actions/engineMsg.js -->
<g id="edge8" class="edge"><title>actions/Perks.js&#45;&gt;actions/engineMsg.js</title>
<path fill="none" stroke="#757575" d="M2428.04,-190.182C2545.17,-186.032 2821.27,-176.054 3053,-166.185 3067.12,-165.583 3082.12,-164.909 3096.68,-164.236"/>
<polygon fill="#757575" stroke="#757575" points="3096.85,-167.732 3106.68,-163.771 3096.53,-160.739 3096.85,-167.732"/>
</g>
<!-- actions/Player.js -->
<g id="node12" class="node"><title>actions/Player.js</title>
<path fill="none" stroke="#c6c5fe" d="M2216.33,-670.685C2216.33,-670.685 2112.67,-670.685 2112.67,-670.685 2108.83,-670.685 2105,-666.852 2105,-663.018 2105,-663.018 2105,-655.352 2105,-655.352 2105,-651.518 2108.83,-647.685 2112.67,-647.685 2112.67,-647.685 2216.33,-647.685 2216.33,-647.685 2220.17,-647.685 2224,-651.518 2224,-655.352 2224,-655.352 2224,-663.018 2224,-663.018 2224,-666.852 2220.17,-670.685 2216.33,-670.685"/>
<text text-anchor="middle" x="2164.5" y="-655.485" font-family="Arial" font-size="14.00" fill="#c6c5fe">actions/Player.js</text>
</g>
<!-- actions/Player.js&#45;&gt;actions/Core.js -->
<g id="edge10" class="edge"><title>actions/Player.js&#45;&gt;actions/Core.js</title>
<path fill="none" stroke="#757575" d="M2224.07,-650.809C2235.97,-646.955 2247.68,-641.344 2257,-633.185 2287.25,-606.696 2265.35,-579.38 2293,-550.185 2301.64,-541.064 2312.94,-533.806 2324.17,-528.181"/>
<polygon fill="#757575" stroke="#757575" points="2325.94,-531.22 2333.54,-523.836 2322.99,-524.871 2325.94,-531.22"/>
</g>
<!-- actions/Player.js&#45;&gt;store/store.js -->
<g id="edge12" class="edge"><title>actions/Player.js&#45;&gt;store/store.js</title>
<path fill="none" stroke="#757575" d="M2218.51,-647.675C2231.45,-643.91 2245.01,-639.125 2257,-633.185 2274.92,-624.303 2275.9,-616.566 2293,-606.185 2357.91,-566.771 2389.64,-581.948 2447,-532.185 2491.5,-493.574 2525.05,-431.372 2540.54,-399.108"/>
<polygon fill="#757575" stroke="#757575" points="2543.85,-400.292 2544.93,-389.752 2537.51,-397.322 2543.85,-400.292"/>
</g>
<!-- actions/playerMsg.js -->
<g id="node13" class="node"><title>actions/playerMsg.js</title>
<path fill="none" stroke="#cfffac" d="M3246.33,-706.685C3246.33,-706.685 3116.67,-706.685 3116.67,-706.685 3112.83,-706.685 3109,-702.852 3109,-699.018 3109,-699.018 3109,-691.352 3109,-691.352 3109,-687.518 3112.83,-683.685 3116.67,-683.685 3116.67,-683.685 3246.33,-683.685 3246.33,-683.685 3250.17,-683.685 3254,-687.518 3254,-691.352 3254,-691.352 3254,-699.018 3254,-699.018 3254,-702.852 3250.17,-706.685 3246.33,-706.685"/>
<text text-anchor="middle" x="3181.5" y="-691.485" font-family="Arial" font-size="14.00" fill="#cfffac">actions/playerMsg.js</text>
</g>
<!-- actions/Player.js&#45;&gt;actions/playerMsg.js -->
<g id="edge11" class="edge"><title>actions/Player.js&#45;&gt;actions/playerMsg.js</title>
<path fill="none" stroke="#757575" d="M2174.5,-670.733C2193.42,-693.974 2240.01,-745.824 2293,-765.185 2372.32,-794.163 2979.2,-810.236 3053,-769.185 3079.51,-754.436 3063.86,-728.171 3089,-711.185 3092.29,-708.963 3095.79,-707.02 3099.43,-705.324"/>
<polygon fill="#757575" stroke="#757575" points="3100.76,-708.563 3108.74,-701.595 3098.16,-702.065 3100.76,-708.563"/>
</g>
<!-- symbols/breastCup.js -->
<g id="node14" class="node"><title>symbols/breastCup.js</title>
<path fill="none" stroke="#c6c5fe" d="M2439.33,-952.685C2439.33,-952.685 2300.67,-952.685 2300.67,-952.685 2296.83,-952.685 2293,-948.852 2293,-945.018 2293,-945.018 2293,-937.352 2293,-937.352 2293,-933.518 2296.83,-929.685 2300.67,-929.685 2300.67,-929.685 2439.33,-929.685 2439.33,-929.685 2443.17,-929.685 2447,-933.518 2447,-937.352 2447,-937.352 2447,-945.018 2447,-945.018 2447,-948.852 2443.17,-952.685 2439.33,-952.685"/>
<text text-anchor="middle" x="2370" y="-937.485" font-family="Arial" font-size="14.00" fill="#c6c5fe">symbols/breastCup.js</text>
</g>
<!-- actions/Player.js&#45;&gt;symbols/breastCup.js -->
<g id="edge13" class="edge"><title>actions/Player.js&#45;&gt;symbols/breastCup.js</title>
<path fill="none" stroke="#757575" d="M2173.79,-670.962C2194,-699.665 2247.54,-775.479 2293,-838.185 2314.12,-867.309 2338.91,-900.784 2354.3,-921.463"/>
<polygon fill="#757575" stroke="#757575" points="2351.49,-923.561 2360.27,-929.492 2357.11,-919.381 2351.49,-923.561"/>
</g>
<!-- symbols/cockType.js -->
<g id="node15" class="node"><title>symbols/cockType.js</title>
<path fill="none" stroke="#cfffac" d="M2437.33,-638.685C2437.33,-638.685 2302.67,-638.685 2302.67,-638.685 2298.83,-638.685 2295,-634.852 2295,-631.018 2295,-631.018 2295,-623.352 2295,-623.352 2295,-619.518 2298.83,-615.685 2302.67,-615.685 2302.67,-615.685 2437.33,-615.685 2437.33,-615.685 2441.17,-615.685 2445,-619.518 2445,-623.352 2445,-623.352 2445,-631.018 2445,-631.018 2445,-634.852 2441.17,-638.685 2437.33,-638.685"/>
<text text-anchor="middle" x="2370" y="-623.485" font-family="Arial" font-size="14.00" fill="#cfffac">symbols/cockType.js</text>
</g>
<!-- actions/Player.js&#45;&gt;symbols/cockType.js -->
<g id="edge14" class="edge"><title>actions/Player.js&#45;&gt;symbols/cockType.js</title>
<path fill="none" stroke="#757575" d="M2224.09,-649.972C2243.26,-646.957 2264.94,-643.548 2285.58,-640.302"/>
<polygon fill="#757575" stroke="#757575" points="2286.28,-643.735 2295.62,-638.724 2285.19,-636.82 2286.28,-643.735"/>
</g>
<!-- symbols/vaginas.js -->
<g id="node16" class="node"><title>symbols/vaginas.js</title>
<path fill="none" stroke="#c6c5fe" d="M2611.33,-836.685C2611.33,-836.685 2490.67,-836.685 2490.67,-836.685 2486.83,-836.685 2483,-832.852 2483,-829.018 2483,-829.018 2483,-821.352 2483,-821.352 2483,-817.518 2486.83,-813.685 2490.67,-813.685 2490.67,-813.685 2611.33,-813.685 2611.33,-813.685 2615.17,-813.685 2619,-817.518 2619,-821.352 2619,-821.352 2619,-829.018 2619,-829.018 2619,-832.852 2615.17,-836.685 2611.33,-836.685"/>
<text text-anchor="middle" x="2551" y="-821.485" font-family="Arial" font-size="14.00" fill="#c6c5fe">symbols/vaginas.js</text>
</g>
<!-- actions/Player.js&#45;&gt;symbols/vaginas.js -->
<g id="edge15" class="edge"><title>actions/Player.js&#45;&gt;symbols/vaginas.js</title>
<path fill="none" stroke="#757575" d="M2171.97,-670.843C2188.15,-698.726 2233.39,-769.172 2293,-799.185 2348.6,-827.179 2419.46,-832.46 2472.69,-831.428"/>
<polygon fill="#757575" stroke="#757575" points="2472.85,-834.925 2482.75,-831.154 2472.66,-827.927 2472.85,-834.925"/>
</g>
<!-- utils.js -->
<g id="node41" class="node"><title>utils.js</title>
<path fill="none" stroke="#cfffac" d="M3358.33,-519.685C3358.33,-519.685 3317.67,-519.685 3317.67,-519.685 3313.83,-519.685 3310,-515.852 3310,-512.018 3310,-512.018 3310,-504.352 3310,-504.352 3310,-500.518 3313.83,-496.685 3317.67,-496.685 3317.67,-496.685 3358.33,-496.685 3358.33,-496.685 3362.17,-496.685 3366,-500.518 3366,-504.352 3366,-504.352 3366,-512.018 3366,-512.018 3366,-515.852 3362.17,-519.685 3358.33,-519.685"/>
<text text-anchor="middle" x="3338" y="-504.485" font-family="Arial" font-size="14.00" fill="#cfffac">utils.js</text>
</g>
<!-- symbols/breastCup.js&#45;&gt;utils.js -->
<g id="edge97" class="edge"><title>symbols/breastCup.js&#45;&gt;utils.js</title>
<path fill="none" stroke="#757575" d="M2447.03,-941.185C2522.02,-941.185 2639.91,-941.185 2742,-941.185 2742,-941.185 2742,-941.185 2961,-941.185 3030.76,-941.185 3222.83,-964.595 3274,-917.185 3331.15,-864.24 3336.68,-607.483 3337.04,-530.223"/>
<polygon fill="#757575" stroke="#757575" points="3340.54,-529.802 3337.06,-519.795 3333.54,-529.788 3340.54,-529.802"/>
</g>
<!-- symbols/vaginas.js&#45;&gt;utils.js -->
<g id="edge111" class="edge"><title>symbols/vaginas.js&#45;&gt;utils.js</title>
<path fill="none" stroke="#757575" d="M2619.35,-829.287C2716.4,-833.613 2900.63,-835.887 3053,-803.185 3156.37,-781 3202.43,-792.997 3274,-715.185 3323.15,-661.747 3334,-571.006 3336.36,-529.75"/>
<polygon fill="#757575" stroke="#757575" points="3339.86,-529.866 3336.82,-519.717 3332.86,-529.546 3339.86,-529.866"/>
</g>
<!-- appearance/appearance.js -->
<g id="node17" class="node"><title>appearance/appearance.js</title>
<path fill="none" stroke="#c6c5fe" d="M2249.33,-952.685C2249.33,-952.685 2079.67,-952.685 2079.67,-952.685 2075.83,-952.685 2072,-948.852 2072,-945.018 2072,-945.018 2072,-937.352 2072,-937.352 2072,-933.518 2075.83,-929.685 2079.67,-929.685 2079.67,-929.685 2249.33,-929.685 2249.33,-929.685 2253.17,-929.685 2257,-933.518 2257,-937.352 2257,-937.352 2257,-945.018 2257,-945.018 2257,-948.852 2253.17,-952.685 2249.33,-952.685"/>
<text text-anchor="middle" x="2164.5" y="-937.485" font-family="Arial" font-size="14.00" fill="#c6c5fe">appearance/appearance.js</text>
</g>
<!-- appearance/appearance.js&#45;&gt;store/store.js -->
<g id="edge16" class="edge"><title>appearance/appearance.js&#45;&gt;store/store.js</title>
<path fill="none" stroke="#757575" d="M2168.84,-929.679C2179.96,-893.478 2219.24,-780.949 2293,-724.185 2349.32,-680.844 2395.38,-730.023 2447,-681.185 2529.88,-602.773 2546.07,-455.191 2549.23,-399.864"/>
<polygon fill="#757575" stroke="#757575" points="2552.73,-399.953 2549.72,-389.796 2545.74,-399.615 2552.73,-399.953"/>
</g>
<!-- appearance/appearance.js&#45;&gt;symbols/breastCup.js -->
<g id="edge17" class="edge"><title>appearance/appearance.js&#45;&gt;symbols/breastCup.js</title>
<path fill="none" stroke="#757575" d="M2257.13,-941.185C2265.6,-941.185 2274.17,-941.185 2282.6,-941.185"/>
<polygon fill="#757575" stroke="#757575" points="2282.79,-944.685 2292.79,-941.185 2282.79,-937.685 2282.79,-944.685"/>
</g>
<!-- symbols/gender.js -->
<g id="node18" class="node"><title>symbols/gender.js</title>
<path fill="none" stroke="#c6c5fe" d="M2428.83,-993.685C2428.83,-993.685 2311.17,-993.685 2311.17,-993.685 2307.33,-993.685 2303.5,-989.852 2303.5,-986.018 2303.5,-986.018 2303.5,-978.352 2303.5,-978.352 2303.5,-974.518 2307.33,-970.685 2311.17,-970.685 2311.17,-970.685 2428.83,-970.685 2428.83,-970.685 2432.67,-970.685 2436.5,-974.518 2436.5,-978.352 2436.5,-978.352 2436.5,-986.018 2436.5,-986.018 2436.5,-989.852 2432.67,-993.685 2428.83,-993.685"/>
<text text-anchor="middle" x="2370" y="-978.485" font-family="Arial" font-size="14.00" fill="#c6c5fe">symbols/gender.js</text>
</g>
<!-- appearance/appearance.js&#45;&gt;symbols/gender.js -->
<g id="edge18" class="edge"><title>appearance/appearance.js&#45;&gt;symbols/gender.js</title>
<path fill="none" stroke="#757575" d="M2222.73,-952.715C2247.32,-957.67 2276.24,-963.497 2301.85,-968.655"/>
<polygon fill="#757575" stroke="#757575" points="2301.36,-972.126 2311.85,-970.671 2302.74,-965.264 2301.36,-972.126"/>
</g>
<!-- symbols/gender.js&#45;&gt;utils.js -->
<g id="edge103" class="edge"><title>symbols/gender.js&#45;&gt;utils.js</title>
<path fill="none" stroke="#757575" d="M2436.68,-981.617C2510.83,-981.026 2635.08,-980.185 2742,-980.185 2742,-980.185 2742,-980.185 2961,-980.185 3100.93,-980.185 3173.36,-1043.4 3274,-946.185 3334.3,-887.937 3337.57,-610.619 3337.23,-530.132"/>
<polygon fill="#757575" stroke="#757575" points="3340.72,-529.71 3337.16,-519.734 3333.73,-529.758 3340.72,-529.71"/>
</g>
<!-- components/appRoot.js -->
<g id="node19" class="node"><title>components/appRoot.js</title>
<path fill="none" stroke="#c6c5fe" d="M334.333,-233.685C334.333,-233.685 181.667,-233.685 181.667,-233.685 177.833,-233.685 174,-229.852 174,-226.018 174,-226.018 174,-218.352 174,-218.352 174,-214.518 177.833,-210.685 181.667,-210.685 181.667,-210.685 334.333,-210.685 334.333,-210.685 338.167,-210.685 342,-214.518 342,-218.352 342,-218.352 342,-226.018 342,-226.018 342,-229.852 338.167,-233.685 334.333,-233.685"/>
<text text-anchor="middle" x="258" y="-218.485" font-family="Arial" font-size="14.00" fill="#c6c5fe">components/appRoot.js</text>
</g>
<!-- components/lowerButtons.js -->
<g id="node20" class="node"><title>components/lowerButtons.js</title>
<path fill="none" stroke="#c6c5fe" d="M565.333,-274.685C565.333,-274.685 385.667,-274.685 385.667,-274.685 381.833,-274.685 378,-270.852 378,-267.018 378,-267.018 378,-259.352 378,-259.352 378,-255.518 381.833,-251.685 385.667,-251.685 385.667,-251.685 565.333,-251.685 565.333,-251.685 569.167,-251.685 573,-255.518 573,-259.352 573,-259.352 573,-267.018 573,-267.018 573,-270.852 569.167,-274.685 565.333,-274.685"/>
<text text-anchor="middle" x="475.5" y="-259.485" font-family="Arial" font-size="14.00" fill="#c6c5fe">components/lowerButtons.js</text>
</g>
<!-- components/appRoot.js&#45;&gt;components/lowerButtons.js -->
<g id="edge19" class="edge"><title>components/appRoot.js&#45;&gt;components/lowerButtons.js</title>
<path fill="none" stroke="#757575" d="M319.602,-233.715C345.88,-238.714 376.817,-244.6 404.106,-249.792"/>
<polygon fill="#757575" stroke="#757575" points="403.502,-253.24 413.98,-251.671 404.81,-246.363 403.502,-253.24"/>
</g>
<!-- components/menuBar.js -->
<g id="node21" class="node"><title>components/menuBar.js</title>
<path fill="none" stroke="#c6c5fe" d="M552.833,-315.685C552.833,-315.685 398.167,-315.685 398.167,-315.685 394.333,-315.685 390.5,-311.852 390.5,-308.018 390.5,-308.018 390.5,-300.352 390.5,-300.352 390.5,-296.518 394.333,-292.685 398.167,-292.685 398.167,-292.685 552.833,-292.685 552.833,-292.685 556.667,-292.685 560.5,-296.518 560.5,-300.352 560.5,-300.352 560.5,-308.018 560.5,-308.018 560.5,-311.852 556.667,-315.685 552.833,-315.685"/>
<text text-anchor="middle" x="475.5" y="-300.485" font-family="Arial" font-size="14.00" fill="#c6c5fe">components/menuBar.js</text>
</g>
<!-- components/appRoot.js&#45;&gt;components/menuBar.js -->
<g id="edge20" class="edge"><title>components/appRoot.js&#45;&gt;components/menuBar.js</title>
<path fill="none" stroke="#757575" d="M277.687,-233.706C300.56,-247.343 340.845,-269.875 378,-283.185 385.207,-285.766 392.835,-288.086 400.519,-290.157"/>
<polygon fill="#757575" stroke="#757575" points="399.698,-293.56 410.253,-292.648 401.433,-286.778 399.698,-293.56"/>
</g>
<!-- components/output.js -->
<g id="node22" class="node"><title>components/output.js</title>
<path fill="none" stroke="#cfffac" d="M543.833,-192.685C543.833,-192.685 407.167,-192.685 407.167,-192.685 403.333,-192.685 399.5,-188.852 399.5,-185.018 399.5,-185.018 399.5,-177.352 399.5,-177.352 399.5,-173.518 403.333,-169.685 407.167,-169.685 407.167,-169.685 543.833,-169.685 543.833,-169.685 547.667,-169.685 551.5,-173.518 551.5,-177.352 551.5,-177.352 551.5,-185.018 551.5,-185.018 551.5,-188.852 547.667,-192.685 543.833,-192.685"/>
<text text-anchor="middle" x="475.5" y="-177.485" font-family="Arial" font-size="14.00" fill="#cfffac">components/output.js</text>
</g>
<!-- components/appRoot.js&#45;&gt;components/output.js -->
<g id="edge21" class="edge"><title>components/appRoot.js&#45;&gt;components/output.js</title>
<path fill="none" stroke="#757575" d="M319.602,-210.655C345.88,-205.656 376.817,-199.77 404.106,-194.578"/>
<polygon fill="#757575" stroke="#757575" points="404.81,-198.007 413.98,-192.699 403.502,-191.13 404.81,-198.007"/>
</g>
<!-- components/statBar.js -->
<g id="node23" class="node"><title>components/statBar.js</title>
<path fill="none" stroke="#c6c5fe" d="M546.833,-233.685C546.833,-233.685 404.167,-233.685 404.167,-233.685 400.333,-233.685 396.5,-229.852 396.5,-226.018 396.5,-226.018 396.5,-218.352 396.5,-218.352 396.5,-214.518 400.333,-210.685 404.167,-210.685 404.167,-210.685 546.833,-210.685 546.833,-210.685 550.667,-210.685 554.5,-214.518 554.5,-218.352 554.5,-218.352 554.5,-226.018 554.5,-226.018 554.5,-229.852 550.667,-233.685 546.833,-233.685"/>
<text text-anchor="middle" x="475.5" y="-218.485" font-family="Arial" font-size="14.00" fill="#c6c5fe">components/statBar.js</text>
</g>
<!-- components/appRoot.js&#45;&gt;components/statBar.js -->
<g id="edge22" class="edge"><title>components/appRoot.js&#45;&gt;components/statBar.js</title>
<path fill="none" stroke="#757575" d="M342.01,-222.185C356.557,-222.185 371.739,-222.185 386.418,-222.185"/>
<polygon fill="#757575" stroke="#757575" points="386.486,-225.685 396.486,-222.185 386.486,-218.685 386.486,-225.685"/>
</g>
<!-- components/buttonGrid.js -->
<g id="node25" class="node"><title>components/buttonGrid.js</title>
<path fill="none" stroke="#c6c5fe" d="M788.333,-315.685C788.333,-315.685 624.667,-315.685 624.667,-315.685 620.833,-315.685 617,-311.852 617,-308.018 617,-308.018 617,-300.352 617,-300.352 617,-296.518 620.833,-292.685 624.667,-292.685 624.667,-292.685 788.333,-292.685 788.333,-292.685 792.167,-292.685 796,-296.518 796,-300.352 796,-300.352 796,-308.018 796,-308.018 796,-311.852 792.167,-315.685 788.333,-315.685"/>
<text text-anchor="middle" x="706.5" y="-300.485" font-family="Arial" font-size="14.00" fill="#c6c5fe">components/buttonGrid.js</text>
</g>
<!-- components/lowerButtons.js&#45;&gt;components/buttonGrid.js -->
<g id="edge27" class="edge"><title>components/lowerButtons.js&#45;&gt;components/buttonGrid.js</title>
<path fill="none" stroke="#757575" d="M540.899,-274.715C568.945,-279.736 601.986,-285.652 631.078,-290.86"/>
<polygon fill="#757575" stroke="#757575" points="630.728,-294.353 641.188,-292.671 631.962,-287.463 630.728,-294.353"/>
</g>
<!-- components/menuBar.js&#45;&gt;components/buttonGrid.js -->
<g id="edge28" class="edge"><title>components/menuBar.js&#45;&gt;components/buttonGrid.js</title>
<path fill="none" stroke="#757575" d="M560.796,-304.185C575.613,-304.185 591.157,-304.185 606.335,-304.185"/>
<polygon fill="#757575" stroke="#757575" points="606.771,-307.685 616.771,-304.185 606.771,-300.685 606.771,-307.685"/>
</g>
<!-- components/spriteDisplay.js -->
<g id="node30" class="node"><title>components/spriteDisplay.js</title>
<path fill="none" stroke="#cfffac" d="M796.333,-192.685C796.333,-192.685 616.667,-192.685 616.667,-192.685 612.833,-192.685 609,-188.852 609,-185.018 609,-185.018 609,-177.352 609,-177.352 609,-173.518 612.833,-169.685 616.667,-169.685 616.667,-169.685 796.333,-169.685 796.333,-169.685 800.167,-169.685 804,-173.518 804,-177.352 804,-177.352 804,-185.018 804,-185.018 804,-188.852 800.167,-192.685 796.333,-192.685"/>
<text text-anchor="middle" x="706.5" y="-177.485" font-family="Arial" font-size="14.00" fill="#cfffac">components/spriteDisplay.js</text>
</g>
<!-- components/statBar.js&#45;&gt;components/spriteDisplay.js -->
<g id="edge31" class="edge"><title>components/statBar.js&#45;&gt;components/spriteDisplay.js</title>
<path fill="none" stroke="#757575" d="M540.899,-210.655C568.945,-205.634 601.986,-199.718 631.078,-194.509"/>
<polygon fill="#757575" stroke="#757575" points="631.962,-197.907 641.188,-192.699 630.728,-191.016 631.962,-197.907"/>
</g>
<!-- components/statDisplay.js -->
<g id="node32" class="node"><title>components/statDisplay.js</title>
<path fill="none" stroke="#c6c5fe" d="M789.833,-274.685C789.833,-274.685 623.167,-274.685 623.167,-274.685 619.333,-274.685 615.5,-270.852 615.5,-267.018 615.5,-267.018 615.5,-259.352 615.5,-259.352 615.5,-255.518 619.333,-251.685 623.167,-251.685 623.167,-251.685 789.833,-251.685 789.833,-251.685 793.667,-251.685 797.5,-255.518 797.5,-259.352 797.5,-259.352 797.5,-267.018 797.5,-267.018 797.5,-270.852 793.667,-274.685 789.833,-274.685"/>
<text text-anchor="middle" x="706.5" y="-259.485" font-family="Arial" font-size="14.00" fill="#c6c5fe">components/statDisplay.js</text>
</g>
<!-- components/statBar.js&#45;&gt;components/statDisplay.js -->
<g id="edge32" class="edge"><title>components/statBar.js&#45;&gt;components/statDisplay.js</title>
<path fill="none" stroke="#757575" d="M540.899,-233.715C568.945,-238.736 601.986,-244.652 631.078,-249.86"/>
<polygon fill="#757575" stroke="#757575" points="630.728,-253.353 641.188,-251.671 631.962,-246.463 630.728,-253.353"/>
</g>
<!-- components/timeDisplay.js -->
<g id="node33" class="node"><title>components/timeDisplay.js</title>
<path fill="none" stroke="#cfffac" d="M792.333,-233.685C792.333,-233.685 620.667,-233.685 620.667,-233.685 616.833,-233.685 613,-229.852 613,-226.018 613,-226.018 613,-218.352 613,-218.352 613,-214.518 616.833,-210.685 620.667,-210.685 620.667,-210.685 792.333,-210.685 792.333,-210.685 796.167,-210.685 800,-214.518 800,-218.352 800,-218.352 800,-226.018 800,-226.018 800,-229.852 796.167,-233.685 792.333,-233.685"/>
<text text-anchor="middle" x="706.5" y="-218.485" font-family="Arial" font-size="14.00" fill="#cfffac">components/timeDisplay.js</text>
</g>
<!-- components/statBar.js&#45;&gt;components/timeDisplay.js -->
<g id="edge33" class="edge"><title>components/statBar.js&#45;&gt;components/timeDisplay.js</title>
<path fill="none" stroke="#757575" d="M554.668,-222.185C569.974,-222.185 586.245,-222.185 602.223,-222.185"/>
<polygon fill="#757575" stroke="#757575" points="602.666,-225.685 612.666,-222.185 602.666,-218.685 602.666,-225.685"/>
</g>
<!-- components/button.js -->
<g id="node24" class="node"><title>components/button.js</title>
<path fill="none" stroke="#cfffac" d="M1222.33,-315.685C1222.33,-315.685 1085.67,-315.685 1085.67,-315.685 1081.83,-315.685 1078,-311.852 1078,-308.018 1078,-308.018 1078,-300.352 1078,-300.352 1078,-296.518 1081.83,-292.685 1085.67,-292.685 1085.67,-292.685 1222.33,-292.685 1222.33,-292.685 1226.17,-292.685 1230,-296.518 1230,-300.352 1230,-300.352 1230,-308.018 1230,-308.018 1230,-311.852 1226.17,-315.685 1222.33,-315.685"/>
<text text-anchor="middle" x="1154" y="-300.485" font-family="Arial" font-size="14.00" fill="#cfffac">components/button.js</text>
</g>
<!-- components/buttonGrid.js&#45;&gt;actions/Engine.js -->
<g id="edge23" class="edge"><title>components/buttonGrid.js&#45;&gt;actions/Engine.js</title>
<path fill="none" stroke="#757575" d="M735.089,-315.711C775.321,-332.519 850.189,-363.797 895.268,-382.63"/>
<polygon fill="#757575" stroke="#757575" points="894.109,-385.939 904.685,-386.564 896.807,-379.48 894.109,-385.939"/>
</g>
<!-- components/buttonWrap.js -->
<g id="node26" class="node"><title>components/buttonWrap.js</title>
<path fill="none" stroke="#c6c5fe" d="M1019.33,-315.685C1019.33,-315.685 847.667,-315.685 847.667,-315.685 843.833,-315.685 840,-311.852 840,-308.018 840,-308.018 840,-300.352 840,-300.352 840,-296.518 843.833,-292.685 847.667,-292.685 847.667,-292.685 1019.33,-292.685 1019.33,-292.685 1023.17,-292.685 1027,-296.518 1027,-300.352 1027,-300.352 1027,-308.018 1027,-308.018 1027,-311.852 1023.17,-315.685 1019.33,-315.685"/>
<text text-anchor="middle" x="933.5" y="-300.485" font-family="Arial" font-size="14.00" fill="#c6c5fe">components/buttonWrap.js</text>
</g>
<!-- components/buttonGrid.js&#45;&gt;components/buttonWrap.js -->
<g id="edge24" class="edge"><title>components/buttonGrid.js&#45;&gt;components/buttonWrap.js</title>
<path fill="none" stroke="#757575" d="M796.103,-304.185C807.119,-304.185 818.455,-304.185 829.663,-304.185"/>
<polygon fill="#757575" stroke="#757575" points="829.906,-307.685 839.906,-304.185 829.906,-300.685 829.906,-307.685"/>
</g>
<!-- components/buttonWrap.js&#45;&gt;components/button.js -->
<g id="edge25" class="edge"><title>components/buttonWrap.js&#45;&gt;components/button.js</title>
<path fill="none" stroke="#757575" d="M1027.16,-304.185C1040.6,-304.185 1054.39,-304.185 1067.67,-304.185"/>
<polygon fill="#757575" stroke="#757575" points="1067.72,-307.685 1077.72,-304.185 1067.72,-300.685 1067.72,-307.685"/>
</g>
<!-- components/dropdown.js -->
<g id="node27" class="node"><title>components/dropdown.js</title>
<path fill="none" stroke="#c6c5fe" d="M2823.33,-241.685C2823.33,-241.685 2662.67,-241.685 2662.67,-241.685 2658.83,-241.685 2655,-237.852 2655,-234.018 2655,-234.018 2655,-226.352 2655,-226.352 2655,-222.518 2658.83,-218.685 2662.67,-218.685 2662.67,-218.685 2823.33,-218.685 2823.33,-218.685 2827.17,-218.685 2831,-222.518 2831,-226.352 2831,-226.352 2831,-234.018 2831,-234.018 2831,-237.852 2827.17,-241.685 2823.33,-241.685"/>
<text text-anchor="middle" x="2743" y="-226.485" font-family="Arial" font-size="14.00" fill="#c6c5fe">components/dropdown.js</text>
</g>
<!-- symbols/perks.js -->
<g id="node28" class="node"><title>symbols/perks.js</title>
<path fill="none" stroke="#c6c5fe" d="M3013.83,-241.685C3013.83,-241.685 2906.17,-241.685 2906.17,-241.685 2902.33,-241.685 2898.5,-237.852 2898.5,-234.018 2898.5,-234.018 2898.5,-226.352 2898.5,-226.352 2898.5,-222.518 2902.33,-218.685 2906.17,-218.685 2906.17,-218.685 3013.83,-218.685 3013.83,-218.685 3017.67,-218.685 3021.5,-222.518 3021.5,-226.352 3021.5,-226.352 3021.5,-234.018 3021.5,-234.018 3021.5,-237.852 3017.67,-241.685 3013.83,-241.685"/>
<text text-anchor="middle" x="2960" y="-226.485" font-family="Arial" font-size="14.00" fill="#c6c5fe">symbols/perks.js</text>
</g>
<!-- components/dropdown.js&#45;&gt;symbols/perks.js -->
<g id="edge26" class="edge"><title>components/dropdown.js&#45;&gt;symbols/perks.js</title>
<path fill="none" stroke="#757575" d="M2831.14,-230.185C2850.1,-230.185 2869.95,-230.185 2888.19,-230.185"/>
<polygon fill="#757575" stroke="#757575" points="2888.43,-233.685 2898.43,-230.185 2888.43,-226.685 2888.43,-233.685"/>
</g>
<!-- symbols/perks.js&#45;&gt;actions/engineMsg.js -->
<g id="edge107" class="edge"><title>symbols/perks.js&#45;&gt;actions/engineMsg.js</title>
<path fill="none" stroke="#757575" d="M3012.64,-218.646C3026.08,-214.823 3040.34,-210.019 3053,-204.185 3070.47,-196.139 3071.3,-187.702 3089,-180.185 3093.74,-178.171 3098.71,-176.349 3103.78,-174.702"/>
<polygon fill="#757575" stroke="#757575" points="3105.05,-177.977 3113.62,-171.748 3103.03,-171.273 3105.05,-177.977"/>
</g>
<!-- components/nameInput.js -->
<g id="node29" class="node"><title>components/nameInput.js</title>
<path fill="none" stroke="#c6c5fe" d="M2028.33,-476.685C2028.33,-476.685 1863.67,-476.685 1863.67,-476.685 1859.83,-476.685 1856,-472.852 1856,-469.018 1856,-469.018 1856,-461.352 1856,-461.352 1856,-457.518 1859.83,-453.685 1863.67,-453.685 1863.67,-453.685 2028.33,-453.685 2028.33,-453.685 2032.17,-453.685 2036,-457.518 2036,-461.352 2036,-461.352 2036,-469.018 2036,-469.018 2036,-472.852 2032.17,-476.685 2028.33,-476.685"/>
<text text-anchor="middle" x="1946" y="-461.485" font-family="Arial" font-size="14.00" fill="#c6c5fe">components/nameInput.js</text>
</g>
<!-- components/nameInput.js&#45;&gt;store/store.js -->
<g id="edge30" class="edge"><title>components/nameInput.js&#45;&gt;store/store.js</title>
<path fill="none" stroke="#757575" d="M2036.34,-456.267C2136.66,-445.67 2304.12,-426.226 2447,-401.185 2461.88,-398.576 2477.87,-395.262 2492.7,-391.966"/>
<polygon fill="#757575" stroke="#757575" points="2493.77,-395.313 2502.75,-389.697 2492.23,-388.485 2493.77,-395.313"/>
</g>
<!-- components/nameInput.js&#45;&gt;actions/Player.js -->
<g id="edge29" class="edge"><title>components/nameInput.js&#45;&gt;actions/Player.js</title>
<path fill="none" stroke="#757575" d="M1959.89,-476.739C1996.06,-509.146 2098.68,-601.105 2142.86,-640.69"/>
<polygon fill="#757575" stroke="#757575" points="2140.62,-643.379 2150.4,-647.445 2145.29,-638.165 2140.62,-643.379"/>
</g>
<!-- components/stat.js -->
<g id="node31" class="node"><title>components/stat.js</title>
<path fill="none" stroke="#cfffac" d="M993.833,-274.685C993.833,-274.685 873.167,-274.685 873.167,-274.685 869.333,-274.685 865.5,-270.852 865.5,-267.018 865.5,-267.018 865.5,-259.352 865.5,-259.352 865.5,-255.518 869.333,-251.685 873.167,-251.685 873.167,-251.685 993.833,-251.685 993.833,-251.685 997.667,-251.685 1001.5,-255.518 1001.5,-259.352 1001.5,-259.352 1001.5,-267.018 1001.5,-267.018 1001.5,-270.852 997.667,-274.685 993.833,-274.685"/>
<text text-anchor="middle" x="933.5" y="-259.485" font-family="Arial" font-size="14.00" fill="#cfffac">components/stat.js</text>
</g>
<!-- components/statDisplay.js&#45;&gt;components/stat.js -->
<g id="edge34" class="edge"><title>components/statDisplay.js&#45;&gt;components/stat.js</title>
<path fill="none" stroke="#757575" d="M797.72,-263.185C816.804,-263.185 836.779,-263.185 855.327,-263.185"/>
<polygon fill="#757575" stroke="#757575" points="855.471,-266.685 865.471,-263.185 855.471,-259.685 855.471,-266.685"/>
</g>
<!-- index.js -->
<g id="node34" class="node"><title>index.js</title>
<path fill="none" stroke="#c6c5fe" d="M93.8333,-179.685C93.8333,-179.685 44.1667,-179.685 44.1667,-179.685 40.3333,-179.685 36.5,-175.852 36.5,-172.018 36.5,-172.018 36.5,-164.352 36.5,-164.352 36.5,-160.518 40.3333,-156.685 44.1667,-156.685 44.1667,-156.685 93.8333,-156.685 93.8333,-156.685 97.6667,-156.685 101.5,-160.518 101.5,-164.352 101.5,-164.352 101.5,-172.018 101.5,-172.018 101.5,-175.852 97.6667,-179.685 93.8333,-179.685"/>
<text text-anchor="middle" x="69" y="-164.485" font-family="Arial" font-size="14.00" fill="#c6c5fe">index.js</text>
</g>
<!-- index.js&#45;&gt;store/store.js -->
<g id="edge36" class="edge"><title>index.js&#45;&gt;store/store.js</title>
<path fill="none" stroke="#757575" d="M101.536,-161.07C169.379,-146.406 334.397,-114.185 474.5,-114.185 474.5,-114.185 474.5,-114.185 1947,-114.185 2112.72,-114.185 2137.54,-195.764 2293,-253.185 2360.77,-278.215 2382.63,-272.397 2447,-305.185 2477.25,-320.591 2508.59,-344.075 2528.64,-360.223"/>
<polygon fill="#757575" stroke="#757575" points="2526.55,-363.032 2536.5,-366.65 2530.98,-357.612 2526.55,-363.032"/>
</g>
<!-- index.js&#45;&gt;components/appRoot.js -->
<g id="edge35" class="edge"><title>index.js&#45;&gt;components/appRoot.js</title>
<path fill="none" stroke="#757575" d="M101.722,-177.345C130.649,-185.698 173.854,-198.175 207.351,-207.848"/>
<polygon fill="#757575" stroke="#757575" points="206.386,-211.212 216.964,-210.624 208.328,-204.487 206.386,-211.212"/>
</g>
<!-- reducers/root.js&#45;&gt;actions/coreMsg.js -->
<g id="edge37" class="edge"><title>reducers/root.js&#45;&gt;actions/coreMsg.js</title>
<path fill="none" stroke="#757575" d="M2767.12,-483.703C2791.51,-495.523 2831.28,-513.879 2867,-526.185 2879.29,-530.42 3037.82,-570.383 3124.6,-592.173"/>
<polygon fill="#757575" stroke="#757575" points="3124.01,-595.633 3134.56,-594.673 3125.71,-588.843 3124.01,-595.633"/>
</g>
<!-- reducers/root.js&#45;&gt;actions/enemyMsg.js -->
<g id="edge38" class="edge"><title>reducers/root.js&#45;&gt;actions/enemyMsg.js</title>
<path fill="none" stroke="#757575" d="M2748.9,-460.292C2762.57,-428.625 2804.29,-341.649 2867,-297.185 2872.96,-292.961 2879.58,-289.42 2886.48,-286.454"/>
<polygon fill="#757575" stroke="#757575" points="2887.94,-289.638 2896,-282.754 2885.41,-283.113 2887.94,-289.638"/>
</g>
<!-- reducers/root.js&#45;&gt;actions/invMsg.js -->
<g id="edge40" class="edge"><title>reducers/root.js&#45;&gt;actions/invMsg.js</title>
<path fill="none" stroke="#757575" d="M2746.18,-483.736C2754.28,-523.511 2786.51,-656.037 2867,-723.185 2873.25,-728.401 2880.49,-732.572 2888.1,-735.908"/>
<polygon fill="#757575" stroke="#757575" points="2886.94,-739.212 2897.52,-739.577 2889.47,-732.689 2886.94,-739.212"/>
</g>
<!-- reducers/root.js&#45;&gt;actions/engineMsg.js -->
<g id="edge39" class="edge"><title>reducers/root.js&#45;&gt;actions/engineMsg.js</title>
<path fill="none" stroke="#757575" d="M2750.53,-460.355C2766.46,-432.692 2810.22,-363.595 2867,-330.185 2939.8,-287.352 2990.17,-347.633 3053,-291.185 3091.58,-256.524 3050.57,-215.009 3089,-180.185 3091.67,-177.764 3094.57,-175.613 3097.63,-173.702"/>
<polygon fill="#757575" stroke="#757575" points="3099.44,-176.703 3106.64,-168.931 3096.16,-170.517 3099.44,-176.703"/>
</g>
<!-- reducers/root.js&#45;&gt;actions/playerMsg.js -->
<g id="edge41" class="edge"><title>reducers/root.js&#45;&gt;actions/playerMsg.js</title>
<path fill="none" stroke="#757575" d="M2746.36,-483.697C2754.77,-521.428 2787.19,-641.656 2867,-689.185 2947.69,-737.239 3062,-723.25 3127.97,-709.016"/>
<polygon fill="#757575" stroke="#757575" points="3129.14,-712.342 3138.13,-706.74 3127.61,-705.511 3129.14,-712.342"/>
</g>
<!-- reducers/root.js&#45;&gt;symbols/perks.js -->
<g id="edge47" class="edge"><title>reducers/root.js&#45;&gt;symbols/perks.js</title>
<path fill="none" stroke="#757575" d="M2746.8,-460.502C2756.39,-423.232 2791.51,-306.323 2867,-250.185 2873.53,-245.331 2880.99,-241.608 2888.79,-238.76"/>
<polygon fill="#757575" stroke="#757575" points="2889.94,-242.066 2898.41,-235.703 2887.82,-235.394 2889.94,-242.066"/>
</g>
<!-- reducers/updateBodyArr.js -->
<g id="node36" class="node"><title>reducers/updateBodyArr.js</title>
<path fill="none" stroke="#c6c5fe" d="M3045.33,-680.685C3045.33,-680.685 2874.67,-680.685 2874.67,-680.685 2870.83,-680.685 2867,-676.852 2867,-673.018 2867,-673.018 2867,-665.352 2867,-665.352 2867,-661.518 2870.83,-657.685 2874.67,-657.685 2874.67,-657.685 3045.33,-657.685 3045.33,-657.685 3049.17,-657.685 3053,-661.518 3053,-665.352 3053,-665.352 3053,-673.018 3053,-673.018 3053,-676.852 3049.17,-680.685 3045.33,-680.685"/>
<text text-anchor="middle" x="2960" y="-665.485" font-family="Arial" font-size="14.00" fill="#c6c5fe">reducers/updateBodyArr.js</text>
</g>
<!-- reducers/root.js&#45;&gt;reducers/updateBodyArr.js -->
<g id="edge42" class="edge"><title>reducers/root.js&#45;&gt;reducers/updateBodyArr.js</title>
<path fill="none" stroke="#757575" d="M2748.57,-483.859C2761.68,-515.757 2802.68,-604.877 2867,-648.185 2869.79,-650.061 2872.72,-651.771 2875.75,-653.33"/>
<polygon fill="#757575" stroke="#757575" points="2874.56,-656.634 2885.11,-657.567 2877.45,-650.256 2874.56,-656.634"/>
</g>
<!-- reducers/updateButtons.js -->
<g id="node37" class="node"><title>reducers/updateButtons.js</title>
<path fill="none" stroke="#cfffac" d="M3043.33,-483.685C3043.33,-483.685 2876.67,-483.685 2876.67,-483.685 2872.83,-483.685 2869,-479.852 2869,-476.018 2869,-476.018 2869,-468.352 2869,-468.352 2869,-464.518 2872.83,-460.685 2876.67,-460.685 2876.67,-460.685 3043.33,-460.685 3043.33,-460.685 3047.17,-460.685 3051,-464.518 3051,-468.352 3051,-468.352 3051,-476.018 3051,-476.018 3051,-479.852 3047.17,-483.685 3043.33,-483.685"/>
<text text-anchor="middle" x="2960" y="-468.485" font-family="Arial" font-size="14.00" fill="#cfffac">reducers/updateButtons.js</text>
</g>
<!-- reducers/root.js&#45;&gt;reducers/updateButtons.js -->
<g id="edge43" class="edge"><title>reducers/root.js&#45;&gt;reducers/updateButtons.js</title>
<path fill="none" stroke="#757575" d="M2801.05,-472.185C2818.82,-472.185 2838.98,-472.185 2858.8,-472.185"/>
<polygon fill="#757575" stroke="#757575" points="2858.8,-475.685 2868.8,-472.185 2858.8,-468.685 2858.8,-475.685"/>
</g>
<!-- reducers/updateStats.js -->
<g id="node38" class="node"><title>reducers/updateStats.js</title>
<path fill="none" stroke="#c6c5fe" d="M3035.83,-639.685C3035.83,-639.685 2884.17,-639.685 2884.17,-639.685 2880.33,-639.685 2876.5,-635.852 2876.5,-632.018 2876.5,-632.018 2876.5,-624.352 2876.5,-624.352 2876.5,-620.518 2880.33,-616.685 2884.17,-616.685 2884.17,-616.685 3035.83,-616.685 3035.83,-616.685 3039.67,-616.685 3043.5,-620.518 3043.5,-624.352 3043.5,-624.352 3043.5,-632.018 3043.5,-632.018 3043.5,-635.852 3039.67,-639.685 3035.83,-639.685"/>
<text text-anchor="middle" x="2960" y="-624.485" font-family="Arial" font-size="14.00" fill="#c6c5fe">reducers/updateStats.js</text>
</g>
<!-- reducers/root.js&#45;&gt;reducers/updateStats.js -->
<g id="edge44" class="edge"><title>reducers/root.js&#45;&gt;reducers/updateStats.js</title>
<path fill="none" stroke="#757575" d="M2759.41,-483.976C2782.58,-501.647 2827.86,-535.944 2867,-564.185 2889.24,-580.229 2914.87,-598.006 2933.43,-610.744"/>
<polygon fill="#757575" stroke="#757575" points="2931.69,-613.798 2941.92,-616.563 2935.65,-608.023 2931.69,-613.798"/>
</g>
<!-- reducers/updateTime.js -->
<g id="node39" class="node"><title>reducers/updateTime.js</title>
<path fill="none" stroke="#c6c5fe" d="M3035.83,-442.685C3035.83,-442.685 2884.17,-442.685 2884.17,-442.685 2880.33,-442.685 2876.5,-438.852 2876.5,-435.018 2876.5,-435.018 2876.5,-427.352 2876.5,-427.352 2876.5,-423.518 2880.33,-419.685 2884.17,-419.685 2884.17,-419.685 3035.83,-419.685 3035.83,-419.685 3039.67,-419.685 3043.5,-423.518 3043.5,-427.352 3043.5,-427.352 3043.5,-435.018 3043.5,-435.018 3043.5,-438.852 3039.67,-442.685 3035.83,-442.685"/>
<text text-anchor="middle" x="2960" y="-427.485" font-family="Arial" font-size="14.00" fill="#c6c5fe">reducers/updateTime.js</text>
</g>
<!-- reducers/root.js&#45;&gt;reducers/updateTime.js -->
<g id="edge45" class="edge"><title>reducers/root.js&#45;&gt;reducers/updateTime.js</title>
<path fill="none" stroke="#757575" d="M2801.05,-461.305C2827.98,-456.17 2860.38,-449.992 2888.8,-444.572"/>
<polygon fill="#757575" stroke="#757575" points="2889.5,-448.001 2898.67,-442.69 2888.19,-441.125 2889.5,-448.001"/>
</g>
<!-- store/initialState.js -->
<g id="node40" class="node"><title>store/initialState.js</title>
<path fill="none" stroke="#ff6c60" d="M3017.83,-362.685C3017.83,-362.685 2902.17,-362.685 2902.17,-362.685 2898.33,-362.685 2894.5,-358.852 2894.5,-355.018 2894.5,-355.018 2894.5,-347.352 2894.5,-347.352 2894.5,-343.518 2898.33,-339.685 2902.17,-339.685 2902.17,-339.685 3017.83,-339.685 3017.83,-339.685 3021.67,-339.685 3025.5,-343.518 3025.5,-347.352 3025.5,-347.352 3025.5,-355.018 3025.5,-355.018 3025.5,-358.852 3021.67,-362.685 3017.83,-362.685"/>
<text text-anchor="middle" x="2960" y="-347.485" font-family="Arial" font-size="14.00" fill="#ff6c60">store/initialState.js</text>
</g>
<!-- reducers/root.js&#45;&gt;store/initialState.js -->
<g id="edge46" class="edge"><title>reducers/root.js&#45;&gt;store/initialState.js</title>
<path fill="none" stroke="#757575" d="M2764.62,-460.583C2802.98,-438.991 2885.45,-392.579 2929.63,-367.714"/>
<polygon fill="#757575" stroke="#757575" points="2931.45,-370.706 2938.45,-362.752 2928.02,-364.606 2931.45,-370.706"/>
</g>
<!-- reducers/root.js&#45;&gt;utils.js -->
<g id="edge48" class="edge"><title>reducers/root.js&#45;&gt;utils.js</title>
<path fill="none" stroke="#757575" d="M2801.1,-481.361C2863.22,-491.532 2965.39,-508.806 3053,-526.185 3069.08,-529.374 3072.71,-532.396 3089,-534.185 3170.73,-543.157 3193.35,-550.173 3274,-534.185 3284.62,-532.08 3295.7,-528.158 3305.55,-523.987"/>
<polygon fill="#757575" stroke="#757575" points="3307.23,-527.07 3314.93,-519.791 3304.37,-520.68 3307.23,-527.07"/>
</g>
<!-- reducers/updateBodyArr.js&#45;&gt;actions/playerMsg.js -->
<g id="edge49" class="edge"><title>reducers/updateBodyArr.js&#45;&gt;actions/playerMsg.js</title>
<path fill="none" stroke="#757575" d="M3053.13,-680.098C3068.29,-681.893 3083.91,-683.743 3098.79,-685.506"/>
<polygon fill="#757575" stroke="#757575" points="3098.61,-689.01 3108.96,-686.71 3099.44,-682.058 3098.61,-689.01"/>
</g>
<!-- reducers/updateStats.js&#45;&gt;actions/coreMsg.js -->
<g id="edge50" class="edge"><title>reducers/updateStats.js&#45;&gt;actions/coreMsg.js</title>
<path fill="none" stroke="#757575" d="M3043.67,-619.899C3063.44,-617.918 3084.45,-615.811 3103.93,-613.859"/>
<polygon fill="#757575" stroke="#757575" points="3104.36,-617.334 3113.96,-612.854 3103.66,-610.369 3104.36,-617.334"/>
</g>
<!-- reducers/updateStats.js&#45;&gt;actions/playerMsg.js -->
<g id="edge51" class="edge"><title>reducers/updateStats.js&#45;&gt;actions/playerMsg.js</title>
<path fill="none" stroke="#757575" d="M3020.2,-639.781C3031.17,-642.29 3042.49,-645.12 3053,-648.185 3069.86,-653.099 3110.24,-668.195 3141.07,-679.967"/>
<polygon fill="#757575" stroke="#757575" points="3140.11,-683.348 3150.7,-683.655 3142.62,-676.811 3140.11,-683.348"/>
</g>
<!-- reducers/updateStats.js&#45;&gt;utils.js -->
<g id="edge52" class="edge"><title>reducers/updateStats.js&#45;&gt;utils.js</title>
<path fill="none" stroke="#757575" d="M3043.59,-636.971C3123.12,-643.794 3236.67,-648.733 3274,-626.185 3308.75,-605.196 3325.41,-557.856 3332.49,-529.935"/>
<polygon fill="#757575" stroke="#757575" points="3335.96,-530.484 3334.82,-519.95 3329.14,-528.892 3335.96,-530.484"/>
</g>
<!-- reducers/updateTime.js&#45;&gt;utils.js -->
<g id="edge53" class="edge"><title>reducers/updateTime.js&#45;&gt;utils.js</title>
<path fill="none" stroke="#757575" d="M3037.83,-442.83C3043.19,-445.146 3048.31,-447.904 3053,-451.185 3077.55,-468.369 3062.76,-493.722 3089,-508.185 3155.85,-545.03 3249.05,-530.843 3300.04,-518.635"/>
<polygon fill="#757575" stroke="#757575" points="3301.1,-521.977 3309.96,-516.158 3299.41,-515.186 3301.1,-521.977"/>
</g>
<!-- store/initialState.js&#45;&gt;scenes/sceneSymbols.js -->
<g id="edge87" class="edge"><title>store/initialState.js&#45;&gt;scenes/sceneSymbols.js</title>
<path fill="none" stroke="#757575" d="M2989.35,-339.68C3010.07,-329.825 3037.21,-313.649 3053,-291.185 3092.93,-234.39 3041.77,-190.066 3089,-139.185 3093.72,-134.097 3099.33,-129.898 3105.41,-126.431"/>
<polygon fill="#757575" stroke="#757575" points="3107.21,-129.445 3114.61,-121.86 3104.1,-123.176 3107.21,-129.445"/>
</g>
<!-- symbols/enemies/goblin.js -->
<g id="node54" class="node"><title>symbols/enemies/goblin.js</title>
<path fill="none" stroke="#ff6c60" d="M3266.33,-499.685C3266.33,-499.685 3096.67,-499.685 3096.67,-499.685 3092.83,-499.685 3089,-495.852 3089,-492.018 3089,-492.018 3089,-484.352 3089,-484.352 3089,-480.518 3092.83,-476.685 3096.67,-476.685 3096.67,-476.685 3266.33,-476.685 3266.33,-476.685 3270.17,-476.685 3274,-480.518 3274,-484.352 3274,-484.352 3274,-492.018 3274,-492.018 3274,-495.852 3270.17,-499.685 3266.33,-499.685"/>
<text text-anchor="middle" x="3181.5" y="-484.485" font-family="Arial" font-size="14.00" fill="#ff6c60">symbols/enemies/goblin.js</text>
</g>
<!-- store/initialState.js&#45;&gt;symbols/enemies/goblin.js -->
<g id="edge88" class="edge"><title>store/initialState.js&#45;&gt;symbols/enemies/goblin.js</title>
<path fill="none" stroke="#757575" d="M3025.77,-361.308C3035.71,-365.062 3045.23,-370.189 3053,-377.185 3085.02,-406.006 3056.27,-439.17 3089,-467.185 3090.76,-468.692 3092.61,-470.096 3094.53,-471.405"/>
<polygon fill="#757575" stroke="#757575" points="3092.95,-474.537 3103.35,-476.549 3096.48,-468.489 3092.95,-474.537"/>
</g>
<!-- symbols/face.js -->
<g id="node55" class="node"><title>symbols/face.js</title>
<path fill="none" stroke="#c6c5fe" d="M3231.83,-335.685C3231.83,-335.685 3131.17,-335.685 3131.17,-335.685 3127.33,-335.685 3123.5,-331.852 3123.5,-328.018 3123.5,-328.018 3123.5,-320.352 3123.5,-320.352 3123.5,-316.518 3127.33,-312.685 3131.17,-312.685 3131.17,-312.685 3231.83,-312.685 3231.83,-312.685 3235.67,-312.685 3239.5,-316.518 3239.5,-320.352 3239.5,-320.352 3239.5,-328.018 3239.5,-328.018 3239.5,-331.852 3235.67,-335.685 3231.83,-335.685"/>
<text text-anchor="middle" x="3181.5" y="-320.485" font-family="Arial" font-size="14.00" fill="#c6c5fe">symbols/face.js</text>
</g>
<!-- store/initialState.js&#45;&gt;symbols/face.js -->
<g id="edge89" class="edge"><title>store/initialState.js&#45;&gt;symbols/face.js</title>
<path fill="none" stroke="#757575" d="M3025.67,-343.23C3053.26,-339.836 3085.46,-335.875 3113.32,-332.448"/>
<polygon fill="#757575" stroke="#757575" points="3113.88,-335.906 3123.38,-331.212 3113.02,-328.959 3113.88,-335.906"/>
</g>
<!-- symbols/gear.js -->
<g id="node56" class="node"><title>symbols/gear.js</title>
<path fill="none" stroke="#c6c5fe" d="M3231.83,-294.685C3231.83,-294.685 3131.17,-294.685 3131.17,-294.685 3127.33,-294.685 3123.5,-290.852 3123.5,-287.018 3123.5,-287.018 3123.5,-279.352 3123.5,-279.352 3123.5,-275.518 3127.33,-271.685 3131.17,-271.685 3131.17,-271.685 3231.83,-271.685 3231.83,-271.685 3235.67,-271.685 3239.5,-275.518 3239.5,-279.352 3239.5,-279.352 3239.5,-287.018 3239.5,-287.018 3239.5,-290.852 3235.67,-294.685 3231.83,-294.685"/>
<text text-anchor="middle" x="3181.5" y="-279.485" font-family="Arial" font-size="14.00" fill="#c6c5fe">symbols/gear.js</text>
</g>
<!-- store/initialState.js&#45;&gt;symbols/gear.js -->
<g id="edge90" class="edge"><title>store/initialState.js&#45;&gt;symbols/gear.js</title>
<path fill="none" stroke="#757575" d="M3011.52,-339.578C3025.25,-335.71 3039.92,-330.901 3053,-325.185 3070.18,-317.676 3071.6,-310.173 3089,-303.185 3096.81,-300.049 3105.2,-297.364 3113.62,-295.075"/>
<polygon fill="#757575" stroke="#757575" points="3114.65,-298.424 3123.48,-292.567 3112.93,-291.64 3114.65,-298.424"/>
</g>
<!-- symbols/lowerBody.js -->
<g id="node57" class="node"><title>symbols/lowerBody.js</title>
<path fill="none" stroke="#c6c5fe" d="M3251.33,-253.685C3251.33,-253.685 3111.67,-253.685 3111.67,-253.685 3107.83,-253.685 3104,-249.852 3104,-246.018 3104,-246.018 3104,-238.352 3104,-238.352 3104,-234.518 3107.83,-230.685 3111.67,-230.685 3111.67,-230.685 3251.33,-230.685 3251.33,-230.685 3255.17,-230.685 3259,-234.518 3259,-238.352 3259,-238.352 3259,-246.018 3259,-246.018 3259,-249.852 3255.17,-253.685 3251.33,-253.685"/>
<text text-anchor="middle" x="3181.5" y="-238.485" font-family="Arial" font-size="14.00" fill="#c6c5fe">symbols/lowerBody.js</text>
</g>
<!-- store/initialState.js&#45;&gt;symbols/lowerBody.js -->
<g id="edge91" class="edge"><title>store/initialState.js&#45;&gt;symbols/lowerBody.js</title>
<path fill="none" stroke="#757575" d="M3025.93,-339.764C3035.62,-336.161 3045.02,-331.421 3053,-325.185 3078.41,-305.322 3063.01,-281.273 3089,-262.185 3090.86,-260.816 3092.8,-259.538 3094.8,-258.344"/>
<polygon fill="#757575" stroke="#757575" points="3096.64,-261.334 3103.92,-253.634 3093.43,-255.115 3096.64,-261.334"/>
</g>
<!-- symbols/skin.js -->
<g id="node58" class="node"><title>symbols/skin.js</title>
<path fill="none" stroke="#c6c5fe" d="M3230.33,-212.685C3230.33,-212.685 3132.67,-212.685 3132.67,-212.685 3128.83,-212.685 3125,-208.852 3125,-205.018 3125,-205.018 3125,-197.352 3125,-197.352 3125,-193.518 3128.83,-189.685 3132.67,-189.685 3132.67,-189.685 3230.33,-189.685 3230.33,-189.685 3234.17,-189.685 3238,-193.518 3238,-197.352 3238,-197.352 3238,-205.018 3238,-205.018 3238,-208.852 3234.17,-212.685 3230.33,-212.685"/>
<text text-anchor="middle" x="3181.5" y="-197.485" font-family="Arial" font-size="14.00" fill="#c6c5fe">symbols/skin.js</text>
</g>
<!-- store/initialState.js&#45;&gt;symbols/skin.js -->
<g id="edge92" class="edge"><title>store/initialState.js&#45;&gt;symbols/skin.js</title>
<path fill="none" stroke="#757575" d="M3025.59,-341.551C3035.66,-337.746 3045.27,-332.476 3053,-325.185 3088.57,-291.612 3052.43,-253.671 3089,-221.185 3096.48,-214.543 3105.64,-209.938 3115.25,-206.775"/>
<polygon fill="#757575" stroke="#757575" points="3116.27,-210.125 3124.96,-204.07 3114.39,-203.381 3116.27,-210.125"/>
</g>
<!-- symbols/tail.js -->
<g id="node59" class="node"><title>symbols/tail.js</title>
<path fill="none" stroke="#c6c5fe" d="M3226.33,-458.685C3226.33,-458.685 3136.67,-458.685 3136.67,-458.685 3132.83,-458.685 3129,-454.852 3129,-451.018 3129,-451.018 3129,-443.352 3129,-443.352 3129,-439.518 3132.83,-435.685 3136.67,-435.685 3136.67,-435.685 3226.33,-435.685 3226.33,-435.685 3230.17,-435.685 3234,-439.518 3234,-443.352 3234,-443.352 3234,-451.018 3234,-451.018 3234,-454.852 3230.17,-458.685 3226.33,-458.685"/>
<text text-anchor="middle" x="3181.5" y="-443.485" font-family="Arial" font-size="14.00" fill="#c6c5fe">symbols/tail.js</text>
</g>
<!-- store/initialState.js&#45;&gt;symbols/tail.js -->
<g id="edge93" class="edge"><title>store/initialState.js&#45;&gt;symbols/tail.js</title>
<path fill="none" stroke="#757575" d="M3023.41,-362.741C3033.84,-366.335 3044.13,-371.037 3053,-377.185 3075.21,-392.584 3066.42,-411.344 3089,-426.185 3097.88,-432.018 3108.16,-436.243 3118.57,-439.299"/>
<polygon fill="#757575" stroke="#757575" points="3117.98,-442.762 3128.54,-441.886 3119.74,-435.986 3117.98,-442.762"/>
</g>
<!-- symbols/tongue.js -->
<g id="node60" class="node"><title>symbols/tongue.js</title>
<path fill="none" stroke="#c6c5fe" d="M3239.33,-417.685C3239.33,-417.685 3123.67,-417.685 3123.67,-417.685 3119.83,-417.685 3116,-413.852 3116,-410.018 3116,-410.018 3116,-402.352 3116,-402.352 3116,-398.518 3119.83,-394.685 3123.67,-394.685 3123.67,-394.685 3239.33,-394.685 3239.33,-394.685 3243.17,-394.685 3247,-398.518 3247,-402.352 3247,-402.352 3247,-410.018 3247,-410.018 3247,-413.852 3243.17,-417.685 3239.33,-417.685"/>
<text text-anchor="middle" x="3181.5" y="-402.485" font-family="Arial" font-size="14.00" fill="#c6c5fe">symbols/tongue.js</text>
</g>
<!-- store/initialState.js&#45;&gt;symbols/tongue.js -->
<g id="edge94" class="edge"><title>store/initialState.js&#45;&gt;symbols/tongue.js</title>
<path fill="none" stroke="#757575" d="M3002.99,-362.724C3027.93,-369.481 3060.21,-378.059 3089,-385.185 3098.61,-387.564 3108.81,-389.996 3118.79,-392.322"/>
<polygon fill="#757575" stroke="#757575" points="3118.12,-395.76 3128.65,-394.608 3119.7,-388.941 3118.12,-395.76"/>
</g>
<!-- symbols/wings.js -->
<g id="node61" class="node"><title>symbols/wings.js</title>
<path fill="none" stroke="#c6c5fe" d="M3235.83,-376.685C3235.83,-376.685 3127.17,-376.685 3127.17,-376.685 3123.33,-376.685 3119.5,-372.852 3119.5,-369.018 3119.5,-369.018 3119.5,-361.352 3119.5,-361.352 3119.5,-357.518 3123.33,-353.685 3127.17,-353.685 3127.17,-353.685 3235.83,-353.685 3235.83,-353.685 3239.67,-353.685 3243.5,-357.518 3243.5,-361.352 3243.5,-361.352 3243.5,-369.018 3243.5,-369.018 3243.5,-372.852 3239.67,-376.685 3235.83,-376.685"/>
<text text-anchor="middle" x="3181.5" y="-361.485" font-family="Arial" font-size="14.00" fill="#c6c5fe">symbols/wings.js</text>
</g>
<!-- store/initialState.js&#45;&gt;symbols/wings.js -->
<g id="edge95" class="edge"><title>store/initialState.js&#45;&gt;symbols/wings.js</title>
<path fill="none" stroke="#757575" d="M3025.67,-355.31C3051.91,-356.983 3082.31,-358.922 3109.19,-360.637"/>
<polygon fill="#757575" stroke="#757575" points="3109.1,-364.138 3119.3,-361.282 3109.55,-357.152 3109.1,-364.138"/>
</g>
<!-- scenes/charCreation.js&#45;&gt;actions/Core.js -->
<g id="edge54" class="edge"><title>scenes/charCreation.js&#45;&gt;actions/Core.js</title>
<path fill="none" stroke="#757575" d="M1413.51,-650.634C1553.48,-619.153 1941.78,-533.321 2072,-520.185 2151.68,-512.147 2243.96,-510.916 2304.25,-511.192"/>
<polygon fill="#757575" stroke="#757575" points="2304.36,-514.693 2314.38,-511.254 2304.4,-507.693 2304.36,-514.693"/>
</g>
<!-- scenes/charCreation.js&#45;&gt;store/store.js -->
<g id="edge60" class="edge"><title>scenes/charCreation.js&#45;&gt;store/store.js</title>
<path fill="none" stroke="#757575" d="M1420.35,-650.683C1427.87,-648.109 1435.29,-644.98 1442,-641.185 1461.42,-630.198 1459.04,-617.957 1478,-606.185 1614.97,-521.13 1686.49,-575.577 1820,-485.185 1840.08,-471.59 1834.43,-455.257 1856,-444.185 2029.63,-355.076 2098.7,-419.439 2293,-401.185 2360.95,-394.802 2439.04,-387.871 2491.14,-383.304"/>
<polygon fill="#757575" stroke="#757575" points="2491.54,-386.782 2501.2,-382.423 2490.93,-379.809 2491.54,-386.782"/>
</g>
<!-- scenes/charCreation.js&#45;&gt;actions/Player.js -->
<g id="edge55" class="edge"><title>scenes/charCreation.js&#45;&gt;actions/Player.js</title>
<path fill="none" stroke="#757575" d="M1442.23,-661.886C1599.41,-661.298 1946.83,-659.996 2094.7,-659.443"/>
<polygon fill="#757575" stroke="#757575" points="2095.01,-662.941 2105,-659.404 2094.99,-655.942 2095.01,-662.941"/>
</g>
<!-- scenes/charCreation.js&#45;&gt;symbols/breastCup.js -->
<g id="edge61" class="edge"><title>scenes/charCreation.js&#45;&gt;symbols/breastCup.js</title>
<path fill="none" stroke="#757575" d="M1365.62,-673.94C1375.73,-709.945 1410.91,-820.031 1478,-882.185 1565.66,-963.404 1608.49,-981.185 1728,-981.185 1728,-981.185 1728,-981.185 1947,-981.185 2085.06,-981.185 2119.94,-977.791 2257,-961.185 2271.5,-959.428 2286.96,-957.018 2301.63,-954.478"/>
<polygon fill="#757575" stroke="#757575" points="2302.4,-957.897 2311.63,-952.706 2301.18,-951.004 2302.4,-957.897"/>
</g>
<!-- scenes/charCreation.js&#45;&gt;appearance/appearance.js -->
<g id="edge56" class="edge"><title>scenes/charCreation.js&#45;&gt;appearance/appearance.js</title>
<path fill="none" stroke="#757575" d="M1368.41,-673.764C1383.47,-702.444 1425.85,-777.941 1478,-826.185 1538.71,-882.346 1558.68,-897.78 1638,-921.185 1780.3,-963.174 1953.7,-959.913 2061.37,-951.931"/>
<polygon fill="#757575" stroke="#757575" points="2061.88,-955.403 2071.58,-951.146 2061.34,-948.423 2061.88,-955.403"/>
</g>
<!-- scenes/charCreation.js&#45;&gt;symbols/gender.js -->
<g id="edge63" class="edge"><title>scenes/charCreation.js&#45;&gt;symbols/gender.js</title>
<path fill="none" stroke="#757575" d="M1363.96,-673.794C1369.83,-715.726 1395.55,-860.946 1478,-938.185 1563.24,-1018.04 1611.2,-1019.18 1728,-1019.18 1728,-1019.18 1728,-1019.18 1947,-1019.18 2068.56,-1019.18 2209.06,-1003.76 2293.37,-992.831"/>
<polygon fill="#757575" stroke="#757575" points="2293.91,-996.29 2303.37,-991.521 2293,-989.35 2293.91,-996.29"/>
</g>
<!-- scenes/charCreation.js&#45;&gt;scenes/menus.js -->
<g id="edge57" class="edge"><title>scenes/charCreation.js&#45;&gt;scenes/menus.js</title>
<path fill="none" stroke="#757575" d="M1429.96,-650.642C1434.4,-648.061 1438.5,-644.944 1442,-641.185 1500.31,-578.64 1424.82,-519.148 1478,-452.185 1481.2,-448.15 1485.14,-444.703 1489.45,-441.76"/>
<polygon fill="#757575" stroke="#757575" points="1491.24,-444.766 1498.11,-436.701 1487.71,-438.721 1491.24,-444.766"/>
</g>
<!-- scenes/charCreation.js&#45;&gt;scenes/sceneSymbols.js -->
<g id="edge58" class="edge"><title>scenes/charCreation.js&#45;&gt;scenes/sceneSymbols.js</title>
<path fill="none" stroke="#757575" d="M1430.49,-650.567C1434.75,-647.996 1438.66,-644.903 1442,-641.185 1513.18,-561.91 1441.09,-504.128 1478,-404.185 1546.25,-219.393 1531.01,-38.1848 1728,-38.1848 1728,-38.1848 1728,-38.1848 2744,-38.1848 2882.42,-38.1848 2917.05,-51.123 3053,-77.1848 3079.13,-82.1947 3107.85,-89.4692 3131.41,-95.9141"/>
<polygon fill="#757575" stroke="#757575" points="3130.6,-99.3201 3141.17,-98.6164 3132.46,-92.5741 3130.6,-99.3201"/>
</g>
<!-- scenes/sceneTextStore.js -->
<g id="node45" class="node"><title>scenes/sceneTextStore.js</title>
<path fill="none" stroke="#c6c5fe" d="M1812.33,-476.685C1812.33,-476.685 1645.67,-476.685 1645.67,-476.685 1641.83,-476.685 1638,-472.852 1638,-469.018 1638,-469.018 1638,-461.352 1638,-461.352 1638,-457.518 1641.83,-453.685 1645.67,-453.685 1645.67,-453.685 1812.33,-453.685 1812.33,-453.685 1816.17,-453.685 1820,-457.518 1820,-461.352 1820,-461.352 1820,-469.018 1820,-469.018 1820,-472.852 1816.17,-476.685 1812.33,-476.685"/>
<text text-anchor="middle" x="1729" y="-461.485" font-family="Arial" font-size="14.00" fill="#c6c5fe">scenes/sceneTextStore.js</text>
</g>
<!-- scenes/charCreation.js&#45;&gt;scenes/sceneTextStore.js -->
<g id="edge59" class="edge"><title>scenes/charCreation.js&#45;&gt;scenes/sceneTextStore.js</title>
<path fill="none" stroke="#757575" d="M1429.39,-650.667C1434.02,-648.086 1438.31,-644.962 1442,-641.185 1489.93,-592.158 1426.43,-536.363 1478,-491.185 1526.67,-448.549 1602.82,-446.58 1658.3,-452.472"/>
<polygon fill="#757575" stroke="#757575" points="1658.07,-455.969 1668.41,-453.656 1658.88,-449.016 1658.07,-455.969"/>
</g>
<!-- symbols/butt.js -->
<g id="node46" class="node"><title>symbols/butt.js</title>
<path fill="none" stroke="#c6c5fe" d="M1776.83,-912.685C1776.83,-912.685 1681.17,-912.685 1681.17,-912.685 1677.33,-912.685 1673.5,-908.852 1673.5,-905.018 1673.5,-905.018 1673.5,-897.352 1673.5,-897.352 1673.5,-893.518 1677.33,-889.685 1681.17,-889.685 1681.17,-889.685 1776.83,-889.685 1776.83,-889.685 1780.67,-889.685 1784.5,-893.518 1784.5,-897.352 1784.5,-897.352 1784.5,-905.018 1784.5,-905.018 1784.5,-908.852 1780.67,-912.685 1776.83,-912.685"/>
<text text-anchor="middle" x="1729" y="-897.485" font-family="Arial" font-size="14.00" fill="#c6c5fe">symbols/butt.js</text>
</g>
<!-- scenes/charCreation.js&#45;&gt;symbols/butt.js -->
<g id="edge62" class="edge"><title>scenes/charCreation.js&#45;&gt;symbols/butt.js</title>
<path fill="none" stroke="#757575" d="M1373.88,-673.978C1409.36,-710.024 1522.48,-819.658 1638,-875.185 1647.12,-879.571 1657.13,-883.361 1667.06,-886.586"/>
<polygon fill="#757575" stroke="#757575" points="1666.33,-890.024 1676.92,-889.624 1668.39,-883.335 1666.33,-890.024"/>
</g>
<!-- symbols/hips.js -->
<g id="node47" class="node"><title>symbols/hips.js</title>
<path fill="none" stroke="#c6c5fe" d="M1589.33,-753.685C1589.33,-753.685 1490.67,-753.685 1490.67,-753.685 1486.83,-753.685 1483,-749.852 1483,-746.018 1483,-746.018 1483,-738.352 1483,-738.352 1483,-734.518 1486.83,-730.685 1490.67,-730.685 1490.67,-730.685 1589.33,-730.685 1589.33,-730.685 1593.17,-730.685 1597,-734.518 1597,-738.352 1597,-738.352 1597,-746.018 1597,-746.018 1597,-749.852 1593.17,-753.685 1589.33,-753.685"/>
<text text-anchor="middle" x="1540" y="-738.485" font-family="Arial" font-size="14.00" fill="#c6c5fe">symbols/hips.js</text>
</g>
<!-- scenes/charCreation.js&#45;&gt;symbols/hips.js -->
<g id="edge64" class="edge"><title>scenes/charCreation.js&#45;&gt;symbols/hips.js</title>
<path fill="none" stroke="#757575" d="M1388.16,-673.818C1418.84,-687.721 1470.3,-711.046 1504.45,-726.524"/>
<polygon fill="#757575" stroke="#757575" points="1503.04,-729.727 1513.59,-730.668 1505.93,-723.352 1503.04,-729.727"/>
</g>
<!-- scenes/menus.js&#45;&gt;actions/Core.js -->
<g id="edge74" class="edge"><title>scenes/menus.js&#45;&gt;actions/Core.js</title>
<path fill="none" stroke="#757575" d="M1602.2,-424.517C1695.92,-424.174 1880.52,-426.183 2036,-444.185 2135.4,-455.693 2159.05,-466.728 2257,-487.185 2273.72,-490.676 2291.79,-494.632 2308.45,-498.35"/>
<polygon fill="#757575" stroke="#757575" points="2308.08,-501.855 2318.61,-500.628 2309.61,-495.025 2308.08,-501.855"/>
</g>
<!-- scenes/menus.js&#45;&gt;scenes/sceneSymbols.js -->
<g id="edge75" class="edge"><title>scenes/menus.js&#45;&gt;scenes/sceneSymbols.js</title>
<path fill="none" stroke="#757575" d="M1549.41,-413.386C1582.47,-368.016 1708.87,-203.672 1856,-130.185 1980.13,-68.1822 2024.74,-76.1848 2163.5,-76.1848 2163.5,-76.1848 2163.5,-76.1848 2744,-76.1848 2860.92,-76.1848 2994.93,-88.4602 3083.28,-98.2592"/>
<polygon fill="#757575" stroke="#757575" points="3082.96,-101.745 3093.28,-99.3803 3083.74,-94.7887 3082.96,-101.745"/>
</g>
<!-- scenes/menus.js&#45;&gt;scenes/sceneTextStore.js -->
<g id="edge76" class="edge"><title>scenes/menus.js&#45;&gt;scenes/sceneTextStore.js</title>
<path fill="none" stroke="#757575" d="M1594.84,-436.701C1616.55,-441.345 1641.76,-446.738 1664.37,-451.575"/>
<polygon fill="#757575" stroke="#757575" points="1663.71,-455.012 1674.22,-453.681 1665.17,-448.167 1663.71,-455.012"/>
</g>
<!-- scenes/sceneTextStore.js&#45;&gt;components/nameInput.js -->
<g id="edge85" class="edge"><title>scenes/sceneTextStore.js&#45;&gt;components/nameInput.js</title>
<path fill="none" stroke="#757575" d="M1820.24,-465.185C1828.58,-465.185 1837.05,-465.185 1845.46,-465.185"/>
<polygon fill="#757575" stroke="#757575" points="1845.68,-468.685 1855.68,-465.185 1845.68,-461.685 1845.68,-468.685"/>
</g>
<!-- scenes/sceneTextStore.js&#45;&gt;scenes/sceneSymbols.js -->
<g id="edge86" class="edge"><title>scenes/sceneTextStore.js&#45;&gt;scenes/sceneSymbols.js</title>
<path fill="none" stroke="#757575" d="M1755.03,-453.474C1775.45,-442.673 1803.51,-424.75 1820,-401.185 1854.61,-351.708 1816.71,-316.036 1856,-270.185 2061.7,-30.1166 2233.86,-114.185 2550,-114.185 2550,-114.185 2550,-114.185 2744,-114.185 2860.57,-114.185 2994.65,-112.741 3083.11,-111.588"/>
<polygon fill="#757575" stroke="#757575" points="3083.18,-115.087 3093.13,-111.456 3083.08,-108.088 3083.18,-115.087"/>
</g>
<!-- symbols/butt.js&#45;&gt;utils.js -->
<g id="edge98" class="edge"><title>symbols/butt.js&#45;&gt;utils.js</title>
<path fill="none" stroke="#757575" d="M1784.58,-901.369C1936.35,-901.863 2376.34,-903.185 2742,-903.185 2742,-903.185 2742,-903.185 2961,-903.185 3030.76,-903.185 3222.46,-926.2 3274,-879.185 3325.88,-831.852 3335.06,-602.347 3336.66,-530.045"/>
<polygon fill="#757575" stroke="#757575" points="3340.17,-529.909 3336.86,-519.842 3333.17,-529.772 3340.17,-529.909"/>
</g>
<!-- symbols/hips.js&#45;&gt;utils.js -->
<g id="edge104" class="edge"><title>symbols/hips.js&#45;&gt;utils.js</title>
<path fill="none" stroke="#757575" d="M1597.07,-752.043C1768.13,-781.23 2298.7,-865.185 2742,-865.185 2742,-865.185 2742,-865.185 2961,-865.185 3106.38,-865.185 3174.26,-875.955 3274,-770.185 3307.1,-735.078 3327.76,-586.425 3334.54,-530.015"/>
<polygon fill="#757575" stroke="#757575" points="3338.06,-530.076 3335.74,-519.737 3331.1,-529.263 3338.06,-530.076"/>
</g>
<!-- scenes/combat/combat.js&#45;&gt;actions/Core.js -->
<g id="edge65" class="edge"><title>scenes/combat/combat.js&#45;&gt;actions/Core.js</title>
<path fill="none" stroke="#757575" d="M1970.5,-302.752C2022.49,-328.43 2151.04,-392.413 2257,-449.185 2285.52,-464.465 2317.67,-482.65 2340.18,-495.545"/>
<polygon fill="#757575" stroke="#757575" points="2338.49,-498.61 2348.9,-500.553 2341.97,-492.539 2338.49,-498.61"/>
</g>
<!-- scenes/combat/combat.js&#45;&gt;store/store.js -->
<g id="edge69" class="edge"><title>scenes/combat/combat.js&#45;&gt;store/store.js</title>
<path fill="none" stroke="#757575" d="M2035.95,-290.828C2136.99,-292.297 2306.13,-300.467 2447,-335.185 2471.9,-341.321 2498.58,-352.605 2518.55,-362.074"/>
<polygon fill="#757575" stroke="#757575" points="2517.25,-365.334 2527.78,-366.546 2520.3,-359.035 2517.25,-365.334"/>
</g>
<!-- scenes/combat/combat.js&#45;&gt;actions/Enemy.js -->
<g id="edge66" class="edge"><title>scenes/combat/combat.js&#45;&gt;actions/Enemy.js</title>
<path fill="none" stroke="#757575" d="M1985.22,-279.67C2009.79,-272.7 2042.52,-264.214 2072,-259.185 2148.45,-246.143 2237.15,-239.461 2297.57,-236.162"/>
<polygon fill="#757575" stroke="#757575" points="2297.96,-239.646 2307.76,-235.623 2297.59,-232.656 2297.96,-239.646"/>
</g>
<!-- scenes/combat/combat.js&#45;&gt;actions/Player.js -->
<g id="edge67" class="edge"><title>scenes/combat/combat.js&#45;&gt;actions/Player.js</title>
<path fill="none" stroke="#757575" d="M1955.13,-302.982C1972.1,-328.02 2011.72,-388.729 2036,-444.185 2057.82,-494.023 2044.74,-514.101 2072,-561.185 2090.33,-592.84 2120.63,-622.559 2141.3,-640.791"/>
<polygon fill="#757575" stroke="#757575" points="2139.12,-643.531 2148.97,-647.422 2143.7,-638.235 2139.12,-643.531"/>
</g>
<!-- scenes/combat/combat.js&#45;&gt;scenes/sceneSymbols.js -->
<g id="edge68" class="edge"><title>scenes/combat/combat.js&#45;&gt;scenes/sceneSymbols.js</title>
<path fill="none" stroke="#757575" d="M1970.1,-279.667C1994.88,-267.585 2035.61,-248.532 2072,-235.185 2274.44,-160.937 2334.38,-152.185 2550,-152.185 2550,-152.185 2550,-152.185 2744,-152.185 2866.85,-152.185 3008.25,-135.498 3096.01,-123.161"/>
<polygon fill="#757575" stroke="#757575" points="3096.77,-126.588 3106.18,-121.717 3095.78,-119.658 3096.77,-126.588"/>
</g>
<!-- scenes/inv/inv.js&#45;&gt;actions/Core.js -->
<g id="edge70" class="edge"><title>scenes/inv/inv.js&#45;&gt;actions/Core.js</title>
<path fill="none" stroke="#757575" d="M2005.6,-581.878C2068.61,-583.371 2171.28,-581.726 2257,-561.185 2286.31,-554.162 2317.56,-539.856 2339.58,-528.506"/>
<polygon fill="#757575" stroke="#757575" points="2341.5,-531.451 2348.72,-523.695 2338.24,-525.258 2341.5,-531.451"/>
</g>
<!-- scenes/inv/inv.js&#45;&gt;store/store.js -->
<g id="edge72" class="edge"><title>scenes/inv/inv.js&#45;&gt;store/store.js</title>
<path fill="none" stroke="#757575" d="M1956.49,-590.8C1975.57,-613.113 2021.12,-661.339 2072,-679.185 2149.59,-706.401 2175.06,-686.036 2257,-679.185 2342.34,-672.049 2380.74,-701.428 2447,-647.185 2525.41,-582.998 2544.22,-451.889 2548.66,-400.014"/>
<polygon fill="#757575" stroke="#757575" points="2552.16,-400.168 2549.42,-389.932 2545.18,-399.64 2552.16,-400.168"/>
</g>
<!-- scenes/inv/inv.js&#45;&gt;actions/Inv.js -->
<g id="edge71" class="edge"><title>scenes/inv/inv.js&#45;&gt;actions/Inv.js</title>
<path fill="none" stroke="#757575" d="M1953.67,-590.719C1969.92,-617.627 2014.52,-684.44 2072,-713.185 2148.01,-751.199 2248.41,-753.657 2310.83,-750.504"/>
<polygon fill="#757575" stroke="#757575" points="2311.11,-753.994 2320.89,-749.93 2310.71,-747.005 2311.11,-753.994"/>
</g>
<!-- symbols/items/apple.js -->
<g id="node50" class="node"><title>symbols/items/apple.js</title>
<path fill="none" stroke="#c6c5fe" d="M2237.33,-552.685C2237.33,-552.685 2091.67,-552.685 2091.67,-552.685 2087.83,-552.685 2084,-548.852 2084,-545.018 2084,-545.018 2084,-537.352 2084,-537.352 2084,-533.518 2087.83,-529.685 2091.67,-529.685 2091.67,-529.685 2237.33,-529.685 2237.33,-529.685 2241.17,-529.685 2245,-533.518 2245,-537.352 2245,-537.352 2245,-545.018 2245,-545.018 2245,-548.852 2241.17,-552.685 2237.33,-552.685"/>
<text text-anchor="middle" x="2164.5" y="-537.485" font-family="Arial" font-size="14.00" fill="#c6c5fe">symbols/items/apple.js</text>
</g>
<!-- scenes/inv/inv.js&#45;&gt;symbols/items/apple.js -->
<g id="edge73" class="edge"><title>scenes/inv/inv.js&#45;&gt;symbols/items/apple.js</title>
<path fill="none" stroke="#757575" d="M2005.59,-568.901C2030.79,-564.477 2060.59,-559.248 2087.47,-554.53"/>
<polygon fill="#757575" stroke="#757575" points="2088.36,-557.926 2097.61,-552.75 2087.15,-551.031 2088.36,-557.926"/>
</g>
<!-- symbols/items/apple.js&#45;&gt;actions/Core.js -->
<g id="edge105" class="edge"><title>symbols/items/apple.js&#45;&gt;actions/Core.js</title>
<path fill="none" stroke="#757575" d="M2245.05,-529.848C2264.71,-527.047 2285.52,-524.081 2304.37,-521.395"/>
<polygon fill="#757575" stroke="#757575" points="2304.92,-524.852 2314.32,-519.977 2303.93,-517.922 2304.92,-524.852"/>
</g>
<!-- setupTests.js -->
<g id="node52" class="node"><title>setupTests.js</title>
<path fill="none" stroke="#cfffac" d="M112.333,-220.685C112.333,-220.685 25.6667,-220.685 25.6667,-220.685 21.8333,-220.685 18,-216.852 18,-213.018 18,-213.018 18,-205.352 18,-205.352 18,-201.518 21.8333,-197.685 25.6667,-197.685 25.6667,-197.685 112.333,-197.685 112.333,-197.685 116.167,-197.685 120,-201.518 120,-205.352 120,-205.352 120,-213.018 120,-213.018 120,-216.852 116.167,-220.685 112.333,-220.685"/>
<text text-anchor="middle" x="69" y="-205.485" font-family="Arial" font-size="14.00" fill="#cfffac">setupTests.js</text>
</g>
<!-- store/gameFlags.js -->
<g id="node53" class="node"><title>store/gameFlags.js</title>
<path fill="none" stroke="#cfffac" d="M130.333,-261.685C130.333,-261.685 7.66667,-261.685 7.66667,-261.685 3.83333,-261.685 0,-257.852 0,-254.018 0,-254.018 0,-246.352 0,-246.352 0,-242.518 3.83333,-238.685 7.66667,-238.685 7.66667,-238.685 130.333,-238.685 130.333,-238.685 134.167,-238.685 138,-242.518 138,-246.352 138,-246.352 138,-254.018 138,-254.018 138,-257.852 134.167,-261.685 130.333,-261.685"/>
<text text-anchor="middle" x="69" y="-246.485" font-family="Arial" font-size="14.00" fill="#cfffac">store/gameFlags.js</text>
</g>
<!-- symbols/enemies/goblin.js&#45;&gt;actions/Core.js -->
<g id="edge99" class="edge"><title>symbols/enemies/goblin.js&#45;&gt;actions/Core.js</title>
<path fill="none" stroke="#757575" d="M3106.36,-476.614C3100.21,-474.059 3094.32,-470.954 3089,-467.185 3064.55,-449.86 3079.24,-424.648 3053,-410.185 2942.78,-349.437 2553.63,-457.26 2418.02,-497.749"/>
<polygon fill="#757575" stroke="#757575" points="2416.9,-494.432 2408.32,-500.659 2418.91,-501.137 2416.9,-494.432"/>
</g>
<!-- symbols/enemies/goblin.js&#45;&gt;utils.js -->
<g id="edge100" class="edge"><title>symbols/enemies/goblin.js&#45;&gt;utils.js</title>
<path fill="none" stroke="#757575" d="M3271.48,-499.703C3281.4,-500.987 3291.05,-502.237 3299.77,-503.365"/>
<polygon fill="#757575" stroke="#757575" points="3299.52,-506.863 3309.89,-504.675 3300.42,-499.92 3299.52,-506.863"/>
</g>
<!-- symbols/face.js&#45;&gt;utils.js -->
<g id="edge101" class="edge"><title>symbols/face.js&#45;&gt;utils.js</title>
<path fill="none" stroke="#757575" d="M3239.74,-327.761C3252.13,-330.837 3264.38,-335.921 3274,-344.185 3317.01,-381.124 3330.78,-450.885 3335.09,-486.329"/>
<polygon fill="#757575" stroke="#757575" points="3331.64,-486.975 3336.18,-496.545 3338.6,-486.229 3331.64,-486.975"/>
</g>
<!-- symbols/gear.js&#45;&gt;utils.js -->
<g id="edge102" class="edge"><title>symbols/gear.js&#45;&gt;utils.js</title>
<path fill="none" stroke="#757575" d="M3239.68,-286.171C3252.22,-289.251 3264.55,-294.486 3274,-303.185 3327.08,-352.032 3335.9,-444.354 3337.05,-486.373"/>
<polygon fill="#757575" stroke="#757575" points="3333.56,-486.642 3337.2,-496.589 3340.55,-486.538 3333.56,-486.642"/>
</g>
<!-- symbols/lowerBody.js&#45;&gt;utils.js -->
<g id="edge106" class="edge"><title>symbols/lowerBody.js&#45;&gt;utils.js</title>
<path fill="none" stroke="#757575" d="M3259.31,-251.88C3264.68,-254.619 3269.67,-258.007 3274,-262.185 3306.5,-293.554 3327.34,-432.333 3334.36,-486.461"/>
<polygon fill="#757575" stroke="#757575" points="3330.92,-487.175 3335.65,-496.658 3337.87,-486.298 3330.92,-487.175"/>
</g>
<!-- symbols/skin.js&#45;&gt;utils.js -->
<g id="edge108" class="edge"><title>symbols/skin.js&#45;&gt;utils.js</title>
<path fill="none" stroke="#757575" d="M3238.3,-203.172C3251.48,-206.19 3264.45,-211.646 3274,-221.185 3311.63,-258.783 3329.76,-425.604 3335.19,-486.143"/>
<polygon fill="#757575" stroke="#757575" points="3331.73,-486.799 3336.08,-496.46 3338.71,-486.196 3331.73,-486.799"/>
</g>
<!-- symbols/tail.js&#45;&gt;utils.js -->
<g id="edge109" class="edge"><title>symbols/tail.js&#45;&gt;utils.js</title>
<path fill="none" stroke="#757575" d="M3234.32,-455.108C3247.55,-458.045 3261.55,-461.978 3274,-467.185 3288.2,-473.122 3302.69,-482.291 3314.18,-490.453"/>
<polygon fill="#757575" stroke="#757575" points="3312.2,-493.341 3322.34,-496.429 3316.34,-487.695 3312.2,-493.341"/>
</g>
<!-- symbols/tongue.js&#45;&gt;utils.js -->
<g id="edge110" class="edge"><title>symbols/tongue.js&#45;&gt;utils.js</title>
<path fill="none" stroke="#757575" d="M3247.27,-414.356C3256.67,-417.211 3265.9,-421.045 3274,-426.185 3297.75,-441.256 3316.03,-468.597 3326.64,-487.542"/>
<polygon fill="#757575" stroke="#757575" points="3323.67,-489.41 3331.47,-496.574 3329.84,-486.106 3323.67,-489.41"/>
</g>
<!-- symbols/wings.js&#45;&gt;utils.js -->
<g id="edge112" class="edge"><title>symbols/wings.js&#45;&gt;utils.js</title>
<path fill="none" stroke="#757575" d="M3243.89,-370.785C3254.68,-373.864 3265.24,-378.438 3274,-385.185 3307.22,-410.775 3324.45,-458.764 3332.03,-486.633"/>
<polygon fill="#757575" stroke="#757575" points="3328.7,-487.739 3334.56,-496.569 3335.49,-486.014 3328.7,-487.739"/>
</g>
</g>
</svg>
