<?xml version="1.0" encoding="UTF-8" standalone="no"?>
<!DOCTYPE svg PUBLIC "-//W3C//DTD SVG 1.1//EN"
 "http://www.w3.org/Graphics/SVG/1.1/DTD/svg11.dtd">
<!-- Generated by graphviz version 2.38.0 (20140413.2041)
 -->
<!-- Title: G Pages: 1 -->
<svg width="3440pt" height="872pt"
 viewBox="0.00 0.00 3440.20 871.82" xmlns="http://www.w3.org/2000/svg" xmlns:xlink="http://www.w3.org/1999/xlink">
<g id="graph0" class="graph" transform="scale(1 1) rotate(0) translate(21.6 850.218)">
<title>G</title>
<polygon fill="#111111" stroke="none" points="-21.6,21.6 -21.6,-850.218 3418.6,-850.218 3418.6,21.6 -21.6,21.6"/>
<!-- actions/Core.js -->
<g id="node1" class="node"><title>actions/Core.js</title>
<path fill="none" stroke="#c6c5fe" d="M1776.83,-411C1776.83,-411 1681.17,-411 1681.17,-411 1677.33,-411 1673.5,-407.167 1673.5,-403.333 1673.5,-403.333 1673.5,-395.667 1673.5,-395.667 1673.5,-391.833 1677.33,-388 1681.17,-388 1681.17,-388 1776.83,-388 1776.83,-388 1780.67,-388 1784.5,-391.833 1784.5,-395.667 1784.5,-395.667 1784.5,-403.333 1784.5,-403.333 1784.5,-407.167 1780.67,-411 1776.83,-411"/>
<text text-anchor="middle" x="1729" y="-395.8" font-family="Arial" font-size="14.00" fill="#c6c5fe">actions/Core.js</text>
</g>
<!-- actions/coreMsg.js -->
<g id="node2" class="node"><title>actions/coreMsg.js</title>
<path fill="none" stroke="#cfffac" d="M3024.83,-588C3024.83,-588 2905.17,-588 2905.17,-588 2901.33,-588 2897.5,-584.167 2897.5,-580.333 2897.5,-580.333 2897.5,-572.667 2897.5,-572.667 2897.5,-568.833 2901.33,-565 2905.17,-565 2905.17,-565 3024.83,-565 3024.83,-565 3028.67,-565 3032.5,-568.833 3032.5,-572.667 3032.5,-572.667 3032.5,-580.333 3032.5,-580.333 3032.5,-584.167 3028.67,-588 3024.83,-588"/>
<text text-anchor="middle" x="2965" y="-572.8" font-family="Arial" font-size="14.00" fill="#cfffac">actions/coreMsg.js</text>
</g>
<!-- actions/Core.js&#45;&gt;actions/coreMsg.js -->
<g id="edge1" class="edge"><title>actions/Core.js&#45;&gt;actions/coreMsg.js</title>
<path fill="none" stroke="#757575" d="M1755.05,-411.096C1810.66,-436.221 1949.2,-495.431 2072,-520.5 2368.67,-581.064 2731.36,-581.835 2887.03,-578.779"/>
<polygon fill="#757575" stroke="#757575" points="2887.51,-582.27 2897.43,-578.563 2887.36,-575.271 2887.51,-582.27"/>
</g>
<!-- store/store.js -->
<g id="node3" class="node"><title>store/store.js</title>
<path fill="none" stroke="#c6c5fe" d="M2411.83,-392C2411.83,-392 2328.17,-392 2328.17,-392 2324.33,-392 2320.5,-388.167 2320.5,-384.333 2320.5,-384.333 2320.5,-376.667 2320.5,-376.667 2320.5,-372.833 2324.33,-369 2328.17,-369 2328.17,-369 2411.83,-369 2411.83,-369 2415.67,-369 2419.5,-372.833 2419.5,-376.667 2419.5,-376.667 2419.5,-384.333 2419.5,-384.333 2419.5,-388.167 2415.67,-392 2411.83,-392"/>
<text text-anchor="middle" x="2370" y="-376.8" font-family="Arial" font-size="14.00" fill="#c6c5fe">store/store.js</text>
</g>
<!-- actions/Core.js&#45;&gt;store/store.js -->
<g id="edge2" class="edge"><title>actions/Core.js&#45;&gt;store/store.js</title>
<path fill="none" stroke="#757575" d="M1784.63,-398.374C1880.35,-396.327 2084.58,-391.638 2257,-385.5 2274.24,-384.886 2292.96,-384.099 2310.07,-383.331"/>
<polygon fill="#757575" stroke="#757575" points="2310.66,-386.807 2320.49,-382.857 2310.35,-379.815 2310.66,-386.807"/>
</g>
<!-- reducers/root.js -->
<g id="node30" class="node"><title>reducers/root.js</title>
<path fill="none" stroke="#c6c5fe" d="M2601.33,-392C2601.33,-392 2500.67,-392 2500.67,-392 2496.83,-392 2493,-388.167 2493,-384.333 2493,-384.333 2493,-376.667 2493,-376.667 2493,-372.833 2496.83,-369 2500.67,-369 2500.67,-369 2601.33,-369 2601.33,-369 2605.17,-369 2609,-372.833 2609,-376.667 2609,-376.667 2609,-384.333 2609,-384.333 2609,-388.167 2605.17,-392 2601.33,-392"/>
<text text-anchor="middle" x="2551" y="-376.8" font-family="Arial" font-size="14.00" fill="#c6c5fe">reducers/root.js</text>
</g>
<!-- store/store.js&#45;&gt;reducers/root.js -->
<g id="edge76" class="edge"><title>store/store.js&#45;&gt;reducers/root.js</title>
<path fill="none" stroke="#757575" d="M2419.91,-380.5C2439.31,-380.5 2461.92,-380.5 2482.81,-380.5"/>
<polygon fill="#757575" stroke="#757575" points="2482.9,-384 2492.9,-380.5 2482.9,-377 2482.9,-384"/>
</g>
<!-- actions/Engine.js -->
<g id="node4" class="node"><title>actions/Engine.js</title>
<path fill="none" stroke="#c6c5fe" d="M987.833,-220C987.833,-220 879.167,-220 879.167,-220 875.333,-220 871.5,-216.167 871.5,-212.333 871.5,-212.333 871.5,-204.667 871.5,-204.667 871.5,-200.833 875.333,-197 879.167,-197 879.167,-197 987.833,-197 987.833,-197 991.667,-197 995.5,-200.833 995.5,-204.667 995.5,-204.667 995.5,-212.333 995.5,-212.333 995.5,-216.167 991.667,-220 987.833,-220"/>
<text text-anchor="middle" x="933.5" y="-204.8" font-family="Arial" font-size="14.00" fill="#c6c5fe">actions/Engine.js</text>
</g>
<!-- scenes/sceneFunctions.js -->
<g id="node5" class="node"><title>scenes/sceneFunctions.js</title>
<path fill="none" stroke="#c6c5fe" d="M1237.33,-220C1237.33,-220 1070.67,-220 1070.67,-220 1066.83,-220 1063,-216.167 1063,-212.333 1063,-212.333 1063,-204.667 1063,-204.667 1063,-200.833 1066.83,-197 1070.67,-197 1070.67,-197 1237.33,-197 1237.33,-197 1241.17,-197 1245,-200.833 1245,-204.667 1245,-204.667 1245,-212.333 1245,-212.333 1245,-216.167 1241.17,-220 1237.33,-220"/>
<text text-anchor="middle" x="1154" y="-204.8" font-family="Arial" font-size="14.00" fill="#c6c5fe">scenes/sceneFunctions.js</text>
</g>
<!-- actions/Engine.js&#45;&gt;scenes/sceneFunctions.js -->
<g id="edge3" class="edge"><title>actions/Engine.js&#45;&gt;scenes/sceneFunctions.js</title>
<path fill="none" stroke="#757575" d="M995.655,-208.5C1013.39,-208.5 1033.25,-208.5 1052.72,-208.5"/>
<polygon fill="#757575" stroke="#757575" points="1052.85,-212 1062.85,-208.5 1052.85,-205 1052.85,-212"/>
</g>
<!-- scenes/sceneFunctions.js&#45;&gt;actions/Core.js -->
<g id="edge58" class="edge"><title>scenes/sceneFunctions.js&#45;&gt;actions/Core.js</title>
<path fill="none" stroke="#757575" d="M1245.24,-203.693C1302.79,-203.233 1378.27,-207.522 1442,-227.5 1550.55,-261.53 1660.83,-344.539 1706.33,-381.377"/>
<polygon fill="#757575" stroke="#757575" points="1704.35,-384.276 1714.3,-387.899 1708.78,-378.858 1704.35,-384.276"/>
</g>
<!-- scenes/sceneFunctions.js&#45;&gt;store/store.js -->
<g id="edge63" class="edge"><title>scenes/sceneFunctions.js&#45;&gt;store/store.js</title>
<path fill="none" stroke="#757575" d="M1209.05,-196.975C1220.96,-194.134 1233.46,-190.917 1245,-187.5 1261.31,-182.67 1264.59,-178.99 1281,-174.5 1393.58,-143.693 1422.28,-125.5 1539,-125.5 1539,-125.5 1539,-125.5 1947,-125.5 2129.31,-125.5 2300.36,-302.001 2352.7,-361.319"/>
<polygon fill="#757575" stroke="#757575" points="2350.08,-363.638 2359.29,-368.881 2355.36,-359.041 2350.08,-363.638"/>
</g>
<!-- scenes/charCreation.js -->
<g id="node37" class="node"><title>scenes/charCreation.js</title>
<path fill="none" stroke="#c6c5fe" d="M1434.33,-552C1434.33,-552 1288.67,-552 1288.67,-552 1284.83,-552 1281,-548.167 1281,-544.333 1281,-544.333 1281,-536.667 1281,-536.667 1281,-532.833 1284.83,-529 1288.67,-529 1288.67,-529 1434.33,-529 1434.33,-529 1438.17,-529 1442,-532.833 1442,-536.667 1442,-536.667 1442,-544.333 1442,-544.333 1442,-548.167 1438.17,-552 1434.33,-552"/>
<text text-anchor="middle" x="1361.5" y="-536.8" font-family="Arial" font-size="14.00" fill="#c6c5fe">scenes/charCreation.js</text>
</g>
<!-- scenes/sceneFunctions.js&#45;&gt;scenes/charCreation.js -->
<g id="edge59" class="edge"><title>scenes/sceneFunctions.js&#45;&gt;scenes/charCreation.js</title>
<path fill="none" stroke="#757575" d="M1162.31,-220.316C1192.71,-269.429 1309.29,-457.77 1347.96,-520.236"/>
<polygon fill="#757575" stroke="#757575" points="1345.03,-522.165 1353.27,-528.826 1350.99,-518.48 1345.03,-522.165"/>
</g>
<!-- scenes/menus.js -->
<g id="node38" class="node"><title>scenes/menus.js</title>
<path fill="none" stroke="#c6c5fe" d="M1594.33,-180C1594.33,-180 1485.67,-180 1485.67,-180 1481.83,-180 1478,-176.167 1478,-172.333 1478,-172.333 1478,-164.667 1478,-164.667 1478,-160.833 1481.83,-157 1485.67,-157 1485.67,-157 1594.33,-157 1594.33,-157 1598.17,-157 1602,-160.833 1602,-164.667 1602,-164.667 1602,-172.333 1602,-172.333 1602,-176.167 1598.17,-180 1594.33,-180"/>
<text text-anchor="middle" x="1540" y="-164.8" font-family="Arial" font-size="14.00" fill="#c6c5fe">scenes/menus.js</text>
</g>
<!-- scenes/sceneFunctions.js&#45;&gt;scenes/menus.js -->
<g id="edge60" class="edge"><title>scenes/sceneFunctions.js&#45;&gt;scenes/menus.js</title>
<path fill="none" stroke="#757575" d="M1245.15,-198.37C1257.2,-197.049 1269.4,-195.729 1281,-194.5 1344.16,-187.808 1416.07,-180.595 1467.9,-175.468"/>
<polygon fill="#757575" stroke="#757575" points="1468.38,-178.937 1477.99,-174.471 1467.7,-171.971 1468.38,-178.937"/>
</g>
<!-- scenes/sceneSymbols.js -->
<g id="node39" class="node"><title>scenes/sceneSymbols.js</title>
<path fill="none" stroke="#cfffac" d="M3045.33,-23C3045.33,-23 2884.67,-23 2884.67,-23 2880.83,-23 2877,-19.1667 2877,-15.3333 2877,-15.3333 2877,-7.66667 2877,-7.66667 2877,-3.83333 2880.83,-0 2884.67,-0 2884.67,-0 3045.33,-0 3045.33,-0 3049.17,-0 3053,-3.83333 3053,-7.66667 3053,-7.66667 3053,-15.3333 3053,-15.3333 3053,-19.1667 3049.17,-23 3045.33,-23"/>
<text text-anchor="middle" x="2965" y="-7.8" font-family="Arial" font-size="14.00" fill="#cfffac">scenes/sceneSymbols.js</text>
</g>
<!-- scenes/sceneFunctions.js&#45;&gt;scenes/sceneSymbols.js -->
<g id="edge61" class="edge"><title>scenes/sceneFunctions.js&#45;&gt;scenes/sceneSymbols.js</title>
<path fill="none" stroke="#757575" d="M1227.99,-196.91C1234.03,-194.359 1239.8,-191.261 1245,-187.5 1269.89,-169.5 1256.9,-147.548 1281,-128.5 1375.61,-53.7238 1418.41,-44.5 1539,-44.5 1539,-44.5 1539,-44.5 1730,-44.5 2014.38,-44.5 2084.62,-11.5 2369,-11.5 2369,-11.5 2369,-11.5 2552,-11.5 2659.63,-11.5 2783.08,-11.5 2866.56,-11.5"/>
<polygon fill="#757575" stroke="#757575" points="2866.79,-15.0001 2876.79,-11.5 2866.79,-8.0001 2866.79,-15.0001"/>
</g>
<!-- scenes/tests/testing.js -->
<g id="node43" class="node"><title>scenes/tests/testing.js</title>
<path fill="none" stroke="#cfffac" d="M1432.83,-260C1432.83,-260 1290.17,-260 1290.17,-260 1286.33,-260 1282.5,-256.167 1282.5,-252.333 1282.5,-252.333 1282.5,-244.667 1282.5,-244.667 1282.5,-240.833 1286.33,-237 1290.17,-237 1290.17,-237 1432.83,-237 1432.83,-237 1436.67,-237 1440.5,-240.833 1440.5,-244.667 1440.5,-244.667 1440.5,-252.333 1440.5,-252.333 1440.5,-256.167 1436.67,-260 1432.83,-260"/>
<text text-anchor="middle" x="1361.5" y="-244.8" font-family="Arial" font-size="14.00" fill="#cfffac">scenes/tests/testing.js</text>
</g>
<!-- scenes/sceneFunctions.js&#45;&gt;scenes/tests/testing.js -->
<g id="edge62" class="edge"><title>scenes/sceneFunctions.js&#45;&gt;scenes/tests/testing.js</title>
<path fill="none" stroke="#757575" d="M1214.16,-220.016C1238.34,-224.723 1266.48,-230.199 1291.58,-235.085"/>
<polygon fill="#757575" stroke="#757575" points="1290.91,-238.521 1301.4,-236.996 1292.25,-231.65 1290.91,-238.521"/>
</g>
<!-- actions/Player.js -->
<g id="node6" class="node"><title>actions/Player.js</title>
<path fill="none" stroke="#c6c5fe" d="M2216.33,-512C2216.33,-512 2112.67,-512 2112.67,-512 2108.83,-512 2105,-508.167 2105,-504.333 2105,-504.333 2105,-496.667 2105,-496.667 2105,-492.833 2108.83,-489 2112.67,-489 2112.67,-489 2216.33,-489 2216.33,-489 2220.17,-489 2224,-492.833 2224,-496.667 2224,-496.667 2224,-504.333 2224,-504.333 2224,-508.167 2220.17,-512 2216.33,-512"/>
<text text-anchor="middle" x="2164.5" y="-496.8" font-family="Arial" font-size="14.00" fill="#c6c5fe">actions/Player.js</text>
</g>
<!-- actions/Player.js&#45;&gt;store/store.js -->
<g id="edge5" class="edge"><title>actions/Player.js&#45;&gt;store/store.js</title>
<path fill="none" stroke="#757575" d="M2185.01,-488.994C2221.16,-467.68 2298.66,-421.979 2340.62,-397.237"/>
<polygon fill="#757575" stroke="#757575" points="2342.41,-400.242 2349.25,-392.148 2338.86,-394.212 2342.41,-400.242"/>
</g>
<!-- actions/playerMsg.js -->
<g id="node7" class="node"><title>actions/playerMsg.js</title>
<path fill="none" stroke="#cfffac" d="M3029.83,-508C3029.83,-508 2900.17,-508 2900.17,-508 2896.33,-508 2892.5,-504.167 2892.5,-500.333 2892.5,-500.333 2892.5,-492.667 2892.5,-492.667 2892.5,-488.833 2896.33,-485 2900.17,-485 2900.17,-485 3029.83,-485 3029.83,-485 3033.67,-485 3037.5,-488.833 3037.5,-492.667 3037.5,-492.667 3037.5,-500.333 3037.5,-500.333 3037.5,-504.167 3033.67,-508 3029.83,-508"/>
<text text-anchor="middle" x="2965" y="-492.8" font-family="Arial" font-size="14.00" fill="#cfffac">actions/playerMsg.js</text>
</g>
<!-- actions/Player.js&#45;&gt;actions/playerMsg.js -->
<g id="edge4" class="edge"><title>actions/Player.js&#45;&gt;actions/playerMsg.js</title>
<path fill="none" stroke="#757575" d="M2223.01,-488.982C2244.83,-485.151 2269.97,-481.384 2293,-479.5 2535.74,-459.643 2598.02,-462.788 2841,-479.5 2854.59,-480.434 2868.95,-481.943 2882.89,-483.685"/>
<polygon fill="#757575" stroke="#757575" points="2882.58,-487.174 2892.95,-484.99 2883.49,-480.232 2882.58,-487.174"/>
</g>
<!-- symbols/breastCup.js -->
<g id="node8" class="node"><title>symbols/breastCup.js</title>
<path fill="none" stroke="#c6c5fe" d="M2439.33,-671C2439.33,-671 2300.67,-671 2300.67,-671 2296.83,-671 2293,-667.167 2293,-663.333 2293,-663.333 2293,-655.667 2293,-655.667 2293,-651.833 2296.83,-648 2300.67,-648 2300.67,-648 2439.33,-648 2439.33,-648 2443.17,-648 2447,-651.833 2447,-655.667 2447,-655.667 2447,-663.333 2447,-663.333 2447,-667.167 2443.17,-671 2439.33,-671"/>
<text text-anchor="middle" x="2370" y="-655.8" font-family="Arial" font-size="14.00" fill="#c6c5fe">symbols/breastCup.js</text>
</g>
<!-- actions/Player.js&#45;&gt;symbols/breastCup.js -->
<g id="edge6" class="edge"><title>actions/Player.js&#45;&gt;symbols/breastCup.js</title>
<path fill="none" stroke="#757575" d="M2176.62,-512.021C2193.98,-530.064 2228.48,-566.169 2257,-597.5 2273.32,-615.434 2272.45,-625.621 2293,-638.5 2296.2,-640.508 2299.6,-642.328 2303.11,-643.976"/>
<polygon fill="#757575" stroke="#757575" points="2302.05,-647.323 2312.62,-647.95 2304.75,-640.865 2302.05,-647.323"/>
</g>
<!-- symbols/cockType.js -->
<g id="node9" class="node"><title>symbols/cockType.js</title>
<path fill="none" stroke="#cfffac" d="M2437.33,-512C2437.33,-512 2302.67,-512 2302.67,-512 2298.83,-512 2295,-508.167 2295,-504.333 2295,-504.333 2295,-496.667 2295,-496.667 2295,-492.833 2298.83,-489 2302.67,-489 2302.67,-489 2437.33,-489 2437.33,-489 2441.17,-489 2445,-492.833 2445,-496.667 2445,-496.667 2445,-504.333 2445,-504.333 2445,-508.167 2441.17,-512 2437.33,-512"/>
<text text-anchor="middle" x="2370" y="-496.8" font-family="Arial" font-size="14.00" fill="#cfffac">symbols/cockType.js</text>
</g>
<!-- actions/Player.js&#45;&gt;symbols/cockType.js -->
<g id="edge7" class="edge"><title>actions/Player.js&#45;&gt;symbols/cockType.js</title>
<path fill="none" stroke="#757575" d="M2224.09,-500.5C2242.97,-500.5 2264.29,-500.5 2284.65,-500.5"/>
<polygon fill="#757575" stroke="#757575" points="2284.87,-504 2294.87,-500.5 2284.87,-497 2284.87,-504"/>
</g>
<!-- symbols/vaginas.js -->
<g id="node10" class="node"><title>symbols/vaginas.js</title>
<path fill="none" stroke="#c6c5fe" d="M2611.33,-647C2611.33,-647 2490.67,-647 2490.67,-647 2486.83,-647 2483,-643.167 2483,-639.333 2483,-639.333 2483,-631.667 2483,-631.667 2483,-627.833 2486.83,-624 2490.67,-624 2490.67,-624 2611.33,-624 2611.33,-624 2615.17,-624 2619,-627.833 2619,-631.667 2619,-631.667 2619,-639.333 2619,-639.333 2619,-643.167 2615.17,-647 2611.33,-647"/>
<text text-anchor="middle" x="2551" y="-631.8" font-family="Arial" font-size="14.00" fill="#c6c5fe">symbols/vaginas.js</text>
</g>
<!-- actions/Player.js&#45;&gt;symbols/vaginas.js -->
<g id="edge8" class="edge"><title>actions/Player.js&#45;&gt;symbols/vaginas.js</title>
<path fill="none" stroke="#757575" d="M2199.82,-512.058C2252.92,-530.004 2358.15,-565.805 2447,-597.5 2467.64,-604.862 2490.51,-613.275 2509.45,-620.31"/>
<polygon fill="#757575" stroke="#757575" points="2508.37,-623.643 2518.96,-623.851 2510.81,-617.083 2508.37,-623.643"/>
</g>
<!-- utils.js -->
<g id="node36" class="node"><title>utils.js</title>
<path fill="none" stroke="#cfffac" d="M3170.83,-468C3170.83,-468 3130.17,-468 3130.17,-468 3126.33,-468 3122.5,-464.167 3122.5,-460.333 3122.5,-460.333 3122.5,-452.667 3122.5,-452.667 3122.5,-448.833 3126.33,-445 3130.17,-445 3130.17,-445 3170.83,-445 3170.83,-445 3174.67,-445 3178.5,-448.833 3178.5,-452.667 3178.5,-452.667 3178.5,-460.333 3178.5,-460.333 3178.5,-464.167 3174.67,-468 3170.83,-468"/>
<text text-anchor="middle" x="3150.5" y="-452.8" font-family="Arial" font-size="14.00" fill="#cfffac">utils.js</text>
</g>
<!-- symbols/breastCup.js&#45;&gt;utils.js -->
<g id="edge77" class="edge"><title>symbols/breastCup.js&#45;&gt;utils.js</title>
<path fill="none" stroke="#757575" d="M2421.32,-671.03C2440.56,-675.242 2462.74,-679.862 2483,-683.5 2607.69,-705.896 2950.44,-767.868 3053,-693.5 3124.75,-641.471 3143.28,-526.597 3147.96,-478.43"/>
<polygon fill="#757575" stroke="#757575" points="3151.47,-478.461 3148.84,-468.198 3144.49,-477.862 3151.47,-478.461"/>
</g>
<!-- symbols/vaginas.js&#45;&gt;utils.js -->
<g id="edge88" class="edge"><title>symbols/vaginas.js&#45;&gt;utils.js</title>
<path fill="none" stroke="#757575" d="M2595.35,-647.082C2687.2,-669.01 2905.07,-706.993 3053,-619.5 3106.33,-587.96 3133.43,-514.56 3144.02,-477.996"/>
<polygon fill="#757575" stroke="#757575" points="3147.41,-478.891 3146.69,-468.32 3140.66,-477.032 3147.41,-478.891"/>
</g>
<!-- actions/engineMsg.js -->
<g id="node11" class="node"><title>actions/engineMsg.js</title>
<path fill="none" stroke="#cfffac" d="M3389.33,-103C3389.33,-103 3255.67,-103 3255.67,-103 3251.83,-103 3248,-99.1667 3248,-95.3333 3248,-95.3333 3248,-87.6667 3248,-87.6667 3248,-83.8333 3251.83,-80 3255.67,-80 3255.67,-80 3389.33,-80 3389.33,-80 3393.17,-80 3397,-83.8333 3397,-87.6667 3397,-87.6667 3397,-95.3333 3397,-95.3333 3397,-99.1667 3393.17,-103 3389.33,-103"/>
<text text-anchor="middle" x="3322.5" y="-87.8" font-family="Arial" font-size="14.00" fill="#cfffac">actions/engineMsg.js</text>
</g>
<!-- appearance/appearance.js -->
<g id="node12" class="node"><title>appearance/appearance.js</title>
<path fill="none" stroke="#c6c5fe" d="M2249.33,-630C2249.33,-630 2079.67,-630 2079.67,-630 2075.83,-630 2072,-626.167 2072,-622.333 2072,-622.333 2072,-614.667 2072,-614.667 2072,-610.833 2075.83,-607 2079.67,-607 2079.67,-607 2249.33,-607 2249.33,-607 2253.17,-607 2257,-610.833 2257,-614.667 2257,-614.667 2257,-622.333 2257,-622.333 2257,-626.167 2253.17,-630 2249.33,-630"/>
<text text-anchor="middle" x="2164.5" y="-614.8" font-family="Arial" font-size="14.00" fill="#c6c5fe">appearance/appearance.js</text>
</g>
<!-- appearance/appearance.js&#45;&gt;store/store.js -->
<g id="edge9" class="edge"><title>appearance/appearance.js&#45;&gt;store/store.js</title>
<path fill="none" stroke="#757575" d="M2176.78,-606.999C2194.35,-588.955 2229.14,-552.722 2257,-520.5 2293.01,-478.858 2332.72,-427.933 2353.83,-400.427"/>
<polygon fill="#757575" stroke="#757575" points="2356.7,-402.43 2360,-392.361 2351.15,-398.176 2356.7,-402.43"/>
</g>
<!-- appearance/appearance.js&#45;&gt;symbols/breastCup.js -->
<g id="edge10" class="edge"><title>appearance/appearance.js&#45;&gt;symbols/breastCup.js</title>
<path fill="none" stroke="#757575" d="M2222.73,-630.03C2247.32,-634.985 2276.24,-640.812 2301.85,-645.97"/>
<polygon fill="#757575" stroke="#757575" points="2301.36,-649.442 2311.85,-647.986 2302.74,-642.579 2301.36,-649.442"/>
</g>
<!-- symbols/gender.js -->
<g id="node13" class="node"><title>symbols/gender.js</title>
<path fill="none" stroke="#c6c5fe" d="M2428.83,-630C2428.83,-630 2311.17,-630 2311.17,-630 2307.33,-630 2303.5,-626.167 2303.5,-622.333 2303.5,-622.333 2303.5,-614.667 2303.5,-614.667 2303.5,-610.833 2307.33,-607 2311.17,-607 2311.17,-607 2428.83,-607 2428.83,-607 2432.67,-607 2436.5,-610.833 2436.5,-614.667 2436.5,-614.667 2436.5,-622.333 2436.5,-622.333 2436.5,-626.167 2432.67,-630 2428.83,-630"/>
<text text-anchor="middle" x="2370" y="-614.8" font-family="Arial" font-size="14.00" fill="#c6c5fe">symbols/gender.js</text>
</g>
<!-- appearance/appearance.js&#45;&gt;symbols/gender.js -->
<g id="edge11" class="edge"><title>appearance/appearance.js&#45;&gt;symbols/gender.js</title>
<path fill="none" stroke="#757575" d="M2257.13,-618.5C2269.21,-618.5 2281.47,-618.5 2293.24,-618.5"/>
<polygon fill="#757575" stroke="#757575" points="2293.44,-622 2303.44,-618.5 2293.44,-615 2293.44,-622"/>
</g>
<!-- symbols/gender.js&#45;&gt;utils.js -->
<g id="edge81" class="edge"><title>symbols/gender.js&#45;&gt;utils.js</title>
<path fill="none" stroke="#757575" d="M2420.47,-630.105C2429.39,-632.597 2438.54,-635.419 2447,-638.5 2463.63,-644.555 2466.03,-650.49 2483,-655.5 2604.49,-691.364 2949.05,-731.88 3053,-659.5 3115.46,-616.015 3138.76,-520.972 3146.31,-478.163"/>
<polygon fill="#757575" stroke="#757575" points="3149.78,-478.675 3147.94,-468.24 3142.87,-477.54 3149.78,-478.675"/>
</g>
<!-- components/appRoot.js -->
<g id="node14" class="node"><title>components/appRoot.js</title>
<path fill="none" stroke="#c6c5fe" d="M334.333,-99C334.333,-99 181.667,-99 181.667,-99 177.833,-99 174,-95.1667 174,-91.3333 174,-91.3333 174,-83.6667 174,-83.6667 174,-79.8333 177.833,-76 181.667,-76 181.667,-76 334.333,-76 334.333,-76 338.167,-76 342,-79.8333 342,-83.6667 342,-83.6667 342,-91.3333 342,-91.3333 342,-95.1667 338.167,-99 334.333,-99"/>
<text text-anchor="middle" x="258" y="-83.8" font-family="Arial" font-size="14.00" fill="#c6c5fe">components/appRoot.js</text>
</g>
<!-- components/lowerButtons.js -->
<g id="node15" class="node"><title>components/lowerButtons.js</title>
<path fill="none" stroke="#c6c5fe" d="M565.333,-140C565.333,-140 385.667,-140 385.667,-140 381.833,-140 378,-136.167 378,-132.333 378,-132.333 378,-124.667 378,-124.667 378,-120.833 381.833,-117 385.667,-117 385.667,-117 565.333,-117 565.333,-117 569.167,-117 573,-120.833 573,-124.667 573,-124.667 573,-132.333 573,-132.333 573,-136.167 569.167,-140 565.333,-140"/>
<text text-anchor="middle" x="475.5" y="-124.8" font-family="Arial" font-size="14.00" fill="#c6c5fe">components/lowerButtons.js</text>
</g>
<!-- components/appRoot.js&#45;&gt;components/lowerButtons.js -->
<g id="edge12" class="edge"><title>components/appRoot.js&#45;&gt;components/lowerButtons.js</title>
<path fill="none" stroke="#757575" d="M319.602,-99.0299C345.88,-104.029 376.817,-109.915 404.106,-115.107"/>
<polygon fill="#757575" stroke="#757575" points="403.502,-118.555 413.98,-116.986 404.81,-111.678 403.502,-118.555"/>
</g>
<!-- components/menuBar.js -->
<g id="node16" class="node"><title>components/menuBar.js</title>
<path fill="none" stroke="#c6c5fe" d="M552.833,-181C552.833,-181 398.167,-181 398.167,-181 394.333,-181 390.5,-177.167 390.5,-173.333 390.5,-173.333 390.5,-165.667 390.5,-165.667 390.5,-161.833 394.333,-158 398.167,-158 398.167,-158 552.833,-158 552.833,-158 556.667,-158 560.5,-161.833 560.5,-165.667 560.5,-165.667 560.5,-173.333 560.5,-173.333 560.5,-177.167 556.667,-181 552.833,-181"/>
<text text-anchor="middle" x="475.5" y="-165.8" font-family="Arial" font-size="14.00" fill="#c6c5fe">components/menuBar.js</text>
</g>
<!-- components/appRoot.js&#45;&gt;components/menuBar.js -->
<g id="edge13" class="edge"><title>components/appRoot.js&#45;&gt;components/menuBar.js</title>
<path fill="none" stroke="#757575" d="M277.687,-99.0209C300.56,-112.658 340.845,-135.19 378,-148.5 385.207,-151.082 392.835,-153.401 400.519,-155.472"/>
<polygon fill="#757575" stroke="#757575" points="399.698,-158.875 410.253,-157.963 401.433,-152.094 399.698,-158.875"/>
</g>
<!-- components/output.js -->
<g id="node17" class="node"><title>components/output.js</title>
<path fill="none" stroke="#cfffac" d="M543.833,-58C543.833,-58 407.167,-58 407.167,-58 403.333,-58 399.5,-54.1667 399.5,-50.3333 399.5,-50.3333 399.5,-42.6667 399.5,-42.6667 399.5,-38.8333 403.333,-35 407.167,-35 407.167,-35 543.833,-35 543.833,-35 547.667,-35 551.5,-38.8333 551.5,-42.6667 551.5,-42.6667 551.5,-50.3333 551.5,-50.3333 551.5,-54.1667 547.667,-58 543.833,-58"/>
<text text-anchor="middle" x="475.5" y="-42.8" font-family="Arial" font-size="14.00" fill="#cfffac">components/output.js</text>
</g>
<!-- components/appRoot.js&#45;&gt;components/output.js -->
<g id="edge14" class="edge"><title>components/appRoot.js&#45;&gt;components/output.js</title>
<path fill="none" stroke="#757575" d="M319.602,-75.9701C345.88,-70.9707 376.817,-65.0847 404.106,-59.8928"/>
<polygon fill="#757575" stroke="#757575" points="404.81,-63.3218 413.98,-58.0143 403.502,-56.4451 404.81,-63.3218"/>
</g>
<!-- components/statBar.js -->
<g id="node18" class="node"><title>components/statBar.js</title>
<path fill="none" stroke="#c6c5fe" d="M546.833,-99C546.833,-99 404.167,-99 404.167,-99 400.333,-99 396.5,-95.1667 396.5,-91.3333 396.5,-91.3333 396.5,-83.6667 396.5,-83.6667 396.5,-79.8333 400.333,-76 404.167,-76 404.167,-76 546.833,-76 546.833,-76 550.667,-76 554.5,-79.8333 554.5,-83.6667 554.5,-83.6667 554.5,-91.3333 554.5,-91.3333 554.5,-95.1667 550.667,-99 546.833,-99"/>
<text text-anchor="middle" x="475.5" y="-83.8" font-family="Arial" font-size="14.00" fill="#c6c5fe">components/statBar.js</text>
</g>
<!-- components/appRoot.js&#45;&gt;components/statBar.js -->
<g id="edge15" class="edge"><title>components/appRoot.js&#45;&gt;components/statBar.js</title>
<path fill="none" stroke="#757575" d="M342.01,-87.5C356.557,-87.5 371.739,-87.5 386.418,-87.5"/>
<polygon fill="#757575" stroke="#757575" points="386.486,-91.0001 396.486,-87.5 386.486,-84.0001 386.486,-91.0001"/>
</g>
<!-- components/buttonGrid.js -->
<g id="node20" class="node"><title>components/buttonGrid.js</title>
<path fill="none" stroke="#c6c5fe" d="M788.333,-181C788.333,-181 624.667,-181 624.667,-181 620.833,-181 617,-177.167 617,-173.333 617,-173.333 617,-165.667 617,-165.667 617,-161.833 620.833,-158 624.667,-158 624.667,-158 788.333,-158 788.333,-158 792.167,-158 796,-161.833 796,-165.667 796,-165.667 796,-173.333 796,-173.333 796,-177.167 792.167,-181 788.333,-181"/>
<text text-anchor="middle" x="706.5" y="-165.8" font-family="Arial" font-size="14.00" fill="#c6c5fe">components/buttonGrid.js</text>
</g>
<!-- components/lowerButtons.js&#45;&gt;components/buttonGrid.js -->
<g id="edge21" class="edge"><title>components/lowerButtons.js&#45;&gt;components/buttonGrid.js</title>
<path fill="none" stroke="#757575" d="M540.899,-140.03C568.945,-145.051 601.986,-150.967 631.078,-156.175"/>
<polygon fill="#757575" stroke="#757575" points="630.728,-159.668 641.188,-157.986 631.962,-152.778 630.728,-159.668"/>
</g>
<!-- components/menuBar.js&#45;&gt;components/buttonGrid.js -->
<g id="edge22" class="edge"><title>components/menuBar.js&#45;&gt;components/buttonGrid.js</title>
<path fill="none" stroke="#757575" d="M560.796,-169.5C575.613,-169.5 591.157,-169.5 606.335,-169.5"/>
<polygon fill="#757575" stroke="#757575" points="606.771,-173 616.771,-169.5 606.771,-166 606.771,-173"/>
</g>
<!-- components/spriteDisplay.js -->
<g id="node25" class="node"><title>components/spriteDisplay.js</title>
<path fill="none" stroke="#cfffac" d="M796.333,-58C796.333,-58 616.667,-58 616.667,-58 612.833,-58 609,-54.1667 609,-50.3333 609,-50.3333 609,-42.6667 609,-42.6667 609,-38.8333 612.833,-35 616.667,-35 616.667,-35 796.333,-35 796.333,-35 800.167,-35 804,-38.8333 804,-42.6667 804,-42.6667 804,-50.3333 804,-50.3333 804,-54.1667 800.167,-58 796.333,-58"/>
<text text-anchor="middle" x="706.5" y="-42.8" font-family="Arial" font-size="14.00" fill="#cfffac">components/spriteDisplay.js</text>
</g>
<!-- components/statBar.js&#45;&gt;components/spriteDisplay.js -->
<g id="edge25" class="edge"><title>components/statBar.js&#45;&gt;components/spriteDisplay.js</title>
<path fill="none" stroke="#757575" d="M540.899,-75.9701C568.945,-70.9488 601.986,-65.033 631.078,-59.8245"/>
<polygon fill="#757575" stroke="#757575" points="631.962,-63.222 641.188,-58.0143 630.728,-56.3316 631.962,-63.222"/>
</g>
<!-- components/statDisplay.js -->
<g id="node27" class="node"><title>components/statDisplay.js</title>
<path fill="none" stroke="#c6c5fe" d="M789.833,-140C789.833,-140 623.167,-140 623.167,-140 619.333,-140 615.5,-136.167 615.5,-132.333 615.5,-132.333 615.5,-124.667 615.5,-124.667 615.5,-120.833 619.333,-117 623.167,-117 623.167,-117 789.833,-117 789.833,-117 793.667,-117 797.5,-120.833 797.5,-124.667 797.5,-124.667 797.5,-132.333 797.5,-132.333 797.5,-136.167 793.667,-140 789.833,-140"/>
<text text-anchor="middle" x="706.5" y="-124.8" font-family="Arial" font-size="14.00" fill="#c6c5fe">components/statDisplay.js</text>
</g>
<!-- components/statBar.js&#45;&gt;components/statDisplay.js -->
<g id="edge26" class="edge"><title>components/statBar.js&#45;&gt;components/statDisplay.js</title>
<path fill="none" stroke="#757575" d="M540.899,-99.0299C568.945,-104.051 601.986,-109.967 631.078,-115.175"/>
<polygon fill="#757575" stroke="#757575" points="630.728,-118.668 641.188,-116.986 631.962,-111.778 630.728,-118.668"/>
</g>
<!-- components/timeDisplay.js -->
<g id="node28" class="node"><title>components/timeDisplay.js</title>
<path fill="none" stroke="#cfffac" d="M792.333,-99C792.333,-99 620.667,-99 620.667,-99 616.833,-99 613,-95.1667 613,-91.3333 613,-91.3333 613,-83.6667 613,-83.6667 613,-79.8333 616.833,-76 620.667,-76 620.667,-76 792.333,-76 792.333,-76 796.167,-76 800,-79.8333 800,-83.6667 800,-83.6667 800,-91.3333 800,-91.3333 800,-95.1667 796.167,-99 792.333,-99"/>
<text text-anchor="middle" x="706.5" y="-83.8" font-family="Arial" font-size="14.00" fill="#cfffac">components/timeDisplay.js</text>
</g>
<!-- components/statBar.js&#45;&gt;components/timeDisplay.js -->
<g id="edge27" class="edge"><title>components/statBar.js&#45;&gt;components/timeDisplay.js</title>
<path fill="none" stroke="#757575" d="M554.668,-87.5C569.974,-87.5 586.245,-87.5 602.223,-87.5"/>
<polygon fill="#757575" stroke="#757575" points="602.666,-91.0001 612.666,-87.5 602.666,-84.0001 602.666,-91.0001"/>
</g>
<!-- components/button.js -->
<g id="node19" class="node"><title>components/button.js</title>
<path fill="none" stroke="#cfffac" d="M1222.33,-179C1222.33,-179 1085.67,-179 1085.67,-179 1081.83,-179 1078,-175.167 1078,-171.333 1078,-171.333 1078,-163.667 1078,-163.667 1078,-159.833 1081.83,-156 1085.67,-156 1085.67,-156 1222.33,-156 1222.33,-156 1226.17,-156 1230,-159.833 1230,-163.667 1230,-163.667 1230,-171.333 1230,-171.333 1230,-175.167 1226.17,-179 1222.33,-179"/>
<text text-anchor="middle" x="1154" y="-163.8" font-family="Arial" font-size="14.00" fill="#cfffac">components/button.js</text>
</g>
<!-- components/buttonGrid.js&#45;&gt;actions/Engine.js -->
<g id="edge16" class="edge"><title>components/buttonGrid.js&#45;&gt;actions/Engine.js</title>
<path fill="none" stroke="#757575" d="M774.094,-181.043C801.562,-185.804 833.437,-191.329 861.361,-196.169"/>
<polygon fill="#757575" stroke="#757575" points="861.004,-199.66 871.455,-197.919 862.2,-192.762 861.004,-199.66"/>
</g>
<!-- components/buttonWrap.js -->
<g id="node21" class="node"><title>components/buttonWrap.js</title>
<path fill="none" stroke="#c6c5fe" d="M1019.33,-179C1019.33,-179 847.667,-179 847.667,-179 843.833,-179 840,-175.167 840,-171.333 840,-171.333 840,-163.667 840,-163.667 840,-159.833 843.833,-156 847.667,-156 847.667,-156 1019.33,-156 1019.33,-156 1023.17,-156 1027,-159.833 1027,-163.667 1027,-163.667 1027,-171.333 1027,-171.333 1027,-175.167 1023.17,-179 1019.33,-179"/>
<text text-anchor="middle" x="933.5" y="-163.8" font-family="Arial" font-size="14.00" fill="#c6c5fe">components/buttonWrap.js</text>
</g>
<!-- components/buttonGrid.js&#45;&gt;components/buttonWrap.js -->
<g id="edge17" class="edge"><title>components/buttonGrid.js&#45;&gt;components/buttonWrap.js</title>
<path fill="none" stroke="#757575" d="M796.103,-168.712C807.119,-168.614 818.455,-168.514 829.663,-168.414"/>
<polygon fill="#757575" stroke="#757575" points="829.938,-171.912 839.906,-168.323 829.876,-164.912 829.938,-171.912"/>
</g>
<!-- components/buttonWrap.js&#45;&gt;components/button.js -->
<g id="edge18" class="edge"><title>components/buttonWrap.js&#45;&gt;components/button.js</title>
<path fill="none" stroke="#757575" d="M1027.16,-167.5C1040.6,-167.5 1054.39,-167.5 1067.67,-167.5"/>
<polygon fill="#757575" stroke="#757575" points="1067.72,-171 1077.72,-167.5 1067.72,-164 1067.72,-171"/>
</g>
<!-- components/dropdown.js -->
<g id="node22" class="node"><title>components/dropdown.js</title>
<path fill="none" stroke="#c6c5fe" d="M3045.33,-141C3045.33,-141 2884.67,-141 2884.67,-141 2880.83,-141 2877,-137.167 2877,-133.333 2877,-133.333 2877,-125.667 2877,-125.667 2877,-121.833 2880.83,-118 2884.67,-118 2884.67,-118 3045.33,-118 3045.33,-118 3049.17,-118 3053,-121.833 3053,-125.667 3053,-125.667 3053,-133.333 3053,-133.333 3053,-137.167 3049.17,-141 3045.33,-141"/>
<text text-anchor="middle" x="2965" y="-125.8" font-family="Arial" font-size="14.00" fill="#c6c5fe">components/dropdown.js</text>
</g>
<!-- components/dropdown.js&#45;&gt;actions/engineMsg.js -->
<g id="edge19" class="edge"><title>components/dropdown.js&#45;&gt;actions/engineMsg.js</title>
<path fill="none" stroke="#757575" d="M3053.04,-125.419C3100.2,-122.633 3159.43,-118.204 3212,-111.5 3225.88,-109.729 3240.67,-107.36 3254.75,-104.872"/>
<polygon fill="#757575" stroke="#757575" points="3255.63,-108.27 3264.85,-103.047 3254.39,-101.382 3255.63,-108.27"/>
</g>
<!-- symbols/perks.js -->
<g id="node23" class="node"><title>symbols/perks.js</title>
<path fill="none" stroke="#c6c5fe" d="M3204.33,-103C3204.33,-103 3096.67,-103 3096.67,-103 3092.83,-103 3089,-99.1667 3089,-95.3333 3089,-95.3333 3089,-87.6667 3089,-87.6667 3089,-83.8333 3092.83,-80 3096.67,-80 3096.67,-80 3204.33,-80 3204.33,-80 3208.17,-80 3212,-83.8333 3212,-87.6667 3212,-87.6667 3212,-95.3333 3212,-95.3333 3212,-99.1667 3208.17,-103 3204.33,-103"/>
<text text-anchor="middle" x="3150.5" y="-87.8" font-family="Arial" font-size="14.00" fill="#c6c5fe">symbols/perks.js</text>
</g>
<!-- components/dropdown.js&#45;&gt;symbols/perks.js -->
<g id="edge20" class="edge"><title>components/dropdown.js&#45;&gt;symbols/perks.js</title>
<path fill="none" stroke="#757575" d="M3021.55,-117.996C3041.23,-113.922 3063.54,-109.301 3083.96,-105.071"/>
<polygon fill="#757575" stroke="#757575" points="3084.74,-108.486 3093.82,-103.031 3083.32,-101.631 3084.74,-108.486"/>
</g>
<!-- symbols/perks.js&#45;&gt;actions/engineMsg.js -->
<g id="edge84" class="edge"><title>symbols/perks.js&#45;&gt;actions/engineMsg.js</title>
<path fill="none" stroke="#757575" d="M3212.39,-91.5C3220.68,-91.5 3229.3,-91.5 3237.9,-91.5"/>
<polygon fill="#757575" stroke="#757575" points="3237.96,-95.0001 3247.96,-91.5 3237.96,-88.0001 3237.96,-95.0001"/>
</g>
<!-- components/nameInput.js -->
<g id="node24" class="node"><title>components/nameInput.js</title>
<path fill="none" stroke="#c6c5fe" d="M2028.33,-371C2028.33,-371 1863.67,-371 1863.67,-371 1859.83,-371 1856,-367.167 1856,-363.333 1856,-363.333 1856,-355.667 1856,-355.667 1856,-351.833 1859.83,-348 1863.67,-348 1863.67,-348 2028.33,-348 2028.33,-348 2032.17,-348 2036,-351.833 2036,-355.667 2036,-355.667 2036,-363.333 2036,-363.333 2036,-367.167 2032.17,-371 2028.33,-371"/>
<text text-anchor="middle" x="1946" y="-355.8" font-family="Arial" font-size="14.00" fill="#c6c5fe">components/nameInput.js</text>
</g>
<!-- components/nameInput.js&#45;&gt;store/store.js -->
<g id="edge24" class="edge"><title>components/nameInput.js&#45;&gt;store/store.js</title>
<path fill="none" stroke="#757575" d="M2036.24,-363.941C2118.77,-368.048 2239.09,-374.035 2310.18,-377.573"/>
<polygon fill="#757575" stroke="#757575" points="2310.14,-381.075 2320.3,-378.076 2310.48,-374.084 2310.14,-381.075"/>
</g>
<!-- components/nameInput.js&#45;&gt;actions/Player.js -->
<g id="edge23" class="edge"><title>components/nameInput.js&#45;&gt;actions/Player.js</title>
<path fill="none" stroke="#757575" d="M1964.72,-371.039C2002.79,-395.836 2092.58,-454.314 2137.28,-483.422"/>
<polygon fill="#757575" stroke="#757575" points="2135.55,-486.475 2145.84,-489 2139.37,-480.609 2135.55,-486.475"/>
</g>
<!-- components/stat.js -->
<g id="node26" class="node"><title>components/stat.js</title>
<path fill="none" stroke="#cfffac" d="M993.833,-138C993.833,-138 873.167,-138 873.167,-138 869.333,-138 865.5,-134.167 865.5,-130.333 865.5,-130.333 865.5,-122.667 865.5,-122.667 865.5,-118.833 869.333,-115 873.167,-115 873.167,-115 993.833,-115 993.833,-115 997.667,-115 1001.5,-118.833 1001.5,-122.667 1001.5,-122.667 1001.5,-130.333 1001.5,-130.333 1001.5,-134.167 997.667,-138 993.833,-138"/>
<text text-anchor="middle" x="933.5" y="-122.8" font-family="Arial" font-size="14.00" fill="#cfffac">components/stat.js</text>
</g>
<!-- components/statDisplay.js&#45;&gt;components/stat.js -->
<g id="edge28" class="edge"><title>components/statDisplay.js&#45;&gt;components/stat.js</title>
<path fill="none" stroke="#757575" d="M797.72,-127.698C816.804,-127.528 836.779,-127.351 855.327,-127.186"/>
<polygon fill="#757575" stroke="#757575" points="855.503,-130.685 865.471,-127.096 855.44,-123.685 855.503,-130.685"/>
</g>
<!-- index.js -->
<g id="node29" class="node"><title>index.js</title>
<path fill="none" stroke="#c6c5fe" d="M93.8333,-58C93.8333,-58 44.1667,-58 44.1667,-58 40.3333,-58 36.5,-54.1667 36.5,-50.3333 36.5,-50.3333 36.5,-42.6667 36.5,-42.6667 36.5,-38.8333 40.3333,-35 44.1667,-35 44.1667,-35 93.8333,-35 93.8333,-35 97.6667,-35 101.5,-38.8333 101.5,-42.6667 101.5,-42.6667 101.5,-50.3333 101.5,-50.3333 101.5,-54.1667 97.6667,-58 93.8333,-58"/>
<text text-anchor="middle" x="69" y="-42.8" font-family="Arial" font-size="14.00" fill="#c6c5fe">index.js</text>
</g>
<!-- index.js&#45;&gt;store/store.js -->
<g id="edge30" class="edge"><title>index.js&#45;&gt;store/store.js</title>
<path fill="none" stroke="#757575" d="M101.622,-41.2296C169.631,-30.3678 334.951,-6.5 474.5,-6.5 474.5,-6.5 474.5,-6.5 1730,-6.5 1972.58,-6.5 2070.24,6.30443 2257,-148.5 2325.08,-204.928 2354.8,-312.564 2364.81,-358.663"/>
<polygon fill="#757575" stroke="#757575" points="2361.44,-359.663 2366.9,-368.747 2368.3,-358.246 2361.44,-359.663"/>
</g>
<!-- index.js&#45;&gt;components/appRoot.js -->
<g id="edge29" class="edge"><title>index.js&#45;&gt;components/appRoot.js</title>
<path fill="none" stroke="#757575" d="M101.722,-53.4551C127.015,-59.0007 163.226,-66.9399 194.317,-73.7567"/>
<polygon fill="#757575" stroke="#757575" points="193.694,-77.2032 204.212,-75.9261 195.193,-70.3656 193.694,-77.2032"/>
</g>
<!-- reducers/root.js&#45;&gt;actions/coreMsg.js -->
<g id="edge31" class="edge"><title>reducers/root.js&#45;&gt;actions/coreMsg.js</title>
<path fill="none" stroke="#757575" d="M2556.91,-392.252C2569.05,-419.72 2603.29,-488.231 2655,-520.5 2692.79,-544.083 2808.24,-560.376 2886.81,-569.078"/>
<polygon fill="#757575" stroke="#757575" points="2886.84,-572.601 2897.16,-570.204 2887.6,-565.642 2886.84,-572.601"/>
</g>
<!-- reducers/root.js&#45;&gt;actions/playerMsg.js -->
<g id="edge33" class="edge"><title>reducers/root.js&#45;&gt;actions/playerMsg.js</title>
<path fill="none" stroke="#757575" d="M2607.37,-368.971C2669.6,-359.225 2771.03,-353.299 2841,-399.5 2870.52,-418.995 2849.85,-447.817 2877,-470.5 2881.84,-474.546 2887.3,-477.962 2893.06,-480.847"/>
<polygon fill="#757575" stroke="#757575" points="2891.75,-484.096 2902.31,-484.957 2894.59,-477.699 2891.75,-484.096"/>
</g>
<!-- reducers/root.js&#45;&gt;actions/engineMsg.js -->
<g id="edge32" class="edge"><title>reducers/root.js&#45;&gt;actions/engineMsg.js</title>
<path fill="none" stroke="#757575" d="M2556.95,-368.665C2569.16,-340.973 2603.54,-271.725 2655,-237.5 2725.65,-190.514 2779.61,-253.07 2841,-194.5 2883.76,-153.706 2829.89,-102.185 2877,-66.5 2935.03,-22.5418 3148.32,-56.8098 3256.97,-77.9837"/>
<polygon fill="#757575" stroke="#757575" points="3256.35,-81.4275 3266.83,-79.9257 3257.7,-74.5594 3256.35,-81.4275"/>
</g>
<!-- reducers/updateBodyArr.js -->
<g id="node31" class="node"><title>reducers/updateBodyArr.js</title>
<path fill="none" stroke="#c6c5fe" d="M2833.33,-352C2833.33,-352 2662.67,-352 2662.67,-352 2658.83,-352 2655,-348.167 2655,-344.333 2655,-344.333 2655,-336.667 2655,-336.667 2655,-332.833 2658.83,-329 2662.67,-329 2662.67,-329 2833.33,-329 2833.33,-329 2837.17,-329 2841,-332.833 2841,-336.667 2841,-336.667 2841,-344.333 2841,-344.333 2841,-348.167 2837.17,-352 2833.33,-352"/>
<text text-anchor="middle" x="2748" y="-336.8" font-family="Arial" font-size="14.00" fill="#c6c5fe">reducers/updateBodyArr.js</text>
</g>
<!-- reducers/root.js&#45;&gt;reducers/updateBodyArr.js -->
<g id="edge34" class="edge"><title>reducers/root.js&#45;&gt;reducers/updateBodyArr.js</title>
<path fill="none" stroke="#757575" d="M2608.14,-368.984C2630.88,-364.319 2657.31,-358.898 2680.97,-354.045"/>
<polygon fill="#757575" stroke="#757575" points="2681.83,-357.442 2690.92,-352.004 2680.42,-350.585 2681.83,-357.442"/>
</g>
<!-- reducers/updateButtons.js -->
<g id="node32" class="node"><title>reducers/updateButtons.js</title>
<path fill="none" stroke="#cfffac" d="M2831.33,-432C2831.33,-432 2664.67,-432 2664.67,-432 2660.83,-432 2657,-428.167 2657,-424.333 2657,-424.333 2657,-416.667 2657,-416.667 2657,-412.833 2660.83,-409 2664.67,-409 2664.67,-409 2831.33,-409 2831.33,-409 2835.17,-409 2839,-412.833 2839,-416.667 2839,-416.667 2839,-424.333 2839,-424.333 2839,-428.167 2835.17,-432 2831.33,-432"/>
<text text-anchor="middle" x="2748" y="-416.8" font-family="Arial" font-size="14.00" fill="#cfffac">reducers/updateButtons.js</text>
</g>
<!-- reducers/root.js&#45;&gt;reducers/updateButtons.js -->
<g id="edge35" class="edge"><title>reducers/root.js&#45;&gt;reducers/updateButtons.js</title>
<path fill="none" stroke="#757575" d="M2608.14,-392.016C2630.88,-396.681 2657.31,-402.102 2680.97,-406.955"/>
<polygon fill="#757575" stroke="#757575" points="2680.42,-410.415 2690.92,-408.996 2681.83,-403.558 2680.42,-410.415"/>
</g>
<!-- reducers/updateStats.js -->
<g id="node33" class="node"><title>reducers/updateStats.js</title>
<path fill="none" stroke="#c6c5fe" d="M2823.83,-512C2823.83,-512 2672.17,-512 2672.17,-512 2668.33,-512 2664.5,-508.167 2664.5,-504.333 2664.5,-504.333 2664.5,-496.667 2664.5,-496.667 2664.5,-492.833 2668.33,-489 2672.17,-489 2672.17,-489 2823.83,-489 2823.83,-489 2827.67,-489 2831.5,-492.833 2831.5,-496.667 2831.5,-496.667 2831.5,-504.333 2831.5,-504.333 2831.5,-508.167 2827.67,-512 2823.83,-512"/>
<text text-anchor="middle" x="2748" y="-496.8" font-family="Arial" font-size="14.00" fill="#c6c5fe">reducers/updateStats.js</text>
</g>
<!-- reducers/root.js&#45;&gt;reducers/updateStats.js -->
<g id="edge36" class="edge"><title>reducers/root.js&#45;&gt;reducers/updateStats.js</title>
<path fill="none" stroke="#757575" d="M2570.7,-392.006C2605.26,-413.276 2679.29,-458.829 2719.55,-483.607"/>
<polygon fill="#757575" stroke="#757575" points="2717.72,-486.592 2728.07,-488.852 2721.39,-480.631 2717.72,-486.592"/>
</g>
<!-- reducers/updateTime.js -->
<g id="node34" class="node"><title>reducers/updateTime.js</title>
<path fill="none" stroke="#c6c5fe" d="M2823.83,-311C2823.83,-311 2672.17,-311 2672.17,-311 2668.33,-311 2664.5,-307.167 2664.5,-303.333 2664.5,-303.333 2664.5,-295.667 2664.5,-295.667 2664.5,-291.833 2668.33,-288 2672.17,-288 2672.17,-288 2823.83,-288 2823.83,-288 2827.67,-288 2831.5,-291.833 2831.5,-295.667 2831.5,-295.667 2831.5,-303.333 2831.5,-303.333 2831.5,-307.167 2827.67,-311 2823.83,-311"/>
<text text-anchor="middle" x="2748" y="-295.8" font-family="Arial" font-size="14.00" fill="#c6c5fe">reducers/updateTime.js</text>
</g>
<!-- reducers/root.js&#45;&gt;reducers/updateTime.js -->
<g id="edge37" class="edge"><title>reducers/root.js&#45;&gt;reducers/updateTime.js</title>
<path fill="none" stroke="#757575" d="M2567.93,-368.847C2587.49,-355.08 2622.12,-332.42 2655,-319.5 2660.36,-317.394 2665.99,-315.489 2671.71,-313.769"/>
<polygon fill="#757575" stroke="#757575" points="2672.71,-317.123 2681.39,-311.047 2670.82,-310.384 2672.71,-317.123"/>
</g>
<!-- store/initialState.js -->
<g id="node35" class="node"><title>store/initialState.js</title>
<path fill="none" stroke="#c6c5fe" d="M2805.83,-270C2805.83,-270 2690.17,-270 2690.17,-270 2686.33,-270 2682.5,-266.167 2682.5,-262.333 2682.5,-262.333 2682.5,-254.667 2682.5,-254.667 2682.5,-250.833 2686.33,-247 2690.17,-247 2690.17,-247 2805.83,-247 2805.83,-247 2809.67,-247 2813.5,-250.833 2813.5,-254.667 2813.5,-254.667 2813.5,-262.333 2813.5,-262.333 2813.5,-266.167 2809.67,-270 2805.83,-270"/>
<text text-anchor="middle" x="2748" y="-254.8" font-family="Arial" font-size="14.00" fill="#c6c5fe">store/initialState.js</text>
</g>
<!-- reducers/root.js&#45;&gt;store/initialState.js -->
<g id="edge38" class="edge"><title>reducers/root.js&#45;&gt;store/initialState.js</title>
<path fill="none" stroke="#757575" d="M2560.13,-368.884C2575.83,-347.4 2612.53,-301.551 2655,-278.5 2660.56,-275.481 2666.55,-272.918 2672.7,-270.741"/>
<polygon fill="#757575" stroke="#757575" points="2674,-274 2682.46,-267.63 2671.87,-267.33 2674,-274"/>
</g>
<!-- reducers/root.js&#45;&gt;utils.js -->
<g id="edge39" class="edge"><title>reducers/root.js&#45;&gt;utils.js</title>
<path fill="none" stroke="#757575" d="M2555.14,-392.294C2564.37,-424.498 2594.63,-514.327 2655,-556.5 2737.19,-613.916 2777.14,-587.576 2877,-596.5 2954.91,-603.463 2983.75,-632.874 3053,-596.5 3101.11,-571.231 3129.93,-509.916 3142.32,-477.458"/>
<polygon fill="#757575" stroke="#757575" points="3145.63,-478.61 3145.77,-468.016 3139.05,-476.207 3145.63,-478.61"/>
</g>
<!-- reducers/updateBodyArr.js&#45;&gt;actions/playerMsg.js -->
<g id="edge40" class="edge"><title>reducers/updateBodyArr.js&#45;&gt;actions/playerMsg.js</title>
<path fill="none" stroke="#757575" d="M2818.27,-352.027C2826.62,-355.635 2834.48,-360.348 2841,-366.5 2876.57,-400.073 2841.68,-436.662 2877,-470.5 2880.98,-474.317 2885.51,-477.576 2890.34,-480.359"/>
<polygon fill="#757575" stroke="#757575" points="2888.83,-483.517 2899.34,-484.871 2891.97,-477.26 2888.83,-483.517"/>
</g>
<!-- reducers/updateStats.js&#45;&gt;actions/coreMsg.js -->
<g id="edge41" class="edge"><title>reducers/updateStats.js&#45;&gt;actions/coreMsg.js</title>
<path fill="none" stroke="#757575" d="M2800.64,-512.039C2814.08,-515.862 2828.34,-520.666 2841,-526.5 2858.47,-534.546 2859.6,-542.323 2877,-550.5 2886.2,-554.824 2896.29,-558.619 2906.23,-561.878"/>
<polygon fill="#757575" stroke="#757575" points="2905.5,-565.316 2916.09,-564.958 2907.59,-558.635 2905.5,-565.316"/>
</g>
<!-- reducers/updateStats.js&#45;&gt;actions/playerMsg.js -->
<g id="edge42" class="edge"><title>reducers/updateStats.js&#45;&gt;actions/playerMsg.js</title>
<path fill="none" stroke="#757575" d="M2831.51,-498.965C2848.08,-498.657 2865.5,-498.333 2882.05,-498.025"/>
<polygon fill="#757575" stroke="#757575" points="2882.3,-501.521 2892.23,-497.835 2882.17,-494.522 2882.3,-501.521"/>
</g>
<!-- reducers/updateStats.js&#45;&gt;utils.js -->
<g id="edge43" class="edge"><title>reducers/updateStats.js&#45;&gt;utils.js</title>
<path fill="none" stroke="#757575" d="M2794.85,-512.032C2855.29,-525.188 2964.32,-541.821 3053,-516.5 3081.49,-508.364 3109.77,-489.118 3128.28,-474.602"/>
<polygon fill="#757575" stroke="#757575" points="3130.72,-477.13 3136.3,-468.123 3126.32,-471.685 3130.72,-477.13"/>
</g>
<!-- reducers/updateTime.js&#45;&gt;utils.js -->
<g id="edge44" class="edge"><title>reducers/updateTime.js&#45;&gt;utils.js</title>
<path fill="none" stroke="#757575" d="M2829.49,-311.223C2833.63,-313.555 2837.51,-316.293 2841,-319.5 2881.06,-356.313 2834.45,-402.596 2877,-436.5 2912.32,-464.642 3045.84,-461.986 3111.95,-458.777"/>
<polygon fill="#757575" stroke="#757575" points="3112.53,-462.252 3122.33,-458.241 3112.17,-455.261 3112.53,-462.252"/>
</g>
<!-- store/initialState.js&#45;&gt;components/dropdown.js -->
<g id="edge66" class="edge"><title>store/initialState.js&#45;&gt;components/dropdown.js</title>
<path fill="none" stroke="#757575" d="M2813.6,-248.185C2823.56,-244.453 2833.13,-239.383 2841,-232.5 2871.27,-206.032 2846.09,-175.211 2877,-149.5 2878.35,-148.376 2879.75,-147.312 2881.2,-146.305"/>
<polygon fill="#757575" stroke="#757575" points="2883.09,-149.252 2889.92,-141.144 2879.53,-143.229 2883.09,-149.252"/>
</g>
<!-- store/initialState.js&#45;&gt;symbols/perks.js -->
<g id="edge71" class="edge"><title>store/initialState.js&#45;&gt;symbols/perks.js</title>
<path fill="none" stroke="#757575" d="M2813.9,-249.193C2823.94,-245.352 2833.46,-239.984 2841,-232.5 2881.72,-192.066 2832.21,-144.373 2877,-108.5 2938.21,-59.4818 3034.1,-66.7167 3094.29,-77.9714"/>
<polygon fill="#757575" stroke="#757575" points="3093.88,-81.4572 3104.37,-79.955 3095.23,-74.589 3093.88,-81.4572"/>
</g>
<!-- store/initialState.js&#45;&gt;scenes/sceneSymbols.js -->
<g id="edge67" class="edge"><title>store/initialState.js&#45;&gt;scenes/sceneSymbols.js</title>
<path fill="none" stroke="#757575" d="M2774.43,-246.813C2795.21,-236.025 2823.84,-218.11 2841,-194.5 2873.48,-149.799 2845.11,-120.627 2877,-75.5 2891.13,-55.4969 2913.5,-39.2441 2932.01,-28.1224"/>
<polygon fill="#757575" stroke="#757575" points="2933.83,-31.1142 2940.73,-23.0809 2930.32,-25.0531 2933.83,-31.1142"/>
</g>
<!-- symbols/face.js -->
<g id="node46" class="node"><title>symbols/face.js</title>
<path fill="none" stroke="#c6c5fe" d="M3015.33,-264C3015.33,-264 2914.67,-264 2914.67,-264 2910.83,-264 2907,-260.167 2907,-256.333 2907,-256.333 2907,-248.667 2907,-248.667 2907,-244.833 2910.83,-241 2914.67,-241 2914.67,-241 3015.33,-241 3015.33,-241 3019.17,-241 3023,-244.833 3023,-248.667 3023,-248.667 3023,-256.333 3023,-256.333 3023,-260.167 3019.17,-264 3015.33,-264"/>
<text text-anchor="middle" x="2965" y="-248.8" font-family="Arial" font-size="14.00" fill="#c6c5fe">symbols/face.js</text>
</g>
<!-- store/initialState.js&#45;&gt;symbols/face.js -->
<g id="edge68" class="edge"><title>store/initialState.js&#45;&gt;symbols/face.js</title>
<path fill="none" stroke="#757575" d="M2813.51,-256.7C2839.71,-255.968 2870,-255.123 2896.51,-254.384"/>
<polygon fill="#757575" stroke="#757575" points="2896.94,-257.873 2906.84,-254.095 2896.75,-250.876 2896.94,-257.873"/>
</g>
<!-- symbols/gear.js -->
<g id="node47" class="node"><title>symbols/gear.js</title>
<path fill="none" stroke="#c6c5fe" d="M3015.33,-223C3015.33,-223 2914.67,-223 2914.67,-223 2910.83,-223 2907,-219.167 2907,-215.333 2907,-215.333 2907,-207.667 2907,-207.667 2907,-203.833 2910.83,-200 2914.67,-200 2914.67,-200 3015.33,-200 3015.33,-200 3019.17,-200 3023,-203.833 3023,-207.667 3023,-207.667 3023,-215.333 3023,-215.333 3023,-219.167 3019.17,-223 3015.33,-223"/>
<text text-anchor="middle" x="2965" y="-207.8" font-family="Arial" font-size="14.00" fill="#c6c5fe">symbols/gear.js</text>
</g>
<!-- store/initialState.js&#45;&gt;symbols/gear.js -->
<g id="edge69" class="edge"><title>store/initialState.js&#45;&gt;symbols/gear.js</title>
<path fill="none" stroke="#757575" d="M2801.87,-246.942C2831.94,-240.369 2869.77,-232.099 2901.33,-225.201"/>
<polygon fill="#757575" stroke="#757575" points="2902.31,-228.568 2911.33,-223.013 2900.82,-221.729 2902.31,-228.568"/>
</g>
<!-- symbols/lowerBody.js -->
<g id="node48" class="node"><title>symbols/lowerBody.js</title>
<path fill="none" stroke="#c6c5fe" d="M3034.83,-182C3034.83,-182 2895.17,-182 2895.17,-182 2891.33,-182 2887.5,-178.167 2887.5,-174.333 2887.5,-174.333 2887.5,-166.667 2887.5,-166.667 2887.5,-162.833 2891.33,-159 2895.17,-159 2895.17,-159 3034.83,-159 3034.83,-159 3038.67,-159 3042.5,-162.833 3042.5,-166.667 3042.5,-166.667 3042.5,-174.333 3042.5,-174.333 3042.5,-178.167 3038.67,-182 3034.83,-182"/>
<text text-anchor="middle" x="2965" y="-166.8" font-family="Arial" font-size="14.00" fill="#c6c5fe">symbols/lowerBody.js</text>
</g>
<!-- store/initialState.js&#45;&gt;symbols/lowerBody.js -->
<g id="edge70" class="edge"><title>store/initialState.js&#45;&gt;symbols/lowerBody.js</title>
<path fill="none" stroke="#757575" d="M2809.59,-246.864C2820.54,-243.263 2831.49,-238.579 2841,-232.5 2861.71,-219.258 2855.96,-203.226 2877,-190.5 2879.63,-188.907 2882.38,-187.441 2885.21,-186.091"/>
<polygon fill="#757575" stroke="#757575" points="2886.64,-189.287 2894.48,-182.166 2883.91,-182.841 2886.64,-189.287"/>
</g>
<!-- symbols/skin.js -->
<g id="node49" class="node"><title>symbols/skin.js</title>
<path fill="none" stroke="#c6c5fe" d="M3013.83,-428C3013.83,-428 2916.17,-428 2916.17,-428 2912.33,-428 2908.5,-424.167 2908.5,-420.333 2908.5,-420.333 2908.5,-412.667 2908.5,-412.667 2908.5,-408.833 2912.33,-405 2916.17,-405 2916.17,-405 3013.83,-405 3013.83,-405 3017.67,-405 3021.5,-408.833 3021.5,-412.667 3021.5,-412.667 3021.5,-420.333 3021.5,-420.333 3021.5,-424.167 3017.67,-428 3013.83,-428"/>
<text text-anchor="middle" x="2965" y="-412.8" font-family="Arial" font-size="14.00" fill="#c6c5fe">symbols/skin.js</text>
</g>
<!-- store/initialState.js&#45;&gt;symbols/skin.js -->
<g id="edge72" class="edge"><title>store/initialState.js&#45;&gt;symbols/skin.js</title>
<path fill="none" stroke="#757575" d="M2813.63,-263.43C2823.7,-266.633 2833.3,-271.422 2841,-278.5 2881.06,-315.313 2837.36,-358.233 2877,-395.5 2883.18,-401.314 2890.69,-405.603 2898.67,-408.753"/>
<polygon fill="#757575" stroke="#757575" points="2897.62,-412.09 2908.21,-411.95 2899.84,-405.453 2897.62,-412.09"/>
</g>
<!-- symbols/tail.js -->
<g id="node50" class="node"><title>symbols/tail.js</title>
<path fill="none" stroke="#c6c5fe" d="M3009.83,-387C3009.83,-387 2920.17,-387 2920.17,-387 2916.33,-387 2912.5,-383.167 2912.5,-379.333 2912.5,-379.333 2912.5,-371.667 2912.5,-371.667 2912.5,-367.833 2916.33,-364 2920.17,-364 2920.17,-364 3009.83,-364 3009.83,-364 3013.67,-364 3017.5,-367.833 3017.5,-371.667 3017.5,-371.667 3017.5,-379.333 3017.5,-379.333 3017.5,-383.167 3013.67,-387 3009.83,-387"/>
<text text-anchor="middle" x="2965" y="-371.8" font-family="Arial" font-size="14.00" fill="#c6c5fe">symbols/tail.js</text>
</g>
<!-- store/initialState.js&#45;&gt;symbols/tail.js -->
<g id="edge73" class="edge"><title>store/initialState.js&#45;&gt;symbols/tail.js</title>
<path fill="none" stroke="#757575" d="M2813.75,-264.69C2823.58,-267.774 2833.06,-272.197 2841,-278.5 2870.27,-301.746 2848,-330.922 2877,-354.5 2884.43,-360.538 2893.32,-364.886 2902.54,-368.008"/>
<polygon fill="#757575" stroke="#757575" points="2901.63,-371.391 2912.22,-370.837 2903.6,-364.672 2901.63,-371.391"/>
</g>
<!-- symbols/tongue.js -->
<g id="node51" class="node"><title>symbols/tongue.js</title>
<path fill="none" stroke="#c6c5fe" d="M3022.83,-346C3022.83,-346 2907.17,-346 2907.17,-346 2903.33,-346 2899.5,-342.167 2899.5,-338.333 2899.5,-338.333 2899.5,-330.667 2899.5,-330.667 2899.5,-326.833 2903.33,-323 2907.17,-323 2907.17,-323 3022.83,-323 3022.83,-323 3026.67,-323 3030.5,-326.833 3030.5,-330.667 3030.5,-330.667 3030.5,-338.333 3030.5,-338.333 3030.5,-342.167 3026.67,-346 3022.83,-346"/>
<text text-anchor="middle" x="2965" y="-330.8" font-family="Arial" font-size="14.00" fill="#c6c5fe">symbols/tongue.js</text>
</g>
<!-- store/initialState.js&#45;&gt;symbols/tongue.js -->
<g id="edge74" class="edge"><title>store/initialState.js&#45;&gt;symbols/tongue.js</title>
<path fill="none" stroke="#757575" d="M2813.98,-267.838C2823.36,-270.537 2832.65,-274.016 2841,-278.5 2860.66,-289.055 2857.46,-302.722 2877,-313.5 2881.01,-315.713 2885.25,-317.694 2889.62,-319.469"/>
<polygon fill="#757575" stroke="#757575" points="2888.74,-322.874 2899.33,-323.031 2891.15,-316.302 2888.74,-322.874"/>
</g>
<!-- symbols/wings.js -->
<g id="node52" class="node"><title>symbols/wings.js</title>
<path fill="none" stroke="#c6c5fe" d="M3019.33,-305C3019.33,-305 2910.67,-305 2910.67,-305 2906.83,-305 2903,-301.167 2903,-297.333 2903,-297.333 2903,-289.667 2903,-289.667 2903,-285.833 2906.83,-282 2910.67,-282 2910.67,-282 3019.33,-282 3019.33,-282 3023.17,-282 3027,-285.833 3027,-289.667 3027,-289.667 3027,-297.333 3027,-297.333 3027,-301.167 3023.17,-305 3019.33,-305"/>
<text text-anchor="middle" x="2965" y="-289.8" font-family="Arial" font-size="14.00" fill="#c6c5fe">symbols/wings.js</text>
</g>
<!-- store/initialState.js&#45;&gt;symbols/wings.js -->
<g id="edge75" class="edge"><title>store/initialState.js&#45;&gt;symbols/wings.js</title>
<path fill="none" stroke="#757575" d="M2813.51,-269.001C2838.51,-273.072 2867.23,-277.747 2892.84,-281.916"/>
<polygon fill="#757575" stroke="#757575" points="2892.42,-285.394 2902.85,-283.546 2893.55,-278.485 2892.42,-285.394"/>
</g>
<!-- scenes/charCreation.js&#45;&gt;actions/Core.js -->
<g id="edge45" class="edge"><title>scenes/charCreation.js&#45;&gt;actions/Core.js</title>
<path fill="none" stroke="#757575" d="M1392.41,-528.961C1458.17,-503.594 1615.28,-442.983 1688.81,-414.62"/>
<polygon fill="#757575" stroke="#757575" points="1690.12,-417.865 1698.19,-411 1687.6,-411.334 1690.12,-417.865"/>
</g>
<!-- scenes/charCreation.js&#45;&gt;actions/Player.js -->
<g id="edge46" class="edge"><title>scenes/charCreation.js&#45;&gt;actions/Player.js</title>
<path fill="none" stroke="#757575" d="M1442.23,-536.518C1599.41,-528.669 1946.83,-511.32 2094.7,-503.936"/>
<polygon fill="#757575" stroke="#757575" points="2095.19,-507.416 2105,-503.421 2094.84,-500.425 2095.19,-507.416"/>
</g>
<!-- scenes/charCreation.js&#45;&gt;symbols/breastCup.js -->
<g id="edge51" class="edge"><title>scenes/charCreation.js&#45;&gt;symbols/breastCup.js</title>
<path fill="none" stroke="#757575" d="M1375.61,-552.228C1395.94,-569.72 1437.04,-602.317 1478,-618.5 1582.65,-659.852 1615.48,-658.5 1728,-658.5 1728,-658.5 1728,-658.5 1947,-658.5 2063.16,-658.5 2197.31,-658.884 2282.61,-659.176"/>
<polygon fill="#757575" stroke="#757575" points="2282.75,-662.676 2292.76,-659.211 2282.78,-655.676 2282.75,-662.676"/>
</g>
<!-- scenes/charCreation.js&#45;&gt;appearance/appearance.js -->
<g id="edge47" class="edge"><title>scenes/charCreation.js&#45;&gt;appearance/appearance.js</title>
<path fill="none" stroke="#757575" d="M1382.11,-552.17C1404.45,-564.772 1442.46,-584.161 1478,-592.5 1680.7,-640.062 1926.23,-634.789 2061.57,-626.663"/>
<polygon fill="#757575" stroke="#757575" points="2062.16,-630.133 2071.92,-626.023 2061.72,-623.147 2062.16,-630.133"/>
</g>
<!-- scenes/charCreation.js&#45;&gt;symbols/gender.js -->
<g id="edge53" class="edge"><title>scenes/charCreation.js&#45;&gt;symbols/gender.js</title>
<path fill="none" stroke="#757575" d="M1431.67,-552.004C1505,-563.189 1624.33,-578.5 1728,-578.5 1728,-578.5 1728,-578.5 1947,-578.5 2085.04,-578.5 2120.01,-580.526 2257,-597.5 2272.62,-599.436 2289.35,-602.197 2304.99,-605.083"/>
<polygon fill="#757575" stroke="#757575" points="2304.62,-608.574 2315.09,-606.991 2305.92,-601.696 2304.62,-608.574"/>
</g>
<!-- scenes/charCreation.js&#45;&gt;scenes/menus.js -->
<g id="edge48" class="edge"><title>scenes/charCreation.js&#45;&gt;scenes/menus.js</title>
<path fill="none" stroke="#757575" d="M1365.07,-528.837C1374.78,-486.477 1412.01,-337.732 1478,-232.5 1488.74,-215.377 1504.57,-198.937 1517.41,-187.007"/>
<polygon fill="#757575" stroke="#757575" points="1519.87,-189.498 1524.95,-180.197 1515.18,-184.304 1519.87,-189.498"/>
</g>
<!-- scenes/charCreation.js&#45;&gt;scenes/sceneSymbols.js -->
<g id="edge49" class="edge"><title>scenes/charCreation.js&#45;&gt;scenes/sceneSymbols.js</title>
<path fill="none" stroke="#757575" d="M1374.09,-528.978C1393.96,-509.702 1436.42,-470.564 1478,-445.5 1544.03,-405.702 1564.29,-401.102 1638,-378.5 1703.18,-358.514 2789.01,-180.602 2841,-136.5 2875.43,-107.29 2844.59,-72.9422 2877,-41.5 2883.02,-35.6625 2890.22,-30.9576 2897.87,-27.1663"/>
<polygon fill="#757575" stroke="#757575" points="2899.29,-30.3673 2907.02,-23.1222 2896.46,-23.9653 2899.29,-30.3673"/>
</g>
<!-- scenes/sceneTextStore.js -->
<g id="node40" class="node"><title>scenes/sceneTextStore.js</title>
<path fill="none" stroke="#c6c5fe" d="M1812.33,-226C1812.33,-226 1645.67,-226 1645.67,-226 1641.83,-226 1638,-222.167 1638,-218.333 1638,-218.333 1638,-210.667 1638,-210.667 1638,-206.833 1641.83,-203 1645.67,-203 1645.67,-203 1812.33,-203 1812.33,-203 1816.17,-203 1820,-206.833 1820,-210.667 1820,-210.667 1820,-218.333 1820,-218.333 1820,-222.167 1816.17,-226 1812.33,-226"/>
<text text-anchor="middle" x="1729" y="-210.8" font-family="Arial" font-size="14.00" fill="#c6c5fe">scenes/sceneTextStore.js</text>
</g>
<!-- scenes/charCreation.js&#45;&gt;scenes/sceneTextStore.js -->
<g id="edge50" class="edge"><title>scenes/charCreation.js&#45;&gt;scenes/sceneTextStore.js</title>
<path fill="none" stroke="#757575" d="M1363.76,-528.826C1368.98,-486.716 1392.72,-341.382 1478,-270.5 1519.52,-235.988 1577.87,-221.615 1627.76,-216.041"/>
<polygon fill="#757575" stroke="#757575" points="1628.35,-219.499 1637.95,-215.01 1627.64,-212.535 1628.35,-219.499"/>
</g>
<!-- symbols/butt.js -->
<g id="node41" class="node"><title>symbols/butt.js</title>
<path fill="none" stroke="#c6c5fe" d="M1993.83,-820C1993.83,-820 1898.17,-820 1898.17,-820 1894.33,-820 1890.5,-816.167 1890.5,-812.333 1890.5,-812.333 1890.5,-804.667 1890.5,-804.667 1890.5,-800.833 1894.33,-797 1898.17,-797 1898.17,-797 1993.83,-797 1993.83,-797 1997.67,-797 2001.5,-800.833 2001.5,-804.667 2001.5,-804.667 2001.5,-812.333 2001.5,-812.333 2001.5,-816.167 1997.67,-820 1993.83,-820"/>
<text text-anchor="middle" x="1946" y="-804.8" font-family="Arial" font-size="14.00" fill="#c6c5fe">symbols/butt.js</text>
</g>
<!-- scenes/charCreation.js&#45;&gt;symbols/butt.js -->
<g id="edge52" class="edge"><title>scenes/charCreation.js&#45;&gt;symbols/butt.js</title>
<path fill="none" stroke="#757575" d="M1365.04,-552.062C1373.66,-588.394 1405.42,-700.958 1478,-753.5 1598.23,-840.539 1783.24,-831.687 1880.37,-819.248"/>
<polygon fill="#757575" stroke="#757575" points="1880.89,-822.709 1890.34,-817.918 1879.97,-815.77 1880.89,-822.709"/>
</g>
<!-- symbols/hips.js -->
<g id="node42" class="node"><title>symbols/hips.js</title>
<path fill="none" stroke="#c6c5fe" d="M1589.33,-745C1589.33,-745 1490.67,-745 1490.67,-745 1486.83,-745 1483,-741.167 1483,-737.333 1483,-737.333 1483,-729.667 1483,-729.667 1483,-725.833 1486.83,-722 1490.67,-722 1490.67,-722 1589.33,-722 1589.33,-722 1593.17,-722 1597,-725.833 1597,-729.667 1597,-729.667 1597,-737.333 1597,-737.333 1597,-741.167 1593.17,-745 1589.33,-745"/>
<text text-anchor="middle" x="1540" y="-729.8" font-family="Arial" font-size="14.00" fill="#c6c5fe">symbols/hips.js</text>
</g>
<!-- scenes/charCreation.js&#45;&gt;symbols/hips.js -->
<g id="edge54" class="edge"><title>scenes/charCreation.js&#45;&gt;symbols/hips.js</title>
<path fill="none" stroke="#757575" d="M1372.14,-552.026C1391.65,-575.247 1437.43,-629.138 1478,-672.5 1491.43,-686.855 1507.12,-702.524 1519.23,-714.388"/>
<polygon fill="#757575" stroke="#757575" points="1517,-717.106 1526.61,-721.582 1521.89,-712.094 1517,-717.106"/>
</g>
<!-- scenes/menus.js&#45;&gt;actions/Core.js -->
<g id="edge55" class="edge"><title>scenes/menus.js&#45;&gt;actions/Core.js</title>
<path fill="none" stroke="#757575" d="M1578.28,-180.086C1586.66,-183.814 1595.11,-188.563 1602,-194.5 1633.77,-221.877 1693.2,-332.398 1717.37,-378.814"/>
<polygon fill="#757575" stroke="#757575" points="1714.39,-380.667 1722.1,-387.937 1720.61,-377.448 1714.39,-380.667"/>
</g>
<!-- scenes/menus.js&#45;&gt;scenes/sceneSymbols.js -->
<g id="edge56" class="edge"><title>scenes/menus.js&#45;&gt;scenes/sceneSymbols.js</title>
<path fill="none" stroke="#757575" d="M1593.58,-156.981C1700.4,-134.618 1950.71,-87.5 2163.5,-87.5 2163.5,-87.5 2163.5,-87.5 2552,-87.5 2686.35,-87.5 2841.31,-47.936 2917.2,-25.8997"/>
<polygon fill="#757575" stroke="#757575" points="2918.32,-29.2173 2926.93,-23.0428 2916.35,-22.5005 2918.32,-29.2173"/>
</g>
<!-- scenes/menus.js&#45;&gt;scenes/sceneTextStore.js -->
<g id="edge57" class="edge"><title>scenes/menus.js&#45;&gt;scenes/sceneTextStore.js</title>
<path fill="none" stroke="#757575" d="M1588.19,-180.108C1613.42,-186.315 1644.67,-194.002 1671.23,-200.534"/>
<polygon fill="#757575" stroke="#757575" points="1670.6,-203.986 1681.15,-202.976 1672.28,-197.188 1670.6,-203.986"/>
</g>
<!-- scenes/sceneTextStore.js&#45;&gt;components/nameInput.js -->
<g id="edge64" class="edge"><title>scenes/sceneTextStore.js&#45;&gt;components/nameInput.js</title>
<path fill="none" stroke="#757575" d="M1747.23,-226.121C1784.89,-251.521 1874.72,-312.105 1919.18,-342.085"/>
<polygon fill="#757575" stroke="#757575" points="1917.44,-345.134 1927.69,-347.824 1921.35,-339.331 1917.44,-345.134"/>
</g>
<!-- scenes/sceneTextStore.js&#45;&gt;scenes/sceneSymbols.js -->
<g id="edge65" class="edge"><title>scenes/sceneTextStore.js&#45;&gt;scenes/sceneSymbols.js</title>
<path fill="none" stroke="#757575" d="M1820.39,-209.94C2069.92,-196.711 2755.54,-155.78 2841,-101.5 2867.25,-84.8266 2852.84,-61.0839 2877,-41.5 2884.37,-35.5261 2893,-30.7095 2901.91,-26.8347"/>
<polygon fill="#757575" stroke="#757575" points="2903.25,-30.0683 2911.26,-23.1287 2900.67,-23.5612 2903.25,-30.0683"/>
</g>
<!-- symbols/butt.js&#45;&gt;utils.js -->
<g id="edge78" class="edge"><title>symbols/butt.js&#45;&gt;utils.js</title>
<path fill="none" stroke="#757575" d="M2001.63,-808.288C2082.07,-807.994 2237.12,-807.5 2369,-807.5 2369,-807.5 2369,-807.5 2749,-807.5 2884.57,-807.5 2947.8,-868.01 3053,-782.5 3101.6,-742.995 3135.94,-544.951 3146.26,-478.373"/>
<polygon fill="#757575" stroke="#757575" points="3149.77,-478.607 3147.81,-468.195 3142.85,-477.554 3149.77,-478.607"/>
</g>
<!-- symbols/hips.js&#45;&gt;utils.js -->
<g id="edge82" class="edge"><title>symbols/hips.js&#45;&gt;utils.js</title>
<path fill="none" stroke="#757575" d="M1597.07,-741.442C1674.96,-751.769 1820.39,-768.5 1945,-768.5 1945,-768.5 1945,-768.5 2749,-768.5 2885.46,-768.5 2947.19,-811.667 3053,-725.5 3131.14,-661.869 3146.03,-529.891 3148.85,-478.063"/>
<polygon fill="#757575" stroke="#757575" points="3152.35,-478.152 3149.3,-468.007 3145.36,-477.842 3152.35,-478.152"/>
</g>
<!-- setupTests.js -->
<g id="node44" class="node"><title>setupTests.js</title>
<path fill="none" stroke="#cfffac" d="M112.333,-99C112.333,-99 25.6667,-99 25.6667,-99 21.8333,-99 18,-95.1667 18,-91.3333 18,-91.3333 18,-83.6667 18,-83.6667 18,-79.8333 21.8333,-76 25.6667,-76 25.6667,-76 112.333,-76 112.333,-76 116.167,-76 120,-79.8333 120,-83.6667 120,-83.6667 120,-91.3333 120,-91.3333 120,-95.1667 116.167,-99 112.333,-99"/>
<text text-anchor="middle" x="69" y="-83.8" font-family="Arial" font-size="14.00" fill="#cfffac">setupTests.js</text>
</g>
<!-- store/gameFlags.js -->
<g id="node45" class="node"><title>store/gameFlags.js</title>
<path fill="none" stroke="#cfffac" d="M130.333,-140C130.333,-140 7.66667,-140 7.66667,-140 3.83333,-140 0,-136.167 0,-132.333 0,-132.333 0,-124.667 0,-124.667 0,-120.833 3.83333,-117 7.66667,-117 7.66667,-117 130.333,-117 130.333,-117 134.167,-117 138,-120.833 138,-124.667 138,-124.667 138,-132.333 138,-132.333 138,-136.167 134.167,-140 130.333,-140"/>
<text text-anchor="middle" x="69" y="-124.8" font-family="Arial" font-size="14.00" fill="#cfffac">store/gameFlags.js</text>
</g>
<!-- symbols/face.js&#45;&gt;utils.js -->
<g id="edge79" class="edge"><title>symbols/face.js&#45;&gt;utils.js</title>
<path fill="none" stroke="#757575" d="M3023.44,-258.34C3034.01,-261.378 3044.41,-265.875 3053,-272.5 3107.57,-314.579 3134.43,-396.322 3144.55,-435.098"/>
<polygon fill="#757575" stroke="#757575" points="3141.16,-435.967 3146.97,-444.826 3147.96,-434.277 3141.16,-435.967"/>
</g>
<!-- symbols/gear.js&#45;&gt;utils.js -->
<g id="edge80" class="edge"><title>symbols/gear.js&#45;&gt;utils.js</title>
<path fill="none" stroke="#757575" d="M3023.4,-216.688C3034.1,-219.767 3044.55,-224.447 3053,-231.5 3117.21,-285.123 3139.73,-389.289 3146.71,-434.584"/>
<polygon fill="#757575" stroke="#757575" points="3143.28,-435.361 3148.16,-444.765 3150.21,-434.37 3143.28,-435.361"/>
</g>
<!-- symbols/lowerBody.js&#45;&gt;utils.js -->
<g id="edge83" class="edge"><title>symbols/lowerBody.js&#45;&gt;utils.js</title>
<path fill="none" stroke="#757575" d="M3040.73,-182.092C3045.14,-184.436 3049.29,-187.214 3053,-190.5 3127.22,-256.175 3144.39,-383.533 3148.34,-434.569"/>
<polygon fill="#757575" stroke="#757575" points="3144.86,-435.036 3149.02,-444.779 3151.84,-434.567 3144.86,-435.036"/>
</g>
<!-- symbols/skin.js&#45;&gt;utils.js -->
<g id="edge85" class="edge"><title>symbols/skin.js&#45;&gt;utils.js</title>
<path fill="none" stroke="#757575" d="M3019.08,-428.07C3048.88,-434.567 3085.36,-442.518 3112.15,-448.358"/>
<polygon fill="#757575" stroke="#757575" points="3111.75,-451.854 3122.27,-450.564 3113.24,-445.014 3111.75,-451.854"/>
</g>
<!-- symbols/tail.js&#45;&gt;utils.js -->
<g id="edge86" class="edge"><title>symbols/tail.js&#45;&gt;utils.js</title>
<path fill="none" stroke="#757575" d="M3017.51,-384.317C3029.41,-387.177 3041.84,-390.85 3053,-395.5 3079.85,-406.689 3107.63,-425.096 3126.45,-438.769"/>
<polygon fill="#757575" stroke="#757575" points="3124.56,-441.723 3134.68,-444.861 3128.72,-436.097 3124.56,-441.723"/>
</g>
<!-- symbols/tongue.js&#45;&gt;utils.js -->
<g id="edge87" class="edge"><title>symbols/tongue.js&#45;&gt;utils.js</title>
<path fill="none" stroke="#757575" d="M3030.82,-344.886C3038.56,-347.421 3046.14,-350.576 3053,-354.5 3088.87,-375.014 3119.54,-413.079 3136.18,-436.46"/>
<polygon fill="#757575" stroke="#757575" points="3133.47,-438.693 3142.04,-444.919 3139.22,-434.706 3133.47,-438.693"/>
</g>
<!-- symbols/wings.js&#45;&gt;utils.js -->
<g id="edge89" class="edge"><title>symbols/wings.js&#45;&gt;utils.js</title>
<path fill="none" stroke="#757575" d="M3027.42,-301.465C3036.48,-304.343 3045.33,-308.237 3053,-313.5 3097.81,-344.261 3127.59,-403.276 3141.12,-435.025"/>
<polygon fill="#757575" stroke="#757575" points="3138.05,-436.75 3145.09,-444.666 3144.52,-434.087 3138.05,-436.75"/>
</g>
</g>
</svg>
