<?xml version="1.0" encoding="UTF-8" standalone="no"?>
<!DOCTYPE svg PUBLIC "-//W3C//DTD SVG 1.1//EN"
 "http://www.w3.org/Graphics/SVG/1.1/DTD/svg11.dtd">
<!-- Generated by graphviz version 2.38.0 (20140413.2041)
 -->
<!-- Title: G Pages: 1 -->
<svg width="3055pt" height="745pt"
 viewBox="0.00 0.00 3055.20 745.20" xmlns="http://www.w3.org/2000/svg" xmlns:xlink="http://www.w3.org/1999/xlink">
<g id="graph0" class="graph" transform="scale(1 1) rotate(0) translate(21.6 723.6)">
<title>G</title>
<polygon fill="#111111" stroke="none" points="-21.6,21.6 -21.6,-723.6 3033.6,-723.6 3033.6,21.6 -21.6,21.6"/>
<!-- actions/Core.js -->
<g id="node1" class="node"><title>actions/Core.js</title>
<path fill="none" stroke="#c6c5fe" d="M1801.83,-361.5C1801.83,-361.5 1706.17,-361.5 1706.17,-361.5 1702.33,-361.5 1698.5,-357.667 1698.5,-353.833 1698.5,-353.833 1698.5,-346.167 1698.5,-346.167 1698.5,-342.333 1702.33,-338.5 1706.17,-338.5 1706.17,-338.5 1801.83,-338.5 1801.83,-338.5 1805.67,-338.5 1809.5,-342.333 1809.5,-346.167 1809.5,-346.167 1809.5,-353.833 1809.5,-353.833 1809.5,-357.667 1805.67,-361.5 1801.83,-361.5"/>
<text text-anchor="middle" x="1754" y="-346.3" font-family="Arial" font-size="14.00" fill="#c6c5fe">actions/Core.js</text>
</g>
<!-- actions/coreMsg.js -->
<g id="node2" class="node"><title>actions/coreMsg.js</title>
<path fill="none" stroke="#cfffac" d="M2983.83,-443.5C2983.83,-443.5 2864.17,-443.5 2864.17,-443.5 2860.33,-443.5 2856.5,-439.667 2856.5,-435.833 2856.5,-435.833 2856.5,-428.167 2856.5,-428.167 2856.5,-424.333 2860.33,-420.5 2864.17,-420.5 2864.17,-420.5 2983.83,-420.5 2983.83,-420.5 2987.67,-420.5 2991.5,-424.333 2991.5,-428.167 2991.5,-428.167 2991.5,-435.833 2991.5,-435.833 2991.5,-439.667 2987.67,-443.5 2983.83,-443.5"/>
<text text-anchor="middle" x="2924" y="-428.3" font-family="Arial" font-size="14.00" fill="#cfffac">actions/coreMsg.js</text>
</g>
<!-- actions/Core.js&#45;&gt;actions/coreMsg.js -->
<g id="edge1" class="edge"><title>actions/Core.js&#45;&gt;actions/coreMsg.js</title>
<path fill="none" stroke="#757575" d="M1767.51,-361.527C1793.95,-385.628 1855.24,-439.956 1881,-450 1994.97,-494.439 2033.18,-470 2155.5,-470 2155.5,-470 2155.5,-470 2511,-470 2628.4,-470 2763.82,-454.512 2846.4,-443.312"/>
<polygon fill="#757575" stroke="#757575" points="2847.02,-446.76 2856.45,-441.934 2846.07,-439.825 2847.02,-446.76"/>
</g>
<!-- store/store.js -->
<g id="node3" class="node"><title>store/store.js</title>
<path fill="none" stroke="#c6c5fe" d="M2370.83,-362.5C2370.83,-362.5 2287.17,-362.5 2287.17,-362.5 2283.33,-362.5 2279.5,-358.667 2279.5,-354.833 2279.5,-354.833 2279.5,-347.167 2279.5,-347.167 2279.5,-343.333 2283.33,-339.5 2287.17,-339.5 2287.17,-339.5 2370.83,-339.5 2370.83,-339.5 2374.67,-339.5 2378.5,-343.333 2378.5,-347.167 2378.5,-347.167 2378.5,-354.833 2378.5,-354.833 2378.5,-358.667 2374.67,-362.5 2370.83,-362.5"/>
<text text-anchor="middle" x="2329" y="-347.3" font-family="Arial" font-size="14.00" fill="#c6c5fe">store/store.js</text>
</g>
<!-- actions/Core.js&#45;&gt;store/store.js -->
<g id="edge2" class="edge"><title>actions/Core.js&#45;&gt;store/store.js</title>
<path fill="none" stroke="#757575" d="M1809.68,-350.095C1917.78,-350.284 2157.97,-350.703 2269.27,-350.898"/>
<polygon fill="#757575" stroke="#757575" points="2269.31,-354.397 2279.31,-350.915 2269.32,-347.397 2269.31,-354.397"/>
</g>
<!-- reducers/root.js -->
<g id="node27" class="node"><title>reducers/root.js</title>
<path fill="none" stroke="#c6c5fe" d="M2560.33,-362.5C2560.33,-362.5 2459.67,-362.5 2459.67,-362.5 2455.83,-362.5 2452,-358.667 2452,-354.833 2452,-354.833 2452,-347.167 2452,-347.167 2452,-343.333 2455.83,-339.5 2459.67,-339.5 2459.67,-339.5 2560.33,-339.5 2560.33,-339.5 2564.17,-339.5 2568,-343.333 2568,-347.167 2568,-347.167 2568,-354.833 2568,-354.833 2568,-358.667 2564.17,-362.5 2560.33,-362.5"/>
<text text-anchor="middle" x="2510" y="-347.3" font-family="Arial" font-size="14.00" fill="#c6c5fe">reducers/root.js</text>
</g>
<!-- store/store.js&#45;&gt;reducers/root.js -->
<g id="edge61" class="edge"><title>store/store.js&#45;&gt;reducers/root.js</title>
<path fill="none" stroke="#757575" d="M2378.91,-351C2398.31,-351 2420.92,-351 2441.81,-351"/>
<polygon fill="#757575" stroke="#757575" points="2441.9,-354.5 2451.9,-351 2441.9,-347.5 2441.9,-354.5"/>
</g>
<!-- actions/Engine.js -->
<g id="node4" class="node"><title>actions/Engine.js</title>
<path fill="none" stroke="#c6c5fe" d="M951.833,-416.5C951.833,-416.5 843.167,-416.5 843.167,-416.5 839.333,-416.5 835.5,-412.667 835.5,-408.833 835.5,-408.833 835.5,-401.167 835.5,-401.167 835.5,-397.333 839.333,-393.5 843.167,-393.5 843.167,-393.5 951.833,-393.5 951.833,-393.5 955.667,-393.5 959.5,-397.333 959.5,-401.167 959.5,-401.167 959.5,-408.833 959.5,-408.833 959.5,-412.667 955.667,-416.5 951.833,-416.5"/>
<text text-anchor="middle" x="897.5" y="-401.3" font-family="Arial" font-size="14.00" fill="#c6c5fe">actions/Engine.js</text>
</g>
<!-- scenes/sceneFunctions.js -->
<g id="node5" class="node"><title>scenes/sceneFunctions.js</title>
<path fill="none" stroke="#c6c5fe" d="M1201.33,-416.5C1201.33,-416.5 1034.67,-416.5 1034.67,-416.5 1030.83,-416.5 1027,-412.667 1027,-408.833 1027,-408.833 1027,-401.167 1027,-401.167 1027,-397.333 1030.83,-393.5 1034.67,-393.5 1034.67,-393.5 1201.33,-393.5 1201.33,-393.5 1205.17,-393.5 1209,-397.333 1209,-401.167 1209,-401.167 1209,-408.833 1209,-408.833 1209,-412.667 1205.17,-416.5 1201.33,-416.5"/>
<text text-anchor="middle" x="1118" y="-401.3" font-family="Arial" font-size="14.00" fill="#c6c5fe">scenes/sceneFunctions.js</text>
</g>
<!-- actions/Engine.js&#45;&gt;scenes/sceneFunctions.js -->
<g id="edge3" class="edge"><title>actions/Engine.js&#45;&gt;scenes/sceneFunctions.js</title>
<path fill="none" stroke="#757575" d="M959.655,-405C977.394,-405 997.247,-405 1016.72,-405"/>
<polygon fill="#757575" stroke="#757575" points="1016.85,-408.5 1026.85,-405 1016.85,-401.5 1016.85,-408.5"/>
</g>
<!-- scenes/sceneFunctions.js&#45;&gt;actions/Core.js -->
<g id="edge52" class="edge"><title>scenes/sceneFunctions.js&#45;&gt;actions/Core.js</title>
<path fill="none" stroke="#757575" d="M1190.81,-393.401C1197.23,-390.859 1203.41,-387.764 1209,-384 1232.01,-368.502 1220.37,-345.764 1245,-333 1400,-252.684 1618.82,-306.655 1710.25,-335.327"/>
<polygon fill="#757575" stroke="#757575" points="1709.39,-338.728 1719.98,-338.436 1711.52,-332.06 1709.39,-338.728"/>
</g>
<!-- scenes/sceneFunctions.js&#45;&gt;store/store.js -->
<g id="edge57" class="edge"><title>scenes/sceneFunctions.js&#45;&gt;store/store.js</title>
<path fill="none" stroke="#757575" d="M1194.96,-393.339C1200.02,-390.778 1204.77,-387.698 1209,-384 1242.98,-354.265 1207.97,-314.843 1245,-289 1587.69,-49.8155 2150,-271.866 2293.72,-335.262"/>
<polygon fill="#757575" stroke="#757575" points="2292.39,-338.505 2302.95,-339.374 2295.24,-332.109 2292.39,-338.505"/>
</g>
<!-- scenes/charCreation.js -->
<g id="node33" class="node"><title>scenes/charCreation.js</title>
<path fill="none" stroke="#c6c5fe" d="M1398.33,-365.5C1398.33,-365.5 1252.67,-365.5 1252.67,-365.5 1248.83,-365.5 1245,-361.667 1245,-357.833 1245,-357.833 1245,-350.167 1245,-350.167 1245,-346.333 1248.83,-342.5 1252.67,-342.5 1252.67,-342.5 1398.33,-342.5 1398.33,-342.5 1402.17,-342.5 1406,-346.333 1406,-350.167 1406,-350.167 1406,-357.833 1406,-357.833 1406,-361.667 1402.17,-365.5 1398.33,-365.5"/>
<text text-anchor="middle" x="1325.5" y="-350.3" font-family="Arial" font-size="14.00" fill="#c6c5fe">scenes/charCreation.js</text>
</g>
<!-- scenes/sceneFunctions.js&#45;&gt;scenes/charCreation.js -->
<g id="edge53" class="edge"><title>scenes/sceneFunctions.js&#45;&gt;scenes/charCreation.js</title>
<path fill="none" stroke="#757575" d="M1169.51,-393.448C1182.4,-390.435 1196.23,-387.149 1209,-384 1229.48,-378.952 1251.93,-373.175 1271.56,-368.047"/>
<polygon fill="#757575" stroke="#757575" points="1272.45,-371.431 1281.24,-365.51 1270.67,-364.66 1272.45,-371.431"/>
</g>
<!-- scenes/menus.js -->
<g id="node34" class="node"><title>scenes/menus.js</title>
<path fill="none" stroke="#c6c5fe" d="M1588.83,-480.5C1588.83,-480.5 1480.17,-480.5 1480.17,-480.5 1476.33,-480.5 1472.5,-476.667 1472.5,-472.833 1472.5,-472.833 1472.5,-465.167 1472.5,-465.167 1472.5,-461.333 1476.33,-457.5 1480.17,-457.5 1480.17,-457.5 1588.83,-457.5 1588.83,-457.5 1592.67,-457.5 1596.5,-461.333 1596.5,-465.167 1596.5,-465.167 1596.5,-472.833 1596.5,-472.833 1596.5,-476.667 1592.67,-480.5 1588.83,-480.5"/>
<text text-anchor="middle" x="1534.5" y="-465.3" font-family="Arial" font-size="14.00" fill="#c6c5fe">scenes/menus.js</text>
</g>
<!-- scenes/sceneFunctions.js&#45;&gt;scenes/menus.js -->
<g id="edge54" class="edge"><title>scenes/sceneFunctions.js&#45;&gt;scenes/menus.js</title>
<path fill="none" stroke="#757575" d="M1191.28,-416.55C1208.86,-419.338 1227.6,-422.292 1245,-425 1319.03,-436.52 1403.79,-449.413 1462.19,-458.248"/>
<polygon fill="#757575" stroke="#757575" points="1462.01,-461.76 1472.42,-459.794 1463.05,-454.838 1462.01,-461.76"/>
</g>
<!-- scenes/sceneSymbols.js -->
<g id="node35" class="node"><title>scenes/sceneSymbols.js</title>
<path fill="none" stroke="#cfffac" d="M3004.33,-599.5C3004.33,-599.5 2843.67,-599.5 2843.67,-599.5 2839.83,-599.5 2836,-595.667 2836,-591.833 2836,-591.833 2836,-584.167 2836,-584.167 2836,-580.333 2839.83,-576.5 2843.67,-576.5 2843.67,-576.5 3004.33,-576.5 3004.33,-576.5 3008.17,-576.5 3012,-580.333 3012,-584.167 3012,-584.167 3012,-591.833 3012,-591.833 3012,-595.667 3008.17,-599.5 3004.33,-599.5"/>
<text text-anchor="middle" x="2924" y="-584.3" font-family="Arial" font-size="14.00" fill="#cfffac">scenes/sceneSymbols.js</text>
</g>
<!-- scenes/sceneFunctions.js&#45;&gt;scenes/sceneSymbols.js -->
<g id="edge55" class="edge"><title>scenes/sceneFunctions.js&#45;&gt;scenes/sceneSymbols.js</title>
<path fill="none" stroke="#757575" d="M1128.45,-416.802C1170.19,-467.47 1344.27,-664 1533.5,-664 1533.5,-664 1533.5,-664 1755,-664 2010.23,-664 2072.77,-702 2328,-702 2328,-702 2328,-702 2511,-702 2656.36,-702 2820.47,-635.266 2889.54,-603.915"/>
<polygon fill="#757575" stroke="#757575" points="2891.41,-606.912 2899.03,-599.558 2888.48,-600.55 2891.41,-606.912"/>
</g>
<!-- scenes/tests/testing.js -->
<g id="node39" class="node"><title>scenes/tests/testing.js</title>
<path fill="none" stroke="#cfffac" d="M1396.83,-416.5C1396.83,-416.5 1254.17,-416.5 1254.17,-416.5 1250.33,-416.5 1246.5,-412.667 1246.5,-408.833 1246.5,-408.833 1246.5,-401.167 1246.5,-401.167 1246.5,-397.333 1250.33,-393.5 1254.17,-393.5 1254.17,-393.5 1396.83,-393.5 1396.83,-393.5 1400.67,-393.5 1404.5,-397.333 1404.5,-401.167 1404.5,-401.167 1404.5,-408.833 1404.5,-408.833 1404.5,-412.667 1400.67,-416.5 1396.83,-416.5"/>
<text text-anchor="middle" x="1325.5" y="-401.3" font-family="Arial" font-size="14.00" fill="#cfffac">scenes/tests/testing.js</text>
</g>
<!-- scenes/sceneFunctions.js&#45;&gt;scenes/tests/testing.js -->
<g id="edge56" class="edge"><title>scenes/sceneFunctions.js&#45;&gt;scenes/tests/testing.js</title>
<path fill="none" stroke="#757575" d="M1209.14,-405C1218.15,-405 1227.29,-405 1236.28,-405"/>
<polygon fill="#757575" stroke="#757575" points="1236.35,-408.5 1246.35,-405 1236.35,-401.5 1236.35,-408.5"/>
</g>
<!-- actions/Player.js -->
<g id="node6" class="node"><title>actions/Player.js</title>
<path fill="none" stroke="#c6c5fe" d="M2208.33,-209.5C2208.33,-209.5 2104.67,-209.5 2104.67,-209.5 2100.83,-209.5 2097,-205.667 2097,-201.833 2097,-201.833 2097,-194.167 2097,-194.167 2097,-190.333 2100.83,-186.5 2104.67,-186.5 2104.67,-186.5 2208.33,-186.5 2208.33,-186.5 2212.17,-186.5 2216,-190.333 2216,-194.167 2216,-194.167 2216,-201.833 2216,-201.833 2216,-205.667 2212.17,-209.5 2208.33,-209.5"/>
<text text-anchor="middle" x="2156.5" y="-194.3" font-family="Arial" font-size="14.00" fill="#c6c5fe">actions/Player.js</text>
</g>
<!-- actions/Player.js&#45;&gt;store/store.js -->
<g id="edge5" class="edge"><title>actions/Player.js&#45;&gt;store/store.js</title>
<path fill="none" stroke="#757575" d="M2190.13,-209.552C2198.95,-213.443 2208.2,-218.279 2216,-224 2257.95,-254.787 2295.43,-303.709 2314.57,-330.974"/>
<polygon fill="#757575" stroke="#757575" points="2311.77,-333.09 2320.33,-339.333 2317.54,-329.114 2311.77,-333.09"/>
</g>
<!-- actions/playerMsg.js -->
<g id="node7" class="node"><title>actions/playerMsg.js</title>
<path fill="none" stroke="#cfffac" d="M2988.83,-343.5C2988.83,-343.5 2859.17,-343.5 2859.17,-343.5 2855.33,-343.5 2851.5,-339.667 2851.5,-335.833 2851.5,-335.833 2851.5,-328.167 2851.5,-328.167 2851.5,-324.333 2855.33,-320.5 2859.17,-320.5 2859.17,-320.5 2988.83,-320.5 2988.83,-320.5 2992.67,-320.5 2996.5,-324.333 2996.5,-328.167 2996.5,-328.167 2996.5,-335.833 2996.5,-335.833 2996.5,-339.667 2992.67,-343.5 2988.83,-343.5"/>
<text text-anchor="middle" x="2924" y="-328.3" font-family="Arial" font-size="14.00" fill="#cfffac">actions/playerMsg.js</text>
</g>
<!-- actions/Player.js&#45;&gt;actions/playerMsg.js -->
<g id="edge4" class="edge"><title>actions/Player.js&#45;&gt;actions/playerMsg.js</title>
<path fill="none" stroke="#757575" d="M2216.07,-193.478C2354.1,-183.701 2695.95,-164.855 2800,-209 2850.17,-230.287 2890.73,-282.687 2910.3,-311.755"/>
<polygon fill="#757575" stroke="#757575" points="2907.49,-313.858 2915.9,-320.304 2913.35,-310.022 2907.49,-313.858"/>
</g>
<!-- symbols/breastCup.js -->
<g id="node8" class="node"><title>symbols/breastCup.js</title>
<path fill="none" stroke="#c6c5fe" d="M2398.33,-89.5C2398.33,-89.5 2259.67,-89.5 2259.67,-89.5 2255.83,-89.5 2252,-85.6667 2252,-81.8333 2252,-81.8333 2252,-74.1667 2252,-74.1667 2252,-70.3333 2255.83,-66.5 2259.67,-66.5 2259.67,-66.5 2398.33,-66.5 2398.33,-66.5 2402.17,-66.5 2406,-70.3333 2406,-74.1667 2406,-74.1667 2406,-81.8333 2406,-81.8333 2406,-85.6667 2402.17,-89.5 2398.33,-89.5"/>
<text text-anchor="middle" x="2329" y="-74.3" font-family="Arial" font-size="14.00" fill="#c6c5fe">symbols/breastCup.js</text>
</g>
<!-- actions/Player.js&#45;&gt;symbols/breastCup.js -->
<g id="edge6" class="edge"><title>actions/Player.js&#45;&gt;symbols/breastCup.js</title>
<path fill="none" stroke="#757575" d="M2193.52,-186.493C2201.55,-182.761 2209.58,-177.992 2216,-172 2241,-148.664 2225.99,-126.206 2252,-104 2256.62,-100.055 2261.87,-96.7 2267.4,-93.848"/>
<polygon fill="#757575" stroke="#757575" points="2269.26,-96.8444 2276.91,-89.5083 2266.36,-90.4763 2269.26,-96.8444"/>
</g>
<!-- symbols/cockType.js -->
<g id="node9" class="node"><title>symbols/cockType.js</title>
<path fill="none" stroke="#cfffac" d="M2396.33,-169.5C2396.33,-169.5 2261.67,-169.5 2261.67,-169.5 2257.83,-169.5 2254,-165.667 2254,-161.833 2254,-161.833 2254,-154.167 2254,-154.167 2254,-150.333 2257.83,-146.5 2261.67,-146.5 2261.67,-146.5 2396.33,-146.5 2396.33,-146.5 2400.17,-146.5 2404,-150.333 2404,-154.167 2404,-154.167 2404,-161.833 2404,-161.833 2404,-165.667 2400.17,-169.5 2396.33,-169.5"/>
<text text-anchor="middle" x="2329" y="-154.3" font-family="Arial" font-size="14.00" fill="#cfffac">symbols/cockType.js</text>
</g>
<!-- actions/Player.js&#45;&gt;symbols/cockType.js -->
<g id="edge7" class="edge"><title>actions/Player.js&#45;&gt;symbols/cockType.js</title>
<path fill="none" stroke="#757575" d="M2206.82,-186.43C2226.26,-181.87 2248.75,-176.593 2269.03,-171.833"/>
<polygon fill="#757575" stroke="#757575" points="2269.86,-175.235 2278.8,-169.544 2268.26,-168.42 2269.86,-175.235"/>
</g>
<!-- symbols/vaginas.js -->
<g id="node10" class="node"><title>symbols/vaginas.js</title>
<path fill="none" stroke="#c6c5fe" d="M2570.33,-128.5C2570.33,-128.5 2449.67,-128.5 2449.67,-128.5 2445.83,-128.5 2442,-124.667 2442,-120.833 2442,-120.833 2442,-113.167 2442,-113.167 2442,-109.333 2445.83,-105.5 2449.67,-105.5 2449.67,-105.5 2570.33,-105.5 2570.33,-105.5 2574.17,-105.5 2578,-109.333 2578,-113.167 2578,-113.167 2578,-120.833 2578,-120.833 2578,-124.667 2574.17,-128.5 2570.33,-128.5"/>
<text text-anchor="middle" x="2510" y="-113.3" font-family="Arial" font-size="14.00" fill="#c6c5fe">symbols/vaginas.js</text>
</g>
<!-- actions/Player.js&#45;&gt;symbols/vaginas.js -->
<g id="edge8" class="edge"><title>actions/Player.js&#45;&gt;symbols/vaginas.js</title>
<path fill="none" stroke="#757575" d="M2188.94,-186.451C2198.02,-182.482 2207.71,-177.605 2216,-172 2234.48,-159.496 2231.67,-146.191 2252,-137 2308.41,-111.503 2378.9,-107.721 2431.78,-109.632"/>
<polygon fill="#757575" stroke="#757575" points="2431.64,-113.129 2441.78,-110.068 2431.94,-106.135 2431.64,-113.129"/>
</g>
<!-- utils.js -->
<g id="node32" class="node"><title>utils.js</title>
<path fill="none" stroke="#cfffac" d="M2944.33,-125.5C2944.33,-125.5 2903.67,-125.5 2903.67,-125.5 2899.83,-125.5 2896,-121.667 2896,-117.833 2896,-117.833 2896,-110.167 2896,-110.167 2896,-106.333 2899.83,-102.5 2903.67,-102.5 2903.67,-102.5 2944.33,-102.5 2944.33,-102.5 2948.17,-102.5 2952,-106.333 2952,-110.167 2952,-110.167 2952,-117.833 2952,-117.833 2952,-121.667 2948.17,-125.5 2944.33,-125.5"/>
<text text-anchor="middle" x="2924" y="-110.3" font-family="Arial" font-size="14.00" fill="#cfffac">utils.js</text>
</g>
<!-- symbols/breastCup.js&#45;&gt;utils.js -->
<g id="edge62" class="edge"><title>symbols/breastCup.js&#45;&gt;utils.js</title>
<path fill="none" stroke="#757575" d="M2406.01,-82.6143C2534.48,-90.4139 2789.94,-105.922 2885.64,-111.732"/>
<polygon fill="#757575" stroke="#757575" points="2885.52,-115.231 2895.72,-112.344 2885.95,-108.244 2885.52,-115.231"/>
</g>
<!-- symbols/vaginas.js&#45;&gt;utils.js -->
<g id="edge65" class="edge"><title>symbols/vaginas.js&#45;&gt;utils.js</title>
<path fill="none" stroke="#757575" d="M2578.11,-116.511C2665.73,-115.873 2816.1,-114.778 2885.68,-114.272"/>
<polygon fill="#757575" stroke="#757575" points="2885.76,-117.771 2895.73,-114.199 2885.71,-110.772 2885.76,-117.771"/>
</g>
<!-- actions/engineMsg.js -->
<g id="node11" class="node"><title>actions/engineMsg.js</title>
<path fill="none" stroke="#cfffac" d="M2773.83,-282.5C2773.83,-282.5 2640.17,-282.5 2640.17,-282.5 2636.33,-282.5 2632.5,-278.667 2632.5,-274.833 2632.5,-274.833 2632.5,-267.167 2632.5,-267.167 2632.5,-263.333 2636.33,-259.5 2640.17,-259.5 2640.17,-259.5 2773.83,-259.5 2773.83,-259.5 2777.67,-259.5 2781.5,-263.333 2781.5,-267.167 2781.5,-267.167 2781.5,-274.833 2781.5,-274.833 2781.5,-278.667 2777.67,-282.5 2773.83,-282.5"/>
<text text-anchor="middle" x="2707" y="-267.3" font-family="Arial" font-size="14.00" fill="#cfffac">actions/engineMsg.js</text>
</g>
<!-- appearance/appearance.js -->
<g id="node12" class="node"><title>appearance/appearance.js</title>
<path fill="none" stroke="#c6c5fe" d="M1619.33,-400.5C1619.33,-400.5 1449.67,-400.5 1449.67,-400.5 1445.83,-400.5 1442,-396.667 1442,-392.833 1442,-392.833 1442,-385.167 1442,-385.167 1442,-381.333 1445.83,-377.5 1449.67,-377.5 1449.67,-377.5 1619.33,-377.5 1619.33,-377.5 1623.17,-377.5 1627,-381.333 1627,-385.167 1627,-385.167 1627,-392.833 1627,-392.833 1627,-396.667 1623.17,-400.5 1619.33,-400.5"/>
<text text-anchor="middle" x="1534.5" y="-385.3" font-family="Arial" font-size="14.00" fill="#c6c5fe">appearance/appearance.js</text>
</g>
<!-- appearance/appearance.js&#45;&gt;store/store.js -->
<g id="edge9" class="edge"><title>appearance/appearance.js&#45;&gt;store/store.js</title>
<path fill="none" stroke="#757575" d="M1627.01,-388.358C1757.8,-386.854 2005.66,-381.822 2216,-365 2233.23,-363.622 2251.88,-361.532 2268.93,-359.384"/>
<polygon fill="#757575" stroke="#757575" points="2269.84,-362.796 2279.31,-358.045 2268.94,-355.853 2269.84,-362.796"/>
</g>
<!-- components/appRoot.js -->
<g id="node13" class="node"><title>components/appRoot.js</title>
<path fill="none" stroke="#c6c5fe" d="M298.333,-371.5C298.333,-371.5 145.667,-371.5 145.667,-371.5 141.833,-371.5 138,-367.667 138,-363.833 138,-363.833 138,-356.167 138,-356.167 138,-352.333 141.833,-348.5 145.667,-348.5 145.667,-348.5 298.333,-348.5 298.333,-348.5 302.167,-348.5 306,-352.333 306,-356.167 306,-356.167 306,-363.833 306,-363.833 306,-367.667 302.167,-371.5 298.333,-371.5"/>
<text text-anchor="middle" x="222" y="-356.3" font-family="Arial" font-size="14.00" fill="#c6c5fe">components/appRoot.js</text>
</g>
<!-- components/lowerButtons.js -->
<g id="node14" class="node"><title>components/lowerButtons.js</title>
<path fill="none" stroke="#c6c5fe" d="M529.333,-412.5C529.333,-412.5 349.667,-412.5 349.667,-412.5 345.833,-412.5 342,-408.667 342,-404.833 342,-404.833 342,-397.167 342,-397.167 342,-393.333 345.833,-389.5 349.667,-389.5 349.667,-389.5 529.333,-389.5 529.333,-389.5 533.167,-389.5 537,-393.333 537,-397.167 537,-397.167 537,-404.833 537,-404.833 537,-408.667 533.167,-412.5 529.333,-412.5"/>
<text text-anchor="middle" x="439.5" y="-397.3" font-family="Arial" font-size="14.00" fill="#c6c5fe">components/lowerButtons.js</text>
</g>
<!-- components/appRoot.js&#45;&gt;components/lowerButtons.js -->
<g id="edge10" class="edge"><title>components/appRoot.js&#45;&gt;components/lowerButtons.js</title>
<path fill="none" stroke="#757575" d="M283.602,-371.53C309.88,-376.529 340.817,-382.415 368.106,-387.607"/>
<polygon fill="#757575" stroke="#757575" points="367.502,-391.055 377.98,-389.486 368.81,-384.178 367.502,-391.055"/>
</g>
<!-- components/menuBar.js -->
<g id="node15" class="node"><title>components/menuBar.js</title>
<path fill="none" stroke="#c6c5fe" d="M516.833,-371.5C516.833,-371.5 362.167,-371.5 362.167,-371.5 358.333,-371.5 354.5,-367.667 354.5,-363.833 354.5,-363.833 354.5,-356.167 354.5,-356.167 354.5,-352.333 358.333,-348.5 362.167,-348.5 362.167,-348.5 516.833,-348.5 516.833,-348.5 520.667,-348.5 524.5,-352.333 524.5,-356.167 524.5,-356.167 524.5,-363.833 524.5,-363.833 524.5,-367.667 520.667,-371.5 516.833,-371.5"/>
<text text-anchor="middle" x="439.5" y="-356.3" font-family="Arial" font-size="14.00" fill="#c6c5fe">components/menuBar.js</text>
</g>
<!-- components/appRoot.js&#45;&gt;components/menuBar.js -->
<g id="edge11" class="edge"><title>components/appRoot.js&#45;&gt;components/menuBar.js</title>
<path fill="none" stroke="#757575" d="M306.01,-360C318.546,-360 331.556,-360 344.307,-360"/>
<polygon fill="#757575" stroke="#757575" points="344.465,-363.5 354.465,-360 344.465,-356.5 344.465,-363.5"/>
</g>
<!-- components/output.js -->
<g id="node16" class="node"><title>components/output.js</title>
<path fill="none" stroke="#cfffac" d="M507.833,-289.5C507.833,-289.5 371.167,-289.5 371.167,-289.5 367.333,-289.5 363.5,-285.667 363.5,-281.833 363.5,-281.833 363.5,-274.167 363.5,-274.167 363.5,-270.333 367.333,-266.5 371.167,-266.5 371.167,-266.5 507.833,-266.5 507.833,-266.5 511.667,-266.5 515.5,-270.333 515.5,-274.167 515.5,-274.167 515.5,-281.833 515.5,-281.833 515.5,-285.667 511.667,-289.5 507.833,-289.5"/>
<text text-anchor="middle" x="439.5" y="-274.3" font-family="Arial" font-size="14.00" fill="#cfffac">components/output.js</text>
</g>
<!-- components/appRoot.js&#45;&gt;components/output.js -->
<g id="edge12" class="edge"><title>components/appRoot.js&#45;&gt;components/output.js</title>
<path fill="none" stroke="#757575" d="M241.235,-348.456C263.986,-334.543 304.476,-311.372 342,-298 348.029,-295.852 354.356,-293.904 360.766,-292.144"/>
<polygon fill="#757575" stroke="#757575" points="362.069,-295.423 370.875,-289.532 360.317,-288.645 362.069,-295.423"/>
</g>
<!-- components/statBar.js -->
<g id="node17" class="node"><title>components/statBar.js</title>
<path fill="none" stroke="#c6c5fe" d="M510.833,-330.5C510.833,-330.5 368.167,-330.5 368.167,-330.5 364.333,-330.5 360.5,-326.667 360.5,-322.833 360.5,-322.833 360.5,-315.167 360.5,-315.167 360.5,-311.333 364.333,-307.5 368.167,-307.5 368.167,-307.5 510.833,-307.5 510.833,-307.5 514.667,-307.5 518.5,-311.333 518.5,-315.167 518.5,-315.167 518.5,-322.833 518.5,-322.833 518.5,-326.667 514.667,-330.5 510.833,-330.5"/>
<text text-anchor="middle" x="439.5" y="-315.3" font-family="Arial" font-size="14.00" fill="#c6c5fe">components/statBar.js</text>
</g>
<!-- components/appRoot.js&#45;&gt;components/statBar.js -->
<g id="edge13" class="edge"><title>components/appRoot.js&#45;&gt;components/statBar.js</title>
<path fill="none" stroke="#757575" d="M283.602,-348.47C309.88,-343.471 340.817,-337.585 368.106,-332.393"/>
<polygon fill="#757575" stroke="#757575" points="368.81,-335.822 377.98,-330.514 367.502,-328.945 368.81,-335.822"/>
</g>
<!-- components/buttonGrid.js -->
<g id="node19" class="node"><title>components/buttonGrid.js</title>
<path fill="none" stroke="#c6c5fe" d="M752.333,-401.5C752.333,-401.5 588.667,-401.5 588.667,-401.5 584.833,-401.5 581,-397.667 581,-393.833 581,-393.833 581,-386.167 581,-386.167 581,-382.333 584.833,-378.5 588.667,-378.5 588.667,-378.5 752.333,-378.5 752.333,-378.5 756.167,-378.5 760,-382.333 760,-386.167 760,-386.167 760,-393.833 760,-393.833 760,-397.667 756.167,-401.5 752.333,-401.5"/>
<text text-anchor="middle" x="670.5" y="-386.3" font-family="Arial" font-size="14.00" fill="#c6c5fe">components/buttonGrid.js</text>
</g>
<!-- components/lowerButtons.js&#45;&gt;components/buttonGrid.js -->
<g id="edge17" class="edge"><title>components/lowerButtons.js&#45;&gt;components/buttonGrid.js</title>
<path fill="none" stroke="#757575" d="M537.285,-396.351C548.313,-395.821 559.566,-395.281 570.621,-394.75"/>
<polygon fill="#757575" stroke="#757575" points="570.885,-398.241 580.705,-394.265 570.549,-391.249 570.885,-398.241"/>
</g>
<!-- components/menuBar.js&#45;&gt;components/buttonGrid.js -->
<g id="edge18" class="edge"><title>components/menuBar.js&#45;&gt;components/buttonGrid.js</title>
<path fill="none" stroke="#757575" d="M524.796,-371.043C539.965,-373.03 555.895,-375.117 571.415,-377.15"/>
<polygon fill="#757575" stroke="#757575" points="571.173,-380.649 581.543,-378.477 572.082,-373.708 571.173,-380.649"/>
</g>
<!-- components/spriteDisplay.js -->
<g id="node22" class="node"><title>components/spriteDisplay.js</title>
<path fill="none" stroke="#cfffac" d="M760.333,-268.5C760.333,-268.5 580.667,-268.5 580.667,-268.5 576.833,-268.5 573,-264.667 573,-260.833 573,-260.833 573,-253.167 573,-253.167 573,-249.333 576.833,-245.5 580.667,-245.5 580.667,-245.5 760.333,-245.5 760.333,-245.5 764.167,-245.5 768,-249.333 768,-253.167 768,-253.167 768,-260.833 768,-260.833 768,-264.667 764.167,-268.5 760.333,-268.5"/>
<text text-anchor="middle" x="670.5" y="-253.3" font-family="Arial" font-size="14.00" fill="#cfffac">components/spriteDisplay.js</text>
</g>
<!-- components/statBar.js&#45;&gt;components/spriteDisplay.js -->
<g id="edge21" class="edge"><title>components/statBar.js&#45;&gt;components/spriteDisplay.js</title>
<path fill="none" stroke="#757575" d="M506.723,-307.482C517.019,-304.867 527.413,-301.731 537,-298 554.262,-291.281 555.705,-283.633 573,-277 578.526,-274.881 584.321,-272.969 590.211,-271.247"/>
<polygon fill="#757575" stroke="#757575" points="591.457,-274.535 600.183,-268.526 589.614,-267.782 591.457,-274.535"/>
</g>
<!-- components/statDisplay.js -->
<g id="node24" class="node"><title>components/statDisplay.js</title>
<path fill="none" stroke="#c6c5fe" d="M753.833,-350.5C753.833,-350.5 587.167,-350.5 587.167,-350.5 583.333,-350.5 579.5,-346.667 579.5,-342.833 579.5,-342.833 579.5,-335.167 579.5,-335.167 579.5,-331.333 583.333,-327.5 587.167,-327.5 587.167,-327.5 753.833,-327.5 753.833,-327.5 757.667,-327.5 761.5,-331.333 761.5,-335.167 761.5,-335.167 761.5,-342.833 761.5,-342.833 761.5,-346.667 757.667,-350.5 753.833,-350.5"/>
<text text-anchor="middle" x="670.5" y="-335.3" font-family="Arial" font-size="14.00" fill="#c6c5fe">components/statDisplay.js</text>
</g>
<!-- components/statBar.js&#45;&gt;components/statDisplay.js -->
<g id="edge22" class="edge"><title>components/statBar.js&#45;&gt;components/statDisplay.js</title>
<path fill="none" stroke="#757575" d="M518.668,-325.827C534.871,-327.242 552.156,-328.752 569.028,-330.225"/>
<polygon fill="#757575" stroke="#757575" points="569.2,-333.753 579.467,-331.137 569.809,-326.78 569.2,-333.753"/>
</g>
<!-- components/timeDisplay.js -->
<g id="node25" class="node"><title>components/timeDisplay.js</title>
<path fill="none" stroke="#cfffac" d="M756.333,-309.5C756.333,-309.5 584.667,-309.5 584.667,-309.5 580.833,-309.5 577,-305.667 577,-301.833 577,-301.833 577,-294.167 577,-294.167 577,-290.333 580.833,-286.5 584.667,-286.5 584.667,-286.5 756.333,-286.5 756.333,-286.5 760.167,-286.5 764,-290.333 764,-294.167 764,-294.167 764,-301.833 764,-301.833 764,-305.667 760.167,-309.5 756.333,-309.5"/>
<text text-anchor="middle" x="670.5" y="-294.3" font-family="Arial" font-size="14.00" fill="#cfffac">components/timeDisplay.js</text>
</g>
<!-- components/statBar.js&#45;&gt;components/timeDisplay.js -->
<g id="edge23" class="edge"><title>components/statBar.js&#45;&gt;components/timeDisplay.js</title>
<path fill="none" stroke="#757575" d="M518.668,-311.832C534.119,-310.415 550.555,-308.908 566.679,-307.429"/>
<polygon fill="#757575" stroke="#757575" points="567.028,-310.912 576.666,-306.513 566.389,-303.941 567.028,-310.912"/>
</g>
<!-- components/button.js -->
<g id="node18" class="node"><title>components/button.js</title>
<path fill="none" stroke="#cfffac" d="M1186.33,-375.5C1186.33,-375.5 1049.67,-375.5 1049.67,-375.5 1045.83,-375.5 1042,-371.667 1042,-367.833 1042,-367.833 1042,-360.167 1042,-360.167 1042,-356.333 1045.83,-352.5 1049.67,-352.5 1049.67,-352.5 1186.33,-352.5 1186.33,-352.5 1190.17,-352.5 1194,-356.333 1194,-360.167 1194,-360.167 1194,-367.833 1194,-367.833 1194,-371.667 1190.17,-375.5 1186.33,-375.5"/>
<text text-anchor="middle" x="1118" y="-360.3" font-family="Arial" font-size="14.00" fill="#cfffac">components/button.js</text>
</g>
<!-- components/buttonGrid.js&#45;&gt;actions/Engine.js -->
<g id="edge14" class="edge"><title>components/buttonGrid.js&#45;&gt;actions/Engine.js</title>
<path fill="none" stroke="#757575" d="M760.103,-395.907C781.768,-397.351 804.672,-398.878 825.398,-400.26"/>
<polygon fill="#757575" stroke="#757575" points="825.172,-403.752 835.383,-400.926 825.638,-396.768 825.172,-403.752"/>
</g>
<!-- components/buttonWrap.js -->
<g id="node20" class="node"><title>components/buttonWrap.js</title>
<path fill="none" stroke="#c6c5fe" d="M983.333,-375.5C983.333,-375.5 811.667,-375.5 811.667,-375.5 807.833,-375.5 804,-371.667 804,-367.833 804,-367.833 804,-360.167 804,-360.167 804,-356.333 807.833,-352.5 811.667,-352.5 811.667,-352.5 983.333,-352.5 983.333,-352.5 987.167,-352.5 991,-356.333 991,-360.167 991,-360.167 991,-367.833 991,-367.833 991,-371.667 987.167,-375.5 983.333,-375.5"/>
<text text-anchor="middle" x="897.5" y="-360.3" font-family="Arial" font-size="14.00" fill="#c6c5fe">components/buttonWrap.js</text>
</g>
<!-- components/buttonGrid.js&#45;&gt;components/buttonWrap.js -->
<g id="edge15" class="edge"><title>components/buttonGrid.js&#45;&gt;components/buttonWrap.js</title>
<path fill="none" stroke="#757575" d="M760.103,-379.761C771.119,-378.488 782.455,-377.178 793.663,-375.883"/>
<polygon fill="#757575" stroke="#757575" points="794.374,-379.325 803.906,-374.7 793.571,-372.371 794.374,-379.325"/>
</g>
<!-- components/buttonWrap.js&#45;&gt;components/button.js -->
<g id="edge16" class="edge"><title>components/buttonWrap.js&#45;&gt;components/button.js</title>
<path fill="none" stroke="#757575" d="M991.164,-364C1004.6,-364 1018.39,-364 1031.67,-364"/>
<polygon fill="#757575" stroke="#757575" points="1031.72,-367.5 1041.72,-364 1031.72,-360.5 1031.72,-367.5"/>
</g>
<!-- components/nameInput.js -->
<g id="node21" class="node"><title>components/nameInput.js</title>
<path fill="none" stroke="#c6c5fe" d="M2053.33,-441.5C2053.33,-441.5 1888.67,-441.5 1888.67,-441.5 1884.83,-441.5 1881,-437.667 1881,-433.833 1881,-433.833 1881,-426.167 1881,-426.167 1881,-422.333 1884.83,-418.5 1888.67,-418.5 1888.67,-418.5 2053.33,-418.5 2053.33,-418.5 2057.17,-418.5 2061,-422.333 2061,-426.167 2061,-426.167 2061,-433.833 2061,-433.833 2061,-437.667 2057.17,-441.5 2053.33,-441.5"/>
<text text-anchor="middle" x="1971" y="-426.3" font-family="Arial" font-size="14.00" fill="#c6c5fe">components/nameInput.js</text>
</g>
<!-- components/nameInput.js&#45;&gt;store/store.js -->
<g id="edge20" class="edge"><title>components/nameInput.js&#45;&gt;store/store.js</title>
<path fill="none" stroke="#757575" d="M2061.16,-427.667C2107.97,-424.658 2165.86,-418.096 2216,-404 2245.9,-395.594 2277.7,-379.813 2299.74,-367.648"/>
<polygon fill="#757575" stroke="#757575" points="2301.56,-370.642 2308.56,-362.688 2298.13,-364.541 2301.56,-370.642"/>
</g>
<!-- components/nameInput.js&#45;&gt;actions/Player.js -->
<g id="edge19" class="edge"><title>components/nameInput.js&#45;&gt;actions/Player.js</title>
<path fill="none" stroke="#757575" d="M1982.09,-418.41C1998.82,-399.1 2033.21,-359.006 2061,-324 2090.22,-287.188 2122.81,-243.004 2141.06,-217.945"/>
<polygon fill="#757575" stroke="#757575" points="2144.06,-219.774 2147.11,-209.627 2138.4,-215.659 2144.06,-219.774"/>
</g>
<!-- components/stat.js -->
<g id="node23" class="node"><title>components/stat.js</title>
<path fill="none" stroke="#cfffac" d="M957.833,-334.5C957.833,-334.5 837.167,-334.5 837.167,-334.5 833.333,-334.5 829.5,-330.667 829.5,-326.833 829.5,-326.833 829.5,-319.167 829.5,-319.167 829.5,-315.333 833.333,-311.5 837.167,-311.5 837.167,-311.5 957.833,-311.5 957.833,-311.5 961.667,-311.5 965.5,-315.333 965.5,-319.167 965.5,-319.167 965.5,-326.833 965.5,-326.833 965.5,-330.667 961.667,-334.5 957.833,-334.5"/>
<text text-anchor="middle" x="897.5" y="-319.3" font-family="Arial" font-size="14.00" fill="#cfffac">components/stat.js</text>
</g>
<!-- components/statDisplay.js&#45;&gt;components/stat.js -->
<g id="edge24" class="edge"><title>components/statDisplay.js&#45;&gt;components/stat.js</title>
<path fill="none" stroke="#757575" d="M761.72,-332.584C780.804,-331.227 800.779,-329.807 819.327,-328.488"/>
<polygon fill="#757575" stroke="#757575" points="819.744,-331.967 829.471,-327.767 819.248,-324.985 819.744,-331.967"/>
</g>
<!-- index.js -->
<g id="node26" class="node"><title>index.js</title>
<path fill="none" stroke="#c6c5fe" d="M75.8333,-539.5C75.8333,-539.5 26.1667,-539.5 26.1667,-539.5 22.3333,-539.5 18.5,-535.667 18.5,-531.833 18.5,-531.833 18.5,-524.167 18.5,-524.167 18.5,-520.333 22.3333,-516.5 26.1667,-516.5 26.1667,-516.5 75.8333,-516.5 75.8333,-516.5 79.6667,-516.5 83.5,-520.333 83.5,-524.167 83.5,-524.167 83.5,-531.833 83.5,-531.833 83.5,-535.667 79.6667,-539.5 75.8333,-539.5"/>
<text text-anchor="middle" x="51" y="-524.3" font-family="Arial" font-size="14.00" fill="#c6c5fe">index.js</text>
</g>
<!-- index.js&#45;&gt;store/store.js -->
<g id="edge26" class="edge"><title>index.js&#45;&gt;store/store.js</title>
<path fill="none" stroke="#757575" d="M81.4455,-539.501C88.2231,-542.225 95.383,-545.164 102,-548 253.177,-612.783 274.027,-702 438.5,-702 438.5,-702 438.5,-702 1755,-702 2011.11,-702 2249.36,-443.863 2312.03,-370.332"/>
<polygon fill="#757575" stroke="#757575" points="2314.71,-372.579 2318.48,-362.678 2309.36,-368.067 2314.71,-372.579"/>
</g>
<!-- index.js&#45;&gt;components/appRoot.js -->
<g id="edge25" class="edge"><title>index.js&#45;&gt;components/appRoot.js</title>
<path fill="none" stroke="#757575" d="M63.6161,-516.453C92.3189,-487.92 166.807,-413.872 202.023,-378.865"/>
<polygon fill="#757575" stroke="#757575" points="204.678,-381.16 209.303,-371.628 199.743,-376.196 204.678,-381.16"/>
</g>
<!-- reducers/root.js&#45;&gt;actions/coreMsg.js -->
<g id="edge27" class="edge"><title>reducers/root.js&#45;&gt;actions/coreMsg.js</title>
<path fill="none" stroke="#757575" d="M2525.63,-362.732C2544.69,-377.26 2579.65,-401.386 2614,-412 2690.39,-435.601 2782.31,-438.53 2845.93,-436.841"/>
<polygon fill="#757575" stroke="#757575" points="2846.4,-440.328 2856.29,-436.518 2846.18,-433.331 2846.4,-440.328"/>
</g>
<!-- reducers/root.js&#45;&gt;actions/playerMsg.js -->
<g id="edge29" class="edge"><title>reducers/root.js&#45;&gt;actions/playerMsg.js</title>
<path fill="none" stroke="#757575" d="M2568.29,-348.358C2639.21,-345.087 2760.5,-339.494 2841.21,-335.772"/>
<polygon fill="#757575" stroke="#757575" points="2841.5,-339.262 2851.33,-335.305 2841.18,-332.27 2841.5,-339.262"/>
</g>
<!-- reducers/root.js&#45;&gt;actions/engineMsg.js -->
<g id="edge28" class="edge"><title>reducers/root.js&#45;&gt;actions/engineMsg.js</title>
<path fill="none" stroke="#757575" d="M2527.31,-339.312C2546.96,-325.761 2581.4,-303.672 2614,-291 2619.37,-288.913 2625,-287.022 2630.72,-285.312"/>
<polygon fill="#757575" stroke="#757575" points="2631.72,-288.667 2640.41,-282.603 2629.84,-281.926 2631.72,-288.667"/>
</g>
<!-- reducers/updateBodyArr.js -->
<g id="node28" class="node"><title>reducers/updateBodyArr.js</title>
<path fill="none" stroke="#c6c5fe" d="M2792.33,-403.5C2792.33,-403.5 2621.67,-403.5 2621.67,-403.5 2617.83,-403.5 2614,-399.667 2614,-395.833 2614,-395.833 2614,-388.167 2614,-388.167 2614,-384.333 2617.83,-380.5 2621.67,-380.5 2621.67,-380.5 2792.33,-380.5 2792.33,-380.5 2796.17,-380.5 2800,-384.333 2800,-388.167 2800,-388.167 2800,-395.833 2800,-395.833 2800,-399.667 2796.17,-403.5 2792.33,-403.5"/>
<text text-anchor="middle" x="2707" y="-388.3" font-family="Arial" font-size="14.00" fill="#c6c5fe">reducers/updateBodyArr.js</text>
</g>
<!-- reducers/root.js&#45;&gt;reducers/updateBodyArr.js -->
<g id="edge30" class="edge"><title>reducers/root.js&#45;&gt;reducers/updateBodyArr.js</title>
<path fill="none" stroke="#757575" d="M2565.84,-362.53C2589.3,-367.464 2616.87,-373.261 2641.33,-378.402"/>
<polygon fill="#757575" stroke="#757575" points="2640.73,-381.853 2651.24,-380.486 2642.17,-375.003 2640.73,-381.853"/>
</g>
<!-- reducers/updateStats.js -->
<g id="node29" class="node"><title>reducers/updateStats.js</title>
<path fill="none" stroke="#c6c5fe" d="M2782.83,-323.5C2782.83,-323.5 2631.17,-323.5 2631.17,-323.5 2627.33,-323.5 2623.5,-319.667 2623.5,-315.833 2623.5,-315.833 2623.5,-308.167 2623.5,-308.167 2623.5,-304.333 2627.33,-300.5 2631.17,-300.5 2631.17,-300.5 2782.83,-300.5 2782.83,-300.5 2786.67,-300.5 2790.5,-304.333 2790.5,-308.167 2790.5,-308.167 2790.5,-315.833 2790.5,-315.833 2790.5,-319.667 2786.67,-323.5 2782.83,-323.5"/>
<text text-anchor="middle" x="2707" y="-308.3" font-family="Arial" font-size="14.00" fill="#c6c5fe">reducers/updateStats.js</text>
</g>
<!-- reducers/root.js&#45;&gt;reducers/updateStats.js -->
<g id="edge31" class="edge"><title>reducers/root.js&#45;&gt;reducers/updateStats.js</title>
<path fill="none" stroke="#757575" d="M2568.19,-339.562C2590.22,-335.157 2615.57,-330.085 2638.48,-325.503"/>
<polygon fill="#757575" stroke="#757575" points="2639.36,-328.898 2648.47,-323.505 2637.98,-322.034 2639.36,-328.898"/>
</g>
<!-- reducers/updateTime.js -->
<g id="node30" class="node"><title>reducers/updateTime.js</title>
<path fill="none" stroke="#c6c5fe" d="M2782.83,-241.5C2782.83,-241.5 2631.17,-241.5 2631.17,-241.5 2627.33,-241.5 2623.5,-237.667 2623.5,-233.833 2623.5,-233.833 2623.5,-226.167 2623.5,-226.167 2623.5,-222.333 2627.33,-218.5 2631.17,-218.5 2631.17,-218.5 2782.83,-218.5 2782.83,-218.5 2786.67,-218.5 2790.5,-222.333 2790.5,-226.167 2790.5,-226.167 2790.5,-233.833 2790.5,-233.833 2790.5,-237.667 2786.67,-241.5 2782.83,-241.5"/>
<text text-anchor="middle" x="2707" y="-226.3" font-family="Arial" font-size="14.00" fill="#c6c5fe">reducers/updateTime.js</text>
</g>
<!-- reducers/root.js&#45;&gt;reducers/updateTime.js -->
<g id="edge32" class="edge"><title>reducers/root.js&#45;&gt;reducers/updateTime.js</title>
<path fill="none" stroke="#757575" d="M2519.41,-339.166C2535.29,-317.758 2571.9,-272.716 2614,-250 2617.29,-248.227 2620.72,-246.611 2624.24,-245.138"/>
<polygon fill="#757575" stroke="#757575" points="2625.63,-248.357 2633.76,-241.565 2623.17,-241.803 2625.63,-248.357"/>
</g>
<!-- store/initialState.js -->
<g id="node31" class="node"><title>store/initialState.js</title>
<path fill="none" stroke="#c6c5fe" d="M2764.83,-521.5C2764.83,-521.5 2649.17,-521.5 2649.17,-521.5 2645.33,-521.5 2641.5,-517.667 2641.5,-513.833 2641.5,-513.833 2641.5,-506.167 2641.5,-506.167 2641.5,-502.333 2645.33,-498.5 2649.17,-498.5 2649.17,-498.5 2764.83,-498.5 2764.83,-498.5 2768.67,-498.5 2772.5,-502.333 2772.5,-506.167 2772.5,-506.167 2772.5,-513.833 2772.5,-513.833 2772.5,-517.667 2768.67,-521.5 2764.83,-521.5"/>
<text text-anchor="middle" x="2707" y="-506.3" font-family="Arial" font-size="14.00" fill="#c6c5fe">store/initialState.js</text>
</g>
<!-- reducers/root.js&#45;&gt;store/initialState.js -->
<g id="edge33" class="edge"><title>reducers/root.js&#45;&gt;store/initialState.js</title>
<path fill="none" stroke="#757575" d="M2522.58,-362.668C2541.16,-381.161 2579.09,-417.98 2614,-446 2635.22,-463.034 2660.71,-480.557 2679.47,-492.951"/>
<polygon fill="#757575" stroke="#757575" points="2677.56,-495.878 2687.84,-498.431 2681.39,-490.023 2677.56,-495.878"/>
</g>
<!-- reducers/root.js&#45;&gt;utils.js -->
<g id="edge34" class="edge"><title>reducers/root.js&#45;&gt;utils.js</title>
<path fill="none" stroke="#757575" d="M2516.14,-339.487C2528.76,-312.508 2563.96,-244.783 2614,-209 2699.02,-148.207 2823.86,-125.589 2885.6,-117.776"/>
<polygon fill="#757575" stroke="#757575" points="2886.15,-121.235 2895.66,-116.564 2885.31,-114.285 2886.15,-121.235"/>
</g>
<!-- reducers/updateBodyArr.js&#45;&gt;actions/playerMsg.js -->
<g id="edge35" class="edge"><title>reducers/updateBodyArr.js&#45;&gt;actions/playerMsg.js</title>
<path fill="none" stroke="#757575" d="M2749.45,-380.431C2784.4,-370.678 2834.56,-356.682 2871.97,-346.241"/>
<polygon fill="#757575" stroke="#757575" points="2872.98,-349.592 2881.67,-343.533 2871.1,-342.85 2872.98,-349.592"/>
</g>
<!-- reducers/updateStats.js&#45;&gt;actions/coreMsg.js -->
<g id="edge36" class="edge"><title>reducers/updateStats.js&#45;&gt;actions/coreMsg.js</title>
<path fill="none" stroke="#757575" d="M2728.62,-323.506C2766.88,-344.865 2849.03,-390.713 2893.29,-415.418"/>
<polygon fill="#757575" stroke="#757575" points="2891.69,-418.535 2902.13,-420.352 2895.11,-412.423 2891.69,-418.535"/>
</g>
<!-- reducers/updateStats.js&#45;&gt;actions/playerMsg.js -->
<g id="edge37" class="edge"><title>reducers/updateStats.js&#45;&gt;actions/playerMsg.js</title>
<path fill="none" stroke="#757575" d="M2790.51,-319.675C2807.08,-321.217 2824.5,-322.837 2841.05,-324.377"/>
<polygon fill="#757575" stroke="#757575" points="2840.95,-327.882 2851.23,-325.324 2841.6,-320.913 2840.95,-327.882"/>
</g>
<!-- reducers/updateStats.js&#45;&gt;utils.js -->
<g id="edge38" class="edge"><title>reducers/updateStats.js&#45;&gt;utils.js</title>
<path fill="none" stroke="#757575" d="M2781.9,-300.398C2788.29,-297.853 2794.43,-294.759 2800,-291 2858.96,-251.184 2898.19,-172.881 2914.47,-135.219"/>
<polygon fill="#757575" stroke="#757575" points="2917.81,-136.315 2918.45,-125.74 2911.35,-133.604 2917.81,-136.315"/>
</g>
<!-- reducers/updateTime.js&#45;&gt;utils.js -->
<g id="edge39" class="edge"><title>reducers/updateTime.js&#45;&gt;utils.js</title>
<path fill="none" stroke="#757575" d="M2761.26,-218.42C2774.27,-214.657 2787.92,-209.891 2800,-204 2839.4,-184.794 2879.31,-152.758 2902.58,-132.539"/>
<polygon fill="#757575" stroke="#757575" points="2905.18,-134.911 2910.36,-125.67 2900.55,-129.661 2905.18,-134.911"/>
</g>
<!-- store/initialState.js&#45;&gt;scenes/sceneSymbols.js -->
<g id="edge60" class="edge"><title>store/initialState.js&#45;&gt;scenes/sceneSymbols.js</title>
<path fill="none" stroke="#757575" d="M2753.27,-521.587C2768.27,-525.745 2784.97,-530.721 2800,-536 2830.51,-546.714 2864.29,-561.19 2888.72,-572.148"/>
<polygon fill="#757575" stroke="#757575" points="2887.37,-575.379 2897.92,-576.309 2890.25,-569 2887.37,-575.379"/>
</g>
<!-- scenes/charCreation.js&#45;&gt;actions/Core.js -->
<g id="edge40" class="edge"><title>scenes/charCreation.js&#45;&gt;actions/Core.js</title>
<path fill="none" stroke="#757575" d="M1406.22,-353.252C1487.62,-352.489 1612.46,-351.318 1688.05,-350.609"/>
<polygon fill="#757575" stroke="#757575" points="1688.41,-354.106 1698.38,-350.512 1688.35,-347.106 1688.41,-354.106"/>
</g>
<!-- scenes/charCreation.js&#45;&gt;actions/Player.js -->
<g id="edge41" class="edge"><title>scenes/charCreation.js&#45;&gt;actions/Player.js</title>
<path fill="none" stroke="#757575" d="M1406.13,-348.016C1590.15,-334 2031.45,-299.233 2061,-286 2094.81,-270.86 2124.34,-238.603 2141.04,-217.633"/>
<polygon fill="#757575" stroke="#757575" points="2143.83,-219.734 2147.18,-209.682 2138.3,-215.453 2143.83,-219.734"/>
</g>
<!-- scenes/charCreation.js&#45;&gt;symbols/breastCup.js -->
<g id="edge46" class="edge"><title>scenes/charCreation.js&#45;&gt;symbols/breastCup.js</title>
<path fill="none" stroke="#757575" d="M1368.26,-342.492C1528.04,-298.457 2100.48,-140.701 2276.28,-92.2534"/>
<polygon fill="#757575" stroke="#757575" points="2277.35,-95.5882 2286.06,-89.5571 2275.49,-88.8398 2277.35,-95.5882"/>
</g>
<!-- scenes/charCreation.js&#45;&gt;appearance/appearance.js -->
<g id="edge42" class="edge"><title>scenes/charCreation.js&#45;&gt;appearance/appearance.js</title>
<path fill="none" stroke="#757575" d="M1394.57,-365.509C1414.02,-368.798 1435.38,-372.409 1455.38,-375.792"/>
<polygon fill="#757575" stroke="#757575" points="1454.95,-379.268 1465.39,-377.484 1456.12,-372.366 1454.95,-379.268"/>
</g>
<!-- scenes/charCreation.js&#45;&gt;scenes/menus.js -->
<g id="edge43" class="edge"><title>scenes/charCreation.js&#45;&gt;scenes/menus.js</title>
<path fill="none" stroke="#757575" d="M1372.6,-365.566C1384.34,-370.005 1396.34,-376 1406,-384 1429.65,-403.598 1417.54,-424.412 1442,-443 1448.29,-447.778 1455.42,-451.678 1462.86,-454.861"/>
<polygon fill="#757575" stroke="#757575" points="1461.81,-458.21 1472.4,-458.523 1464.32,-451.674 1461.81,-458.21"/>
</g>
<!-- scenes/charCreation.js&#45;&gt;scenes/sceneSymbols.js -->
<g id="edge44" class="edge"><title>scenes/charCreation.js&#45;&gt;scenes/sceneSymbols.js</title>
<path fill="none" stroke="#757575" d="M1377.15,-365.531C1387.75,-369.883 1398.09,-375.846 1406,-384 1440.35,-419.413 1408.62,-452.671 1442,-489 1544.19,-600.224 1601.96,-626 1753,-626 1753,-626 1753,-626 2511,-626 2623.17,-626 2751.79,-611.862 2835.06,-600.833"/>
<polygon fill="#757575" stroke="#757575" points="2835.53,-604.3 2844.98,-599.504 2834.6,-597.362 2835.53,-604.3"/>
</g>
<!-- scenes/sceneTextStore.js -->
<g id="node36" class="node"><title>scenes/sceneTextStore.js</title>
<path fill="none" stroke="#c6c5fe" d="M1837.33,-460.5C1837.33,-460.5 1670.67,-460.5 1670.67,-460.5 1666.83,-460.5 1663,-456.667 1663,-452.833 1663,-452.833 1663,-445.167 1663,-445.167 1663,-441.333 1666.83,-437.5 1670.67,-437.5 1670.67,-437.5 1837.33,-437.5 1837.33,-437.5 1841.17,-437.5 1845,-441.333 1845,-445.167 1845,-445.167 1845,-452.833 1845,-452.833 1845,-456.667 1841.17,-460.5 1837.33,-460.5"/>
<text text-anchor="middle" x="1754" y="-445.3" font-family="Arial" font-size="14.00" fill="#c6c5fe">scenes/sceneTextStore.js</text>
</g>
<!-- scenes/charCreation.js&#45;&gt;scenes/sceneTextStore.js -->
<g id="edge45" class="edge"><title>scenes/charCreation.js&#45;&gt;scenes/sceneTextStore.js</title>
<path fill="none" stroke="#757575" d="M1362.94,-365.62C1376.75,-370.573 1392.42,-376.862 1406,-384 1423.24,-393.063 1423.82,-402.002 1442,-409 1509.25,-434.888 1590.12,-444.699 1652.53,-448.136"/>
<polygon fill="#757575" stroke="#757575" points="1652.61,-451.645 1662.77,-448.653 1652.96,-444.654 1652.61,-451.645"/>
</g>
<!-- symbols/butt.js -->
<g id="node37" class="node"><title>symbols/butt.js</title>
<path fill="none" stroke="#c6c5fe" d="M2018.83,-41.5C2018.83,-41.5 1923.17,-41.5 1923.17,-41.5 1919.33,-41.5 1915.5,-37.6667 1915.5,-33.8333 1915.5,-33.8333 1915.5,-26.1667 1915.5,-26.1667 1915.5,-22.3333 1919.33,-18.5 1923.17,-18.5 1923.17,-18.5 2018.83,-18.5 2018.83,-18.5 2022.67,-18.5 2026.5,-22.3333 2026.5,-26.1667 2026.5,-26.1667 2026.5,-33.8333 2026.5,-33.8333 2026.5,-37.6667 2022.67,-41.5 2018.83,-41.5"/>
<text text-anchor="middle" x="1971" y="-26.3" font-family="Arial" font-size="14.00" fill="#c6c5fe">symbols/butt.js</text>
</g>
<!-- scenes/charCreation.js&#45;&gt;symbols/butt.js -->
<g id="edge47" class="edge"><title>scenes/charCreation.js&#45;&gt;symbols/butt.js</title>
<path fill="none" stroke="#757575" d="M1328.75,-342.412C1336.66,-304.901 1366.95,-185.989 1442,-130 1581.45,-25.9654 1797.92,-20.4352 1905.19,-25.1029"/>
<polygon fill="#757575" stroke="#757575" points="1905.07,-28.601 1915.23,-25.5835 1905.41,-21.609 1905.07,-28.601"/>
</g>
<!-- symbols/hips.js -->
<g id="node38" class="node"><title>symbols/hips.js</title>
<path fill="none" stroke="#c6c5fe" d="M2205.83,-90.5C2205.83,-90.5 2107.17,-90.5 2107.17,-90.5 2103.33,-90.5 2099.5,-86.6667 2099.5,-82.8333 2099.5,-82.8333 2099.5,-75.1667 2099.5,-75.1667 2099.5,-71.3333 2103.33,-67.5 2107.17,-67.5 2107.17,-67.5 2205.83,-67.5 2205.83,-67.5 2209.67,-67.5 2213.5,-71.3333 2213.5,-75.1667 2213.5,-75.1667 2213.5,-82.8333 2213.5,-82.8333 2213.5,-86.6667 2209.67,-90.5 2205.83,-90.5"/>
<text text-anchor="middle" x="2156.5" y="-75.3" font-family="Arial" font-size="14.00" fill="#c6c5fe">symbols/hips.js</text>
</g>
<!-- scenes/charCreation.js&#45;&gt;symbols/hips.js -->
<g id="edge48" class="edge"><title>scenes/charCreation.js&#45;&gt;symbols/hips.js</title>
<path fill="none" stroke="#757575" d="M1337.09,-342.431C1356.12,-322.361 1398.2,-281.124 1442,-259 1663.22,-147.263 1958.89,-101.508 2089.14,-85.8984"/>
<polygon fill="#757575" stroke="#757575" points="2089.83,-89.3413 2099.35,-84.6959 2089.01,-82.3893 2089.83,-89.3413"/>
</g>
<!-- scenes/menus.js&#45;&gt;actions/Core.js -->
<g id="edge49" class="edge"><title>scenes/menus.js&#45;&gt;actions/Core.js</title>
<path fill="none" stroke="#757575" d="M1556.75,-457.373C1595.57,-436.134 1678.06,-391.003 1722.73,-366.56"/>
<polygon fill="#757575" stroke="#757575" points="1724.57,-369.544 1731.66,-361.674 1721.21,-363.403 1724.57,-369.544"/>
</g>
<!-- scenes/menus.js&#45;&gt;scenes/sceneSymbols.js -->
<g id="edge50" class="edge"><title>scenes/menus.js&#45;&gt;scenes/sceneSymbols.js</title>
<path fill="none" stroke="#757575" d="M1559.84,-480.627C1624.83,-510.57 1808.49,-588 1970,-588 1970,-588 1970,-588 2511,-588 2618.63,-588 2742.08,-588 2825.56,-588"/>
<polygon fill="#757575" stroke="#757575" points="2825.79,-591.5 2835.79,-588 2825.79,-584.5 2825.79,-591.5"/>
</g>
<!-- scenes/menus.js&#45;&gt;scenes/sceneTextStore.js -->
<g id="edge51" class="edge"><title>scenes/menus.js&#45;&gt;scenes/sceneTextStore.js</title>
<path fill="none" stroke="#757575" d="M1596.66,-463.376C1614.03,-461.779 1633.4,-459.998 1652.44,-458.247"/>
<polygon fill="#757575" stroke="#757575" points="1653.02,-461.708 1662.66,-457.307 1652.38,-454.738 1653.02,-461.708"/>
</g>
<!-- scenes/sceneTextStore.js&#45;&gt;components/nameInput.js -->
<g id="edge58" class="edge"><title>scenes/sceneTextStore.js&#45;&gt;components/nameInput.js</title>
<path fill="none" stroke="#757575" d="M1845.24,-441.025C1853.58,-440.288 1862.05,-439.539 1870.46,-438.796"/>
<polygon fill="#757575" stroke="#757575" points="1871.02,-442.261 1880.68,-437.894 1870.41,-435.288 1871.02,-442.261"/>
</g>
<!-- scenes/sceneTextStore.js&#45;&gt;scenes/sceneSymbols.js -->
<g id="edge59" class="edge"><title>scenes/sceneTextStore.js&#45;&gt;scenes/sceneSymbols.js</title>
<path fill="none" stroke="#757575" d="M1781.61,-460.586C1845.03,-487.115 2010.65,-550 2155.5,-550 2155.5,-550 2155.5,-550 2511,-550 2623.17,-550 2751.79,-564.138 2835.06,-575.167"/>
<polygon fill="#757575" stroke="#757575" points="2834.6,-578.638 2844.98,-576.496 2835.53,-571.7 2834.6,-578.638"/>
</g>
<!-- symbols/butt.js&#45;&gt;utils.js -->
<g id="edge63" class="edge"><title>symbols/butt.js&#45;&gt;utils.js</title>
<path fill="none" stroke="#757575" d="M2026.77,-22.5071C2096.56,-13.6213 2221.01,-0 2328,-0 2328,-0 2328,-0 2511,-0 2642.27,-0 2674.88,-21.2743 2800,-61 2831.7,-71.0633 2866.36,-86.4238 2890.79,-98.0222"/>
<polygon fill="#757575" stroke="#757575" points="2889.42,-101.245 2899.95,-102.421 2892.45,-94.9357 2889.42,-101.245"/>
</g>
<!-- symbols/hips.js&#45;&gt;utils.js -->
<g id="edge64" class="edge"><title>symbols/hips.js&#45;&gt;utils.js</title>
<path fill="none" stroke="#757575" d="M2198.08,-67.4076C2214.65,-63.2376 2234.09,-59.0568 2252,-57 2494.46,-29.1498 2558.1,-59.6863 2800,-92 2828.97,-95.8704 2861.52,-101.762 2885.86,-106.474"/>
<polygon fill="#757575" stroke="#757575" points="2885.26,-109.924 2895.75,-108.412 2886.61,-103.055 2885.26,-109.924"/>
</g>
<!-- setupTests.js -->
<g id="node40" class="node"><title>setupTests.js</title>
<path fill="none" stroke="#cfffac" d="M94.3333,-580.5C94.3333,-580.5 7.66667,-580.5 7.66667,-580.5 3.83333,-580.5 0,-576.667 0,-572.833 0,-572.833 0,-565.167 0,-565.167 0,-561.333 3.83333,-557.5 7.66667,-557.5 7.66667,-557.5 94.3333,-557.5 94.3333,-557.5 98.1667,-557.5 102,-561.333 102,-565.167 102,-565.167 102,-572.833 102,-572.833 102,-576.667 98.1667,-580.5 94.3333,-580.5"/>
<text text-anchor="middle" x="51" y="-565.3" font-family="Arial" font-size="14.00" fill="#cfffac">setupTests.js</text>
</g>
</g>
</svg>
