<?xml version="1.0" encoding="UTF-8" standalone="no"?>
<!DOCTYPE svg PUBLIC "-//W3C//DTD SVG 1.1//EN"
 "http://www.w3.org/Graphics/SVG/1.1/DTD/svg11.dtd">
<!-- Generated by graphviz version 2.38.0 (20140413.2041)
 -->
<!-- Title: G Pages: 1 -->
<svg width="3440pt" height="943pt"
 viewBox="0.00 0.00 3440.20 942.63" xmlns="http://www.w3.org/2000/svg" xmlns:xlink="http://www.w3.org/1999/xlink">
<g id="graph0" class="graph" transform="scale(1 1) rotate(0) translate(21.6 921.03)">
<title>G</title>
<polygon fill="#111111" stroke="none" points="-21.6,21.6 -21.6,-921.03 3418.6,-921.03 3418.6,21.6 -21.6,21.6"/>
<!-- actions/Core.js -->
<g id="node1" class="node"><title>actions/Core.js</title>
<path fill="none" stroke="#c6c5fe" d="M1776.83,-470.5C1776.83,-470.5 1681.17,-470.5 1681.17,-470.5 1677.33,-470.5 1673.5,-466.667 1673.5,-462.833 1673.5,-462.833 1673.5,-455.167 1673.5,-455.167 1673.5,-451.333 1677.33,-447.5 1681.17,-447.5 1681.17,-447.5 1776.83,-447.5 1776.83,-447.5 1780.67,-447.5 1784.5,-451.333 1784.5,-455.167 1784.5,-455.167 1784.5,-462.833 1784.5,-462.833 1784.5,-466.667 1780.67,-470.5 1776.83,-470.5"/>
<text text-anchor="middle" x="1729" y="-455.3" font-family="Arial" font-size="14.00" fill="#c6c5fe">actions/Core.js</text>
</g>
<!-- actions/coreMsg.js -->
<g id="node2" class="node"><title>actions/coreMsg.js</title>
<path fill="none" stroke="#cfffac" d="M3024.83,-220.5C3024.83,-220.5 2905.17,-220.5 2905.17,-220.5 2901.33,-220.5 2897.5,-216.667 2897.5,-212.833 2897.5,-212.833 2897.5,-205.167 2897.5,-205.167 2897.5,-201.333 2901.33,-197.5 2905.17,-197.5 2905.17,-197.5 3024.83,-197.5 3024.83,-197.5 3028.67,-197.5 3032.5,-201.333 3032.5,-205.167 3032.5,-205.167 3032.5,-212.833 3032.5,-212.833 3032.5,-216.667 3028.67,-220.5 3024.83,-220.5"/>
<text text-anchor="middle" x="2965" y="-205.3" font-family="Arial" font-size="14.00" fill="#cfffac">actions/coreMsg.js</text>
</g>
<!-- actions/Core.js&#45;&gt;actions/coreMsg.js -->
<g id="edge1" class="edge"><title>actions/Core.js&#45;&gt;actions/coreMsg.js</title>
<path fill="none" stroke="#757575" d="M1784.52,-462.963C1985.31,-476.372 2680.19,-511.925 2841,-375 2893.2,-330.552 2827.24,-272.161 2877,-225 2880.35,-221.824 2884.11,-219.174 2888.15,-216.969"/>
<polygon fill="#757575" stroke="#757575" points="2889.67,-220.121 2897.35,-212.823 2886.8,-213.738 2889.67,-220.121"/>
</g>
<!-- store/store.js -->
<g id="node3" class="node"><title>store/store.js</title>
<path fill="none" stroke="#c6c5fe" d="M2411.83,-366.5C2411.83,-366.5 2328.17,-366.5 2328.17,-366.5 2324.33,-366.5 2320.5,-362.667 2320.5,-358.833 2320.5,-358.833 2320.5,-351.167 2320.5,-351.167 2320.5,-347.333 2324.33,-343.5 2328.17,-343.5 2328.17,-343.5 2411.83,-343.5 2411.83,-343.5 2415.67,-343.5 2419.5,-347.333 2419.5,-351.167 2419.5,-351.167 2419.5,-358.833 2419.5,-358.833 2419.5,-362.667 2415.67,-366.5 2411.83,-366.5"/>
<text text-anchor="middle" x="2370" y="-351.3" font-family="Arial" font-size="14.00" fill="#c6c5fe">store/store.js</text>
</g>
<!-- actions/Core.js&#45;&gt;store/store.js -->
<g id="edge2" class="edge"><title>actions/Core.js&#45;&gt;store/store.js</title>
<path fill="none" stroke="#757575" d="M1759.06,-447.442C1784.29,-437.858 1822.02,-424.613 1856,-417 2031.15,-377.752 2078.83,-390.799 2257,-369 2274.4,-366.871 2293.31,-364.521 2310.56,-362.364"/>
<polygon fill="#757575" stroke="#757575" points="2311.01,-365.835 2320.49,-361.119 2310.14,-358.889 2311.01,-365.835"/>
</g>
<!-- reducers/root.js -->
<g id="node31" class="node"><title>reducers/root.js</title>
<path fill="none" stroke="#c6c5fe" d="M2601.33,-286.5C2601.33,-286.5 2500.67,-286.5 2500.67,-286.5 2496.83,-286.5 2493,-282.667 2493,-278.833 2493,-278.833 2493,-271.167 2493,-271.167 2493,-267.333 2496.83,-263.5 2500.67,-263.5 2500.67,-263.5 2601.33,-263.5 2601.33,-263.5 2605.17,-263.5 2609,-267.333 2609,-271.167 2609,-271.167 2609,-278.833 2609,-278.833 2609,-282.667 2605.17,-286.5 2601.33,-286.5"/>
<text text-anchor="middle" x="2551" y="-271.3" font-family="Arial" font-size="14.00" fill="#c6c5fe">reducers/root.js</text>
</g>
<!-- store/store.js&#45;&gt;reducers/root.js -->
<g id="edge79" class="edge"><title>store/store.js&#45;&gt;reducers/root.js</title>
<path fill="none" stroke="#757575" d="M2397.03,-343.367C2428.14,-329.464 2480.33,-306.139 2514.96,-290.66"/>
<polygon fill="#757575" stroke="#757575" points="2516.53,-293.793 2524.23,-286.517 2513.67,-287.402 2516.53,-293.793"/>
</g>
<!-- actions/Engine.js -->
<g id="node4" class="node"><title>actions/Engine.js</title>
<path fill="none" stroke="#c6c5fe" d="M987.833,-470.5C987.833,-470.5 879.167,-470.5 879.167,-470.5 875.333,-470.5 871.5,-466.667 871.5,-462.833 871.5,-462.833 871.5,-455.167 871.5,-455.167 871.5,-451.333 875.333,-447.5 879.167,-447.5 879.167,-447.5 987.833,-447.5 987.833,-447.5 991.667,-447.5 995.5,-451.333 995.5,-455.167 995.5,-455.167 995.5,-462.833 995.5,-462.833 995.5,-466.667 991.667,-470.5 987.833,-470.5"/>
<text text-anchor="middle" x="933.5" y="-455.3" font-family="Arial" font-size="14.00" fill="#c6c5fe">actions/Engine.js</text>
</g>
<!-- scenes/sceneFunctions.js -->
<g id="node5" class="node"><title>scenes/sceneFunctions.js</title>
<path fill="none" stroke="#c6c5fe" d="M1237.33,-470.5C1237.33,-470.5 1070.67,-470.5 1070.67,-470.5 1066.83,-470.5 1063,-466.667 1063,-462.833 1063,-462.833 1063,-455.167 1063,-455.167 1063,-451.333 1066.83,-447.5 1070.67,-447.5 1070.67,-447.5 1237.33,-447.5 1237.33,-447.5 1241.17,-447.5 1245,-451.333 1245,-455.167 1245,-455.167 1245,-462.833 1245,-462.833 1245,-466.667 1241.17,-470.5 1237.33,-470.5"/>
<text text-anchor="middle" x="1154" y="-455.3" font-family="Arial" font-size="14.00" fill="#c6c5fe">scenes/sceneFunctions.js</text>
</g>
<!-- actions/Engine.js&#45;&gt;scenes/sceneFunctions.js -->
<g id="edge3" class="edge"><title>actions/Engine.js&#45;&gt;scenes/sceneFunctions.js</title>
<path fill="none" stroke="#757575" d="M995.655,-459C1013.39,-459 1033.25,-459 1052.72,-459"/>
<polygon fill="#757575" stroke="#757575" points="1052.85,-462.5 1062.85,-459 1052.85,-455.5 1052.85,-462.5"/>
</g>
<!-- scenes/sceneFunctions.js&#45;&gt;actions/Core.js -->
<g id="edge61" class="edge"><title>scenes/sceneFunctions.js&#45;&gt;actions/Core.js</title>
<path fill="none" stroke="#757575" d="M1245.16,-459C1361.41,-459 1560.74,-459 1663.12,-459"/>
<polygon fill="#757575" stroke="#757575" points="1663.32,-462.5 1673.32,-459 1663.32,-455.5 1663.32,-462.5"/>
</g>
<!-- scenes/sceneFunctions.js&#45;&gt;store/store.js -->
<g id="edge66" class="edge"><title>scenes/sceneFunctions.js&#45;&gt;store/store.js</title>
<path fill="none" stroke="#757575" d="M1174.35,-447.458C1198.48,-433.584 1241.4,-410.599 1281,-398 1391.78,-362.758 1422.75,-355 1539,-355 1539,-355 1539,-355 1947,-355 2076.63,-355 2228.65,-355 2310.2,-355"/>
<polygon fill="#757575" stroke="#757575" points="2310.26,-358.5 2320.26,-355 2310.26,-351.5 2310.26,-358.5"/>
</g>
<!-- scenes/charCreation.js -->
<g id="node38" class="node"><title>scenes/charCreation.js</title>
<path fill="none" stroke="#c6c5fe" d="M1434.33,-664.5C1434.33,-664.5 1288.67,-664.5 1288.67,-664.5 1284.83,-664.5 1281,-660.667 1281,-656.833 1281,-656.833 1281,-649.167 1281,-649.167 1281,-645.333 1284.83,-641.5 1288.67,-641.5 1288.67,-641.5 1434.33,-641.5 1434.33,-641.5 1438.17,-641.5 1442,-645.333 1442,-649.167 1442,-649.167 1442,-656.833 1442,-656.833 1442,-660.667 1438.17,-664.5 1434.33,-664.5"/>
<text text-anchor="middle" x="1361.5" y="-649.3" font-family="Arial" font-size="14.00" fill="#c6c5fe">scenes/charCreation.js</text>
</g>
<!-- scenes/sceneFunctions.js&#45;&gt;scenes/charCreation.js -->
<g id="edge62" class="edge"><title>scenes/sceneFunctions.js&#45;&gt;scenes/charCreation.js</title>
<path fill="none" stroke="#757575" d="M1229.18,-470.507C1234.77,-472.846 1240.12,-475.648 1245,-479 1274.33,-499.141 1326.58,-590.672 1349.36,-632.29"/>
<polygon fill="#757575" stroke="#757575" points="1346.39,-634.161 1354.24,-641.275 1352.54,-630.817 1346.39,-634.161"/>
</g>
<!-- scenes/menus.js -->
<g id="node39" class="node"><title>scenes/menus.js</title>
<path fill="none" stroke="#c6c5fe" d="M1594.33,-510.5C1594.33,-510.5 1485.67,-510.5 1485.67,-510.5 1481.83,-510.5 1478,-506.667 1478,-502.833 1478,-502.833 1478,-495.167 1478,-495.167 1478,-491.333 1481.83,-487.5 1485.67,-487.5 1485.67,-487.5 1594.33,-487.5 1594.33,-487.5 1598.17,-487.5 1602,-491.333 1602,-495.167 1602,-495.167 1602,-502.833 1602,-502.833 1602,-506.667 1598.17,-510.5 1594.33,-510.5"/>
<text text-anchor="middle" x="1540" y="-495.3" font-family="Arial" font-size="14.00" fill="#c6c5fe">scenes/menus.js</text>
</g>
<!-- scenes/sceneFunctions.js&#45;&gt;scenes/menus.js -->
<g id="edge63" class="edge"><title>scenes/sceneFunctions.js&#45;&gt;scenes/menus.js</title>
<path fill="none" stroke="#757575" d="M1245.15,-469.13C1257.2,-470.451 1269.4,-471.771 1281,-473 1344.16,-479.692 1416.07,-486.905 1467.9,-492.032"/>
<polygon fill="#757575" stroke="#757575" points="1467.7,-495.529 1477.99,-493.029 1468.38,-488.563 1467.7,-495.529"/>
</g>
<!-- scenes/sceneSymbols.js -->
<g id="node40" class="node"><title>scenes/sceneSymbols.js</title>
<path fill="none" stroke="#cfffac" d="M3045.33,-743.5C3045.33,-743.5 2884.67,-743.5 2884.67,-743.5 2880.83,-743.5 2877,-739.667 2877,-735.833 2877,-735.833 2877,-728.167 2877,-728.167 2877,-724.333 2880.83,-720.5 2884.67,-720.5 2884.67,-720.5 3045.33,-720.5 3045.33,-720.5 3049.17,-720.5 3053,-724.333 3053,-728.167 3053,-728.167 3053,-735.833 3053,-735.833 3053,-739.667 3049.17,-743.5 3045.33,-743.5"/>
<text text-anchor="middle" x="2965" y="-728.3" font-family="Arial" font-size="14.00" fill="#cfffac">scenes/sceneSymbols.js</text>
</g>
<!-- scenes/sceneFunctions.js&#45;&gt;scenes/sceneSymbols.js -->
<g id="edge64" class="edge"><title>scenes/sceneFunctions.js&#45;&gt;scenes/sceneSymbols.js</title>
<path fill="none" stroke="#757575" d="M1234.6,-470.662C1238.38,-473.017 1241.89,-475.776 1245,-479 1305.91,-542.091 1239.76,-595.607 1281,-673 1350.92,-804.229 1390.3,-886 1539,-886 1539,-886 1539,-886 1730,-886 2181.59,-886 2719.05,-783.188 2900.56,-745.574"/>
<polygon fill="#757575" stroke="#757575" points="2901.4,-748.976 2910.47,-743.512 2899.97,-742.123 2901.4,-748.976"/>
</g>
<!-- scenes/tests/testing.js -->
<g id="node44" class="node"><title>scenes/tests/testing.js</title>
<path fill="none" stroke="#cfffac" d="M1432.83,-430.5C1432.83,-430.5 1290.17,-430.5 1290.17,-430.5 1286.33,-430.5 1282.5,-426.667 1282.5,-422.833 1282.5,-422.833 1282.5,-415.167 1282.5,-415.167 1282.5,-411.333 1286.33,-407.5 1290.17,-407.5 1290.17,-407.5 1432.83,-407.5 1432.83,-407.5 1436.67,-407.5 1440.5,-411.333 1440.5,-415.167 1440.5,-415.167 1440.5,-422.833 1440.5,-422.833 1440.5,-426.667 1436.67,-430.5 1432.83,-430.5"/>
<text text-anchor="middle" x="1361.5" y="-415.3" font-family="Arial" font-size="14.00" fill="#cfffac">scenes/tests/testing.js</text>
</g>
<!-- scenes/sceneFunctions.js&#45;&gt;scenes/tests/testing.js -->
<g id="edge65" class="edge"><title>scenes/sceneFunctions.js&#45;&gt;scenes/tests/testing.js</title>
<path fill="none" stroke="#757575" d="M1214.16,-447.484C1238.34,-442.777 1266.48,-437.301 1291.58,-432.415"/>
<polygon fill="#757575" stroke="#757575" points="1292.25,-435.85 1301.4,-430.504 1290.91,-428.979 1292.25,-435.85"/>
</g>
<!-- actions/Perks.js -->
<g id="node6" class="node"><title>actions/Perks.js</title>
<path fill="none" stroke="#c6c5fe" d="M2214.83,-288.5C2214.83,-288.5 2114.17,-288.5 2114.17,-288.5 2110.33,-288.5 2106.5,-284.667 2106.5,-280.833 2106.5,-280.833 2106.5,-273.167 2106.5,-273.167 2106.5,-269.333 2110.33,-265.5 2114.17,-265.5 2114.17,-265.5 2214.83,-265.5 2214.83,-265.5 2218.67,-265.5 2222.5,-269.333 2222.5,-273.167 2222.5,-273.167 2222.5,-280.833 2222.5,-280.833 2222.5,-284.667 2218.67,-288.5 2214.83,-288.5"/>
<text text-anchor="middle" x="2164.5" y="-273.3" font-family="Arial" font-size="14.00" fill="#c6c5fe">actions/Perks.js</text>
</g>
<!-- actions/Perks.js&#45;&gt;store/store.js -->
<g id="edge5" class="edge"><title>actions/Perks.js&#45;&gt;store/store.js</title>
<path fill="none" stroke="#757575" d="M2211.57,-288.562C2226.25,-292.651 2242.45,-297.593 2257,-303 2284.96,-313.388 2315.61,-327.843 2337.76,-338.877"/>
<polygon fill="#757575" stroke="#757575" points="2336.2,-342.009 2346.71,-343.374 2339.35,-335.755 2336.2,-342.009"/>
</g>
<!-- actions/engineMsg.js -->
<g id="node7" class="node"><title>actions/engineMsg.js</title>
<path fill="none" stroke="#cfffac" d="M3389.33,-49.5C3389.33,-49.5 3255.67,-49.5 3255.67,-49.5 3251.83,-49.5 3248,-45.6667 3248,-41.8333 3248,-41.8333 3248,-34.1667 3248,-34.1667 3248,-30.3333 3251.83,-26.5 3255.67,-26.5 3255.67,-26.5 3389.33,-26.5 3389.33,-26.5 3393.17,-26.5 3397,-30.3333 3397,-34.1667 3397,-34.1667 3397,-41.8333 3397,-41.8333 3397,-45.6667 3393.17,-49.5 3389.33,-49.5"/>
<text text-anchor="middle" x="3322.5" y="-34.3" font-family="Arial" font-size="14.00" fill="#cfffac">actions/engineMsg.js</text>
</g>
<!-- actions/Perks.js&#45;&gt;actions/engineMsg.js -->
<g id="edge4" class="edge"><title>actions/Perks.js&#45;&gt;actions/engineMsg.js</title>
<path fill="none" stroke="#757575" d="M2173.14,-265.45C2208.85,-213.026 2365.3,-0 2550,-0 2550,-0 2550,-0 2966,-0 3075.69,-0 3103.12,-6.64784 3212,-20 3223.24,-21.3784 3235.09,-23.0729 3246.68,-24.8655"/>
<polygon fill="#757575" stroke="#757575" points="3246.35,-28.357 3256.78,-26.4607 3247.45,-21.4427 3246.35,-28.357"/>
</g>
<!-- actions/Player.js -->
<g id="node8" class="node"><title>actions/Player.js</title>
<path fill="none" stroke="#c6c5fe" d="M2216.33,-520.5C2216.33,-520.5 2112.67,-520.5 2112.67,-520.5 2108.83,-520.5 2105,-516.667 2105,-512.833 2105,-512.833 2105,-505.167 2105,-505.167 2105,-501.333 2108.83,-497.5 2112.67,-497.5 2112.67,-497.5 2216.33,-497.5 2216.33,-497.5 2220.17,-497.5 2224,-501.333 2224,-505.167 2224,-505.167 2224,-512.833 2224,-512.833 2224,-516.667 2220.17,-520.5 2216.33,-520.5"/>
<text text-anchor="middle" x="2164.5" y="-505.3" font-family="Arial" font-size="14.00" fill="#c6c5fe">actions/Player.js</text>
</g>
<!-- actions/Player.js&#45;&gt;store/store.js -->
<g id="edge7" class="edge"><title>actions/Player.js&#45;&gt;store/store.js</title>
<path fill="none" stroke="#757575" d="M2224.41,-499.579C2236.02,-495.785 2247.53,-490.464 2257,-483 2282.63,-462.794 2272.18,-444.136 2293,-419 2307.76,-401.177 2327.92,-384.458 2343.77,-372.58"/>
<polygon fill="#757575" stroke="#757575" points="2346.07,-375.236 2352.07,-366.504 2341.93,-369.588 2346.07,-375.236"/>
</g>
<!-- actions/playerMsg.js -->
<g id="node9" class="node"><title>actions/playerMsg.js</title>
<path fill="none" stroke="#cfffac" d="M3029.83,-140.5C3029.83,-140.5 2900.17,-140.5 2900.17,-140.5 2896.33,-140.5 2892.5,-136.667 2892.5,-132.833 2892.5,-132.833 2892.5,-125.167 2892.5,-125.167 2892.5,-121.333 2896.33,-117.5 2900.17,-117.5 2900.17,-117.5 3029.83,-117.5 3029.83,-117.5 3033.67,-117.5 3037.5,-121.333 3037.5,-125.167 3037.5,-125.167 3037.5,-132.833 3037.5,-132.833 3037.5,-136.667 3033.67,-140.5 3029.83,-140.5"/>
<text text-anchor="middle" x="2965" y="-125.3" font-family="Arial" font-size="14.00" fill="#cfffac">actions/playerMsg.js</text>
</g>
<!-- actions/Player.js&#45;&gt;actions/playerMsg.js -->
<g id="edge6" class="edge"><title>actions/Player.js&#45;&gt;actions/playerMsg.js</title>
<path fill="none" stroke="#757575" d="M2219.21,-497.462C2282.67,-481.061 2387.17,-444.909 2447,-375 2483.48,-332.372 2450.24,-299.552 2483,-254 2537.57,-178.119 2566.08,-161.78 2655,-133 2729.25,-108.969 2818.89,-110.957 2882.46,-117.153"/>
<polygon fill="#757575" stroke="#757575" points="2882.12,-120.637 2892.43,-118.181 2882.84,-113.674 2882.12,-120.637"/>
</g>
<!-- symbols/breastCup.js -->
<g id="node10" class="node"><title>symbols/breastCup.js</title>
<path fill="none" stroke="#c6c5fe" d="M2439.33,-682.5C2439.33,-682.5 2300.67,-682.5 2300.67,-682.5 2296.83,-682.5 2293,-678.667 2293,-674.833 2293,-674.833 2293,-667.167 2293,-667.167 2293,-663.333 2296.83,-659.5 2300.67,-659.5 2300.67,-659.5 2439.33,-659.5 2439.33,-659.5 2443.17,-659.5 2447,-663.333 2447,-667.167 2447,-667.167 2447,-674.833 2447,-674.833 2447,-678.667 2443.17,-682.5 2439.33,-682.5"/>
<text text-anchor="middle" x="2370" y="-667.3" font-family="Arial" font-size="14.00" fill="#c6c5fe">symbols/breastCup.js</text>
</g>
<!-- actions/Player.js&#45;&gt;symbols/breastCup.js -->
<g id="edge8" class="edge"><title>actions/Player.js&#45;&gt;symbols/breastCup.js</title>
<path fill="none" stroke="#757575" d="M2180.14,-520.651C2215.26,-548.614 2304.54,-619.684 2346.53,-653.109"/>
<polygon fill="#757575" stroke="#757575" points="2344.49,-655.965 2354.5,-659.455 2348.85,-650.488 2344.49,-655.965"/>
</g>
<!-- symbols/cockType.js -->
<g id="node11" class="node"><title>symbols/cockType.js</title>
<path fill="none" stroke="#cfffac" d="M2437.33,-545.5C2437.33,-545.5 2302.67,-545.5 2302.67,-545.5 2298.83,-545.5 2295,-541.667 2295,-537.833 2295,-537.833 2295,-530.167 2295,-530.167 2295,-526.333 2298.83,-522.5 2302.67,-522.5 2302.67,-522.5 2437.33,-522.5 2437.33,-522.5 2441.17,-522.5 2445,-526.333 2445,-530.167 2445,-530.167 2445,-537.833 2445,-537.833 2445,-541.667 2441.17,-545.5 2437.33,-545.5"/>
<text text-anchor="middle" x="2370" y="-530.3" font-family="Arial" font-size="14.00" fill="#cfffac">symbols/cockType.js</text>
</g>
<!-- actions/Player.js&#45;&gt;symbols/cockType.js -->
<g id="edge9" class="edge"><title>actions/Player.js&#45;&gt;symbols/cockType.js</title>
<path fill="none" stroke="#757575" d="M2224.09,-516.197C2243.06,-518.528 2264.49,-521.16 2284.93,-523.672"/>
<polygon fill="#757575" stroke="#757575" points="2284.52,-527.148 2294.87,-524.893 2285.37,-520.2 2284.52,-527.148"/>
</g>
<!-- symbols/vaginas.js -->
<g id="node12" class="node"><title>symbols/vaginas.js</title>
<path fill="none" stroke="#c6c5fe" d="M2611.33,-525.5C2611.33,-525.5 2490.67,-525.5 2490.67,-525.5 2486.83,-525.5 2483,-521.667 2483,-517.833 2483,-517.833 2483,-510.167 2483,-510.167 2483,-506.333 2486.83,-502.5 2490.67,-502.5 2490.67,-502.5 2611.33,-502.5 2611.33,-502.5 2615.17,-502.5 2619,-506.333 2619,-510.167 2619,-510.167 2619,-517.833 2619,-517.833 2619,-521.667 2615.17,-525.5 2611.33,-525.5"/>
<text text-anchor="middle" x="2551" y="-510.3" font-family="Arial" font-size="14.00" fill="#c6c5fe">symbols/vaginas.js</text>
</g>
<!-- actions/Player.js&#45;&gt;symbols/vaginas.js -->
<g id="edge10" class="edge"><title>actions/Player.js&#45;&gt;symbols/vaginas.js</title>
<path fill="none" stroke="#757575" d="M2224.32,-509.765C2290.82,-510.63 2399.36,-512.041 2472.68,-512.994"/>
<polygon fill="#757575" stroke="#757575" points="2472.73,-516.495 2482.78,-513.126 2472.83,-509.496 2472.73,-516.495"/>
</g>
<!-- utils.js -->
<g id="node37" class="node"><title>utils.js</title>
<path fill="none" stroke="#cfffac" d="M3170.83,-581.5C3170.83,-581.5 3130.17,-581.5 3130.17,-581.5 3126.33,-581.5 3122.5,-577.667 3122.5,-573.833 3122.5,-573.833 3122.5,-566.167 3122.5,-566.167 3122.5,-562.333 3126.33,-558.5 3130.17,-558.5 3130.17,-558.5 3170.83,-558.5 3170.83,-558.5 3174.67,-558.5 3178.5,-562.333 3178.5,-566.167 3178.5,-566.167 3178.5,-573.833 3178.5,-573.833 3178.5,-577.667 3174.67,-581.5 3170.83,-581.5"/>
<text text-anchor="middle" x="3150.5" y="-566.3" font-family="Arial" font-size="14.00" fill="#cfffac">utils.js</text>
</g>
<!-- symbols/breastCup.js&#45;&gt;utils.js -->
<g id="edge80" class="edge"><title>symbols/breastCup.js&#45;&gt;utils.js</title>
<path fill="none" stroke="#757575" d="M2412.59,-682.505C2543.38,-717.684 2944.06,-817.542 3053,-752 3111.95,-716.533 3136.79,-631.604 3145.5,-591.573"/>
<polygon fill="#757575" stroke="#757575" points="3148.93,-592.265 3147.51,-581.767 3142.08,-590.864 3148.93,-592.265"/>
</g>
<!-- symbols/vaginas.js&#45;&gt;utils.js -->
<g id="edge91" class="edge"><title>symbols/vaginas.js&#45;&gt;utils.js</title>
<path fill="none" stroke="#757575" d="M2619.15,-516.703C2693.92,-521.058 2808.55,-532.179 2841,-560 2880.69,-594.035 2834.75,-641.2 2877,-672 2940.21,-718.078 2981.15,-702.932 3053,-672 3091.52,-655.417 3121.84,-615.064 3137.59,-590.373"/>
<polygon fill="#757575" stroke="#757575" points="3140.64,-592.109 3142.9,-581.76 3134.68,-588.436 3140.64,-592.109"/>
</g>
<!-- appearance/appearance.js -->
<g id="node13" class="node"><title>appearance/appearance.js</title>
<path fill="none" stroke="#c6c5fe" d="M2249.33,-663.5C2249.33,-663.5 2079.67,-663.5 2079.67,-663.5 2075.83,-663.5 2072,-659.667 2072,-655.833 2072,-655.833 2072,-648.167 2072,-648.167 2072,-644.333 2075.83,-640.5 2079.67,-640.5 2079.67,-640.5 2249.33,-640.5 2249.33,-640.5 2253.17,-640.5 2257,-644.333 2257,-648.167 2257,-648.167 2257,-655.833 2257,-655.833 2257,-659.667 2253.17,-663.5 2249.33,-663.5"/>
<text text-anchor="middle" x="2164.5" y="-648.3" font-family="Arial" font-size="14.00" fill="#c6c5fe">appearance/appearance.js</text>
</g>
<!-- appearance/appearance.js&#45;&gt;store/store.js -->
<g id="edge11" class="edge"><title>appearance/appearance.js&#45;&gt;store/store.js</title>
<path fill="none" stroke="#757575" d="M2174.6,-640.32C2191.37,-618.69 2228.06,-570.789 2257,-529 2294.79,-474.434 2336.37,-407.997 2356.59,-375.247"/>
<polygon fill="#757575" stroke="#757575" points="2359.66,-376.927 2361.93,-366.577 2353.7,-373.258 2359.66,-376.927"/>
</g>
<!-- appearance/appearance.js&#45;&gt;symbols/breastCup.js -->
<g id="edge12" class="edge"><title>appearance/appearance.js&#45;&gt;symbols/breastCup.js</title>
<path fill="none" stroke="#757575" d="M2257.13,-660.555C2265.6,-661.346 2274.17,-662.147 2282.6,-662.933"/>
<polygon fill="#757575" stroke="#757575" points="2282.51,-666.44 2292.79,-663.885 2283.16,-659.47 2282.51,-666.44"/>
</g>
<!-- symbols/gender.js -->
<g id="node14" class="node"><title>symbols/gender.js</title>
<path fill="none" stroke="#c6c5fe" d="M2428.83,-781.5C2428.83,-781.5 2311.17,-781.5 2311.17,-781.5 2307.33,-781.5 2303.5,-777.667 2303.5,-773.833 2303.5,-773.833 2303.5,-766.167 2303.5,-766.167 2303.5,-762.333 2307.33,-758.5 2311.17,-758.5 2311.17,-758.5 2428.83,-758.5 2428.83,-758.5 2432.67,-758.5 2436.5,-762.333 2436.5,-766.167 2436.5,-766.167 2436.5,-773.833 2436.5,-773.833 2436.5,-777.667 2432.67,-781.5 2428.83,-781.5"/>
<text text-anchor="middle" x="2370" y="-766.3" font-family="Arial" font-size="14.00" fill="#c6c5fe">symbols/gender.js</text>
</g>
<!-- appearance/appearance.js&#45;&gt;symbols/gender.js -->
<g id="edge13" class="edge"><title>appearance/appearance.js&#45;&gt;symbols/gender.js</title>
<path fill="none" stroke="#757575" d="M2185.38,-663.529C2221.55,-684.502 2298.24,-728.967 2340.15,-753.274"/>
<polygon fill="#757575" stroke="#757575" points="2338.63,-756.436 2349.04,-758.424 2342.14,-750.38 2338.63,-756.436"/>
</g>
<!-- symbols/gender.js&#45;&gt;utils.js -->
<g id="edge84" class="edge"><title>symbols/gender.js&#45;&gt;utils.js</title>
<path fill="none" stroke="#757575" d="M2436.61,-779.495C2587.18,-799.906 2952.33,-841.143 3053,-777 3118.66,-735.164 3140.37,-635.722 3146.92,-591.658"/>
<polygon fill="#757575" stroke="#757575" points="3150.39,-592.099 3148.28,-581.717 3143.46,-591.153 3150.39,-592.099"/>
</g>
<!-- components/appRoot.js -->
<g id="node15" class="node"><title>components/appRoot.js</title>
<path fill="none" stroke="#c6c5fe" d="M334.333,-439.5C334.333,-439.5 181.667,-439.5 181.667,-439.5 177.833,-439.5 174,-435.667 174,-431.833 174,-431.833 174,-424.167 174,-424.167 174,-420.333 177.833,-416.5 181.667,-416.5 181.667,-416.5 334.333,-416.5 334.333,-416.5 338.167,-416.5 342,-420.333 342,-424.167 342,-424.167 342,-431.833 342,-431.833 342,-435.667 338.167,-439.5 334.333,-439.5"/>
<text text-anchor="middle" x="258" y="-424.3" font-family="Arial" font-size="14.00" fill="#c6c5fe">components/appRoot.js</text>
</g>
<!-- components/lowerButtons.js -->
<g id="node16" class="node"><title>components/lowerButtons.js</title>
<path fill="none" stroke="#c6c5fe" d="M565.333,-480.5C565.333,-480.5 385.667,-480.5 385.667,-480.5 381.833,-480.5 378,-476.667 378,-472.833 378,-472.833 378,-465.167 378,-465.167 378,-461.333 381.833,-457.5 385.667,-457.5 385.667,-457.5 565.333,-457.5 565.333,-457.5 569.167,-457.5 573,-461.333 573,-465.167 573,-465.167 573,-472.833 573,-472.833 573,-476.667 569.167,-480.5 565.333,-480.5"/>
<text text-anchor="middle" x="475.5" y="-465.3" font-family="Arial" font-size="14.00" fill="#c6c5fe">components/lowerButtons.js</text>
</g>
<!-- components/appRoot.js&#45;&gt;components/lowerButtons.js -->
<g id="edge14" class="edge"><title>components/appRoot.js&#45;&gt;components/lowerButtons.js</title>
<path fill="none" stroke="#757575" d="M319.602,-439.53C345.88,-444.529 376.817,-450.415 404.106,-455.607"/>
<polygon fill="#757575" stroke="#757575" points="403.502,-459.055 413.98,-457.486 404.81,-452.178 403.502,-459.055"/>
</g>
<!-- components/menuBar.js -->
<g id="node17" class="node"><title>components/menuBar.js</title>
<path fill="none" stroke="#c6c5fe" d="M552.833,-398.5C552.833,-398.5 398.167,-398.5 398.167,-398.5 394.333,-398.5 390.5,-394.667 390.5,-390.833 390.5,-390.833 390.5,-383.167 390.5,-383.167 390.5,-379.333 394.333,-375.5 398.167,-375.5 398.167,-375.5 552.833,-375.5 552.833,-375.5 556.667,-375.5 560.5,-379.333 560.5,-383.167 560.5,-383.167 560.5,-390.833 560.5,-390.833 560.5,-394.667 556.667,-398.5 552.833,-398.5"/>
<text text-anchor="middle" x="475.5" y="-383.3" font-family="Arial" font-size="14.00" fill="#c6c5fe">components/menuBar.js</text>
</g>
<!-- components/appRoot.js&#45;&gt;components/menuBar.js -->
<g id="edge15" class="edge"><title>components/appRoot.js&#45;&gt;components/menuBar.js</title>
<path fill="none" stroke="#757575" d="M319.602,-416.47C345.88,-411.471 376.817,-405.585 404.106,-400.393"/>
<polygon fill="#757575" stroke="#757575" points="404.81,-403.822 413.98,-398.514 403.502,-396.945 404.81,-403.822"/>
</g>
<!-- components/output.js -->
<g id="node18" class="node"><title>components/output.js</title>
<path fill="none" stroke="#cfffac" d="M543.833,-439.5C543.833,-439.5 407.167,-439.5 407.167,-439.5 403.333,-439.5 399.5,-435.667 399.5,-431.833 399.5,-431.833 399.5,-424.167 399.5,-424.167 399.5,-420.333 403.333,-416.5 407.167,-416.5 407.167,-416.5 543.833,-416.5 543.833,-416.5 547.667,-416.5 551.5,-420.333 551.5,-424.167 551.5,-424.167 551.5,-431.833 551.5,-431.833 551.5,-435.667 547.667,-439.5 543.833,-439.5"/>
<text text-anchor="middle" x="475.5" y="-424.3" font-family="Arial" font-size="14.00" fill="#cfffac">components/output.js</text>
</g>
<!-- components/appRoot.js&#45;&gt;components/output.js -->
<g id="edge16" class="edge"><title>components/appRoot.js&#45;&gt;components/output.js</title>
<path fill="none" stroke="#757575" d="M342.01,-428C357.475,-428 373.658,-428 389.191,-428"/>
<polygon fill="#757575" stroke="#757575" points="389.29,-431.5 399.29,-428 389.29,-424.5 389.29,-431.5"/>
</g>
<!-- components/statBar.js -->
<g id="node19" class="node"><title>components/statBar.js</title>
<path fill="none" stroke="#c6c5fe" d="M546.833,-532.5C546.833,-532.5 404.167,-532.5 404.167,-532.5 400.333,-532.5 396.5,-528.667 396.5,-524.833 396.5,-524.833 396.5,-517.167 396.5,-517.167 396.5,-513.333 400.333,-509.5 404.167,-509.5 404.167,-509.5 546.833,-509.5 546.833,-509.5 550.667,-509.5 554.5,-513.333 554.5,-517.167 554.5,-517.167 554.5,-524.833 554.5,-524.833 554.5,-528.667 550.667,-532.5 546.833,-532.5"/>
<text text-anchor="middle" x="475.5" y="-517.3" font-family="Arial" font-size="14.00" fill="#c6c5fe">components/statBar.js</text>
</g>
<!-- components/appRoot.js&#45;&gt;components/statBar.js -->
<g id="edge17" class="edge"><title>components/appRoot.js&#45;&gt;components/statBar.js</title>
<path fill="none" stroke="#757575" d="M279.183,-439.557C302.498,-452.62 342.244,-474.011 378,-489 393.089,-495.325 409.903,-501.265 425.214,-506.27"/>
<polygon fill="#757575" stroke="#757575" points="424.435,-509.695 435.026,-509.418 426.574,-503.03 424.435,-509.695"/>
</g>
<!-- components/buttonGrid.js -->
<g id="node21" class="node"><title>components/buttonGrid.js</title>
<path fill="none" stroke="#c6c5fe" d="M788.333,-470.5C788.333,-470.5 624.667,-470.5 624.667,-470.5 620.833,-470.5 617,-466.667 617,-462.833 617,-462.833 617,-455.167 617,-455.167 617,-451.333 620.833,-447.5 624.667,-447.5 624.667,-447.5 788.333,-447.5 788.333,-447.5 792.167,-447.5 796,-451.333 796,-455.167 796,-455.167 796,-462.833 796,-462.833 796,-466.667 792.167,-470.5 788.333,-470.5"/>
<text text-anchor="middle" x="706.5" y="-455.3" font-family="Arial" font-size="14.00" fill="#c6c5fe">components/buttonGrid.js</text>
</g>
<!-- components/lowerButtons.js&#45;&gt;components/buttonGrid.js -->
<g id="edge22" class="edge"><title>components/lowerButtons.js&#45;&gt;components/buttonGrid.js</title>
<path fill="none" stroke="#757575" d="M573.285,-464.774C584.313,-464.292 595.566,-463.801 606.621,-463.318"/>
<polygon fill="#757575" stroke="#757575" points="606.868,-466.811 616.705,-462.877 606.562,-459.817 606.868,-466.811"/>
</g>
<!-- components/menuBar.js&#45;&gt;components/buttonGrid.js -->
<g id="edge23" class="edge"><title>components/menuBar.js&#45;&gt;components/buttonGrid.js</title>
<path fill="none" stroke="#757575" d="M539.953,-398.548C551.049,-401.022 562.423,-403.853 573,-407 606.752,-417.042 643.983,-432.016 670.363,-443.321"/>
<polygon fill="#757575" stroke="#757575" points="668.996,-446.543 679.564,-447.303 671.777,-440.119 668.996,-446.543"/>
</g>
<!-- components/spriteDisplay.js -->
<g id="node26" class="node"><title>components/spriteDisplay.js</title>
<path fill="none" stroke="#cfffac" d="M796.333,-593.5C796.333,-593.5 616.667,-593.5 616.667,-593.5 612.833,-593.5 609,-589.667 609,-585.833 609,-585.833 609,-578.167 609,-578.167 609,-574.333 612.833,-570.5 616.667,-570.5 616.667,-570.5 796.333,-570.5 796.333,-570.5 800.167,-570.5 804,-574.333 804,-578.167 804,-578.167 804,-585.833 804,-585.833 804,-589.667 800.167,-593.5 796.333,-593.5"/>
<text text-anchor="middle" x="706.5" y="-578.3" font-family="Arial" font-size="14.00" fill="#cfffac">components/spriteDisplay.js</text>
</g>
<!-- components/statBar.js&#45;&gt;components/spriteDisplay.js -->
<g id="edge26" class="edge"><title>components/statBar.js&#45;&gt;components/spriteDisplay.js</title>
<path fill="none" stroke="#757575" d="M511.995,-532.548C538.555,-540.985 575.855,-552.405 609,-561 618.647,-563.502 628.888,-565.95 638.956,-568.24"/>
<polygon fill="#757575" stroke="#757575" points="638.415,-571.705 648.938,-570.473 639.943,-564.874 638.415,-571.705"/>
</g>
<!-- components/statDisplay.js -->
<g id="node28" class="node"><title>components/statDisplay.js</title>
<path fill="none" stroke="#c6c5fe" d="M789.833,-552.5C789.833,-552.5 623.167,-552.5 623.167,-552.5 619.333,-552.5 615.5,-548.667 615.5,-544.833 615.5,-544.833 615.5,-537.167 615.5,-537.167 615.5,-533.333 619.333,-529.5 623.167,-529.5 623.167,-529.5 789.833,-529.5 789.833,-529.5 793.667,-529.5 797.5,-533.333 797.5,-537.167 797.5,-537.167 797.5,-544.833 797.5,-544.833 797.5,-548.667 793.667,-552.5 789.833,-552.5"/>
<text text-anchor="middle" x="706.5" y="-537.3" font-family="Arial" font-size="14.00" fill="#c6c5fe">components/statDisplay.js</text>
</g>
<!-- components/statBar.js&#45;&gt;components/statDisplay.js -->
<g id="edge27" class="edge"><title>components/statBar.js&#45;&gt;components/statDisplay.js</title>
<path fill="none" stroke="#757575" d="M554.668,-527.827C570.871,-529.242 588.156,-530.752 605.028,-532.225"/>
<polygon fill="#757575" stroke="#757575" points="605.2,-535.753 615.467,-533.137 605.809,-528.78 605.2,-535.753"/>
</g>
<!-- components/timeDisplay.js -->
<g id="node29" class="node"><title>components/timeDisplay.js</title>
<path fill="none" stroke="#cfffac" d="M792.333,-511.5C792.333,-511.5 620.667,-511.5 620.667,-511.5 616.833,-511.5 613,-507.667 613,-503.833 613,-503.833 613,-496.167 613,-496.167 613,-492.333 616.833,-488.5 620.667,-488.5 620.667,-488.5 792.333,-488.5 792.333,-488.5 796.167,-488.5 800,-492.333 800,-496.167 800,-496.167 800,-503.833 800,-503.833 800,-507.667 796.167,-511.5 792.333,-511.5"/>
<text text-anchor="middle" x="706.5" y="-496.3" font-family="Arial" font-size="14.00" fill="#cfffac">components/timeDisplay.js</text>
</g>
<!-- components/statBar.js&#45;&gt;components/timeDisplay.js -->
<g id="edge28" class="edge"><title>components/statBar.js&#45;&gt;components/timeDisplay.js</title>
<path fill="none" stroke="#757575" d="M554.668,-513.832C570.119,-512.415 586.555,-510.908 602.679,-509.429"/>
<polygon fill="#757575" stroke="#757575" points="603.028,-512.912 612.666,-508.513 602.389,-505.941 603.028,-512.912"/>
</g>
<!-- components/button.js -->
<g id="node20" class="node"><title>components/button.js</title>
<path fill="none" stroke="#cfffac" d="M1222.33,-511.5C1222.33,-511.5 1085.67,-511.5 1085.67,-511.5 1081.83,-511.5 1078,-507.667 1078,-503.833 1078,-503.833 1078,-496.167 1078,-496.167 1078,-492.333 1081.83,-488.5 1085.67,-488.5 1085.67,-488.5 1222.33,-488.5 1222.33,-488.5 1226.17,-488.5 1230,-492.333 1230,-496.167 1230,-496.167 1230,-503.833 1230,-503.833 1230,-507.667 1226.17,-511.5 1222.33,-511.5"/>
<text text-anchor="middle" x="1154" y="-496.3" font-family="Arial" font-size="14.00" fill="#cfffac">components/button.js</text>
</g>
<!-- components/buttonGrid.js&#45;&gt;actions/Engine.js -->
<g id="edge18" class="edge"><title>components/buttonGrid.js&#45;&gt;actions/Engine.js</title>
<path fill="none" stroke="#757575" d="M796.103,-459C817.669,-459 840.464,-459 861.115,-459"/>
<polygon fill="#757575" stroke="#757575" points="861.383,-462.5 871.383,-459 861.383,-455.5 861.383,-462.5"/>
</g>
<!-- components/buttonWrap.js -->
<g id="node22" class="node"><title>components/buttonWrap.js</title>
<path fill="none" stroke="#c6c5fe" d="M1019.33,-511.5C1019.33,-511.5 847.667,-511.5 847.667,-511.5 843.833,-511.5 840,-507.667 840,-503.833 840,-503.833 840,-496.167 840,-496.167 840,-492.333 843.833,-488.5 847.667,-488.5 847.667,-488.5 1019.33,-488.5 1019.33,-488.5 1023.17,-488.5 1027,-492.333 1027,-496.167 1027,-496.167 1027,-503.833 1027,-503.833 1027,-507.667 1023.17,-511.5 1019.33,-511.5"/>
<text text-anchor="middle" x="933.5" y="-496.3" font-family="Arial" font-size="14.00" fill="#c6c5fe">components/buttonWrap.js</text>
</g>
<!-- components/buttonGrid.js&#45;&gt;components/buttonWrap.js -->
<g id="edge19" class="edge"><title>components/buttonGrid.js&#45;&gt;components/buttonWrap.js</title>
<path fill="none" stroke="#757575" d="M770.774,-470.53C798.33,-475.551 830.794,-481.467 859.378,-486.675"/>
<polygon fill="#757575" stroke="#757575" points="858.846,-490.136 869.312,-488.486 860.101,-483.25 858.846,-490.136"/>
</g>
<!-- components/buttonWrap.js&#45;&gt;components/button.js -->
<g id="edge20" class="edge"><title>components/buttonWrap.js&#45;&gt;components/button.js</title>
<path fill="none" stroke="#757575" d="M1027.16,-500C1040.6,-500 1054.39,-500 1067.67,-500"/>
<polygon fill="#757575" stroke="#757575" points="1067.72,-503.5 1077.72,-500 1067.72,-496.5 1067.72,-503.5"/>
</g>
<!-- components/dropdown.js -->
<g id="node23" class="node"><title>components/dropdown.js</title>
<path fill="none" stroke="#c6c5fe" d="M3045.33,-376.5C3045.33,-376.5 2884.67,-376.5 2884.67,-376.5 2880.83,-376.5 2877,-372.667 2877,-368.833 2877,-368.833 2877,-361.167 2877,-361.167 2877,-357.333 2880.83,-353.5 2884.67,-353.5 2884.67,-353.5 3045.33,-353.5 3045.33,-353.5 3049.17,-353.5 3053,-357.333 3053,-361.167 3053,-361.167 3053,-368.833 3053,-368.833 3053,-372.667 3049.17,-376.5 3045.33,-376.5"/>
<text text-anchor="middle" x="2965" y="-361.3" font-family="Arial" font-size="14.00" fill="#c6c5fe">components/dropdown.js</text>
</g>
<!-- symbols/perks.js -->
<g id="node24" class="node"><title>symbols/perks.js</title>
<path fill="none" stroke="#c6c5fe" d="M3204.33,-175.5C3204.33,-175.5 3096.67,-175.5 3096.67,-175.5 3092.83,-175.5 3089,-171.667 3089,-167.833 3089,-167.833 3089,-160.167 3089,-160.167 3089,-156.333 3092.83,-152.5 3096.67,-152.5 3096.67,-152.5 3204.33,-152.5 3204.33,-152.5 3208.17,-152.5 3212,-156.333 3212,-160.167 3212,-160.167 3212,-167.833 3212,-167.833 3212,-171.667 3208.17,-175.5 3204.33,-175.5"/>
<text text-anchor="middle" x="3150.5" y="-160.3" font-family="Arial" font-size="14.00" fill="#c6c5fe">symbols/perks.js</text>
</g>
<!-- components/dropdown.js&#45;&gt;symbols/perks.js -->
<g id="edge21" class="edge"><title>components/dropdown.js&#45;&gt;symbols/perks.js</title>
<path fill="none" stroke="#757575" d="M2976.66,-353.325C3007.06,-320.02 3094.44,-224.314 3132,-183.174"/>
<polygon fill="#757575" stroke="#757575" points="3134.65,-185.453 3138.81,-175.708 3129.48,-180.733 3134.65,-185.453"/>
</g>
<!-- symbols/perks.js&#45;&gt;actions/engineMsg.js -->
<g id="edge87" class="edge"><title>symbols/perks.js&#45;&gt;actions/engineMsg.js</title>
<path fill="none" stroke="#757575" d="M3167.19,-152.372C3197.04,-130.244 3262.2,-81.9522 3297.55,-55.7548"/>
<polygon fill="#757575" stroke="#757575" points="3299.9,-58.3663 3305.85,-49.5998 3295.73,-52.7425 3299.9,-58.3663"/>
</g>
<!-- components/nameInput.js -->
<g id="node25" class="node"><title>components/nameInput.js</title>
<path fill="none" stroke="#c6c5fe" d="M2028.33,-507.5C2028.33,-507.5 1863.67,-507.5 1863.67,-507.5 1859.83,-507.5 1856,-503.667 1856,-499.833 1856,-499.833 1856,-492.167 1856,-492.167 1856,-488.333 1859.83,-484.5 1863.67,-484.5 1863.67,-484.5 2028.33,-484.5 2028.33,-484.5 2032.17,-484.5 2036,-488.333 2036,-492.167 2036,-492.167 2036,-499.833 2036,-499.833 2036,-503.667 2032.17,-507.5 2028.33,-507.5"/>
<text text-anchor="middle" x="1946" y="-492.3" font-family="Arial" font-size="14.00" fill="#c6c5fe">components/nameInput.js</text>
</g>
<!-- components/nameInput.js&#45;&gt;store/store.js -->
<g id="edge25" class="edge"><title>components/nameInput.js&#45;&gt;store/store.js</title>
<path fill="none" stroke="#757575" d="M1995.81,-484.482C2057.53,-469.354 2166.64,-440.717 2257,-407 2284.94,-396.574 2315.59,-382.122 2337.76,-371.099"/>
<polygon fill="#757575" stroke="#757575" points="2339.34,-374.223 2346.7,-366.607 2336.19,-367.967 2339.34,-374.223"/>
</g>
<!-- components/nameInput.js&#45;&gt;actions/Player.js -->
<g id="edge24" class="edge"><title>components/nameInput.js&#45;&gt;actions/Player.js</title>
<path fill="none" stroke="#757575" d="M2036.31,-501.363C2055.77,-502.531 2076.07,-503.75 2094.59,-504.862"/>
<polygon fill="#757575" stroke="#757575" points="2094.49,-508.363 2104.68,-505.468 2094.91,-501.375 2094.49,-508.363"/>
</g>
<!-- components/stat.js -->
<g id="node27" class="node"><title>components/stat.js</title>
<path fill="none" stroke="#cfffac" d="M993.833,-552.5C993.833,-552.5 873.167,-552.5 873.167,-552.5 869.333,-552.5 865.5,-548.667 865.5,-544.833 865.5,-544.833 865.5,-537.167 865.5,-537.167 865.5,-533.333 869.333,-529.5 873.167,-529.5 873.167,-529.5 993.833,-529.5 993.833,-529.5 997.667,-529.5 1001.5,-533.333 1001.5,-537.167 1001.5,-537.167 1001.5,-544.833 1001.5,-544.833 1001.5,-548.667 997.667,-552.5 993.833,-552.5"/>
<text text-anchor="middle" x="933.5" y="-537.3" font-family="Arial" font-size="14.00" fill="#cfffac">components/stat.js</text>
</g>
<!-- components/statDisplay.js&#45;&gt;components/stat.js -->
<g id="edge29" class="edge"><title>components/statDisplay.js&#45;&gt;components/stat.js</title>
<path fill="none" stroke="#757575" d="M797.72,-541C816.804,-541 836.779,-541 855.327,-541"/>
<polygon fill="#757575" stroke="#757575" points="855.471,-544.5 865.471,-541 855.471,-537.5 855.471,-544.5"/>
</g>
<!-- index.js -->
<g id="node30" class="node"><title>index.js</title>
<path fill="none" stroke="#c6c5fe" d="M93.8333,-359.5C93.8333,-359.5 44.1667,-359.5 44.1667,-359.5 40.3333,-359.5 36.5,-355.667 36.5,-351.833 36.5,-351.833 36.5,-344.167 36.5,-344.167 36.5,-340.333 40.3333,-336.5 44.1667,-336.5 44.1667,-336.5 93.8333,-336.5 93.8333,-336.5 97.6667,-336.5 101.5,-340.333 101.5,-344.167 101.5,-344.167 101.5,-351.833 101.5,-351.833 101.5,-355.667 97.6667,-359.5 93.8333,-359.5"/>
<text text-anchor="middle" x="69" y="-344.3" font-family="Arial" font-size="14.00" fill="#c6c5fe">index.js</text>
</g>
<!-- index.js&#45;&gt;store/store.js -->
<g id="edge31" class="edge"><title>index.js&#45;&gt;store/store.js</title>
<path fill="none" stroke="#757575" d="M101.673,-338.837C169.442,-320.068 333.801,-279 474.5,-279 474.5,-279 474.5,-279 1541,-279 1830.47,-279 2174.49,-325.631 2309.99,-345.84"/>
<polygon fill="#757575" stroke="#757575" points="2309.74,-349.342 2320.15,-347.365 2310.78,-342.42 2309.74,-349.342"/>
</g>
<!-- index.js&#45;&gt;components/appRoot.js -->
<g id="edge30" class="edge"><title>index.js&#45;&gt;components/appRoot.js</title>
<path fill="none" stroke="#757575" d="M101.545,-355.995C113.161,-359.272 126.328,-363.385 138,-368 169.722,-380.542 204.374,-398.538 228.06,-411.546"/>
<polygon fill="#757575" stroke="#757575" points="226.438,-414.649 236.881,-416.438 229.833,-408.527 226.438,-414.649"/>
</g>
<!-- reducers/root.js&#45;&gt;actions/coreMsg.js -->
<g id="edge32" class="edge"><title>reducers/root.js&#45;&gt;actions/coreMsg.js</title>
<path fill="none" stroke="#757575" d="M2580.12,-286.568C2634.54,-306.986 2756.31,-342.949 2841,-295 2868.06,-279.678 2852.44,-254.077 2877,-235 2882.27,-230.907 2888.18,-227.456 2894.36,-224.548"/>
<polygon fill="#757575" stroke="#757575" points="2895.73,-227.77 2903.59,-220.663 2893.01,-221.319 2895.73,-227.77"/>
</g>
<!-- reducers/root.js&#45;&gt;actions/engineMsg.js -->
<g id="edge33" class="edge"><title>reducers/root.js&#45;&gt;actions/engineMsg.js</title>
<path fill="none" stroke="#757575" d="M2553.65,-263.331C2559.53,-226.728 2583.08,-113.839 2655,-67 2748.72,-5.9642 3080.38,-20.5172 3237.62,-31.3455"/>
<polygon fill="#757575" stroke="#757575" points="3237.5,-34.8456 3247.72,-32.0525 3237.99,-27.8626 3237.5,-34.8456"/>
</g>
<!-- reducers/root.js&#45;&gt;actions/playerMsg.js -->
<g id="edge34" class="edge"><title>reducers/root.js&#45;&gt;actions/playerMsg.js</title>
<path fill="none" stroke="#757575" d="M2567.54,-263.349C2586.98,-249.328 2621.78,-226.048 2655,-213 2733.62,-182.121 2761.55,-202.657 2841,-174 2858.02,-167.862 2860.25,-161.845 2877,-155 2887.28,-150.799 2898.49,-146.941 2909.34,-143.556"/>
<polygon fill="#757575" stroke="#757575" points="2910.6,-146.83 2919.16,-140.584 2908.58,-140.129 2910.6,-146.83"/>
</g>
<!-- reducers/root.js&#45;&gt;symbols/perks.js -->
<g id="edge40" class="edge"><title>reducers/root.js&#45;&gt;symbols/perks.js</title>
<path fill="none" stroke="#757575" d="M2556.55,-263.264C2568.12,-235.18 2601.59,-164.131 2655,-133 2808.13,-43.7527 2881.85,-61.9378 3053,-108 3080.61,-115.431 3108.47,-132.913 3127.1,-146.384"/>
<polygon fill="#757575" stroke="#757575" points="3125.11,-149.266 3135.23,-152.426 3129.29,-143.649 3125.11,-149.266"/>
</g>
<!-- reducers/updateBodyArr.js -->
<g id="node32" class="node"><title>reducers/updateBodyArr.js</title>
<path fill="none" stroke="#c6c5fe" d="M2833.33,-165.5C2833.33,-165.5 2662.67,-165.5 2662.67,-165.5 2658.83,-165.5 2655,-161.667 2655,-157.833 2655,-157.833 2655,-150.167 2655,-150.167 2655,-146.333 2658.83,-142.5 2662.67,-142.5 2662.67,-142.5 2833.33,-142.5 2833.33,-142.5 2837.17,-142.5 2841,-146.333 2841,-150.167 2841,-150.167 2841,-157.833 2841,-157.833 2841,-161.667 2837.17,-165.5 2833.33,-165.5"/>
<text text-anchor="middle" x="2748" y="-150.3" font-family="Arial" font-size="14.00" fill="#c6c5fe">reducers/updateBodyArr.js</text>
</g>
<!-- reducers/root.js&#45;&gt;reducers/updateBodyArr.js -->
<g id="edge35" class="edge"><title>reducers/root.js&#45;&gt;reducers/updateBodyArr.js</title>
<path fill="none" stroke="#757575" d="M2561.23,-263.499C2577.86,-243.534 2614.88,-202.454 2655,-180 2662.87,-175.595 2671.55,-171.888 2680.33,-168.783"/>
<polygon fill="#757575" stroke="#757575" points="2681.46,-172.094 2689.87,-165.643 2679.28,-165.444 2681.46,-172.094"/>
</g>
<!-- reducers/updateButtons.js -->
<g id="node33" class="node"><title>reducers/updateButtons.js</title>
<path fill="none" stroke="#cfffac" d="M2831.33,-286.5C2831.33,-286.5 2664.67,-286.5 2664.67,-286.5 2660.83,-286.5 2657,-282.667 2657,-278.833 2657,-278.833 2657,-271.167 2657,-271.167 2657,-267.333 2660.83,-263.5 2664.67,-263.5 2664.67,-263.5 2831.33,-263.5 2831.33,-263.5 2835.17,-263.5 2839,-267.333 2839,-271.167 2839,-271.167 2839,-278.833 2839,-278.833 2839,-282.667 2835.17,-286.5 2831.33,-286.5"/>
<text text-anchor="middle" x="2748" y="-271.3" font-family="Arial" font-size="14.00" fill="#cfffac">reducers/updateButtons.js</text>
</g>
<!-- reducers/root.js&#45;&gt;reducers/updateButtons.js -->
<g id="edge36" class="edge"><title>reducers/root.js&#45;&gt;reducers/updateButtons.js</title>
<path fill="none" stroke="#757575" d="M2609.19,-275C2620.98,-275 2633.73,-275 2646.55,-275"/>
<polygon fill="#757575" stroke="#757575" points="2646.83,-278.5 2656.83,-275 2646.83,-271.5 2646.83,-278.5"/>
</g>
<!-- reducers/updateStats.js -->
<g id="node34" class="node"><title>reducers/updateStats.js</title>
<path fill="none" stroke="#c6c5fe" d="M2823.83,-245.5C2823.83,-245.5 2672.17,-245.5 2672.17,-245.5 2668.33,-245.5 2664.5,-241.667 2664.5,-237.833 2664.5,-237.833 2664.5,-230.167 2664.5,-230.167 2664.5,-226.333 2668.33,-222.5 2672.17,-222.5 2672.17,-222.5 2823.83,-222.5 2823.83,-222.5 2827.67,-222.5 2831.5,-226.333 2831.5,-230.167 2831.5,-230.167 2831.5,-237.833 2831.5,-237.833 2831.5,-241.667 2827.67,-245.5 2823.83,-245.5"/>
<text text-anchor="middle" x="2748" y="-230.3" font-family="Arial" font-size="14.00" fill="#c6c5fe">reducers/updateStats.js</text>
</g>
<!-- reducers/root.js&#45;&gt;reducers/updateStats.js -->
<g id="edge37" class="edge"><title>reducers/root.js&#45;&gt;reducers/updateStats.js</title>
<path fill="none" stroke="#757575" d="M2606.84,-263.47C2630.3,-258.536 2657.87,-252.739 2682.33,-247.598"/>
<polygon fill="#757575" stroke="#757575" points="2683.17,-250.997 2692.24,-245.514 2681.73,-244.147 2683.17,-250.997"/>
</g>
<!-- reducers/updateTime.js -->
<g id="node35" class="node"><title>reducers/updateTime.js</title>
<path fill="none" stroke="#c6c5fe" d="M2823.83,-366.5C2823.83,-366.5 2672.17,-366.5 2672.17,-366.5 2668.33,-366.5 2664.5,-362.667 2664.5,-358.833 2664.5,-358.833 2664.5,-351.167 2664.5,-351.167 2664.5,-347.333 2668.33,-343.5 2672.17,-343.5 2672.17,-343.5 2823.83,-343.5 2823.83,-343.5 2827.67,-343.5 2831.5,-347.333 2831.5,-351.167 2831.5,-351.167 2831.5,-358.833 2831.5,-358.833 2831.5,-362.667 2827.67,-366.5 2823.83,-366.5"/>
<text text-anchor="middle" x="2748" y="-351.3" font-family="Arial" font-size="14.00" fill="#c6c5fe">reducers/updateTime.js</text>
</g>
<!-- reducers/root.js&#45;&gt;reducers/updateTime.js -->
<g id="edge38" class="edge"><title>reducers/root.js&#45;&gt;reducers/updateTime.js</title>
<path fill="none" stroke="#757575" d="M2571.17,-286.598C2591.44,-298.485 2624.61,-316.894 2655,-329 2665.85,-333.324 2677.69,-337.235 2689.15,-340.635"/>
<polygon fill="#757575" stroke="#757575" points="2688.52,-344.094 2699.1,-343.487 2690.45,-337.365 2688.52,-344.094"/>
</g>
<!-- store/initialState.js -->
<g id="node36" class="node"><title>store/initialState.js</title>
<path fill="none" stroke="#c6c5fe" d="M2805.83,-499.5C2805.83,-499.5 2690.17,-499.5 2690.17,-499.5 2686.33,-499.5 2682.5,-495.667 2682.5,-491.833 2682.5,-491.833 2682.5,-484.167 2682.5,-484.167 2682.5,-480.333 2686.33,-476.5 2690.17,-476.5 2690.17,-476.5 2805.83,-476.5 2805.83,-476.5 2809.67,-476.5 2813.5,-480.333 2813.5,-484.167 2813.5,-484.167 2813.5,-491.833 2813.5,-491.833 2813.5,-495.667 2809.67,-499.5 2805.83,-499.5"/>
<text text-anchor="middle" x="2748" y="-484.3" font-family="Arial" font-size="14.00" fill="#c6c5fe">store/initialState.js</text>
</g>
<!-- reducers/root.js&#45;&gt;store/initialState.js -->
<g id="edge39" class="edge"><title>reducers/root.js&#45;&gt;store/initialState.js</title>
<path fill="none" stroke="#757575" d="M2556.11,-286.678C2567.35,-317.048 2601.34,-399.441 2655,-447 2667.24,-457.847 2682.81,-466.24 2697.65,-472.525"/>
<polygon fill="#757575" stroke="#757575" points="2696.67,-475.901 2707.25,-476.355 2699.26,-469.4 2696.67,-475.901"/>
</g>
<!-- reducers/root.js&#45;&gt;utils.js -->
<g id="edge41" class="edge"><title>reducers/root.js&#45;&gt;utils.js</title>
<path fill="none" stroke="#757575" d="M2559.31,-286.558C2574.15,-308.77 2610.19,-356.827 2655,-375 2731.61,-406.07 2763.5,-403.769 2841,-375 2860.79,-367.652 2857.21,-351.348 2877,-344 2950.33,-316.777 2987.73,-300.896 3053,-344 3123.86,-390.794 3142.87,-501.445 3147.82,-548.365"/>
<polygon fill="#757575" stroke="#757575" points="3144.34,-548.727 3148.76,-558.356 3151.31,-548.072 3144.34,-548.727"/>
</g>
<!-- reducers/updateBodyArr.js&#45;&gt;actions/playerMsg.js -->
<g id="edge42" class="edge"><title>reducers/updateBodyArr.js&#45;&gt;actions/playerMsg.js</title>
<path fill="none" stroke="#757575" d="M2841.11,-143.289C2854.74,-141.705 2868.7,-140.082 2882.1,-138.524"/>
<polygon fill="#757575" stroke="#757575" points="2882.69,-141.979 2892.22,-137.347 2881.88,-135.026 2882.69,-141.979"/>
</g>
<!-- reducers/updateStats.js&#45;&gt;actions/coreMsg.js -->
<g id="edge43" class="edge"><title>reducers/updateStats.js&#45;&gt;actions/coreMsg.js</title>
<path fill="none" stroke="#757575" d="M2831.51,-224.406C2849.81,-222.278 2869.13,-220.031 2887.19,-217.931"/>
<polygon fill="#757575" stroke="#757575" points="2887.84,-221.379 2897.37,-216.747 2887.03,-214.426 2887.84,-221.379"/>
</g>
<!-- reducers/updateStats.js&#45;&gt;actions/playerMsg.js -->
<g id="edge44" class="edge"><title>reducers/updateStats.js&#45;&gt;actions/playerMsg.js</title>
<path fill="none" stroke="#757575" d="M2812.57,-222.378C2822.64,-218.797 2832.52,-214.116 2841,-208 2864.1,-191.344 2854.03,-171.828 2877,-155 2882.77,-150.773 2889.23,-147.227 2895.95,-144.254"/>
<polygon fill="#757575" stroke="#757575" points="2897.25,-147.505 2905.24,-140.546 2894.65,-141.004 2897.25,-147.505"/>
</g>
<!-- reducers/updateStats.js&#45;&gt;utils.js -->
<g id="edge45" class="edge"><title>reducers/updateStats.js&#45;&gt;utils.js</title>
<path fill="none" stroke="#757575" d="M2797.94,-222.434C2812.06,-218.492 2827.34,-213.633 2841,-208 2857.92,-201.02 2859.28,-192.591 2877,-188 2952.72,-168.379 2991.29,-139.937 3053,-188 3111.26,-233.374 3139.89,-473.949 3147.43,-548.174"/>
<polygon fill="#757575" stroke="#757575" points="3143.96,-548.634 3148.42,-558.241 3150.92,-547.945 3143.96,-548.634"/>
</g>
<!-- reducers/updateTime.js&#45;&gt;utils.js -->
<g id="edge46" class="edge"><title>reducers/updateTime.js&#45;&gt;utils.js</title>
<path fill="none" stroke="#757575" d="M2778.77,-343.484C2810.23,-331.55 2857.88,-314.195 2877,-311 2954.15,-298.11 2988.75,-266.377 3053,-311 3132.86,-366.468 3146.76,-496.396 3149.08,-548.157"/>
<polygon fill="#757575" stroke="#757575" points="3145.58,-548.354 3149.42,-558.228 3152.58,-548.114 3145.58,-548.354"/>
</g>
<!-- store/initialState.js&#45;&gt;components/dropdown.js -->
<g id="edge69" class="edge"><title>store/initialState.js&#45;&gt;components/dropdown.js</title>
<path fill="none" stroke="#757575" d="M2788.83,-476.448C2806.31,-469.911 2826.17,-460.323 2841,-447 2864.7,-425.704 2851.35,-403.91 2877,-385 2878.82,-383.655 2880.72,-382.398 2882.68,-381.224"/>
<polygon fill="#757575" stroke="#757575" points="2884.36,-384.298 2891.63,-376.589 2881.14,-378.084 2884.36,-384.298"/>
</g>
<!-- store/initialState.js&#45;&gt;symbols/perks.js -->
<g id="edge74" class="edge"><title>store/initialState.js&#45;&gt;symbols/perks.js</title>
<path fill="none" stroke="#757575" d="M2765.87,-476.388C2785.63,-462.179 2818.53,-436.586 2841,-409 2861.86,-383.395 2854.52,-368.188 2877,-344 2940.62,-275.561 2975.14,-280.657 3053,-229 3077.23,-212.925 3104.72,-194.375 3124.15,-181.217"/>
<polygon fill="#757575" stroke="#757575" points="3126.15,-184.087 3132.47,-175.579 3122.22,-178.293 3126.15,-184.087"/>
</g>
<!-- store/initialState.js&#45;&gt;scenes/sceneSymbols.js -->
<g id="edge70" class="edge"><title>store/initialState.js&#45;&gt;scenes/sceneSymbols.js</title>
<path fill="none" stroke="#757575" d="M2770.28,-499.551C2791.14,-511.91 2822.44,-533.38 2841,-560 2870.9,-602.89 2845.82,-630.031 2877,-672 2890.7,-690.436 2911.8,-705.188 2929.79,-715.451"/>
<polygon fill="#757575" stroke="#757575" points="2928.41,-718.683 2938.86,-720.405 2931.76,-712.54 2928.41,-718.683"/>
</g>
<!-- symbols/face.js -->
<g id="node47" class="node"><title>symbols/face.js</title>
<path fill="none" stroke="#c6c5fe" d="M3015.33,-458.5C3015.33,-458.5 2914.67,-458.5 2914.67,-458.5 2910.83,-458.5 2907,-454.667 2907,-450.833 2907,-450.833 2907,-443.167 2907,-443.167 2907,-439.333 2910.83,-435.5 2914.67,-435.5 2914.67,-435.5 3015.33,-435.5 3015.33,-435.5 3019.17,-435.5 3023,-439.333 3023,-443.167 3023,-443.167 3023,-450.833 3023,-450.833 3023,-454.667 3019.17,-458.5 3015.33,-458.5"/>
<text text-anchor="middle" x="2965" y="-443.3" font-family="Arial" font-size="14.00" fill="#c6c5fe">symbols/face.js</text>
</g>
<!-- store/initialState.js&#45;&gt;symbols/face.js -->
<g id="edge71" class="edge"><title>store/initialState.js&#45;&gt;symbols/face.js</title>
<path fill="none" stroke="#757575" d="M2809.46,-476.47C2836.67,-471.281 2868.89,-465.136 2896.85,-459.804"/>
<polygon fill="#757575" stroke="#757575" points="2897.78,-463.191 2906.95,-457.88 2896.47,-456.315 2897.78,-463.191"/>
</g>
<!-- symbols/gear.js -->
<g id="node48" class="node"><title>symbols/gear.js</title>
<path fill="none" stroke="#c6c5fe" d="M3015.33,-417.5C3015.33,-417.5 2914.67,-417.5 2914.67,-417.5 2910.83,-417.5 2907,-413.667 2907,-409.833 2907,-409.833 2907,-402.167 2907,-402.167 2907,-398.333 2910.83,-394.5 2914.67,-394.5 2914.67,-394.5 3015.33,-394.5 3015.33,-394.5 3019.17,-394.5 3023,-398.333 3023,-402.167 3023,-402.167 3023,-409.833 3023,-409.833 3023,-413.667 3019.17,-417.5 3015.33,-417.5"/>
<text text-anchor="middle" x="2965" y="-402.3" font-family="Arial" font-size="14.00" fill="#c6c5fe">symbols/gear.js</text>
</g>
<!-- store/initialState.js&#45;&gt;symbols/gear.js -->
<g id="edge72" class="edge"><title>store/initialState.js&#45;&gt;symbols/gear.js</title>
<path fill="none" stroke="#757575" d="M2777.15,-476.397C2795.56,-468.581 2819.99,-457.768 2841,-447 2857.48,-438.551 2859.78,-432.819 2877,-426 2883.29,-423.508 2889.97,-421.285 2896.72,-419.31"/>
<polygon fill="#757575" stroke="#757575" points="2897.9,-422.615 2906.62,-416.593 2896.05,-415.864 2897.9,-422.615"/>
</g>
<!-- symbols/lowerBody.js -->
<g id="node49" class="node"><title>symbols/lowerBody.js</title>
<path fill="none" stroke="#c6c5fe" d="M3034.83,-663.5C3034.83,-663.5 2895.17,-663.5 2895.17,-663.5 2891.33,-663.5 2887.5,-659.667 2887.5,-655.833 2887.5,-655.833 2887.5,-648.167 2887.5,-648.167 2887.5,-644.333 2891.33,-640.5 2895.17,-640.5 2895.17,-640.5 3034.83,-640.5 3034.83,-640.5 3038.67,-640.5 3042.5,-644.333 3042.5,-648.167 3042.5,-648.167 3042.5,-655.833 3042.5,-655.833 3042.5,-659.667 3038.67,-663.5 3034.83,-663.5"/>
<text text-anchor="middle" x="2965" y="-648.3" font-family="Arial" font-size="14.00" fill="#c6c5fe">symbols/lowerBody.js</text>
</g>
<!-- store/initialState.js&#45;&gt;symbols/lowerBody.js -->
<g id="edge73" class="edge"><title>store/initialState.js&#45;&gt;symbols/lowerBody.js</title>
<path fill="none" stroke="#757575" d="M2804.81,-499.666C2818.06,-504.685 2831.18,-511.833 2841,-522 2876.44,-558.701 2839.47,-596.436 2877,-631 2878.5,-632.382 2880.07,-633.677 2881.71,-634.891"/>
<polygon fill="#757575" stroke="#757575" points="2880.04,-637.974 2890.38,-640.307 2883.75,-632.038 2880.04,-637.974"/>
</g>
<!-- symbols/skin.js -->
<g id="node50" class="node"><title>symbols/skin.js</title>
<path fill="none" stroke="#c6c5fe" d="M3013.83,-622.5C3013.83,-622.5 2916.17,-622.5 2916.17,-622.5 2912.33,-622.5 2908.5,-618.667 2908.5,-614.833 2908.5,-614.833 2908.5,-607.167 2908.5,-607.167 2908.5,-603.333 2912.33,-599.5 2916.17,-599.5 2916.17,-599.5 3013.83,-599.5 3013.83,-599.5 3017.67,-599.5 3021.5,-603.333 3021.5,-607.167 3021.5,-607.167 3021.5,-614.833 3021.5,-614.833 3021.5,-618.667 3017.67,-622.5 3013.83,-622.5"/>
<text text-anchor="middle" x="2965" y="-607.3" font-family="Arial" font-size="14.00" fill="#c6c5fe">symbols/skin.js</text>
</g>
<!-- store/initialState.js&#45;&gt;symbols/skin.js -->
<g id="edge75" class="edge"><title>store/initialState.js&#45;&gt;symbols/skin.js</title>
<path fill="none" stroke="#757575" d="M2800.34,-499.616C2814.67,-504.708 2829.47,-511.907 2841,-522 2866.73,-544.521 2849.99,-569.024 2877,-590 2883.46,-595.014 2890.93,-598.855 2898.74,-601.791"/>
<polygon fill="#757575" stroke="#757575" points="2897.78,-605.161 2908.37,-604.944 2899.96,-598.508 2897.78,-605.161"/>
</g>
<!-- symbols/tail.js -->
<g id="node51" class="node"><title>symbols/tail.js</title>
<path fill="none" stroke="#c6c5fe" d="M3009.83,-581.5C3009.83,-581.5 2920.17,-581.5 2920.17,-581.5 2916.33,-581.5 2912.5,-577.667 2912.5,-573.833 2912.5,-573.833 2912.5,-566.167 2912.5,-566.167 2912.5,-562.333 2916.33,-558.5 2920.17,-558.5 2920.17,-558.5 3009.83,-558.5 3009.83,-558.5 3013.67,-558.5 3017.5,-562.333 3017.5,-566.167 3017.5,-566.167 3017.5,-573.833 3017.5,-573.833 3017.5,-577.667 3013.67,-581.5 3009.83,-581.5"/>
<text text-anchor="middle" x="2965" y="-566.3" font-family="Arial" font-size="14.00" fill="#c6c5fe">symbols/tail.js</text>
</g>
<!-- store/initialState.js&#45;&gt;symbols/tail.js -->
<g id="edge76" class="edge"><title>store/initialState.js&#45;&gt;symbols/tail.js</title>
<path fill="none" stroke="#757575" d="M2787.68,-499.512C2804.55,-505.23 2824.25,-512.878 2841,-522 2858.56,-531.567 2858.91,-540.478 2877,-549 2884.97,-552.752 2893.67,-555.872 2902.39,-558.456"/>
<polygon fill="#757575" stroke="#757575" points="2901.64,-561.879 2912.21,-561.151 2903.49,-555.129 2901.64,-561.879"/>
</g>
<!-- symbols/tongue.js -->
<g id="node52" class="node"><title>symbols/tongue.js</title>
<path fill="none" stroke="#c6c5fe" d="M3022.83,-540.5C3022.83,-540.5 2907.17,-540.5 2907.17,-540.5 2903.33,-540.5 2899.5,-536.667 2899.5,-532.833 2899.5,-532.833 2899.5,-525.167 2899.5,-525.167 2899.5,-521.333 2903.33,-517.5 2907.17,-517.5 2907.17,-517.5 3022.83,-517.5 3022.83,-517.5 3026.67,-517.5 3030.5,-521.333 3030.5,-525.167 3030.5,-525.167 3030.5,-532.833 3030.5,-532.833 3030.5,-536.667 3026.67,-540.5 3022.83,-540.5"/>
<text text-anchor="middle" x="2965" y="-525.3" font-family="Arial" font-size="14.00" fill="#c6c5fe">symbols/tongue.js</text>
</g>
<!-- store/initialState.js&#45;&gt;symbols/tongue.js -->
<g id="edge77" class="edge"><title>store/initialState.js&#45;&gt;symbols/tongue.js</title>
<path fill="none" stroke="#757575" d="M2809.46,-499.53C2835.68,-504.529 2866.54,-510.415 2893.77,-515.607"/>
<polygon fill="#757575" stroke="#757575" points="2893.14,-519.05 2903.62,-517.486 2894.45,-512.174 2893.14,-519.05"/>
</g>
<!-- symbols/wings.js -->
<g id="node53" class="node"><title>symbols/wings.js</title>
<path fill="none" stroke="#c6c5fe" d="M3019.33,-499.5C3019.33,-499.5 2910.67,-499.5 2910.67,-499.5 2906.83,-499.5 2903,-495.667 2903,-491.833 2903,-491.833 2903,-484.167 2903,-484.167 2903,-480.333 2906.83,-476.5 2910.67,-476.5 2910.67,-476.5 3019.33,-476.5 3019.33,-476.5 3023.17,-476.5 3027,-480.333 3027,-484.167 3027,-484.167 3027,-491.833 3027,-491.833 3027,-495.667 3023.17,-499.5 3019.33,-499.5"/>
<text text-anchor="middle" x="2965" y="-484.3" font-family="Arial" font-size="14.00" fill="#c6c5fe">symbols/wings.js</text>
</g>
<!-- store/initialState.js&#45;&gt;symbols/wings.js -->
<g id="edge78" class="edge"><title>store/initialState.js&#45;&gt;symbols/wings.js</title>
<path fill="none" stroke="#757575" d="M2813.51,-488C2838.51,-488 2867.23,-488 2892.84,-488"/>
<polygon fill="#757575" stroke="#757575" points="2892.85,-491.5 2902.85,-488 2892.85,-484.5 2892.85,-491.5"/>
</g>
<!-- scenes/charCreation.js&#45;&gt;actions/Core.js -->
<g id="edge47" class="edge"><title>scenes/charCreation.js&#45;&gt;actions/Core.js</title>
<path fill="none" stroke="#757575" d="M1378.48,-641.412C1400.36,-625.806 1441.12,-597.614 1478,-577 1531.11,-547.312 1546.98,-544.968 1602,-519 1633.47,-504.145 1669.3,-487.07 1694.68,-474.943"/>
<polygon fill="#757575" stroke="#757575" points="1696.36,-478.022 1703.87,-470.552 1693.34,-471.706 1696.36,-478.022"/>
</g>
<!-- scenes/charCreation.js&#45;&gt;actions/Player.js -->
<g id="edge48" class="edge"><title>scenes/charCreation.js&#45;&gt;actions/Player.js</title>
<path fill="none" stroke="#757575" d="M1442.29,-645.796C1533.94,-636.848 1688.59,-619.688 1820,-595 1925.89,-575.106 2047.78,-542.146 2114.14,-523.333"/>
<polygon fill="#757575" stroke="#757575" points="2115.25,-526.656 2123.91,-520.551 2113.33,-519.923 2115.25,-526.656"/>
</g>
<!-- scenes/charCreation.js&#45;&gt;symbols/breastCup.js -->
<g id="edge53" class="edge"><title>scenes/charCreation.js&#45;&gt;symbols/breastCup.js</title>
<path fill="none" stroke="#757575" d="M1429.97,-664.543C1503.14,-676.043 1623.5,-692 1728,-692 1728,-692 1728,-692 1947,-692 2063.31,-692 2197.42,-683.944 2282.67,-677.812"/>
<polygon fill="#757575" stroke="#757575" points="2283.1,-681.29 2292.82,-677.074 2282.59,-674.308 2283.1,-681.29"/>
</g>
<!-- scenes/charCreation.js&#45;&gt;appearance/appearance.js -->
<g id="edge49" class="edge"><title>scenes/charCreation.js&#45;&gt;appearance/appearance.js</title>
<path fill="none" stroke="#757575" d="M1442.23,-652.9C1588.6,-652.718 1899.91,-652.329 2061.46,-652.127"/>
<polygon fill="#757575" stroke="#757575" points="2061.89,-655.627 2071.88,-652.114 2061.88,-648.627 2061.89,-655.627"/>
</g>
<!-- scenes/charCreation.js&#45;&gt;symbols/gender.js -->
<g id="edge55" class="edge"><title>scenes/charCreation.js&#45;&gt;symbols/gender.js</title>
<path fill="none" stroke="#757575" d="M1372.89,-664.746C1391.61,-684.997 1433.22,-726.036 1478,-744 1581.6,-785.559 1616.38,-768 1728,-768 1728,-768 1728,-768 1947,-768 2068.09,-768 2208.73,-768.834 2293.2,-769.425"/>
<polygon fill="#757575" stroke="#757575" points="2293.19,-772.924 2303.21,-769.495 2293.24,-765.925 2293.19,-772.924"/>
</g>
<!-- scenes/charCreation.js&#45;&gt;scenes/menus.js -->
<g id="edge50" class="edge"><title>scenes/charCreation.js&#45;&gt;scenes/menus.js</title>
<path fill="none" stroke="#757575" d="M1370.43,-641.195C1387.48,-616.587 1430,-559.252 1478,-525 1483.29,-521.226 1489.21,-517.852 1495.23,-514.886"/>
<polygon fill="#757575" stroke="#757575" points="1497.05,-517.902 1504.69,-510.561 1494.14,-511.536 1497.05,-517.902"/>
</g>
<!-- scenes/charCreation.js&#45;&gt;scenes/sceneSymbols.js -->
<g id="edge51" class="edge"><title>scenes/charCreation.js&#45;&gt;scenes/sceneSymbols.js</title>
<path fill="none" stroke="#757575" d="M1391.01,-664.544C1414.12,-673.492 1447.7,-685.58 1478,-693 1587.1,-719.717 1615.68,-730 1728,-730 1728,-730 1728,-730 2165.5,-730 2418.41,-730 2716.37,-731.016 2866.73,-731.599"/>
<polygon fill="#757575" stroke="#757575" points="2866.85,-735.1 2876.86,-731.639 2866.87,-728.1 2866.85,-735.1"/>
</g>
<!-- scenes/sceneTextStore.js -->
<g id="node41" class="node"><title>scenes/sceneTextStore.js</title>
<path fill="none" stroke="#c6c5fe" d="M1812.33,-586.5C1812.33,-586.5 1645.67,-586.5 1645.67,-586.5 1641.83,-586.5 1638,-582.667 1638,-578.833 1638,-578.833 1638,-571.167 1638,-571.167 1638,-567.333 1641.83,-563.5 1645.67,-563.5 1645.67,-563.5 1812.33,-563.5 1812.33,-563.5 1816.17,-563.5 1820,-567.333 1820,-571.167 1820,-571.167 1820,-578.833 1820,-578.833 1820,-582.667 1816.17,-586.5 1812.33,-586.5"/>
<text text-anchor="middle" x="1729" y="-571.3" font-family="Arial" font-size="14.00" fill="#c6c5fe">scenes/sceneTextStore.js</text>
</g>
<!-- scenes/charCreation.js&#45;&gt;scenes/sceneTextStore.js -->
<g id="edge52" class="edge"><title>scenes/charCreation.js&#45;&gt;scenes/sceneTextStore.js</title>
<path fill="none" stroke="#757575" d="M1383.04,-641.317C1405.57,-629.088 1443.18,-610.388 1478,-601 1526.38,-587.958 1581.65,-581.384 1627.91,-578.101"/>
<polygon fill="#757575" stroke="#757575" points="1628.19,-581.59 1637.94,-577.43 1627.72,-574.605 1628.19,-581.59"/>
</g>
<!-- symbols/butt.js -->
<g id="node42" class="node"><title>symbols/butt.js</title>
<path fill="none" stroke="#c6c5fe" d="M1993.83,-819.5C1993.83,-819.5 1898.17,-819.5 1898.17,-819.5 1894.33,-819.5 1890.5,-815.667 1890.5,-811.833 1890.5,-811.833 1890.5,-804.167 1890.5,-804.167 1890.5,-800.333 1894.33,-796.5 1898.17,-796.5 1898.17,-796.5 1993.83,-796.5 1993.83,-796.5 1997.67,-796.5 2001.5,-800.333 2001.5,-804.167 2001.5,-804.167 2001.5,-811.833 2001.5,-811.833 2001.5,-815.667 1997.67,-819.5 1993.83,-819.5"/>
<text text-anchor="middle" x="1946" y="-804.3" font-family="Arial" font-size="14.00" fill="#c6c5fe">symbols/butt.js</text>
</g>
<!-- scenes/charCreation.js&#45;&gt;symbols/butt.js -->
<g id="edge54" class="edge"><title>scenes/charCreation.js&#45;&gt;symbols/butt.js</title>
<path fill="none" stroke="#757575" d="M1368.66,-664.68C1383.4,-691.227 1423.54,-755.822 1478,-782 1609.52,-845.219 1786.51,-832.495 1880.33,-819.295"/>
<polygon fill="#757575" stroke="#757575" points="1880.85,-822.755 1890.24,-817.854 1879.85,-815.828 1880.85,-822.755"/>
</g>
<!-- symbols/hips.js -->
<g id="node43" class="node"><title>symbols/hips.js</title>
<path fill="none" stroke="#c6c5fe" d="M1589.33,-857.5C1589.33,-857.5 1490.67,-857.5 1490.67,-857.5 1486.83,-857.5 1483,-853.667 1483,-849.833 1483,-849.833 1483,-842.167 1483,-842.167 1483,-838.333 1486.83,-834.5 1490.67,-834.5 1490.67,-834.5 1589.33,-834.5 1589.33,-834.5 1593.17,-834.5 1597,-838.333 1597,-842.167 1597,-842.167 1597,-849.833 1597,-849.833 1597,-853.667 1593.17,-857.5 1589.33,-857.5"/>
<text text-anchor="middle" x="1540" y="-842.3" font-family="Arial" font-size="14.00" fill="#c6c5fe">symbols/hips.js</text>
</g>
<!-- scenes/charCreation.js&#45;&gt;symbols/hips.js -->
<g id="edge56" class="edge"><title>scenes/charCreation.js&#45;&gt;symbols/hips.js</title>
<path fill="none" stroke="#757575" d="M1367.76,-664.804C1381.62,-694.71 1422,-774.318 1478,-820 1482.63,-823.776 1487.89,-827.09 1493.33,-829.973"/>
<polygon fill="#757575" stroke="#757575" points="1492.06,-833.244 1502.59,-834.425 1495.09,-826.936 1492.06,-833.244"/>
</g>
<!-- scenes/menus.js&#45;&gt;actions/Core.js -->
<g id="edge57" class="edge"><title>scenes/menus.js&#45;&gt;actions/Core.js</title>
<path fill="none" stroke="#757575" d="M1594.84,-487.484C1616.55,-482.84 1641.76,-477.447 1664.37,-472.61"/>
<polygon fill="#757575" stroke="#757575" points="1665.17,-476.018 1674.22,-470.504 1663.71,-469.173 1665.17,-476.018"/>
</g>
<!-- scenes/menus.js&#45;&gt;actions/Perks.js -->
<g id="edge58" class="edge"><title>scenes/menus.js&#45;&gt;actions/Perks.js</title>
<path fill="none" stroke="#757575" d="M1556.73,-487.263C1575.33,-473.835 1607.61,-451.912 1638,-438 1797.37,-365.039 1998.59,-313.889 2099.55,-290.815"/>
<polygon fill="#757575" stroke="#757575" points="2100.62,-294.163 2109.59,-288.538 2099.07,-287.337 2100.62,-294.163"/>
</g>
<!-- scenes/menus.js&#45;&gt;scenes/sceneSymbols.js -->
<g id="edge59" class="edge"><title>scenes/menus.js&#45;&gt;scenes/sceneSymbols.js</title>
<path fill="none" stroke="#757575" d="M1598.22,-510.554C1707.56,-531.592 1953.96,-574 2163.5,-574 2163.5,-574 2163.5,-574 2552,-574 2683.18,-574 2735.87,-555.529 2841,-634 2868.09,-654.221 2851.36,-678.965 2877,-701 2884.48,-707.428 2893.38,-712.557 2902.6,-716.639"/>
<polygon fill="#757575" stroke="#757575" points="2901.3,-719.887 2911.88,-720.382 2903.91,-713.395 2901.3,-719.887"/>
</g>
<!-- scenes/menus.js&#45;&gt;scenes/sceneTextStore.js -->
<g id="edge60" class="edge"><title>scenes/menus.js&#45;&gt;scenes/sceneTextStore.js</title>
<path fill="none" stroke="#757575" d="M1560.53,-510.508C1579.76,-521.483 1610.19,-537.936 1638,-549 1648.75,-553.277 1660.48,-557.186 1671.81,-560.6"/>
<polygon fill="#757575" stroke="#757575" points="1671.05,-564.024 1681.63,-563.469 1673.02,-557.305 1671.05,-564.024"/>
</g>
<!-- scenes/sceneTextStore.js&#45;&gt;components/nameInput.js -->
<g id="edge67" class="edge"><title>scenes/sceneTextStore.js&#45;&gt;components/nameInput.js</title>
<path fill="none" stroke="#757575" d="M1755.25,-563.377C1780.45,-552.013 1820.44,-534.626 1856,-522 1867.5,-517.918 1879.98,-513.975 1891.87,-510.445"/>
<polygon fill="#757575" stroke="#757575" points="1893.06,-513.744 1901.68,-507.584 1891.1,-507.025 1893.06,-513.744"/>
</g>
<!-- scenes/sceneTextStore.js&#45;&gt;scenes/sceneSymbols.js -->
<g id="edge68" class="edge"><title>scenes/sceneTextStore.js&#45;&gt;scenes/sceneSymbols.js</title>
<path fill="none" stroke="#757575" d="M1814.54,-586.504C1901.78,-597.366 2041.89,-612 2163.5,-612 2163.5,-612 2163.5,-612 2552,-612 2589.27,-612 2820.05,-685.335 2919.02,-717.347"/>
<polygon fill="#757575" stroke="#757575" points="2918.14,-720.742 2928.73,-720.494 2920.3,-714.083 2918.14,-720.742"/>
</g>
<!-- symbols/butt.js&#45;&gt;utils.js -->
<g id="edge81" class="edge"><title>symbols/butt.js&#45;&gt;utils.js</title>
<path fill="none" stroke="#757575" d="M2001.79,-814.075C2107.61,-825.265 2347.51,-848 2550,-848 2550,-848 2550,-848 2749,-848 2885.28,-848 2945.19,-891.36 3053,-808 3123.37,-753.587 3142.67,-639.438 3147.76,-591.706"/>
<polygon fill="#757575" stroke="#757575" points="3151.26,-591.86 3148.73,-581.572 3144.29,-591.194 3151.26,-591.86"/>
</g>
<!-- symbols/hips.js&#45;&gt;utils.js -->
<g id="edge85" class="edge"><title>symbols/hips.js&#45;&gt;utils.js</title>
<path fill="none" stroke="#757575" d="M1597.18,-850.589C1730.83,-861.095 2078.29,-886 2369,-886 2369,-886 2369,-886 2749,-886 2885.16,-886 2947.17,-933.673 3053,-848 3134,-782.427 3147.19,-644.84 3149.2,-591.642"/>
<polygon fill="#757575" stroke="#757575" points="3152.7,-591.721 3149.48,-581.627 3145.7,-591.525 3152.7,-591.721"/>
</g>
<!-- setupTests.js -->
<g id="node45" class="node"><title>setupTests.js</title>
<path fill="none" stroke="#cfffac" d="M112.333,-400.5C112.333,-400.5 25.6667,-400.5 25.6667,-400.5 21.8333,-400.5 18,-396.667 18,-392.833 18,-392.833 18,-385.167 18,-385.167 18,-381.333 21.8333,-377.5 25.6667,-377.5 25.6667,-377.5 112.333,-377.5 112.333,-377.5 116.167,-377.5 120,-381.333 120,-385.167 120,-385.167 120,-392.833 120,-392.833 120,-396.667 116.167,-400.5 112.333,-400.5"/>
<text text-anchor="middle" x="69" y="-385.3" font-family="Arial" font-size="14.00" fill="#cfffac">setupTests.js</text>
</g>
<!-- store/gameFlags.js -->
<g id="node46" class="node"><title>store/gameFlags.js</title>
<path fill="none" stroke="#cfffac" d="M130.333,-441.5C130.333,-441.5 7.66667,-441.5 7.66667,-441.5 3.83333,-441.5 0,-437.667 0,-433.833 0,-433.833 0,-426.167 0,-426.167 0,-422.333 3.83333,-418.5 7.66667,-418.5 7.66667,-418.5 130.333,-418.5 130.333,-418.5 134.167,-418.5 138,-422.333 138,-426.167 138,-426.167 138,-433.833 138,-433.833 138,-437.667 134.167,-441.5 130.333,-441.5"/>
<text text-anchor="middle" x="69" y="-426.3" font-family="Arial" font-size="14.00" fill="#cfffac">store/gameFlags.js</text>
</g>
<!-- symbols/face.js&#45;&gt;utils.js -->
<g id="edge82" class="edge"><title>symbols/face.js&#45;&gt;utils.js</title>
<path fill="none" stroke="#757575" d="M3023.07,-455.015C3033.44,-457.871 3043.86,-461.746 3053,-467 3089,-487.708 3119.64,-526.148 3136.22,-549.761"/>
<polygon fill="#757575" stroke="#757575" points="3133.53,-552.027 3142.07,-558.304 3139.31,-548.075 3133.53,-552.027"/>
</g>
<!-- symbols/gear.js&#45;&gt;utils.js -->
<g id="edge83" class="edge"><title>symbols/gear.js&#45;&gt;utils.js</title>
<path fill="none" stroke="#757575" d="M3023.35,-412.714C3033.81,-415.685 3044.19,-419.934 3053,-426 3098.2,-457.135 3127.98,-516.996 3141.36,-548.849"/>
<polygon fill="#757575" stroke="#757575" points="3138.27,-550.543 3145.27,-558.495 3144.76,-547.913 3138.27,-550.543"/>
</g>
<!-- symbols/lowerBody.js&#45;&gt;utils.js -->
<g id="edge86" class="edge"><title>symbols/lowerBody.js&#45;&gt;utils.js</title>
<path fill="none" stroke="#757575" d="M3025.34,-640.438C3034.76,-637.819 3044.27,-634.693 3053,-631 3079.79,-619.665 3107.58,-601.279 3126.41,-587.652"/>
<polygon fill="#757575" stroke="#757575" points="3128.68,-590.332 3134.65,-581.582 3124.52,-584.696 3128.68,-590.332"/>
</g>
<!-- symbols/skin.js&#45;&gt;utils.js -->
<g id="edge88" class="edge"><title>symbols/skin.js&#45;&gt;utils.js</title>
<path fill="none" stroke="#757575" d="M3017.6,-599.47C3047.78,-592.728 3085.17,-584.375 3112.42,-578.285"/>
<polygon fill="#757575" stroke="#757575" points="3113.34,-581.666 3122.34,-576.07 3111.81,-574.834 3113.34,-581.666"/>
</g>
<!-- symbols/tail.js&#45;&gt;utils.js -->
<g id="edge89" class="edge"><title>symbols/tail.js&#45;&gt;utils.js</title>
<path fill="none" stroke="#757575" d="M3017.6,-570C3047.64,-570 3084.84,-570 3112.06,-570"/>
<polygon fill="#757575" stroke="#757575" points="3112.34,-573.5 3122.34,-570 3112.34,-566.5 3112.34,-573.5"/>
</g>
<!-- symbols/tongue.js&#45;&gt;utils.js -->
<g id="edge90" class="edge"><title>symbols/tongue.js&#45;&gt;utils.js</title>
<path fill="none" stroke="#757575" d="M3017.6,-540.53C3047.78,-547.272 3085.17,-555.625 3112.42,-561.715"/>
<polygon fill="#757575" stroke="#757575" points="3111.81,-565.166 3122.34,-563.93 3113.34,-558.334 3111.81,-565.166"/>
</g>
<!-- symbols/wings.js&#45;&gt;utils.js -->
<g id="edge92" class="edge"><title>symbols/wings.js&#45;&gt;utils.js</title>
<path fill="none" stroke="#757575" d="M3027.22,-499.253C3036.03,-501.679 3044.86,-504.572 3053,-508 3080.09,-519.407 3108.03,-538.275 3126.82,-552.206"/>
<polygon fill="#757575" stroke="#757575" points="3124.94,-555.168 3135.03,-558.404 3129.16,-549.583 3124.94,-555.168"/>
</g>
</g>
</svg>
