<?xml version="1.0" encoding="UTF-8" standalone="no"?>
<!DOCTYPE svg PUBLIC "-//W3C//DTD SVG 1.1//EN"
 "http://www.w3.org/Graphics/SVG/1.1/DTD/svg11.dtd">
<!-- Generated by graphviz version 2.38.0 (20140413.2041)
 -->
<!-- Title: G Pages: 1 -->
<svg width="3228pt" height="886pt"
 viewBox="0.00 0.00 3228.20 885.87" xmlns="http://www.w3.org/2000/svg" xmlns:xlink="http://www.w3.org/1999/xlink">
<g id="graph0" class="graph" transform="scale(1 1) rotate(0) translate(21.6 864.266)">
<title>G</title>
<polygon fill="#111111" stroke="none" points="-21.6,21.6 -21.6,-864.266 3206.6,-864.266 3206.6,21.6 -21.6,21.6"/>
<!-- actions/Core.js -->
<g id="node1" class="node"><title>actions/Core.js</title>
<path fill="none" stroke="#c6c5fe" d="M1776.83,-279.5C1776.83,-279.5 1681.17,-279.5 1681.17,-279.5 1677.33,-279.5 1673.5,-275.667 1673.5,-271.833 1673.5,-271.833 1673.5,-264.167 1673.5,-264.167 1673.5,-260.333 1677.33,-256.5 1681.17,-256.5 1681.17,-256.5 1776.83,-256.5 1776.83,-256.5 1780.67,-256.5 1784.5,-260.333 1784.5,-264.167 1784.5,-264.167 1784.5,-271.833 1784.5,-271.833 1784.5,-275.667 1780.67,-279.5 1776.83,-279.5"/>
<text text-anchor="middle" x="1729" y="-264.3" font-family="Arial" font-size="14.00" fill="#c6c5fe">actions/Core.js</text>
</g>
<!-- actions/coreMsg.js -->
<g id="node2" class="node"><title>actions/coreMsg.js</title>
<path fill="none" stroke="#cfffac" d="M3064.83,-195.5C3064.83,-195.5 2945.17,-195.5 2945.17,-195.5 2941.33,-195.5 2937.5,-191.667 2937.5,-187.833 2937.5,-187.833 2937.5,-180.167 2937.5,-180.167 2937.5,-176.333 2941.33,-172.5 2945.17,-172.5 2945.17,-172.5 3064.83,-172.5 3064.83,-172.5 3068.67,-172.5 3072.5,-176.333 3072.5,-180.167 3072.5,-180.167 3072.5,-187.833 3072.5,-187.833 3072.5,-191.667 3068.67,-195.5 3064.83,-195.5"/>
<text text-anchor="middle" x="3005" y="-180.3" font-family="Arial" font-size="14.00" fill="#cfffac">actions/coreMsg.js</text>
</g>
<!-- actions/Core.js&#45;&gt;actions/coreMsg.js -->
<g id="edge1" class="edge"><title>actions/Core.js&#45;&gt;actions/coreMsg.js</title>
<path fill="none" stroke="#757575" d="M1784.62,-260.541C1866.7,-249.996 2026.81,-232 2163.5,-232 2163.5,-232 2163.5,-232 2572,-232 2709.62,-232 2744.81,-231.78 2881,-212 2882.74,-211.748 2913.55,-204.734 2943.89,-197.79"/>
<polygon fill="#757575" stroke="#757575" points="2944.73,-201.19 2953.69,-195.546 2943.16,-194.366 2944.73,-201.19"/>
</g>
<!-- store/store.js -->
<g id="node3" class="node"><title>store/store.js</title>
<path fill="none" stroke="#c6c5fe" d="M2411.83,-361.5C2411.83,-361.5 2328.17,-361.5 2328.17,-361.5 2324.33,-361.5 2320.5,-357.667 2320.5,-353.833 2320.5,-353.833 2320.5,-346.167 2320.5,-346.167 2320.5,-342.333 2324.33,-338.5 2328.17,-338.5 2328.17,-338.5 2411.83,-338.5 2411.83,-338.5 2415.67,-338.5 2419.5,-342.333 2419.5,-346.167 2419.5,-346.167 2419.5,-353.833 2419.5,-353.833 2419.5,-357.667 2415.67,-361.5 2411.83,-361.5"/>
<text text-anchor="middle" x="2370" y="-346.3" font-family="Arial" font-size="14.00" fill="#c6c5fe">store/store.js</text>
</g>
<!-- actions/Core.js&#45;&gt;store/store.js -->
<g id="edge2" class="edge"><title>actions/Core.js&#45;&gt;store/store.js</title>
<path fill="none" stroke="#757575" d="M1784.64,-274.824C1880.36,-286.808 2084.61,-312.498 2257,-335 2274.4,-337.271 2293.31,-339.786 2310.56,-342.098"/>
<polygon fill="#757575" stroke="#757575" points="2310.12,-345.57 2320.5,-343.432 2311.05,-338.633 2310.12,-345.57"/>
</g>
<!-- reducers/root.js -->
<g id="node31" class="node"><title>reducers/root.js</title>
<path fill="none" stroke="#c6c5fe" d="M2621.33,-441.5C2621.33,-441.5 2520.67,-441.5 2520.67,-441.5 2516.83,-441.5 2513,-437.667 2513,-433.833 2513,-433.833 2513,-426.167 2513,-426.167 2513,-422.333 2516.83,-418.5 2520.67,-418.5 2520.67,-418.5 2621.33,-418.5 2621.33,-418.5 2625.17,-418.5 2629,-422.333 2629,-426.167 2629,-426.167 2629,-433.833 2629,-433.833 2629,-437.667 2625.17,-441.5 2621.33,-441.5"/>
<text text-anchor="middle" x="2571" y="-426.3" font-family="Arial" font-size="14.00" fill="#c6c5fe">reducers/root.js</text>
</g>
<!-- store/store.js&#45;&gt;reducers/root.js -->
<g id="edge78" class="edge"><title>store/store.js&#45;&gt;reducers/root.js</title>
<path fill="none" stroke="#757575" d="M2399.94,-361.633C2434.82,-375.655 2493.53,-399.26 2532.03,-414.735"/>
<polygon fill="#757575" stroke="#757575" points="2530.77,-418 2541.35,-418.483 2533.38,-411.506 2530.77,-418"/>
</g>
<!-- actions/Engine.js -->
<g id="node4" class="node"><title>actions/Engine.js</title>
<path fill="none" stroke="#c6c5fe" d="M987.833,-319.5C987.833,-319.5 879.167,-319.5 879.167,-319.5 875.333,-319.5 871.5,-315.667 871.5,-311.833 871.5,-311.833 871.5,-304.167 871.5,-304.167 871.5,-300.333 875.333,-296.5 879.167,-296.5 879.167,-296.5 987.833,-296.5 987.833,-296.5 991.667,-296.5 995.5,-300.333 995.5,-304.167 995.5,-304.167 995.5,-311.833 995.5,-311.833 995.5,-315.667 991.667,-319.5 987.833,-319.5"/>
<text text-anchor="middle" x="933.5" y="-304.3" font-family="Arial" font-size="14.00" fill="#c6c5fe">actions/Engine.js</text>
</g>
<!-- scenes/sceneFunctions.js -->
<g id="node5" class="node"><title>scenes/sceneFunctions.js</title>
<path fill="none" stroke="#c6c5fe" d="M1237.33,-319.5C1237.33,-319.5 1070.67,-319.5 1070.67,-319.5 1066.83,-319.5 1063,-315.667 1063,-311.833 1063,-311.833 1063,-304.167 1063,-304.167 1063,-300.333 1066.83,-296.5 1070.67,-296.5 1070.67,-296.5 1237.33,-296.5 1237.33,-296.5 1241.17,-296.5 1245,-300.333 1245,-304.167 1245,-304.167 1245,-311.833 1245,-311.833 1245,-315.667 1241.17,-319.5 1237.33,-319.5"/>
<text text-anchor="middle" x="1154" y="-304.3" font-family="Arial" font-size="14.00" fill="#c6c5fe">scenes/sceneFunctions.js</text>
</g>
<!-- actions/Engine.js&#45;&gt;scenes/sceneFunctions.js -->
<g id="edge3" class="edge"><title>actions/Engine.js&#45;&gt;scenes/sceneFunctions.js</title>
<path fill="none" stroke="#757575" d="M995.655,-308C1013.39,-308 1033.25,-308 1052.72,-308"/>
<polygon fill="#757575" stroke="#757575" points="1052.85,-311.5 1062.85,-308 1052.85,-304.5 1052.85,-311.5"/>
</g>
<!-- scenes/sceneFunctions.js&#45;&gt;actions/Core.js -->
<g id="edge62" class="edge"><title>scenes/sceneFunctions.js&#45;&gt;actions/Core.js</title>
<path fill="none" stroke="#757575" d="M1245.11,-306.946C1335.55,-305.188 1478.73,-300.501 1602,-288 1621.98,-285.973 1643.62,-282.873 1663.24,-279.713"/>
<polygon fill="#757575" stroke="#757575" points="1663.99,-283.137 1673.29,-278.061 1662.85,-276.229 1663.99,-283.137"/>
</g>
<!-- scenes/sceneFunctions.js&#45;&gt;store/store.js -->
<g id="edge67" class="edge"><title>scenes/sceneFunctions.js&#45;&gt;store/store.js</title>
<path fill="none" stroke="#757575" d="M1222.05,-319.53C1298.51,-331.657 1427.37,-349 1539,-349 1539,-349 1539,-349 1947,-349 2076.63,-349 2228.65,-349.478 2310.2,-349.773"/>
<polygon fill="#757575" stroke="#757575" points="2310.25,-353.273 2320.26,-349.81 2310.28,-346.273 2310.25,-353.273"/>
</g>
<!-- scenes/charCreation.js -->
<g id="node38" class="node"><title>scenes/charCreation.js</title>
<path fill="none" stroke="#c6c5fe" d="M1434.33,-535.5C1434.33,-535.5 1288.67,-535.5 1288.67,-535.5 1284.83,-535.5 1281,-531.667 1281,-527.833 1281,-527.833 1281,-520.167 1281,-520.167 1281,-516.333 1284.83,-512.5 1288.67,-512.5 1288.67,-512.5 1434.33,-512.5 1434.33,-512.5 1438.17,-512.5 1442,-516.333 1442,-520.167 1442,-520.167 1442,-527.833 1442,-527.833 1442,-531.667 1438.17,-535.5 1434.33,-535.5"/>
<text text-anchor="middle" x="1361.5" y="-520.3" font-family="Arial" font-size="14.00" fill="#c6c5fe">scenes/charCreation.js</text>
</g>
<!-- scenes/sceneFunctions.js&#45;&gt;scenes/charCreation.js -->
<g id="edge63" class="edge"><title>scenes/sceneFunctions.js&#45;&gt;scenes/charCreation.js</title>
<path fill="none" stroke="#757575" d="M1232.03,-319.692C1236.66,-322.012 1241.04,-324.757 1245,-328 1275.49,-352.943 1261.71,-374.648 1281,-409 1300.72,-444.127 1328.29,-482.043 1345.23,-504.368"/>
<polygon fill="#757575" stroke="#757575" points="1342.52,-506.58 1351.38,-512.391 1348.08,-502.324 1342.52,-506.58"/>
</g>
<!-- scenes/menus.js -->
<g id="node39" class="node"><title>scenes/menus.js</title>
<path fill="none" stroke="#c6c5fe" d="M1594.33,-279.5C1594.33,-279.5 1485.67,-279.5 1485.67,-279.5 1481.83,-279.5 1478,-275.667 1478,-271.833 1478,-271.833 1478,-264.167 1478,-264.167 1478,-260.333 1481.83,-256.5 1485.67,-256.5 1485.67,-256.5 1594.33,-256.5 1594.33,-256.5 1598.17,-256.5 1602,-260.333 1602,-264.167 1602,-264.167 1602,-271.833 1602,-271.833 1602,-275.667 1598.17,-279.5 1594.33,-279.5"/>
<text text-anchor="middle" x="1540" y="-264.3" font-family="Arial" font-size="14.00" fill="#c6c5fe">scenes/menus.js</text>
</g>
<!-- scenes/sceneFunctions.js&#45;&gt;scenes/menus.js -->
<g id="edge64" class="edge"><title>scenes/sceneFunctions.js&#45;&gt;scenes/menus.js</title>
<path fill="none" stroke="#757575" d="M1245.15,-297.87C1257.2,-296.549 1269.4,-295.229 1281,-294 1344.16,-287.308 1416.07,-280.095 1467.9,-274.968"/>
<polygon fill="#757575" stroke="#757575" points="1468.38,-278.437 1477.99,-273.971 1467.7,-271.471 1468.38,-278.437"/>
</g>
<!-- scenes/sceneSymbols.js -->
<g id="node40" class="node"><title>scenes/sceneSymbols.js</title>
<path fill="none" stroke="#cfffac" d="M3085.33,-87.5C3085.33,-87.5 2924.67,-87.5 2924.67,-87.5 2920.83,-87.5 2917,-83.6667 2917,-79.8333 2917,-79.8333 2917,-72.1667 2917,-72.1667 2917,-68.3333 2920.83,-64.5 2924.67,-64.5 2924.67,-64.5 3085.33,-64.5 3085.33,-64.5 3089.17,-64.5 3093,-68.3333 3093,-72.1667 3093,-72.1667 3093,-79.8333 3093,-79.8333 3093,-83.6667 3089.17,-87.5 3085.33,-87.5"/>
<text text-anchor="middle" x="3005" y="-72.3" font-family="Arial" font-size="14.00" fill="#cfffac">scenes/sceneSymbols.js</text>
</g>
<!-- scenes/sceneFunctions.js&#45;&gt;scenes/sceneSymbols.js -->
<g id="edge65" class="edge"><title>scenes/sceneFunctions.js&#45;&gt;scenes/sceneSymbols.js</title>
<path fill="none" stroke="#757575" d="M1161.63,-296.302C1194.46,-240.042 1345.86,-0 1539,-0 1539,-0 1539,-0 2572,-0 2710.42,-0 2745.59,-10.2966 2881,-39 2908.1,-44.7453 2937.87,-53.6296 2961.34,-61.2524"/>
<polygon fill="#757575" stroke="#757575" points="2960.39,-64.6244 2970.98,-64.4293 2962.58,-57.9759 2960.39,-64.6244"/>
</g>
<!-- scenes/tests/testing.js -->
<g id="node44" class="node"><title>scenes/tests/testing.js</title>
<path fill="none" stroke="#cfffac" d="M1432.83,-400.5C1432.83,-400.5 1290.17,-400.5 1290.17,-400.5 1286.33,-400.5 1282.5,-396.667 1282.5,-392.833 1282.5,-392.833 1282.5,-385.167 1282.5,-385.167 1282.5,-381.333 1286.33,-377.5 1290.17,-377.5 1290.17,-377.5 1432.83,-377.5 1432.83,-377.5 1436.67,-377.5 1440.5,-381.333 1440.5,-385.167 1440.5,-385.167 1440.5,-392.833 1440.5,-392.833 1440.5,-396.667 1436.67,-400.5 1432.83,-400.5"/>
<text text-anchor="middle" x="1361.5" y="-385.3" font-family="Arial" font-size="14.00" fill="#cfffac">scenes/tests/testing.js</text>
</g>
<!-- scenes/sceneFunctions.js&#45;&gt;scenes/tests/testing.js -->
<g id="edge66" class="edge"><title>scenes/sceneFunctions.js&#45;&gt;scenes/tests/testing.js</title>
<path fill="none" stroke="#757575" d="M1225.19,-319.548C1232.08,-321.868 1238.8,-324.655 1245,-328 1264.64,-338.6 1261.9,-351.456 1281,-363 1287.98,-367.219 1295.72,-370.838 1303.56,-373.918"/>
<polygon fill="#757575" stroke="#757575" points="1302.53,-377.266 1313.12,-377.411 1304.93,-370.691 1302.53,-377.266"/>
</g>
<!-- actions/Perks.js -->
<g id="node6" class="node"><title>actions/Perks.js</title>
<path fill="none" stroke="#c6c5fe" d="M2214.83,-203.5C2214.83,-203.5 2114.17,-203.5 2114.17,-203.5 2110.33,-203.5 2106.5,-199.667 2106.5,-195.833 2106.5,-195.833 2106.5,-188.167 2106.5,-188.167 2106.5,-184.333 2110.33,-180.5 2114.17,-180.5 2114.17,-180.5 2214.83,-180.5 2214.83,-180.5 2218.67,-180.5 2222.5,-184.333 2222.5,-188.167 2222.5,-188.167 2222.5,-195.833 2222.5,-195.833 2222.5,-199.667 2218.67,-203.5 2214.83,-203.5"/>
<text text-anchor="middle" x="2164.5" y="-188.3" font-family="Arial" font-size="14.00" fill="#c6c5fe">actions/Perks.js</text>
</g>
<!-- actions/Perks.js&#45;&gt;store/store.js -->
<g id="edge5" class="edge"><title>actions/Perks.js&#45;&gt;store/store.js</title>
<path fill="none" stroke="#757575" d="M2180.46,-203.618C2215.67,-230.954 2303.94,-299.489 2346.01,-332.15"/>
<polygon fill="#757575" stroke="#757575" points="2343.97,-334.997 2354.01,-338.365 2348.26,-329.468 2343.97,-334.997"/>
</g>
<!-- actions/engineMsg.js -->
<g id="node7" class="node"><title>actions/engineMsg.js</title>
<path fill="none" stroke="#cfffac" d="M3071.83,-154.5C3071.83,-154.5 2938.17,-154.5 2938.17,-154.5 2934.33,-154.5 2930.5,-150.667 2930.5,-146.833 2930.5,-146.833 2930.5,-139.167 2930.5,-139.167 2930.5,-135.333 2934.33,-131.5 2938.17,-131.5 2938.17,-131.5 3071.83,-131.5 3071.83,-131.5 3075.67,-131.5 3079.5,-135.333 3079.5,-139.167 3079.5,-139.167 3079.5,-146.833 3079.5,-146.833 3079.5,-150.667 3075.67,-154.5 3071.83,-154.5"/>
<text text-anchor="middle" x="3005" y="-139.3" font-family="Arial" font-size="14.00" fill="#cfffac">actions/engineMsg.js</text>
</g>
<!-- actions/Perks.js&#45;&gt;actions/engineMsg.js -->
<g id="edge4" class="edge"><title>actions/Perks.js&#45;&gt;actions/engineMsg.js</title>
<path fill="none" stroke="#757575" d="M2222.56,-188.013C2286.1,-183.623 2391.88,-176.462 2483,-171 2637.23,-161.756 2817.23,-152.4 2920.19,-147.185"/>
<polygon fill="#757575" stroke="#757575" points="2920.4,-150.679 2930.22,-146.678 2920.05,-143.688 2920.4,-150.679"/>
</g>
<!-- actions/Player.js -->
<g id="node8" class="node"><title>actions/Player.js</title>
<path fill="none" stroke="#c6c5fe" d="M2216.33,-535.5C2216.33,-535.5 2112.67,-535.5 2112.67,-535.5 2108.83,-535.5 2105,-531.667 2105,-527.833 2105,-527.833 2105,-520.167 2105,-520.167 2105,-516.333 2108.83,-512.5 2112.67,-512.5 2112.67,-512.5 2216.33,-512.5 2216.33,-512.5 2220.17,-512.5 2224,-516.333 2224,-520.167 2224,-520.167 2224,-527.833 2224,-527.833 2224,-531.667 2220.17,-535.5 2216.33,-535.5"/>
<text text-anchor="middle" x="2164.5" y="-520.3" font-family="Arial" font-size="14.00" fill="#c6c5fe">actions/Player.js</text>
</g>
<!-- actions/Player.js&#45;&gt;store/store.js -->
<g id="edge7" class="edge"><title>actions/Player.js&#45;&gt;store/store.js</title>
<path fill="none" stroke="#757575" d="M2213,-512.365C2228.79,-506.444 2245.31,-497.712 2257,-485 2291.53,-447.443 2257.12,-412.267 2293,-376 2298.12,-370.82 2304.32,-366.672 2310.94,-363.35"/>
<polygon fill="#757575" stroke="#757575" points="2312.41,-366.527 2320.17,-359.312 2309.61,-360.114 2312.41,-366.527"/>
</g>
<!-- actions/playerMsg.js -->
<g id="node9" class="node"><title>actions/playerMsg.js</title>
<path fill="none" stroke="#cfffac" d="M3069.83,-600.5C3069.83,-600.5 2940.17,-600.5 2940.17,-600.5 2936.33,-600.5 2932.5,-596.667 2932.5,-592.833 2932.5,-592.833 2932.5,-585.167 2932.5,-585.167 2932.5,-581.333 2936.33,-577.5 2940.17,-577.5 2940.17,-577.5 3069.83,-577.5 3069.83,-577.5 3073.67,-577.5 3077.5,-581.333 3077.5,-585.167 3077.5,-585.167 3077.5,-592.833 3077.5,-592.833 3077.5,-596.667 3073.67,-600.5 3069.83,-600.5"/>
<text text-anchor="middle" x="3005" y="-585.3" font-family="Arial" font-size="14.00" fill="#cfffac">actions/playerMsg.js</text>
</g>
<!-- actions/Player.js&#45;&gt;actions/playerMsg.js -->
<g id="edge6" class="edge"><title>actions/Player.js&#45;&gt;actions/playerMsg.js</title>
<path fill="none" stroke="#757575" d="M2224.06,-527.182C2281.04,-530.46 2370.04,-536.062 2447,-543 2557.47,-552.96 2584.48,-561.549 2695,-571 2771.96,-577.582 2859.92,-582.447 2922.26,-585.449"/>
<polygon fill="#757575" stroke="#757575" points="2922.27,-588.953 2932.43,-585.933 2922.61,-581.961 2922.27,-588.953"/>
</g>
<!-- symbols/breastCup.js -->
<g id="node10" class="node"><title>symbols/breastCup.js</title>
<path fill="none" stroke="#c6c5fe" d="M2439.33,-655.5C2439.33,-655.5 2300.67,-655.5 2300.67,-655.5 2296.83,-655.5 2293,-651.667 2293,-647.833 2293,-647.833 2293,-640.167 2293,-640.167 2293,-636.333 2296.83,-632.5 2300.67,-632.5 2300.67,-632.5 2439.33,-632.5 2439.33,-632.5 2443.17,-632.5 2447,-636.333 2447,-640.167 2447,-640.167 2447,-647.833 2447,-647.833 2447,-651.667 2443.17,-655.5 2439.33,-655.5"/>
<text text-anchor="middle" x="2370" y="-640.3" font-family="Arial" font-size="14.00" fill="#c6c5fe">symbols/breastCup.js</text>
</g>
<!-- actions/Player.js&#45;&gt;symbols/breastCup.js -->
<g id="edge8" class="edge"><title>actions/Player.js&#45;&gt;symbols/breastCup.js</title>
<path fill="none" stroke="#757575" d="M2208.06,-535.634C2224.58,-541.616 2242.88,-550.192 2257,-562 2279.7,-580.983 2269.71,-599.753 2293,-618 2298.11,-622.007 2303.89,-625.417 2309.9,-628.314"/>
<polygon fill="#757575" stroke="#757575" points="2308.94,-631.709 2319.51,-632.457 2311.71,-625.282 2308.94,-631.709"/>
</g>
<!-- symbols/cockType.js -->
<g id="node11" class="node"><title>symbols/cockType.js</title>
<path fill="none" stroke="#cfffac" d="M2437.33,-575.5C2437.33,-575.5 2302.67,-575.5 2302.67,-575.5 2298.83,-575.5 2295,-571.667 2295,-567.833 2295,-567.833 2295,-560.167 2295,-560.167 2295,-556.333 2298.83,-552.5 2302.67,-552.5 2302.67,-552.5 2437.33,-552.5 2437.33,-552.5 2441.17,-552.5 2445,-556.333 2445,-560.167 2445,-560.167 2445,-567.833 2445,-567.833 2445,-571.667 2441.17,-575.5 2437.33,-575.5"/>
<text text-anchor="middle" x="2370" y="-560.3" font-family="Arial" font-size="14.00" fill="#cfffac">symbols/cockType.js</text>
</g>
<!-- actions/Player.js&#45;&gt;symbols/cockType.js -->
<g id="edge9" class="edge"><title>actions/Player.js&#45;&gt;symbols/cockType.js</title>
<path fill="none" stroke="#757575" d="M2224.09,-535.516C2247.93,-540.202 2275.65,-545.65 2300.42,-550.52"/>
<polygon fill="#757575" stroke="#757575" points="2299.99,-554.002 2310.47,-552.496 2301.34,-547.133 2299.99,-554.002"/>
</g>
<!-- symbols/perks.js -->
<g id="node12" class="node"><title>symbols/perks.js</title>
<path fill="none" stroke="#c6c5fe" d="M2841.83,-203.5C2841.83,-203.5 2734.17,-203.5 2734.17,-203.5 2730.33,-203.5 2726.5,-199.667 2726.5,-195.833 2726.5,-195.833 2726.5,-188.167 2726.5,-188.167 2726.5,-184.333 2730.33,-180.5 2734.17,-180.5 2734.17,-180.5 2841.83,-180.5 2841.83,-180.5 2845.67,-180.5 2849.5,-184.333 2849.5,-188.167 2849.5,-188.167 2849.5,-195.833 2849.5,-195.833 2849.5,-199.667 2845.67,-203.5 2841.83,-203.5"/>
<text text-anchor="middle" x="2788" y="-188.3" font-family="Arial" font-size="14.00" fill="#c6c5fe">symbols/perks.js</text>
</g>
<!-- actions/Player.js&#45;&gt;symbols/perks.js -->
<g id="edge10" class="edge"><title>actions/Player.js&#45;&gt;symbols/perks.js</title>
<path fill="none" stroke="#757575" d="M2195.66,-512.398C2213.74,-505.136 2237.02,-495.239 2257,-485 2344.84,-439.98 2363.45,-422.554 2447,-370 2558.44,-299.904 2572.51,-256.272 2695,-208 2701.74,-205.344 2708.93,-203.127 2716.21,-201.278"/>
<polygon fill="#757575" stroke="#757575" points="2717.2,-204.641 2726.15,-198.977 2715.62,-197.821 2717.2,-204.641"/>
</g>
<!-- symbols/vaginas.js -->
<g id="node13" class="node"><title>symbols/vaginas.js</title>
<path fill="none" stroke="#c6c5fe" d="M2631.33,-647.5C2631.33,-647.5 2510.67,-647.5 2510.67,-647.5 2506.83,-647.5 2503,-643.667 2503,-639.833 2503,-639.833 2503,-632.167 2503,-632.167 2503,-628.333 2506.83,-624.5 2510.67,-624.5 2510.67,-624.5 2631.33,-624.5 2631.33,-624.5 2635.17,-624.5 2639,-628.333 2639,-632.167 2639,-632.167 2639,-639.833 2639,-639.833 2639,-643.667 2635.17,-647.5 2631.33,-647.5"/>
<text text-anchor="middle" x="2571" y="-632.3" font-family="Arial" font-size="14.00" fill="#c6c5fe">symbols/vaginas.js</text>
</g>
<!-- actions/Player.js&#45;&gt;symbols/vaginas.js -->
<g id="edge11" class="edge"><title>actions/Player.js&#45;&gt;symbols/vaginas.js</title>
<path fill="none" stroke="#757575" d="M2196.54,-535.506C2214.51,-542.507 2237.38,-552.007 2257,-562 2273.71,-570.51 2275.5,-577.271 2293,-584 2357.95,-608.972 2436.22,-622.246 2492.97,-629.113"/>
<polygon fill="#757575" stroke="#757575" points="2492.61,-632.595 2502.95,-630.282 2493.42,-625.643 2492.61,-632.595"/>
</g>
<!-- utils.js -->
<g id="node37" class="node"><title>utils.js</title>
<path fill="none" stroke="#cfffac" d="M3177.33,-522.5C3177.33,-522.5 3136.67,-522.5 3136.67,-522.5 3132.83,-522.5 3129,-518.667 3129,-514.833 3129,-514.833 3129,-507.167 3129,-507.167 3129,-503.333 3132.83,-499.5 3136.67,-499.5 3136.67,-499.5 3177.33,-499.5 3177.33,-499.5 3181.17,-499.5 3185,-503.333 3185,-507.167 3185,-507.167 3185,-514.833 3185,-514.833 3185,-518.667 3181.17,-522.5 3177.33,-522.5"/>
<text text-anchor="middle" x="3157" y="-507.3" font-family="Arial" font-size="14.00" fill="#cfffac">utils.js</text>
</g>
<!-- symbols/breastCup.js&#45;&gt;utils.js -->
<g id="edge79" class="edge"><title>symbols/breastCup.js&#45;&gt;utils.js</title>
<path fill="none" stroke="#757575" d="M2429.34,-655.515C2582.08,-684.273 2989.05,-751.554 3093,-674 3138.42,-640.113 3151.1,-568.901 3154.63,-532.871"/>
<polygon fill="#757575" stroke="#757575" points="3158.16,-532.756 3155.49,-522.502 3151.18,-532.179 3158.16,-532.756"/>
</g>
<!-- symbols/perks.js&#45;&gt;actions/engineMsg.js -->
<g id="edge86" class="edge"><title>symbols/perks.js&#45;&gt;actions/engineMsg.js</title>
<path fill="none" stroke="#757575" d="M2839.68,-180.45C2870.73,-173.373 2910.66,-164.273 2943.38,-156.815"/>
<polygon fill="#757575" stroke="#757575" points="2944.32,-160.192 2953.29,-154.558 2942.76,-153.367 2944.32,-160.192"/>
</g>
<!-- symbols/vaginas.js&#45;&gt;utils.js -->
<g id="edge90" class="edge"><title>symbols/vaginas.js&#45;&gt;utils.js</title>
<path fill="none" stroke="#757575" d="M2606.89,-647.516C2696.15,-674.689 2936.76,-733.283 3093,-633 3128.4,-610.279 3144.93,-560.917 3151.79,-532.435"/>
<polygon fill="#757575" stroke="#757575" points="3155.21,-533.161 3153.96,-522.64 3148.38,-531.645 3155.21,-533.161"/>
</g>
<!-- appearance/appearance.js -->
<g id="node14" class="node"><title>appearance/appearance.js</title>
<path fill="none" stroke="#c6c5fe" d="M2249.33,-594.5C2249.33,-594.5 2079.67,-594.5 2079.67,-594.5 2075.83,-594.5 2072,-590.667 2072,-586.833 2072,-586.833 2072,-579.167 2072,-579.167 2072,-575.333 2075.83,-571.5 2079.67,-571.5 2079.67,-571.5 2249.33,-571.5 2249.33,-571.5 2253.17,-571.5 2257,-575.333 2257,-579.167 2257,-579.167 2257,-586.833 2257,-586.833 2257,-590.667 2253.17,-594.5 2249.33,-594.5"/>
<text text-anchor="middle" x="2164.5" y="-579.3" font-family="Arial" font-size="14.00" fill="#c6c5fe">appearance/appearance.js</text>
</g>
<!-- appearance/appearance.js&#45;&gt;store/store.js -->
<g id="edge12" class="edge"><title>appearance/appearance.js&#45;&gt;store/store.js</title>
<path fill="none" stroke="#757575" d="M2207.89,-571.368C2224.58,-565.242 2243.04,-556.368 2257,-544 2312.73,-494.623 2347.74,-410.601 2361.86,-371.366"/>
<polygon fill="#757575" stroke="#757575" points="2365.22,-372.36 2365.21,-361.765 2358.61,-370.051 2365.22,-372.36"/>
</g>
<!-- appearance/appearance.js&#45;&gt;symbols/breastCup.js -->
<g id="edge13" class="edge"><title>appearance/appearance.js&#45;&gt;symbols/breastCup.js</title>
<path fill="none" stroke="#757575" d="M2204.26,-594.617C2237.35,-604.539 2285.11,-618.855 2320.7,-629.521"/>
<polygon fill="#757575" stroke="#757575" points="2319.8,-632.907 2330.39,-632.426 2321.81,-626.202 2319.8,-632.907"/>
</g>
<!-- symbols/gender.js -->
<g id="node15" class="node"><title>symbols/gender.js</title>
<path fill="none" stroke="#c6c5fe" d="M2428.83,-696.5C2428.83,-696.5 2311.17,-696.5 2311.17,-696.5 2307.33,-696.5 2303.5,-692.667 2303.5,-688.833 2303.5,-688.833 2303.5,-681.167 2303.5,-681.167 2303.5,-677.333 2307.33,-673.5 2311.17,-673.5 2311.17,-673.5 2428.83,-673.5 2428.83,-673.5 2432.67,-673.5 2436.5,-677.333 2436.5,-681.167 2436.5,-681.167 2436.5,-688.833 2436.5,-688.833 2436.5,-692.667 2432.67,-696.5 2428.83,-696.5"/>
<text text-anchor="middle" x="2370" y="-681.3" font-family="Arial" font-size="14.00" fill="#c6c5fe">symbols/gender.js</text>
</g>
<!-- appearance/appearance.js&#45;&gt;symbols/gender.js -->
<g id="edge14" class="edge"><title>appearance/appearance.js&#45;&gt;symbols/gender.js</title>
<path fill="none" stroke="#757575" d="M2180.37,-594.537C2203.34,-611.865 2249.38,-644.635 2293,-664 2298.08,-666.256 2303.47,-668.325 2308.93,-670.21"/>
<polygon fill="#757575" stroke="#757575" points="2308.2,-673.653 2318.79,-673.403 2310.36,-666.993 2308.2,-673.653"/>
</g>
<!-- symbols/gender.js&#45;&gt;utils.js -->
<g id="edge83" class="edge"><title>symbols/gender.js&#45;&gt;utils.js</title>
<path fill="none" stroke="#757575" d="M2433.43,-696.52C2589.48,-723.829 2991.26,-784.545 3093,-706 3147.43,-663.98 3155.58,-574.256 3156.31,-532.813"/>
<polygon fill="#757575" stroke="#757575" points="3159.81,-532.72 3156.35,-522.705 3152.81,-532.691 3159.81,-532.72"/>
</g>
<!-- components/appRoot.js -->
<g id="node16" class="node"><title>components/appRoot.js</title>
<path fill="none" stroke="#c6c5fe" d="M334.333,-360.5C334.333,-360.5 181.667,-360.5 181.667,-360.5 177.833,-360.5 174,-356.667 174,-352.833 174,-352.833 174,-345.167 174,-345.167 174,-341.333 177.833,-337.5 181.667,-337.5 181.667,-337.5 334.333,-337.5 334.333,-337.5 338.167,-337.5 342,-341.333 342,-345.167 342,-345.167 342,-352.833 342,-352.833 342,-356.667 338.167,-360.5 334.333,-360.5"/>
<text text-anchor="middle" x="258" y="-345.3" font-family="Arial" font-size="14.00" fill="#c6c5fe">components/appRoot.js</text>
</g>
<!-- components/lowerButtons.js -->
<g id="node17" class="node"><title>components/lowerButtons.js</title>
<path fill="none" stroke="#c6c5fe" d="M565.333,-319.5C565.333,-319.5 385.667,-319.5 385.667,-319.5 381.833,-319.5 378,-315.667 378,-311.833 378,-311.833 378,-304.167 378,-304.167 378,-300.333 381.833,-296.5 385.667,-296.5 385.667,-296.5 565.333,-296.5 565.333,-296.5 569.167,-296.5 573,-300.333 573,-304.167 573,-304.167 573,-311.833 573,-311.833 573,-315.667 569.167,-319.5 565.333,-319.5"/>
<text text-anchor="middle" x="475.5" y="-304.3" font-family="Arial" font-size="14.00" fill="#c6c5fe">components/lowerButtons.js</text>
</g>
<!-- components/appRoot.js&#45;&gt;components/lowerButtons.js -->
<g id="edge15" class="edge"><title>components/appRoot.js&#45;&gt;components/lowerButtons.js</title>
<path fill="none" stroke="#757575" d="M319.602,-337.47C345.88,-332.471 376.817,-326.585 404.106,-321.393"/>
<polygon fill="#757575" stroke="#757575" points="404.81,-324.822 413.98,-319.514 403.502,-317.945 404.81,-324.822"/>
</g>
<!-- components/menuBar.js -->
<g id="node18" class="node"><title>components/menuBar.js</title>
<path fill="none" stroke="#c6c5fe" d="M552.833,-360.5C552.833,-360.5 398.167,-360.5 398.167,-360.5 394.333,-360.5 390.5,-356.667 390.5,-352.833 390.5,-352.833 390.5,-345.167 390.5,-345.167 390.5,-341.333 394.333,-337.5 398.167,-337.5 398.167,-337.5 552.833,-337.5 552.833,-337.5 556.667,-337.5 560.5,-341.333 560.5,-345.167 560.5,-345.167 560.5,-352.833 560.5,-352.833 560.5,-356.667 556.667,-360.5 552.833,-360.5"/>
<text text-anchor="middle" x="475.5" y="-345.3" font-family="Arial" font-size="14.00" fill="#c6c5fe">components/menuBar.js</text>
</g>
<!-- components/appRoot.js&#45;&gt;components/menuBar.js -->
<g id="edge16" class="edge"><title>components/appRoot.js&#45;&gt;components/menuBar.js</title>
<path fill="none" stroke="#757575" d="M342.01,-349C354.546,-349 367.556,-349 380.307,-349"/>
<polygon fill="#757575" stroke="#757575" points="380.465,-352.5 390.465,-349 380.465,-345.5 380.465,-352.5"/>
</g>
<!-- components/output.js -->
<g id="node19" class="node"><title>components/output.js</title>
<path fill="none" stroke="#cfffac" d="M543.833,-278.5C543.833,-278.5 407.167,-278.5 407.167,-278.5 403.333,-278.5 399.5,-274.667 399.5,-270.833 399.5,-270.833 399.5,-263.167 399.5,-263.167 399.5,-259.333 403.333,-255.5 407.167,-255.5 407.167,-255.5 543.833,-255.5 543.833,-255.5 547.667,-255.5 551.5,-259.333 551.5,-263.167 551.5,-263.167 551.5,-270.833 551.5,-270.833 551.5,-274.667 547.667,-278.5 543.833,-278.5"/>
<text text-anchor="middle" x="475.5" y="-263.3" font-family="Arial" font-size="14.00" fill="#cfffac">components/output.js</text>
</g>
<!-- components/appRoot.js&#45;&gt;components/output.js -->
<g id="edge17" class="edge"><title>components/appRoot.js&#45;&gt;components/output.js</title>
<path fill="none" stroke="#757575" d="M277.235,-337.456C299.986,-323.543 340.476,-300.372 378,-287 384.029,-284.852 390.356,-282.904 396.766,-281.144"/>
<polygon fill="#757575" stroke="#757575" points="398.069,-284.423 406.875,-278.532 396.317,-277.645 398.069,-284.423"/>
</g>
<!-- components/statBar.js -->
<g id="node20" class="node"><title>components/statBar.js</title>
<path fill="none" stroke="#c6c5fe" d="M546.833,-401.5C546.833,-401.5 404.167,-401.5 404.167,-401.5 400.333,-401.5 396.5,-397.667 396.5,-393.833 396.5,-393.833 396.5,-386.167 396.5,-386.167 396.5,-382.333 400.333,-378.5 404.167,-378.5 404.167,-378.5 546.833,-378.5 546.833,-378.5 550.667,-378.5 554.5,-382.333 554.5,-386.167 554.5,-386.167 554.5,-393.833 554.5,-393.833 554.5,-397.667 550.667,-401.5 546.833,-401.5"/>
<text text-anchor="middle" x="475.5" y="-386.3" font-family="Arial" font-size="14.00" fill="#c6c5fe">components/statBar.js</text>
</g>
<!-- components/appRoot.js&#45;&gt;components/statBar.js -->
<g id="edge18" class="edge"><title>components/appRoot.js&#45;&gt;components/statBar.js</title>
<path fill="none" stroke="#757575" d="M319.602,-360.53C345.88,-365.529 376.817,-371.415 404.106,-376.607"/>
<polygon fill="#757575" stroke="#757575" points="403.502,-380.055 413.98,-378.486 404.81,-373.178 403.502,-380.055"/>
</g>
<!-- components/buttonGrid.js -->
<g id="node22" class="node"><title>components/buttonGrid.js</title>
<path fill="none" stroke="#c6c5fe" d="M788.333,-319.5C788.333,-319.5 624.667,-319.5 624.667,-319.5 620.833,-319.5 617,-315.667 617,-311.833 617,-311.833 617,-304.167 617,-304.167 617,-300.333 620.833,-296.5 624.667,-296.5 624.667,-296.5 788.333,-296.5 788.333,-296.5 792.167,-296.5 796,-300.333 796,-304.167 796,-304.167 796,-311.833 796,-311.833 796,-315.667 792.167,-319.5 788.333,-319.5"/>
<text text-anchor="middle" x="706.5" y="-304.3" font-family="Arial" font-size="14.00" fill="#c6c5fe">components/buttonGrid.js</text>
</g>
<!-- components/lowerButtons.js&#45;&gt;components/buttonGrid.js -->
<g id="edge23" class="edge"><title>components/lowerButtons.js&#45;&gt;components/buttonGrid.js</title>
<path fill="none" stroke="#757575" d="M573.285,-308C584.313,-308 595.566,-308 606.621,-308"/>
<polygon fill="#757575" stroke="#757575" points="606.705,-311.5 616.705,-308 606.705,-304.5 606.705,-311.5"/>
</g>
<!-- components/menuBar.js&#45;&gt;components/buttonGrid.js -->
<g id="edge24" class="edge"><title>components/menuBar.js&#45;&gt;components/buttonGrid.js</title>
<path fill="none" stroke="#757575" d="M540.899,-337.47C568.945,-332.449 601.986,-326.533 631.078,-321.325"/>
<polygon fill="#757575" stroke="#757575" points="631.962,-324.722 641.188,-319.514 630.728,-317.832 631.962,-324.722"/>
</g>
<!-- components/spriteDisplay.js -->
<g id="node26" class="node"><title>components/spriteDisplay.js</title>
<path fill="none" stroke="#cfffac" d="M796.333,-360.5C796.333,-360.5 616.667,-360.5 616.667,-360.5 612.833,-360.5 609,-356.667 609,-352.833 609,-352.833 609,-345.167 609,-345.167 609,-341.333 612.833,-337.5 616.667,-337.5 616.667,-337.5 796.333,-337.5 796.333,-337.5 800.167,-337.5 804,-341.333 804,-345.167 804,-345.167 804,-352.833 804,-352.833 804,-356.667 800.167,-360.5 796.333,-360.5"/>
<text text-anchor="middle" x="706.5" y="-345.3" font-family="Arial" font-size="14.00" fill="#cfffac">components/spriteDisplay.js</text>
</g>
<!-- components/statBar.js&#45;&gt;components/spriteDisplay.js -->
<g id="edge27" class="edge"><title>components/statBar.js&#45;&gt;components/spriteDisplay.js</title>
<path fill="none" stroke="#757575" d="M540.899,-378.47C568.945,-373.449 601.986,-367.533 631.078,-362.325"/>
<polygon fill="#757575" stroke="#757575" points="631.962,-365.722 641.188,-360.514 630.728,-358.832 631.962,-365.722"/>
</g>
<!-- components/statDisplay.js -->
<g id="node28" class="node"><title>components/statDisplay.js</title>
<path fill="none" stroke="#c6c5fe" d="M789.833,-442.5C789.833,-442.5 623.167,-442.5 623.167,-442.5 619.333,-442.5 615.5,-438.667 615.5,-434.833 615.5,-434.833 615.5,-427.167 615.5,-427.167 615.5,-423.333 619.333,-419.5 623.167,-419.5 623.167,-419.5 789.833,-419.5 789.833,-419.5 793.667,-419.5 797.5,-423.333 797.5,-427.167 797.5,-427.167 797.5,-434.833 797.5,-434.833 797.5,-438.667 793.667,-442.5 789.833,-442.5"/>
<text text-anchor="middle" x="706.5" y="-427.3" font-family="Arial" font-size="14.00" fill="#c6c5fe">components/statDisplay.js</text>
</g>
<!-- components/statBar.js&#45;&gt;components/statDisplay.js -->
<g id="edge28" class="edge"><title>components/statBar.js&#45;&gt;components/statDisplay.js</title>
<path fill="none" stroke="#757575" d="M540.899,-401.53C568.945,-406.551 601.986,-412.467 631.078,-417.675"/>
<polygon fill="#757575" stroke="#757575" points="630.728,-421.168 641.188,-419.486 631.962,-414.278 630.728,-421.168"/>
</g>
<!-- components/timeDisplay.js -->
<g id="node29" class="node"><title>components/timeDisplay.js</title>
<path fill="none" stroke="#cfffac" d="M792.333,-401.5C792.333,-401.5 620.667,-401.5 620.667,-401.5 616.833,-401.5 613,-397.667 613,-393.833 613,-393.833 613,-386.167 613,-386.167 613,-382.333 616.833,-378.5 620.667,-378.5 620.667,-378.5 792.333,-378.5 792.333,-378.5 796.167,-378.5 800,-382.333 800,-386.167 800,-386.167 800,-393.833 800,-393.833 800,-397.667 796.167,-401.5 792.333,-401.5"/>
<text text-anchor="middle" x="706.5" y="-386.3" font-family="Arial" font-size="14.00" fill="#cfffac">components/timeDisplay.js</text>
</g>
<!-- components/statBar.js&#45;&gt;components/timeDisplay.js -->
<g id="edge29" class="edge"><title>components/statBar.js&#45;&gt;components/timeDisplay.js</title>
<path fill="none" stroke="#757575" d="M554.668,-390C569.974,-390 586.245,-390 602.223,-390"/>
<polygon fill="#757575" stroke="#757575" points="602.666,-393.5 612.666,-390 602.666,-386.5 602.666,-393.5"/>
</g>
<!-- components/button.js -->
<g id="node21" class="node"><title>components/button.js</title>
<path fill="none" stroke="#cfffac" d="M1222.33,-360.5C1222.33,-360.5 1085.67,-360.5 1085.67,-360.5 1081.83,-360.5 1078,-356.667 1078,-352.833 1078,-352.833 1078,-345.167 1078,-345.167 1078,-341.333 1081.83,-337.5 1085.67,-337.5 1085.67,-337.5 1222.33,-337.5 1222.33,-337.5 1226.17,-337.5 1230,-341.333 1230,-345.167 1230,-345.167 1230,-352.833 1230,-352.833 1230,-356.667 1226.17,-360.5 1222.33,-360.5"/>
<text text-anchor="middle" x="1154" y="-345.3" font-family="Arial" font-size="14.00" fill="#cfffac">components/button.js</text>
</g>
<!-- components/buttonGrid.js&#45;&gt;actions/Engine.js -->
<g id="edge19" class="edge"><title>components/buttonGrid.js&#45;&gt;actions/Engine.js</title>
<path fill="none" stroke="#757575" d="M796.103,-308C817.669,-308 840.464,-308 861.115,-308"/>
<polygon fill="#757575" stroke="#757575" points="861.383,-311.5 871.383,-308 861.383,-304.5 861.383,-311.5"/>
</g>
<!-- components/buttonWrap.js -->
<g id="node23" class="node"><title>components/buttonWrap.js</title>
<path fill="none" stroke="#c6c5fe" d="M1019.33,-360.5C1019.33,-360.5 847.667,-360.5 847.667,-360.5 843.833,-360.5 840,-356.667 840,-352.833 840,-352.833 840,-345.167 840,-345.167 840,-341.333 843.833,-337.5 847.667,-337.5 847.667,-337.5 1019.33,-337.5 1019.33,-337.5 1023.17,-337.5 1027,-341.333 1027,-345.167 1027,-345.167 1027,-352.833 1027,-352.833 1027,-356.667 1023.17,-360.5 1019.33,-360.5"/>
<text text-anchor="middle" x="933.5" y="-345.3" font-family="Arial" font-size="14.00" fill="#c6c5fe">components/buttonWrap.js</text>
</g>
<!-- components/buttonGrid.js&#45;&gt;components/buttonWrap.js -->
<g id="edge20" class="edge"><title>components/buttonGrid.js&#45;&gt;components/buttonWrap.js</title>
<path fill="none" stroke="#757575" d="M770.774,-319.53C798.33,-324.551 830.794,-330.467 859.378,-335.675"/>
<polygon fill="#757575" stroke="#757575" points="858.846,-339.136 869.312,-337.486 860.101,-332.25 858.846,-339.136"/>
</g>
<!-- components/buttonWrap.js&#45;&gt;components/button.js -->
<g id="edge21" class="edge"><title>components/buttonWrap.js&#45;&gt;components/button.js</title>
<path fill="none" stroke="#757575" d="M1027.16,-349C1040.6,-349 1054.39,-349 1067.67,-349"/>
<polygon fill="#757575" stroke="#757575" points="1067.72,-352.5 1077.72,-349 1067.72,-345.5 1067.72,-352.5"/>
</g>
<!-- components/dropdown.js -->
<g id="node24" class="node"><title>components/dropdown.js</title>
<path fill="none" stroke="#c6c5fe" d="M2651.33,-203.5C2651.33,-203.5 2490.67,-203.5 2490.67,-203.5 2486.83,-203.5 2483,-199.667 2483,-195.833 2483,-195.833 2483,-188.167 2483,-188.167 2483,-184.333 2486.83,-180.5 2490.67,-180.5 2490.67,-180.5 2651.33,-180.5 2651.33,-180.5 2655.17,-180.5 2659,-184.333 2659,-188.167 2659,-188.167 2659,-195.833 2659,-195.833 2659,-199.667 2655.17,-203.5 2651.33,-203.5"/>
<text text-anchor="middle" x="2571" y="-188.3" font-family="Arial" font-size="14.00" fill="#c6c5fe">components/dropdown.js</text>
</g>
<!-- components/dropdown.js&#45;&gt;symbols/perks.js -->
<g id="edge22" class="edge"><title>components/dropdown.js&#45;&gt;symbols/perks.js</title>
<path fill="none" stroke="#757575" d="M2659.14,-192C2678.1,-192 2697.95,-192 2716.19,-192"/>
<polygon fill="#757575" stroke="#757575" points="2716.43,-195.5 2726.43,-192 2716.43,-188.5 2716.43,-195.5"/>
</g>
<!-- components/nameInput.js -->
<g id="node25" class="node"><title>components/nameInput.js</title>
<path fill="none" stroke="#c6c5fe" d="M2028.33,-400.5C2028.33,-400.5 1863.67,-400.5 1863.67,-400.5 1859.83,-400.5 1856,-396.667 1856,-392.833 1856,-392.833 1856,-385.167 1856,-385.167 1856,-381.333 1859.83,-377.5 1863.67,-377.5 1863.67,-377.5 2028.33,-377.5 2028.33,-377.5 2032.17,-377.5 2036,-381.333 2036,-385.167 2036,-385.167 2036,-392.833 2036,-392.833 2036,-396.667 2032.17,-400.5 2028.33,-400.5"/>
<text text-anchor="middle" x="1946" y="-385.3" font-family="Arial" font-size="14.00" fill="#c6c5fe">components/nameInput.js</text>
</g>
<!-- components/nameInput.js&#45;&gt;store/store.js -->
<g id="edge26" class="edge"><title>components/nameInput.js&#45;&gt;store/store.js</title>
<path fill="none" stroke="#757575" d="M2036.27,-382.271C2098.24,-377.414 2182.7,-370.426 2257,-363 2274.18,-361.283 2292.81,-359.206 2309.86,-357.221"/>
<polygon fill="#757575" stroke="#757575" points="2310.72,-360.644 2320.25,-356.001 2309.91,-353.692 2310.72,-360.644"/>
</g>
<!-- components/nameInput.js&#45;&gt;actions/Player.js -->
<g id="edge25" class="edge"><title>components/nameInput.js&#45;&gt;actions/Player.js</title>
<path fill="none" stroke="#757575" d="M1965.46,-400.51C2003.63,-424.312 2091.41,-479.047 2136.17,-506.959"/>
<polygon fill="#757575" stroke="#757575" points="2134.44,-510.006 2144.78,-512.327 2138.15,-504.066 2134.44,-510.006"/>
</g>
<!-- components/stat.js -->
<g id="node27" class="node"><title>components/stat.js</title>
<path fill="none" stroke="#cfffac" d="M993.833,-442.5C993.833,-442.5 873.167,-442.5 873.167,-442.5 869.333,-442.5 865.5,-438.667 865.5,-434.833 865.5,-434.833 865.5,-427.167 865.5,-427.167 865.5,-423.333 869.333,-419.5 873.167,-419.5 873.167,-419.5 993.833,-419.5 993.833,-419.5 997.667,-419.5 1001.5,-423.333 1001.5,-427.167 1001.5,-427.167 1001.5,-434.833 1001.5,-434.833 1001.5,-438.667 997.667,-442.5 993.833,-442.5"/>
<text text-anchor="middle" x="933.5" y="-427.3" font-family="Arial" font-size="14.00" fill="#cfffac">components/stat.js</text>
</g>
<!-- components/statDisplay.js&#45;&gt;components/stat.js -->
<g id="edge30" class="edge"><title>components/statDisplay.js&#45;&gt;components/stat.js</title>
<path fill="none" stroke="#757575" d="M797.72,-431C816.804,-431 836.779,-431 855.327,-431"/>
<polygon fill="#757575" stroke="#757575" points="855.471,-434.5 865.471,-431 855.471,-427.5 855.471,-434.5"/>
</g>
<!-- index.js -->
<g id="node30" class="node"><title>index.js</title>
<path fill="none" stroke="#c6c5fe" d="M93.8333,-421.5C93.8333,-421.5 44.1667,-421.5 44.1667,-421.5 40.3333,-421.5 36.5,-417.667 36.5,-413.833 36.5,-413.833 36.5,-406.167 36.5,-406.167 36.5,-402.333 40.3333,-398.5 44.1667,-398.5 44.1667,-398.5 93.8333,-398.5 93.8333,-398.5 97.6667,-398.5 101.5,-402.333 101.5,-406.167 101.5,-406.167 101.5,-413.833 101.5,-413.833 101.5,-417.667 97.6667,-421.5 93.8333,-421.5"/>
<text text-anchor="middle" x="69" y="-406.3" font-family="Arial" font-size="14.00" fill="#c6c5fe">index.js</text>
</g>
<!-- index.js&#45;&gt;store/store.js -->
<g id="edge32" class="edge"><title>index.js&#45;&gt;store/store.js</title>
<path fill="none" stroke="#757575" d="M101.741,-418.1C169.641,-434.694 334.236,-471 474.5,-471 474.5,-471 474.5,-471 1947,-471 2089.86,-471 2124.72,-439.966 2257,-386 2273.95,-379.086 2275.85,-372.401 2293,-366 2298.5,-363.946 2304.33,-362.127 2310.22,-360.524"/>
<polygon fill="#757575" stroke="#757575" points="2311.29,-363.863 2320.14,-358.025 2309.58,-357.075 2311.29,-363.863"/>
</g>
<!-- index.js&#45;&gt;components/appRoot.js -->
<g id="edge31" class="edge"><title>index.js&#45;&gt;components/appRoot.js</title>
<path fill="none" stroke="#757575" d="M101.722,-399.652C131.976,-389.783 177.85,-374.819 211.901,-363.712"/>
<polygon fill="#757575" stroke="#757575" points="213.191,-366.972 221.612,-360.544 211.02,-360.317 213.191,-366.972"/>
</g>
<!-- reducers/root.js&#45;&gt;actions/coreMsg.js -->
<g id="edge33" class="edge"><title>reducers/root.js&#45;&gt;actions/coreMsg.js</title>
<path fill="none" stroke="#757575" d="M2629.36,-420.346C2640.06,-416.568 2650.53,-411.312 2659,-404 2687.6,-379.32 2665.63,-350.764 2695,-327 2760.96,-273.627 2815.43,-337.849 2881,-284 2911.13,-259.255 2886.85,-228.727 2917,-204 2920.37,-201.236 2924.05,-198.837 2927.93,-196.758"/>
<polygon fill="#757575" stroke="#757575" points="2929.67,-199.812 2937.3,-192.463 2926.75,-193.449 2929.67,-199.812"/>
</g>
<!-- reducers/root.js&#45;&gt;actions/engineMsg.js -->
<g id="edge34" class="edge"><title>reducers/root.js&#45;&gt;actions/engineMsg.js</title>
<path fill="none" stroke="#757575" d="M2629.33,-421.605C2640.29,-417.742 2650.86,-412.133 2659,-404 2698.39,-364.648 2657.19,-324.876 2695,-284 2755.19,-218.927 2810.61,-265.875 2881,-212 2902.46,-195.576 2894.42,-177.845 2917,-163 2919.29,-161.495 2921.68,-160.103 2924.14,-158.815"/>
<polygon fill="#757575" stroke="#757575" points="2925.7,-161.947 2933.33,-154.592 2922.78,-155.587 2925.7,-161.947"/>
</g>
<!-- reducers/root.js&#45;&gt;actions/playerMsg.js -->
<g id="edge35" class="edge"><title>reducers/root.js&#45;&gt;actions/playerMsg.js</title>
<path fill="none" stroke="#757575" d="M2591.35,-441.536C2615.03,-455.187 2656.71,-477.734 2695,-491 2774.81,-518.653 2801.86,-500.491 2881,-530 2898.15,-536.395 2900.63,-541.804 2917,-550 2933.3,-558.163 2951.68,-566.521 2967.33,-573.395"/>
<polygon fill="#757575" stroke="#757575" points="2966.11,-576.683 2976.68,-577.469 2968.91,-570.266 2966.11,-576.683"/>
</g>
<!-- reducers/root.js&#45;&gt;symbols/perks.js -->
<g id="edge41" class="edge"><title>reducers/root.js&#45;&gt;symbols/perks.js</title>
<path fill="none" stroke="#757575" d="M2629.21,-422.089C2640.31,-418.201 2650.97,-412.46 2659,-404 2705.61,-354.908 2656.73,-311.841 2695,-256 2709.15,-235.356 2732.3,-219.299 2751.85,-208.433"/>
<polygon fill="#757575" stroke="#757575" points="2753.62,-211.451 2760.81,-203.663 2750.34,-205.271 2753.62,-211.451"/>
</g>
<!-- reducers/updateBodyArr.js -->
<g id="node32" class="node"><title>reducers/updateBodyArr.js</title>
<path fill="none" stroke="#c6c5fe" d="M2873.33,-562.5C2873.33,-562.5 2702.67,-562.5 2702.67,-562.5 2698.83,-562.5 2695,-558.667 2695,-554.833 2695,-554.833 2695,-547.167 2695,-547.167 2695,-543.333 2698.83,-539.5 2702.67,-539.5 2702.67,-539.5 2873.33,-539.5 2873.33,-539.5 2877.17,-539.5 2881,-543.333 2881,-547.167 2881,-547.167 2881,-554.833 2881,-554.833 2881,-558.667 2877.17,-562.5 2873.33,-562.5"/>
<text text-anchor="middle" x="2788" y="-547.3" font-family="Arial" font-size="14.00" fill="#c6c5fe">reducers/updateBodyArr.js</text>
</g>
<!-- reducers/root.js&#45;&gt;reducers/updateBodyArr.js -->
<g id="edge36" class="edge"><title>reducers/root.js&#45;&gt;reducers/updateBodyArr.js</title>
<path fill="none" stroke="#757575" d="M2583.84,-441.718C2604.6,-461.645 2649.7,-502.183 2695,-525 2703.89,-529.479 2713.67,-533.287 2723.43,-536.492"/>
<polygon fill="#757575" stroke="#757575" points="2722.57,-539.888 2733.15,-539.499 2724.63,-533.2 2722.57,-539.888"/>
</g>
<!-- reducers/updateButtons.js -->
<g id="node33" class="node"><title>reducers/updateButtons.js</title>
<path fill="none" stroke="#cfffac" d="M2871.33,-482.5C2871.33,-482.5 2704.67,-482.5 2704.67,-482.5 2700.83,-482.5 2697,-478.667 2697,-474.833 2697,-474.833 2697,-467.167 2697,-467.167 2697,-463.333 2700.83,-459.5 2704.67,-459.5 2704.67,-459.5 2871.33,-459.5 2871.33,-459.5 2875.17,-459.5 2879,-463.333 2879,-467.167 2879,-467.167 2879,-474.833 2879,-474.833 2879,-478.667 2875.17,-482.5 2871.33,-482.5"/>
<text text-anchor="middle" x="2788" y="-467.3" font-family="Arial" font-size="14.00" fill="#cfffac">reducers/updateButtons.js</text>
</g>
<!-- reducers/root.js&#45;&gt;reducers/updateButtons.js -->
<g id="edge37" class="edge"><title>reducers/root.js&#45;&gt;reducers/updateButtons.js</title>
<path fill="none" stroke="#757575" d="M2629.05,-440.88C2655.98,-446.015 2688.38,-452.193 2716.8,-457.613"/>
<polygon fill="#757575" stroke="#757575" points="2716.19,-461.06 2726.67,-459.495 2717.5,-454.184 2716.19,-461.06"/>
</g>
<!-- reducers/updateStats.js -->
<g id="node34" class="node"><title>reducers/updateStats.js</title>
<path fill="none" stroke="#c6c5fe" d="M2863.83,-441.5C2863.83,-441.5 2712.17,-441.5 2712.17,-441.5 2708.33,-441.5 2704.5,-437.667 2704.5,-433.833 2704.5,-433.833 2704.5,-426.167 2704.5,-426.167 2704.5,-422.333 2708.33,-418.5 2712.17,-418.5 2712.17,-418.5 2863.83,-418.5 2863.83,-418.5 2867.67,-418.5 2871.5,-422.333 2871.5,-426.167 2871.5,-426.167 2871.5,-433.833 2871.5,-433.833 2871.5,-437.667 2867.67,-441.5 2863.83,-441.5"/>
<text text-anchor="middle" x="2788" y="-426.3" font-family="Arial" font-size="14.00" fill="#c6c5fe">reducers/updateStats.js</text>
</g>
<!-- reducers/root.js&#45;&gt;reducers/updateStats.js -->
<g id="edge38" class="edge"><title>reducers/root.js&#45;&gt;reducers/updateStats.js</title>
<path fill="none" stroke="#757575" d="M2629.05,-430C2649.01,-430 2671.97,-430 2694.09,-430"/>
<polygon fill="#757575" stroke="#757575" points="2694.18,-433.5 2704.18,-430 2694.18,-426.5 2694.18,-433.5"/>
</g>
<!-- reducers/updateTime.js -->
<g id="node35" class="node"><title>reducers/updateTime.js</title>
<path fill="none" stroke="#c6c5fe" d="M2863.83,-400.5C2863.83,-400.5 2712.17,-400.5 2712.17,-400.5 2708.33,-400.5 2704.5,-396.667 2704.5,-392.833 2704.5,-392.833 2704.5,-385.167 2704.5,-385.167 2704.5,-381.333 2708.33,-377.5 2712.17,-377.5 2712.17,-377.5 2863.83,-377.5 2863.83,-377.5 2867.67,-377.5 2871.5,-381.333 2871.5,-385.167 2871.5,-385.167 2871.5,-392.833 2871.5,-392.833 2871.5,-396.667 2867.67,-400.5 2863.83,-400.5"/>
<text text-anchor="middle" x="2788" y="-385.3" font-family="Arial" font-size="14.00" fill="#c6c5fe">reducers/updateTime.js</text>
</g>
<!-- reducers/root.js&#45;&gt;reducers/updateTime.js -->
<g id="edge39" class="edge"><title>reducers/root.js&#45;&gt;reducers/updateTime.js</title>
<path fill="none" stroke="#757575" d="M2629.05,-419.12C2655.98,-413.985 2688.38,-407.807 2716.8,-402.387"/>
<polygon fill="#757575" stroke="#757575" points="2717.5,-405.816 2726.67,-400.505 2716.19,-398.94 2717.5,-405.816"/>
</g>
<!-- store/initialState.js -->
<g id="node36" class="node"><title>store/initialState.js</title>
<path fill="none" stroke="#c6c5fe" d="M2845.83,-359.5C2845.83,-359.5 2730.17,-359.5 2730.17,-359.5 2726.33,-359.5 2722.5,-355.667 2722.5,-351.833 2722.5,-351.833 2722.5,-344.167 2722.5,-344.167 2722.5,-340.333 2726.33,-336.5 2730.17,-336.5 2730.17,-336.5 2845.83,-336.5 2845.83,-336.5 2849.67,-336.5 2853.5,-340.333 2853.5,-344.167 2853.5,-344.167 2853.5,-351.833 2853.5,-351.833 2853.5,-355.667 2849.67,-359.5 2845.83,-359.5"/>
<text text-anchor="middle" x="2788" y="-344.3" font-family="Arial" font-size="14.00" fill="#c6c5fe">store/initialState.js</text>
</g>
<!-- reducers/root.js&#45;&gt;store/initialState.js -->
<g id="edge40" class="edge"><title>reducers/root.js&#45;&gt;store/initialState.js</title>
<path fill="none" stroke="#757575" d="M2625.75,-418.471C2637.17,-414.797 2648.85,-410.057 2659,-404 2678.43,-392.407 2675.14,-378.843 2695,-368 2700.55,-364.967 2706.53,-362.395 2712.68,-360.212"/>
<polygon fill="#757575" stroke="#757575" points="2713.98,-363.47 2722.44,-357.093 2711.85,-356.802 2713.98,-363.47"/>
</g>
<!-- reducers/root.js&#45;&gt;utils.js -->
<g id="edge42" class="edge"><title>reducers/root.js&#45;&gt;utils.js</title>
<path fill="none" stroke="#757575" d="M2578.47,-441.887C2594.28,-469.66 2637.78,-538.881 2695,-571 2782.29,-619.998 2817.26,-600.525 2917,-609 2994.94,-615.622 3024.34,-646.483 3093,-609 3122.69,-592.79 3140.48,-555.931 3149.24,-532.324"/>
<polygon fill="#757575" stroke="#757575" points="3152.57,-533.418 3152.55,-522.823 3145.95,-531.117 3152.57,-533.418"/>
</g>
<!-- reducers/updateBodyArr.js&#45;&gt;actions/playerMsg.js -->
<g id="edge43" class="edge"><title>reducers/updateBodyArr.js&#45;&gt;actions/playerMsg.js</title>
<path fill="none" stroke="#757575" d="M2854.09,-562.504C2877.66,-566.671 2904.47,-571.41 2928.84,-575.716"/>
<polygon fill="#757575" stroke="#757575" points="2928.3,-579.175 2938.76,-577.469 2929.52,-572.282 2928.3,-579.175"/>
</g>
<!-- reducers/updateStats.js&#45;&gt;actions/coreMsg.js -->
<g id="edge44" class="edge"><title>reducers/updateStats.js&#45;&gt;actions/coreMsg.js</title>
<path fill="none" stroke="#757575" d="M2869.17,-418.379C2873.5,-415.778 2877.5,-412.681 2881,-409 2944.74,-341.956 2853.32,-271.093 2917,-204 2920.27,-200.556 2924,-197.65 2928.04,-195.202"/>
<polygon fill="#757575" stroke="#757575" points="2929.95,-198.162 2937.31,-190.545 2926.8,-191.907 2929.95,-198.162"/>
</g>
<!-- reducers/updateStats.js&#45;&gt;actions/playerMsg.js -->
<g id="edge45" class="edge"><title>reducers/updateStats.js&#45;&gt;actions/playerMsg.js</title>
<path fill="none" stroke="#757575" d="M2869.03,-441.525C2873.33,-443.899 2877.37,-446.7 2881,-450 2919.99,-485.472 2879.39,-526.066 2917,-563 2920.77,-566.702 2925.04,-569.881 2929.62,-572.609"/>
<polygon fill="#757575" stroke="#757575" points="2928.27,-575.848 2938.76,-577.321 2931.48,-569.627 2928.27,-575.848"/>
</g>
<!-- reducers/updateStats.js&#45;&gt;utils.js -->
<g id="edge46" class="edge"><title>reducers/updateStats.js&#45;&gt;utils.js</title>
<path fill="none" stroke="#757575" d="M2867.62,-441.693C2872.38,-444.013 2876.9,-446.757 2881,-450 2910.01,-472.922 2885.71,-505.308 2917,-525 2979.17,-564.118 3069.4,-542.558 3119.32,-525.452"/>
<polygon fill="#757575" stroke="#757575" points="3120.49,-528.75 3128.75,-522.109 3118.15,-522.153 3120.49,-528.75"/>
</g>
<!-- reducers/updateTime.js&#45;&gt;utils.js -->
<g id="edge47" class="edge"><title>reducers/updateTime.js&#45;&gt;utils.js</title>
<path fill="none" stroke="#757575" d="M2867.75,-400.534C2872.48,-402.892 2876.95,-405.688 2881,-409 2911.81,-434.2 2884.61,-467.864 2917,-491 2976.94,-533.819 3068.18,-527.008 3118.83,-518.712"/>
<polygon fill="#757575" stroke="#757575" points="3119.75,-522.105 3128.99,-516.937 3118.54,-515.21 3119.75,-522.105"/>
</g>
<!-- store/initialState.js&#45;&gt;scenes/sceneSymbols.js -->
<g id="edge70" class="edge"><title>store/initialState.js&#45;&gt;scenes/sceneSymbols.js</title>
<path fill="none" stroke="#757575" d="M2798.29,-336.175C2816.02,-313.221 2855.22,-260.604 2881,-212 2901.19,-173.94 2888.19,-154.032 2917,-122 2928.73,-108.955 2945.05,-98.974 2960.39,-91.6977"/>
<polygon fill="#757575" stroke="#757575" points="2962.06,-94.7859 2969.76,-87.5136 2959.2,-88.3938 2962.06,-94.7859"/>
</g>
<!-- symbols/face.js -->
<g id="node47" class="node"><title>symbols/face.js</title>
<path fill="none" stroke="#c6c5fe" d="M3055.33,-441.5C3055.33,-441.5 2954.67,-441.5 2954.67,-441.5 2950.83,-441.5 2947,-437.667 2947,-433.833 2947,-433.833 2947,-426.167 2947,-426.167 2947,-422.333 2950.83,-418.5 2954.67,-418.5 2954.67,-418.5 3055.33,-418.5 3055.33,-418.5 3059.17,-418.5 3063,-422.333 3063,-426.167 3063,-426.167 3063,-433.833 3063,-433.833 3063,-437.667 3059.17,-441.5 3055.33,-441.5"/>
<text text-anchor="middle" x="3005" y="-426.3" font-family="Arial" font-size="14.00" fill="#c6c5fe">symbols/face.js</text>
</g>
<!-- store/initialState.js&#45;&gt;symbols/face.js -->
<g id="edge71" class="edge"><title>store/initialState.js&#45;&gt;symbols/face.js</title>
<path fill="none" stroke="#757575" d="M2853.83,-356.61C2863.32,-359.407 2872.69,-363.107 2881,-368 2901.9,-380.304 2896.25,-396.459 2917,-409 2923.22,-412.757 2930.06,-415.842 2937.11,-418.375"/>
<polygon fill="#757575" stroke="#757575" points="2936.19,-421.758 2946.79,-421.499 2938.34,-415.097 2936.19,-421.758"/>
</g>
<!-- symbols/gear.js -->
<g id="node48" class="node"><title>symbols/gear.js</title>
<path fill="none" stroke="#c6c5fe" d="M3055.33,-400.5C3055.33,-400.5 2954.67,-400.5 2954.67,-400.5 2950.83,-400.5 2947,-396.667 2947,-392.833 2947,-392.833 2947,-385.167 2947,-385.167 2947,-381.333 2950.83,-377.5 2954.67,-377.5 2954.67,-377.5 3055.33,-377.5 3055.33,-377.5 3059.17,-377.5 3063,-381.333 3063,-385.167 3063,-385.167 3063,-392.833 3063,-392.833 3063,-396.667 3059.17,-400.5 3055.33,-400.5"/>
<text text-anchor="middle" x="3005" y="-385.3" font-family="Arial" font-size="14.00" fill="#c6c5fe">symbols/gear.js</text>
</g>
<!-- store/initialState.js&#45;&gt;symbols/gear.js -->
<g id="edge72" class="edge"><title>store/initialState.js&#45;&gt;symbols/gear.js</title>
<path fill="none" stroke="#757575" d="M2849.46,-359.53C2876.67,-364.719 2908.89,-370.864 2936.85,-376.196"/>
<polygon fill="#757575" stroke="#757575" points="2936.47,-379.685 2946.95,-378.12 2937.78,-372.809 2936.47,-379.685"/>
</g>
<!-- symbols/lowerBody.js -->
<g id="node49" class="node"><title>symbols/lowerBody.js</title>
<path fill="none" stroke="#c6c5fe" d="M3074.83,-359.5C3074.83,-359.5 2935.17,-359.5 2935.17,-359.5 2931.33,-359.5 2927.5,-355.667 2927.5,-351.833 2927.5,-351.833 2927.5,-344.167 2927.5,-344.167 2927.5,-340.333 2931.33,-336.5 2935.17,-336.5 2935.17,-336.5 3074.83,-336.5 3074.83,-336.5 3078.67,-336.5 3082.5,-340.333 3082.5,-344.167 3082.5,-344.167 3082.5,-351.833 3082.5,-351.833 3082.5,-355.667 3078.67,-359.5 3074.83,-359.5"/>
<text text-anchor="middle" x="3005" y="-344.3" font-family="Arial" font-size="14.00" fill="#c6c5fe">symbols/lowerBody.js</text>
</g>
<!-- store/initialState.js&#45;&gt;symbols/lowerBody.js -->
<g id="edge73" class="edge"><title>store/initialState.js&#45;&gt;symbols/lowerBody.js</title>
<path fill="none" stroke="#757575" d="M2853.51,-348C2873.58,-348 2896.05,-348 2917.38,-348"/>
<polygon fill="#757575" stroke="#757575" points="2917.41,-351.5 2927.41,-348 2917.41,-344.5 2917.41,-351.5"/>
</g>
<!-- symbols/skin.js -->
<g id="node50" class="node"><title>symbols/skin.js</title>
<path fill="none" stroke="#c6c5fe" d="M3053.83,-318.5C3053.83,-318.5 2956.17,-318.5 2956.17,-318.5 2952.33,-318.5 2948.5,-314.667 2948.5,-310.833 2948.5,-310.833 2948.5,-303.167 2948.5,-303.167 2948.5,-299.333 2952.33,-295.5 2956.17,-295.5 2956.17,-295.5 3053.83,-295.5 3053.83,-295.5 3057.67,-295.5 3061.5,-299.333 3061.5,-303.167 3061.5,-303.167 3061.5,-310.833 3061.5,-310.833 3061.5,-314.667 3057.67,-318.5 3053.83,-318.5"/>
<text text-anchor="middle" x="3005" y="-303.3" font-family="Arial" font-size="14.00" fill="#c6c5fe">symbols/skin.js</text>
</g>
<!-- store/initialState.js&#45;&gt;symbols/skin.js -->
<g id="edge74" class="edge"><title>store/initialState.js&#45;&gt;symbols/skin.js</title>
<path fill="none" stroke="#757575" d="M2849.46,-336.47C2877.12,-331.196 2909.94,-324.936 2938.22,-319.545"/>
<polygon fill="#757575" stroke="#757575" points="2939.24,-322.913 2948.41,-317.601 2937.93,-316.037 2939.24,-322.913"/>
</g>
<!-- symbols/tail.js -->
<g id="node51" class="node"><title>symbols/tail.js</title>
<path fill="none" stroke="#c6c5fe" d="M3049.83,-277.5C3049.83,-277.5 2960.17,-277.5 2960.17,-277.5 2956.33,-277.5 2952.5,-273.667 2952.5,-269.833 2952.5,-269.833 2952.5,-262.167 2952.5,-262.167 2952.5,-258.333 2956.33,-254.5 2960.17,-254.5 2960.17,-254.5 3049.83,-254.5 3049.83,-254.5 3053.67,-254.5 3057.5,-258.333 3057.5,-262.167 3057.5,-262.167 3057.5,-269.833 3057.5,-269.833 3057.5,-273.667 3053.67,-277.5 3049.83,-277.5"/>
<text text-anchor="middle" x="3005" y="-262.3" font-family="Arial" font-size="14.00" fill="#c6c5fe">symbols/tail.js</text>
</g>
<!-- store/initialState.js&#45;&gt;symbols/tail.js -->
<g id="edge75" class="edge"><title>store/initialState.js&#45;&gt;symbols/tail.js</title>
<path fill="none" stroke="#757575" d="M2847.29,-336.383C2858.9,-332.747 2870.69,-328.046 2881,-322 2900.52,-310.553 2897.2,-296.961 2917,-286 2924.78,-281.691 2933.45,-278.309 2942.21,-275.654"/>
<polygon fill="#757575" stroke="#757575" points="2943.38,-278.964 2952.1,-272.956 2941.53,-272.211 2943.38,-278.964"/>
</g>
<!-- symbols/tongue.js -->
<g id="node52" class="node"><title>symbols/tongue.js</title>
<path fill="none" stroke="#c6c5fe" d="M3062.83,-236.5C3062.83,-236.5 2947.17,-236.5 2947.17,-236.5 2943.33,-236.5 2939.5,-232.667 2939.5,-228.833 2939.5,-228.833 2939.5,-221.167 2939.5,-221.167 2939.5,-217.333 2943.33,-213.5 2947.17,-213.5 2947.17,-213.5 3062.83,-213.5 3062.83,-213.5 3066.67,-213.5 3070.5,-217.333 3070.5,-221.167 3070.5,-221.167 3070.5,-228.833 3070.5,-228.833 3070.5,-232.667 3066.67,-236.5 3062.83,-236.5"/>
<text text-anchor="middle" x="3005" y="-221.3" font-family="Arial" font-size="14.00" fill="#c6c5fe">symbols/tongue.js</text>
</g>
<!-- store/initialState.js&#45;&gt;symbols/tongue.js -->
<g id="edge76" class="edge"><title>store/initialState.js&#45;&gt;symbols/tongue.js</title>
<path fill="none" stroke="#757575" d="M2853.92,-337.318C2863.72,-333.626 2873.16,-328.664 2881,-322 2909.79,-297.535 2887.62,-268.746 2917,-245 2920.86,-241.877 2925.13,-239.222 2929.62,-236.967"/>
<polygon fill="#757575" stroke="#757575" points="2931.33,-240.043 2939.14,-232.88 2928.57,-233.612 2931.33,-240.043"/>
</g>
<!-- symbols/wings.js -->
<g id="node53" class="node"><title>symbols/wings.js</title>
<path fill="none" stroke="#c6c5fe" d="M3059.33,-482.5C3059.33,-482.5 2950.67,-482.5 2950.67,-482.5 2946.83,-482.5 2943,-478.667 2943,-474.833 2943,-474.833 2943,-467.167 2943,-467.167 2943,-463.333 2946.83,-459.5 2950.67,-459.5 2950.67,-459.5 3059.33,-459.5 3059.33,-459.5 3063.17,-459.5 3067,-463.333 3067,-467.167 3067,-467.167 3067,-474.833 3067,-474.833 3067,-478.667 3063.17,-482.5 3059.33,-482.5"/>
<text text-anchor="middle" x="3005" y="-467.3" font-family="Arial" font-size="14.00" fill="#c6c5fe">symbols/wings.js</text>
</g>
<!-- store/initialState.js&#45;&gt;symbols/wings.js -->
<g id="edge77" class="edge"><title>store/initialState.js&#45;&gt;symbols/wings.js</title>
<path fill="none" stroke="#757575" d="M2853.91,-353.995C2863.71,-357.102 2873.16,-361.584 2881,-368 2911.81,-393.2 2886.48,-424.451 2917,-450 2921.85,-454.058 2927.35,-457.357 2933.18,-460.035"/>
<polygon fill="#757575" stroke="#757575" points="2931.98,-463.322 2942.56,-463.752 2934.56,-456.815 2931.98,-463.322"/>
</g>
<!-- scenes/charCreation.js&#45;&gt;actions/Core.js -->
<g id="edge48" class="edge"><title>scenes/charCreation.js&#45;&gt;actions/Core.js</title>
<path fill="none" stroke="#757575" d="M1372.29,-512.392C1391.35,-490.152 1435.33,-440.588 1478,-405 1528.93,-362.526 1550.16,-363.356 1602,-322 1619.2,-308.276 1618.56,-298.314 1638,-288 1646,-283.758 1654.85,-280.415 1663.79,-277.779"/>
<polygon fill="#757575" stroke="#757575" points="1664.74,-281.15 1673.5,-275.189 1662.93,-274.387 1664.74,-281.15"/>
</g>
<!-- scenes/charCreation.js&#45;&gt;actions/Player.js -->
<g id="edge49" class="edge"><title>scenes/charCreation.js&#45;&gt;actions/Player.js</title>
<path fill="none" stroke="#757575" d="M1442.23,-524C1599.41,-524 1946.83,-524 2094.7,-524"/>
<polygon fill="#757575" stroke="#757575" points="2095,-527.5 2105,-524 2095,-520.5 2095,-527.5"/>
</g>
<!-- scenes/charCreation.js&#45;&gt;symbols/breastCup.js -->
<g id="edge54" class="edge"><title>scenes/charCreation.js&#45;&gt;symbols/breastCup.js</title>
<path fill="none" stroke="#757575" d="M1383.17,-535.646C1437.72,-565.24 1590.75,-641 1728,-641 1728,-641 1728,-641 1947,-641 2063.17,-641 2197.32,-642.151 2282.61,-643.027"/>
<polygon fill="#757575" stroke="#757575" points="2282.73,-646.528 2292.77,-643.132 2282.8,-639.529 2282.73,-646.528"/>
</g>
<!-- scenes/charCreation.js&#45;&gt;appearance/appearance.js -->
<g id="edge50" class="edge"><title>scenes/charCreation.js&#45;&gt;appearance/appearance.js</title>
<path fill="none" stroke="#757575" d="M1442.28,-534.251C1454.24,-535.62 1466.44,-536.92 1478,-538 1684.88,-557.313 1927.64,-571.18 2061.65,-578.069"/>
<polygon fill="#757575" stroke="#757575" points="2061.73,-581.578 2071.9,-578.594 2062.09,-574.587 2061.73,-581.578"/>
</g>
<!-- scenes/charCreation.js&#45;&gt;symbols/gender.js -->
<g id="edge56" class="edge"><title>scenes/charCreation.js&#45;&gt;symbols/gender.js</title>
<path fill="none" stroke="#757575" d="M1398.08,-535.52C1420.76,-542.524 1450.88,-551.205 1478,-557 1776.6,-620.798 2138.42,-661.773 2293.02,-677.6"/>
<polygon fill="#757575" stroke="#757575" points="2293.04,-681.12 2303.35,-678.651 2293.75,-674.156 2293.04,-681.12"/>
</g>
<!-- scenes/charCreation.js&#45;&gt;scenes/menus.js -->
<g id="edge51" class="edge"><title>scenes/charCreation.js&#45;&gt;scenes/menus.js</title>
<path fill="none" stroke="#757575" d="M1370.63,-512.252C1385.04,-491.449 1415.96,-446.764 1442,-409 1471.7,-365.928 1506.44,-315.396 1525.23,-288.047"/>
<polygon fill="#757575" stroke="#757575" points="1528.18,-289.929 1530.96,-279.705 1522.41,-285.965 1528.18,-289.929"/>
</g>
<!-- scenes/charCreation.js&#45;&gt;scenes/sceneSymbols.js -->
<g id="edge52" class="edge"><title>scenes/charCreation.js&#45;&gt;scenes/sceneSymbols.js</title>
<path fill="none" stroke="#757575" d="M1373.03,-512.187C1390.15,-492.333 1423.93,-450.372 1442,-409 1471.52,-341.409 1441.58,-311.135 1478,-247 1549.52,-121.068 1583.18,-38 1728,-38 1728,-38 1728,-38 2572,-38 2689.69,-38 2824.71,-52.1672 2912.03,-63.2008"/>
<polygon fill="#757575" stroke="#757575" points="2911.81,-66.7011 2922.17,-64.4956 2912.7,-59.7575 2911.81,-66.7011"/>
</g>
<!-- scenes/sceneTextStore.js -->
<g id="node41" class="node"><title>scenes/sceneTextStore.js</title>
<path fill="none" stroke="#c6c5fe" d="M1812.33,-320.5C1812.33,-320.5 1645.67,-320.5 1645.67,-320.5 1641.83,-320.5 1638,-316.667 1638,-312.833 1638,-312.833 1638,-305.167 1638,-305.167 1638,-301.333 1641.83,-297.5 1645.67,-297.5 1645.67,-297.5 1812.33,-297.5 1812.33,-297.5 1816.17,-297.5 1820,-301.333 1820,-305.167 1820,-305.167 1820,-312.833 1820,-312.833 1820,-316.667 1816.17,-320.5 1812.33,-320.5"/>
<text text-anchor="middle" x="1729" y="-305.3" font-family="Arial" font-size="14.00" fill="#c6c5fe">scenes/sceneTextStore.js</text>
</g>
<!-- scenes/charCreation.js&#45;&gt;scenes/sceneTextStore.js -->
<g id="edge53" class="edge"><title>scenes/charCreation.js&#45;&gt;scenes/sceneTextStore.js</title>
<path fill="none" stroke="#757575" d="M1389.98,-512.399C1435.46,-492.75 1528.65,-450.588 1602,-405 1640.86,-380.846 1682.43,-347.537 1706.78,-327.177"/>
<polygon fill="#757575" stroke="#757575" points="1709.24,-329.673 1714.63,-320.551 1704.73,-324.321 1709.24,-329.673"/>
</g>
<!-- symbols/butt.js -->
<g id="node42" class="node"><title>symbols/butt.js</title>
<path fill="none" stroke="#c6c5fe" d="M1993.83,-832.5C1993.83,-832.5 1898.17,-832.5 1898.17,-832.5 1894.33,-832.5 1890.5,-828.667 1890.5,-824.833 1890.5,-824.833 1890.5,-817.167 1890.5,-817.167 1890.5,-813.333 1894.33,-809.5 1898.17,-809.5 1898.17,-809.5 1993.83,-809.5 1993.83,-809.5 1997.67,-809.5 2001.5,-813.333 2001.5,-817.167 2001.5,-817.167 2001.5,-824.833 2001.5,-824.833 2001.5,-828.667 1997.67,-832.5 1993.83,-832.5"/>
<text text-anchor="middle" x="1946" y="-817.3" font-family="Arial" font-size="14.00" fill="#c6c5fe">symbols/butt.js</text>
</g>
<!-- scenes/charCreation.js&#45;&gt;symbols/butt.js -->
<g id="edge55" class="edge"><title>scenes/charCreation.js&#45;&gt;symbols/butt.js</title>
<path fill="none" stroke="#757575" d="M1365.22,-535.538C1374.39,-571.862 1407.6,-684.95 1478,-744 1592.92,-840.395 1781.39,-838.471 1880.1,-829.43"/>
<polygon fill="#757575" stroke="#757575" points="1880.61,-832.896 1890.23,-828.447 1879.94,-825.929 1880.61,-832.896"/>
</g>
<!-- symbols/hips.js -->
<g id="node43" class="node"><title>symbols/hips.js</title>
<path fill="none" stroke="#c6c5fe" d="M1589.33,-735.5C1589.33,-735.5 1490.67,-735.5 1490.67,-735.5 1486.83,-735.5 1483,-731.667 1483,-727.833 1483,-727.833 1483,-720.167 1483,-720.167 1483,-716.333 1486.83,-712.5 1490.67,-712.5 1490.67,-712.5 1589.33,-712.5 1589.33,-712.5 1593.17,-712.5 1597,-716.333 1597,-720.167 1597,-720.167 1597,-727.833 1597,-727.833 1597,-731.667 1593.17,-735.5 1589.33,-735.5"/>
<text text-anchor="middle" x="1540" y="-720.3" font-family="Arial" font-size="14.00" fill="#c6c5fe">symbols/hips.js</text>
</g>
<!-- scenes/charCreation.js&#45;&gt;symbols/hips.js -->
<g id="edge57" class="edge"><title>scenes/charCreation.js&#45;&gt;symbols/hips.js</title>
<path fill="none" stroke="#757575" d="M1372.69,-535.57C1392.81,-558.411 1439.07,-610.904 1478,-655 1492.72,-671.676 1509.46,-690.605 1521.67,-704.414"/>
<polygon fill="#757575" stroke="#757575" points="1519.39,-707.113 1528.63,-712.284 1524.63,-702.475 1519.39,-707.113"/>
</g>
<!-- scenes/menus.js&#45;&gt;actions/Core.js -->
<g id="edge58" class="edge"><title>scenes/menus.js&#45;&gt;actions/Core.js</title>
<path fill="none" stroke="#757575" d="M1602.23,-268C1621.73,-268 1643.37,-268 1663.12,-268"/>
<polygon fill="#757575" stroke="#757575" points="1663.26,-271.5 1673.26,-268 1663.26,-264.5 1663.26,-271.5"/>
</g>
<!-- scenes/menus.js&#45;&gt;actions/Perks.js -->
<g id="edge59" class="edge"><title>scenes/menus.js&#45;&gt;actions/Perks.js</title>
<path fill="none" stroke="#757575" d="M1590.69,-256.433C1605.83,-253.127 1622.55,-249.695 1638,-247 1801.37,-218.497 1996.08,-202.822 2096.38,-196.072"/>
<polygon fill="#757575" stroke="#757575" points="2096.63,-199.563 2106.38,-195.408 2096.17,-192.578 2096.63,-199.563"/>
</g>
<!-- scenes/menus.js&#45;&gt;scenes/sceneSymbols.js -->
<g id="edge60" class="edge"><title>scenes/menus.js&#45;&gt;scenes/sceneSymbols.js</title>
<path fill="none" stroke="#757575" d="M1554.2,-256.279C1602.58,-214.593 1776.1,-76 1945,-76 1945,-76 1945,-76 2572,-76 2686.89,-76 2818.96,-76 2906.52,-76"/>
<polygon fill="#757575" stroke="#757575" points="2906.71,-79.5001 2916.71,-76 2906.71,-72.5001 2906.71,-79.5001"/>
</g>
<!-- scenes/menus.js&#45;&gt;scenes/sceneTextStore.js -->
<g id="edge61" class="edge"><title>scenes/menus.js&#45;&gt;scenes/sceneTextStore.js</title>
<path fill="none" stroke="#757575" d="M1593.59,-279.53C1615.99,-284.442 1642.29,-290.209 1665.67,-295.333"/>
<polygon fill="#757575" stroke="#757575" points="1664.97,-298.763 1675.48,-297.486 1666.47,-291.925 1664.97,-298.763"/>
</g>
<!-- scenes/sceneTextStore.js&#45;&gt;components/nameInput.js -->
<g id="edge68" class="edge"><title>scenes/sceneTextStore.js&#45;&gt;components/nameInput.js</title>
<path fill="none" stroke="#757575" d="M1761.26,-320.633C1799.11,-334.715 1862.92,-358.46 1904.5,-373.931"/>
<polygon fill="#757575" stroke="#757575" points="1903.46,-377.276 1914.05,-377.483 1905.9,-370.715 1903.46,-377.276"/>
</g>
<!-- scenes/sceneTextStore.js&#45;&gt;scenes/sceneSymbols.js -->
<g id="edge69" class="edge"><title>scenes/sceneTextStore.js&#45;&gt;scenes/sceneSymbols.js</title>
<path fill="none" stroke="#757575" d="M1787.63,-297.411C1798.5,-294.704 1809.69,-291.556 1820,-288 1936.74,-247.758 1954.48,-208.921 2072,-171 2199.91,-129.723 2234.59,-114 2369,-114 2369,-114 2369,-114 2572,-114 2689.69,-114 2824.71,-99.8328 2912.03,-88.7992"/>
<polygon fill="#757575" stroke="#757575" points="2912.7,-92.2425 2922.17,-87.5044 2911.81,-85.2989 2912.7,-92.2425"/>
</g>
<!-- symbols/butt.js&#45;&gt;utils.js -->
<g id="edge80" class="edge"><title>symbols/butt.js&#45;&gt;utils.js</title>
<path fill="none" stroke="#757575" d="M2001.63,-820.788C2082.07,-820.494 2237.12,-820 2369,-820 2369,-820 2369,-820 2789,-820 2924.57,-820 2990.84,-884.113 3093,-795 3132.69,-760.381 3149.52,-593.676 3154.4,-533.078"/>
<polygon fill="#757575" stroke="#757575" points="3157.92,-532.987 3155.2,-522.748 3150.94,-532.449 3157.92,-532.987"/>
</g>
<!-- symbols/hips.js&#45;&gt;utils.js -->
<g id="edge84" class="edge"><title>symbols/hips.js&#45;&gt;utils.js</title>
<path fill="none" stroke="#757575" d="M1590.44,-735.535C1666.28,-752.19 1816.08,-781 1945,-781 1945,-781 1945,-781 2789,-781 2925.33,-781 2990.34,-829.712 3093,-740 3124.53,-712.447 3145.68,-584.479 3153.08,-532.766"/>
<polygon fill="#757575" stroke="#757575" points="3156.57,-533.072 3154.48,-522.684 3149.64,-532.106 3156.57,-533.072"/>
</g>
<!-- setupTests.js -->
<g id="node45" class="node"><title>setupTests.js</title>
<path fill="none" stroke="#cfffac" d="M112.333,-462.5C112.333,-462.5 25.6667,-462.5 25.6667,-462.5 21.8333,-462.5 18,-458.667 18,-454.833 18,-454.833 18,-447.167 18,-447.167 18,-443.333 21.8333,-439.5 25.6667,-439.5 25.6667,-439.5 112.333,-439.5 112.333,-439.5 116.167,-439.5 120,-443.333 120,-447.167 120,-447.167 120,-454.833 120,-454.833 120,-458.667 116.167,-462.5 112.333,-462.5"/>
<text text-anchor="middle" x="69" y="-447.3" font-family="Arial" font-size="14.00" fill="#cfffac">setupTests.js</text>
</g>
<!-- store/gameFlags.js -->
<g id="node46" class="node"><title>store/gameFlags.js</title>
<path fill="none" stroke="#cfffac" d="M130.333,-503.5C130.333,-503.5 7.66667,-503.5 7.66667,-503.5 3.83333,-503.5 0,-499.667 0,-495.833 0,-495.833 0,-488.167 0,-488.167 0,-484.333 3.83333,-480.5 7.66667,-480.5 7.66667,-480.5 130.333,-480.5 130.333,-480.5 134.167,-480.5 138,-484.333 138,-488.167 138,-488.167 138,-495.833 138,-495.833 138,-499.667 134.167,-503.5 130.333,-503.5"/>
<text text-anchor="middle" x="69" y="-488.3" font-family="Arial" font-size="14.00" fill="#cfffac">store/gameFlags.js</text>
</g>
<!-- symbols/face.js&#45;&gt;utils.js -->
<g id="edge81" class="edge"><title>symbols/face.js&#45;&gt;utils.js</title>
<path fill="none" stroke="#757575" d="M3063.32,-438.503C3073.57,-441.312 3083.88,-445.044 3093,-450 3111.83,-460.231 3129.01,-477.657 3140.65,-491.27"/>
<polygon fill="#757575" stroke="#757575" points="3138.09,-493.665 3147.15,-499.156 3143.49,-489.213 3138.09,-493.665"/>
</g>
<!-- symbols/gear.js&#45;&gt;utils.js -->
<g id="edge82" class="edge"><title>symbols/gear.js&#45;&gt;utils.js</title>
<path fill="none" stroke="#757575" d="M3063.08,-395.325C3073.68,-398.323 3084.18,-402.681 3093,-409 3121.3,-429.275 3139.51,-466.595 3148.74,-490.033"/>
<polygon fill="#757575" stroke="#757575" points="3145.47,-491.284 3152.25,-499.427 3152.03,-488.834 3145.47,-491.284"/>
</g>
<!-- symbols/lowerBody.js&#45;&gt;utils.js -->
<g id="edge85" class="edge"><title>symbols/lowerBody.js&#45;&gt;utils.js</title>
<path fill="none" stroke="#757575" d="M3080.06,-359.67C3084.69,-361.99 3089.06,-364.741 3093,-368 3130.78,-399.237 3146.61,-457.622 3152.66,-489.267"/>
<polygon fill="#757575" stroke="#757575" points="3149.24,-490.012 3154.41,-499.257 3156.13,-488.803 3149.24,-490.012"/>
</g>
<!-- symbols/skin.js&#45;&gt;utils.js -->
<g id="edge87" class="edge"><title>symbols/skin.js&#45;&gt;utils.js</title>
<path fill="none" stroke="#757575" d="M3061.57,-311.064C3073.03,-314.149 3084.25,-319.115 3093,-327 3140.71,-369.996 3152.3,-450.688 3155.11,-489.315"/>
<polygon fill="#757575" stroke="#757575" points="3151.62,-489.673 3155.71,-499.448 3158.61,-489.259 3151.62,-489.673"/>
</g>
<!-- symbols/tail.js&#45;&gt;utils.js -->
<g id="edge88" class="edge"><title>symbols/tail.js&#45;&gt;utils.js</title>
<path fill="none" stroke="#757575" d="M3057.84,-268.678C3070.68,-271.647 3083.47,-276.907 3093,-286 3150.77,-341.112 3156.95,-444.478 3156.72,-489.323"/>
<polygon fill="#757575" stroke="#757575" points="3153.22,-489.341 3156.55,-499.398 3160.22,-489.458 3153.22,-489.341"/>
</g>
<!-- symbols/tongue.js&#45;&gt;utils.js -->
<g id="edge89" class="edge"><title>symbols/tongue.js&#45;&gt;utils.js</title>
<path fill="none" stroke="#757575" d="M3070.62,-231.181C3078.94,-234.329 3086.73,-238.774 3093,-245 3127.8,-279.571 3147.48,-431.755 3153.76,-489.066"/>
<polygon fill="#757575" stroke="#757575" points="3150.3,-489.627 3154.84,-499.201 3157.26,-488.886 3150.3,-489.627"/>
</g>
<!-- symbols/wings.js&#45;&gt;utils.js -->
<g id="edge91" class="edge"><title>symbols/wings.js&#45;&gt;utils.js</title>
<path fill="none" stroke="#757575" d="M3049.39,-482.57C3071.4,-488.439 3097.85,-495.494 3118.9,-501.107"/>
<polygon fill="#757575" stroke="#757575" points="3118.2,-504.541 3128.76,-503.736 3120,-497.777 3118.2,-504.541"/>
</g>
</g>
</svg>
