<?xml version="1.0" encoding="UTF-8" standalone="no"?>
<!DOCTYPE svg PUBLIC "-//W3C//DTD SVG 1.1//EN"
 "http://www.w3.org/Graphics/SVG/1.1/DTD/svg11.dtd">
<!-- Generated by graphviz version 2.38.0 (20140413.2041)
 -->
<!-- Title: G Pages: 1 -->
<svg width="3197pt" height="836pt"
 viewBox="0.00 0.00 3197.20 835.70" xmlns="http://www.w3.org/2000/svg" xmlns:xlink="http://www.w3.org/1999/xlink">
<g id="graph0" class="graph" transform="scale(1 1) rotate(0) translate(21.6 814.1)">
<title>G</title>
<polygon fill="#111111" stroke="none" points="-21.6,21.6 -21.6,-814.1 3175.6,-814.1 3175.6,21.6 -21.6,21.6"/>
<!-- actions/Core.js -->
<g id="node1" class="node"><title>actions/Core.js</title>
<path fill="none" stroke="#c6c5fe" d="M1162.83,-479C1162.83,-479 1067.17,-479 1067.17,-479 1063.33,-479 1059.5,-475.167 1059.5,-471.333 1059.5,-471.333 1059.5,-463.667 1059.5,-463.667 1059.5,-459.833 1063.33,-456 1067.17,-456 1067.17,-456 1162.83,-456 1162.83,-456 1166.67,-456 1170.5,-459.833 1170.5,-463.667 1170.5,-463.667 1170.5,-471.333 1170.5,-471.333 1170.5,-475.167 1166.67,-479 1162.83,-479"/>
<text text-anchor="middle" x="1115" y="-463.8" font-family="Arial" font-size="14.00" fill="#c6c5fe">actions/Core.js</text>
</g>
<!-- actions/Player.js -->
<g id="node2" class="node"><title>actions/Player.js</title>
<path fill="none" stroke="#cfffac" d="M3117.83,-440C3117.83,-440 3014.17,-440 3014.17,-440 3010.33,-440 3006.5,-436.167 3006.5,-432.333 3006.5,-432.333 3006.5,-424.667 3006.5,-424.667 3006.5,-420.833 3010.33,-417 3014.17,-417 3014.17,-417 3117.83,-417 3117.83,-417 3121.67,-417 3125.5,-420.833 3125.5,-424.667 3125.5,-424.667 3125.5,-432.333 3125.5,-432.333 3125.5,-436.167 3121.67,-440 3117.83,-440"/>
<text text-anchor="middle" x="3066" y="-424.8" font-family="Arial" font-size="14.00" fill="#cfffac">actions/Player.js</text>
</g>
<!-- actions/Core.js&#45;&gt;actions/Player.js -->
<g id="edge1" class="edge"><title>actions/Core.js&#45;&gt;actions/Player.js</title>
<path fill="none" stroke="#757575" d="M1124.75,-479.106C1166.34,-532.799 1350.46,-754.5 1555.5,-754.5 1555.5,-754.5 1555.5,-754.5 1925,-754.5 2387.17,-754.5 2529.45,-745.853 2942,-537.5 2986.39,-515.081 3027.35,-472.662 3048.98,-447.87"/>
<polygon fill="#757575" stroke="#757575" points="3051.7,-450.066 3055.55,-440.192 3046.38,-445.515 3051.7,-450.066"/>
</g>
<!-- actions/UI.js -->
<g id="node3" class="node"><title>actions/UI.js</title>
<path fill="none" stroke="#cfffac" d="M2870.83,-420C2870.83,-420 2792.17,-420 2792.17,-420 2788.33,-420 2784.5,-416.167 2784.5,-412.333 2784.5,-412.333 2784.5,-404.667 2784.5,-404.667 2784.5,-400.833 2788.33,-397 2792.17,-397 2792.17,-397 2870.83,-397 2870.83,-397 2874.67,-397 2878.5,-400.833 2878.5,-404.667 2878.5,-404.667 2878.5,-412.333 2878.5,-412.333 2878.5,-416.167 2874.67,-420 2870.83,-420"/>
<text text-anchor="middle" x="2831.5" y="-404.8" font-family="Arial" font-size="14.00" fill="#cfffac">actions/UI.js</text>
</g>
<!-- actions/Core.js&#45;&gt;actions/UI.js -->
<g id="edge2" class="edge"><title>actions/Core.js&#45;&gt;actions/UI.js</title>
<path fill="none" stroke="#757575" d="M1146.39,-455.992C1217.08,-430.298 1398.44,-370.5 1555.5,-370.5 1555.5,-370.5 1555.5,-370.5 2317.5,-370.5 2483.85,-370.5 2679.71,-390.618 2774.07,-401.577"/>
<polygon fill="#757575" stroke="#757575" points="2773.91,-405.082 2784.25,-402.77 2774.73,-398.13 2773.91,-405.082"/>
</g>
<!-- scenes/sceneFunctions.js -->
<g id="node4" class="node"><title>scenes/sceneFunctions.js</title>
<path fill="none" stroke="#c6c5fe" d="M1432.33,-576C1432.33,-576 1265.67,-576 1265.67,-576 1261.83,-576 1258,-572.167 1258,-568.333 1258,-568.333 1258,-560.667 1258,-560.667 1258,-556.833 1261.83,-553 1265.67,-553 1265.67,-553 1432.33,-553 1432.33,-553 1436.17,-553 1440,-556.833 1440,-560.667 1440,-560.667 1440,-568.333 1440,-568.333 1440,-572.167 1436.17,-576 1432.33,-576"/>
<text text-anchor="middle" x="1349" y="-560.8" font-family="Arial" font-size="14.00" fill="#c6c5fe">scenes/sceneFunctions.js</text>
</g>
<!-- actions/Core.js&#45;&gt;scenes/sceneFunctions.js -->
<g id="edge3" class="edge"><title>actions/Core.js&#45;&gt;scenes/sceneFunctions.js</title>
<path fill="none" stroke="#757575" d="M1143.52,-479.008C1185.1,-496.39 1264,-529.379 1310.7,-548.904"/>
<polygon fill="#757575" stroke="#757575" points="1309.57,-552.228 1320.15,-552.856 1312.27,-545.769 1309.57,-552.228"/>
</g>
<!-- store/store.js -->
<g id="node5" class="node"><title>store/store.js</title>
<path fill="none" stroke="#c6c5fe" d="M2358.33,-306C2358.33,-306 2274.67,-306 2274.67,-306 2270.83,-306 2267,-302.167 2267,-298.333 2267,-298.333 2267,-290.667 2267,-290.667 2267,-286.833 2270.83,-283 2274.67,-283 2274.67,-283 2358.33,-283 2358.33,-283 2362.17,-283 2366,-286.833 2366,-290.667 2366,-290.667 2366,-298.333 2366,-298.333 2366,-302.167 2362.17,-306 2358.33,-306"/>
<text text-anchor="middle" x="2316.5" y="-290.8" font-family="Arial" font-size="14.00" fill="#c6c5fe">store/store.js</text>
</g>
<!-- actions/Core.js&#45;&gt;store/store.js -->
<g id="edge4" class="edge"><title>actions/Core.js&#45;&gt;store/store.js</title>
<path fill="none" stroke="#757575" d="M1126.92,-455.971C1149.23,-433.144 1202.65,-382.184 1258,-356.5 1380.51,-299.648 1420.44,-294.5 1555.5,-294.5 1555.5,-294.5 1555.5,-294.5 1925,-294.5 2042.52,-294.5 2179.94,-294.5 2256.42,-294.5"/>
<polygon fill="#757575" stroke="#757575" points="2256.8,-298 2266.8,-294.5 2256.8,-291 2256.8,-298"/>
</g>
<!-- scenes/sceneSymbols.js -->
<g id="node7" class="node"><title>scenes/sceneSymbols.js</title>
<path fill="none" stroke="#cfffac" d="M3146.33,-709C3146.33,-709 2985.67,-709 2985.67,-709 2981.83,-709 2978,-705.167 2978,-701.333 2978,-701.333 2978,-693.667 2978,-693.667 2978,-689.833 2981.83,-686 2985.67,-686 2985.67,-686 3146.33,-686 3146.33,-686 3150.17,-686 3154,-689.833 3154,-693.667 3154,-693.667 3154,-701.333 3154,-701.333 3154,-705.167 3150.17,-709 3146.33,-709"/>
<text text-anchor="middle" x="3066" y="-693.8" font-family="Arial" font-size="14.00" fill="#cfffac">scenes/sceneSymbols.js</text>
</g>
<!-- scenes/sceneFunctions.js&#45;&gt;scenes/sceneSymbols.js -->
<g id="edge59" class="edge"><title>scenes/sceneFunctions.js&#45;&gt;scenes/sceneSymbols.js</title>
<path fill="none" stroke="#757575" d="M1366.3,-576.175C1417.63,-611.767 1581.64,-716.5 1734,-716.5 1734,-716.5 1734,-716.5 1925,-716.5 2377.01,-716.5 2490.69,-735.619 2942,-710.5 2950.32,-710.037 2958.95,-709.415 2967.59,-708.694"/>
<polygon fill="#757575" stroke="#757575" points="2968.08,-712.165 2977.73,-707.805 2967.47,-705.192 2968.08,-712.165"/>
</g>
<!-- scenes/charCreation.js -->
<g id="node39" class="node"><title>scenes/charCreation.js</title>
<path fill="none" stroke="#c6c5fe" d="M1629.33,-535C1629.33,-535 1483.67,-535 1483.67,-535 1479.83,-535 1476,-531.167 1476,-527.333 1476,-527.333 1476,-519.667 1476,-519.667 1476,-515.833 1479.83,-512 1483.67,-512 1483.67,-512 1629.33,-512 1629.33,-512 1633.17,-512 1637,-515.833 1637,-519.667 1637,-519.667 1637,-527.333 1637,-527.333 1637,-531.167 1633.17,-535 1629.33,-535"/>
<text text-anchor="middle" x="1556.5" y="-519.8" font-family="Arial" font-size="14.00" fill="#c6c5fe">scenes/charCreation.js</text>
</g>
<!-- scenes/sceneFunctions.js&#45;&gt;scenes/charCreation.js -->
<g id="edge57" class="edge"><title>scenes/sceneFunctions.js&#45;&gt;scenes/charCreation.js</title>
<path fill="none" stroke="#757575" d="M1407.79,-552.97C1432.63,-548.015 1461.83,-542.188 1487.69,-537.03"/>
<polygon fill="#757575" stroke="#757575" points="1488.67,-540.403 1497.79,-535.014 1487.3,-533.539 1488.67,-540.403"/>
</g>
<!-- scenes/menus.js -->
<g id="node40" class="node"><title>scenes/menus.js</title>
<path fill="none" stroke="#c6c5fe" d="M1789.33,-616C1789.33,-616 1680.67,-616 1680.67,-616 1676.83,-616 1673,-612.167 1673,-608.333 1673,-608.333 1673,-600.667 1673,-600.667 1673,-596.833 1676.83,-593 1680.67,-593 1680.67,-593 1789.33,-593 1789.33,-593 1793.17,-593 1797,-596.833 1797,-600.667 1797,-600.667 1797,-608.333 1797,-608.333 1797,-612.167 1793.17,-616 1789.33,-616"/>
<text text-anchor="middle" x="1735" y="-600.8" font-family="Arial" font-size="14.00" fill="#c6c5fe">scenes/menus.js</text>
</g>
<!-- scenes/sceneFunctions.js&#45;&gt;scenes/menus.js -->
<g id="edge58" class="edge"><title>scenes/sceneFunctions.js&#45;&gt;scenes/menus.js</title>
<path fill="none" stroke="#757575" d="M1416.23,-576.033C1435.47,-579.106 1456.53,-582.204 1476,-584.5 1538.95,-591.924 1610.88,-597.24 1662.77,-600.516"/>
<polygon fill="#757575" stroke="#757575" points="1662.68,-604.017 1672.88,-601.144 1663.11,-597.03 1662.68,-604.017"/>
</g>
<!-- scenes/tests/testing.js -->
<g id="node42" class="node"><title>scenes/tests/testing.js</title>
<path fill="none" stroke="#cfffac" d="M1627.83,-576C1627.83,-576 1485.17,-576 1485.17,-576 1481.33,-576 1477.5,-572.167 1477.5,-568.333 1477.5,-568.333 1477.5,-560.667 1477.5,-560.667 1477.5,-556.833 1481.33,-553 1485.17,-553 1485.17,-553 1627.83,-553 1627.83,-553 1631.67,-553 1635.5,-556.833 1635.5,-560.667 1635.5,-560.667 1635.5,-568.333 1635.5,-568.333 1635.5,-572.167 1631.67,-576 1627.83,-576"/>
<text text-anchor="middle" x="1556.5" y="-560.8" font-family="Arial" font-size="14.00" fill="#cfffac">scenes/tests/testing.js</text>
</g>
<!-- scenes/sceneFunctions.js&#45;&gt;scenes/tests/testing.js -->
<g id="edge60" class="edge"><title>scenes/sceneFunctions.js&#45;&gt;scenes/tests/testing.js</title>
<path fill="none" stroke="#757575" d="M1440.14,-564.5C1449.15,-564.5 1458.29,-564.5 1467.28,-564.5"/>
<polygon fill="#757575" stroke="#757575" points="1467.35,-568 1477.35,-564.5 1467.35,-561 1467.35,-568"/>
</g>
<!-- reducers/root.js -->
<g id="node29" class="node"><title>reducers/root.js</title>
<path fill="none" stroke="#c6c5fe" d="M2593.83,-219C2593.83,-219 2493.17,-219 2493.17,-219 2489.33,-219 2485.5,-215.167 2485.5,-211.333 2485.5,-211.333 2485.5,-203.667 2485.5,-203.667 2485.5,-199.833 2489.33,-196 2493.17,-196 2493.17,-196 2593.83,-196 2593.83,-196 2597.67,-196 2601.5,-199.833 2601.5,-203.667 2601.5,-203.667 2601.5,-211.333 2601.5,-211.333 2601.5,-215.167 2597.67,-219 2593.83,-219"/>
<text text-anchor="middle" x="2543.5" y="-203.8" font-family="Arial" font-size="14.00" fill="#c6c5fe">reducers/root.js</text>
</g>
<!-- store/store.js&#45;&gt;reducers/root.js -->
<g id="edge64" class="edge"><title>store/store.js&#45;&gt;reducers/root.js</title>
<path fill="none" stroke="#757575" d="M2328.23,-282.772C2343.14,-267.299 2371.73,-240.51 2402,-227.5 2424.78,-217.711 2451.36,-212.527 2475.23,-209.841"/>
<polygon fill="#757575" stroke="#757575" points="2475.67,-213.314 2485.28,-208.837 2474.98,-206.349 2475.67,-213.314"/>
</g>
<!-- actions/tests/Core.test.js -->
<g id="node6" class="node"><title>actions/tests/Core.test.js</title>
<path fill="none" stroke="#c6c5fe" d="M952.333,-593C952.333,-593 794.667,-593 794.667,-593 790.833,-593 787,-589.167 787,-585.333 787,-585.333 787,-577.667 787,-577.667 787,-573.833 790.833,-570 794.667,-570 794.667,-570 952.333,-570 952.333,-570 956.167,-570 960,-573.833 960,-577.667 960,-577.667 960,-585.333 960,-585.333 960,-589.167 956.167,-593 952.333,-593"/>
<text text-anchor="middle" x="873.5" y="-577.8" font-family="Arial" font-size="14.00" fill="#c6c5fe">actions/tests/Core.test.js</text>
</g>
<!-- actions/tests/Core.test.js&#45;&gt;actions/Core.js -->
<g id="edge5" class="edge"><title>actions/tests/Core.test.js&#45;&gt;actions/Core.js</title>
<path fill="none" stroke="#757575" d="M898.783,-569.942C941.817,-549.458 1031.53,-506.755 1080.44,-483.474"/>
<polygon fill="#757575" stroke="#757575" points="1082.13,-486.547 1089.65,-479.089 1079.12,-480.227 1082.13,-486.547"/>
</g>
<!-- actions/tests/Core.test.js&#45;&gt;scenes/sceneSymbols.js -->
<g id="edge6" class="edge"><title>actions/tests/Core.test.js&#45;&gt;scenes/sceneSymbols.js</title>
<path fill="none" stroke="#757575" d="M888.585,-593.145C943.565,-637.379 1150.46,-792.5 1348,-792.5 1348,-792.5 1348,-792.5 2544.5,-792.5 2721.8,-792.5 2927.63,-738.496 3018.18,-711.923"/>
<polygon fill="#757575" stroke="#757575" points="3019.27,-715.249 3027.87,-709.054 3017.29,-708.537 3019.27,-715.249"/>
</g>
<!-- actions/tests/UI.test.js -->
<g id="node8" class="node"><title>actions/tests/UI.test.js</title>
<path fill="none" stroke="#c6c5fe" d="M2613.33,-460C2613.33,-460 2473.67,-460 2473.67,-460 2469.83,-460 2466,-456.167 2466,-452.333 2466,-452.333 2466,-444.667 2466,-444.667 2466,-440.833 2469.83,-437 2473.67,-437 2473.67,-437 2613.33,-437 2613.33,-437 2617.17,-437 2621,-440.833 2621,-444.667 2621,-444.667 2621,-452.333 2621,-452.333 2621,-456.167 2617.17,-460 2613.33,-460"/>
<text text-anchor="middle" x="2543.5" y="-444.8" font-family="Arial" font-size="14.00" fill="#c6c5fe">actions/tests/UI.test.js</text>
</g>
<!-- actions/tests/UI.test.js&#45;&gt;actions/UI.js -->
<g id="edge7" class="edge"><title>actions/tests/UI.test.js&#45;&gt;actions/UI.js</title>
<path fill="none" stroke="#757575" d="M2621.14,-437.781C2669.24,-431.054 2730.21,-422.526 2773.93,-416.412"/>
<polygon fill="#757575" stroke="#757575" points="2774.68,-419.841 2784.1,-414.99 2773.71,-412.909 2774.68,-419.841"/>
</g>
<!-- components/appRoot.js -->
<g id="node9" class="node"><title>components/appRoot.js</title>
<path fill="none" stroke="#c6c5fe" d="M421.833,-187C421.833,-187 269.167,-187 269.167,-187 265.333,-187 261.5,-183.167 261.5,-179.333 261.5,-179.333 261.5,-171.667 261.5,-171.667 261.5,-167.833 265.333,-164 269.167,-164 269.167,-164 421.833,-164 421.833,-164 425.667,-164 429.5,-167.833 429.5,-171.667 429.5,-171.667 429.5,-179.333 429.5,-179.333 429.5,-183.167 425.667,-187 421.833,-187"/>
<text text-anchor="middle" x="345.5" y="-171.8" font-family="Arial" font-size="14.00" fill="#c6c5fe">components/appRoot.js</text>
</g>
<!-- components/lowerButtons.js -->
<g id="node10" class="node"><title>components/lowerButtons.js</title>
<path fill="none" stroke="#c6c5fe" d="M704.833,-146C704.833,-146 525.167,-146 525.167,-146 521.333,-146 517.5,-142.167 517.5,-138.333 517.5,-138.333 517.5,-130.667 517.5,-130.667 517.5,-126.833 521.333,-123 525.167,-123 525.167,-123 704.833,-123 704.833,-123 708.667,-123 712.5,-126.833 712.5,-130.667 712.5,-130.667 712.5,-138.333 712.5,-138.333 712.5,-142.167 708.667,-146 704.833,-146"/>
<text text-anchor="middle" x="615" y="-130.8" font-family="Arial" font-size="14.00" fill="#c6c5fe">components/lowerButtons.js</text>
</g>
<!-- components/appRoot.js&#45;&gt;components/lowerButtons.js -->
<g id="edge8" class="edge"><title>components/appRoot.js&#45;&gt;components/lowerButtons.js</title>
<path fill="none" stroke="#757575" d="M421.726,-163.97C455.059,-158.861 494.433,-152.826 528.842,-147.552"/>
<polygon fill="#757575" stroke="#757575" points="529.522,-150.989 538.876,-146.014 528.461,-144.07 529.522,-150.989"/>
</g>
<!-- components/menuBar.js -->
<g id="node11" class="node"><title>components/menuBar.js</title>
<path fill="none" stroke="#c6c5fe" d="M692.333,-187C692.333,-187 537.667,-187 537.667,-187 533.833,-187 530,-183.167 530,-179.333 530,-179.333 530,-171.667 530,-171.667 530,-167.833 533.833,-164 537.667,-164 537.667,-164 692.333,-164 692.333,-164 696.167,-164 700,-167.833 700,-171.667 700,-171.667 700,-179.333 700,-179.333 700,-183.167 696.167,-187 692.333,-187"/>
<text text-anchor="middle" x="615" y="-171.8" font-family="Arial" font-size="14.00" fill="#c6c5fe">components/menuBar.js</text>
</g>
<!-- components/appRoot.js&#45;&gt;components/menuBar.js -->
<g id="edge9" class="edge"><title>components/appRoot.js&#45;&gt;components/menuBar.js</title>
<path fill="none" stroke="#757575" d="M429.672,-175.5C458.209,-175.5 490.347,-175.5 519.701,-175.5"/>
<polygon fill="#757575" stroke="#757575" points="519.958,-179 529.958,-175.5 519.958,-172 519.958,-179"/>
</g>
<!-- components/output.js -->
<g id="node12" class="node"><title>components/output.js</title>
<path fill="none" stroke="#cfffac" d="M683.333,-228C683.333,-228 546.667,-228 546.667,-228 542.833,-228 539,-224.167 539,-220.333 539,-220.333 539,-212.667 539,-212.667 539,-208.833 542.833,-205 546.667,-205 546.667,-205 683.333,-205 683.333,-205 687.167,-205 691,-208.833 691,-212.667 691,-212.667 691,-220.333 691,-220.333 691,-224.167 687.167,-228 683.333,-228"/>
<text text-anchor="middle" x="615" y="-212.8" font-family="Arial" font-size="14.00" fill="#cfffac">components/output.js</text>
</g>
<!-- components/appRoot.js&#45;&gt;components/output.js -->
<g id="edge10" class="edge"><title>components/appRoot.js&#45;&gt;components/output.js</title>
<path fill="none" stroke="#757575" d="M421.726,-187.03C455.059,-192.139 494.433,-198.174 528.842,-203.448"/>
<polygon fill="#757575" stroke="#757575" points="528.461,-206.93 538.876,-204.986 529.522,-200.011 528.461,-206.93"/>
</g>
<!-- components/statBar.js -->
<g id="node13" class="node"><title>components/statBar.js</title>
<path fill="none" stroke="#c6c5fe" d="M686.333,-64C686.333,-64 543.667,-64 543.667,-64 539.833,-64 536,-60.1667 536,-56.3333 536,-56.3333 536,-48.6667 536,-48.6667 536,-44.8333 539.833,-41 543.667,-41 543.667,-41 686.333,-41 686.333,-41 690.167,-41 694,-44.8333 694,-48.6667 694,-48.6667 694,-56.3333 694,-56.3333 694,-60.1667 690.167,-64 686.333,-64"/>
<text text-anchor="middle" x="615" y="-48.8" font-family="Arial" font-size="14.00" fill="#c6c5fe">components/statBar.js</text>
</g>
<!-- components/appRoot.js&#45;&gt;components/statBar.js -->
<g id="edge11" class="edge"><title>components/appRoot.js&#45;&gt;components/statBar.js</title>
<path fill="none" stroke="#757575" d="M358.456,-163.966C381.805,-142.175 436.011,-95.1181 491,-72.5 501.942,-67.9993 513.822,-64.5088 525.74,-61.8024"/>
<polygon fill="#757575" stroke="#757575" points="526.67,-65.1836 535.741,-59.7083 525.236,-58.3322 526.67,-65.1836"/>
</g>
<!-- components/buttonGrid.js -->
<g id="node15" class="node"><title>components/buttonGrid.js</title>
<path fill="none" stroke="#c6c5fe" d="M955.333,-187C955.333,-187 791.667,-187 791.667,-187 787.833,-187 784,-183.167 784,-179.333 784,-179.333 784,-171.667 784,-171.667 784,-167.833 787.833,-164 791.667,-164 791.667,-164 955.333,-164 955.333,-164 959.167,-164 963,-167.833 963,-171.667 963,-171.667 963,-179.333 963,-179.333 963,-183.167 959.167,-187 955.333,-187"/>
<text text-anchor="middle" x="873.5" y="-171.8" font-family="Arial" font-size="14.00" fill="#c6c5fe">components/buttonGrid.js</text>
</g>
<!-- components/lowerButtons.js&#45;&gt;components/buttonGrid.js -->
<g id="edge15" class="edge"><title>components/lowerButtons.js&#45;&gt;components/buttonGrid.js</title>
<path fill="none" stroke="#757575" d="M688.132,-146.03C719.958,-151.117 757.526,-157.122 790.419,-162.38"/>
<polygon fill="#757575" stroke="#757575" points="790.038,-165.863 800.465,-163.986 791.143,-158.951 790.038,-165.863"/>
</g>
<!-- components/menuBar.js&#45;&gt;components/buttonGrid.js -->
<g id="edge16" class="edge"><title>components/menuBar.js&#45;&gt;components/buttonGrid.js</title>
<path fill="none" stroke="#757575" d="M700.343,-175.5C723.724,-175.5 749.319,-175.5 773.456,-175.5"/>
<polygon fill="#757575" stroke="#757575" points="773.7,-179 783.7,-175.5 773.7,-172 773.7,-179"/>
</g>
<!-- components/spriteDisplay.js -->
<g id="node18" class="node"><title>components/spriteDisplay.js</title>
<path fill="none" stroke="#cfffac" d="M963.333,-64C963.333,-64 783.667,-64 783.667,-64 779.833,-64 776,-60.1667 776,-56.3333 776,-56.3333 776,-48.6667 776,-48.6667 776,-44.8333 779.833,-41 783.667,-41 783.667,-41 963.333,-41 963.333,-41 967.167,-41 971,-44.8333 971,-48.6667 971,-48.6667 971,-56.3333 971,-56.3333 971,-60.1667 967.167,-64 963.333,-64"/>
<text text-anchor="middle" x="873.5" y="-48.8" font-family="Arial" font-size="14.00" fill="#cfffac">components/spriteDisplay.js</text>
</g>
<!-- components/statBar.js&#45;&gt;components/spriteDisplay.js -->
<g id="edge19" class="edge"><title>components/statBar.js&#45;&gt;components/spriteDisplay.js</title>
<path fill="none" stroke="#757575" d="M694.003,-52.5C716.572,-52.5 741.607,-52.5 765.615,-52.5"/>
<polygon fill="#757575" stroke="#757575" points="765.83,-56.0001 775.83,-52.5 765.83,-49.0001 765.83,-56.0001"/>
</g>
<!-- components/statDisplay.js -->
<g id="node20" class="node"><title>components/statDisplay.js</title>
<path fill="none" stroke="#c6c5fe" d="M956.833,-105C956.833,-105 790.167,-105 790.167,-105 786.333,-105 782.5,-101.167 782.5,-97.3333 782.5,-97.3333 782.5,-89.6667 782.5,-89.6667 782.5,-85.8333 786.333,-82 790.167,-82 790.167,-82 956.833,-82 956.833,-82 960.667,-82 964.5,-85.8333 964.5,-89.6667 964.5,-89.6667 964.5,-97.3333 964.5,-97.3333 964.5,-101.167 960.667,-105 956.833,-105"/>
<text text-anchor="middle" x="873.5" y="-89.8" font-family="Arial" font-size="14.00" fill="#c6c5fe">components/statDisplay.js</text>
</g>
<!-- components/statBar.js&#45;&gt;components/statDisplay.js -->
<g id="edge20" class="edge"><title>components/statBar.js&#45;&gt;components/statDisplay.js</title>
<path fill="none" stroke="#757575" d="M688.132,-64.0299C719.958,-69.117 757.526,-75.1221 790.419,-80.3798"/>
<polygon fill="#757575" stroke="#757575" points="790.038,-83.8633 800.465,-81.9857 791.143,-76.9511 790.038,-83.8633"/>
</g>
<!-- components/timeDisplay.js -->
<g id="node21" class="node"><title>components/timeDisplay.js</title>
<path fill="none" stroke="#cfffac" d="M959.333,-23C959.333,-23 787.667,-23 787.667,-23 783.833,-23 780,-19.1667 780,-15.3333 780,-15.3333 780,-7.66667 780,-7.66667 780,-3.83333 783.833,-0 787.667,-0 787.667,-0 959.333,-0 959.333,-0 963.167,-0 967,-3.83333 967,-7.66667 967,-7.66667 967,-15.3333 967,-15.3333 967,-19.1667 963.167,-23 959.333,-23"/>
<text text-anchor="middle" x="873.5" y="-7.8" font-family="Arial" font-size="14.00" fill="#cfffac">components/timeDisplay.js</text>
</g>
<!-- components/statBar.js&#45;&gt;components/timeDisplay.js -->
<g id="edge21" class="edge"><title>components/statBar.js&#45;&gt;components/timeDisplay.js</title>
<path fill="none" stroke="#757575" d="M688.132,-40.9701C719.958,-35.883 757.526,-29.8779 790.419,-24.6202"/>
<polygon fill="#757575" stroke="#757575" points="791.143,-28.0489 800.465,-23.0143 790.038,-21.1367 791.143,-28.0489"/>
</g>
<!-- components/button.js -->
<g id="node14" class="node"><title>components/button.js</title>
<path fill="none" stroke="#cfffac" d="M1417.33,-208C1417.33,-208 1280.67,-208 1280.67,-208 1276.83,-208 1273,-204.167 1273,-200.333 1273,-200.333 1273,-192.667 1273,-192.667 1273,-188.833 1276.83,-185 1280.67,-185 1280.67,-185 1417.33,-185 1417.33,-185 1421.17,-185 1425,-188.833 1425,-192.667 1425,-192.667 1425,-200.333 1425,-200.333 1425,-204.167 1421.17,-208 1417.33,-208"/>
<text text-anchor="middle" x="1349" y="-192.8" font-family="Arial" font-size="14.00" fill="#cfffac">components/button.js</text>
</g>
<!-- components/buttonGrid.js&#45;&gt;actions/Core.js -->
<g id="edge12" class="edge"><title>components/buttonGrid.js&#45;&gt;actions/Core.js</title>
<path fill="none" stroke="#757575" d="M884.185,-187.308C920.977,-232.165 1052.3,-392.276 1098.1,-448.119"/>
<polygon fill="#757575" stroke="#757575" points="1095.41,-450.352 1104.46,-455.865 1100.82,-445.913 1095.41,-450.352"/>
</g>
<!-- components/buttonWrap.js -->
<g id="node16" class="node"><title>components/buttonWrap.js</title>
<path fill="none" stroke="#c6c5fe" d="M1200.83,-187C1200.83,-187 1029.17,-187 1029.17,-187 1025.33,-187 1021.5,-183.167 1021.5,-179.333 1021.5,-179.333 1021.5,-171.667 1021.5,-171.667 1021.5,-167.833 1025.33,-164 1029.17,-164 1029.17,-164 1200.83,-164 1200.83,-164 1204.67,-164 1208.5,-167.833 1208.5,-171.667 1208.5,-171.667 1208.5,-179.333 1208.5,-179.333 1208.5,-183.167 1204.67,-187 1200.83,-187"/>
<text text-anchor="middle" x="1115" y="-171.8" font-family="Arial" font-size="14.00" fill="#c6c5fe">components/buttonWrap.js</text>
</g>
<!-- components/buttonGrid.js&#45;&gt;components/buttonWrap.js -->
<g id="edge13" class="edge"><title>components/buttonGrid.js&#45;&gt;components/buttonWrap.js</title>
<path fill="none" stroke="#757575" d="M963.001,-175.5C978.631,-175.5 995.026,-175.5 1011.01,-175.5"/>
<polygon fill="#757575" stroke="#757575" points="1011.45,-179 1021.45,-175.5 1011.45,-172 1011.45,-179"/>
</g>
<!-- components/buttonWrap.js&#45;&gt;components/button.js -->
<g id="edge14" class="edge"><title>components/buttonWrap.js&#45;&gt;components/button.js</title>
<path fill="none" stroke="#757575" d="M1208.69,-183.89C1226.52,-185.504 1245.12,-187.188 1262.7,-188.779"/>
<polygon fill="#757575" stroke="#757575" points="1262.65,-192.289 1272.92,-189.704 1263.28,-185.317 1262.65,-192.289"/>
</g>
<!-- components/nameInput.js -->
<g id="node17" class="node"><title>components/nameInput.js</title>
<path fill="none" stroke="#c6c5fe" d="M2223.33,-536C2223.33,-536 2058.67,-536 2058.67,-536 2054.83,-536 2051,-532.167 2051,-528.333 2051,-528.333 2051,-520.667 2051,-520.667 2051,-516.833 2054.83,-513 2058.67,-513 2058.67,-513 2223.33,-513 2223.33,-513 2227.17,-513 2231,-516.833 2231,-520.667 2231,-520.667 2231,-528.333 2231,-528.333 2231,-532.167 2227.17,-536 2223.33,-536"/>
<text text-anchor="middle" x="2141" y="-520.8" font-family="Arial" font-size="14.00" fill="#c6c5fe">components/nameInput.js</text>
</g>
<!-- components/nameInput.js&#45;&gt;actions/Player.js -->
<g id="edge17" class="edge"><title>components/nameInput.js&#45;&gt;actions/Player.js</title>
<path fill="none" stroke="#757575" d="M2226.8,-536.019C2375.28,-553.17 2690.46,-576.073 2942,-502.5 2980.77,-491.16 3019.76,-464.513 3043.14,-446.489"/>
<polygon fill="#757575" stroke="#757575" points="3045.33,-449.22 3051.02,-440.283 3041,-443.721 3045.33,-449.22"/>
</g>
<!-- components/nameInput.js&#45;&gt;store/store.js -->
<g id="edge18" class="edge"><title>components/nameInput.js&#45;&gt;store/store.js</title>
<path fill="none" stroke="#757575" d="M2150.84,-512.778C2178.8,-475.712 2265.52,-360.759 2300.57,-314.29"/>
<polygon fill="#757575" stroke="#757575" points="2303.45,-316.289 2306.68,-306.198 2297.86,-312.074 2303.45,-316.289"/>
</g>
<!-- components/stat.js -->
<g id="node19" class="node"><title>components/stat.js</title>
<path fill="none" stroke="#cfffac" d="M1175.33,-125C1175.33,-125 1054.67,-125 1054.67,-125 1050.83,-125 1047,-121.167 1047,-117.333 1047,-117.333 1047,-109.667 1047,-109.667 1047,-105.833 1050.83,-102 1054.67,-102 1054.67,-102 1175.33,-102 1175.33,-102 1179.17,-102 1183,-105.833 1183,-109.667 1183,-109.667 1183,-117.333 1183,-117.333 1183,-121.167 1179.17,-125 1175.33,-125"/>
<text text-anchor="middle" x="1115" y="-109.8" font-family="Arial" font-size="14.00" fill="#cfffac">components/stat.js</text>
</g>
<!-- components/statDisplay.js&#45;&gt;components/stat.js -->
<g id="edge22" class="edge"><title>components/statDisplay.js&#45;&gt;components/stat.js</title>
<path fill="none" stroke="#757575" d="M964.703,-101.033C988.382,-103.01 1013.71,-105.125 1036.64,-107.04"/>
<polygon fill="#757575" stroke="#757575" points="1036.4,-110.532 1046.66,-107.877 1036.99,-103.556 1036.4,-110.532"/>
</g>
<!-- components/tests/button.test.js -->
<g id="node22" class="node"><title>components/tests/button.test.js</title>
<path fill="none" stroke="#c6c5fe" d="M1214.33,-228C1214.33,-228 1015.67,-228 1015.67,-228 1011.83,-228 1008,-224.167 1008,-220.333 1008,-220.333 1008,-212.667 1008,-212.667 1008,-208.833 1011.83,-205 1015.67,-205 1015.67,-205 1214.33,-205 1214.33,-205 1218.17,-205 1222,-208.833 1222,-212.667 1222,-212.667 1222,-220.333 1222,-220.333 1222,-224.167 1218.17,-228 1214.33,-228"/>
<text text-anchor="middle" x="1115" y="-212.8" font-family="Arial" font-size="14.00" fill="#c6c5fe">components/tests/button.test.js</text>
</g>
<!-- components/tests/button.test.js&#45;&gt;components/button.js -->
<g id="edge23" class="edge"><title>components/tests/button.test.js&#45;&gt;components/button.js</title>
<path fill="none" stroke="#757575" d="M1222.16,-207.349C1235.75,-206.177 1249.53,-204.989 1262.73,-203.85"/>
<polygon fill="#757575" stroke="#757575" points="1263.05,-207.337 1272.71,-202.991 1262.44,-200.363 1263.05,-207.337"/>
</g>
<!-- components/tests/output.test.js -->
<g id="node23" class="node"><title>components/tests/output.test.js</title>
<path fill="none" stroke="#c6c5fe" d="M444.833,-228C444.833,-228 246.167,-228 246.167,-228 242.333,-228 238.5,-224.167 238.5,-220.333 238.5,-220.333 238.5,-212.667 238.5,-212.667 238.5,-208.833 242.333,-205 246.167,-205 246.167,-205 444.833,-205 444.833,-205 448.667,-205 452.5,-208.833 452.5,-212.667 452.5,-212.667 452.5,-220.333 452.5,-220.333 452.5,-224.167 448.667,-228 444.833,-228"/>
<text text-anchor="middle" x="345.5" y="-212.8" font-family="Arial" font-size="14.00" fill="#c6c5fe">components/tests/output.test.js</text>
</g>
<!-- components/tests/output.test.js&#45;&gt;components/output.js -->
<g id="edge24" class="edge"><title>components/tests/output.test.js&#45;&gt;components/output.js</title>
<path fill="none" stroke="#757575" d="M452.607,-216.5C477.879,-216.5 504.527,-216.5 528.727,-216.5"/>
<polygon fill="#757575" stroke="#757575" points="528.937,-220 538.937,-216.5 528.937,-213 528.937,-220"/>
</g>
<!-- components/tests/stat.test.js -->
<g id="node24" class="node"><title>components/tests/stat.test.js</title>
<path fill="none" stroke="#c6c5fe" d="M964.333,-146C964.333,-146 782.667,-146 782.667,-146 778.833,-146 775,-142.167 775,-138.333 775,-138.333 775,-130.667 775,-130.667 775,-126.833 778.833,-123 782.667,-123 782.667,-123 964.333,-123 964.333,-123 968.167,-123 972,-126.833 972,-130.667 972,-130.667 972,-138.333 972,-138.333 972,-142.167 968.167,-146 964.333,-146"/>
<text text-anchor="middle" x="873.5" y="-130.8" font-family="Arial" font-size="14.00" fill="#c6c5fe">components/tests/stat.test.js</text>
</g>
<!-- components/tests/stat.test.js&#45;&gt;components/stat.js -->
<g id="edge25" class="edge"><title>components/tests/stat.test.js&#45;&gt;components/stat.js</title>
<path fill="none" stroke="#757575" d="M972.259,-125.928C993.725,-124.046 1016.17,-122.078 1036.7,-120.278"/>
<polygon fill="#757575" stroke="#757575" points="1037.27,-123.741 1046.93,-119.381 1036.66,-116.768 1037.27,-123.741"/>
</g>
<!-- components/tests/statBar.test.js -->
<g id="node25" class="node"><title>components/tests/statBar.test.js</title>
<path fill="none" stroke="#c6c5fe" d="M447.333,-64C447.333,-64 243.667,-64 243.667,-64 239.833,-64 236,-60.1667 236,-56.3333 236,-56.3333 236,-48.6667 236,-48.6667 236,-44.8333 239.833,-41 243.667,-41 243.667,-41 447.333,-41 447.333,-41 451.167,-41 455,-44.8333 455,-48.6667 455,-48.6667 455,-56.3333 455,-56.3333 455,-60.1667 451.167,-64 447.333,-64"/>
<text text-anchor="middle" x="345.5" y="-48.8" font-family="Arial" font-size="14.00" fill="#c6c5fe">components/tests/statBar.test.js</text>
</g>
<!-- components/tests/statBar.test.js&#45;&gt;components/statBar.js -->
<g id="edge26" class="edge"><title>components/tests/statBar.test.js&#45;&gt;components/statBar.js</title>
<path fill="none" stroke="#757575" d="M455.302,-52.5C478.633,-52.5 503.014,-52.5 525.468,-52.5"/>
<polygon fill="#757575" stroke="#757575" points="525.639,-56.0001 535.639,-52.5 525.639,-49.0001 525.639,-56.0001"/>
</g>
<!-- components/tests/statDisplay.test.js -->
<g id="node26" class="node"><title>components/tests/statDisplay.test.js</title>
<path fill="none" stroke="#c6c5fe" d="M729.333,-105C729.333,-105 500.667,-105 500.667,-105 496.833,-105 493,-101.167 493,-97.3333 493,-97.3333 493,-89.6667 493,-89.6667 493,-85.8333 496.833,-82 500.667,-82 500.667,-82 729.333,-82 729.333,-82 733.167,-82 737,-85.8333 737,-89.6667 737,-89.6667 737,-97.3333 737,-97.3333 737,-101.167 733.167,-105 729.333,-105"/>
<text text-anchor="middle" x="615" y="-89.8" font-family="Arial" font-size="14.00" fill="#c6c5fe">components/tests/statDisplay.test.js</text>
</g>
<!-- components/tests/statDisplay.test.js&#45;&gt;components/statDisplay.js -->
<g id="edge27" class="edge"><title>components/tests/statDisplay.test.js&#45;&gt;components/statDisplay.js</title>
<path fill="none" stroke="#757575" d="M737.114,-93.5C748.852,-93.5 760.67,-93.5 772.173,-93.5"/>
<polygon fill="#757575" stroke="#757575" points="772.191,-97.0001 782.191,-93.5 772.191,-90.0001 772.191,-97.0001"/>
</g>
<!-- components/tests/timeDisplay.test.js -->
<g id="node27" class="node"><title>components/tests/timeDisplay.test.js</title>
<path fill="none" stroke="#c6c5fe" d="M731.333,-23C731.333,-23 498.667,-23 498.667,-23 494.833,-23 491,-19.1667 491,-15.3333 491,-15.3333 491,-7.66667 491,-7.66667 491,-3.83333 494.833,-0 498.667,-0 498.667,-0 731.333,-0 731.333,-0 735.167,-0 739,-3.83333 739,-7.66667 739,-7.66667 739,-15.3333 739,-15.3333 739,-19.1667 735.167,-23 731.333,-23"/>
<text text-anchor="middle" x="615" y="-7.8" font-family="Arial" font-size="14.00" fill="#c6c5fe">components/tests/timeDisplay.test.js</text>
</g>
<!-- components/tests/timeDisplay.test.js&#45;&gt;components/timeDisplay.js -->
<g id="edge28" class="edge"><title>components/tests/timeDisplay.test.js&#45;&gt;components/timeDisplay.js</title>
<path fill="none" stroke="#757575" d="M739.367,-11.5C749.463,-11.5 759.601,-11.5 769.528,-11.5"/>
<polygon fill="#757575" stroke="#757575" points="769.786,-15.0001 779.786,-11.5 769.786,-8.0001 769.786,-15.0001"/>
</g>
<!-- index.js -->
<g id="node28" class="node"><title>index.js</title>
<path fill="none" stroke="#c6c5fe" d="M124.833,-227C124.833,-227 75.1667,-227 75.1667,-227 71.3333,-227 67.5,-223.167 67.5,-219.333 67.5,-219.333 67.5,-211.667 67.5,-211.667 67.5,-207.833 71.3333,-204 75.1667,-204 75.1667,-204 124.833,-204 124.833,-204 128.667,-204 132.5,-207.833 132.5,-211.667 132.5,-211.667 132.5,-219.333 132.5,-219.333 132.5,-223.167 128.667,-227 124.833,-227"/>
<text text-anchor="middle" x="100" y="-211.8" font-family="Arial" font-size="14.00" fill="#c6c5fe">index.js</text>
</g>
<!-- index.js&#45;&gt;store/store.js -->
<g id="edge30" class="edge"><title>index.js&#45;&gt;store/store.js</title>
<path fill="none" stroke="#757575" d="M132.523,-221.331C159.808,-226.156 200.376,-232.796 236,-236.5 403.333,-253.896 445.765,-256.5 614,-256.5 614,-256.5 614,-256.5 1925,-256.5 2043.08,-256.5 2180.29,-273.923 2256.59,-285.174"/>
<polygon fill="#757575" stroke="#757575" points="2256.54,-288.705 2266.94,-286.718 2257.57,-281.782 2256.54,-288.705"/>
</g>
<!-- index.js&#45;&gt;components/appRoot.js -->
<g id="edge29" class="edge"><title>index.js&#45;&gt;components/appRoot.js</title>
<path fill="none" stroke="#757575" d="M132.833,-210.271C166.091,-204.807 219.575,-196.022 264.457,-188.649"/>
<polygon fill="#757575" stroke="#757575" points="265.18,-192.077 274.481,-187.002 264.045,-185.17 265.18,-192.077"/>
</g>
<!-- reducers/root.js&#45;&gt;actions/Player.js -->
<g id="edge31" class="edge"><title>reducers/root.js&#45;&gt;actions/Player.js</title>
<path fill="none" stroke="#757575" d="M2601.7,-206.679C2628.39,-208.475 2659.75,-213.844 2685,-227.5 2706.33,-239.037 2699.87,-256.61 2721,-268.5 2807.93,-317.404 2853.34,-261.802 2942,-307.5 2989.57,-332.021 3030.65,-381.251 3051.13,-408.757"/>
<polygon fill="#757575" stroke="#757575" points="3048.32,-410.844 3057.04,-416.866 3053.98,-406.723 3048.32,-410.844"/>
</g>
<!-- reducers/root.js&#45;&gt;actions/UI.js -->
<g id="edge32" class="edge"><title>reducers/root.js&#45;&gt;actions/UI.js</title>
<path fill="none" stroke="#757575" d="M2601.67,-202.079C2629.8,-202.501 2662.42,-208.033 2685,-227.5 2727.49,-264.137 2685.75,-304.85 2721,-348.5 2737.51,-368.938 2762.92,-383.471 2785.11,-393.11"/>
<polygon fill="#757575" stroke="#757575" points="2783.81,-396.36 2794.39,-396.945 2786.49,-389.891 2783.81,-396.36"/>
</g>
<!-- reducers/updateLowerButtons.js -->
<g id="node30" class="node"><title>reducers/updateLowerButtons.js</title>
<path fill="none" stroke="#c6c5fe" d="M2934.33,-219C2934.33,-219 2728.67,-219 2728.67,-219 2724.83,-219 2721,-215.167 2721,-211.333 2721,-211.333 2721,-203.667 2721,-203.667 2721,-199.833 2724.83,-196 2728.67,-196 2728.67,-196 2934.33,-196 2934.33,-196 2938.17,-196 2942,-199.833 2942,-203.667 2942,-203.667 2942,-211.333 2942,-211.333 2942,-215.167 2938.17,-219 2934.33,-219"/>
<text text-anchor="middle" x="2831.5" y="-203.8" font-family="Arial" font-size="14.00" fill="#c6c5fe">reducers/updateLowerButtons.js</text>
</g>
<!-- reducers/root.js&#45;&gt;reducers/updateLowerButtons.js -->
<g id="edge33" class="edge"><title>reducers/root.js&#45;&gt;reducers/updateLowerButtons.js</title>
<path fill="none" stroke="#757575" d="M2601.69,-207.5C2632.96,-207.5 2672.93,-207.5 2710.68,-207.5"/>
<polygon fill="#757575" stroke="#757575" points="2710.74,-211 2720.74,-207.5 2710.74,-204 2710.74,-211"/>
</g>
<!-- reducers/updateMenuBar.js -->
<g id="node31" class="node"><title>reducers/updateMenuBar.js</title>
<path fill="none" stroke="#c6c5fe" d="M2919.33,-178C2919.33,-178 2743.67,-178 2743.67,-178 2739.83,-178 2736,-174.167 2736,-170.333 2736,-170.333 2736,-162.667 2736,-162.667 2736,-158.833 2739.83,-155 2743.67,-155 2743.67,-155 2919.33,-155 2919.33,-155 2923.17,-155 2927,-158.833 2927,-162.667 2927,-162.667 2927,-170.333 2927,-170.333 2927,-174.167 2923.17,-178 2919.33,-178"/>
<text text-anchor="middle" x="2831.5" y="-162.8" font-family="Arial" font-size="14.00" fill="#c6c5fe">reducers/updateMenuBar.js</text>
</g>
<!-- reducers/root.js&#45;&gt;reducers/updateMenuBar.js -->
<g id="edge34" class="edge"><title>reducers/root.js&#45;&gt;reducers/updateMenuBar.js</title>
<path fill="none" stroke="#757575" d="M2601.69,-199.302C2641.24,-193.631 2694.7,-185.968 2739.99,-179.475"/>
<polygon fill="#757575" stroke="#757575" points="2740.72,-182.907 2750.12,-178.023 2739.73,-175.977 2740.72,-182.907"/>
</g>
<!-- reducers/updateStats.js -->
<g id="node32" class="node"><title>reducers/updateStats.js</title>
<path fill="none" stroke="#c6c5fe" d="M2907.33,-260C2907.33,-260 2755.67,-260 2755.67,-260 2751.83,-260 2748,-256.167 2748,-252.333 2748,-252.333 2748,-244.667 2748,-244.667 2748,-240.833 2751.83,-237 2755.67,-237 2755.67,-237 2907.33,-237 2907.33,-237 2911.17,-237 2915,-240.833 2915,-244.667 2915,-244.667 2915,-252.333 2915,-252.333 2915,-256.167 2911.17,-260 2907.33,-260"/>
<text text-anchor="middle" x="2831.5" y="-244.8" font-family="Arial" font-size="14.00" fill="#c6c5fe">reducers/updateStats.js</text>
</g>
<!-- reducers/root.js&#45;&gt;reducers/updateStats.js -->
<g id="edge35" class="edge"><title>reducers/root.js&#45;&gt;reducers/updateStats.js</title>
<path fill="none" stroke="#757575" d="M2601.58,-215.6C2627.11,-219.228 2657.56,-223.567 2685,-227.5 2703.01,-230.082 2722.28,-232.854 2740.7,-235.511"/>
<polygon fill="#757575" stroke="#757575" points="2740.44,-239.01 2750.83,-236.973 2741.44,-232.081 2740.44,-239.01"/>
</g>
<!-- store/initialState.js -->
<g id="node33" class="node"><title>store/initialState.js</title>
<path fill="none" stroke="#c6c5fe" d="M2889.33,-340C2889.33,-340 2773.67,-340 2773.67,-340 2769.83,-340 2766,-336.167 2766,-332.333 2766,-332.333 2766,-324.667 2766,-324.667 2766,-320.833 2769.83,-317 2773.67,-317 2773.67,-317 2889.33,-317 2889.33,-317 2893.17,-317 2897,-320.833 2897,-324.667 2897,-324.667 2897,-332.333 2897,-332.333 2897,-336.167 2893.17,-340 2889.33,-340"/>
<text text-anchor="middle" x="2831.5" y="-324.8" font-family="Arial" font-size="14.00" fill="#c6c5fe">store/initialState.js</text>
</g>
<!-- reducers/root.js&#45;&gt;store/initialState.js -->
<g id="edge36" class="edge"><title>reducers/root.js&#45;&gt;store/initialState.js</title>
<path fill="none" stroke="#757575" d="M2601.83,-203.664C2629.33,-204.631 2661.35,-210.171 2685,-227.5 2714.83,-249.353 2692.21,-279.302 2721,-302.5 2731.18,-310.706 2743.53,-316.398 2756.21,-320.33"/>
<polygon fill="#757575" stroke="#757575" points="2755.37,-323.729 2765.94,-323.006 2757.23,-316.979 2755.37,-323.729"/>
</g>
<!-- utils.js -->
<g id="node34" class="node"><title>utils.js</title>
<path fill="none" stroke="#cfffac" d="M3086.33,-198C3086.33,-198 3045.67,-198 3045.67,-198 3041.83,-198 3038,-194.167 3038,-190.333 3038,-190.333 3038,-182.667 3038,-182.667 3038,-178.833 3041.83,-175 3045.67,-175 3045.67,-175 3086.33,-175 3086.33,-175 3090.17,-175 3094,-178.833 3094,-182.667 3094,-182.667 3094,-190.333 3094,-190.333 3094,-194.167 3090.17,-198 3086.33,-198"/>
<text text-anchor="middle" x="3066" y="-182.8" font-family="Arial" font-size="14.00" fill="#cfffac">utils.js</text>
</g>
<!-- reducers/root.js&#45;&gt;utils.js -->
<g id="edge37" class="edge"><title>reducers/root.js&#45;&gt;utils.js</title>
<path fill="none" stroke="#757575" d="M2568.93,-195.935C2602.36,-180.81 2664.65,-155.109 2721,-145.5 2817.82,-128.989 2845.05,-129.767 2942,-145.5 2972.27,-150.412 3005.15,-161.707 3029.3,-171.2"/>
<polygon fill="#757575" stroke="#757575" points="3028.17,-174.517 3038.75,-175 3030.78,-168.023 3028.17,-174.517"/>
</g>
<!-- reducers/updateLowerButtons.js&#45;&gt;utils.js -->
<g id="edge44" class="edge"><title>reducers/updateLowerButtons.js&#45;&gt;utils.js</title>
<path fill="none" stroke="#757575" d="M2942.28,-197.584C2973.07,-194.803 3004.47,-191.967 3027.8,-189.86"/>
<polygon fill="#757575" stroke="#757575" points="3028.28,-193.331 3037.92,-188.946 3027.65,-186.36 3028.28,-193.331"/>
</g>
<!-- reducers/updateMenuBar.js&#45;&gt;utils.js -->
<g id="edge45" class="edge"><title>reducers/updateMenuBar.js&#45;&gt;utils.js</title>
<path fill="none" stroke="#757575" d="M2927.07,-174.635C2962.36,-177.671 3000.42,-180.945 3027.6,-183.283"/>
<polygon fill="#757575" stroke="#757575" points="3027.55,-186.792 3037.82,-184.162 3028.15,-179.817 3027.55,-186.792"/>
</g>
<!-- reducers/updateStats.js&#45;&gt;actions/Player.js -->
<g id="edge46" class="edge"><title>reducers/updateStats.js&#45;&gt;actions/Player.js</title>
<path fill="none" stroke="#757575" d="M2909.94,-260.029C2921.2,-263.62 2932.26,-268.328 2942,-274.5 2995.66,-308.515 3036.18,-374.198 3054.4,-407.72"/>
<polygon fill="#757575" stroke="#757575" points="3051.36,-409.451 3059.13,-416.645 3057.54,-406.171 3051.36,-409.451"/>
</g>
<!-- reducers/updateStats.js&#45;&gt;utils.js -->
<g id="edge47" class="edge"><title>reducers/updateStats.js&#45;&gt;utils.js</title>
<path fill="none" stroke="#757575" d="M2900.28,-236.952C2914.16,-234.182 2928.61,-230.999 2942,-227.5 2971.48,-219.797 3004.17,-208.778 3028.43,-200.103"/>
<polygon fill="#757575" stroke="#757575" points="3029.74,-203.354 3037.95,-196.666 3027.36,-196.77 3029.74,-203.354"/>
</g>
<!-- store/initialState.js&#45;&gt;scenes/sceneSymbols.js -->
<g id="edge63" class="edge"><title>store/initialState.js&#45;&gt;scenes/sceneSymbols.js</title>
<path fill="none" stroke="#757575" d="M2867.45,-340.053C2891.26,-349.498 2921.98,-364.995 2942,-387.5 2982.57,-433.093 3039.73,-613.803 3058.65,-676.189"/>
<polygon fill="#757575" stroke="#757575" points="3055.3,-677.213 3061.53,-685.779 3062,-675.194 3055.3,-677.213"/>
</g>
<!-- reducers/tests/root.baktest.js -->
<g id="node35" class="node"><title>reducers/tests/root.baktest.js</title>
<path fill="none" stroke="#cfffac" d="M192.333,-268C192.333,-268 7.66667,-268 7.66667,-268 3.83333,-268 0,-264.167 0,-260.333 0,-260.333 0,-252.667 0,-252.667 0,-248.833 3.83333,-245 7.66667,-245 7.66667,-245 192.333,-245 192.333,-245 196.167,-245 200,-248.833 200,-252.667 200,-252.667 200,-260.333 200,-260.333 200,-264.167 196.167,-268 192.333,-268"/>
<text text-anchor="middle" x="100" y="-252.8" font-family="Arial" font-size="14.00" fill="#cfffac">reducers/tests/root.baktest.js</text>
</g>
<!-- reducers/tests/updateLowerButtons.test.js -->
<g id="node36" class="node"><title>reducers/tests/updateLowerButtons.test.js</title>
<path fill="none" stroke="#c6c5fe" d="M2677.33,-342C2677.33,-342 2409.67,-342 2409.67,-342 2405.83,-342 2402,-338.167 2402,-334.333 2402,-334.333 2402,-326.667 2402,-326.667 2402,-322.833 2405.83,-319 2409.67,-319 2409.67,-319 2677.33,-319 2677.33,-319 2681.17,-319 2685,-322.833 2685,-326.667 2685,-326.667 2685,-334.333 2685,-334.333 2685,-338.167 2681.17,-342 2677.33,-342"/>
<text text-anchor="middle" x="2543.5" y="-326.8" font-family="Arial" font-size="14.00" fill="#c6c5fe">reducers/tests/updateLowerButtons.test.js</text>
</g>
<!-- reducers/tests/updateLowerButtons.test.js&#45;&gt;actions/UI.js -->
<g id="edge38" class="edge"><title>reducers/tests/updateLowerButtons.test.js&#45;&gt;actions/UI.js</title>
<path fill="none" stroke="#757575" d="M2639.16,-342.07C2654.83,-345.657 2670.63,-350.353 2685,-356.5 2703.15,-364.263 2703.05,-374.285 2721,-382.5 2737.63,-390.114 2756.75,-395.637 2774.3,-399.579"/>
<polygon fill="#757575" stroke="#757575" points="2773.92,-403.075 2784.43,-401.721 2775.37,-396.227 2773.92,-403.075"/>
</g>
<!-- reducers/tests/updateLowerButtons.test.js&#45;&gt;reducers/updateLowerButtons.js -->
<g id="edge39" class="edge"><title>reducers/tests/updateLowerButtons.test.js&#45;&gt;reducers/updateLowerButtons.js</title>
<path fill="none" stroke="#757575" d="M2669.94,-318.877C2675.24,-316.201 2680.3,-313.095 2685,-309.5 2716.62,-285.326 2689.77,-252.182 2721,-227.5 2722.41,-226.388 2723.86,-225.33 2725.34,-224.324"/>
<polygon fill="#757575" stroke="#757575" points="2727.37,-227.192 2734.22,-219.112 2723.83,-221.155 2727.37,-227.192"/>
</g>
<!-- reducers/tests/updateMenuBar.test.js -->
<g id="node37" class="node"><title>reducers/tests/updateMenuBar.test.js</title>
<path fill="none" stroke="#c6c5fe" d="M2661.83,-301C2661.83,-301 2425.17,-301 2425.17,-301 2421.33,-301 2417.5,-297.167 2417.5,-293.333 2417.5,-293.333 2417.5,-285.667 2417.5,-285.667 2417.5,-281.833 2421.33,-278 2425.17,-278 2425.17,-278 2661.83,-278 2661.83,-278 2665.67,-278 2669.5,-281.833 2669.5,-285.667 2669.5,-285.667 2669.5,-293.333 2669.5,-293.333 2669.5,-297.167 2665.67,-301 2661.83,-301"/>
<text text-anchor="middle" x="2543.5" y="-285.8" font-family="Arial" font-size="14.00" fill="#c6c5fe">reducers/tests/updateMenuBar.test.js</text>
</g>
<!-- reducers/tests/updateMenuBar.test.js&#45;&gt;actions/UI.js -->
<g id="edge40" class="edge"><title>reducers/tests/updateMenuBar.test.js&#45;&gt;actions/UI.js</title>
<path fill="none" stroke="#757575" d="M2669.73,-300.457C2675.09,-303.036 2680.21,-306.031 2685,-309.5 2714.29,-330.725 2692.71,-359.954 2721,-382.5 2736.02,-394.47 2755.65,-401.081 2774.13,-404.684"/>
<polygon fill="#757575" stroke="#757575" points="2773.81,-408.178 2784.25,-406.391 2774.97,-401.275 2773.81,-408.178"/>
</g>
<!-- reducers/tests/updateMenuBar.test.js&#45;&gt;reducers/updateMenuBar.js -->
<g id="edge41" class="edge"><title>reducers/tests/updateMenuBar.test.js&#45;&gt;reducers/updateMenuBar.js</title>
<path fill="none" stroke="#757575" d="M2669.61,-278.044C2675.03,-275.33 2680.2,-272.17 2685,-268.5 2716.62,-244.326 2689.77,-211.182 2721,-186.5 2722.85,-185.04 2724.77,-183.673 2726.75,-182.394"/>
<polygon fill="#757575" stroke="#757575" points="2728.77,-185.272 2735.79,-177.335 2725.36,-179.162 2728.77,-185.272"/>
</g>
<!-- reducers/tests/updateStats.test.js -->
<g id="node38" class="node"><title>reducers/tests/updateStats.test.js</title>
<path fill="none" stroke="#c6c5fe" d="M2649.83,-260C2649.83,-260 2437.17,-260 2437.17,-260 2433.33,-260 2429.5,-256.167 2429.5,-252.333 2429.5,-252.333 2429.5,-244.667 2429.5,-244.667 2429.5,-240.833 2433.33,-237 2437.17,-237 2437.17,-237 2649.83,-237 2649.83,-237 2653.67,-237 2657.5,-240.833 2657.5,-244.667 2657.5,-244.667 2657.5,-252.333 2657.5,-252.333 2657.5,-256.167 2653.67,-260 2649.83,-260"/>
<text text-anchor="middle" x="2543.5" y="-244.8" font-family="Arial" font-size="14.00" fill="#c6c5fe">reducers/tests/updateStats.test.js</text>
</g>
<!-- reducers/tests/updateStats.test.js&#45;&gt;actions/Player.js -->
<g id="edge42" class="edge"><title>reducers/tests/updateStats.test.js&#45;&gt;actions/Player.js</title>
<path fill="none" stroke="#757575" d="M2657.56,-254.025C2667.39,-257.565 2676.73,-262.281 2685,-268.5 2716.16,-291.93 2690.23,-324.555 2721,-348.5 2799.71,-409.755 2845.32,-362.997 2942,-387.5 2970.19,-394.645 3001.26,-405.021 3025.11,-413.547"/>
<polygon fill="#757575" stroke="#757575" points="3023.94,-416.845 3034.54,-416.952 3026.32,-410.262 3023.94,-416.845"/>
</g>
<!-- reducers/tests/updateStats.test.js&#45;&gt;reducers/updateStats.js -->
<g id="edge43" class="edge"><title>reducers/tests/updateStats.test.js&#45;&gt;reducers/updateStats.js</title>
<path fill="none" stroke="#757575" d="M2657.53,-248.5C2684.14,-248.5 2712.19,-248.5 2737.78,-248.5"/>
<polygon fill="#757575" stroke="#757575" points="2737.83,-252 2747.83,-248.5 2737.83,-245 2737.83,-252"/>
</g>
<!-- scenes/charCreation.js&#45;&gt;actions/Player.js -->
<g id="edge48" class="edge"><title>scenes/charCreation.js&#45;&gt;actions/Player.js</title>
<path fill="none" stroke="#757575" d="M1637.03,-517.063C1692.03,-512.773 1766.93,-507.254 1833,-503.5 2211.38,-481.999 2307.02,-496.129 2685,-468.5 2794.06,-460.528 2920.24,-446.236 2996.26,-437.07"/>
<polygon fill="#757575" stroke="#757575" points="2996.68,-440.544 3006.19,-435.867 2995.84,-433.595 2996.68,-440.544"/>
</g>
<!-- scenes/charCreation.js&#45;&gt;actions/UI.js -->
<g id="edge49" class="edge"><title>scenes/charCreation.js&#45;&gt;actions/UI.js</title>
<path fill="none" stroke="#757575" d="M1578.6,-511.84C1633.54,-482.604 1786.3,-408.5 1923,-408.5 1923,-408.5 1923,-408.5 2317.5,-408.5 2483.39,-408.5 2679.47,-408.5 2773.97,-408.5"/>
<polygon fill="#757575" stroke="#757575" points="2774.17,-412 2784.17,-408.5 2774.17,-405 2774.17,-412"/>
</g>
<!-- scenes/charCreation.js&#45;&gt;store/store.js -->
<g id="edge53" class="edge"><title>scenes/charCreation.js&#45;&gt;store/store.js</title>
<path fill="none" stroke="#757575" d="M1564.07,-511.795C1579.38,-485.77 1620.14,-423.152 1673,-394.5 1893.6,-274.918 1983.22,-348.119 2231,-308.5 2239.34,-307.167 2248.13,-305.736 2256.77,-304.317"/>
<polygon fill="#757575" stroke="#757575" points="2257.51,-307.743 2266.81,-302.663 2256.37,-300.836 2257.51,-307.743"/>
</g>
<!-- scenes/charCreation.js&#45;&gt;scenes/sceneSymbols.js -->
<g id="edge51" class="edge"><title>scenes/charCreation.js&#45;&gt;scenes/sceneSymbols.js</title>
<path fill="none" stroke="#757575" d="M1637.01,-533.977C1649.06,-535.521 1661.36,-537.072 1673,-538.5 2138.38,-595.583 2255.09,-606.871 2721,-659.5 2804.23,-668.901 2898.81,-679.331 2967.71,-686.882"/>
<polygon fill="#757575" stroke="#757575" points="2967.36,-690.365 2977.68,-687.975 2968.12,-683.406 2967.36,-690.365"/>
</g>
<!-- scenes/charCreation.js&#45;&gt;scenes/menus.js -->
<g id="edge50" class="edge"><title>scenes/charCreation.js&#45;&gt;scenes/menus.js</title>
<path fill="none" stroke="#757575" d="M1617.85,-535.063C1624.51,-537.388 1631.03,-540.172 1637,-543.5 1656.49,-554.372 1654.42,-566.138 1673,-578.5 1678.73,-582.313 1685.11,-585.764 1691.53,-588.813"/>
<polygon fill="#757575" stroke="#757575" points="1690.32,-592.108 1700.88,-592.988 1693.18,-585.716 1690.32,-592.108"/>
</g>
<!-- scenes/sceneTextStore.js -->
<g id="node41" class="node"><title>scenes/sceneTextStore.js</title>
<path fill="none" stroke="#c6c5fe" d="M2007.33,-536C2007.33,-536 1840.67,-536 1840.67,-536 1836.83,-536 1833,-532.167 1833,-528.333 1833,-528.333 1833,-520.667 1833,-520.667 1833,-516.833 1836.83,-513 1840.67,-513 1840.67,-513 2007.33,-513 2007.33,-513 2011.17,-513 2015,-516.833 2015,-520.667 2015,-520.667 2015,-528.333 2015,-528.333 2015,-532.167 2011.17,-536 2007.33,-536"/>
<text text-anchor="middle" x="1924" y="-520.8" font-family="Arial" font-size="14.00" fill="#c6c5fe">scenes/sceneTextStore.js</text>
</g>
<!-- scenes/charCreation.js&#45;&gt;scenes/sceneTextStore.js -->
<g id="edge52" class="edge"><title>scenes/charCreation.js&#45;&gt;scenes/sceneTextStore.js</title>
<path fill="none" stroke="#757575" d="M1637.26,-523.718C1691.65,-523.867 1764.12,-524.065 1822.46,-524.225"/>
<polygon fill="#757575" stroke="#757575" points="1822.8,-527.726 1832.81,-524.253 1822.82,-520.726 1822.8,-527.726"/>
</g>
<!-- scenes/menus.js&#45;&gt;actions/UI.js -->
<g id="edge54" class="edge"><title>scenes/menus.js&#45;&gt;actions/UI.js</title>
<path fill="none" stroke="#757575" d="M1797.15,-601.499C1949.75,-592.781 2358.54,-561.842 2685,-468.5 2725.01,-457.061 2768.9,-438 2797.91,-424.432"/>
<polygon fill="#757575" stroke="#757575" points="2799.6,-427.502 2807.14,-420.06 2796.61,-421.175 2799.6,-427.502"/>
</g>
<!-- scenes/menus.js&#45;&gt;scenes/sceneSymbols.js -->
<g id="edge55" class="edge"><title>scenes/menus.js&#45;&gt;scenes/sceneSymbols.js</title>
<path fill="none" stroke="#757575" d="M1796.73,-616.004C1859.99,-627.548 1962.09,-644.946 2051,-654.5 2386.28,-690.525 2786.97,-696.719 2967.89,-697.55"/>
<polygon fill="#757575" stroke="#757575" points="2967.89,-701.05 2977.91,-697.591 2967.92,-694.05 2967.89,-701.05"/>
</g>
<!-- scenes/menus.js&#45;&gt;scenes/sceneTextStore.js -->
<g id="edge56" class="edge"><title>scenes/menus.js&#45;&gt;scenes/sceneTextStore.js</title>
<path fill="none" stroke="#757575" d="M1763.19,-592.867C1795.83,-578.904 1850.68,-555.44 1886.86,-539.962"/>
<polygon fill="#757575" stroke="#757575" points="1888.26,-543.168 1896.08,-536.017 1885.51,-536.732 1888.26,-543.168"/>
</g>
<!-- scenes/sceneTextStore.js&#45;&gt;scenes/sceneSymbols.js -->
<g id="edge62" class="edge"><title>scenes/sceneTextStore.js&#45;&gt;scenes/sceneSymbols.js</title>
<path fill="none" stroke="#757575" d="M1995.25,-536.019C2013.4,-538.893 2032.91,-541.896 2051,-544.5 2446.5,-601.453 2550.75,-583.372 2942,-664.5 2966.89,-669.662 2994.24,-676.844 3016.81,-683.191"/>
<polygon fill="#757575" stroke="#757575" points="3015.92,-686.576 3026.5,-685.944 3017.83,-679.843 3015.92,-686.576"/>
</g>
<!-- scenes/sceneTextStore.js&#45;&gt;components/nameInput.js -->
<g id="edge61" class="edge"><title>scenes/sceneTextStore.js&#45;&gt;components/nameInput.js</title>
<path fill="none" stroke="#757575" d="M2015.24,-524.5C2023.58,-524.5 2032.05,-524.5 2040.46,-524.5"/>
<polygon fill="#757575" stroke="#757575" points="2040.68,-528 2050.68,-524.5 2040.68,-521 2040.68,-528"/>
</g>
<!-- setupTests.js -->
<g id="node43" class="node"><title>setupTests.js</title>
<path fill="none" stroke="#cfffac" d="M143.333,-309C143.333,-309 56.6667,-309 56.6667,-309 52.8333,-309 49,-305.167 49,-301.333 49,-301.333 49,-293.667 49,-293.667 49,-289.833 52.8333,-286 56.6667,-286 56.6667,-286 143.333,-286 143.333,-286 147.167,-286 151,-289.833 151,-293.667 151,-293.667 151,-301.333 151,-301.333 151,-305.167 147.167,-309 143.333,-309"/>
<text text-anchor="middle" x="100" y="-293.8" font-family="Arial" font-size="14.00" fill="#cfffac">setupTests.js</text>
</g>
</g>
</svg>
