<?xml version="1.0" encoding="UTF-8" standalone="no"?>
<!DOCTYPE svg PUBLIC "-//W3C//DTD SVG 1.1//EN"
 "http://www.w3.org/Graphics/SVG/1.1/DTD/svg11.dtd">
<!-- Generated by graphviz version 2.38.0 (20140413.2041)
 -->
<!-- Title: G Pages: 1 -->
<svg width="3409pt" height="987pt"
 viewBox="0.00 0.00 3409.20 987.46" xmlns="http://www.w3.org/2000/svg" xmlns:xlink="http://www.w3.org/1999/xlink">
<g id="graph0" class="graph" transform="scale(1 1) rotate(0) translate(21.6 965.859)">
<title>G</title>
<polygon fill="#111111" stroke="none" points="-21.6,21.6 -21.6,-965.859 3387.6,-965.859 3387.6,21.6 -21.6,21.6"/>
<!-- actions/Core.js -->
<g id="node1" class="node"><title>actions/Core.js</title>
<path fill="none" stroke="#c6c5fe" d="M2417.83,-333.104C2417.83,-333.104 2322.17,-333.104 2322.17,-333.104 2318.33,-333.104 2314.5,-329.271 2314.5,-325.438 2314.5,-325.438 2314.5,-317.771 2314.5,-317.771 2314.5,-313.938 2318.33,-310.104 2322.17,-310.104 2322.17,-310.104 2417.83,-310.104 2417.83,-310.104 2421.67,-310.104 2425.5,-313.938 2425.5,-317.771 2425.5,-317.771 2425.5,-325.438 2425.5,-325.438 2425.5,-329.271 2421.67,-333.104 2417.83,-333.104"/>
<text text-anchor="middle" x="2370" y="-317.904" font-family="Arial" font-size="14.00" fill="#c6c5fe">actions/Core.js</text>
</g>
<!-- actions/coreMsg.js -->
<g id="node2" class="node"><title>actions/coreMsg.js</title>
<path fill="none" stroke="#cfffac" d="M3241.33,-245.104C3241.33,-245.104 3121.67,-245.104 3121.67,-245.104 3117.83,-245.104 3114,-241.271 3114,-237.438 3114,-237.438 3114,-229.771 3114,-229.771 3114,-225.938 3117.83,-222.104 3121.67,-222.104 3121.67,-222.104 3241.33,-222.104 3241.33,-222.104 3245.17,-222.104 3249,-225.938 3249,-229.771 3249,-229.771 3249,-237.438 3249,-237.438 3249,-241.271 3245.17,-245.104 3241.33,-245.104"/>
<text text-anchor="middle" x="3181.5" y="-229.904" font-family="Arial" font-size="14.00" fill="#cfffac">actions/coreMsg.js</text>
</g>
<!-- actions/Core.js&#45;&gt;actions/coreMsg.js -->
<g id="edge1" class="edge"><title>actions/Core.js&#45;&gt;actions/coreMsg.js</title>
<path fill="none" stroke="#757575" d="M2425.5,-324.132C2566.56,-329.911 2940.42,-340.159 3053,-292.604 3073.27,-284.041 3069.81,-269.382 3089,-258.604 3096.04,-254.648 3103.75,-251.29 3111.6,-248.447"/>
<polygon fill="#757575" stroke="#757575" points="3112.84,-251.721 3121.22,-245.227 3110.62,-245.083 3112.84,-251.721"/>
</g>
<!-- store/store.js -->
<g id="node3" class="node"><title>store/store.js</title>
<path fill="none" stroke="#c6c5fe" d="M2592.83,-284.104C2592.83,-284.104 2509.17,-284.104 2509.17,-284.104 2505.33,-284.104 2501.5,-280.271 2501.5,-276.438 2501.5,-276.438 2501.5,-268.771 2501.5,-268.771 2501.5,-264.938 2505.33,-261.104 2509.17,-261.104 2509.17,-261.104 2592.83,-261.104 2592.83,-261.104 2596.67,-261.104 2600.5,-264.938 2600.5,-268.771 2600.5,-268.771 2600.5,-276.438 2600.5,-276.438 2600.5,-280.271 2596.67,-284.104 2592.83,-284.104"/>
<text text-anchor="middle" x="2551" y="-268.904" font-family="Arial" font-size="14.00" fill="#c6c5fe">store/store.js</text>
</g>
<!-- actions/Core.js&#45;&gt;store/store.js -->
<g id="edge2" class="edge"><title>actions/Core.js&#45;&gt;store/store.js</title>
<path fill="none" stroke="#757575" d="M2413.42,-309.992C2438.72,-303.066 2471.04,-294.219 2497.89,-286.87"/>
<polygon fill="#757575" stroke="#757575" points="2499.16,-290.149 2507.88,-284.133 2497.31,-283.398 2499.16,-290.149"/>
</g>
<!-- reducers/root.js -->
<g id="node33" class="node"><title>reducers/root.js</title>
<path fill="none" stroke="#c6c5fe" d="M2793.33,-284.104C2793.33,-284.104 2692.67,-284.104 2692.67,-284.104 2688.83,-284.104 2685,-280.271 2685,-276.438 2685,-276.438 2685,-268.771 2685,-268.771 2685,-264.938 2688.83,-261.104 2692.67,-261.104 2692.67,-261.104 2793.33,-261.104 2793.33,-261.104 2797.17,-261.104 2801,-264.938 2801,-268.771 2801,-268.771 2801,-276.438 2801,-276.438 2801,-280.271 2797.17,-284.104 2793.33,-284.104"/>
<text text-anchor="middle" x="2743" y="-268.904" font-family="Arial" font-size="14.00" fill="#c6c5fe">reducers/root.js</text>
</g>
<!-- store/store.js&#45;&gt;reducers/root.js -->
<g id="edge88" class="edge"><title>store/store.js&#45;&gt;reducers/root.js</title>
<path fill="none" stroke="#757575" d="M2600.93,-272.604C2623.35,-272.604 2650.28,-272.604 2674.58,-272.604"/>
<polygon fill="#757575" stroke="#757575" points="2674.81,-276.104 2684.81,-272.604 2674.81,-269.104 2674.81,-276.104"/>
</g>
<!-- actions/Enemy.js -->
<g id="node4" class="node"><title>actions/Enemy.js</title>
<path fill="none" stroke="#c6c5fe" d="M2424.33,-568.104C2424.33,-568.104 2315.67,-568.104 2315.67,-568.104 2311.83,-568.104 2308,-564.271 2308,-560.438 2308,-560.438 2308,-552.771 2308,-552.771 2308,-548.938 2311.83,-545.104 2315.67,-545.104 2315.67,-545.104 2424.33,-545.104 2424.33,-545.104 2428.17,-545.104 2432,-548.938 2432,-552.771 2432,-552.771 2432,-560.438 2432,-560.438 2432,-564.271 2428.17,-568.104 2424.33,-568.104"/>
<text text-anchor="middle" x="2370" y="-552.904" font-family="Arial" font-size="14.00" fill="#c6c5fe">actions/Enemy.js</text>
</g>
<!-- actions/Enemy.js&#45;&gt;store/store.js -->
<g id="edge4" class="edge"><title>actions/Enemy.js&#45;&gt;store/store.js</title>
<path fill="none" stroke="#757575" d="M2432.21,-545.367C2437.58,-542.755 2442.63,-539.545 2447,-535.604 2520.31,-469.524 2542.01,-344.774 2547.94,-294.46"/>
<polygon fill="#757575" stroke="#757575" points="2551.44,-294.698 2549.03,-284.38 2544.48,-293.946 2551.44,-294.698"/>
</g>
<!-- actions/enemyMsg.js -->
<g id="node5" class="node"><title>actions/enemyMsg.js</title>
<path fill="none" stroke="#cfffac" d="M3026.83,-568.104C3026.83,-568.104 2893.17,-568.104 2893.17,-568.104 2889.33,-568.104 2885.5,-564.271 2885.5,-560.438 2885.5,-560.438 2885.5,-552.771 2885.5,-552.771 2885.5,-548.938 2889.33,-545.104 2893.17,-545.104 2893.17,-545.104 3026.83,-545.104 3026.83,-545.104 3030.67,-545.104 3034.5,-548.938 3034.5,-552.771 3034.5,-552.771 3034.5,-560.438 3034.5,-560.438 3034.5,-564.271 3030.67,-568.104 3026.83,-568.104"/>
<text text-anchor="middle" x="2960" y="-552.904" font-family="Arial" font-size="14.00" fill="#cfffac">actions/enemyMsg.js</text>
</g>
<!-- actions/Enemy.js&#45;&gt;actions/enemyMsg.js -->
<g id="edge3" class="edge"><title>actions/Enemy.js&#45;&gt;actions/enemyMsg.js</title>
<path fill="none" stroke="#757575" d="M2432.26,-556.604C2538.01,-556.604 2754.97,-556.604 2874.81,-556.604"/>
<polygon fill="#757575" stroke="#757575" points="2875.04,-560.104 2885.04,-556.604 2875.04,-553.104 2875.04,-560.104"/>
</g>
<!-- actions/Engine.js -->
<g id="node6" class="node"><title>actions/Engine.js</title>
<path fill="none" stroke="#c6c5fe" d="M987.833,-708.104C987.833,-708.104 879.167,-708.104 879.167,-708.104 875.333,-708.104 871.5,-704.271 871.5,-700.438 871.5,-700.438 871.5,-692.771 871.5,-692.771 871.5,-688.938 875.333,-685.104 879.167,-685.104 879.167,-685.104 987.833,-685.104 987.833,-685.104 991.667,-685.104 995.5,-688.938 995.5,-692.771 995.5,-692.771 995.5,-700.438 995.5,-700.438 995.5,-704.271 991.667,-708.104 987.833,-708.104"/>
<text text-anchor="middle" x="933.5" y="-692.904" font-family="Arial" font-size="14.00" fill="#c6c5fe">actions/Engine.js</text>
</g>
<!-- scenes/sceneFunctions.js -->
<g id="node7" class="node"><title>scenes/sceneFunctions.js</title>
<path fill="none" stroke="#c6c5fe" d="M1237.33,-708.104C1237.33,-708.104 1070.67,-708.104 1070.67,-708.104 1066.83,-708.104 1063,-704.271 1063,-700.438 1063,-700.438 1063,-692.771 1063,-692.771 1063,-688.938 1066.83,-685.104 1070.67,-685.104 1070.67,-685.104 1237.33,-685.104 1237.33,-685.104 1241.17,-685.104 1245,-688.938 1245,-692.771 1245,-692.771 1245,-700.438 1245,-700.438 1245,-704.271 1241.17,-708.104 1237.33,-708.104"/>
<text text-anchor="middle" x="1154" y="-692.904" font-family="Arial" font-size="14.00" fill="#c6c5fe">scenes/sceneFunctions.js</text>
</g>
<!-- actions/Engine.js&#45;&gt;scenes/sceneFunctions.js -->
<g id="edge5" class="edge"><title>actions/Engine.js&#45;&gt;scenes/sceneFunctions.js</title>
<path fill="none" stroke="#757575" d="M995.655,-696.604C1013.39,-696.604 1033.25,-696.604 1052.72,-696.604"/>
<polygon fill="#757575" stroke="#757575" points="1052.85,-700.104 1062.85,-696.604 1052.85,-693.104 1052.85,-700.104"/>
</g>
<!-- scenes/sceneFunctions.js&#45;&gt;actions/Core.js -->
<g id="edge70" class="edge"><title>scenes/sceneFunctions.js&#45;&gt;actions/Core.js</title>
<path fill="none" stroke="#757575" d="M1158.87,-684.877C1182.2,-616.721 1310.68,-274.604 1539,-274.604 1539,-274.604 1539,-274.604 1947,-274.604 2085.04,-274.604 2120.58,-272.554 2257,-293.604 2278,-296.845 2300.82,-302.204 2320.34,-307.37"/>
<polygon fill="#757575" stroke="#757575" points="2319.66,-310.811 2330.23,-310.043 2321.49,-304.054 2319.66,-310.811"/>
</g>
<!-- scenes/sceneFunctions.js&#45;&gt;store/store.js -->
<g id="edge76" class="edge"><title>scenes/sceneFunctions.js&#45;&gt;store/store.js</title>
<path fill="none" stroke="#757575" d="M1155.11,-684.864C1156.24,-631.892 1167.82,-412.568 1281,-293.604 1365.23,-205.077 1416.81,-198.604 1539,-198.604 1539,-198.604 1539,-198.604 2165.5,-198.604 2290.16,-198.604 2433.51,-236.574 2504.82,-258.117"/>
<polygon fill="#757575" stroke="#757575" points="2503.81,-261.467 2514.39,-261.042 2505.85,-254.773 2503.81,-261.467"/>
</g>
<!-- scenes/charCreation.js -->
<g id="node40" class="node"><title>scenes/charCreation.js</title>
<path fill="none" stroke="#c6c5fe" d="M1434.33,-683.104C1434.33,-683.104 1288.67,-683.104 1288.67,-683.104 1284.83,-683.104 1281,-679.271 1281,-675.438 1281,-675.438 1281,-667.771 1281,-667.771 1281,-663.938 1284.83,-660.104 1288.67,-660.104 1288.67,-660.104 1434.33,-660.104 1434.33,-660.104 1438.17,-660.104 1442,-663.938 1442,-667.771 1442,-667.771 1442,-675.438 1442,-675.438 1442,-679.271 1438.17,-683.104 1434.33,-683.104"/>
<text text-anchor="middle" x="1361.5" y="-667.904" font-family="Arial" font-size="14.00" fill="#c6c5fe">scenes/charCreation.js</text>
</g>
<!-- scenes/sceneFunctions.js&#45;&gt;scenes/charCreation.js -->
<g id="edge71" class="edge"><title>scenes/sceneFunctions.js&#45;&gt;scenes/charCreation.js</title>
<path fill="none" stroke="#757575" d="M1245.14,-685.639C1253.66,-684.602 1262.31,-683.55 1270.83,-682.513"/>
<polygon fill="#757575" stroke="#757575" points="1271.26,-685.987 1280.76,-681.305 1270.41,-679.038 1271.26,-685.987"/>
</g>
<!-- scenes/menus.js -->
<g id="node41" class="node"><title>scenes/menus.js</title>
<path fill="none" stroke="#c6c5fe" d="M1594.33,-752.104C1594.33,-752.104 1485.67,-752.104 1485.67,-752.104 1481.83,-752.104 1478,-748.271 1478,-744.438 1478,-744.438 1478,-736.771 1478,-736.771 1478,-732.938 1481.83,-729.104 1485.67,-729.104 1485.67,-729.104 1594.33,-729.104 1594.33,-729.104 1598.17,-729.104 1602,-732.938 1602,-736.771 1602,-736.771 1602,-744.438 1602,-744.438 1602,-748.271 1598.17,-752.104 1594.33,-752.104"/>
<text text-anchor="middle" x="1540" y="-736.904" font-family="Arial" font-size="14.00" fill="#c6c5fe">scenes/menus.js</text>
</g>
<!-- scenes/sceneFunctions.js&#45;&gt;scenes/menus.js -->
<g id="edge73" class="edge"><title>scenes/sceneFunctions.js&#45;&gt;scenes/menus.js</title>
<path fill="none" stroke="#757575" d="M1245.03,-706.92C1312.96,-714.704 1404.88,-725.237 1467.74,-732.44"/>
<polygon fill="#757575" stroke="#757575" points="1467.63,-735.949 1477.96,-733.61 1468.43,-728.995 1467.63,-735.949"/>
</g>
<!-- scenes/sceneSymbols.js -->
<g id="node42" class="node"><title>scenes/sceneSymbols.js</title>
<path fill="none" stroke="#cfffac" d="M3261.83,-771.104C3261.83,-771.104 3101.17,-771.104 3101.17,-771.104 3097.33,-771.104 3093.5,-767.271 3093.5,-763.438 3093.5,-763.438 3093.5,-755.771 3093.5,-755.771 3093.5,-751.938 3097.33,-748.104 3101.17,-748.104 3101.17,-748.104 3261.83,-748.104 3261.83,-748.104 3265.67,-748.104 3269.5,-751.938 3269.5,-755.771 3269.5,-755.771 3269.5,-763.438 3269.5,-763.438 3269.5,-767.271 3265.67,-771.104 3261.83,-771.104"/>
<text text-anchor="middle" x="3181.5" y="-755.904" font-family="Arial" font-size="14.00" fill="#cfffac">scenes/sceneSymbols.js</text>
</g>
<!-- scenes/sceneFunctions.js&#45;&gt;scenes/sceneSymbols.js -->
<g id="edge74" class="edge"><title>scenes/sceneFunctions.js&#45;&gt;scenes/sceneSymbols.js</title>
<path fill="none" stroke="#757575" d="M1234.06,-708.145C1238.03,-710.523 1241.72,-713.32 1245,-716.604 1297.43,-769.099 1226.83,-828.91 1281,-879.604 1345.66,-940.121 1389.91,-900.44 1478,-909.604 1548.84,-916.974 1566.8,-916.604 1638,-918.604 1718.86,-920.877 1739.38,-925.24 1820,-918.604 2066.5,-898.314 2121.67,-827.604 2369,-827.604 2369,-827.604 2369,-827.604 2744,-827.604 2882.11,-827.604 2920.89,-834.893 3053,-794.604 3070.3,-789.327 3071.88,-781.456 3089,-775.604 3090.63,-775.049 3092.28,-774.511 3093.94,-773.992"/>
<polygon fill="#757575" stroke="#757575" points="3095.01,-777.327 3103.66,-771.21 3093.09,-770.597 3095.01,-777.327"/>
</g>
<!-- scenes/combat/combat.js -->
<g id="node46" class="node"><title>scenes/combat/combat.js</title>
<path fill="none" stroke="#c6c5fe" d="M2027.83,-598.104C2027.83,-598.104 1864.17,-598.104 1864.17,-598.104 1860.33,-598.104 1856.5,-594.271 1856.5,-590.438 1856.5,-590.438 1856.5,-582.771 1856.5,-582.771 1856.5,-578.938 1860.33,-575.104 1864.17,-575.104 1864.17,-575.104 2027.83,-575.104 2027.83,-575.104 2031.67,-575.104 2035.5,-578.938 2035.5,-582.771 2035.5,-582.771 2035.5,-590.438 2035.5,-590.438 2035.5,-594.271 2031.67,-598.104 2027.83,-598.104"/>
<text text-anchor="middle" x="1946" y="-582.904" font-family="Arial" font-size="14.00" fill="#c6c5fe">scenes/combat/combat.js</text>
</g>
<!-- scenes/sceneFunctions.js&#45;&gt;scenes/combat/combat.js -->
<g id="edge72" class="edge"><title>scenes/sceneFunctions.js&#45;&gt;scenes/combat/combat.js</title>
<path fill="none" stroke="#757575" d="M1216.57,-708.173C1226.2,-710.586 1235.95,-713.391 1245,-716.604 1261.86,-722.589 1263.9,-729.362 1281,-734.604 1510.09,-804.828 1609.72,-837.492 1820,-722.604 1871.26,-694.596 1912.86,-637.589 1932.59,-607.032"/>
<polygon fill="#757575" stroke="#757575" points="1935.63,-608.785 1938,-598.46 1929.71,-605.05 1935.63,-608.785"/>
</g>
<!-- scenes/tests/testing.js -->
<g id="node47" class="node"><title>scenes/tests/testing.js</title>
<path fill="none" stroke="#cfffac" d="M1432.83,-870.104C1432.83,-870.104 1290.17,-870.104 1290.17,-870.104 1286.33,-870.104 1282.5,-866.271 1282.5,-862.438 1282.5,-862.438 1282.5,-854.771 1282.5,-854.771 1282.5,-850.938 1286.33,-847.104 1290.17,-847.104 1290.17,-847.104 1432.83,-847.104 1432.83,-847.104 1436.67,-847.104 1440.5,-850.938 1440.5,-854.771 1440.5,-854.771 1440.5,-862.438 1440.5,-862.438 1440.5,-866.271 1436.67,-870.104 1432.83,-870.104"/>
<text text-anchor="middle" x="1361.5" y="-854.904" font-family="Arial" font-size="14.00" fill="#cfffac">scenes/tests/testing.js</text>
</g>
<!-- scenes/sceneFunctions.js&#45;&gt;scenes/tests/testing.js -->
<g id="edge75" class="edge"><title>scenes/sceneFunctions.js&#45;&gt;scenes/tests/testing.js</title>
<path fill="none" stroke="#757575" d="M1233.32,-708.239C1237.53,-710.586 1241.47,-713.351 1245,-716.604 1284.71,-753.173 1243.12,-794.146 1281,-832.604 1284.66,-836.324 1288.87,-839.512 1293.38,-842.243"/>
<polygon fill="#757575" stroke="#757575" points="1291.92,-845.426 1302.4,-846.955 1295.16,-839.222 1291.92,-845.426"/>
</g>
<!-- actions/Perks.js -->
<g id="node8" class="node"><title>actions/Perks.js</title>
<path fill="none" stroke="#c6c5fe" d="M2420.33,-132.104C2420.33,-132.104 2319.67,-132.104 2319.67,-132.104 2315.83,-132.104 2312,-128.271 2312,-124.438 2312,-124.438 2312,-116.771 2312,-116.771 2312,-112.938 2315.83,-109.104 2319.67,-109.104 2319.67,-109.104 2420.33,-109.104 2420.33,-109.104 2424.17,-109.104 2428,-112.938 2428,-116.771 2428,-116.771 2428,-124.438 2428,-124.438 2428,-128.271 2424.17,-132.104 2420.33,-132.104"/>
<text text-anchor="middle" x="2370" y="-116.904" font-family="Arial" font-size="14.00" fill="#c6c5fe">actions/Perks.js</text>
</g>
<!-- actions/Perks.js&#45;&gt;store/store.js -->
<g id="edge7" class="edge"><title>actions/Perks.js&#45;&gt;store/store.js</title>
<path fill="none" stroke="#757575" d="M2417.98,-132.117C2428.06,-135.805 2438.3,-140.554 2447,-146.604 2488.09,-175.172 2521.62,-224.523 2538.39,-252.224"/>
<polygon fill="#757575" stroke="#757575" points="2535.51,-254.222 2543.61,-261.05 2541.53,-250.66 2535.51,-254.222"/>
</g>
<!-- actions/engineMsg.js -->
<g id="node9" class="node"><title>actions/engineMsg.js</title>
<path fill="none" stroke="#cfffac" d="M3248.33,-48.1044C3248.33,-48.1044 3114.67,-48.1044 3114.67,-48.1044 3110.83,-48.1044 3107,-44.271 3107,-40.4377 3107,-40.4377 3107,-32.771 3107,-32.771 3107,-28.9377 3110.83,-25.1044 3114.67,-25.1044 3114.67,-25.1044 3248.33,-25.1044 3248.33,-25.1044 3252.17,-25.1044 3256,-28.9377 3256,-32.771 3256,-32.771 3256,-40.4377 3256,-40.4377 3256,-44.271 3252.17,-48.1044 3248.33,-48.1044"/>
<text text-anchor="middle" x="3181.5" y="-32.9044" font-family="Arial" font-size="14.00" fill="#cfffac">actions/engineMsg.js</text>
</g>
<!-- actions/Perks.js&#45;&gt;actions/engineMsg.js -->
<g id="edge6" class="edge"><title>actions/Perks.js&#45;&gt;actions/engineMsg.js</title>
<path fill="none" stroke="#757575" d="M2416.27,-109.01C2426.45,-106.15 2437.15,-102.943 2447,-99.6044 2541.42,-67.6089 2557.13,-34.6201 2655,-15.6044 2814.88,15.4594 3007.08,-6.96101 3108.95,-23.4141"/>
<polygon fill="#757575" stroke="#757575" points="3108.68,-26.9175 3119.12,-25.0858 3109.82,-20.0102 3108.68,-26.9175"/>
</g>
<!-- actions/Player.js -->
<g id="node10" class="node"><title>actions/Player.js</title>
<path fill="none" stroke="#c6c5fe" d="M2216.33,-558.104C2216.33,-558.104 2112.67,-558.104 2112.67,-558.104 2108.83,-558.104 2105,-554.271 2105,-550.438 2105,-550.438 2105,-542.771 2105,-542.771 2105,-538.938 2108.83,-535.104 2112.67,-535.104 2112.67,-535.104 2216.33,-535.104 2216.33,-535.104 2220.17,-535.104 2224,-538.938 2224,-542.771 2224,-542.771 2224,-550.438 2224,-550.438 2224,-554.271 2220.17,-558.104 2216.33,-558.104"/>
<text text-anchor="middle" x="2164.5" y="-542.904" font-family="Arial" font-size="14.00" fill="#c6c5fe">actions/Player.js</text>
</g>
<!-- actions/Player.js&#45;&gt;actions/Core.js -->
<g id="edge8" class="edge"><title>actions/Player.js&#45;&gt;actions/Core.js</title>
<path fill="none" stroke="#757575" d="M2176.15,-534.824C2209.26,-498.221 2310.56,-386.213 2351.53,-340.916"/>
<polygon fill="#757575" stroke="#757575" points="2354.34,-343.032 2358.45,-333.268 2349.15,-338.337 2354.34,-343.032"/>
</g>
<!-- actions/Player.js&#45;&gt;store/store.js -->
<g id="edge10" class="edge"><title>actions/Player.js&#45;&gt;store/store.js</title>
<path fill="none" stroke="#757575" d="M2224.21,-536.924C2235.84,-533.148 2247.4,-527.899 2257,-520.604 2281.46,-502.017 2268.78,-480.5 2293,-461.604 2349.52,-417.505 2388.69,-455.319 2447,-413.604 2491.72,-381.612 2524.77,-324.177 2540.24,-293.41"/>
<polygon fill="#757575" stroke="#757575" points="2543.39,-294.944 2544.64,-284.423 2537.1,-291.866 2543.39,-294.944"/>
</g>
<!-- actions/playerMsg.js -->
<g id="node11" class="node"><title>actions/playerMsg.js</title>
<path fill="none" stroke="#cfffac" d="M3246.33,-325.104C3246.33,-325.104 3116.67,-325.104 3116.67,-325.104 3112.83,-325.104 3109,-321.271 3109,-317.438 3109,-317.438 3109,-309.771 3109,-309.771 3109,-305.938 3112.83,-302.104 3116.67,-302.104 3116.67,-302.104 3246.33,-302.104 3246.33,-302.104 3250.17,-302.104 3254,-305.938 3254,-309.771 3254,-309.771 3254,-317.438 3254,-317.438 3254,-321.271 3250.17,-325.104 3246.33,-325.104"/>
<text text-anchor="middle" x="3181.5" y="-309.904" font-family="Arial" font-size="14.00" fill="#cfffac">actions/playerMsg.js</text>
</g>
<!-- actions/Player.js&#45;&gt;actions/playerMsg.js -->
<g id="edge9" class="edge"><title>actions/Player.js&#45;&gt;actions/playerMsg.js</title>
<path fill="none" stroke="#757575" d="M2187.82,-534.98C2212.73,-522.614 2254.6,-503.617 2293,-494.604 2404.5,-468.435 2435.47,-475.604 2550,-475.604 2550,-475.604 2550,-475.604 2744,-475.604 2812.86,-475.604 2999.27,-495.668 3053,-452.604 3096.12,-418.046 3048.42,-371.112 3089,-333.604 3092.22,-330.624 3095.79,-328.05 3099.58,-325.83"/>
<polygon fill="#757575" stroke="#757575" points="3101.39,-328.84 3108.8,-321.266 3098.28,-322.567 3101.39,-328.84"/>
</g>
<!-- symbols/breastCup.js -->
<g id="node12" class="node"><title>symbols/breastCup.js</title>
<path fill="none" stroke="#c6c5fe" d="M2439.33,-609.104C2439.33,-609.104 2300.67,-609.104 2300.67,-609.104 2296.83,-609.104 2293,-605.271 2293,-601.438 2293,-601.438 2293,-593.771 2293,-593.771 2293,-589.938 2296.83,-586.104 2300.67,-586.104 2300.67,-586.104 2439.33,-586.104 2439.33,-586.104 2443.17,-586.104 2447,-589.938 2447,-593.771 2447,-593.771 2447,-601.438 2447,-601.438 2447,-605.271 2443.17,-609.104 2439.33,-609.104"/>
<text text-anchor="middle" x="2370" y="-593.904" font-family="Arial" font-size="14.00" fill="#c6c5fe">symbols/breastCup.js</text>
</g>
<!-- actions/Player.js&#45;&gt;symbols/breastCup.js -->
<g id="edge11" class="edge"><title>actions/Player.js&#45;&gt;symbols/breastCup.js</title>
<path fill="none" stroke="#757575" d="M2211.42,-558.113C2241.46,-565.642 2280.91,-575.528 2312.82,-583.524"/>
<polygon fill="#757575" stroke="#757575" points="2312.34,-587.013 2322.89,-586.049 2314.04,-580.223 2312.34,-587.013"/>
</g>
<!-- symbols/cockType.js -->
<g id="node13" class="node"><title>symbols/cockType.js</title>
<path fill="none" stroke="#cfffac" d="M2437.33,-527.104C2437.33,-527.104 2302.67,-527.104 2302.67,-527.104 2298.83,-527.104 2295,-523.271 2295,-519.438 2295,-519.438 2295,-511.771 2295,-511.771 2295,-507.938 2298.83,-504.104 2302.67,-504.104 2302.67,-504.104 2437.33,-504.104 2437.33,-504.104 2441.17,-504.104 2445,-507.938 2445,-511.771 2445,-511.771 2445,-519.438 2445,-519.438 2445,-523.271 2441.17,-527.104 2437.33,-527.104"/>
<text text-anchor="middle" x="2370" y="-511.904" font-family="Arial" font-size="14.00" fill="#cfffac">symbols/cockType.js</text>
</g>
<!-- actions/Player.js&#45;&gt;symbols/cockType.js -->
<g id="edge12" class="edge"><title>actions/Player.js&#45;&gt;symbols/cockType.js</title>
<path fill="none" stroke="#757575" d="M2224.09,-537.679C2243.06,-534.79 2264.49,-531.526 2284.93,-528.411"/>
<polygon fill="#757575" stroke="#757575" points="2285.51,-531.863 2294.87,-526.896 2284.46,-524.942 2285.51,-531.863"/>
</g>
<!-- symbols/vaginas.js -->
<g id="node14" class="node"><title>symbols/vaginas.js</title>
<path fill="none" stroke="#c6c5fe" d="M2611.33,-647.104C2611.33,-647.104 2490.67,-647.104 2490.67,-647.104 2486.83,-647.104 2483,-643.271 2483,-639.438 2483,-639.438 2483,-631.771 2483,-631.771 2483,-627.938 2486.83,-624.104 2490.67,-624.104 2490.67,-624.104 2611.33,-624.104 2611.33,-624.104 2615.17,-624.104 2619,-627.938 2619,-631.771 2619,-631.771 2619,-639.438 2619,-639.438 2619,-643.271 2615.17,-647.104 2611.33,-647.104"/>
<text text-anchor="middle" x="2551" y="-631.904" font-family="Arial" font-size="14.00" fill="#c6c5fe">symbols/vaginas.js</text>
</g>
<!-- actions/Player.js&#45;&gt;symbols/vaginas.js -->
<g id="edge13" class="edge"><title>actions/Player.js&#45;&gt;symbols/vaginas.js</title>
<path fill="none" stroke="#757575" d="M2180.98,-558.225C2204.01,-574.786 2249.29,-604.607 2293,-617.604 2351.58,-635.023 2420.84,-638.975 2472.7,-638.874"/>
<polygon fill="#757575" stroke="#757575" points="2472.85,-642.373 2482.83,-638.802 2472.8,-635.373 2472.85,-642.373"/>
</g>
<!-- utils.js -->
<g id="node39" class="node"><title>utils.js</title>
<path fill="none" stroke="#cfffac" d="M3358.33,-530.104C3358.33,-530.104 3317.67,-530.104 3317.67,-530.104 3313.83,-530.104 3310,-526.271 3310,-522.438 3310,-522.438 3310,-514.771 3310,-514.771 3310,-510.938 3313.83,-507.104 3317.67,-507.104 3317.67,-507.104 3358.33,-507.104 3358.33,-507.104 3362.17,-507.104 3366,-510.938 3366,-514.771 3366,-514.771 3366,-522.438 3366,-522.438 3366,-526.271 3362.17,-530.104 3358.33,-530.104"/>
<text text-anchor="middle" x="3338" y="-514.904" font-family="Arial" font-size="14.00" fill="#cfffac">utils.js</text>
</g>
<!-- symbols/breastCup.js&#45;&gt;utils.js -->
<g id="edge89" class="edge"><title>symbols/breastCup.js&#45;&gt;utils.js</title>
<path fill="none" stroke="#757575" d="M2447,-591.418C2602.1,-580.087 2949.17,-561.728 3053,-614.604 3076.45,-626.545 3065.41,-649.956 3089,-661.604 3162.73,-698.002 3205.13,-706.52 3274,-661.604 3315.65,-634.442 3329.95,-572.875 3334.72,-540.09"/>
<polygon fill="#757575" stroke="#757575" points="3338.19,-540.531 3336,-530.166 3331.25,-539.637 3338.19,-540.531"/>
</g>
<!-- symbols/vaginas.js&#45;&gt;utils.js -->
<g id="edge100" class="edge"><title>symbols/vaginas.js&#45;&gt;utils.js</title>
<path fill="none" stroke="#757575" d="M2619.31,-624.916C2718.68,-612.198 2908.47,-599.756 3053,-661.604 3073.23,-670.263 3068.55,-687.474 3089,-695.604 3165.41,-725.981 3206.82,-743.004 3274,-695.604 3324.7,-659.836 3334.84,-579.496 3336.7,-540.571"/>
<polygon fill="#757575" stroke="#757575" points="3340.21,-540.449 3337.04,-530.338 3333.21,-540.216 3340.21,-540.449"/>
</g>
<!-- appearance/appearance.js -->
<g id="node15" class="node"><title>appearance/appearance.js</title>
<path fill="none" stroke="#c6c5fe" d="M2249.33,-326.104C2249.33,-326.104 2079.67,-326.104 2079.67,-326.104 2075.83,-326.104 2072,-322.271 2072,-318.438 2072,-318.438 2072,-310.771 2072,-310.771 2072,-306.938 2075.83,-303.104 2079.67,-303.104 2079.67,-303.104 2249.33,-303.104 2249.33,-303.104 2253.17,-303.104 2257,-306.938 2257,-310.771 2257,-310.771 2257,-318.438 2257,-318.438 2257,-322.271 2253.17,-326.104 2249.33,-326.104"/>
<text text-anchor="middle" x="2164.5" y="-310.904" font-family="Arial" font-size="14.00" fill="#c6c5fe">appearance/appearance.js</text>
</g>
<!-- appearance/appearance.js&#45;&gt;store/store.js -->
<g id="edge14" class="edge"><title>appearance/appearance.js&#45;&gt;store/store.js</title>
<path fill="none" stroke="#757575" d="M2257.08,-304.539C2269.16,-303.214 2281.38,-301.875 2293,-300.604 2360.97,-293.17 2439.06,-284.668 2491.15,-279.002"/>
<polygon fill="#757575" stroke="#757575" points="2491.65,-282.469 2501.21,-277.908 2490.89,-275.51 2491.65,-282.469"/>
</g>
<!-- appearance/appearance.js&#45;&gt;symbols/breastCup.js -->
<g id="edge15" class="edge"><title>appearance/appearance.js&#45;&gt;symbols/breastCup.js</title>
<path fill="none" stroke="#757575" d="M2170.51,-326.291C2191.38,-374.808 2271.41,-558.652 2293,-576.604 2294.98,-578.251 2297.08,-579.769 2299.27,-581.168"/>
<polygon fill="#757575" stroke="#757575" points="2297.66,-584.276 2308.11,-585.999 2301.01,-578.133 2297.66,-584.276"/>
</g>
<!-- symbols/gender.js -->
<g id="node16" class="node"><title>symbols/gender.js</title>
<path fill="none" stroke="#c6c5fe" d="M2428.83,-91.1044C2428.83,-91.1044 2311.17,-91.1044 2311.17,-91.1044 2307.33,-91.1044 2303.5,-87.271 2303.5,-83.4377 2303.5,-83.4377 2303.5,-75.771 2303.5,-75.771 2303.5,-71.9377 2307.33,-68.1044 2311.17,-68.1044 2311.17,-68.1044 2428.83,-68.1044 2428.83,-68.1044 2432.67,-68.1044 2436.5,-71.9377 2436.5,-75.771 2436.5,-75.771 2436.5,-83.4377 2436.5,-83.4377 2436.5,-87.271 2432.67,-91.1044 2428.83,-91.1044"/>
<text text-anchor="middle" x="2370" y="-75.9044" font-family="Arial" font-size="14.00" fill="#c6c5fe">symbols/gender.js</text>
</g>
<!-- appearance/appearance.js&#45;&gt;symbols/gender.js -->
<g id="edge16" class="edge"><title>appearance/appearance.js&#45;&gt;symbols/gender.js</title>
<path fill="none" stroke="#757575" d="M2170.99,-302.849C2190.24,-262.107 2255.5,-127.9 2293,-99.6044 2294.63,-98.3717 2296.34,-97.2147 2298.1,-96.129"/>
<polygon fill="#757575" stroke="#757575" points="2300.08,-99.0372 2307.29,-91.2714 2296.81,-92.8478 2300.08,-99.0372"/>
</g>
<!-- symbols/gender.js&#45;&gt;utils.js -->
<g id="edge93" class="edge"><title>symbols/gender.js&#45;&gt;utils.js</title>
<path fill="none" stroke="#757575" d="M2436.68,-78.7527C2510.82,-77.8658 2635.08,-76.6044 2742,-76.6044 2742,-76.6044 2742,-76.6044 2961,-76.6044 3101.87,-76.6044 3174.34,-27.0379 3274,-126.604 3326.64,-179.198 3335.3,-421.928 3336.72,-496.651"/>
<polygon fill="#757575" stroke="#757575" points="3333.22,-496.84 3336.89,-506.782 3340.22,-496.725 3333.22,-496.84"/>
</g>
<!-- components/appRoot.js -->
<g id="node17" class="node"><title>components/appRoot.js</title>
<path fill="none" stroke="#c6c5fe" d="M334.333,-753.104C334.333,-753.104 181.667,-753.104 181.667,-753.104 177.833,-753.104 174,-749.271 174,-745.438 174,-745.438 174,-737.771 174,-737.771 174,-733.938 177.833,-730.104 181.667,-730.104 181.667,-730.104 334.333,-730.104 334.333,-730.104 338.167,-730.104 342,-733.938 342,-737.771 342,-737.771 342,-745.438 342,-745.438 342,-749.271 338.167,-753.104 334.333,-753.104"/>
<text text-anchor="middle" x="258" y="-737.904" font-family="Arial" font-size="14.00" fill="#c6c5fe">components/appRoot.js</text>
</g>
<!-- components/lowerButtons.js -->
<g id="node18" class="node"><title>components/lowerButtons.js</title>
<path fill="none" stroke="#c6c5fe" d="M565.333,-753.104C565.333,-753.104 385.667,-753.104 385.667,-753.104 381.833,-753.104 378,-749.271 378,-745.438 378,-745.438 378,-737.771 378,-737.771 378,-733.938 381.833,-730.104 385.667,-730.104 385.667,-730.104 565.333,-730.104 565.333,-730.104 569.167,-730.104 573,-733.938 573,-737.771 573,-737.771 573,-745.438 573,-745.438 573,-749.271 569.167,-753.104 565.333,-753.104"/>
<text text-anchor="middle" x="475.5" y="-737.904" font-family="Arial" font-size="14.00" fill="#c6c5fe">components/lowerButtons.js</text>
</g>
<!-- components/appRoot.js&#45;&gt;components/lowerButtons.js -->
<g id="edge17" class="edge"><title>components/appRoot.js&#45;&gt;components/lowerButtons.js</title>
<path fill="none" stroke="#757575" d="M342.01,-741.604C350.447,-741.604 359.097,-741.604 367.74,-741.604"/>
<polygon fill="#757575" stroke="#757575" points="367.868,-745.104 377.868,-741.604 367.868,-738.104 367.868,-745.104"/>
</g>
<!-- components/menuBar.js -->
<g id="node19" class="node"><title>components/menuBar.js</title>
<path fill="none" stroke="#c6c5fe" d="M552.833,-712.104C552.833,-712.104 398.167,-712.104 398.167,-712.104 394.333,-712.104 390.5,-708.271 390.5,-704.438 390.5,-704.438 390.5,-696.771 390.5,-696.771 390.5,-692.938 394.333,-689.104 398.167,-689.104 398.167,-689.104 552.833,-689.104 552.833,-689.104 556.667,-689.104 560.5,-692.938 560.5,-696.771 560.5,-696.771 560.5,-704.438 560.5,-704.438 560.5,-708.271 556.667,-712.104 552.833,-712.104"/>
<text text-anchor="middle" x="475.5" y="-696.904" font-family="Arial" font-size="14.00" fill="#c6c5fe">components/menuBar.js</text>
</g>
<!-- components/appRoot.js&#45;&gt;components/menuBar.js -->
<g id="edge18" class="edge"><title>components/appRoot.js&#45;&gt;components/menuBar.js</title>
<path fill="none" stroke="#757575" d="M319.602,-730.074C345.88,-725.075 376.817,-719.189 404.106,-713.997"/>
<polygon fill="#757575" stroke="#757575" points="404.81,-717.426 413.98,-712.119 403.502,-710.549 404.81,-717.426"/>
</g>
<!-- components/output.js -->
<g id="node20" class="node"><title>components/output.js</title>
<path fill="none" stroke="#cfffac" d="M543.833,-835.104C543.833,-835.104 407.167,-835.104 407.167,-835.104 403.333,-835.104 399.5,-831.271 399.5,-827.438 399.5,-827.438 399.5,-819.771 399.5,-819.771 399.5,-815.938 403.333,-812.104 407.167,-812.104 407.167,-812.104 543.833,-812.104 543.833,-812.104 547.667,-812.104 551.5,-815.938 551.5,-819.771 551.5,-819.771 551.5,-827.438 551.5,-827.438 551.5,-831.271 547.667,-835.104 543.833,-835.104"/>
<text text-anchor="middle" x="475.5" y="-819.904" font-family="Arial" font-size="14.00" fill="#cfffac">components/output.js</text>
</g>
<!-- components/appRoot.js&#45;&gt;components/output.js -->
<g id="edge19" class="edge"><title>components/appRoot.js&#45;&gt;components/output.js</title>
<path fill="none" stroke="#757575" d="M277.235,-753.148C299.986,-767.061 340.476,-790.232 378,-803.604 384.029,-805.753 390.356,-807.7 396.766,-809.46"/>
<polygon fill="#757575" stroke="#757575" points="396.317,-812.959 406.875,-812.072 398.069,-806.182 396.317,-812.959"/>
</g>
<!-- components/statBar.js -->
<g id="node21" class="node"><title>components/statBar.js</title>
<path fill="none" stroke="#c6c5fe" d="M546.833,-794.104C546.833,-794.104 404.167,-794.104 404.167,-794.104 400.333,-794.104 396.5,-790.271 396.5,-786.438 396.5,-786.438 396.5,-778.771 396.5,-778.771 396.5,-774.938 400.333,-771.104 404.167,-771.104 404.167,-771.104 546.833,-771.104 546.833,-771.104 550.667,-771.104 554.5,-774.938 554.5,-778.771 554.5,-778.771 554.5,-786.438 554.5,-786.438 554.5,-790.271 550.667,-794.104 546.833,-794.104"/>
<text text-anchor="middle" x="475.5" y="-778.904" font-family="Arial" font-size="14.00" fill="#c6c5fe">components/statBar.js</text>
</g>
<!-- components/appRoot.js&#45;&gt;components/statBar.js -->
<g id="edge20" class="edge"><title>components/appRoot.js&#45;&gt;components/statBar.js</title>
<path fill="none" stroke="#757575" d="M319.602,-753.134C345.88,-758.134 376.817,-764.02 404.106,-769.212"/>
<polygon fill="#757575" stroke="#757575" points="403.502,-772.659 413.98,-771.09 404.81,-765.783 403.502,-772.659"/>
</g>
<!-- components/buttonGrid.js -->
<g id="node23" class="node"><title>components/buttonGrid.js</title>
<path fill="none" stroke="#c6c5fe" d="M788.333,-723.104C788.333,-723.104 624.667,-723.104 624.667,-723.104 620.833,-723.104 617,-719.271 617,-715.438 617,-715.438 617,-707.771 617,-707.771 617,-703.938 620.833,-700.104 624.667,-700.104 624.667,-700.104 788.333,-700.104 788.333,-700.104 792.167,-700.104 796,-703.938 796,-707.771 796,-707.771 796,-715.438 796,-715.438 796,-719.271 792.167,-723.104 788.333,-723.104"/>
<text text-anchor="middle" x="706.5" y="-707.904" font-family="Arial" font-size="14.00" fill="#c6c5fe">components/buttonGrid.js</text>
</g>
<!-- components/lowerButtons.js&#45;&gt;components/buttonGrid.js -->
<g id="edge25" class="edge"><title>components/lowerButtons.js&#45;&gt;components/buttonGrid.js</title>
<path fill="none" stroke="#757575" d="M564.382,-730.091C578.389,-728.256 592.958,-726.348 607.187,-724.484"/>
<polygon fill="#757575" stroke="#757575" points="608.014,-727.905 617.474,-723.136 607.104,-720.965 608.014,-727.905"/>
</g>
<!-- components/menuBar.js&#45;&gt;components/buttonGrid.js -->
<g id="edge26" class="edge"><title>components/menuBar.js&#45;&gt;components/buttonGrid.js</title>
<path fill="none" stroke="#757575" d="M560.796,-704.653C575.755,-705.372 591.456,-706.126 606.773,-706.862"/>
<polygon fill="#757575" stroke="#757575" points="606.615,-710.358 616.771,-707.342 606.951,-703.366 606.615,-710.358"/>
</g>
<!-- components/spriteDisplay.js -->
<g id="node28" class="node"><title>components/spriteDisplay.js</title>
<path fill="none" stroke="#cfffac" d="M796.333,-815.104C796.333,-815.104 616.667,-815.104 616.667,-815.104 612.833,-815.104 609,-811.271 609,-807.438 609,-807.438 609,-799.771 609,-799.771 609,-795.938 612.833,-792.104 616.667,-792.104 616.667,-792.104 796.333,-792.104 796.333,-792.104 800.167,-792.104 804,-795.938 804,-799.771 804,-799.771 804,-807.438 804,-807.438 804,-811.271 800.167,-815.104 796.333,-815.104"/>
<text text-anchor="middle" x="706.5" y="-799.904" font-family="Arial" font-size="14.00" fill="#cfffac">components/spriteDisplay.js</text>
</g>
<!-- components/statBar.js&#45;&gt;components/spriteDisplay.js -->
<g id="edge29" class="edge"><title>components/statBar.js&#45;&gt;components/spriteDisplay.js</title>
<path fill="none" stroke="#757575" d="M554.668,-789.773C568.775,-791.066 583.703,-792.435 598.464,-793.789"/>
<polygon fill="#757575" stroke="#757575" points="598.367,-797.295 608.645,-794.722 599.007,-790.324 598.367,-797.295"/>
</g>
<!-- components/statDisplay.js -->
<g id="node30" class="node"><title>components/statDisplay.js</title>
<path fill="none" stroke="#c6c5fe" d="M789.833,-774.104C789.833,-774.104 623.167,-774.104 623.167,-774.104 619.333,-774.104 615.5,-770.271 615.5,-766.438 615.5,-766.438 615.5,-758.771 615.5,-758.771 615.5,-754.938 619.333,-751.104 623.167,-751.104 623.167,-751.104 789.833,-751.104 789.833,-751.104 793.667,-751.104 797.5,-754.938 797.5,-758.771 797.5,-758.771 797.5,-766.438 797.5,-766.438 797.5,-770.271 793.667,-774.104 789.833,-774.104"/>
<text text-anchor="middle" x="706.5" y="-758.904" font-family="Arial" font-size="14.00" fill="#c6c5fe">components/statDisplay.js</text>
</g>
<!-- components/statBar.js&#45;&gt;components/statDisplay.js -->
<g id="edge30" class="edge"><title>components/statBar.js&#45;&gt;components/statDisplay.js</title>
<path fill="none" stroke="#757575" d="M554.668,-775.777C570.871,-774.362 588.156,-772.853 605.028,-771.379"/>
<polygon fill="#757575" stroke="#757575" points="605.809,-774.824 615.467,-770.468 605.2,-767.851 605.809,-774.824"/>
</g>
<!-- components/timeDisplay.js -->
<g id="node31" class="node"><title>components/timeDisplay.js</title>
<path fill="none" stroke="#cfffac" d="M792.333,-856.104C792.333,-856.104 620.667,-856.104 620.667,-856.104 616.833,-856.104 613,-852.271 613,-848.438 613,-848.438 613,-840.771 613,-840.771 613,-836.938 616.833,-833.104 620.667,-833.104 620.667,-833.104 792.333,-833.104 792.333,-833.104 796.167,-833.104 800,-836.938 800,-840.771 800,-840.771 800,-848.438 800,-848.438 800,-852.271 796.167,-856.104 792.333,-856.104"/>
<text text-anchor="middle" x="706.5" y="-840.904" font-family="Arial" font-size="14.00" fill="#cfffac">components/timeDisplay.js</text>
</g>
<!-- components/statBar.js&#45;&gt;components/timeDisplay.js -->
<g id="edge31" class="edge"><title>components/statBar.js&#45;&gt;components/timeDisplay.js</title>
<path fill="none" stroke="#757575" d="M542.723,-794.123C553.019,-796.737 563.413,-799.873 573,-803.604 590.262,-810.323 591.705,-817.971 609,-824.604 614.526,-826.724 620.321,-828.636 626.211,-830.357"/>
<polygon fill="#757575" stroke="#757575" points="625.614,-833.822 636.183,-833.078 627.457,-827.069 625.614,-833.822"/>
</g>
<!-- components/button.js -->
<g id="node22" class="node"><title>components/button.js</title>
<path fill="none" stroke="#cfffac" d="M1222.33,-749.104C1222.33,-749.104 1085.67,-749.104 1085.67,-749.104 1081.83,-749.104 1078,-745.271 1078,-741.438 1078,-741.438 1078,-733.771 1078,-733.771 1078,-729.938 1081.83,-726.104 1085.67,-726.104 1085.67,-726.104 1222.33,-726.104 1222.33,-726.104 1226.17,-726.104 1230,-729.938 1230,-733.771 1230,-733.771 1230,-741.438 1230,-741.438 1230,-745.271 1226.17,-749.104 1222.33,-749.104"/>
<text text-anchor="middle" x="1154" y="-733.904" font-family="Arial" font-size="14.00" fill="#cfffac">components/button.js</text>
</g>
<!-- components/buttonGrid.js&#45;&gt;actions/Engine.js -->
<g id="edge21" class="edge"><title>components/buttonGrid.js&#45;&gt;actions/Engine.js</title>
<path fill="none" stroke="#757575" d="M796.103,-705.697C817.768,-704.253 840.672,-702.726 861.398,-701.344"/>
<polygon fill="#757575" stroke="#757575" points="861.638,-704.836 871.383,-700.679 861.172,-697.852 861.638,-704.836"/>
</g>
<!-- components/buttonWrap.js -->
<g id="node24" class="node"><title>components/buttonWrap.js</title>
<path fill="none" stroke="#c6c5fe" d="M1019.33,-749.104C1019.33,-749.104 847.667,-749.104 847.667,-749.104 843.833,-749.104 840,-745.271 840,-741.438 840,-741.438 840,-733.771 840,-733.771 840,-729.938 843.833,-726.104 847.667,-726.104 847.667,-726.104 1019.33,-726.104 1019.33,-726.104 1023.17,-726.104 1027,-729.938 1027,-733.771 1027,-733.771 1027,-741.438 1027,-741.438 1027,-745.271 1023.17,-749.104 1019.33,-749.104"/>
<text text-anchor="middle" x="933.5" y="-733.904" font-family="Arial" font-size="14.00" fill="#c6c5fe">components/buttonWrap.js</text>
</g>
<!-- components/buttonGrid.js&#45;&gt;components/buttonWrap.js -->
<g id="edge22" class="edge"><title>components/buttonGrid.js&#45;&gt;components/buttonWrap.js</title>
<path fill="none" stroke="#757575" d="M796.103,-721.843C807.119,-723.116 818.455,-724.426 829.663,-725.721"/>
<polygon fill="#757575" stroke="#757575" points="829.571,-729.234 839.906,-726.905 830.374,-722.28 829.571,-729.234"/>
</g>
<!-- components/buttonWrap.js&#45;&gt;components/button.js -->
<g id="edge23" class="edge"><title>components/buttonWrap.js&#45;&gt;components/button.js</title>
<path fill="none" stroke="#757575" d="M1027.16,-737.604C1040.6,-737.604 1054.39,-737.604 1067.67,-737.604"/>
<polygon fill="#757575" stroke="#757575" points="1067.72,-741.104 1077.72,-737.604 1067.72,-734.104 1067.72,-741.104"/>
</g>
<!-- components/dropdown.js -->
<g id="node25" class="node"><title>components/dropdown.js</title>
<path fill="none" stroke="#c6c5fe" d="M2823.33,-48.1044C2823.33,-48.1044 2662.67,-48.1044 2662.67,-48.1044 2658.83,-48.1044 2655,-44.271 2655,-40.4377 2655,-40.4377 2655,-32.771 2655,-32.771 2655,-28.9377 2658.83,-25.1044 2662.67,-25.1044 2662.67,-25.1044 2823.33,-25.1044 2823.33,-25.1044 2827.17,-25.1044 2831,-28.9377 2831,-32.771 2831,-32.771 2831,-40.4377 2831,-40.4377 2831,-44.271 2827.17,-48.1044 2823.33,-48.1044"/>
<text text-anchor="middle" x="2743" y="-32.9044" font-family="Arial" font-size="14.00" fill="#c6c5fe">components/dropdown.js</text>
</g>
<!-- symbols/perks.js -->
<g id="node26" class="node"><title>symbols/perks.js</title>
<path fill="none" stroke="#c6c5fe" d="M3013.83,-48.1044C3013.83,-48.1044 2906.17,-48.1044 2906.17,-48.1044 2902.33,-48.1044 2898.5,-44.271 2898.5,-40.4377 2898.5,-40.4377 2898.5,-32.771 2898.5,-32.771 2898.5,-28.9377 2902.33,-25.1044 2906.17,-25.1044 2906.17,-25.1044 3013.83,-25.1044 3013.83,-25.1044 3017.67,-25.1044 3021.5,-28.9377 3021.5,-32.771 3021.5,-32.771 3021.5,-40.4377 3021.5,-40.4377 3021.5,-44.271 3017.67,-48.1044 3013.83,-48.1044"/>
<text text-anchor="middle" x="2960" y="-32.9044" font-family="Arial" font-size="14.00" fill="#c6c5fe">symbols/perks.js</text>
</g>
<!-- components/dropdown.js&#45;&gt;symbols/perks.js -->
<g id="edge24" class="edge"><title>components/dropdown.js&#45;&gt;symbols/perks.js</title>
<path fill="none" stroke="#757575" d="M2831.14,-36.6044C2850.1,-36.6044 2869.95,-36.6044 2888.19,-36.6044"/>
<polygon fill="#757575" stroke="#757575" points="2888.43,-40.1045 2898.43,-36.6044 2888.43,-33.1045 2888.43,-40.1045"/>
</g>
<!-- symbols/perks.js&#45;&gt;actions/engineMsg.js -->
<g id="edge96" class="edge"><title>symbols/perks.js&#45;&gt;actions/engineMsg.js</title>
<path fill="none" stroke="#757575" d="M3021.56,-36.6044C3044.76,-36.6044 3071.65,-36.6044 3096.65,-36.6044"/>
<polygon fill="#757575" stroke="#757575" points="3096.86,-40.1045 3106.86,-36.6044 3096.86,-33.1045 3096.86,-40.1045"/>
</g>
<!-- components/nameInput.js -->
<g id="node27" class="node"><title>components/nameInput.js</title>
<path fill="none" stroke="#c6c5fe" d="M2028.33,-518.104C2028.33,-518.104 1863.67,-518.104 1863.67,-518.104 1859.83,-518.104 1856,-514.271 1856,-510.438 1856,-510.438 1856,-502.771 1856,-502.771 1856,-498.938 1859.83,-495.104 1863.67,-495.104 1863.67,-495.104 2028.33,-495.104 2028.33,-495.104 2032.17,-495.104 2036,-498.938 2036,-502.771 2036,-502.771 2036,-510.438 2036,-510.438 2036,-514.271 2032.17,-518.104 2028.33,-518.104"/>
<text text-anchor="middle" x="1946" y="-502.904" font-family="Arial" font-size="14.00" fill="#c6c5fe">components/nameInput.js</text>
</g>
<!-- components/nameInput.js&#45;&gt;store/store.js -->
<g id="edge28" class="edge"><title>components/nameInput.js&#45;&gt;store/store.js</title>
<path fill="none" stroke="#757575" d="M1993.06,-495.096C2054.64,-478.965 2166.51,-447.021 2257,-406.604 2273.91,-399.05 2275.96,-392.872 2293,-385.604 2358.48,-357.675 2382.42,-371.555 2447,-341.604 2476.9,-327.737 2507.88,-305.773 2527.95,-290.359"/>
<polygon fill="#757575" stroke="#757575" points="2530.12,-293.107 2535.85,-284.197 2525.82,-287.588 2530.12,-293.107"/>
</g>
<!-- components/nameInput.js&#45;&gt;actions/Player.js -->
<g id="edge27" class="edge"><title>components/nameInput.js&#45;&gt;actions/Player.js</title>
<path fill="none" stroke="#757575" d="M2009.33,-518.12C2036.14,-523.074 2067.57,-528.88 2095.03,-533.954"/>
<polygon fill="#757575" stroke="#757575" points="2094.48,-537.412 2104.95,-535.787 2095.75,-530.528 2094.48,-537.412"/>
</g>
<!-- components/stat.js -->
<g id="node29" class="node"><title>components/stat.js</title>
<path fill="none" stroke="#cfffac" d="M993.833,-790.104C993.833,-790.104 873.167,-790.104 873.167,-790.104 869.333,-790.104 865.5,-786.271 865.5,-782.438 865.5,-782.438 865.5,-774.771 865.5,-774.771 865.5,-770.938 869.333,-767.104 873.167,-767.104 873.167,-767.104 993.833,-767.104 993.833,-767.104 997.667,-767.104 1001.5,-770.938 1001.5,-774.771 1001.5,-774.771 1001.5,-782.438 1001.5,-782.438 1001.5,-786.271 997.667,-790.104 993.833,-790.104"/>
<text text-anchor="middle" x="933.5" y="-774.904" font-family="Arial" font-size="14.00" fill="#cfffac">components/stat.js</text>
</g>
<!-- components/statDisplay.js&#45;&gt;components/stat.js -->
<g id="edge32" class="edge"><title>components/statDisplay.js&#45;&gt;components/stat.js</title>
<path fill="none" stroke="#757575" d="M797.72,-769.02C816.804,-770.377 836.779,-771.798 855.327,-773.117"/>
<polygon fill="#757575" stroke="#757575" points="855.248,-776.62 865.471,-773.838 855.744,-769.637 855.248,-776.62"/>
</g>
<!-- index.js -->
<g id="node32" class="node"><title>index.js</title>
<path fill="none" stroke="#c6c5fe" d="M93.8333,-442.104C93.8333,-442.104 44.1667,-442.104 44.1667,-442.104 40.3333,-442.104 36.5,-438.271 36.5,-434.438 36.5,-434.438 36.5,-426.771 36.5,-426.771 36.5,-422.938 40.3333,-419.104 44.1667,-419.104 44.1667,-419.104 93.8333,-419.104 93.8333,-419.104 97.6667,-419.104 101.5,-422.938 101.5,-426.771 101.5,-426.771 101.5,-434.438 101.5,-434.438 101.5,-438.271 97.6667,-442.104 93.8333,-442.104"/>
<text text-anchor="middle" x="69" y="-426.904" font-family="Arial" font-size="14.00" fill="#c6c5fe">index.js</text>
</g>
<!-- index.js&#45;&gt;store/store.js -->
<g id="edge34" class="edge"><title>index.js&#45;&gt;store/store.js</title>
<path fill="none" stroke="#757575" d="M78.5154,-419.003C117.522,-367.323 285.37,-160.604 474.5,-160.604 474.5,-160.604 474.5,-160.604 2165.5,-160.604 2292.2,-160.604 2328.77,-160.07 2447,-205.604 2477.52,-217.358 2508.43,-239.064 2528.31,-254.586"/>
<polygon fill="#757575" stroke="#757575" points="2526.37,-257.52 2536.38,-261.018 2530.74,-252.047 2526.37,-257.52"/>
</g>
<!-- index.js&#45;&gt;components/appRoot.js -->
<g id="edge33" class="edge"><title>index.js&#45;&gt;components/appRoot.js</title>
<path fill="none" stroke="#757575" d="M101.666,-433.924C114.238,-436.656 128.044,-441.616 138,-450.604 220.647,-525.213 247.14,-665.69 254.494,-719.69"/>
<polygon fill="#757575" stroke="#757575" points="251.052,-720.367 255.786,-729.846 257.996,-719.484 251.052,-720.367"/>
</g>
<!-- reducers/root.js&#45;&gt;actions/coreMsg.js -->
<g id="edge35" class="edge"><title>reducers/root.js&#45;&gt;actions/coreMsg.js</title>
<path fill="none" stroke="#757575" d="M2801.07,-261.495C2821.76,-257.829 2845.37,-254.064 2867,-251.604 2947.43,-242.458 3040.03,-237.866 3103.62,-235.623"/>
<polygon fill="#757575" stroke="#757575" points="3104.09,-239.109 3113.96,-235.269 3103.85,-232.113 3104.09,-239.109"/>
</g>
<!-- reducers/root.js&#45;&gt;actions/enemyMsg.js -->
<g id="edge36" class="edge"><title>reducers/root.js&#45;&gt;actions/enemyMsg.js</title>
<path fill="none" stroke="#757575" d="M2745.77,-284.274C2752.68,-325.706 2781.87,-466.921 2867,-535.604 2869.91,-537.954 2873.04,-540.052 2876.32,-541.924"/>
<polygon fill="#757575" stroke="#757575" points="2874.79,-545.073 2885.3,-546.37 2877.89,-538.798 2874.79,-545.073"/>
</g>
<!-- reducers/root.js&#45;&gt;actions/engineMsg.js -->
<g id="edge37" class="edge"><title>reducers/root.js&#45;&gt;actions/engineMsg.js</title>
<path fill="none" stroke="#757575" d="M2751.06,-260.978C2767.79,-234.388 2812.58,-168.732 2867,-133.604 2937.46,-88.1228 3030.53,-62.8749 3096.93,-49.629"/>
<polygon fill="#757575" stroke="#757575" points="3097.78,-53.0276 3106.93,-47.6829 3096.45,-46.1563 3097.78,-53.0276"/>
</g>
<!-- reducers/root.js&#45;&gt;actions/playerMsg.js -->
<g id="edge38" class="edge"><title>reducers/root.js&#45;&gt;actions/playerMsg.js</title>
<path fill="none" stroke="#757575" d="M2753.3,-284.215C2771.99,-306.52 2816.69,-354.733 2867,-372.604 2944.9,-400.275 2977.27,-405.76 3053,-372.604 3074.61,-363.143 3068.53,-345.331 3089,-333.604 3092.3,-331.715 3095.76,-330.004 3099.32,-328.454"/>
<polygon fill="#757575" stroke="#757575" points="3100.89,-331.597 3108.95,-324.717 3098.36,-325.071 3100.89,-331.597"/>
</g>
<!-- reducers/root.js&#45;&gt;symbols/perks.js -->
<g id="edge44" class="edge"><title>reducers/root.js&#45;&gt;symbols/perks.js</title>
<path fill="none" stroke="#757575" d="M2750.57,-260.709C2767.24,-231.199 2813.7,-153.214 2867,-100.604 2885.77,-82.0789 2910.45,-65.2302 2929.52,-53.4756"/>
<polygon fill="#757575" stroke="#757575" points="2931.37,-56.4519 2938.12,-48.2876 2927.75,-50.4591 2931.37,-56.4519"/>
</g>
<!-- reducers/updateBodyArr.js -->
<g id="node34" class="node"><title>reducers/updateBodyArr.js</title>
<path fill="none" stroke="#c6c5fe" d="M3045.33,-444.104C3045.33,-444.104 2874.67,-444.104 2874.67,-444.104 2870.83,-444.104 2867,-440.271 2867,-436.438 2867,-436.438 2867,-428.771 2867,-428.771 2867,-424.938 2870.83,-421.104 2874.67,-421.104 2874.67,-421.104 3045.33,-421.104 3045.33,-421.104 3049.17,-421.104 3053,-424.938 3053,-428.771 3053,-428.771 3053,-436.438 3053,-436.438 3053,-440.271 3049.17,-444.104 3045.33,-444.104"/>
<text text-anchor="middle" x="2960" y="-428.904" font-family="Arial" font-size="14.00" fill="#c6c5fe">reducers/updateBodyArr.js</text>
</g>
<!-- reducers/root.js&#45;&gt;reducers/updateBodyArr.js -->
<g id="edge39" class="edge"><title>reducers/root.js&#45;&gt;reducers/updateBodyArr.js</title>
<path fill="none" stroke="#757575" d="M2751.36,-284.283C2768.4,-310.332 2813.22,-373.496 2867,-406.604 2874.11,-410.982 2881.98,-414.643 2890.04,-417.7"/>
<polygon fill="#757575" stroke="#757575" points="2888.95,-421.028 2899.54,-421.019 2891.26,-414.419 2888.95,-421.028"/>
</g>
<!-- reducers/updateButtons.js -->
<g id="node35" class="node"><title>reducers/updateButtons.js</title>
<path fill="none" stroke="#cfffac" d="M3043.33,-284.104C3043.33,-284.104 2876.67,-284.104 2876.67,-284.104 2872.83,-284.104 2869,-280.271 2869,-276.438 2869,-276.438 2869,-268.771 2869,-268.771 2869,-264.938 2872.83,-261.104 2876.67,-261.104 2876.67,-261.104 3043.33,-261.104 3043.33,-261.104 3047.17,-261.104 3051,-264.938 3051,-268.771 3051,-268.771 3051,-276.438 3051,-276.438 3051,-280.271 3047.17,-284.104 3043.33,-284.104"/>
<text text-anchor="middle" x="2960" y="-268.904" font-family="Arial" font-size="14.00" fill="#cfffac">reducers/updateButtons.js</text>
</g>
<!-- reducers/root.js&#45;&gt;reducers/updateButtons.js -->
<g id="edge40" class="edge"><title>reducers/root.js&#45;&gt;reducers/updateButtons.js</title>
<path fill="none" stroke="#757575" d="M2801.05,-272.604C2818.82,-272.604 2838.98,-272.604 2858.8,-272.604"/>
<polygon fill="#757575" stroke="#757575" points="2858.8,-276.104 2868.8,-272.604 2858.8,-269.104 2858.8,-276.104"/>
</g>
<!-- reducers/updateStats.js -->
<g id="node36" class="node"><title>reducers/updateStats.js</title>
<path fill="none" stroke="#c6c5fe" d="M3035.83,-364.104C3035.83,-364.104 2884.17,-364.104 2884.17,-364.104 2880.33,-364.104 2876.5,-360.271 2876.5,-356.438 2876.5,-356.438 2876.5,-348.771 2876.5,-348.771 2876.5,-344.938 2880.33,-341.104 2884.17,-341.104 2884.17,-341.104 3035.83,-341.104 3035.83,-341.104 3039.67,-341.104 3043.5,-344.938 3043.5,-348.771 3043.5,-348.771 3043.5,-356.438 3043.5,-356.438 3043.5,-360.271 3039.67,-364.104 3035.83,-364.104"/>
<text text-anchor="middle" x="2960" y="-348.904" font-family="Arial" font-size="14.00" fill="#c6c5fe">reducers/updateStats.js</text>
</g>
<!-- reducers/root.js&#45;&gt;reducers/updateStats.js -->
<g id="edge41" class="edge"><title>reducers/root.js&#45;&gt;reducers/updateStats.js</title>
<path fill="none" stroke="#757575" d="M2775.26,-284.237C2813.11,-298.319 2876.92,-322.065 2918.5,-337.535"/>
<polygon fill="#757575" stroke="#757575" points="2917.46,-340.88 2928.05,-341.087 2919.9,-334.32 2917.46,-340.88"/>
</g>
<!-- reducers/updateTime.js -->
<g id="node37" class="node"><title>reducers/updateTime.js</title>
<path fill="none" stroke="#c6c5fe" d="M3035.83,-166.104C3035.83,-166.104 2884.17,-166.104 2884.17,-166.104 2880.33,-166.104 2876.5,-162.271 2876.5,-158.438 2876.5,-158.438 2876.5,-150.771 2876.5,-150.771 2876.5,-146.938 2880.33,-143.104 2884.17,-143.104 2884.17,-143.104 3035.83,-143.104 3035.83,-143.104 3039.67,-143.104 3043.5,-146.938 3043.5,-150.771 3043.5,-150.771 3043.5,-158.438 3043.5,-158.438 3043.5,-162.271 3039.67,-166.104 3035.83,-166.104"/>
<text text-anchor="middle" x="2960" y="-150.904" font-family="Arial" font-size="14.00" fill="#c6c5fe">reducers/updateTime.js</text>
</g>
<!-- reducers/root.js&#45;&gt;reducers/updateTime.js -->
<g id="edge42" class="edge"><title>reducers/root.js&#45;&gt;reducers/updateTime.js</title>
<path fill="none" stroke="#757575" d="M2756.25,-260.97C2777.27,-241.599 2822.29,-202.69 2867,-180.604 2875.93,-176.194 2885.73,-172.423 2895.49,-169.233"/>
<polygon fill="#757575" stroke="#757575" points="2896.69,-172.526 2905.22,-166.235 2894.63,-165.836 2896.69,-172.526"/>
</g>
<!-- store/initialState.js -->
<g id="node38" class="node"><title>store/initialState.js</title>
<path fill="none" stroke="#c6c5fe" d="M3017.83,-527.104C3017.83,-527.104 2902.17,-527.104 2902.17,-527.104 2898.33,-527.104 2894.5,-523.271 2894.5,-519.438 2894.5,-519.438 2894.5,-511.771 2894.5,-511.771 2894.5,-507.938 2898.33,-504.104 2902.17,-504.104 2902.17,-504.104 3017.83,-504.104 3017.83,-504.104 3021.67,-504.104 3025.5,-507.938 3025.5,-511.771 3025.5,-511.771 3025.5,-519.438 3025.5,-519.438 3025.5,-523.271 3021.67,-527.104 3017.83,-527.104"/>
<text text-anchor="middle" x="2960" y="-511.904" font-family="Arial" font-size="14.00" fill="#c6c5fe">store/initialState.js</text>
</g>
<!-- reducers/root.js&#45;&gt;store/initialState.js -->
<g id="edge43" class="edge"><title>reducers/root.js&#45;&gt;store/initialState.js</title>
<path fill="none" stroke="#757575" d="M2749.94,-284.209C2765.83,-314.504 2811.89,-397.444 2867,-452.604 2885.34,-470.964 2909.7,-487.372 2928.75,-498.837"/>
<polygon fill="#757575" stroke="#757575" points="2927.23,-502.003 2937.62,-504.055 2930.78,-495.969 2927.23,-502.003"/>
</g>
<!-- reducers/root.js&#45;&gt;utils.js -->
<g id="edge45" class="edge"><title>reducers/root.js&#45;&gt;utils.js</title>
<path fill="none" stroke="#757575" d="M2775.15,-261.074C2799.75,-252.435 2835.12,-241.04 2867,-234.604 2955.79,-216.68 3203.79,-155.378 3274,-212.604 3318.32,-248.73 3332.37,-432.913 3335.95,-496.77"/>
<polygon fill="#757575" stroke="#757575" points="3332.46,-497.111 3336.48,-506.913 3339.45,-496.742 3332.46,-497.111"/>
</g>
<!-- reducers/updateBodyArr.js&#45;&gt;actions/playerMsg.js -->
<g id="edge46" class="edge"><title>reducers/updateBodyArr.js&#45;&gt;actions/playerMsg.js</title>
<path fill="none" stroke="#757575" d="M3027.69,-421.054C3036.83,-417.464 3045.6,-412.762 3053,-406.604 3080.81,-383.465 3060.51,-355.896 3089,-333.604 3092.22,-331.084 3095.69,-328.865 3099.34,-326.914"/>
<polygon fill="#757575" stroke="#757575" points="3101.08,-329.964 3108.69,-322.595 3098.15,-323.608 3101.08,-329.964"/>
</g>
<!-- reducers/updateStats.js&#45;&gt;actions/coreMsg.js -->
<g id="edge47" class="edge"><title>reducers/updateStats.js&#45;&gt;actions/coreMsg.js</title>
<path fill="none" stroke="#757575" d="M3027.03,-341.004C3036.36,-337.422 3045.36,-332.736 3053,-326.604 3079.36,-305.438 3062.66,-280.789 3089,-259.604 3093.98,-255.597 3099.55,-252.207 3105.41,-249.34"/>
<polygon fill="#757575" stroke="#757575" points="3107.05,-252.445 3114.83,-245.25 3104.26,-246.025 3107.05,-252.445"/>
</g>
<!-- reducers/updateStats.js&#45;&gt;actions/playerMsg.js -->
<g id="edge48" class="edge"><title>reducers/updateStats.js&#45;&gt;actions/playerMsg.js</title>
<path fill="none" stroke="#757575" d="M3025.97,-341.061C3050.97,-336.62 3079.71,-331.513 3105.57,-326.918"/>
<polygon fill="#757575" stroke="#757575" points="3106.47,-330.313 3115.7,-325.118 3105.24,-323.421 3106.47,-330.313"/>
</g>
<!-- reducers/updateStats.js&#45;&gt;utils.js -->
<g id="edge49" class="edge"><title>reducers/updateStats.js&#45;&gt;utils.js</title>
<path fill="none" stroke="#757575" d="M3018.18,-341.057C3030.12,-337.396 3042.32,-332.666 3053,-326.604 3072.14,-315.743 3068.55,-300.735 3089,-292.604 3165.41,-262.227 3208.52,-242.879 3274,-292.604 3306.94,-317.619 3327.27,-445.188 3334.26,-496.844"/>
<polygon fill="#757575" stroke="#757575" points="3330.81,-497.46 3335.58,-506.919 3337.75,-496.548 3330.81,-497.46"/>
</g>
<!-- reducers/updateTime.js&#45;&gt;utils.js -->
<g id="edge50" class="edge"><title>reducers/updateTime.js&#45;&gt;utils.js</title>
<path fill="none" stroke="#757575" d="M3005.59,-143.075C3072.84,-128.616 3200.19,-113.101 3274,-179.604 3321.39,-222.306 3333.54,-428.883 3336.28,-496.865"/>
<polygon fill="#757575" stroke="#757575" points="3332.78,-497.016 3336.65,-506.878 3339.78,-496.755 3332.78,-497.016"/>
</g>
<!-- store/initialState.js&#45;&gt;scenes/sceneSymbols.js -->
<g id="edge79" class="edge"><title>store/initialState.js&#45;&gt;scenes/sceneSymbols.js</title>
<path fill="none" stroke="#757575" d="M3025.75,-520.404C3035.8,-523.621 3045.37,-528.449 3053,-535.604 3095.48,-575.443 3060.33,-610.909 3089,-661.604 3107.01,-693.443 3137.38,-723.12 3158.16,-741.292"/>
<polygon fill="#757575" stroke="#757575" points="3156,-744.053 3165.87,-747.899 3160.55,-738.736 3156,-744.053"/>
</g>
<!-- symbols/enemies/goblin.js -->
<g id="node50" class="node"><title>symbols/enemies/goblin.js</title>
<path fill="none" stroke="#cfffac" d="M3266.33,-448.104C3266.33,-448.104 3096.67,-448.104 3096.67,-448.104 3092.83,-448.104 3089,-444.271 3089,-440.438 3089,-440.438 3089,-432.771 3089,-432.771 3089,-428.938 3092.83,-425.104 3096.67,-425.104 3096.67,-425.104 3266.33,-425.104 3266.33,-425.104 3270.17,-425.104 3274,-428.938 3274,-432.771 3274,-432.771 3274,-440.438 3274,-440.438 3274,-444.271 3270.17,-448.104 3266.33,-448.104"/>
<text text-anchor="middle" x="3181.5" y="-432.904" font-family="Arial" font-size="14.00" fill="#cfffac">symbols/enemies/goblin.js</text>
</g>
<!-- store/initialState.js&#45;&gt;symbols/enemies/goblin.js -->
<g id="edge80" class="edge"><title>store/initialState.js&#45;&gt;symbols/enemies/goblin.js</title>
<path fill="none" stroke="#757575" d="M3017.63,-504.084C3029.73,-500.409 3042.13,-495.667 3053,-489.604 3071.96,-479.033 3069.73,-466.6 3089,-456.604 3092.47,-454.803 3096.1,-453.163 3099.83,-451.67"/>
<polygon fill="#757575" stroke="#757575" points="3101.04,-454.954 3109.25,-448.256 3098.65,-448.373 3101.04,-454.954"/>
</g>
<!-- symbols/face.js -->
<g id="node51" class="node"><title>symbols/face.js</title>
<path fill="none" stroke="#c6c5fe" d="M3231.83,-612.104C3231.83,-612.104 3131.17,-612.104 3131.17,-612.104 3127.33,-612.104 3123.5,-608.271 3123.5,-604.438 3123.5,-604.438 3123.5,-596.771 3123.5,-596.771 3123.5,-592.938 3127.33,-589.104 3131.17,-589.104 3131.17,-589.104 3231.83,-589.104 3231.83,-589.104 3235.67,-589.104 3239.5,-592.938 3239.5,-596.771 3239.5,-596.771 3239.5,-604.438 3239.5,-604.438 3239.5,-608.271 3235.67,-612.104 3231.83,-612.104"/>
<text text-anchor="middle" x="3181.5" y="-596.904" font-family="Arial" font-size="14.00" fill="#c6c5fe">symbols/face.js</text>
</g>
<!-- store/initialState.js&#45;&gt;symbols/face.js -->
<g id="edge81" class="edge"><title>store/initialState.js&#45;&gt;symbols/face.js</title>
<path fill="none" stroke="#757575" d="M3025.5,-523.815C3035.14,-526.662 3044.64,-530.482 3053,-535.604 3074.55,-548.802 3067.53,-566.283 3089,-579.604 3096.45,-584.224 3104.8,-587.83 3113.35,-590.644"/>
<polygon fill="#757575" stroke="#757575" points="3112.47,-594.034 3123.06,-593.496 3114.45,-587.318 3112.47,-594.034"/>
</g>
<!-- symbols/gear.js -->
<g id="node52" class="node"><title>symbols/gear.js</title>
<path fill="none" stroke="#c6c5fe" d="M3231.83,-571.104C3231.83,-571.104 3131.17,-571.104 3131.17,-571.104 3127.33,-571.104 3123.5,-567.271 3123.5,-563.438 3123.5,-563.438 3123.5,-555.771 3123.5,-555.771 3123.5,-551.938 3127.33,-548.104 3131.17,-548.104 3131.17,-548.104 3231.83,-548.104 3231.83,-548.104 3235.67,-548.104 3239.5,-551.938 3239.5,-555.771 3239.5,-555.771 3239.5,-563.438 3239.5,-563.438 3239.5,-567.271 3235.67,-571.104 3231.83,-571.104"/>
<text text-anchor="middle" x="3181.5" y="-555.904" font-family="Arial" font-size="14.00" fill="#c6c5fe">symbols/gear.js</text>
</g>
<!-- store/initialState.js&#45;&gt;symbols/gear.js -->
<g id="edge82" class="edge"><title>store/initialState.js&#45;&gt;symbols/gear.js</title>
<path fill="none" stroke="#757575" d="M3018.38,-527.107C3047.49,-532.941 3083,-540.06 3113.37,-546.147"/>
<polygon fill="#757575" stroke="#757575" points="3112.96,-549.635 3123.45,-548.168 3114.33,-542.771 3112.96,-549.635"/>
</g>
<!-- symbols/lowerBody.js -->
<g id="node53" class="node"><title>symbols/lowerBody.js</title>
<path fill="none" stroke="#c6c5fe" d="M3251.33,-530.104C3251.33,-530.104 3111.67,-530.104 3111.67,-530.104 3107.83,-530.104 3104,-526.271 3104,-522.438 3104,-522.438 3104,-514.771 3104,-514.771 3104,-510.938 3107.83,-507.104 3111.67,-507.104 3111.67,-507.104 3251.33,-507.104 3251.33,-507.104 3255.17,-507.104 3259,-510.938 3259,-514.771 3259,-514.771 3259,-522.438 3259,-522.438 3259,-526.271 3255.17,-530.104 3251.33,-530.104"/>
<text text-anchor="middle" x="3181.5" y="-514.904" font-family="Arial" font-size="14.00" fill="#c6c5fe">symbols/lowerBody.js</text>
</g>
<!-- store/initialState.js&#45;&gt;symbols/lowerBody.js -->
<g id="edge83" class="edge"><title>store/initialState.js&#45;&gt;symbols/lowerBody.js</title>
<path fill="none" stroke="#757575" d="M3025.67,-516.488C3046.94,-516.779 3070.96,-517.107 3093.61,-517.417"/>
<polygon fill="#757575" stroke="#757575" points="3093.86,-520.92 3103.9,-517.557 3093.95,-513.921 3093.86,-520.92"/>
</g>
<!-- symbols/skin.js -->
<g id="node54" class="node"><title>symbols/skin.js</title>
<path fill="none" stroke="#c6c5fe" d="M3230.33,-489.104C3230.33,-489.104 3132.67,-489.104 3132.67,-489.104 3128.83,-489.104 3125,-485.271 3125,-481.438 3125,-481.438 3125,-473.771 3125,-473.771 3125,-469.938 3128.83,-466.104 3132.67,-466.104 3132.67,-466.104 3230.33,-466.104 3230.33,-466.104 3234.17,-466.104 3238,-469.938 3238,-473.771 3238,-473.771 3238,-481.438 3238,-481.438 3238,-485.271 3234.17,-489.104 3230.33,-489.104"/>
<text text-anchor="middle" x="3181.5" y="-473.904" font-family="Arial" font-size="14.00" fill="#c6c5fe">symbols/skin.js</text>
</g>
<!-- store/initialState.js&#45;&gt;symbols/skin.js -->
<g id="edge84" class="edge"><title>store/initialState.js&#45;&gt;symbols/skin.js</title>
<path fill="none" stroke="#757575" d="M3025.67,-504.409C3053.71,-499.554 3086.51,-493.876 3114.68,-488.999"/>
<polygon fill="#757575" stroke="#757575" points="3115.58,-492.396 3124.84,-487.241 3114.39,-485.498 3115.58,-492.396"/>
</g>
<!-- symbols/tail.js -->
<g id="node55" class="node"><title>symbols/tail.js</title>
<path fill="none" stroke="#c6c5fe" d="M3226.33,-407.104C3226.33,-407.104 3136.67,-407.104 3136.67,-407.104 3132.83,-407.104 3129,-403.271 3129,-399.438 3129,-399.438 3129,-391.771 3129,-391.771 3129,-387.938 3132.83,-384.104 3136.67,-384.104 3136.67,-384.104 3226.33,-384.104 3226.33,-384.104 3230.17,-384.104 3234,-387.938 3234,-391.771 3234,-391.771 3234,-399.438 3234,-399.438 3234,-403.271 3230.17,-407.104 3226.33,-407.104"/>
<text text-anchor="middle" x="3181.5" y="-391.904" font-family="Arial" font-size="14.00" fill="#c6c5fe">symbols/tail.js</text>
</g>
<!-- store/initialState.js&#45;&gt;symbols/tail.js -->
<g id="edge85" class="edge"><title>store/initialState.js&#45;&gt;symbols/tail.js</title>
<path fill="none" stroke="#757575" d="M3025.83,-504.818C3035.64,-501.138 3045.11,-496.208 3053,-489.604 3081.05,-466.134 3060.26,-438.219 3089,-415.604 3097.61,-408.83 3108.03,-404.237 3118.7,-401.145"/>
<polygon fill="#757575" stroke="#757575" points="3119.67,-404.511 3128.53,-398.708 3117.98,-397.717 3119.67,-404.511"/>
</g>
<!-- symbols/tongue.js -->
<g id="node56" class="node"><title>symbols/tongue.js</title>
<path fill="none" stroke="#c6c5fe" d="M3239.33,-366.104C3239.33,-366.104 3123.67,-366.104 3123.67,-366.104 3119.83,-366.104 3116,-362.271 3116,-358.438 3116,-358.438 3116,-350.771 3116,-350.771 3116,-346.938 3119.83,-343.104 3123.67,-343.104 3123.67,-343.104 3239.33,-343.104 3239.33,-343.104 3243.17,-343.104 3247,-346.938 3247,-350.771 3247,-350.771 3247,-358.438 3247,-358.438 3247,-362.271 3243.17,-366.104 3239.33,-366.104"/>
<text text-anchor="middle" x="3181.5" y="-350.904" font-family="Arial" font-size="14.00" fill="#c6c5fe">symbols/tongue.js</text>
</g>
<!-- store/initialState.js&#45;&gt;symbols/tongue.js -->
<g id="edge86" class="edge"><title>store/initialState.js&#45;&gt;symbols/tongue.js</title>
<path fill="none" stroke="#757575" d="M3025.77,-506.164C3035.83,-502.338 3045.38,-497.01 3053,-489.604 3091.4,-452.267 3049.5,-410.769 3089,-374.604 3094.08,-369.957 3099.98,-366.299 3106.29,-363.432"/>
<polygon fill="#757575" stroke="#757575" points="3107.71,-366.635 3115.78,-359.772 3105.19,-360.103 3107.71,-366.635"/>
</g>
<!-- symbols/wings.js -->
<g id="node57" class="node"><title>symbols/wings.js</title>
<path fill="none" stroke="#c6c5fe" d="M3235.83,-653.104C3235.83,-653.104 3127.17,-653.104 3127.17,-653.104 3123.33,-653.104 3119.5,-649.271 3119.5,-645.438 3119.5,-645.438 3119.5,-637.771 3119.5,-637.771 3119.5,-633.938 3123.33,-630.104 3127.17,-630.104 3127.17,-630.104 3235.83,-630.104 3235.83,-630.104 3239.67,-630.104 3243.5,-633.938 3243.5,-637.771 3243.5,-637.771 3243.5,-645.438 3243.5,-645.438 3243.5,-649.271 3239.67,-653.104 3235.83,-653.104"/>
<text text-anchor="middle" x="3181.5" y="-637.904" font-family="Arial" font-size="14.00" fill="#c6c5fe">symbols/wings.js</text>
</g>
<!-- store/initialState.js&#45;&gt;symbols/wings.js -->
<g id="edge87" class="edge"><title>store/initialState.js&#45;&gt;symbols/wings.js</title>
<path fill="none" stroke="#757575" d="M3025.51,-521.361C3035.47,-524.484 3045.07,-529.033 3053,-535.604 3084.59,-561.786 3057.57,-594.241 3089,-620.604 3095.06,-625.686 3102.11,-629.595 3109.55,-632.595"/>
<polygon fill="#757575" stroke="#757575" points="3108.56,-635.954 3119.15,-635.927 3110.85,-629.341 3108.56,-635.954"/>
</g>
<!-- scenes/charCreation.js&#45;&gt;actions/Core.js -->
<g id="edge51" class="edge"><title>scenes/charCreation.js&#45;&gt;actions/Core.js</title>
<path fill="none" stroke="#757575" d="M1379.71,-659.921C1422.29,-631.282 1536.53,-556.171 1638,-504.604 1818.2,-413.024 1873.17,-405.026 2072,-368.604 2151.73,-354 2244,-339.821 2304.27,-330.925"/>
<polygon fill="#757575" stroke="#757575" points="2305.01,-334.353 2314.4,-329.435 2304,-327.427 2305.01,-334.353"/>
</g>
<!-- scenes/charCreation.js&#45;&gt;store/store.js -->
<g id="edge57" class="edge"><title>scenes/charCreation.js&#45;&gt;store/store.js</title>
<path fill="none" stroke="#757575" d="M1364.73,-659.767C1375.33,-604.78 1422.48,-375.158 1478,-332.604 1558.6,-270.821 2278.85,-270.747 2491.28,-272.091"/>
<polygon fill="#757575" stroke="#757575" points="2491.28,-275.591 2501.3,-272.158 2491.33,-268.592 2491.28,-275.591"/>
</g>
<!-- scenes/charCreation.js&#45;&gt;actions/Player.js -->
<g id="edge52" class="edge"><title>scenes/charCreation.js&#45;&gt;actions/Player.js</title>
<path fill="none" stroke="#757575" d="M1405.68,-660.039C1491.01,-637.695 1687.58,-588.762 1856,-565.604 1937.57,-554.389 2032.22,-549.792 2094.73,-547.908"/>
<polygon fill="#757575" stroke="#757575" points="2094.97,-551.403 2104.86,-547.618 2094.77,-544.406 2094.97,-551.403"/>
</g>
<!-- scenes/charCreation.js&#45;&gt;symbols/breastCup.js -->
<g id="edge58" class="edge"><title>scenes/charCreation.js&#45;&gt;symbols/breastCup.js</title>
<path fill="none" stroke="#757575" d="M1442.34,-668.507C1516.38,-665.904 1629.62,-662.604 1728,-662.604 1728,-662.604 1728,-662.604 1947,-662.604 2080.11,-662.604 2234.12,-630.623 2314.21,-611.526"/>
<polygon fill="#757575" stroke="#757575" points="2315.17,-614.895 2324.07,-609.15 2313.53,-608.089 2315.17,-614.895"/>
</g>
<!-- scenes/charCreation.js&#45;&gt;appearance/appearance.js -->
<g id="edge53" class="edge"><title>scenes/charCreation.js&#45;&gt;appearance/appearance.js</title>
<path fill="none" stroke="#757575" d="M1362.93,-659.965C1365.3,-614.468 1380.58,-447.57 1478,-374.604 1577.61,-299.994 1912.04,-337.769 2036,-326.604 2044.36,-325.852 2053.02,-325.06 2061.72,-324.258"/>
<polygon fill="#757575" stroke="#757575" points="2062.29,-327.72 2071.93,-323.312 2061.65,-320.749 2062.29,-327.72"/>
</g>
<!-- scenes/charCreation.js&#45;&gt;symbols/gender.js -->
<g id="edge60" class="edge"><title>scenes/charCreation.js&#45;&gt;symbols/gender.js</title>
<path fill="none" stroke="#757575" d="M1362.28,-659.777C1361.99,-608.369 1367.98,-402.285 1478,-298.604 1709.89,-80.0643 2123.42,-69.3404 2293.13,-75.095"/>
<polygon fill="#757575" stroke="#757575" points="2293.1,-78.5961 2303.22,-75.4667 2293.35,-71.6009 2293.1,-78.5961"/>
</g>
<!-- scenes/charCreation.js&#45;&gt;scenes/menus.js -->
<g id="edge54" class="edge"><title>scenes/charCreation.js&#45;&gt;scenes/menus.js</title>
<path fill="none" stroke="#757575" d="M1392.04,-683.153C1421.57,-694.696 1467.14,-712.512 1499.71,-725.243"/>
<polygon fill="#757575" stroke="#757575" points="1498.77,-728.636 1509.36,-729.018 1501.32,-722.117 1498.77,-728.636"/>
</g>
<!-- scenes/charCreation.js&#45;&gt;scenes/sceneSymbols.js -->
<g id="edge55" class="edge"><title>scenes/charCreation.js&#45;&gt;scenes/sceneSymbols.js</title>
<path fill="none" stroke="#757575" d="M1378.84,-683.319C1395.06,-695.039 1420.52,-713.707 1442,-730.604 1458.37,-743.482 1458.57,-753.102 1478,-760.604 1762.47,-870.451 1858.56,-789.604 2163.5,-789.604 2163.5,-789.604 2163.5,-789.604 2744,-789.604 2860.84,-789.604 2994.87,-778.773 3083.24,-770.127"/>
<polygon fill="#757575" stroke="#757575" points="3083.64,-773.604 3093.25,-769.138 3082.95,-766.638 3083.64,-773.604"/>
</g>
<!-- scenes/sceneTextStore.js -->
<g id="node43" class="node"><title>scenes/sceneTextStore.js</title>
<path fill="none" stroke="#c6c5fe" d="M1812.33,-714.104C1812.33,-714.104 1645.67,-714.104 1645.67,-714.104 1641.83,-714.104 1638,-710.271 1638,-706.438 1638,-706.438 1638,-698.771 1638,-698.771 1638,-694.938 1641.83,-691.104 1645.67,-691.104 1645.67,-691.104 1812.33,-691.104 1812.33,-691.104 1816.17,-691.104 1820,-694.938 1820,-698.771 1820,-698.771 1820,-706.438 1820,-706.438 1820,-710.271 1816.17,-714.104 1812.33,-714.104"/>
<text text-anchor="middle" x="1729" y="-698.904" font-family="Arial" font-size="14.00" fill="#c6c5fe">scenes/sceneTextStore.js</text>
</g>
<!-- scenes/charCreation.js&#45;&gt;scenes/sceneTextStore.js -->
<g id="edge56" class="edge"><title>scenes/charCreation.js&#45;&gt;scenes/sceneTextStore.js</title>
<path fill="none" stroke="#757575" d="M1442.26,-678.369C1496.76,-682.992 1569.42,-689.154 1627.82,-694.108"/>
<polygon fill="#757575" stroke="#757575" points="1627.55,-697.597 1637.81,-694.955 1628.14,-690.622 1627.55,-697.597"/>
</g>
<!-- symbols/butt.js -->
<g id="node44" class="node"><title>symbols/butt.js</title>
<path fill="none" stroke="#c6c5fe" d="M1776.83,-909.104C1776.83,-909.104 1681.17,-909.104 1681.17,-909.104 1677.33,-909.104 1673.5,-905.271 1673.5,-901.438 1673.5,-901.438 1673.5,-893.771 1673.5,-893.771 1673.5,-889.938 1677.33,-886.104 1681.17,-886.104 1681.17,-886.104 1776.83,-886.104 1776.83,-886.104 1780.67,-886.104 1784.5,-889.938 1784.5,-893.771 1784.5,-893.771 1784.5,-901.438 1784.5,-901.438 1784.5,-905.271 1780.67,-909.104 1776.83,-909.104"/>
<text text-anchor="middle" x="1729" y="-893.904" font-family="Arial" font-size="14.00" fill="#c6c5fe">symbols/butt.js</text>
</g>
<!-- scenes/charCreation.js&#45;&gt;symbols/butt.js -->
<g id="edge59" class="edge"><title>scenes/charCreation.js&#45;&gt;symbols/butt.js</title>
<path fill="none" stroke="#757575" d="M1367.21,-683.214C1383.76,-723.419 1440.31,-855.556 1478,-879.604 1533.06,-914.73 1609.48,-914.857 1663.3,-908.95"/>
<polygon fill="#757575" stroke="#757575" points="1663.89,-912.403 1673.41,-907.74 1663.06,-905.453 1663.89,-912.403"/>
</g>
<!-- symbols/hips.js -->
<g id="node45" class="node"><title>symbols/hips.js</title>
<path fill="none" stroke="#c6c5fe" d="M1589.33,-870.104C1589.33,-870.104 1490.67,-870.104 1490.67,-870.104 1486.83,-870.104 1483,-866.271 1483,-862.438 1483,-862.438 1483,-854.771 1483,-854.771 1483,-850.938 1486.83,-847.104 1490.67,-847.104 1490.67,-847.104 1589.33,-847.104 1589.33,-847.104 1593.17,-847.104 1597,-850.938 1597,-854.771 1597,-854.771 1597,-862.438 1597,-862.438 1597,-866.271 1593.17,-870.104 1589.33,-870.104"/>
<text text-anchor="middle" x="1540" y="-854.904" font-family="Arial" font-size="14.00" fill="#c6c5fe">symbols/hips.js</text>
</g>
<!-- scenes/charCreation.js&#45;&gt;symbols/hips.js -->
<g id="edge61" class="edge"><title>scenes/charCreation.js&#45;&gt;symbols/hips.js</title>
<path fill="none" stroke="#757575" d="M1373.3,-683.163C1393.71,-704.989 1439.35,-753.748 1478,-794.604 1492.33,-809.748 1508.62,-826.836 1520.76,-839.544"/>
<polygon fill="#757575" stroke="#757575" points="1518.29,-842.024 1527.73,-846.834 1523.35,-837.187 1518.29,-842.024"/>
</g>
<!-- scenes/menus.js&#45;&gt;actions/Core.js -->
<g id="edge67" class="edge"><title>scenes/menus.js&#45;&gt;actions/Core.js</title>
<path fill="none" stroke="#757575" d="M1552.25,-729.09C1591.04,-689.957 1724.08,-560.362 1856,-485.604 1944.93,-435.207 1973.67,-434.52 2072,-406.604 2152.75,-383.681 2181.67,-405.624 2257,-368.604 2275.95,-359.292 2274.07,-346.963 2293,-337.604 2296.74,-335.755 2300.68,-334.12 2304.73,-332.673"/>
<polygon fill="#757575" stroke="#757575" points="2305.84,-335.993 2314.31,-329.627 2303.72,-329.322 2305.84,-335.993"/>
</g>
<!-- scenes/menus.js&#45;&gt;scenes/sceneSymbols.js -->
<g id="edge68" class="edge"><title>scenes/menus.js&#45;&gt;scenes/sceneSymbols.js</title>
<path fill="none" stroke="#757575" d="M1602.4,-742.408C1714.07,-745.529 1957.86,-751.604 2163.5,-751.604 2163.5,-751.604 2163.5,-751.604 2744,-751.604 2860.59,-751.604 2994.66,-754.493 3083.12,-756.798"/>
<polygon fill="#757575" stroke="#757575" points="3083.05,-760.298 3093.14,-757.062 3083.23,-753.3 3083.05,-760.298"/>
</g>
<!-- scenes/menus.js&#45;&gt;scenes/sceneTextStore.js -->
<g id="edge69" class="edge"><title>scenes/menus.js&#45;&gt;scenes/sceneTextStore.js</title>
<path fill="none" stroke="#757575" d="M1597.61,-729.1C1617.66,-725.026 1640.4,-720.405 1661.21,-716.176"/>
<polygon fill="#757575" stroke="#757575" points="1662.15,-719.557 1671.26,-714.135 1660.76,-712.697 1662.15,-719.557"/>
</g>
<!-- scenes/sceneTextStore.js&#45;&gt;components/nameInput.js -->
<g id="edge77" class="edge"><title>scenes/sceneTextStore.js&#45;&gt;components/nameInput.js</title>
<path fill="none" stroke="#757575" d="M1738.98,-691.089C1758.57,-666.375 1807.32,-607.131 1856,-565.604 1874.62,-549.723 1897.69,-534.534 1915.69,-523.545"/>
<polygon fill="#757575" stroke="#757575" points="1917.81,-526.351 1924.58,-518.2 1914.2,-520.352 1917.81,-526.351"/>
</g>
<!-- scenes/sceneTextStore.js&#45;&gt;scenes/sceneSymbols.js -->
<g id="edge78" class="edge"><title>scenes/sceneTextStore.js&#45;&gt;scenes/sceneSymbols.js</title>
<path fill="none" stroke="#757575" d="M1820.07,-706.221C1907.73,-709.427 2044.74,-713.604 2163.5,-713.604 2163.5,-713.604 2163.5,-713.604 2744,-713.604 2881.75,-713.604 2916.31,-720.541 3053,-737.604 3071.8,-739.951 3092.05,-743.14 3110.76,-746.36"/>
<polygon fill="#757575" stroke="#757575" points="3110.22,-749.82 3120.68,-748.095 3111.43,-742.924 3110.22,-749.82"/>
</g>
<!-- symbols/butt.js&#45;&gt;utils.js -->
<g id="edge90" class="edge"><title>symbols/butt.js&#45;&gt;utils.js</title>
<path fill="none" stroke="#757575" d="M1784.62,-905.064C1866.7,-915.608 2026.81,-933.604 2163.5,-933.604 2163.5,-933.604 2163.5,-933.604 2961,-933.604 3102.17,-933.604 3174.08,-979.327 3274,-879.604 3322.2,-831.497 3333.84,-611.393 3336.36,-540.602"/>
<polygon fill="#757575" stroke="#757575" points="3339.87,-540.332 3336.7,-530.223 3332.88,-540.103 3339.87,-540.332"/>
</g>
<!-- symbols/hips.js&#45;&gt;utils.js -->
<g id="edge94" class="edge"><title>symbols/hips.js&#45;&gt;utils.js</title>
<path fill="none" stroke="#757575" d="M1597.22,-859.407C1730.96,-861.246 2078.61,-865.604 2369,-865.604 2369,-865.604 2369,-865.604 2961,-865.604 3025.36,-865.604 3230.3,-824.94 3274,-779.604 3307.37,-744.99 3327.87,-596.685 3334.57,-540.392"/>
<polygon fill="#757575" stroke="#757575" points="3338.08,-540.471 3335.76,-530.135 3331.13,-539.665 3338.08,-540.471"/>
</g>
<!-- scenes/combat/combat.js&#45;&gt;actions/Core.js -->
<g id="edge62" class="edge"><title>scenes/combat/combat.js&#45;&gt;actions/Core.js</title>
<path fill="none" stroke="#757575" d="M1966.04,-575.047C1984.5,-563.546 2013.01,-545.003 2036,-526.604 2053.18,-512.852 2053.79,-504.958 2072,-492.604 2147.04,-441.707 2179.33,-453.391 2257,-406.604 2290.56,-386.389 2326.06,-358.112 2347.88,-339.827"/>
<polygon fill="#757575" stroke="#757575" points="2350.17,-342.477 2355.54,-333.346 2345.64,-337.134 2350.17,-342.477"/>
</g>
<!-- scenes/combat/combat.js&#45;&gt;store/store.js -->
<g id="edge66" class="edge"><title>scenes/combat/combat.js&#45;&gt;store/store.js</title>
<path fill="none" stroke="#757575" d="M1969.32,-575.017C1994.12,-562.303 2035.5,-541.58 2072,-525.604 2152.83,-490.227 2184.41,-503.755 2257,-453.604 2276.68,-440.009 2272.41,-425.774 2293,-413.604 2353.51,-377.84 2385.74,-412.061 2447,-377.604 2485.09,-356.182 2518.28,-316.477 2536.11,-292.508"/>
<polygon fill="#757575" stroke="#757575" points="2539.12,-294.311 2542.16,-284.162 2533.46,-290.2 2539.12,-294.311"/>
</g>
<!-- scenes/combat/combat.js&#45;&gt;actions/Enemy.js -->
<g id="edge63" class="edge"><title>scenes/combat/combat.js&#45;&gt;actions/Enemy.js</title>
<path fill="none" stroke="#757575" d="M2035.57,-581.471C2097.59,-577.734 2182.39,-572.341 2257,-566.604 2270.18,-565.591 2284.23,-564.413 2297.76,-563.23"/>
<polygon fill="#757575" stroke="#757575" points="2298.34,-566.693 2307.99,-562.326 2297.72,-559.72 2298.34,-566.693"/>
</g>
<!-- scenes/combat/combat.js&#45;&gt;actions/Player.js -->
<g id="edge64" class="edge"><title>scenes/combat/combat.js&#45;&gt;actions/Player.js</title>
<path fill="none" stroke="#757575" d="M2009.33,-575.088C2036.14,-570.135 2067.57,-564.328 2095.03,-559.255"/>
<polygon fill="#757575" stroke="#757575" points="2095.75,-562.68 2104.95,-557.422 2094.48,-555.797 2095.75,-562.68"/>
</g>
<!-- scenes/combat/combat.js&#45;&gt;scenes/sceneSymbols.js -->
<g id="edge65" class="edge"><title>scenes/combat/combat.js&#45;&gt;scenes/sceneSymbols.js</title>
<path fill="none" stroke="#757575" d="M1993.19,-598.148C2093.72,-622.23 2340.21,-675.604 2550,-675.604 2550,-675.604 2550,-675.604 2744,-675.604 2881.75,-675.604 2923.24,-653.375 3053,-699.604 3071.35,-706.142 3071.78,-715.503 3089,-724.604 3103.43,-732.231 3119.9,-739.059 3134.86,-744.615"/>
<polygon fill="#757575" stroke="#757575" points="3133.83,-747.966 3144.43,-748.077 3136.21,-741.384 3133.83,-747.966"/>
</g>
<!-- setupTests.js -->
<g id="node48" class="node"><title>setupTests.js</title>
<path fill="none" stroke="#cfffac" d="M112.333,-483.104C112.333,-483.104 25.6667,-483.104 25.6667,-483.104 21.8333,-483.104 18,-479.271 18,-475.438 18,-475.438 18,-467.771 18,-467.771 18,-463.938 21.8333,-460.104 25.6667,-460.104 25.6667,-460.104 112.333,-460.104 112.333,-460.104 116.167,-460.104 120,-463.938 120,-467.771 120,-467.771 120,-475.438 120,-475.438 120,-479.271 116.167,-483.104 112.333,-483.104"/>
<text text-anchor="middle" x="69" y="-467.904" font-family="Arial" font-size="14.00" fill="#cfffac">setupTests.js</text>
</g>
<!-- store/gameFlags.js -->
<g id="node49" class="node"><title>store/gameFlags.js</title>
<path fill="none" stroke="#cfffac" d="M130.333,-524.104C130.333,-524.104 7.66667,-524.104 7.66667,-524.104 3.83333,-524.104 0,-520.271 0,-516.438 0,-516.438 0,-508.771 0,-508.771 0,-504.938 3.83333,-501.104 7.66667,-501.104 7.66667,-501.104 130.333,-501.104 130.333,-501.104 134.167,-501.104 138,-504.938 138,-508.771 138,-508.771 138,-516.438 138,-516.438 138,-520.271 134.167,-524.104 130.333,-524.104"/>
<text text-anchor="middle" x="69" y="-508.904" font-family="Arial" font-size="14.00" fill="#cfffac">store/gameFlags.js</text>
</g>
<!-- symbols/face.js&#45;&gt;utils.js -->
<g id="edge91" class="edge"><title>symbols/face.js&#45;&gt;utils.js</title>
<path fill="none" stroke="#757575" d="M3239.89,-592.457C3251.61,-589.429 3263.54,-585.282 3274,-579.604 3292.84,-569.377 3310.01,-551.951 3321.65,-538.336"/>
<polygon fill="#757575" stroke="#757575" points="3324.49,-540.393 3328.15,-530.45 3319.09,-535.941 3324.49,-540.393"/>
</g>
<!-- symbols/gear.js&#45;&gt;utils.js -->
<g id="edge92" class="edge"><title>symbols/gear.js&#45;&gt;utils.js</title>
<path fill="none" stroke="#757575" d="M3236.39,-548.009C3248.79,-545.126 3261.89,-541.909 3274,-538.604 3282.51,-536.28 3291.6,-533.547 3300.14,-530.861"/>
<polygon fill="#757575" stroke="#757575" points="3301.4,-534.135 3309.86,-527.757 3299.26,-527.467 3301.4,-534.135"/>
</g>
<!-- symbols/lowerBody.js&#45;&gt;utils.js -->
<g id="edge95" class="edge"><title>symbols/lowerBody.js&#45;&gt;utils.js</title>
<path fill="none" stroke="#757575" d="M3259.3,-518.604C3273.36,-518.604 3287.43,-518.604 3299.67,-518.604"/>
<polygon fill="#757575" stroke="#757575" points="3299.9,-522.104 3309.9,-518.604 3299.9,-515.104 3299.9,-522.104"/>
</g>
<!-- symbols/skin.js&#45;&gt;utils.js -->
<g id="edge97" class="edge"><title>symbols/skin.js&#45;&gt;utils.js</title>
<path fill="none" stroke="#757575" d="M3238.38,-488.826C3250.2,-491.476 3262.56,-494.456 3274,-497.604 3282.55,-499.956 3291.65,-502.79 3300.19,-505.605"/>
<polygon fill="#757575" stroke="#757575" points="3299.31,-509.001 3309.91,-508.869 3301.54,-502.365 3299.31,-509.001"/>
</g>
<!-- symbols/tail.js&#45;&gt;utils.js -->
<g id="edge98" class="edge"><title>symbols/tail.js&#45;&gt;utils.js</title>
<path fill="none" stroke="#757575" d="M3234.41,-399.52C3248.21,-402.464 3262.47,-407.402 3274,-415.604 3302.56,-435.932 3320.69,-473.662 3329.83,-497.379"/>
<polygon fill="#757575" stroke="#757575" points="3326.59,-498.693 3333.3,-506.886 3333.16,-496.292 3326.59,-498.693"/>
</g>
<!-- symbols/tongue.js&#45;&gt;utils.js -->
<g id="edge99" class="edge"><title>symbols/tongue.js&#45;&gt;utils.js</title>
<path fill="none" stroke="#757575" d="M3247.07,-360.64C3256.82,-363.743 3266.2,-368.212 3274,-374.604 3312.13,-405.868 3327.82,-464.74 3333.75,-496.67"/>
<polygon fill="#757575" stroke="#757575" points="3330.34,-497.478 3335.46,-506.751 3337.24,-496.306 3330.34,-497.478"/>
</g>
<!-- symbols/wings.js&#45;&gt;utils.js -->
<g id="edge101" class="edge"><title>symbols/wings.js&#45;&gt;utils.js</title>
<path fill="none" stroke="#757575" d="M3243.96,-634.564C3254.62,-631.432 3265.12,-626.963 3274,-620.604 3302.3,-600.334 3320.51,-563.013 3329.74,-539.573"/>
<polygon fill="#757575" stroke="#757575" points="3333.03,-540.771 3333.25,-530.179 3326.47,-538.322 3333.03,-540.771"/>
</g>
</g>
</svg>
