<?xml version="1.0" encoding="UTF-8" standalone="no"?>
<!DOCTYPE svg PUBLIC "-//W3C//DTD SVG 1.1//EN"
 "http://www.w3.org/Graphics/SVG/1.1/DTD/svg11.dtd">
<!-- Generated by graphviz version 2.38.0 (20140413.2041)
 -->
<!-- Title: G Pages: 1 -->
<svg width="1687pt" height="453pt"
 viewBox="0.00 0.00 1687.20 453.20" xmlns="http://www.w3.org/2000/svg" xmlns:xlink="http://www.w3.org/1999/xlink">
<g id="graph0" class="graph" transform="scale(1 1) rotate(0) translate(21.6 431.6)">
<title>G</title>
<polygon fill="#111111" stroke="none" points="-21.6,21.6 -21.6,-431.6 1665.6,-431.6 1665.6,21.6 -21.6,21.6"/>
<!-- actions/CharCreation.js -->
<g id="node1" class="node"><title>actions/CharCreation.js</title>
<path fill="none" stroke="#cfffac" d="M780.833,-166C780.833,-166 633.167,-166 633.167,-166 629.333,-166 625.5,-162.167 625.5,-158.333 625.5,-158.333 625.5,-150.667 625.5,-150.667 625.5,-146.833 629.333,-143 633.167,-143 633.167,-143 780.833,-143 780.833,-143 784.667,-143 788.5,-146.833 788.5,-150.667 788.5,-150.667 788.5,-158.333 788.5,-158.333 788.5,-162.167 784.667,-166 780.833,-166"/>
<text text-anchor="middle" x="707" y="-150.8" font-family="Arial" font-size="14.00" fill="#cfffac">actions/CharCreation.js</text>
</g>
<!-- actions/Core.js -->
<g id="node2" class="node"><title>actions/Core.js</title>
<path fill="none" stroke="#cfffac" d="M998.333,-326C998.333,-326 902.667,-326 902.667,-326 898.833,-326 895,-322.167 895,-318.333 895,-318.333 895,-310.667 895,-310.667 895,-306.833 898.833,-303 902.667,-303 902.667,-303 998.333,-303 998.333,-303 1002.17,-303 1006,-306.833 1006,-310.667 1006,-310.667 1006,-318.333 1006,-318.333 1006,-322.167 1002.17,-326 998.333,-326"/>
<text text-anchor="middle" x="950.5" y="-310.8" font-family="Arial" font-size="14.00" fill="#cfffac">actions/Core.js</text>
</g>
<!-- actions/UI.js -->
<g id="node3" class="node"><title>actions/UI.js</title>
<path fill="none" stroke="#cfffac" d="M1595.33,-168C1595.33,-168 1516.67,-168 1516.67,-168 1512.83,-168 1509,-164.167 1509,-160.333 1509,-160.333 1509,-152.667 1509,-152.667 1509,-148.833 1512.83,-145 1516.67,-145 1516.67,-145 1595.33,-145 1595.33,-145 1599.17,-145 1603,-148.833 1603,-152.667 1603,-152.667 1603,-160.333 1603,-160.333 1603,-164.167 1599.17,-168 1595.33,-168"/>
<text text-anchor="middle" x="1556" y="-152.8" font-family="Arial" font-size="14.00" fill="#cfffac">actions/UI.js</text>
</g>
<!-- actions/UI.test.js -->
<g id="node4" class="node"><title>actions/UI.test.js</title>
<path fill="none" stroke="#c6c5fe" d="M1404.33,-128C1404.33,-128 1298.67,-128 1298.67,-128 1294.83,-128 1291,-124.167 1291,-120.333 1291,-120.333 1291,-112.667 1291,-112.667 1291,-108.833 1294.83,-105 1298.67,-105 1298.67,-105 1404.33,-105 1404.33,-105 1408.17,-105 1412,-108.833 1412,-112.667 1412,-112.667 1412,-120.333 1412,-120.333 1412,-124.167 1408.17,-128 1404.33,-128"/>
<text text-anchor="middle" x="1351.5" y="-112.8" font-family="Arial" font-size="14.00" fill="#c6c5fe">actions/UI.test.js</text>
</g>
<!-- actions/UI.test.js&#45;&gt;actions/UI.js -->
<g id="edge1" class="edge"><title>actions/UI.test.js&#45;&gt;actions/UI.js</title>
<path fill="none" stroke="#757575" d="M1410.8,-128.016C1438.58,-133.504 1471.67,-140.039 1499.13,-145.464"/>
<polygon fill="#757575" stroke="#757575" points="1498.49,-148.904 1508.97,-147.408 1499.84,-142.037 1498.49,-148.904"/>
</g>
<!-- components/appRoot.js -->
<g id="node5" class="node"><title>components/appRoot.js</title>
<path fill="none" stroke="#c6c5fe" d="M261.333,-287C261.333,-287 108.667,-287 108.667,-287 104.833,-287 101,-283.167 101,-279.333 101,-279.333 101,-271.667 101,-271.667 101,-267.833 104.833,-264 108.667,-264 108.667,-264 261.333,-264 261.333,-264 265.167,-264 269,-267.833 269,-271.667 269,-271.667 269,-279.333 269,-279.333 269,-283.167 265.167,-287 261.333,-287"/>
<text text-anchor="middle" x="185" y="-271.8" font-family="Arial" font-size="14.00" fill="#c6c5fe">components/appRoot.js</text>
</g>
<!-- components/lowerButtons.js -->
<g id="node6" class="node"><title>components/lowerButtons.js</title>
<path fill="none" stroke="#c6c5fe" d="M520.833,-328C520.833,-328 341.167,-328 341.167,-328 337.333,-328 333.5,-324.167 333.5,-320.333 333.5,-320.333 333.5,-312.667 333.5,-312.667 333.5,-308.833 337.333,-305 341.167,-305 341.167,-305 520.833,-305 520.833,-305 524.667,-305 528.5,-308.833 528.5,-312.667 528.5,-312.667 528.5,-320.333 528.5,-320.333 528.5,-324.167 524.667,-328 520.833,-328"/>
<text text-anchor="middle" x="431" y="-312.8" font-family="Arial" font-size="14.00" fill="#c6c5fe">components/lowerButtons.js</text>
</g>
<!-- components/appRoot.js&#45;&gt;components/lowerButtons.js -->
<g id="edge2" class="edge"><title>components/appRoot.js&#45;&gt;components/lowerButtons.js</title>
<path fill="none" stroke="#757575" d="M254.617,-287.03C284.761,-292.095 320.321,-298.07 351.514,-303.312"/>
<polygon fill="#757575" stroke="#757575" points="351.034,-306.78 361.476,-304.986 352.194,-299.877 351.034,-306.78"/>
</g>
<!-- components/menuBar.js -->
<g id="node7" class="node"><title>components/menuBar.js</title>
<path fill="none" stroke="#c6c5fe" d="M508.333,-287C508.333,-287 353.667,-287 353.667,-287 349.833,-287 346,-283.167 346,-279.333 346,-279.333 346,-271.667 346,-271.667 346,-267.833 349.833,-264 353.667,-264 353.667,-264 508.333,-264 508.333,-264 512.167,-264 516,-267.833 516,-271.667 516,-271.667 516,-279.333 516,-279.333 516,-283.167 512.167,-287 508.333,-287"/>
<text text-anchor="middle" x="431" y="-271.8" font-family="Arial" font-size="14.00" fill="#c6c5fe">components/menuBar.js</text>
</g>
<!-- components/appRoot.js&#45;&gt;components/menuBar.js -->
<g id="edge3" class="edge"><title>components/appRoot.js&#45;&gt;components/menuBar.js</title>
<path fill="none" stroke="#757575" d="M269.289,-275.5C290.622,-275.5 313.717,-275.5 335.568,-275.5"/>
<polygon fill="#757575" stroke="#757575" points="335.844,-279 345.844,-275.5 335.844,-272 335.844,-279"/>
</g>
<!-- components/output.js -->
<g id="node8" class="node"><title>components/output.js</title>
<path fill="none" stroke="#cfffac" d="M499.333,-246C499.333,-246 362.667,-246 362.667,-246 358.833,-246 355,-242.167 355,-238.333 355,-238.333 355,-230.667 355,-230.667 355,-226.833 358.833,-223 362.667,-223 362.667,-223 499.333,-223 499.333,-223 503.167,-223 507,-226.833 507,-230.667 507,-230.667 507,-238.333 507,-238.333 507,-242.167 503.167,-246 499.333,-246"/>
<text text-anchor="middle" x="431" y="-230.8" font-family="Arial" font-size="14.00" fill="#cfffac">components/output.js</text>
</g>
<!-- components/appRoot.js&#45;&gt;components/output.js -->
<g id="edge4" class="edge"><title>components/appRoot.js&#45;&gt;components/output.js</title>
<path fill="none" stroke="#757575" d="M250.197,-263.977C267.941,-260.845 287.208,-257.493 305,-254.5 318.429,-252.241 332.68,-249.904 346.568,-247.659"/>
<polygon fill="#757575" stroke="#757575" points="347.284,-251.089 356.6,-246.043 346.171,-244.178 347.284,-251.089"/>
</g>
<!-- components/statBar.js -->
<g id="node9" class="node"><title>components/statBar.js</title>
<path fill="none" stroke="#c6c5fe" d="M502.333,-369C502.333,-369 359.667,-369 359.667,-369 355.833,-369 352,-365.167 352,-361.333 352,-361.333 352,-353.667 352,-353.667 352,-349.833 355.833,-346 359.667,-346 359.667,-346 502.333,-346 502.333,-346 506.167,-346 510,-349.833 510,-353.667 510,-353.667 510,-361.333 510,-361.333 510,-365.167 506.167,-369 502.333,-369"/>
<text text-anchor="middle" x="431" y="-353.8" font-family="Arial" font-size="14.00" fill="#c6c5fe">components/statBar.js</text>
</g>
<!-- components/appRoot.js&#45;&gt;components/statBar.js -->
<g id="edge5" class="edge"><title>components/appRoot.js&#45;&gt;components/statBar.js</title>
<path fill="none" stroke="#757575" d="M204.182,-287.078C226.88,-300.988 267.317,-324.01 305,-336.5 316.702,-340.379 329.269,-343.566 341.761,-346.178"/>
<polygon fill="#757575" stroke="#757575" points="341.257,-349.646 351.746,-348.151 342.615,-342.778 341.257,-349.646"/>
</g>
<!-- components/buttonGrid.js -->
<g id="node11" class="node"><title>components/buttonGrid.js</title>
<path fill="none" stroke="#c6c5fe" d="M788.833,-287C788.833,-287 625.167,-287 625.167,-287 621.333,-287 617.5,-283.167 617.5,-279.333 617.5,-279.333 617.5,-271.667 617.5,-271.667 617.5,-267.833 621.333,-264 625.167,-264 625.167,-264 788.833,-264 788.833,-264 792.667,-264 796.5,-267.833 796.5,-271.667 796.5,-271.667 796.5,-279.333 796.5,-279.333 796.5,-283.167 792.667,-287 788.833,-287"/>
<text text-anchor="middle" x="707" y="-271.8" font-family="Arial" font-size="14.00" fill="#c6c5fe">components/buttonGrid.js</text>
</g>
<!-- components/lowerButtons.js&#45;&gt;components/buttonGrid.js -->
<g id="edge10" class="edge"><title>components/lowerButtons.js&#45;&gt;components/buttonGrid.js</title>
<path fill="none" stroke="#757575" d="M509.053,-304.97C543.197,-299.861 583.528,-293.826 618.773,-288.552"/>
<polygon fill="#757575" stroke="#757575" points="619.679,-291.956 629.051,-287.014 618.643,-285.033 619.679,-291.956"/>
</g>
<!-- components/menuBar.js&#45;&gt;components/buttonGrid.js -->
<g id="edge11" class="edge"><title>components/menuBar.js&#45;&gt;components/buttonGrid.js</title>
<path fill="none" stroke="#757575" d="M516.071,-275.5C544.903,-275.5 577.432,-275.5 607.315,-275.5"/>
<polygon fill="#757575" stroke="#757575" points="607.339,-279 617.339,-275.5 607.339,-272 607.339,-279"/>
</g>
<!-- components/spriteDisplay.js -->
<g id="node13" class="node"><title>components/spriteDisplay.js</title>
<path fill="none" stroke="#cfffac" d="M796.833,-369C796.833,-369 617.167,-369 617.167,-369 613.333,-369 609.5,-365.167 609.5,-361.333 609.5,-361.333 609.5,-353.667 609.5,-353.667 609.5,-349.833 613.333,-346 617.167,-346 617.167,-346 796.833,-346 796.833,-346 800.667,-346 804.5,-349.833 804.5,-353.667 804.5,-353.667 804.5,-361.333 804.5,-361.333 804.5,-365.167 800.667,-369 796.833,-369"/>
<text text-anchor="middle" x="707" y="-353.8" font-family="Arial" font-size="14.00" fill="#cfffac">components/spriteDisplay.js</text>
</g>
<!-- components/statBar.js&#45;&gt;components/spriteDisplay.js -->
<g id="edge12" class="edge"><title>components/statBar.js&#45;&gt;components/spriteDisplay.js</title>
<path fill="none" stroke="#757575" d="M510.151,-357.5C537.742,-357.5 569.266,-357.5 598.839,-357.5"/>
<polygon fill="#757575" stroke="#757575" points="599.209,-361 609.209,-357.5 599.209,-354 599.209,-361"/>
</g>
<!-- components/statDisplay.js -->
<g id="node14" class="node"><title>components/statDisplay.js</title>
<path fill="none" stroke="#cfffac" d="M790.333,-328C790.333,-328 623.667,-328 623.667,-328 619.833,-328 616,-324.167 616,-320.333 616,-320.333 616,-312.667 616,-312.667 616,-308.833 619.833,-305 623.667,-305 623.667,-305 790.333,-305 790.333,-305 794.167,-305 798,-308.833 798,-312.667 798,-312.667 798,-320.333 798,-320.333 798,-324.167 794.167,-328 790.333,-328"/>
<text text-anchor="middle" x="707" y="-312.8" font-family="Arial" font-size="14.00" fill="#cfffac">components/statDisplay.js</text>
</g>
<!-- components/statBar.js&#45;&gt;components/statDisplay.js -->
<g id="edge13" class="edge"><title>components/statBar.js&#45;&gt;components/statDisplay.js</title>
<path fill="none" stroke="#757575" d="M509.053,-345.97C543.197,-340.861 583.528,-334.826 618.773,-329.552"/>
<polygon fill="#757575" stroke="#757575" points="619.679,-332.956 629.051,-328.014 618.643,-326.033 619.679,-332.956"/>
</g>
<!-- components/timeDisplay.js -->
<g id="node15" class="node"><title>components/timeDisplay.js</title>
<path fill="none" stroke="#cfffac" d="M792.833,-410C792.833,-410 621.167,-410 621.167,-410 617.333,-410 613.5,-406.167 613.5,-402.333 613.5,-402.333 613.5,-394.667 613.5,-394.667 613.5,-390.833 617.333,-387 621.167,-387 621.167,-387 792.833,-387 792.833,-387 796.667,-387 800.5,-390.833 800.5,-394.667 800.5,-394.667 800.5,-402.333 800.5,-402.333 800.5,-406.167 796.667,-410 792.833,-410"/>
<text text-anchor="middle" x="707" y="-394.8" font-family="Arial" font-size="14.00" fill="#cfffac">components/timeDisplay.js</text>
</g>
<!-- components/statBar.js&#45;&gt;components/timeDisplay.js -->
<g id="edge14" class="edge"><title>components/statBar.js&#45;&gt;components/timeDisplay.js</title>
<path fill="none" stroke="#757575" d="M509.053,-369.03C543.197,-374.139 583.528,-380.174 618.773,-385.448"/>
<polygon fill="#757575" stroke="#757575" points="618.643,-388.967 629.051,-386.986 619.679,-382.044 618.643,-388.967"/>
</g>
<!-- components/button.js -->
<g id="node10" class="node"><title>components/button.js</title>
<path fill="none" stroke="#cfffac" d="M1225.83,-246C1225.83,-246 1089.17,-246 1089.17,-246 1085.33,-246 1081.5,-242.167 1081.5,-238.333 1081.5,-238.333 1081.5,-230.667 1081.5,-230.667 1081.5,-226.833 1085.33,-223 1089.17,-223 1089.17,-223 1225.83,-223 1225.83,-223 1229.67,-223 1233.5,-226.833 1233.5,-230.667 1233.5,-230.667 1233.5,-238.333 1233.5,-238.333 1233.5,-242.167 1229.67,-246 1225.83,-246"/>
<text text-anchor="middle" x="1157.5" y="-230.8" font-family="Arial" font-size="14.00" fill="#cfffac">components/button.js</text>
</g>
<!-- components/buttonGrid.js&#45;&gt;actions/Core.js -->
<g id="edge6" class="edge"><title>components/buttonGrid.js&#45;&gt;actions/Core.js</title>
<path fill="none" stroke="#757575" d="M779.478,-287.043C812.736,-292.414 852.014,-298.757 884.435,-303.993"/>
<polygon fill="#757575" stroke="#757575" points="884.274,-307.512 894.704,-305.651 885.39,-300.601 884.274,-307.512"/>
</g>
<!-- components/buttonGrid.js&#45;&gt;actions/UI.js -->
<g id="edge7" class="edge"><title>components/buttonGrid.js&#45;&gt;actions/UI.js</title>
<path fill="none" stroke="#757575" d="M796.561,-277.071C901.637,-277.76 1081.88,-275.237 1235,-254.5 1324.1,-242.434 1346.5,-236.329 1432,-208.5 1463.14,-198.364 1497.36,-183.583 1521.78,-172.368"/>
<polygon fill="#757575" stroke="#757575" points="1523.36,-175.493 1530.96,-168.109 1520.42,-169.143 1523.36,-175.493"/>
</g>
<!-- components/buttonWrap.js -->
<g id="node12" class="node"><title>components/buttonWrap.js</title>
<path fill="none" stroke="#c6c5fe" d="M1036.33,-246C1036.33,-246 864.667,-246 864.667,-246 860.833,-246 857,-242.167 857,-238.333 857,-238.333 857,-230.667 857,-230.667 857,-226.833 860.833,-223 864.667,-223 864.667,-223 1036.33,-223 1036.33,-223 1040.17,-223 1044,-226.833 1044,-230.667 1044,-230.667 1044,-238.333 1044,-238.333 1044,-242.167 1040.17,-246 1036.33,-246"/>
<text text-anchor="middle" x="950.5" y="-230.8" font-family="Arial" font-size="14.00" fill="#c6c5fe">components/buttonWrap.js</text>
</g>
<!-- components/buttonGrid.js&#45;&gt;components/buttonWrap.js -->
<g id="edge8" class="edge"><title>components/buttonGrid.js&#45;&gt;components/buttonWrap.js</title>
<path fill="none" stroke="#757575" d="M775.914,-263.97C805.749,-258.905 840.945,-252.93 871.818,-247.688"/>
<polygon fill="#757575" stroke="#757575" points="872.405,-251.139 881.678,-246.014 871.233,-244.238 872.405,-251.139"/>
</g>
<!-- components/buttonWrap.js&#45;&gt;components/button.js -->
<g id="edge9" class="edge"><title>components/buttonWrap.js&#45;&gt;components/button.js</title>
<path fill="none" stroke="#757575" d="M1044.1,-234.5C1053.12,-234.5 1062.25,-234.5 1071.19,-234.5"/>
<polygon fill="#757575" stroke="#757575" points="1071.2,-238 1081.2,-234.5 1071.2,-231 1071.2,-238"/>
</g>
<!-- components/tests/timeDisplay.test.js -->
<g id="node16" class="node"><title>components/tests/timeDisplay.test.js</title>
<path fill="none" stroke="#c6c5fe" d="M547.333,-410C547.333,-410 314.667,-410 314.667,-410 310.833,-410 307,-406.167 307,-402.333 307,-402.333 307,-394.667 307,-394.667 307,-390.833 310.833,-387 314.667,-387 314.667,-387 547.333,-387 547.333,-387 551.167,-387 555,-390.833 555,-394.667 555,-394.667 555,-402.333 555,-402.333 555,-406.167 551.167,-410 547.333,-410"/>
<text text-anchor="middle" x="431" y="-394.8" font-family="Arial" font-size="14.00" fill="#c6c5fe">components/tests/timeDisplay.test.js</text>
</g>
<!-- components/tests/timeDisplay.test.js&#45;&gt;components/timeDisplay.js -->
<g id="edge15" class="edge"><title>components/tests/timeDisplay.test.js&#45;&gt;components/timeDisplay.js</title>
<path fill="none" stroke="#757575" d="M555.374,-398.5C571.337,-398.5 587.549,-398.5 603.133,-398.5"/>
<polygon fill="#757575" stroke="#757575" points="603.273,-402 613.273,-398.5 603.273,-395 603.273,-402"/>
</g>
<!-- index.js -->
<g id="node17" class="node"><title>index.js</title>
<path fill="none" stroke="#c6c5fe" d="M57.3333,-225C57.3333,-225 7.66667,-225 7.66667,-225 3.83333,-225 0,-221.167 0,-217.333 0,-217.333 0,-209.667 0,-209.667 0,-205.833 3.83333,-202 7.66667,-202 7.66667,-202 57.3333,-202 57.3333,-202 61.1667,-202 65,-205.833 65,-209.667 65,-209.667 65,-217.333 65,-217.333 65,-221.167 61.1667,-225 57.3333,-225"/>
<text text-anchor="middle" x="32.5" y="-209.8" font-family="Arial" font-size="14.00" fill="#c6c5fe">index.js</text>
</g>
<!-- index.js&#45;&gt;components/appRoot.js -->
<g id="edge16" class="edge"><title>index.js&#45;&gt;components/appRoot.js</title>
<path fill="none" stroke="#757575" d="M61.4552,-225.016C85.455,-234.903 120.249,-249.237 146.634,-260.107"/>
<polygon fill="#757575" stroke="#757575" points="145.36,-263.367 155.94,-263.94 148.027,-256.895 145.36,-263.367"/>
</g>
<!-- store/store.js -->
<g id="node18" class="node"><title>store/store.js</title>
<path fill="none" stroke="#c6c5fe" d="M226.833,-144C226.833,-144 143.167,-144 143.167,-144 139.333,-144 135.5,-140.167 135.5,-136.333 135.5,-136.333 135.5,-128.667 135.5,-128.667 135.5,-124.833 139.333,-121 143.167,-121 143.167,-121 226.833,-121 226.833,-121 230.667,-121 234.5,-124.833 234.5,-128.667 234.5,-128.667 234.5,-136.333 234.5,-136.333 234.5,-140.167 230.667,-144 226.833,-144"/>
<text text-anchor="middle" x="185" y="-128.8" font-family="Arial" font-size="14.00" fill="#c6c5fe">store/store.js</text>
</g>
<!-- index.js&#45;&gt;store/store.js -->
<g id="edge17" class="edge"><title>index.js&#45;&gt;store/store.js</title>
<path fill="none" stroke="#757575" d="M55.063,-201.895C80.8791,-188 124.286,-164.639 153.523,-148.903"/>
<polygon fill="#757575" stroke="#757575" points="155.33,-151.905 162.477,-144.084 152.013,-145.741 155.33,-151.905"/>
</g>
<!-- reducers/root.js -->
<g id="node19" class="node"><title>reducers/root.js</title>
<path fill="none" stroke="#c6c5fe" d="M481.333,-144C481.333,-144 380.667,-144 380.667,-144 376.833,-144 373,-140.167 373,-136.333 373,-136.333 373,-128.667 373,-128.667 373,-124.833 376.833,-121 380.667,-121 380.667,-121 481.333,-121 481.333,-121 485.167,-121 489,-124.833 489,-128.667 489,-128.667 489,-136.333 489,-136.333 489,-140.167 485.167,-144 481.333,-144"/>
<text text-anchor="middle" x="431" y="-128.8" font-family="Arial" font-size="14.00" fill="#c6c5fe">reducers/root.js</text>
</g>
<!-- store/store.js&#45;&gt;reducers/root.js -->
<g id="edge36" class="edge"><title>store/store.js&#45;&gt;reducers/root.js</title>
<path fill="none" stroke="#757575" d="M234.791,-132.5C271.458,-132.5 322.127,-132.5 362.653,-132.5"/>
<polygon fill="#757575" stroke="#757575" points="362.723,-136 372.723,-132.5 362.723,-129 362.723,-136"/>
</g>
<!-- store/initialState.js -->
<g id="node23" class="node"><title>store/initialState.js</title>
<path fill="none" stroke="#c6c5fe" d="M764.833,-84C764.833,-84 649.167,-84 649.167,-84 645.333,-84 641.5,-80.1667 641.5,-76.3333 641.5,-76.3333 641.5,-68.6667 641.5,-68.6667 641.5,-64.8333 645.333,-61 649.167,-61 649.167,-61 764.833,-61 764.833,-61 768.667,-61 772.5,-64.8333 772.5,-68.6667 772.5,-68.6667 772.5,-76.3333 772.5,-76.3333 772.5,-80.1667 768.667,-84 764.833,-84"/>
<text text-anchor="middle" x="707" y="-68.8" font-family="Arial" font-size="14.00" fill="#c6c5fe">store/initialState.js</text>
</g>
<!-- store/store.js&#45;&gt;store/initialState.js -->
<g id="edge37" class="edge"><title>store/store.js&#45;&gt;store/initialState.js</title>
<path fill="none" stroke="#757575" d="M234.5,-123.061C256.033,-119.098 281.72,-114.681 305,-111.5 418.314,-96.0152 550.463,-84.4012 631.163,-78.0302"/>
<polygon fill="#757575" stroke="#757575" points="631.534,-81.512 641.23,-77.2416 630.987,-74.5333 631.534,-81.512"/>
</g>
<!-- reducers/root.js&#45;&gt;actions/CharCreation.js -->
<g id="edge18" class="edge"><title>reducers/root.js&#45;&gt;actions/CharCreation.js</title>
<path fill="none" stroke="#757575" d="M489.106,-137.085C525.546,-140.011 573.579,-143.868 615.178,-147.208"/>
<polygon fill="#757575" stroke="#757575" points="615.079,-150.711 625.327,-148.023 615.639,-143.733 615.079,-150.711"/>
</g>
<!-- reducers/root.js&#45;&gt;actions/UI.js -->
<g id="edge19" class="edge"><title>reducers/root.js&#45;&gt;actions/UI.js</title>
<path fill="none" stroke="#757575" d="M467.695,-144.003C500.037,-153.897 549.195,-167.628 593,-174.5 749.776,-199.095 790.806,-194.5 949.5,-194.5 949.5,-194.5 949.5,-194.5 1158.5,-194.5 1280.27,-194.5 1422.13,-176.52 1498.82,-165.296"/>
<polygon fill="#757575" stroke="#757575" points="1499.37,-168.753 1508.75,-163.827 1498.34,-161.828 1499.37,-168.753"/>
</g>
<!-- reducers/updateLowerButtonUI.js -->
<g id="node20" class="node"><title>reducers/updateLowerButtonUI.js</title>
<path fill="none" stroke="#cfffac" d="M813.333,-125C813.333,-125 600.667,-125 600.667,-125 596.833,-125 593,-121.167 593,-117.333 593,-117.333 593,-109.667 593,-109.667 593,-105.833 596.833,-102 600.667,-102 600.667,-102 813.333,-102 813.333,-102 817.167,-102 821,-105.833 821,-109.667 821,-109.667 821,-117.333 821,-117.333 821,-121.167 817.167,-125 813.333,-125"/>
<text text-anchor="middle" x="707" y="-109.8" font-family="Arial" font-size="14.00" fill="#cfffac">reducers/updateLowerButtonUI.js</text>
</g>
<!-- reducers/root.js&#45;&gt;reducers/updateLowerButtonUI.js -->
<g id="edge20" class="edge"><title>reducers/root.js&#45;&gt;reducers/updateLowerButtonUI.js</title>
<path fill="none" stroke="#757575" d="M489.106,-128.54C516.325,-126.653 550.011,-124.317 582.653,-122.053"/>
<polygon fill="#757575" stroke="#757575" points="583.008,-125.537 592.742,-121.354 582.524,-118.554 583.008,-125.537"/>
</g>
<!-- reducers/updateMenuBar.js -->
<g id="node21" class="node"><title>reducers/updateMenuBar.js</title>
<path fill="none" stroke="#c6c5fe" d="M794.833,-43C794.833,-43 619.167,-43 619.167,-43 615.333,-43 611.5,-39.1667 611.5,-35.3333 611.5,-35.3333 611.5,-27.6667 611.5,-27.6667 611.5,-23.8333 615.333,-20 619.167,-20 619.167,-20 794.833,-20 794.833,-20 798.667,-20 802.5,-23.8333 802.5,-27.6667 802.5,-27.6667 802.5,-35.3333 802.5,-35.3333 802.5,-39.1667 798.667,-43 794.833,-43"/>
<text text-anchor="middle" x="707" y="-27.8" font-family="Arial" font-size="14.00" fill="#c6c5fe">reducers/updateMenuBar.js</text>
</g>
<!-- reducers/root.js&#45;&gt;reducers/updateMenuBar.js -->
<g id="edge21" class="edge"><title>reducers/root.js&#45;&gt;reducers/updateMenuBar.js</title>
<path fill="none" stroke="#757575" d="M450.552,-120.9C479.737,-103.184 538.659,-69.5475 593,-51.5 599.889,-49.2119 607.107,-47.17 614.419,-45.3505"/>
<polygon fill="#757575" stroke="#757575" points="615.491,-48.6944 624.428,-43.0051 613.893,-41.8791 615.491,-48.6944"/>
</g>
<!-- reducers/updateStatUI.js -->
<g id="node22" class="node"><title>reducers/updateStatUI.js</title>
<path fill="none" stroke="#cfffac" d="M785.833,-246C785.833,-246 628.167,-246 628.167,-246 624.333,-246 620.5,-242.167 620.5,-238.333 620.5,-238.333 620.5,-230.667 620.5,-230.667 620.5,-226.833 624.333,-223 628.167,-223 628.167,-223 785.833,-223 785.833,-223 789.667,-223 793.5,-226.833 793.5,-230.667 793.5,-230.667 793.5,-238.333 793.5,-238.333 793.5,-242.167 789.667,-246 785.833,-246"/>
<text text-anchor="middle" x="707" y="-230.8" font-family="Arial" font-size="14.00" fill="#cfffac">reducers/updateStatUI.js</text>
</g>
<!-- reducers/root.js&#45;&gt;reducers/updateStatUI.js -->
<g id="edge22" class="edge"><title>reducers/root.js&#45;&gt;reducers/updateStatUI.js</title>
<path fill="none" stroke="#757575" d="M487.027,-144.045C509.749,-150.315 535.698,-159.511 557,-172.5 576.319,-184.28 573.206,-197.537 593,-208.5 601.234,-213.06 610.23,-216.822 619.435,-219.925"/>
<polygon fill="#757575" stroke="#757575" points="618.491,-223.297 629.08,-222.926 620.571,-216.613 618.491,-223.297"/>
</g>
<!-- reducers/root.js&#45;&gt;store/initialState.js -->
<g id="edge23" class="edge"><title>reducers/root.js&#45;&gt;store/initialState.js</title>
<path fill="none" stroke="#757575" d="M475.206,-120.914C507.517,-112.457 552.854,-101.029 593,-92.5 605.302,-89.8864 618.407,-87.3456 631.173,-85.0008"/>
<polygon fill="#757575" stroke="#757575" points="632.099,-88.3901 641.315,-83.1645 630.852,-81.5021 632.099,-88.3901"/>
</g>
<!-- scenes/menus.js -->
<g id="node25" class="node"><title>scenes/menus.js</title>
<path fill="none" stroke="#c6c5fe" d="M1004.83,-46C1004.83,-46 896.167,-46 896.167,-46 892.333,-46 888.5,-42.1667 888.5,-38.3333 888.5,-38.3333 888.5,-30.6667 888.5,-30.6667 888.5,-26.8333 892.333,-23 896.167,-23 896.167,-23 1004.83,-23 1004.83,-23 1008.67,-23 1012.5,-26.8333 1012.5,-30.6667 1012.5,-30.6667 1012.5,-38.3333 1012.5,-38.3333 1012.5,-42.1667 1008.67,-46 1004.83,-46"/>
<text text-anchor="middle" x="950.5" y="-30.8" font-family="Arial" font-size="14.00" fill="#c6c5fe">scenes/menus.js</text>
</g>
<!-- reducers/updateMenuBar.js&#45;&gt;scenes/menus.js -->
<g id="edge27" class="edge"><title>reducers/updateMenuBar.js&#45;&gt;scenes/menus.js</title>
<path fill="none" stroke="#757575" d="M802.754,-32.6771C827.848,-32.9888 854.514,-33.3201 878.135,-33.6135"/>
<polygon fill="#757575" stroke="#757575" points="878.363,-37.1165 888.406,-33.7411 878.45,-30.117 878.363,-37.1165"/>
</g>
<!-- store/initialState.js&#45;&gt;scenes/menus.js -->
<g id="edge35" class="edge"><title>store/initialState.js&#45;&gt;scenes/menus.js</title>
<path fill="none" stroke="#757575" d="M772.718,-62.3167C805.259,-57.1964 844.776,-50.9784 878.188,-45.7209"/>
<polygon fill="#757575" stroke="#757575" points="879.013,-49.1343 888.347,-44.1224 877.925,-42.2194 879.013,-49.1343"/>
</g>
<!-- reducers/tests/updateMenuBar.test.js -->
<g id="node24" class="node"><title>reducers/tests/updateMenuBar.test.js</title>
<path fill="none" stroke="#c6c5fe" d="M549.333,-23C549.333,-23 312.667,-23 312.667,-23 308.833,-23 305,-19.1667 305,-15.3333 305,-15.3333 305,-7.66667 305,-7.66667 305,-3.83333 308.833,-0 312.667,-0 312.667,-0 549.333,-0 549.333,-0 553.167,-0 557,-3.83333 557,-7.66667 557,-7.66667 557,-15.3333 557,-15.3333 557,-19.1667 553.167,-23 549.333,-23"/>
<text text-anchor="middle" x="431" y="-7.8" font-family="Arial" font-size="14.00" fill="#c6c5fe">reducers/tests/updateMenuBar.test.js</text>
</g>
<!-- reducers/tests/updateMenuBar.test.js&#45;&gt;reducers/updateMenuBar.js -->
<g id="edge24" class="edge"><title>reducers/tests/updateMenuBar.test.js&#45;&gt;reducers/updateMenuBar.js</title>
<path fill="none" stroke="#757575" d="M557.373,-20.6513C572,-21.719 586.806,-22.7997 601.116,-23.8442"/>
<polygon fill="#757575" stroke="#757575" points="601.21,-27.3604 611.439,-24.5977 601.72,-20.3789 601.21,-27.3604"/>
</g>
<!-- reducers/tests/updateMenuBar.test.js&#45;&gt;scenes/menus.js -->
<g id="edge25" class="edge"><title>reducers/tests/updateMenuBar.test.js&#45;&gt;scenes/menus.js</title>
<path fill="none" stroke="#757575" d="M557.092,-5.17019C633.49,-2.79516 733.074,-2.35941 821,-10.5 843.63,-12.5952 868.218,-16.7236 889.77,-20.974"/>
<polygon fill="#757575" stroke="#757575" points="889.265,-24.4428 899.761,-22.995 890.653,-17.5818 889.265,-24.4428"/>
</g>
<!-- scenes/menus.js&#45;&gt;actions/UI.js -->
<g id="edge30" class="edge"><title>scenes/menus.js&#45;&gt;actions/UI.js</title>
<path fill="none" stroke="#757575" d="M979.974,-46.1423C1035.09,-68.0981 1160.64,-115.314 1271,-136.5 1349.08,-151.488 1441.15,-155.537 1498.82,-156.477"/>
<polygon fill="#757575" stroke="#757575" points="1498.77,-159.977 1508.82,-156.614 1498.87,-152.977 1498.77,-159.977"/>
</g>
<!-- scenes/sceneSymbols.js -->
<g id="node28" class="node"><title>scenes/sceneSymbols.js</title>
<path fill="none" stroke="#cfffac" d="M1636.33,-47C1636.33,-47 1475.67,-47 1475.67,-47 1471.83,-47 1468,-43.1667 1468,-39.3333 1468,-39.3333 1468,-31.6667 1468,-31.6667 1468,-27.8333 1471.83,-24 1475.67,-24 1475.67,-24 1636.33,-24 1636.33,-24 1640.17,-24 1644,-27.8333 1644,-31.6667 1644,-31.6667 1644,-39.3333 1644,-39.3333 1644,-43.1667 1640.17,-47 1636.33,-47"/>
<text text-anchor="middle" x="1556" y="-31.8" font-family="Arial" font-size="14.00" fill="#cfffac">scenes/sceneSymbols.js</text>
</g>
<!-- scenes/menus.js&#45;&gt;scenes/sceneSymbols.js -->
<g id="edge32" class="edge"><title>scenes/menus.js&#45;&gt;scenes/sceneSymbols.js</title>
<path fill="none" stroke="#757575" d="M1012.76,-24.148C1033.98,-21.0325 1057.98,-18.035 1080,-16.5 1210.61,-7.39684 1361.74,-16.8715 1457.81,-25.3952"/>
<polygon fill="#757575" stroke="#757575" points="1457.53,-28.8837 1467.8,-26.2957 1458.16,-21.9119 1457.53,-28.8837"/>
</g>
<!-- scenes/sceneStore.js -->
<g id="node29" class="node"><title>scenes/sceneStore.js</title>
<path fill="none" stroke="#c6c5fe" d="M1227.33,-49C1227.33,-49 1087.67,-49 1087.67,-49 1083.83,-49 1080,-45.1667 1080,-41.3333 1080,-41.3333 1080,-33.6667 1080,-33.6667 1080,-29.8333 1083.83,-26 1087.67,-26 1087.67,-26 1227.33,-26 1227.33,-26 1231.17,-26 1235,-29.8333 1235,-33.6667 1235,-33.6667 1235,-41.3333 1235,-41.3333 1235,-45.1667 1231.17,-49 1227.33,-49"/>
<text text-anchor="middle" x="1157.5" y="-33.8" font-family="Arial" font-size="14.00" fill="#c6c5fe">scenes/sceneStore.js</text>
</g>
<!-- scenes/menus.js&#45;&gt;scenes/sceneStore.js -->
<g id="edge31" class="edge"><title>scenes/menus.js&#45;&gt;scenes/sceneStore.js</title>
<path fill="none" stroke="#757575" d="M1012.73,-35.396C1030.63,-35.658 1050.55,-35.9495 1069.71,-36.23"/>
<polygon fill="#757575" stroke="#757575" points="1069.91,-39.7331 1079.96,-36.3799 1070.01,-32.7339 1069.91,-39.7331"/>
</g>
<!-- reducers/tests/updateStatUI.test.js -->
<g id="node26" class="node"><title>reducers/tests/updateStatUI.test.js</title>
<path fill="none" stroke="#c6c5fe" d="M540.833,-205C540.833,-205 321.167,-205 321.167,-205 317.333,-205 313.5,-201.167 313.5,-197.333 313.5,-197.333 313.5,-189.667 313.5,-189.667 313.5,-185.833 317.333,-182 321.167,-182 321.167,-182 540.833,-182 540.833,-182 544.667,-182 548.5,-185.833 548.5,-189.667 548.5,-189.667 548.5,-197.333 548.5,-197.333 548.5,-201.167 544.667,-205 540.833,-205"/>
<text text-anchor="middle" x="431" y="-189.8" font-family="Arial" font-size="14.00" fill="#c6c5fe">reducers/tests/updateStatUI.test.js</text>
</g>
<!-- reducers/tests/updateStatUI.test.js&#45;&gt;reducers/updateStatUI.js -->
<g id="edge26" class="edge"><title>reducers/tests/updateStatUI.test.js&#45;&gt;reducers/updateStatUI.js</title>
<path fill="none" stroke="#757575" d="M509.053,-205.03C543.197,-210.139 583.528,-216.174 618.773,-221.448"/>
<polygon fill="#757575" stroke="#757575" points="618.643,-224.967 629.051,-222.986 619.679,-218.044 618.643,-224.967"/>
</g>
<!-- scenes/charCreation.js -->
<g id="node27" class="node"><title>scenes/charCreation.js</title>
<path fill="none" stroke="#c6c5fe" d="M1424.33,-87C1424.33,-87 1278.67,-87 1278.67,-87 1274.83,-87 1271,-83.1667 1271,-79.3333 1271,-79.3333 1271,-71.6667 1271,-71.6667 1271,-67.8333 1274.83,-64 1278.67,-64 1278.67,-64 1424.33,-64 1424.33,-64 1428.17,-64 1432,-67.8333 1432,-71.6667 1432,-71.6667 1432,-79.3333 1432,-79.3333 1432,-83.1667 1428.17,-87 1424.33,-87"/>
<text text-anchor="middle" x="1351.5" y="-71.8" font-family="Arial" font-size="14.00" fill="#c6c5fe">scenes/charCreation.js</text>
</g>
<!-- scenes/charCreation.js&#45;&gt;actions/UI.js -->
<g id="edge28" class="edge"><title>scenes/charCreation.js&#45;&gt;actions/UI.js</title>
<path fill="none" stroke="#757575" d="M1405.16,-87.055C1414.21,-89.5211 1423.45,-92.3474 1432,-95.5 1465.51,-107.863 1501.94,-126.654 1526.38,-140.112"/>
<polygon fill="#757575" stroke="#757575" points="1524.69,-143.178 1535.13,-144.984 1528.1,-137.061 1524.69,-143.178"/>
</g>
<!-- scenes/charCreation.js&#45;&gt;scenes/sceneSymbols.js -->
<g id="edge29" class="edge"><title>scenes/charCreation.js&#45;&gt;scenes/sceneSymbols.js</title>
<path fill="none" stroke="#757575" d="M1410.8,-63.984C1434.52,-59.2982 1462.1,-53.8497 1486.76,-48.9802"/>
<polygon fill="#757575" stroke="#757575" points="1487.63,-52.3755 1496.76,-47.0039 1486.27,-45.5082 1487.63,-52.3755"/>
</g>
<!-- scenes/sceneStore.js&#45;&gt;scenes/charCreation.js -->
<g id="edge33" class="edge"><title>scenes/sceneStore.js&#45;&gt;scenes/charCreation.js</title>
<path fill="none" stroke="#757575" d="M1216.63,-49.0044C1237.3,-53.0965 1260.77,-57.7412 1282.22,-61.9862"/>
<polygon fill="#757575" stroke="#757575" points="1281.75,-65.461 1292.24,-63.9692 1283.11,-58.5942 1281.75,-65.461"/>
</g>
<!-- scenes/sceneStore.js&#45;&gt;scenes/sceneSymbols.js -->
<g id="edge34" class="edge"><title>scenes/sceneStore.js&#45;&gt;scenes/sceneSymbols.js</title>
<path fill="none" stroke="#757575" d="M1235.42,-37.112C1298.82,-36.7922 1389.13,-36.3367 1457.59,-35.9914"/>
<polygon fill="#757575" stroke="#757575" points="1457.97,-39.4896 1467.95,-35.9391 1457.93,-32.4897 1457.97,-39.4896"/>
</g>
</g>
</svg>
