<?xml version="1.0" encoding="UTF-8" standalone="no"?>
<!DOCTYPE svg PUBLIC "-//W3C//DTD SVG 1.1//EN"
 "http://www.w3.org/Graphics/SVG/1.1/DTD/svg11.dtd">
<!-- Generated by graphviz version 2.38.0 (20140413.2041)
 -->
<!-- Title: G Pages: 1 -->
<svg width="2994pt" height="733pt"
 viewBox="0.00 0.00 2994.20 733.20" xmlns="http://www.w3.org/2000/svg" xmlns:xlink="http://www.w3.org/1999/xlink">
<g id="graph0" class="graph" transform="scale(1 1) rotate(0) translate(21.6 711.6)">
<title>G</title>
<polygon fill="#111111" stroke="none" points="-21.6,21.6 -21.6,-711.6 2972.6,-711.6 2972.6,21.6 -21.6,21.6"/>
<!-- actions/Core.js -->
<g id="node1" class="node"><title>actions/Core.js</title>
<path fill="none" stroke="#c6c5fe" d="M1740.83,-382C1740.83,-382 1645.17,-382 1645.17,-382 1641.33,-382 1637.5,-378.167 1637.5,-374.333 1637.5,-374.333 1637.5,-366.667 1637.5,-366.667 1637.5,-362.833 1641.33,-359 1645.17,-359 1645.17,-359 1740.83,-359 1740.83,-359 1744.67,-359 1748.5,-362.833 1748.5,-366.667 1748.5,-366.667 1748.5,-374.333 1748.5,-374.333 1748.5,-378.167 1744.67,-382 1740.83,-382"/>
<text text-anchor="middle" x="1693" y="-366.8" font-family="Arial" font-size="14.00" fill="#c6c5fe">actions/Core.js</text>
</g>
<!-- actions/coreMsg.js -->
<g id="node2" class="node"><title>actions/coreMsg.js</title>
<path fill="none" stroke="#cfffac" d="M2922.83,-342C2922.83,-342 2803.17,-342 2803.17,-342 2799.33,-342 2795.5,-338.167 2795.5,-334.333 2795.5,-334.333 2795.5,-326.667 2795.5,-326.667 2795.5,-322.833 2799.33,-319 2803.17,-319 2803.17,-319 2922.83,-319 2922.83,-319 2926.67,-319 2930.5,-322.833 2930.5,-326.667 2930.5,-326.667 2930.5,-334.333 2930.5,-334.333 2930.5,-338.167 2926.67,-342 2922.83,-342"/>
<text text-anchor="middle" x="2863" y="-326.8" font-family="Arial" font-size="14.00" fill="#cfffac">actions/coreMsg.js</text>
</g>
<!-- actions/Core.js&#45;&gt;actions/coreMsg.js -->
<g id="edge1" class="edge"><title>actions/Core.js&#45;&gt;actions/coreMsg.js</title>
<path fill="none" stroke="#757575" d="M1728.91,-382.009C1797.94,-403.706 1957.07,-448.5 2094.5,-448.5 2094.5,-448.5 2094.5,-448.5 2450,-448.5 2578.75,-448.5 2619,-475.17 2739,-428.5 2782.7,-411.502 2823.13,-373.202 2845,-349.833"/>
<polygon fill="#757575" stroke="#757575" points="2847.77,-351.99 2851.94,-342.25 2842.61,-347.265 2847.77,-351.99"/>
</g>
<!-- store/store.js -->
<g id="node3" class="node"><title>store/store.js</title>
<path fill="none" stroke="#c6c5fe" d="M2309.83,-260C2309.83,-260 2226.17,-260 2226.17,-260 2222.33,-260 2218.5,-256.167 2218.5,-252.333 2218.5,-252.333 2218.5,-244.667 2218.5,-244.667 2218.5,-240.833 2222.33,-237 2226.17,-237 2226.17,-237 2309.83,-237 2309.83,-237 2313.67,-237 2317.5,-240.833 2317.5,-244.667 2317.5,-244.667 2317.5,-252.333 2317.5,-252.333 2317.5,-256.167 2313.67,-260 2309.83,-260"/>
<text text-anchor="middle" x="2268" y="-244.8" font-family="Arial" font-size="14.00" fill="#c6c5fe">store/store.js</text>
</g>
<!-- actions/Core.js&#45;&gt;store/store.js -->
<g id="edge2" class="edge"><title>actions/Core.js&#45;&gt;store/store.js</title>
<path fill="none" stroke="#757575" d="M1748.04,-358.925C1839.32,-339.387 2029.82,-298.655 2191,-264.5 2196.66,-263.3 2202.56,-262.053 2208.46,-260.808"/>
<polygon fill="#757575" stroke="#757575" points="2209.28,-264.212 2218.34,-258.724 2207.84,-257.363 2209.28,-264.212"/>
</g>
<!-- reducers/root.js -->
<g id="node27" class="node"><title>reducers/root.js</title>
<path fill="none" stroke="#c6c5fe" d="M2499.33,-260C2499.33,-260 2398.67,-260 2398.67,-260 2394.83,-260 2391,-256.167 2391,-252.333 2391,-252.333 2391,-244.667 2391,-244.667 2391,-240.833 2394.83,-237 2398.67,-237 2398.67,-237 2499.33,-237 2499.33,-237 2503.17,-237 2507,-240.833 2507,-244.667 2507,-244.667 2507,-252.333 2507,-252.333 2507,-256.167 2503.17,-260 2499.33,-260"/>
<text text-anchor="middle" x="2449" y="-244.8" font-family="Arial" font-size="14.00" fill="#c6c5fe">reducers/root.js</text>
</g>
<!-- store/store.js&#45;&gt;reducers/root.js -->
<g id="edge58" class="edge"><title>store/store.js&#45;&gt;reducers/root.js</title>
<path fill="none" stroke="#757575" d="M2317.91,-248.5C2337.31,-248.5 2359.92,-248.5 2380.81,-248.5"/>
<polygon fill="#757575" stroke="#757575" points="2380.9,-252 2390.9,-248.5 2380.9,-245 2380.9,-252"/>
</g>
<!-- actions/Engine.js -->
<g id="node4" class="node"><title>actions/Engine.js</title>
<path fill="none" stroke="#c6c5fe" d="M951.833,-554C951.833,-554 843.167,-554 843.167,-554 839.333,-554 835.5,-550.167 835.5,-546.333 835.5,-546.333 835.5,-538.667 835.5,-538.667 835.5,-534.833 839.333,-531 843.167,-531 843.167,-531 951.833,-531 951.833,-531 955.667,-531 959.5,-534.833 959.5,-538.667 959.5,-538.667 959.5,-546.333 959.5,-546.333 959.5,-550.167 955.667,-554 951.833,-554"/>
<text text-anchor="middle" x="897.5" y="-538.8" font-family="Arial" font-size="14.00" fill="#c6c5fe">actions/Engine.js</text>
</g>
<!-- scenes/sceneFunctions.js -->
<g id="node5" class="node"><title>scenes/sceneFunctions.js</title>
<path fill="none" stroke="#c6c5fe" d="M1201.33,-460C1201.33,-460 1034.67,-460 1034.67,-460 1030.83,-460 1027,-456.167 1027,-452.333 1027,-452.333 1027,-444.667 1027,-444.667 1027,-440.833 1030.83,-437 1034.67,-437 1034.67,-437 1201.33,-437 1201.33,-437 1205.17,-437 1209,-440.833 1209,-444.667 1209,-444.667 1209,-452.333 1209,-452.333 1209,-456.167 1205.17,-460 1201.33,-460"/>
<text text-anchor="middle" x="1118" y="-444.8" font-family="Arial" font-size="14.00" fill="#c6c5fe">scenes/sceneFunctions.js</text>
</g>
<!-- actions/Engine.js&#45;&gt;scenes/sceneFunctions.js -->
<g id="edge3" class="edge"><title>actions/Engine.js&#45;&gt;scenes/sceneFunctions.js</title>
<path fill="none" stroke="#757575" d="M925.292,-530.974C964.28,-514.201 1036.76,-483.019 1080.57,-464.173"/>
<polygon fill="#757575" stroke="#757575" points="1082.19,-467.288 1089.99,-460.121 1079.42,-460.857 1082.19,-467.288"/>
</g>
<!-- scenes/sceneSymbols.js -->
<g id="node6" class="node"><title>scenes/sceneSymbols.js</title>
<path fill="none" stroke="#cfffac" d="M2943.33,-555C2943.33,-555 2782.67,-555 2782.67,-555 2778.83,-555 2775,-551.167 2775,-547.333 2775,-547.333 2775,-539.667 2775,-539.667 2775,-535.833 2778.83,-532 2782.67,-532 2782.67,-532 2943.33,-532 2943.33,-532 2947.17,-532 2951,-535.833 2951,-539.667 2951,-539.667 2951,-547.333 2951,-547.333 2951,-551.167 2947.17,-555 2943.33,-555"/>
<text text-anchor="middle" x="2863" y="-539.8" font-family="Arial" font-size="14.00" fill="#cfffac">scenes/sceneSymbols.js</text>
</g>
<!-- actions/Engine.js&#45;&gt;scenes/sceneSymbols.js -->
<g id="edge4" class="edge"><title>actions/Engine.js&#45;&gt;scenes/sceneSymbols.js</title>
<path fill="none" stroke="#757575" d="M928.452,-554.08C997.28,-579.613 1172.49,-638.5 1324.5,-638.5 1324.5,-638.5 1324.5,-638.5 2450,-638.5 2579.67,-638.5 2614.35,-634.211 2739,-598.5 2771.95,-589.059 2807.49,-572.404 2831.85,-559.887"/>
<polygon fill="#757575" stroke="#757575" points="2833.68,-562.879 2840.92,-555.148 2830.44,-556.674 2833.68,-562.879"/>
</g>
<!-- scenes/sceneFunctions.js&#45;&gt;actions/Core.js -->
<g id="edge49" class="edge"><title>scenes/sceneFunctions.js&#45;&gt;actions/Core.js</title>
<path fill="none" stroke="#757575" d="M1137.37,-436.872C1161.19,-422.418 1204.49,-398.226 1245,-386.5 1376.48,-348.444 1538.83,-355.209 1627.2,-363.115"/>
<polygon fill="#757575" stroke="#757575" points="1627.06,-366.617 1637.34,-364.057 1627.7,-359.647 1627.06,-366.617"/>
</g>
<!-- scenes/sceneFunctions.js&#45;&gt;store/store.js -->
<g id="edge54" class="edge"><title>scenes/sceneFunctions.js&#45;&gt;store/store.js</title>
<path fill="none" stroke="#757575" d="M1131.1,-436.886C1176.15,-394.906 1340,-253.5 1503,-253.5 1503,-253.5 1503,-253.5 1911,-253.5 2015.72,-253.5 2137.75,-251.31 2208.32,-249.829"/>
<polygon fill="#757575" stroke="#757575" points="2208.42,-253.328 2218.35,-249.616 2208.27,-246.329 2208.42,-253.328"/>
</g>
<!-- scenes/sceneFunctions.js&#45;&gt;scenes/sceneSymbols.js -->
<g id="edge52" class="edge"><title>scenes/sceneFunctions.js&#45;&gt;scenes/sceneSymbols.js</title>
<path fill="none" stroke="#757575" d="M1135.3,-460.175C1186.63,-495.767 1350.64,-600.5 1503,-600.5 1503,-600.5 1503,-600.5 2450,-600.5 2579.13,-600.5 2611.51,-591.043 2739,-570.5 2760.89,-566.973 2784.74,-562.004 2805.56,-557.288"/>
<polygon fill="#757575" stroke="#757575" points="2806.55,-560.651 2815.51,-555.001 2804.98,-553.829 2806.55,-560.651"/>
</g>
<!-- scenes/charCreation.js -->
<g id="node34" class="node"><title>scenes/charCreation.js</title>
<path fill="none" stroke="#c6c5fe" d="M1398.33,-460C1398.33,-460 1252.67,-460 1252.67,-460 1248.83,-460 1245,-456.167 1245,-452.333 1245,-452.333 1245,-444.667 1245,-444.667 1245,-440.833 1248.83,-437 1252.67,-437 1252.67,-437 1398.33,-437 1398.33,-437 1402.17,-437 1406,-440.833 1406,-444.667 1406,-444.667 1406,-452.333 1406,-452.333 1406,-456.167 1402.17,-460 1398.33,-460"/>
<text text-anchor="middle" x="1325.5" y="-444.8" font-family="Arial" font-size="14.00" fill="#c6c5fe">scenes/charCreation.js</text>
</g>
<!-- scenes/sceneFunctions.js&#45;&gt;scenes/charCreation.js -->
<g id="edge50" class="edge"><title>scenes/sceneFunctions.js&#45;&gt;scenes/charCreation.js</title>
<path fill="none" stroke="#757575" d="M1209.14,-448.5C1217.57,-448.5 1226.12,-448.5 1234.55,-448.5"/>
<polygon fill="#757575" stroke="#757575" points="1234.76,-452 1244.76,-448.5 1234.76,-445 1234.76,-452"/>
</g>
<!-- scenes/menus.js -->
<g id="node35" class="node"><title>scenes/menus.js</title>
<path fill="none" stroke="#c6c5fe" d="M1558.33,-500C1558.33,-500 1449.67,-500 1449.67,-500 1445.83,-500 1442,-496.167 1442,-492.333 1442,-492.333 1442,-484.667 1442,-484.667 1442,-480.833 1445.83,-477 1449.67,-477 1449.67,-477 1558.33,-477 1558.33,-477 1562.17,-477 1566,-480.833 1566,-484.667 1566,-484.667 1566,-492.333 1566,-492.333 1566,-496.167 1562.17,-500 1558.33,-500"/>
<text text-anchor="middle" x="1504" y="-484.8" font-family="Arial" font-size="14.00" fill="#c6c5fe">scenes/menus.js</text>
</g>
<!-- scenes/sceneFunctions.js&#45;&gt;scenes/menus.js -->
<g id="edge51" class="edge"><title>scenes/sceneFunctions.js&#45;&gt;scenes/menus.js</title>
<path fill="none" stroke="#757575" d="M1185.23,-460.033C1204.47,-463.106 1225.53,-466.204 1245,-468.5 1307.95,-475.924 1379.88,-481.24 1431.77,-484.516"/>
<polygon fill="#757575" stroke="#757575" points="1431.68,-488.017 1441.88,-485.144 1432.11,-481.03 1431.68,-488.017"/>
</g>
<!-- scenes/tests/testing.js -->
<g id="node37" class="node"><title>scenes/tests/testing.js</title>
<path fill="none" stroke="#cfffac" d="M1396.83,-419C1396.83,-419 1254.17,-419 1254.17,-419 1250.33,-419 1246.5,-415.167 1246.5,-411.333 1246.5,-411.333 1246.5,-403.667 1246.5,-403.667 1246.5,-399.833 1250.33,-396 1254.17,-396 1254.17,-396 1396.83,-396 1396.83,-396 1400.67,-396 1404.5,-399.833 1404.5,-403.667 1404.5,-403.667 1404.5,-411.333 1404.5,-411.333 1404.5,-415.167 1400.67,-419 1396.83,-419"/>
<text text-anchor="middle" x="1325.5" y="-403.8" font-family="Arial" font-size="14.00" fill="#cfffac">scenes/tests/testing.js</text>
</g>
<!-- scenes/sceneFunctions.js&#45;&gt;scenes/tests/testing.js -->
<g id="edge53" class="edge"><title>scenes/sceneFunctions.js&#45;&gt;scenes/tests/testing.js</title>
<path fill="none" stroke="#757575" d="M1176.79,-436.97C1201.63,-432.015 1230.83,-426.188 1256.69,-421.03"/>
<polygon fill="#757575" stroke="#757575" points="1257.67,-424.403 1266.79,-419.014 1256.3,-417.539 1257.67,-424.403"/>
</g>
<!-- actions/Player.js -->
<g id="node7" class="node"><title>actions/Player.js</title>
<path fill="none" stroke="#c6c5fe" d="M2147.33,-381C2147.33,-381 2043.67,-381 2043.67,-381 2039.83,-381 2036,-377.167 2036,-373.333 2036,-373.333 2036,-365.667 2036,-365.667 2036,-361.833 2039.83,-358 2043.67,-358 2043.67,-358 2147.33,-358 2147.33,-358 2151.17,-358 2155,-361.833 2155,-365.667 2155,-365.667 2155,-373.333 2155,-373.333 2155,-377.167 2151.17,-381 2147.33,-381"/>
<text text-anchor="middle" x="2095.5" y="-365.8" font-family="Arial" font-size="14.00" fill="#c6c5fe">actions/Player.js</text>
</g>
<!-- actions/Player.js&#45;&gt;store/store.js -->
<g id="edge6" class="edge"><title>actions/Player.js&#45;&gt;store/store.js</title>
<path fill="none" stroke="#757575" d="M2132.85,-357.878C2140.78,-354.167 2148.68,-349.435 2155,-343.5 2180.21,-319.82 2164.76,-297.041 2191,-274.5 2196.26,-269.982 2202.34,-266.238 2208.73,-263.138"/>
<polygon fill="#757575" stroke="#757575" points="2210.45,-266.21 2218.25,-259.042 2207.68,-259.78 2210.45,-266.21"/>
</g>
<!-- actions/playerMsg.js -->
<g id="node8" class="node"><title>actions/playerMsg.js</title>
<path fill="none" stroke="#cfffac" d="M2927.83,-283C2927.83,-283 2798.17,-283 2798.17,-283 2794.33,-283 2790.5,-279.167 2790.5,-275.333 2790.5,-275.333 2790.5,-267.667 2790.5,-267.667 2790.5,-263.833 2794.33,-260 2798.17,-260 2798.17,-260 2927.83,-260 2927.83,-260 2931.67,-260 2935.5,-263.833 2935.5,-267.667 2935.5,-267.667 2935.5,-275.333 2935.5,-275.333 2935.5,-279.167 2931.67,-283 2927.83,-283"/>
<text text-anchor="middle" x="2863" y="-267.8" font-family="Arial" font-size="14.00" fill="#cfffac">actions/playerMsg.js</text>
</g>
<!-- actions/Player.js&#45;&gt;actions/playerMsg.js -->
<g id="edge5" class="edge"><title>actions/Player.js&#45;&gt;actions/playerMsg.js</title>
<path fill="none" stroke="#757575" d="M2155.1,-365.575C2205.52,-361.953 2280.16,-356.004 2345,-348.5 2520.82,-328.149 2563.98,-316.899 2739,-290.5 2752.41,-288.477 2766.64,-286.304 2780.48,-284.176"/>
<polygon fill="#757575" stroke="#757575" points="2781.12,-287.619 2790.47,-282.637 2780.05,-280.7 2781.12,-287.619"/>
</g>
<!-- symbols/breastCup.js -->
<g id="node9" class="node"><title>symbols/breastCup.js</title>
<path fill="none" stroke="#cfffac" d="M2337.33,-340C2337.33,-340 2198.67,-340 2198.67,-340 2194.83,-340 2191,-336.167 2191,-332.333 2191,-332.333 2191,-324.667 2191,-324.667 2191,-320.833 2194.83,-317 2198.67,-317 2198.67,-317 2337.33,-317 2337.33,-317 2341.17,-317 2345,-320.833 2345,-324.667 2345,-324.667 2345,-332.333 2345,-332.333 2345,-336.167 2341.17,-340 2337.33,-340"/>
<text text-anchor="middle" x="2268" y="-324.8" font-family="Arial" font-size="14.00" fill="#cfffac">symbols/breastCup.js</text>
</g>
<!-- actions/Player.js&#45;&gt;symbols/breastCup.js -->
<g id="edge7" class="edge"><title>actions/Player.js&#45;&gt;symbols/breastCup.js</title>
<path fill="none" stroke="#757575" d="M2144.45,-357.97C2164.6,-353.124 2188.22,-347.445 2209.31,-342.373"/>
<polygon fill="#757575" stroke="#757575" points="2210.21,-345.755 2219.12,-340.014 2208.58,-338.949 2210.21,-345.755"/>
</g>
<!-- symbols/cockType.js -->
<g id="node10" class="node"><title>symbols/cockType.js</title>
<path fill="none" stroke="#cfffac" d="M2335.33,-420C2335.33,-420 2200.67,-420 2200.67,-420 2196.83,-420 2193,-416.167 2193,-412.333 2193,-412.333 2193,-404.667 2193,-404.667 2193,-400.833 2196.83,-397 2200.67,-397 2200.67,-397 2335.33,-397 2335.33,-397 2339.17,-397 2343,-400.833 2343,-404.667 2343,-404.667 2343,-412.333 2343,-412.333 2343,-416.167 2339.17,-420 2335.33,-420"/>
<text text-anchor="middle" x="2268" y="-404.8" font-family="Arial" font-size="14.00" fill="#cfffac">symbols/cockType.js</text>
</g>
<!-- actions/Player.js&#45;&gt;symbols/cockType.js -->
<g id="edge8" class="edge"><title>actions/Player.js&#45;&gt;symbols/cockType.js</title>
<path fill="none" stroke="#757575" d="M2147.19,-381.096C2165.83,-385.36 2187.13,-390.23 2206.54,-394.671"/>
<polygon fill="#757575" stroke="#757575" points="2205.97,-398.131 2216.5,-396.949 2207.53,-391.307 2205.97,-398.131"/>
</g>
<!-- symbols/vaginas.js -->
<g id="node11" class="node"><title>symbols/vaginas.js</title>
<path fill="none" stroke="#c6c5fe" d="M2509.33,-162C2509.33,-162 2388.67,-162 2388.67,-162 2384.83,-162 2381,-158.167 2381,-154.333 2381,-154.333 2381,-146.667 2381,-146.667 2381,-142.833 2384.83,-139 2388.67,-139 2388.67,-139 2509.33,-139 2509.33,-139 2513.17,-139 2517,-142.833 2517,-146.667 2517,-146.667 2517,-154.333 2517,-154.333 2517,-158.167 2513.17,-162 2509.33,-162"/>
<text text-anchor="middle" x="2449" y="-146.8" font-family="Arial" font-size="14.00" fill="#c6c5fe">symbols/vaginas.js</text>
</g>
<!-- actions/Player.js&#45;&gt;symbols/vaginas.js -->
<g id="edge9" class="edge"><title>actions/Player.js&#45;&gt;symbols/vaginas.js</title>
<path fill="none" stroke="#757575" d="M2123.89,-357.882C2134.02,-353.087 2145.37,-347.103 2155,-340.5 2172.9,-328.225 2171.9,-317.81 2191,-307.5 2253.13,-273.961 2284.83,-305.441 2345,-268.5 2345.69,-268.078 2402.04,-203.347 2431.09,-169.951"/>
<polygon fill="#757575" stroke="#757575" points="2433.91,-172.036 2437.83,-162.193 2428.63,-167.442 2433.91,-172.036"/>
</g>
<!-- utils.js -->
<g id="node32" class="node"><title>utils.js</title>
<path fill="none" stroke="#cfffac" d="M2883.33,-104C2883.33,-104 2842.67,-104 2842.67,-104 2838.83,-104 2835,-100.167 2835,-96.3333 2835,-96.3333 2835,-88.6667 2835,-88.6667 2835,-84.8333 2838.83,-81 2842.67,-81 2842.67,-81 2883.33,-81 2883.33,-81 2887.17,-81 2891,-84.8333 2891,-88.6667 2891,-88.6667 2891,-96.3333 2891,-96.3333 2891,-100.167 2887.17,-104 2883.33,-104"/>
<text text-anchor="middle" x="2863" y="-88.8" font-family="Arial" font-size="14.00" fill="#cfffac">utils.js</text>
</g>
<!-- symbols/vaginas.js&#45;&gt;utils.js -->
<g id="edge59" class="edge"><title>symbols/vaginas.js&#45;&gt;utils.js</title>
<path fill="none" stroke="#757575" d="M2478.8,-138.915C2499.18,-131.234 2527.34,-121.653 2553,-116.5 2649.59,-97.1027 2766.09,-93.1753 2824.6,-92.5114"/>
<polygon fill="#757575" stroke="#757575" points="2824.86,-96.0093 2834.83,-92.4224 2824.8,-89.0096 2824.86,-96.0093"/>
</g>
<!-- actions/engineMsg.js -->
<g id="node12" class="node"><title>actions/engineMsg.js</title>
<path fill="none" stroke="#cfffac" d="M2712.83,-182C2712.83,-182 2579.17,-182 2579.17,-182 2575.33,-182 2571.5,-178.167 2571.5,-174.333 2571.5,-174.333 2571.5,-166.667 2571.5,-166.667 2571.5,-162.833 2575.33,-159 2579.17,-159 2579.17,-159 2712.83,-159 2712.83,-159 2716.67,-159 2720.5,-162.833 2720.5,-166.667 2720.5,-166.667 2720.5,-174.333 2720.5,-174.333 2720.5,-178.167 2716.67,-182 2712.83,-182"/>
<text text-anchor="middle" x="2646" y="-166.8" font-family="Arial" font-size="14.00" fill="#cfffac">actions/engineMsg.js</text>
</g>
<!-- components/appRoot.js -->
<g id="node13" class="node"><title>components/appRoot.js</title>
<path fill="none" stroke="#c6c5fe" d="M298.333,-472C298.333,-472 145.667,-472 145.667,-472 141.833,-472 138,-468.167 138,-464.333 138,-464.333 138,-456.667 138,-456.667 138,-452.833 141.833,-449 145.667,-449 145.667,-449 298.333,-449 298.333,-449 302.167,-449 306,-452.833 306,-456.667 306,-456.667 306,-464.333 306,-464.333 306,-468.167 302.167,-472 298.333,-472"/>
<text text-anchor="middle" x="222" y="-456.8" font-family="Arial" font-size="14.00" fill="#c6c5fe">components/appRoot.js</text>
</g>
<!-- components/lowerButtons.js -->
<g id="node14" class="node"><title>components/lowerButtons.js</title>
<path fill="none" stroke="#c6c5fe" d="M529.333,-554C529.333,-554 349.667,-554 349.667,-554 345.833,-554 342,-550.167 342,-546.333 342,-546.333 342,-538.667 342,-538.667 342,-534.833 345.833,-531 349.667,-531 349.667,-531 529.333,-531 529.333,-531 533.167,-531 537,-534.833 537,-538.667 537,-538.667 537,-546.333 537,-546.333 537,-550.167 533.167,-554 529.333,-554"/>
<text text-anchor="middle" x="439.5" y="-538.8" font-family="Arial" font-size="14.00" fill="#c6c5fe">components/lowerButtons.js</text>
</g>
<!-- components/appRoot.js&#45;&gt;components/lowerButtons.js -->
<g id="edge10" class="edge"><title>components/appRoot.js&#45;&gt;components/lowerButtons.js</title>
<path fill="none" stroke="#757575" d="M241.687,-472.021C264.56,-485.658 304.845,-508.19 342,-521.5 349.207,-524.082 356.835,-526.401 364.519,-528.472"/>
<polygon fill="#757575" stroke="#757575" points="363.698,-531.875 374.253,-530.963 365.433,-525.094 363.698,-531.875"/>
</g>
<!-- components/menuBar.js -->
<g id="node15" class="node"><title>components/menuBar.js</title>
<path fill="none" stroke="#c6c5fe" d="M516.833,-472C516.833,-472 362.167,-472 362.167,-472 358.333,-472 354.5,-468.167 354.5,-464.333 354.5,-464.333 354.5,-456.667 354.5,-456.667 354.5,-452.833 358.333,-449 362.167,-449 362.167,-449 516.833,-449 516.833,-449 520.667,-449 524.5,-452.833 524.5,-456.667 524.5,-456.667 524.5,-464.333 524.5,-464.333 524.5,-468.167 520.667,-472 516.833,-472"/>
<text text-anchor="middle" x="439.5" y="-456.8" font-family="Arial" font-size="14.00" fill="#c6c5fe">components/menuBar.js</text>
</g>
<!-- components/appRoot.js&#45;&gt;components/menuBar.js -->
<g id="edge11" class="edge"><title>components/appRoot.js&#45;&gt;components/menuBar.js</title>
<path fill="none" stroke="#757575" d="M306.01,-460.5C318.546,-460.5 331.556,-460.5 344.307,-460.5"/>
<polygon fill="#757575" stroke="#757575" points="344.465,-464 354.465,-460.5 344.465,-457 344.465,-464"/>
</g>
<!-- components/output.js -->
<g id="node16" class="node"><title>components/output.js</title>
<path fill="none" stroke="#cfffac" d="M507.833,-513C507.833,-513 371.167,-513 371.167,-513 367.333,-513 363.5,-509.167 363.5,-505.333 363.5,-505.333 363.5,-497.667 363.5,-497.667 363.5,-493.833 367.333,-490 371.167,-490 371.167,-490 507.833,-490 507.833,-490 511.667,-490 515.5,-493.833 515.5,-497.667 515.5,-497.667 515.5,-505.333 515.5,-505.333 515.5,-509.167 511.667,-513 507.833,-513"/>
<text text-anchor="middle" x="439.5" y="-497.8" font-family="Arial" font-size="14.00" fill="#cfffac">components/output.js</text>
</g>
<!-- components/appRoot.js&#45;&gt;components/output.js -->
<g id="edge12" class="edge"><title>components/appRoot.js&#45;&gt;components/output.js</title>
<path fill="none" stroke="#757575" d="M283.602,-472.03C309.88,-477.029 340.817,-482.915 368.106,-488.107"/>
<polygon fill="#757575" stroke="#757575" points="367.502,-491.555 377.98,-489.986 368.81,-484.678 367.502,-491.555"/>
</g>
<!-- components/statBar.js -->
<g id="node17" class="node"><title>components/statBar.js</title>
<path fill="none" stroke="#c6c5fe" d="M510.833,-431C510.833,-431 368.167,-431 368.167,-431 364.333,-431 360.5,-427.167 360.5,-423.333 360.5,-423.333 360.5,-415.667 360.5,-415.667 360.5,-411.833 364.333,-408 368.167,-408 368.167,-408 510.833,-408 510.833,-408 514.667,-408 518.5,-411.833 518.5,-415.667 518.5,-415.667 518.5,-423.333 518.5,-423.333 518.5,-427.167 514.667,-431 510.833,-431"/>
<text text-anchor="middle" x="439.5" y="-415.8" font-family="Arial" font-size="14.00" fill="#c6c5fe">components/statBar.js</text>
</g>
<!-- components/appRoot.js&#45;&gt;components/statBar.js -->
<g id="edge13" class="edge"><title>components/appRoot.js&#45;&gt;components/statBar.js</title>
<path fill="none" stroke="#757575" d="M283.602,-448.97C309.88,-443.971 340.817,-438.085 368.106,-432.893"/>
<polygon fill="#757575" stroke="#757575" points="368.81,-436.322 377.98,-431.014 367.502,-429.445 368.81,-436.322"/>
</g>
<!-- components/buttonGrid.js -->
<g id="node19" class="node"><title>components/buttonGrid.js</title>
<path fill="none" stroke="#c6c5fe" d="M752.333,-554C752.333,-554 588.667,-554 588.667,-554 584.833,-554 581,-550.167 581,-546.333 581,-546.333 581,-538.667 581,-538.667 581,-534.833 584.833,-531 588.667,-531 588.667,-531 752.333,-531 752.333,-531 756.167,-531 760,-534.833 760,-538.667 760,-538.667 760,-546.333 760,-546.333 760,-550.167 756.167,-554 752.333,-554"/>
<text text-anchor="middle" x="670.5" y="-538.8" font-family="Arial" font-size="14.00" fill="#c6c5fe">components/buttonGrid.js</text>
</g>
<!-- components/lowerButtons.js&#45;&gt;components/buttonGrid.js -->
<g id="edge17" class="edge"><title>components/lowerButtons.js&#45;&gt;components/buttonGrid.js</title>
<path fill="none" stroke="#757575" d="M537.285,-542.5C548.313,-542.5 559.566,-542.5 570.621,-542.5"/>
<polygon fill="#757575" stroke="#757575" points="570.705,-546 580.705,-542.5 570.705,-539 570.705,-546"/>
</g>
<!-- components/menuBar.js&#45;&gt;components/buttonGrid.js -->
<g id="edge18" class="edge"><title>components/menuBar.js&#45;&gt;components/buttonGrid.js</title>
<path fill="none" stroke="#757575" d="M506.452,-472.023C516.783,-474.442 527.259,-477.261 537,-480.5 573.489,-492.633 613.164,-512.101 639.492,-525.984"/>
<polygon fill="#757575" stroke="#757575" points="638.088,-529.202 648.558,-530.822 641.384,-523.026 638.088,-529.202"/>
</g>
<!-- components/spriteDisplay.js -->
<g id="node22" class="node"><title>components/spriteDisplay.js</title>
<path fill="none" stroke="#cfffac" d="M760.333,-390C760.333,-390 580.667,-390 580.667,-390 576.833,-390 573,-386.167 573,-382.333 573,-382.333 573,-374.667 573,-374.667 573,-370.833 576.833,-367 580.667,-367 580.667,-367 760.333,-367 760.333,-367 764.167,-367 768,-370.833 768,-374.667 768,-374.667 768,-382.333 768,-382.333 768,-386.167 764.167,-390 760.333,-390"/>
<text text-anchor="middle" x="670.5" y="-374.8" font-family="Arial" font-size="14.00" fill="#cfffac">components/spriteDisplay.js</text>
</g>
<!-- components/statBar.js&#45;&gt;components/spriteDisplay.js -->
<g id="edge21" class="edge"><title>components/statBar.js&#45;&gt;components/spriteDisplay.js</title>
<path fill="none" stroke="#757575" d="M504.899,-407.97C532.945,-402.949 565.986,-397.033 595.078,-391.825"/>
<polygon fill="#757575" stroke="#757575" points="595.962,-395.222 605.188,-390.014 594.728,-388.332 595.962,-395.222"/>
</g>
<!-- components/statDisplay.js -->
<g id="node24" class="node"><title>components/statDisplay.js</title>
<path fill="none" stroke="#c6c5fe" d="M753.833,-472C753.833,-472 587.167,-472 587.167,-472 583.333,-472 579.5,-468.167 579.5,-464.333 579.5,-464.333 579.5,-456.667 579.5,-456.667 579.5,-452.833 583.333,-449 587.167,-449 587.167,-449 753.833,-449 753.833,-449 757.667,-449 761.5,-452.833 761.5,-456.667 761.5,-456.667 761.5,-464.333 761.5,-464.333 761.5,-468.167 757.667,-472 753.833,-472"/>
<text text-anchor="middle" x="670.5" y="-456.8" font-family="Arial" font-size="14.00" fill="#c6c5fe">components/statDisplay.js</text>
</g>
<!-- components/statBar.js&#45;&gt;components/statDisplay.js -->
<g id="edge22" class="edge"><title>components/statBar.js&#45;&gt;components/statDisplay.js</title>
<path fill="none" stroke="#757575" d="M504.899,-431.03C532.945,-436.051 565.986,-441.967 595.078,-447.175"/>
<polygon fill="#757575" stroke="#757575" points="594.728,-450.668 605.188,-448.986 595.962,-443.778 594.728,-450.668"/>
</g>
<!-- components/timeDisplay.js -->
<g id="node25" class="node"><title>components/timeDisplay.js</title>
<path fill="none" stroke="#cfffac" d="M756.333,-431C756.333,-431 584.667,-431 584.667,-431 580.833,-431 577,-427.167 577,-423.333 577,-423.333 577,-415.667 577,-415.667 577,-411.833 580.833,-408 584.667,-408 584.667,-408 756.333,-408 756.333,-408 760.167,-408 764,-411.833 764,-415.667 764,-415.667 764,-423.333 764,-423.333 764,-427.167 760.167,-431 756.333,-431"/>
<text text-anchor="middle" x="670.5" y="-415.8" font-family="Arial" font-size="14.00" fill="#cfffac">components/timeDisplay.js</text>
</g>
<!-- components/statBar.js&#45;&gt;components/timeDisplay.js -->
<g id="edge23" class="edge"><title>components/statBar.js&#45;&gt;components/timeDisplay.js</title>
<path fill="none" stroke="#757575" d="M518.668,-419.5C533.974,-419.5 550.245,-419.5 566.223,-419.5"/>
<polygon fill="#757575" stroke="#757575" points="566.666,-423 576.666,-419.5 566.666,-416 566.666,-423"/>
</g>
<!-- components/button.js -->
<g id="node18" class="node"><title>components/button.js</title>
<path fill="none" stroke="#cfffac" d="M1186.33,-690C1186.33,-690 1049.67,-690 1049.67,-690 1045.83,-690 1042,-686.167 1042,-682.333 1042,-682.333 1042,-674.667 1042,-674.667 1042,-670.833 1045.83,-667 1049.67,-667 1049.67,-667 1186.33,-667 1186.33,-667 1190.17,-667 1194,-670.833 1194,-674.667 1194,-674.667 1194,-682.333 1194,-682.333 1194,-686.167 1190.17,-690 1186.33,-690"/>
<text text-anchor="middle" x="1118" y="-674.8" font-family="Arial" font-size="14.00" fill="#cfffac">components/button.js</text>
</g>
<!-- components/buttonGrid.js&#45;&gt;actions/Engine.js -->
<g id="edge14" class="edge"><title>components/buttonGrid.js&#45;&gt;actions/Engine.js</title>
<path fill="none" stroke="#757575" d="M760.103,-542.5C781.669,-542.5 804.464,-542.5 825.115,-542.5"/>
<polygon fill="#757575" stroke="#757575" points="825.383,-546 835.383,-542.5 825.383,-539 825.383,-546"/>
</g>
<!-- components/buttonWrap.js -->
<g id="node20" class="node"><title>components/buttonWrap.js</title>
<path fill="none" stroke="#c6c5fe" d="M983.333,-642C983.333,-642 811.667,-642 811.667,-642 807.833,-642 804,-638.167 804,-634.333 804,-634.333 804,-626.667 804,-626.667 804,-622.833 807.833,-619 811.667,-619 811.667,-619 983.333,-619 983.333,-619 987.167,-619 991,-622.833 991,-626.667 991,-626.667 991,-634.333 991,-634.333 991,-638.167 987.167,-642 983.333,-642"/>
<text text-anchor="middle" x="897.5" y="-626.8" font-family="Arial" font-size="14.00" fill="#c6c5fe">components/buttonWrap.js</text>
</g>
<!-- components/buttonGrid.js&#45;&gt;components/buttonWrap.js -->
<g id="edge15" class="edge"><title>components/buttonGrid.js&#45;&gt;components/buttonWrap.js</title>
<path fill="none" stroke="#757575" d="M700.915,-554.004C741.088,-569.717 813.199,-597.92 857.742,-615.341"/>
<polygon fill="#757575" stroke="#757575" points="856.49,-618.61 867.078,-618.993 859.04,-612.091 856.49,-618.61"/>
</g>
<!-- components/buttonWrap.js&#45;&gt;components/button.js -->
<g id="edge16" class="edge"><title>components/buttonWrap.js&#45;&gt;components/button.js</title>
<path fill="none" stroke="#757575" d="M951.114,-642.058C982.242,-648.896 1021.85,-657.597 1054.55,-664.782"/>
<polygon fill="#757575" stroke="#757575" points="1053.95,-668.232 1064.46,-666.959 1055.45,-661.395 1053.95,-668.232"/>
</g>
<!-- components/nameInput.js -->
<g id="node21" class="node"><title>components/nameInput.js</title>
<path fill="none" stroke="#c6c5fe" d="M1992.33,-381C1992.33,-381 1827.67,-381 1827.67,-381 1823.83,-381 1820,-377.167 1820,-373.333 1820,-373.333 1820,-365.667 1820,-365.667 1820,-361.833 1823.83,-358 1827.67,-358 1827.67,-358 1992.33,-358 1992.33,-358 1996.17,-358 2000,-361.833 2000,-365.667 2000,-365.667 2000,-373.333 2000,-373.333 2000,-377.167 1996.17,-381 1992.33,-381"/>
<text text-anchor="middle" x="1910" y="-365.8" font-family="Arial" font-size="14.00" fill="#c6c5fe">components/nameInput.js</text>
</g>
<!-- components/nameInput.js&#45;&gt;store/store.js -->
<g id="edge20" class="edge"><title>components/nameInput.js&#45;&gt;store/store.js</title>
<path fill="none" stroke="#757575" d="M1990.98,-357.976C2040.31,-348.622 2103.73,-332.436 2155,-305.5 2173.69,-295.68 2172.68,-284.996 2191,-274.5 2198.31,-270.315 2206.39,-266.657 2214.49,-263.512"/>
<polygon fill="#757575" stroke="#757575" points="2215.75,-266.775 2223.94,-260.053 2213.35,-260.201 2215.75,-266.775"/>
</g>
<!-- components/nameInput.js&#45;&gt;actions/Player.js -->
<g id="edge19" class="edge"><title>components/nameInput.js&#45;&gt;actions/Player.js</title>
<path fill="none" stroke="#757575" d="M2000.06,-369.5C2008.7,-369.5 2017.36,-369.5 2025.75,-369.5"/>
<polygon fill="#757575" stroke="#757575" points="2025.83,-373 2035.83,-369.5 2025.83,-366 2025.83,-373"/>
</g>
<!-- components/stat.js -->
<g id="node23" class="node"><title>components/stat.js</title>
<path fill="none" stroke="#cfffac" d="M957.833,-472C957.833,-472 837.167,-472 837.167,-472 833.333,-472 829.5,-468.167 829.5,-464.333 829.5,-464.333 829.5,-456.667 829.5,-456.667 829.5,-452.833 833.333,-449 837.167,-449 837.167,-449 957.833,-449 957.833,-449 961.667,-449 965.5,-452.833 965.5,-456.667 965.5,-456.667 965.5,-464.333 965.5,-464.333 965.5,-468.167 961.667,-472 957.833,-472"/>
<text text-anchor="middle" x="897.5" y="-456.8" font-family="Arial" font-size="14.00" fill="#cfffac">components/stat.js</text>
</g>
<!-- components/statDisplay.js&#45;&gt;components/stat.js -->
<g id="edge24" class="edge"><title>components/statDisplay.js&#45;&gt;components/stat.js</title>
<path fill="none" stroke="#757575" d="M761.72,-460.5C780.804,-460.5 800.779,-460.5 819.327,-460.5"/>
<polygon fill="#757575" stroke="#757575" points="819.471,-464 829.471,-460.5 819.471,-457 819.471,-464"/>
</g>
<!-- index.js -->
<g id="node26" class="node"><title>index.js</title>
<path fill="none" stroke="#c6c5fe" d="M75.8333,-349C75.8333,-349 26.1667,-349 26.1667,-349 22.3333,-349 18.5,-345.167 18.5,-341.333 18.5,-341.333 18.5,-333.667 18.5,-333.667 18.5,-329.833 22.3333,-326 26.1667,-326 26.1667,-326 75.8333,-326 75.8333,-326 79.6667,-326 83.5,-329.833 83.5,-333.667 83.5,-333.667 83.5,-341.333 83.5,-341.333 83.5,-345.167 79.6667,-349 75.8333,-349"/>
<text text-anchor="middle" x="51" y="-333.8" font-family="Arial" font-size="14.00" fill="#c6c5fe">index.js</text>
</g>
<!-- index.js&#45;&gt;store/store.js -->
<g id="edge26" class="edge"><title>index.js&#45;&gt;store/store.js</title>
<path fill="none" stroke="#757575" d="M73.0506,-325.802C130.039,-295.267 292.846,-215.5 438.5,-215.5 438.5,-215.5 438.5,-215.5 1911,-215.5 2016.16,-215.5 2138.05,-229.953 2208.47,-239.729"/>
<polygon fill="#757575" stroke="#757575" points="2208.08,-243.21 2218.47,-241.135 2209.06,-236.278 2208.08,-243.21"/>
</g>
<!-- index.js&#45;&gt;components/appRoot.js -->
<g id="edge25" class="edge"><title>index.js&#45;&gt;components/appRoot.js</title>
<path fill="none" stroke="#757575" d="M83.713,-348.329C89.9598,-350.972 96.3305,-354.048 102,-357.5 141.664,-381.654 181.114,-419.136 203.151,-441.602"/>
<polygon fill="#757575" stroke="#757575" points="200.721,-444.124 210.191,-448.876 205.751,-439.256 200.721,-444.124"/>
</g>
<!-- reducers/root.js&#45;&gt;actions/coreMsg.js -->
<g id="edge27" class="edge"><title>reducers/root.js&#45;&gt;actions/coreMsg.js</title>
<path fill="none" stroke="#757575" d="M2473.54,-260.146C2494.04,-269.785 2524.8,-283.061 2553,-290.5 2630.54,-310.958 2721.9,-321.135 2785.06,-326.079"/>
<polygon fill="#757575" stroke="#757575" points="2785.11,-329.592 2795.34,-326.857 2785.64,-322.612 2785.11,-329.592"/>
</g>
<!-- reducers/root.js&#45;&gt;actions/playerMsg.js -->
<g id="edge29" class="edge"><title>reducers/root.js&#45;&gt;actions/playerMsg.js</title>
<path fill="none" stroke="#757575" d="M2489.74,-260C2508.71,-264.912 2531.84,-270.067 2553,-272.5 2629.61,-281.308 2717.61,-279.909 2780.06,-276.988"/>
<polygon fill="#757575" stroke="#757575" points="2780.43,-280.475 2790.24,-276.488 2780.08,-273.483 2780.43,-280.475"/>
</g>
<!-- reducers/root.js&#45;&gt;actions/engineMsg.js -->
<g id="edge28" class="edge"><title>reducers/root.js&#45;&gt;actions/engineMsg.js</title>
<path fill="none" stroke="#757575" d="M2466.72,-236.996C2486.49,-223.905 2520.78,-202.757 2553,-190.5 2558.48,-188.415 2564.23,-186.522 2570.07,-184.808"/>
<polygon fill="#757575" stroke="#757575" points="2571.23,-188.118 2579.95,-182.089 2569.38,-181.369 2571.23,-188.118"/>
</g>
<!-- reducers/updateBodyArr.js -->
<g id="node28" class="node"><title>reducers/updateBodyArr.js</title>
<path fill="none" stroke="#c6c5fe" d="M2731.33,-223C2731.33,-223 2560.67,-223 2560.67,-223 2556.83,-223 2553,-219.167 2553,-215.333 2553,-215.333 2553,-207.667 2553,-207.667 2553,-203.833 2556.83,-200 2560.67,-200 2560.67,-200 2731.33,-200 2731.33,-200 2735.17,-200 2739,-203.833 2739,-207.667 2739,-207.667 2739,-215.333 2739,-215.333 2739,-219.167 2735.17,-223 2731.33,-223"/>
<text text-anchor="middle" x="2646" y="-207.8" font-family="Arial" font-size="14.00" fill="#c6c5fe">reducers/updateBodyArr.js</text>
</g>
<!-- reducers/root.js&#45;&gt;reducers/updateBodyArr.js -->
<g id="edge30" class="edge"><title>reducers/root.js&#45;&gt;reducers/updateBodyArr.js</title>
<path fill="none" stroke="#757575" d="M2507.19,-237.649C2528.14,-233.673 2552.11,-229.125 2574.12,-224.95"/>
<polygon fill="#757575" stroke="#757575" points="2574.9,-228.363 2584.07,-223.06 2573.6,-221.486 2574.9,-228.363"/>
</g>
<!-- reducers/updateStats.js -->
<g id="node29" class="node"><title>reducers/updateStats.js</title>
<path fill="none" stroke="#c6c5fe" d="M2721.83,-264C2721.83,-264 2570.17,-264 2570.17,-264 2566.33,-264 2562.5,-260.167 2562.5,-256.333 2562.5,-256.333 2562.5,-248.667 2562.5,-248.667 2562.5,-244.833 2566.33,-241 2570.17,-241 2570.17,-241 2721.83,-241 2721.83,-241 2725.67,-241 2729.5,-244.833 2729.5,-248.667 2729.5,-248.667 2729.5,-256.333 2729.5,-256.333 2729.5,-260.167 2725.67,-264 2721.83,-264"/>
<text text-anchor="middle" x="2646" y="-248.8" font-family="Arial" font-size="14.00" fill="#c6c5fe">reducers/updateStats.js</text>
</g>
<!-- reducers/root.js&#45;&gt;reducers/updateStats.js -->
<g id="edge31" class="edge"><title>reducers/root.js&#45;&gt;reducers/updateStats.js</title>
<path fill="none" stroke="#757575" d="M2507.19,-249.673C2521.39,-249.964 2536.97,-250.284 2552.38,-250.6"/>
<polygon fill="#757575" stroke="#757575" points="2552.41,-254.101 2562.48,-250.807 2552.55,-247.103 2552.41,-254.101"/>
</g>
<!-- reducers/updateTime.js -->
<g id="node30" class="node"><title>reducers/updateTime.js</title>
<path fill="none" stroke="#c6c5fe" d="M2721.83,-23C2721.83,-23 2570.17,-23 2570.17,-23 2566.33,-23 2562.5,-19.1667 2562.5,-15.3333 2562.5,-15.3333 2562.5,-7.66667 2562.5,-7.66667 2562.5,-3.83333 2566.33,-0 2570.17,-0 2570.17,-0 2721.83,-0 2721.83,-0 2725.67,-0 2729.5,-3.83333 2729.5,-7.66667 2729.5,-7.66667 2729.5,-15.3333 2729.5,-15.3333 2729.5,-19.1667 2725.67,-23 2721.83,-23"/>
<text text-anchor="middle" x="2646" y="-7.8" font-family="Arial" font-size="14.00" fill="#c6c5fe">reducers/updateTime.js</text>
</g>
<!-- reducers/root.js&#45;&gt;reducers/updateTime.js -->
<g id="edge32" class="edge"><title>reducers/root.js&#45;&gt;reducers/updateTime.js</title>
<path fill="none" stroke="#757575" d="M2463.11,-236.862C2478.3,-222.667 2503.03,-197.238 2517,-170.5 2546.56,-113.941 2507,-75.728 2553,-31.5 2553.96,-30.576 2554.95,-29.6907 2555.98,-28.8423"/>
<polygon fill="#757575" stroke="#757575" points="2558.12,-31.6174 2564.33,-23.0391 2554.12,-25.8675 2558.12,-31.6174"/>
</g>
<!-- store/initialState.js -->
<g id="node31" class="node"><title>store/initialState.js</title>
<path fill="none" stroke="#c6c5fe" d="M2703.83,-420C2703.83,-420 2588.17,-420 2588.17,-420 2584.33,-420 2580.5,-416.167 2580.5,-412.333 2580.5,-412.333 2580.5,-404.667 2580.5,-404.667 2580.5,-400.833 2584.33,-397 2588.17,-397 2588.17,-397 2703.83,-397 2703.83,-397 2707.67,-397 2711.5,-400.833 2711.5,-404.667 2711.5,-404.667 2711.5,-412.333 2711.5,-412.333 2711.5,-416.167 2707.67,-420 2703.83,-420"/>
<text text-anchor="middle" x="2646" y="-404.8" font-family="Arial" font-size="14.00" fill="#c6c5fe">store/initialState.js</text>
</g>
<!-- reducers/root.js&#45;&gt;store/initialState.js -->
<g id="edge33" class="edge"><title>reducers/root.js&#45;&gt;store/initialState.js</title>
<path fill="none" stroke="#757575" d="M2461.25,-260.003C2479.69,-278.612 2517.81,-316.099 2553,-344.5 2574.18,-361.589 2599.67,-379.107 2618.45,-391.485"/>
<polygon fill="#757575" stroke="#757575" points="2616.53,-394.415 2626.82,-396.957 2620.36,-388.556 2616.53,-394.415"/>
</g>
<!-- reducers/root.js&#45;&gt;utils.js -->
<g id="edge34" class="edge"><title>reducers/root.js&#45;&gt;utils.js</title>
<path fill="none" stroke="#757575" d="M2458.38,-236.748C2474.22,-215.517 2510.78,-170.98 2553,-149.5 2627.83,-111.432 2656.46,-131.873 2739,-116.5 2767.82,-111.132 2800.38,-104.765 2824.76,-99.9389"/>
<polygon fill="#757575" stroke="#757575" points="2825.54,-103.352 2834.67,-97.9721 2824.18,-96.4856 2825.54,-103.352"/>
</g>
<!-- reducers/updateBodyArr.js&#45;&gt;actions/playerMsg.js -->
<g id="edge35" class="edge"><title>reducers/updateBodyArr.js&#45;&gt;actions/playerMsg.js</title>
<path fill="none" stroke="#757575" d="M2704.63,-223.099C2716.07,-225.662 2727.96,-228.512 2739,-231.5 2766.22,-238.864 2796.32,-248.627 2819.94,-256.664"/>
<polygon fill="#757575" stroke="#757575" points="2819.04,-260.056 2829.64,-259.991 2821.31,-253.435 2819.04,-260.056"/>
</g>
<!-- reducers/updateStats.js&#45;&gt;actions/coreMsg.js -->
<g id="edge37" class="edge"><title>reducers/updateStats.js&#45;&gt;actions/coreMsg.js</title>
<path fill="none" stroke="#757575" d="M2678.72,-264.009C2716.36,-277.662 2779.2,-300.46 2820.62,-315.488"/>
<polygon fill="#757575" stroke="#757575" points="2819.55,-318.823 2830.15,-318.944 2821.94,-312.243 2819.55,-318.823"/>
</g>
<!-- reducers/updateStats.js&#45;&gt;actions/playerMsg.js -->
<g id="edge38" class="edge"><title>reducers/updateStats.js&#45;&gt;actions/playerMsg.js</title>
<path fill="none" stroke="#757575" d="M2729.51,-259.792C2746.08,-261.256 2763.5,-262.795 2780.05,-264.258"/>
<polygon fill="#757575" stroke="#757575" points="2779.96,-267.764 2790.23,-265.158 2780.58,-260.791 2779.96,-267.764"/>
</g>
<!-- reducers/updateStats.js&#45;&gt;utils.js -->
<g id="edge39" class="edge"><title>reducers/updateStats.js&#45;&gt;utils.js</title>
<path fill="none" stroke="#757575" d="M2718.55,-240.884C2725.71,-238.349 2732.66,-235.261 2739,-231.5 2789.73,-201.404 2830.81,-143.273 2850.09,-112.591"/>
<polygon fill="#757575" stroke="#757575" points="2853.11,-114.365 2855.36,-104.012 2847.15,-110.7 2853.11,-114.365"/>
</g>
<!-- reducers/updateTime.js&#45;&gt;utils.js -->
<g id="edge40" class="edge"><title>reducers/updateTime.js&#45;&gt;utils.js</title>
<path fill="none" stroke="#757575" d="M2709.93,-23.0128C2719.77,-25.4326 2729.75,-28.2551 2739,-31.5 2772.71,-43.3185 2809.1,-62.2029 2833.48,-75.8311"/>
<polygon fill="#757575" stroke="#757575" points="2831.78,-78.8905 2842.21,-80.7712 2835.23,-72.7989 2831.78,-78.8905"/>
</g>
<!-- store/initialState.js&#45;&gt;scenes/sceneSymbols.js -->
<g id="edge57" class="edge"><title>store/initialState.js&#45;&gt;scenes/sceneSymbols.js</title>
<path fill="none" stroke="#757575" d="M2665.33,-420.01C2703.24,-443.812 2790.41,-498.547 2834.86,-526.459"/>
<polygon fill="#757575" stroke="#757575" points="2833.08,-529.474 2843.41,-531.827 2836.8,-523.546 2833.08,-529.474"/>
</g>
<!-- reducers/updateButtons.js -->
<g id="node33" class="node"><title>reducers/updateButtons.js</title>
<path fill="none" stroke="#c6c5fe" d="M2729.33,-64C2729.33,-64 2562.67,-64 2562.67,-64 2558.83,-64 2555,-60.1667 2555,-56.3333 2555,-56.3333 2555,-48.6667 2555,-48.6667 2555,-44.8333 2558.83,-41 2562.67,-41 2562.67,-41 2729.33,-41 2729.33,-41 2733.17,-41 2737,-44.8333 2737,-48.6667 2737,-48.6667 2737,-56.3333 2737,-56.3333 2737,-60.1667 2733.17,-64 2729.33,-64"/>
<text text-anchor="middle" x="2646" y="-48.8" font-family="Arial" font-size="14.00" fill="#c6c5fe">reducers/updateButtons.js</text>
</g>
<!-- reducers/updateButtons.js&#45;&gt;utils.js -->
<g id="edge36" class="edge"><title>reducers/updateButtons.js&#45;&gt;utils.js</title>
<path fill="none" stroke="#757575" d="M2708.9,-64.016C2746.35,-70.9832 2792.86,-79.6365 2824.73,-85.5657"/>
<polygon fill="#757575" stroke="#757575" points="2824.47,-89.0774 2834.94,-87.4656 2825.75,-82.1955 2824.47,-89.0774"/>
</g>
<!-- scenes/charCreation.js&#45;&gt;actions/Core.js -->
<g id="edge41" class="edge"><title>scenes/charCreation.js&#45;&gt;actions/Core.js</title>
<path fill="none" stroke="#757575" d="M1383.3,-436.894C1391.14,-434.324 1398.93,-431.224 1406,-427.5 1424.68,-417.664 1422.61,-404.864 1442,-396.5 1501.16,-370.978 1575.25,-366.248 1627.36,-366.815"/>
<polygon fill="#757575" stroke="#757575" points="1627.41,-370.317 1637.48,-366.995 1627.54,-363.318 1627.41,-370.317"/>
</g>
<!-- scenes/charCreation.js&#45;&gt;scenes/sceneSymbols.js -->
<g id="edge44" class="edge"><title>scenes/charCreation.js&#45;&gt;scenes/sceneSymbols.js</title>
<path fill="none" stroke="#757575" d="M1345,-460.093C1367.25,-473.551 1406.07,-495.552 1442,-508.5 1548.94,-547.043 1578.33,-562.5 1692,-562.5 1692,-562.5 1692,-562.5 2450,-562.5 2557.75,-562.5 2681.17,-555.936 2764.62,-550.524"/>
<polygon fill="#757575" stroke="#757575" points="2765.1,-554 2774.85,-549.853 2764.64,-547.015 2765.1,-554"/>
</g>
<!-- scenes/charCreation.js&#45;&gt;actions/Player.js -->
<g id="edge42" class="edge"><title>scenes/charCreation.js&#45;&gt;actions/Player.js</title>
<path fill="none" stroke="#757575" d="M1406.18,-444.652C1532.6,-437.845 1786.68,-421.297 2000,-389.5 2011.55,-387.779 2023.8,-385.515 2035.52,-383.131"/>
<polygon fill="#757575" stroke="#757575" points="2036.58,-386.485 2045.66,-381.015 2035.15,-379.633 2036.58,-386.485"/>
</g>
<!-- scenes/charCreation.js&#45;&gt;scenes/menus.js -->
<g id="edge43" class="edge"><title>scenes/charCreation.js&#45;&gt;scenes/menus.js</title>
<path fill="none" stroke="#757575" d="M1377.55,-460.07C1397.77,-464.651 1421.17,-469.955 1442.25,-474.731"/>
<polygon fill="#757575" stroke="#757575" points="1441.54,-478.159 1452.06,-476.956 1443.08,-471.333 1441.54,-478.159"/>
</g>
<!-- scenes/sceneTextStore.js -->
<g id="node36" class="node"><title>scenes/sceneTextStore.js</title>
<path fill="none" stroke="#c6c5fe" d="M1776.33,-479C1776.33,-479 1609.67,-479 1609.67,-479 1605.83,-479 1602,-475.167 1602,-471.333 1602,-471.333 1602,-463.667 1602,-463.667 1602,-459.833 1605.83,-456 1609.67,-456 1609.67,-456 1776.33,-456 1776.33,-456 1780.17,-456 1784,-459.833 1784,-463.667 1784,-463.667 1784,-471.333 1784,-471.333 1784,-475.167 1780.17,-479 1776.33,-479"/>
<text text-anchor="middle" x="1693" y="-463.8" font-family="Arial" font-size="14.00" fill="#c6c5fe">scenes/sceneTextStore.js</text>
</g>
<!-- scenes/charCreation.js&#45;&gt;scenes/sceneTextStore.js -->
<g id="edge45" class="edge"><title>scenes/charCreation.js&#45;&gt;scenes/sceneTextStore.js</title>
<path fill="none" stroke="#757575" d="M1406.26,-452.646C1460.76,-455.48 1533.42,-459.256 1591.82,-462.292"/>
<polygon fill="#757575" stroke="#757575" points="1591.64,-465.788 1601.81,-462.812 1592,-458.797 1591.64,-465.788"/>
</g>
<!-- scenes/menus.js&#45;&gt;actions/Core.js -->
<g id="edge46" class="edge"><title>scenes/menus.js&#45;&gt;actions/Core.js</title>
<path fill="none" stroke="#757575" d="M1523.27,-476.971C1556.37,-456.086 1626.38,-411.906 1665.01,-387.534"/>
<polygon fill="#757575" stroke="#757575" points="1667.07,-390.373 1673.66,-382.076 1663.33,-384.453 1667.07,-390.373"/>
</g>
<!-- scenes/menus.js&#45;&gt;scenes/sceneSymbols.js -->
<g id="edge47" class="edge"><title>scenes/menus.js&#45;&gt;scenes/sceneSymbols.js</title>
<path fill="none" stroke="#757575" d="M1566.11,-497.353C1645.1,-508.012 1787,-524.5 1909,-524.5 1909,-524.5 1909,-524.5 2450,-524.5 2557.75,-524.5 2681.17,-531.064 2764.62,-536.476"/>
<polygon fill="#757575" stroke="#757575" points="2764.64,-539.985 2774.85,-537.147 2765.1,-533 2764.64,-539.985"/>
</g>
<!-- scenes/menus.js&#45;&gt;scenes/sceneTextStore.js -->
<g id="edge48" class="edge"><title>scenes/menus.js&#45;&gt;scenes/sceneTextStore.js</title>
<path fill="none" stroke="#757575" d="M1566.23,-481.624C1574.42,-480.704 1582.99,-479.742 1591.64,-478.771"/>
<polygon fill="#757575" stroke="#757575" points="1592.26,-482.223 1601.81,-477.629 1591.48,-475.266 1592.26,-482.223"/>
</g>
<!-- scenes/sceneTextStore.js&#45;&gt;scenes/sceneSymbols.js -->
<g id="edge56" class="edge"><title>scenes/sceneTextStore.js&#45;&gt;scenes/sceneSymbols.js</title>
<path fill="none" stroke="#757575" d="M1784.21,-474.225C1865.34,-479.691 1987.82,-486.5 2094.5,-486.5 2094.5,-486.5 2094.5,-486.5 2450,-486.5 2578.89,-486.5 2612.03,-488.379 2739,-510.5 2764.8,-514.996 2793.07,-522.397 2815.99,-529.053"/>
<polygon fill="#757575" stroke="#757575" points="2815.2,-532.471 2825.78,-531.947 2817.19,-525.758 2815.2,-532.471"/>
</g>
<!-- scenes/sceneTextStore.js&#45;&gt;components/nameInput.js -->
<g id="edge55" class="edge"><title>scenes/sceneTextStore.js&#45;&gt;components/nameInput.js</title>
<path fill="none" stroke="#757575" d="M1719.51,-455.873C1757.98,-438.338 1830.94,-405.083 1874.24,-385.345"/>
<polygon fill="#757575" stroke="#757575" points="1875.88,-388.444 1883.53,-381.112 1872.97,-382.074 1875.88,-388.444"/>
</g>
<!-- setupTests.js -->
<g id="node38" class="node"><title>setupTests.js</title>
<path fill="none" stroke="#cfffac" d="M94.3333,-390C94.3333,-390 7.66667,-390 7.66667,-390 3.83333,-390 0,-386.167 0,-382.333 0,-382.333 0,-374.667 0,-374.667 0,-370.833 3.83333,-367 7.66667,-367 7.66667,-367 94.3333,-367 94.3333,-367 98.1667,-367 102,-370.833 102,-374.667 102,-374.667 102,-382.333 102,-382.333 102,-386.167 98.1667,-390 94.3333,-390"/>
<text text-anchor="middle" x="51" y="-374.8" font-family="Arial" font-size="14.00" fill="#cfffac">setupTests.js</text>
</g>
</g>
</svg>
