<?xml version="1.0" encoding="UTF-8" standalone="no"?>
<!DOCTYPE svg PUBLIC "-//W3C//DTD SVG 1.1//EN"
 "http://www.w3.org/Graphics/SVG/1.1/DTD/svg11.dtd">
<!-- Generated by graphviz version 2.38.0 (20140413.2041)
 -->
<!-- Title: G Pages: 1 -->
<svg width="2994pt" height="759pt"
 viewBox="0.00 0.00 2994.20 758.70" xmlns="http://www.w3.org/2000/svg" xmlns:xlink="http://www.w3.org/1999/xlink">
<g id="graph0" class="graph" transform="scale(1 1) rotate(0) translate(21.6 737.1)">
<title>G</title>
<polygon fill="#111111" stroke="none" points="-21.6,21.6 -21.6,-737.1 2972.6,-737.1 2972.6,21.6 -21.6,21.6"/>
<!-- actions/Core.js -->
<g id="node1" class="node"><title>actions/Core.js</title>
<path fill="none" stroke="#c6c5fe" d="M1740.83,-281.5C1740.83,-281.5 1645.17,-281.5 1645.17,-281.5 1641.33,-281.5 1637.5,-277.667 1637.5,-273.833 1637.5,-273.833 1637.5,-266.167 1637.5,-266.167 1637.5,-262.333 1641.33,-258.5 1645.17,-258.5 1645.17,-258.5 1740.83,-258.5 1740.83,-258.5 1744.67,-258.5 1748.5,-262.333 1748.5,-266.167 1748.5,-266.167 1748.5,-273.833 1748.5,-273.833 1748.5,-277.667 1744.67,-281.5 1740.83,-281.5"/>
<text text-anchor="middle" x="1693" y="-266.3" font-family="Arial" font-size="14.00" fill="#c6c5fe">actions/Core.js</text>
</g>
<!-- actions/coreMsg.js -->
<g id="node2" class="node"><title>actions/coreMsg.js</title>
<path fill="none" stroke="#cfffac" d="M2922.83,-281.5C2922.83,-281.5 2803.17,-281.5 2803.17,-281.5 2799.33,-281.5 2795.5,-277.667 2795.5,-273.833 2795.5,-273.833 2795.5,-266.167 2795.5,-266.167 2795.5,-262.333 2799.33,-258.5 2803.17,-258.5 2803.17,-258.5 2922.83,-258.5 2922.83,-258.5 2926.67,-258.5 2930.5,-262.333 2930.5,-266.167 2930.5,-266.167 2930.5,-273.833 2930.5,-273.833 2930.5,-277.667 2926.67,-281.5 2922.83,-281.5"/>
<text text-anchor="middle" x="2863" y="-266.3" font-family="Arial" font-size="14.00" fill="#cfffac">actions/coreMsg.js</text>
</g>
<!-- actions/Core.js&#45;&gt;actions/coreMsg.js -->
<g id="edge1" class="edge"><title>actions/Core.js&#45;&gt;actions/coreMsg.js</title>
<path fill="none" stroke="#757575" d="M1728.09,-258.453C1796.64,-236.298 1956.41,-190 2094.5,-190 2094.5,-190 2094.5,-190 2450,-190 2578.72,-190 2614.71,-175.533 2739,-209 2774.31,-218.507 2811.47,-238.524 2835.58,-253.041"/>
<polygon fill="#757575" stroke="#757575" points="2833.8,-256.054 2844.15,-258.302 2837.46,-250.088 2833.8,-256.054"/>
</g>
<!-- store/store.js -->
<g id="node3" class="node"><title>store/store.js</title>
<path fill="none" stroke="#c6c5fe" d="M2309.83,-362.5C2309.83,-362.5 2226.17,-362.5 2226.17,-362.5 2222.33,-362.5 2218.5,-358.667 2218.5,-354.833 2218.5,-354.833 2218.5,-347.167 2218.5,-347.167 2218.5,-343.333 2222.33,-339.5 2226.17,-339.5 2226.17,-339.5 2309.83,-339.5 2309.83,-339.5 2313.67,-339.5 2317.5,-343.333 2317.5,-347.167 2317.5,-347.167 2317.5,-354.833 2317.5,-354.833 2317.5,-358.667 2313.67,-362.5 2309.83,-362.5"/>
<text text-anchor="middle" x="2268" y="-347.3" font-family="Arial" font-size="14.00" fill="#c6c5fe">store/store.js</text>
</g>
<!-- actions/Core.js&#45;&gt;store/store.js -->
<g id="edge2" class="edge"><title>actions/Core.js&#45;&gt;store/store.js</title>
<path fill="none" stroke="#757575" d="M1748.65,-271.497C1810.02,-273.66 1912.48,-278.716 2000,-290 2069.59,-298.973 2086.69,-303.962 2155,-320 2176,-324.931 2199,-331.152 2218.66,-336.724"/>
<polygon fill="#757575" stroke="#757575" points="2217.74,-340.1 2228.32,-339.483 2219.67,-333.37 2217.74,-340.1"/>
</g>
<!-- reducers/root.js -->
<g id="node27" class="node"><title>reducers/root.js</title>
<path fill="none" stroke="#c6c5fe" d="M2499.33,-362.5C2499.33,-362.5 2398.67,-362.5 2398.67,-362.5 2394.83,-362.5 2391,-358.667 2391,-354.833 2391,-354.833 2391,-347.167 2391,-347.167 2391,-343.333 2394.83,-339.5 2398.67,-339.5 2398.67,-339.5 2499.33,-339.5 2499.33,-339.5 2503.17,-339.5 2507,-343.333 2507,-347.167 2507,-347.167 2507,-354.833 2507,-354.833 2507,-358.667 2503.17,-362.5 2499.33,-362.5"/>
<text text-anchor="middle" x="2449" y="-347.3" font-family="Arial" font-size="14.00" fill="#c6c5fe">reducers/root.js</text>
</g>
<!-- store/store.js&#45;&gt;reducers/root.js -->
<g id="edge61" class="edge"><title>store/store.js&#45;&gt;reducers/root.js</title>
<path fill="none" stroke="#757575" d="M2317.91,-351C2337.31,-351 2359.92,-351 2380.81,-351"/>
<polygon fill="#757575" stroke="#757575" points="2380.9,-354.5 2390.9,-351 2380.9,-347.5 2380.9,-354.5"/>
</g>
<!-- actions/Engine.js -->
<g id="node4" class="node"><title>actions/Engine.js</title>
<path fill="none" stroke="#c6c5fe" d="M951.833,-304.5C951.833,-304.5 843.167,-304.5 843.167,-304.5 839.333,-304.5 835.5,-300.667 835.5,-296.833 835.5,-296.833 835.5,-289.167 835.5,-289.167 835.5,-285.333 839.333,-281.5 843.167,-281.5 843.167,-281.5 951.833,-281.5 951.833,-281.5 955.667,-281.5 959.5,-285.333 959.5,-289.167 959.5,-289.167 959.5,-296.833 959.5,-296.833 959.5,-300.667 955.667,-304.5 951.833,-304.5"/>
<text text-anchor="middle" x="897.5" y="-289.3" font-family="Arial" font-size="14.00" fill="#c6c5fe">actions/Engine.js</text>
</g>
<!-- scenes/sceneFunctions.js -->
<g id="node5" class="node"><title>scenes/sceneFunctions.js</title>
<path fill="none" stroke="#c6c5fe" d="M1201.33,-304.5C1201.33,-304.5 1034.67,-304.5 1034.67,-304.5 1030.83,-304.5 1027,-300.667 1027,-296.833 1027,-296.833 1027,-289.167 1027,-289.167 1027,-285.333 1030.83,-281.5 1034.67,-281.5 1034.67,-281.5 1201.33,-281.5 1201.33,-281.5 1205.17,-281.5 1209,-285.333 1209,-289.167 1209,-289.167 1209,-296.833 1209,-296.833 1209,-300.667 1205.17,-304.5 1201.33,-304.5"/>
<text text-anchor="middle" x="1118" y="-289.3" font-family="Arial" font-size="14.00" fill="#c6c5fe">scenes/sceneFunctions.js</text>
</g>
<!-- actions/Engine.js&#45;&gt;scenes/sceneFunctions.js -->
<g id="edge3" class="edge"><title>actions/Engine.js&#45;&gt;scenes/sceneFunctions.js</title>
<path fill="none" stroke="#757575" d="M959.655,-293C977.394,-293 997.247,-293 1016.72,-293"/>
<polygon fill="#757575" stroke="#757575" points="1016.85,-296.5 1026.85,-293 1016.85,-289.5 1016.85,-296.5"/>
</g>
<!-- scenes/sceneSymbols.js -->
<g id="node6" class="node"><title>scenes/sceneSymbols.js</title>
<path fill="none" stroke="#cfffac" d="M2943.33,-106.5C2943.33,-106.5 2782.67,-106.5 2782.67,-106.5 2778.83,-106.5 2775,-102.667 2775,-98.8333 2775,-98.8333 2775,-91.1667 2775,-91.1667 2775,-87.3333 2778.83,-83.5 2782.67,-83.5 2782.67,-83.5 2943.33,-83.5 2943.33,-83.5 2947.17,-83.5 2951,-87.3333 2951,-91.1667 2951,-91.1667 2951,-98.8333 2951,-98.8333 2951,-102.667 2947.17,-106.5 2943.33,-106.5"/>
<text text-anchor="middle" x="2863" y="-91.3" font-family="Arial" font-size="14.00" fill="#cfffac">scenes/sceneSymbols.js</text>
</g>
<!-- actions/Engine.js&#45;&gt;scenes/sceneSymbols.js -->
<g id="edge4" class="edge"><title>actions/Engine.js&#45;&gt;scenes/sceneSymbols.js</title>
<path fill="none" stroke="#757575" d="M906.843,-281.151C946.511,-226.336 1122.53,-0 1324.5,-0 1324.5,-0 1324.5,-0 2450,-0 2579.67,-0 2614.35,-4.28868 2739,-40 2771.95,-49.4408 2807.49,-66.0962 2831.85,-78.6125"/>
<polygon fill="#757575" stroke="#757575" points="2830.44,-81.8264 2840.92,-83.3516 2833.68,-75.6211 2830.44,-81.8264"/>
</g>
<!-- scenes/sceneFunctions.js&#45;&gt;actions/Core.js -->
<g id="edge52" class="edge"><title>scenes/sceneFunctions.js&#45;&gt;actions/Core.js</title>
<path fill="none" stroke="#757575" d="M1209.1,-296.684C1299.52,-299.374 1442.7,-300.889 1566,-290 1586.01,-288.233 1607.65,-285.208 1627.27,-282.038"/>
<polygon fill="#757575" stroke="#757575" points="1628.02,-285.46 1637.32,-280.373 1626.88,-278.554 1628.02,-285.46"/>
</g>
<!-- scenes/sceneFunctions.js&#45;&gt;store/store.js -->
<g id="edge57" class="edge"><title>scenes/sceneFunctions.js&#45;&gt;store/store.js</title>
<path fill="none" stroke="#757575" d="M1165.06,-304.528C1236.8,-321.443 1379.78,-351 1503,-351 1503,-351 1503,-351 1911,-351 2015.71,-351 2137.74,-351 2208.31,-351"/>
<polygon fill="#757575" stroke="#757575" points="2208.34,-354.5 2218.34,-351 2208.34,-347.5 2208.34,-354.5"/>
</g>
<!-- scenes/sceneFunctions.js&#45;&gt;scenes/sceneSymbols.js -->
<g id="edge55" class="edge"><title>scenes/sceneFunctions.js&#45;&gt;scenes/sceneSymbols.js</title>
<path fill="none" stroke="#757575" d="M1127.6,-281.381C1165.61,-231.495 1324.54,-38 1503,-38 1503,-38 1503,-38 2450,-38 2576.03,-38 2721.72,-64.4948 2801.68,-81.3573"/>
<polygon fill="#757575" stroke="#757575" points="2801.06,-84.8042 2811.57,-83.4652 2802.52,-77.9579 2801.06,-84.8042"/>
</g>
<!-- scenes/charCreation.js -->
<g id="node34" class="node"><title>scenes/charCreation.js</title>
<path fill="none" stroke="#c6c5fe" d="M1398.33,-438.5C1398.33,-438.5 1252.67,-438.5 1252.67,-438.5 1248.83,-438.5 1245,-434.667 1245,-430.833 1245,-430.833 1245,-423.167 1245,-423.167 1245,-419.333 1248.83,-415.5 1252.67,-415.5 1252.67,-415.5 1398.33,-415.5 1398.33,-415.5 1402.17,-415.5 1406,-419.333 1406,-423.167 1406,-423.167 1406,-430.833 1406,-430.833 1406,-434.667 1402.17,-438.5 1398.33,-438.5"/>
<text text-anchor="middle" x="1325.5" y="-423.3" font-family="Arial" font-size="14.00" fill="#c6c5fe">scenes/charCreation.js</text>
</g>
<!-- scenes/sceneFunctions.js&#45;&gt;scenes/charCreation.js -->
<g id="edge53" class="edge"><title>scenes/sceneFunctions.js&#45;&gt;scenes/charCreation.js</title>
<path fill="none" stroke="#757575" d="M1136.88,-304.657C1173.25,-328.376 1256.01,-382.341 1298.41,-409.986"/>
<polygon fill="#757575" stroke="#757575" points="1296.52,-412.935 1306.81,-415.465 1300.35,-407.071 1296.52,-412.935"/>
</g>
<!-- scenes/menus.js -->
<g id="node35" class="node"><title>scenes/menus.js</title>
<path fill="none" stroke="#c6c5fe" d="M1558.33,-281.5C1558.33,-281.5 1449.67,-281.5 1449.67,-281.5 1445.83,-281.5 1442,-277.667 1442,-273.833 1442,-273.833 1442,-266.167 1442,-266.167 1442,-262.333 1445.83,-258.5 1449.67,-258.5 1449.67,-258.5 1558.33,-258.5 1558.33,-258.5 1562.17,-258.5 1566,-262.333 1566,-266.167 1566,-266.167 1566,-273.833 1566,-273.833 1566,-277.667 1562.17,-281.5 1558.33,-281.5"/>
<text text-anchor="middle" x="1504" y="-266.3" font-family="Arial" font-size="14.00" fill="#c6c5fe">scenes/menus.js</text>
</g>
<!-- scenes/sceneFunctions.js&#45;&gt;scenes/menus.js -->
<g id="edge54" class="edge"><title>scenes/sceneFunctions.js&#45;&gt;scenes/menus.js</title>
<path fill="none" stroke="#757575" d="M1145.92,-281.498C1171.02,-271.438 1209.78,-257.585 1245,-252 1315.67,-240.791 1334.75,-245.445 1406,-252 1417.28,-253.038 1429.2,-254.74 1440.69,-256.695"/>
<polygon fill="#757575" stroke="#757575" points="1440.18,-260.16 1450.64,-258.468 1441.41,-253.268 1440.18,-260.16"/>
</g>
<!-- scenes/tests/testing.js -->
<g id="node39" class="node"><title>scenes/tests/testing.js</title>
<path fill="none" stroke="#cfffac" d="M1396.83,-284.5C1396.83,-284.5 1254.17,-284.5 1254.17,-284.5 1250.33,-284.5 1246.5,-280.667 1246.5,-276.833 1246.5,-276.833 1246.5,-269.167 1246.5,-269.167 1246.5,-265.333 1250.33,-261.5 1254.17,-261.5 1254.17,-261.5 1396.83,-261.5 1396.83,-261.5 1400.67,-261.5 1404.5,-265.333 1404.5,-269.167 1404.5,-269.167 1404.5,-276.833 1404.5,-276.833 1404.5,-280.667 1400.67,-284.5 1396.83,-284.5"/>
<text text-anchor="middle" x="1325.5" y="-269.3" font-family="Arial" font-size="14.00" fill="#cfffac">scenes/tests/testing.js</text>
</g>
<!-- scenes/sceneFunctions.js&#45;&gt;scenes/tests/testing.js -->
<g id="edge56" class="edge"><title>scenes/sceneFunctions.js&#45;&gt;scenes/tests/testing.js</title>
<path fill="none" stroke="#757575" d="M1209.14,-284.228C1218.15,-283.351 1227.29,-282.461 1236.28,-281.586"/>
<polygon fill="#757575" stroke="#757575" points="1236.74,-285.058 1246.35,-280.606 1236.06,-278.091 1236.74,-285.058"/>
</g>
<!-- actions/Player.js -->
<g id="node7" class="node"><title>actions/Player.js</title>
<path fill="none" stroke="#c6c5fe" d="M2147.33,-477.5C2147.33,-477.5 2043.67,-477.5 2043.67,-477.5 2039.83,-477.5 2036,-473.667 2036,-469.833 2036,-469.833 2036,-462.167 2036,-462.167 2036,-458.333 2039.83,-454.5 2043.67,-454.5 2043.67,-454.5 2147.33,-454.5 2147.33,-454.5 2151.17,-454.5 2155,-458.333 2155,-462.167 2155,-462.167 2155,-469.833 2155,-469.833 2155,-473.667 2151.17,-477.5 2147.33,-477.5"/>
<text text-anchor="middle" x="2095.5" y="-462.3" font-family="Arial" font-size="14.00" fill="#c6c5fe">actions/Player.js</text>
</g>
<!-- actions/Player.js&#45;&gt;store/store.js -->
<g id="edge6" class="edge"><title>actions/Player.js&#45;&gt;store/store.js</title>
<path fill="none" stroke="#757575" d="M2126.4,-454.447C2135.8,-450.358 2146.07,-445.415 2155,-440 2189.65,-418.998 2225.63,-388.616 2247.17,-369.34"/>
<polygon fill="#757575" stroke="#757575" points="2249.61,-371.845 2254.68,-362.54 2244.92,-366.655 2249.61,-371.845"/>
</g>
<!-- actions/playerMsg.js -->
<g id="node8" class="node"><title>actions/playerMsg.js</title>
<path fill="none" stroke="#cfffac" d="M2927.83,-403.5C2927.83,-403.5 2798.17,-403.5 2798.17,-403.5 2794.33,-403.5 2790.5,-399.667 2790.5,-395.833 2790.5,-395.833 2790.5,-388.167 2790.5,-388.167 2790.5,-384.333 2794.33,-380.5 2798.17,-380.5 2798.17,-380.5 2927.83,-380.5 2927.83,-380.5 2931.67,-380.5 2935.5,-384.333 2935.5,-388.167 2935.5,-388.167 2935.5,-395.833 2935.5,-395.833 2935.5,-399.667 2931.67,-403.5 2927.83,-403.5"/>
<text text-anchor="middle" x="2863" y="-388.3" font-family="Arial" font-size="14.00" fill="#cfffac">actions/playerMsg.js</text>
</g>
<!-- actions/Player.js&#45;&gt;actions/playerMsg.js -->
<g id="edge5" class="edge"><title>actions/Player.js&#45;&gt;actions/playerMsg.js</title>
<path fill="none" stroke="#757575" d="M2155.15,-468.239C2268.89,-471.429 2526.9,-473.029 2739,-433 2768.55,-427.423 2800.75,-416.501 2824.8,-407.332"/>
<polygon fill="#757575" stroke="#757575" points="2826.19,-410.546 2834.24,-403.66 2823.65,-404.022 2826.19,-410.546"/>
</g>
<!-- symbols/breastCup.js -->
<g id="node9" class="node"><title>symbols/breastCup.js</title>
<path fill="none" stroke="#cfffac" d="M2337.33,-597.5C2337.33,-597.5 2198.67,-597.5 2198.67,-597.5 2194.83,-597.5 2191,-593.667 2191,-589.833 2191,-589.833 2191,-582.167 2191,-582.167 2191,-578.333 2194.83,-574.5 2198.67,-574.5 2198.67,-574.5 2337.33,-574.5 2337.33,-574.5 2341.17,-574.5 2345,-578.333 2345,-582.167 2345,-582.167 2345,-589.833 2345,-589.833 2345,-593.667 2341.17,-597.5 2337.33,-597.5"/>
<text text-anchor="middle" x="2268" y="-582.3" font-family="Arial" font-size="14.00" fill="#cfffac">symbols/breastCup.js</text>
</g>
<!-- actions/Player.js&#45;&gt;symbols/breastCup.js -->
<g id="edge7" class="edge"><title>actions/Player.js&#45;&gt;symbols/breastCup.js</title>
<path fill="none" stroke="#757575" d="M2132.52,-477.507C2140.55,-481.239 2148.58,-486.008 2155,-492 2180,-515.336 2164.99,-537.794 2191,-560 2195.62,-563.945 2200.87,-567.3 2206.4,-570.152"/>
<polygon fill="#757575" stroke="#757575" points="2205.36,-573.524 2215.91,-574.492 2208.26,-567.156 2205.36,-573.524"/>
</g>
<!-- symbols/cockType.js -->
<g id="node10" class="node"><title>symbols/cockType.js</title>
<path fill="none" stroke="#cfffac" d="M2335.33,-517.5C2335.33,-517.5 2200.67,-517.5 2200.67,-517.5 2196.83,-517.5 2193,-513.667 2193,-509.833 2193,-509.833 2193,-502.167 2193,-502.167 2193,-498.333 2196.83,-494.5 2200.67,-494.5 2200.67,-494.5 2335.33,-494.5 2335.33,-494.5 2339.17,-494.5 2343,-498.333 2343,-502.167 2343,-502.167 2343,-509.833 2343,-509.833 2343,-513.667 2339.17,-517.5 2335.33,-517.5"/>
<text text-anchor="middle" x="2268" y="-502.3" font-family="Arial" font-size="14.00" fill="#cfffac">symbols/cockType.js</text>
</g>
<!-- actions/Player.js&#45;&gt;symbols/cockType.js -->
<g id="edge8" class="edge"><title>actions/Player.js&#45;&gt;symbols/cockType.js</title>
<path fill="none" stroke="#757575" d="M2145.82,-477.57C2165.26,-482.13 2187.75,-487.407 2208.03,-492.167"/>
<polygon fill="#757575" stroke="#757575" points="2207.26,-495.58 2217.8,-494.456 2208.86,-488.765 2207.26,-495.58"/>
</g>
<!-- symbols/vaginas.js -->
<g id="node11" class="node"><title>symbols/vaginas.js</title>
<path fill="none" stroke="#c6c5fe" d="M2509.33,-577.5C2509.33,-577.5 2388.67,-577.5 2388.67,-577.5 2384.83,-577.5 2381,-573.667 2381,-569.833 2381,-569.833 2381,-562.167 2381,-562.167 2381,-558.333 2384.83,-554.5 2388.67,-554.5 2388.67,-554.5 2509.33,-554.5 2509.33,-554.5 2513.17,-554.5 2517,-558.333 2517,-562.167 2517,-562.167 2517,-569.833 2517,-569.833 2517,-573.667 2513.17,-577.5 2509.33,-577.5"/>
<text text-anchor="middle" x="2449" y="-562.3" font-family="Arial" font-size="14.00" fill="#c6c5fe">symbols/vaginas.js</text>
</g>
<!-- actions/Player.js&#45;&gt;symbols/vaginas.js -->
<g id="edge9" class="edge"><title>actions/Player.js&#45;&gt;symbols/vaginas.js</title>
<path fill="none" stroke="#757575" d="M2127.94,-477.549C2137.02,-481.518 2146.71,-486.395 2155,-492 2173.48,-504.504 2171.01,-517.074 2191,-527 2247.01,-554.816 2317.68,-563.946 2370.73,-566.469"/>
<polygon fill="#757575" stroke="#757575" points="2370.63,-569.967 2380.76,-566.877 2370.92,-562.973 2370.63,-569.967"/>
</g>
<!-- utils.js -->
<g id="node32" class="node"><title>utils.js</title>
<path fill="none" stroke="#cfffac" d="M2883.33,-599.5C2883.33,-599.5 2842.67,-599.5 2842.67,-599.5 2838.83,-599.5 2835,-595.667 2835,-591.833 2835,-591.833 2835,-584.167 2835,-584.167 2835,-580.333 2838.83,-576.5 2842.67,-576.5 2842.67,-576.5 2883.33,-576.5 2883.33,-576.5 2887.17,-576.5 2891,-580.333 2891,-584.167 2891,-584.167 2891,-591.833 2891,-591.833 2891,-595.667 2887.17,-599.5 2883.33,-599.5"/>
<text text-anchor="middle" x="2863" y="-584.3" font-family="Arial" font-size="14.00" fill="#cfffac">utils.js</text>
</g>
<!-- symbols/vaginas.js&#45;&gt;utils.js -->
<g id="edge64" class="edge"><title>symbols/vaginas.js&#45;&gt;utils.js</title>
<path fill="none" stroke="#757575" d="M2517.11,-569.584C2604.73,-574.262 2755.1,-582.292 2824.68,-586.007"/>
<polygon fill="#757575" stroke="#757575" points="2824.56,-589.506 2834.73,-586.544 2824.93,-582.516 2824.56,-589.506"/>
</g>
<!-- actions/engineMsg.js -->
<g id="node12" class="node"><title>actions/engineMsg.js</title>
<path fill="none" stroke="#cfffac" d="M2712.83,-403.5C2712.83,-403.5 2579.17,-403.5 2579.17,-403.5 2575.33,-403.5 2571.5,-399.667 2571.5,-395.833 2571.5,-395.833 2571.5,-388.167 2571.5,-388.167 2571.5,-384.333 2575.33,-380.5 2579.17,-380.5 2579.17,-380.5 2712.83,-380.5 2712.83,-380.5 2716.67,-380.5 2720.5,-384.333 2720.5,-388.167 2720.5,-388.167 2720.5,-395.833 2720.5,-395.833 2720.5,-399.667 2716.67,-403.5 2712.83,-403.5"/>
<text text-anchor="middle" x="2646" y="-388.3" font-family="Arial" font-size="14.00" fill="#cfffac">actions/engineMsg.js</text>
</g>
<!-- components/appRoot.js -->
<g id="node13" class="node"><title>components/appRoot.js</title>
<path fill="none" stroke="#c6c5fe" d="M298.333,-446.5C298.333,-446.5 145.667,-446.5 145.667,-446.5 141.833,-446.5 138,-442.667 138,-438.833 138,-438.833 138,-431.167 138,-431.167 138,-427.333 141.833,-423.5 145.667,-423.5 145.667,-423.5 298.333,-423.5 298.333,-423.5 302.167,-423.5 306,-427.333 306,-431.167 306,-431.167 306,-438.833 306,-438.833 306,-442.667 302.167,-446.5 298.333,-446.5"/>
<text text-anchor="middle" x="222" y="-431.3" font-family="Arial" font-size="14.00" fill="#c6c5fe">components/appRoot.js</text>
</g>
<!-- components/lowerButtons.js -->
<g id="node14" class="node"><title>components/lowerButtons.js</title>
<path fill="none" stroke="#c6c5fe" d="M529.333,-405.5C529.333,-405.5 349.667,-405.5 349.667,-405.5 345.833,-405.5 342,-401.667 342,-397.833 342,-397.833 342,-390.167 342,-390.167 342,-386.333 345.833,-382.5 349.667,-382.5 349.667,-382.5 529.333,-382.5 529.333,-382.5 533.167,-382.5 537,-386.333 537,-390.167 537,-390.167 537,-397.833 537,-397.833 537,-401.667 533.167,-405.5 529.333,-405.5"/>
<text text-anchor="middle" x="439.5" y="-390.3" font-family="Arial" font-size="14.00" fill="#c6c5fe">components/lowerButtons.js</text>
</g>
<!-- components/appRoot.js&#45;&gt;components/lowerButtons.js -->
<g id="edge10" class="edge"><title>components/appRoot.js&#45;&gt;components/lowerButtons.js</title>
<path fill="none" stroke="#757575" d="M283.602,-423.47C309.88,-418.471 340.817,-412.585 368.106,-407.393"/>
<polygon fill="#757575" stroke="#757575" points="368.81,-410.822 377.98,-405.514 367.502,-403.945 368.81,-410.822"/>
</g>
<!-- components/menuBar.js -->
<g id="node15" class="node"><title>components/menuBar.js</title>
<path fill="none" stroke="#c6c5fe" d="M516.833,-446.5C516.833,-446.5 362.167,-446.5 362.167,-446.5 358.333,-446.5 354.5,-442.667 354.5,-438.833 354.5,-438.833 354.5,-431.167 354.5,-431.167 354.5,-427.333 358.333,-423.5 362.167,-423.5 362.167,-423.5 516.833,-423.5 516.833,-423.5 520.667,-423.5 524.5,-427.333 524.5,-431.167 524.5,-431.167 524.5,-438.833 524.5,-438.833 524.5,-442.667 520.667,-446.5 516.833,-446.5"/>
<text text-anchor="middle" x="439.5" y="-431.3" font-family="Arial" font-size="14.00" fill="#c6c5fe">components/menuBar.js</text>
</g>
<!-- components/appRoot.js&#45;&gt;components/menuBar.js -->
<g id="edge11" class="edge"><title>components/appRoot.js&#45;&gt;components/menuBar.js</title>
<path fill="none" stroke="#757575" d="M306.01,-435C318.546,-435 331.556,-435 344.307,-435"/>
<polygon fill="#757575" stroke="#757575" points="344.465,-438.5 354.465,-435 344.465,-431.5 344.465,-438.5"/>
</g>
<!-- components/output.js -->
<g id="node16" class="node"><title>components/output.js</title>
<path fill="none" stroke="#cfffac" d="M507.833,-364.5C507.833,-364.5 371.167,-364.5 371.167,-364.5 367.333,-364.5 363.5,-360.667 363.5,-356.833 363.5,-356.833 363.5,-349.167 363.5,-349.167 363.5,-345.333 367.333,-341.5 371.167,-341.5 371.167,-341.5 507.833,-341.5 507.833,-341.5 511.667,-341.5 515.5,-345.333 515.5,-349.167 515.5,-349.167 515.5,-356.833 515.5,-356.833 515.5,-360.667 511.667,-364.5 507.833,-364.5"/>
<text text-anchor="middle" x="439.5" y="-349.3" font-family="Arial" font-size="14.00" fill="#cfffac">components/output.js</text>
</g>
<!-- components/appRoot.js&#45;&gt;components/output.js -->
<g id="edge12" class="edge"><title>components/appRoot.js&#45;&gt;components/output.js</title>
<path fill="none" stroke="#757575" d="M241.687,-423.479C264.56,-409.842 304.845,-387.31 342,-374 349.207,-371.418 356.835,-369.099 364.519,-367.028"/>
<polygon fill="#757575" stroke="#757575" points="365.433,-370.406 374.253,-364.537 363.698,-363.625 365.433,-370.406"/>
</g>
<!-- components/statBar.js -->
<g id="node17" class="node"><title>components/statBar.js</title>
<path fill="none" stroke="#c6c5fe" d="M510.833,-487.5C510.833,-487.5 368.167,-487.5 368.167,-487.5 364.333,-487.5 360.5,-483.667 360.5,-479.833 360.5,-479.833 360.5,-472.167 360.5,-472.167 360.5,-468.333 364.333,-464.5 368.167,-464.5 368.167,-464.5 510.833,-464.5 510.833,-464.5 514.667,-464.5 518.5,-468.333 518.5,-472.167 518.5,-472.167 518.5,-479.833 518.5,-479.833 518.5,-483.667 514.667,-487.5 510.833,-487.5"/>
<text text-anchor="middle" x="439.5" y="-472.3" font-family="Arial" font-size="14.00" fill="#c6c5fe">components/statBar.js</text>
</g>
<!-- components/appRoot.js&#45;&gt;components/statBar.js -->
<g id="edge13" class="edge"><title>components/appRoot.js&#45;&gt;components/statBar.js</title>
<path fill="none" stroke="#757575" d="M283.602,-446.53C309.88,-451.529 340.817,-457.415 368.106,-462.607"/>
<polygon fill="#757575" stroke="#757575" points="367.502,-466.055 377.98,-464.486 368.81,-459.178 367.502,-466.055"/>
</g>
<!-- components/buttonGrid.js -->
<g id="node19" class="node"><title>components/buttonGrid.js</title>
<path fill="none" stroke="#c6c5fe" d="M752.333,-405.5C752.333,-405.5 588.667,-405.5 588.667,-405.5 584.833,-405.5 581,-401.667 581,-397.833 581,-397.833 581,-390.167 581,-390.167 581,-386.333 584.833,-382.5 588.667,-382.5 588.667,-382.5 752.333,-382.5 752.333,-382.5 756.167,-382.5 760,-386.333 760,-390.167 760,-390.167 760,-397.833 760,-397.833 760,-401.667 756.167,-405.5 752.333,-405.5"/>
<text text-anchor="middle" x="670.5" y="-390.3" font-family="Arial" font-size="14.00" fill="#c6c5fe">components/buttonGrid.js</text>
</g>
<!-- components/lowerButtons.js&#45;&gt;components/buttonGrid.js -->
<g id="edge17" class="edge"><title>components/lowerButtons.js&#45;&gt;components/buttonGrid.js</title>
<path fill="none" stroke="#757575" d="M537.285,-394C548.313,-394 559.566,-394 570.621,-394"/>
<polygon fill="#757575" stroke="#757575" points="570.705,-397.5 580.705,-394 570.705,-390.5 570.705,-397.5"/>
</g>
<!-- components/menuBar.js&#45;&gt;components/buttonGrid.js -->
<g id="edge18" class="edge"><title>components/menuBar.js&#45;&gt;components/buttonGrid.js</title>
<path fill="none" stroke="#757575" d="M504.899,-423.47C532.945,-418.449 565.986,-412.533 595.078,-407.325"/>
<polygon fill="#757575" stroke="#757575" points="595.962,-410.722 605.188,-405.514 594.728,-403.832 595.962,-410.722"/>
</g>
<!-- components/spriteDisplay.js -->
<g id="node22" class="node"><title>components/spriteDisplay.js</title>
<path fill="none" stroke="#cfffac" d="M760.333,-446.5C760.333,-446.5 580.667,-446.5 580.667,-446.5 576.833,-446.5 573,-442.667 573,-438.833 573,-438.833 573,-431.167 573,-431.167 573,-427.333 576.833,-423.5 580.667,-423.5 580.667,-423.5 760.333,-423.5 760.333,-423.5 764.167,-423.5 768,-427.333 768,-431.167 768,-431.167 768,-438.833 768,-438.833 768,-442.667 764.167,-446.5 760.333,-446.5"/>
<text text-anchor="middle" x="670.5" y="-431.3" font-family="Arial" font-size="14.00" fill="#cfffac">components/spriteDisplay.js</text>
</g>
<!-- components/statBar.js&#45;&gt;components/spriteDisplay.js -->
<g id="edge21" class="edge"><title>components/statBar.js&#45;&gt;components/spriteDisplay.js</title>
<path fill="none" stroke="#757575" d="M504.899,-464.47C532.945,-459.449 565.986,-453.533 595.078,-448.325"/>
<polygon fill="#757575" stroke="#757575" points="595.962,-451.722 605.188,-446.514 594.728,-444.832 595.962,-451.722"/>
</g>
<!-- components/statDisplay.js -->
<g id="node24" class="node"><title>components/statDisplay.js</title>
<path fill="none" stroke="#c6c5fe" d="M753.833,-487.5C753.833,-487.5 587.167,-487.5 587.167,-487.5 583.333,-487.5 579.5,-483.667 579.5,-479.833 579.5,-479.833 579.5,-472.167 579.5,-472.167 579.5,-468.333 583.333,-464.5 587.167,-464.5 587.167,-464.5 753.833,-464.5 753.833,-464.5 757.667,-464.5 761.5,-468.333 761.5,-472.167 761.5,-472.167 761.5,-479.833 761.5,-479.833 761.5,-483.667 757.667,-487.5 753.833,-487.5"/>
<text text-anchor="middle" x="670.5" y="-472.3" font-family="Arial" font-size="14.00" fill="#c6c5fe">components/statDisplay.js</text>
</g>
<!-- components/statBar.js&#45;&gt;components/statDisplay.js -->
<g id="edge22" class="edge"><title>components/statBar.js&#45;&gt;components/statDisplay.js</title>
<path fill="none" stroke="#757575" d="M518.668,-476C534.871,-476 552.156,-476 569.028,-476"/>
<polygon fill="#757575" stroke="#757575" points="569.467,-479.5 579.467,-476 569.467,-472.5 569.467,-479.5"/>
</g>
<!-- components/timeDisplay.js -->
<g id="node25" class="node"><title>components/timeDisplay.js</title>
<path fill="none" stroke="#cfffac" d="M756.333,-528.5C756.333,-528.5 584.667,-528.5 584.667,-528.5 580.833,-528.5 577,-524.667 577,-520.833 577,-520.833 577,-513.167 577,-513.167 577,-509.333 580.833,-505.5 584.667,-505.5 584.667,-505.5 756.333,-505.5 756.333,-505.5 760.167,-505.5 764,-509.333 764,-513.167 764,-513.167 764,-520.833 764,-520.833 764,-524.667 760.167,-528.5 756.333,-528.5"/>
<text text-anchor="middle" x="670.5" y="-513.3" font-family="Arial" font-size="14.00" fill="#cfffac">components/timeDisplay.js</text>
</g>
<!-- components/statBar.js&#45;&gt;components/timeDisplay.js -->
<g id="edge23" class="edge"><title>components/statBar.js&#45;&gt;components/timeDisplay.js</title>
<path fill="none" stroke="#757575" d="M504.899,-487.53C532.945,-492.551 565.986,-498.467 595.078,-503.675"/>
<polygon fill="#757575" stroke="#757575" points="594.728,-507.168 605.188,-505.486 595.962,-500.278 594.728,-507.168"/>
</g>
<!-- components/button.js -->
<g id="node18" class="node"><title>components/button.js</title>
<path fill="none" stroke="#cfffac" d="M1186.33,-405.5C1186.33,-405.5 1049.67,-405.5 1049.67,-405.5 1045.83,-405.5 1042,-401.667 1042,-397.833 1042,-397.833 1042,-390.167 1042,-390.167 1042,-386.333 1045.83,-382.5 1049.67,-382.5 1049.67,-382.5 1186.33,-382.5 1186.33,-382.5 1190.17,-382.5 1194,-386.333 1194,-390.167 1194,-390.167 1194,-397.833 1194,-397.833 1194,-401.667 1190.17,-405.5 1186.33,-405.5"/>
<text text-anchor="middle" x="1118" y="-390.3" font-family="Arial" font-size="14.00" fill="#cfffac">components/button.js</text>
</g>
<!-- components/buttonGrid.js&#45;&gt;actions/Engine.js -->
<g id="edge14" class="edge"><title>components/buttonGrid.js&#45;&gt;actions/Engine.js</title>
<path fill="none" stroke="#757575" d="M697.31,-382.414C737.722,-364.274 816.001,-329.135 861.467,-308.726"/>
<polygon fill="#757575" stroke="#757575" points="862.955,-311.894 870.645,-304.606 860.089,-305.508 862.955,-311.894"/>
</g>
<!-- components/buttonWrap.js -->
<g id="node20" class="node"><title>components/buttonWrap.js</title>
<path fill="none" stroke="#c6c5fe" d="M983.333,-405.5C983.333,-405.5 811.667,-405.5 811.667,-405.5 807.833,-405.5 804,-401.667 804,-397.833 804,-397.833 804,-390.167 804,-390.167 804,-386.333 807.833,-382.5 811.667,-382.5 811.667,-382.5 983.333,-382.5 983.333,-382.5 987.167,-382.5 991,-386.333 991,-390.167 991,-390.167 991,-397.833 991,-397.833 991,-401.667 987.167,-405.5 983.333,-405.5"/>
<text text-anchor="middle" x="897.5" y="-390.3" font-family="Arial" font-size="14.00" fill="#c6c5fe">components/buttonWrap.js</text>
</g>
<!-- components/buttonGrid.js&#45;&gt;components/buttonWrap.js -->
<g id="edge15" class="edge"><title>components/buttonGrid.js&#45;&gt;components/buttonWrap.js</title>
<path fill="none" stroke="#757575" d="M760.103,-394C771.119,-394 782.455,-394 793.663,-394"/>
<polygon fill="#757575" stroke="#757575" points="793.906,-397.5 803.906,-394 793.906,-390.5 793.906,-397.5"/>
</g>
<!-- components/buttonWrap.js&#45;&gt;components/button.js -->
<g id="edge16" class="edge"><title>components/buttonWrap.js&#45;&gt;components/button.js</title>
<path fill="none" stroke="#757575" d="M991.164,-394C1004.6,-394 1018.39,-394 1031.67,-394"/>
<polygon fill="#757575" stroke="#757575" points="1031.72,-397.5 1041.72,-394 1031.72,-390.5 1031.72,-397.5"/>
</g>
<!-- components/nameInput.js -->
<g id="node21" class="node"><title>components/nameInput.js</title>
<path fill="none" stroke="#c6c5fe" d="M1992.33,-322.5C1992.33,-322.5 1827.67,-322.5 1827.67,-322.5 1823.83,-322.5 1820,-318.667 1820,-314.833 1820,-314.833 1820,-307.167 1820,-307.167 1820,-303.333 1823.83,-299.5 1827.67,-299.5 1827.67,-299.5 1992.33,-299.5 1992.33,-299.5 1996.17,-299.5 2000,-303.333 2000,-307.167 2000,-307.167 2000,-314.833 2000,-314.833 2000,-318.667 1996.17,-322.5 1992.33,-322.5"/>
<text text-anchor="middle" x="1910" y="-307.3" font-family="Arial" font-size="14.00" fill="#c6c5fe">components/nameInput.js</text>
</g>
<!-- components/nameInput.js&#45;&gt;store/store.js -->
<g id="edge20" class="edge"><title>components/nameInput.js&#45;&gt;store/store.js</title>
<path fill="none" stroke="#757575" d="M2000.28,-320.12C2046.48,-324.939 2103.79,-331.072 2155,-337 2172.17,-338.988 2190.8,-341.267 2207.85,-343.402"/>
<polygon fill="#757575" stroke="#757575" points="2207.87,-346.933 2218.23,-344.708 2208.75,-339.987 2207.87,-346.933"/>
</g>
<!-- components/nameInput.js&#45;&gt;actions/Player.js -->
<g id="edge19" class="edge"><title>components/nameInput.js&#45;&gt;actions/Player.js</title>
<path fill="none" stroke="#757575" d="M1924.79,-322.65C1956.41,-349.355 2034.32,-415.169 2072.58,-447.488"/>
<polygon fill="#757575" stroke="#757575" points="2070.65,-450.435 2080.55,-454.215 2075.17,-445.088 2070.65,-450.435"/>
</g>
<!-- components/stat.js -->
<g id="node23" class="node"><title>components/stat.js</title>
<path fill="none" stroke="#cfffac" d="M957.833,-487.5C957.833,-487.5 837.167,-487.5 837.167,-487.5 833.333,-487.5 829.5,-483.667 829.5,-479.833 829.5,-479.833 829.5,-472.167 829.5,-472.167 829.5,-468.333 833.333,-464.5 837.167,-464.5 837.167,-464.5 957.833,-464.5 957.833,-464.5 961.667,-464.5 965.5,-468.333 965.5,-472.167 965.5,-472.167 965.5,-479.833 965.5,-479.833 965.5,-483.667 961.667,-487.5 957.833,-487.5"/>
<text text-anchor="middle" x="897.5" y="-472.3" font-family="Arial" font-size="14.00" fill="#cfffac">components/stat.js</text>
</g>
<!-- components/statDisplay.js&#45;&gt;components/stat.js -->
<g id="edge24" class="edge"><title>components/statDisplay.js&#45;&gt;components/stat.js</title>
<path fill="none" stroke="#757575" d="M761.72,-476C780.804,-476 800.779,-476 819.327,-476"/>
<polygon fill="#757575" stroke="#757575" points="819.471,-479.5 829.471,-476 819.471,-472.5 819.471,-479.5"/>
</g>
<!-- index.js -->
<g id="node26" class="node"><title>index.js</title>
<path fill="none" stroke="#c6c5fe" d="M75.8333,-537.5C75.8333,-537.5 26.1667,-537.5 26.1667,-537.5 22.3333,-537.5 18.5,-533.667 18.5,-529.833 18.5,-529.833 18.5,-522.167 18.5,-522.167 18.5,-518.333 22.3333,-514.5 26.1667,-514.5 26.1667,-514.5 75.8333,-514.5 75.8333,-514.5 79.6667,-514.5 83.5,-518.333 83.5,-522.167 83.5,-522.167 83.5,-529.833 83.5,-529.833 83.5,-533.667 79.6667,-537.5 75.8333,-537.5"/>
<text text-anchor="middle" x="51" y="-522.3" font-family="Arial" font-size="14.00" fill="#c6c5fe">index.js</text>
</g>
<!-- index.js&#45;&gt;store/store.js -->
<g id="edge26" class="edge"><title>index.js&#45;&gt;store/store.js</title>
<path fill="none" stroke="#757575" d="M80.5478,-537.525C143.864,-562.012 301.318,-617 438.5,-617 438.5,-617 438.5,-617 1326.5,-617 1512.26,-617 2068.2,-422.436 2225.26,-366.108"/>
<polygon fill="#757575" stroke="#757575" points="2226.79,-369.276 2235.02,-362.601 2224.43,-362.688 2226.79,-369.276"/>
</g>
<!-- index.js&#45;&gt;components/appRoot.js -->
<g id="edge25" class="edge"><title>index.js&#45;&gt;components/appRoot.js</title>
<path fill="none" stroke="#757575" d="M73.404,-514.475C103.037,-498.519 156.723,-469.611 190.531,-451.406"/>
<polygon fill="#757575" stroke="#757575" points="192.358,-454.398 199.504,-446.575 189.039,-448.234 192.358,-454.398"/>
</g>
<!-- reducers/root.js&#45;&gt;actions/coreMsg.js -->
<g id="edge27" class="edge"><title>reducers/root.js&#45;&gt;actions/coreMsg.js</title>
<path fill="none" stroke="#757575" d="M2464.26,-339.312C2483.2,-324.554 2518.32,-299.789 2553,-289 2629.32,-265.254 2721.25,-262.686 2784.9,-264.703"/>
<polygon fill="#757575" stroke="#757575" points="2785.14,-268.214 2795.26,-265.08 2785.39,-261.219 2785.14,-268.214"/>
</g>
<!-- reducers/root.js&#45;&gt;actions/playerMsg.js -->
<g id="edge29" class="edge"><title>reducers/root.js&#45;&gt;actions/playerMsg.js</title>
<path fill="none" stroke="#757575" d="M2463.84,-362.757C2482.6,-377.842 2517.81,-403.225 2553,-413 2640.85,-437.4 2747.88,-420.264 2810.15,-405.911"/>
<polygon fill="#757575" stroke="#757575" points="2811.2,-409.26 2820.12,-403.548 2809.58,-402.448 2811.2,-409.26"/>
</g>
<!-- reducers/root.js&#45;&gt;actions/engineMsg.js -->
<g id="edge28" class="edge"><title>reducers/root.js&#45;&gt;actions/engineMsg.js</title>
<path fill="none" stroke="#757575" d="M2504.84,-362.53C2528.3,-367.464 2555.87,-373.261 2580.33,-378.402"/>
<polygon fill="#757575" stroke="#757575" points="2579.73,-381.853 2590.24,-380.486 2581.17,-375.003 2579.73,-381.853"/>
</g>
<!-- reducers/updateBodyArr.js -->
<g id="node28" class="node"><title>reducers/updateBodyArr.js</title>
<path fill="none" stroke="#c6c5fe" d="M2731.33,-362.5C2731.33,-362.5 2560.67,-362.5 2560.67,-362.5 2556.83,-362.5 2553,-358.667 2553,-354.833 2553,-354.833 2553,-347.167 2553,-347.167 2553,-343.333 2556.83,-339.5 2560.67,-339.5 2560.67,-339.5 2731.33,-339.5 2731.33,-339.5 2735.17,-339.5 2739,-343.333 2739,-347.167 2739,-347.167 2739,-354.833 2739,-354.833 2739,-358.667 2735.17,-362.5 2731.33,-362.5"/>
<text text-anchor="middle" x="2646" y="-347.3" font-family="Arial" font-size="14.00" fill="#c6c5fe">reducers/updateBodyArr.js</text>
</g>
<!-- reducers/root.js&#45;&gt;reducers/updateBodyArr.js -->
<g id="edge30" class="edge"><title>reducers/root.js&#45;&gt;reducers/updateBodyArr.js</title>
<path fill="none" stroke="#757575" d="M2507.19,-351C2518.43,-351 2530.53,-351 2542.74,-351"/>
<polygon fill="#757575" stroke="#757575" points="2543,-354.5 2553,-351 2543,-347.5 2543,-354.5"/>
</g>
<!-- reducers/updateStats.js -->
<g id="node29" class="node"><title>reducers/updateStats.js</title>
<path fill="none" stroke="#c6c5fe" d="M2721.83,-321.5C2721.83,-321.5 2570.17,-321.5 2570.17,-321.5 2566.33,-321.5 2562.5,-317.667 2562.5,-313.833 2562.5,-313.833 2562.5,-306.167 2562.5,-306.167 2562.5,-302.333 2566.33,-298.5 2570.17,-298.5 2570.17,-298.5 2721.83,-298.5 2721.83,-298.5 2725.67,-298.5 2729.5,-302.333 2729.5,-306.167 2729.5,-306.167 2729.5,-313.833 2729.5,-313.833 2729.5,-317.667 2725.67,-321.5 2721.83,-321.5"/>
<text text-anchor="middle" x="2646" y="-306.3" font-family="Arial" font-size="14.00" fill="#c6c5fe">reducers/updateStats.js</text>
</g>
<!-- reducers/root.js&#45;&gt;reducers/updateStats.js -->
<g id="edge31" class="edge"><title>reducers/root.js&#45;&gt;reducers/updateStats.js</title>
<path fill="none" stroke="#757575" d="M2504.84,-339.47C2528.3,-334.536 2555.87,-328.739 2580.33,-323.598"/>
<polygon fill="#757575" stroke="#757575" points="2581.17,-326.997 2590.24,-321.514 2579.73,-320.147 2581.17,-326.997"/>
</g>
<!-- reducers/updateTime.js -->
<g id="node30" class="node"><title>reducers/updateTime.js</title>
<path fill="none" stroke="#c6c5fe" d="M2721.83,-521.5C2721.83,-521.5 2570.17,-521.5 2570.17,-521.5 2566.33,-521.5 2562.5,-517.667 2562.5,-513.833 2562.5,-513.833 2562.5,-506.167 2562.5,-506.167 2562.5,-502.333 2566.33,-498.5 2570.17,-498.5 2570.17,-498.5 2721.83,-498.5 2721.83,-498.5 2725.67,-498.5 2729.5,-502.333 2729.5,-506.167 2729.5,-506.167 2729.5,-513.833 2729.5,-513.833 2729.5,-517.667 2725.67,-521.5 2721.83,-521.5"/>
<text text-anchor="middle" x="2646" y="-506.3" font-family="Arial" font-size="14.00" fill="#c6c5fe">reducers/updateTime.js</text>
</g>
<!-- reducers/root.js&#45;&gt;reducers/updateTime.js -->
<g id="edge32" class="edge"><title>reducers/root.js&#45;&gt;reducers/updateTime.js</title>
<path fill="none" stroke="#757575" d="M2461.58,-362.668C2480.16,-381.161 2518.09,-417.98 2553,-446 2574.22,-463.034 2599.71,-480.557 2618.47,-492.951"/>
<polygon fill="#757575" stroke="#757575" points="2616.56,-495.878 2626.84,-498.431 2620.39,-490.023 2616.56,-495.878"/>
</g>
<!-- store/initialState.js -->
<g id="node31" class="node"><title>store/initialState.js</title>
<path fill="none" stroke="#c6c5fe" d="M2703.83,-241.5C2703.83,-241.5 2588.17,-241.5 2588.17,-241.5 2584.33,-241.5 2580.5,-237.667 2580.5,-233.833 2580.5,-233.833 2580.5,-226.167 2580.5,-226.167 2580.5,-222.333 2584.33,-218.5 2588.17,-218.5 2588.17,-218.5 2703.83,-218.5 2703.83,-218.5 2707.67,-218.5 2711.5,-222.333 2711.5,-226.167 2711.5,-226.167 2711.5,-233.833 2711.5,-233.833 2711.5,-237.667 2707.67,-241.5 2703.83,-241.5"/>
<text text-anchor="middle" x="2646" y="-226.3" font-family="Arial" font-size="14.00" fill="#c6c5fe">store/initialState.js</text>
</g>
<!-- reducers/root.js&#45;&gt;store/initialState.js -->
<g id="edge33" class="edge"><title>reducers/root.js&#45;&gt;store/initialState.js</title>
<path fill="none" stroke="#757575" d="M2459.23,-339.499C2475.86,-319.534 2512.88,-278.454 2553,-256 2560.87,-251.595 2569.55,-247.888 2578.33,-244.783"/>
<polygon fill="#757575" stroke="#757575" points="2579.46,-248.094 2587.87,-241.643 2577.28,-241.444 2579.46,-248.094"/>
</g>
<!-- reducers/root.js&#45;&gt;utils.js -->
<g id="edge34" class="edge"><title>reducers/root.js&#45;&gt;utils.js</title>
<path fill="none" stroke="#757575" d="M2452.93,-362.573C2461.81,-395.046 2491.61,-487.478 2553,-531 2558.56,-534.94 2743.62,-567.444 2824.64,-581.53"/>
<polygon fill="#757575" stroke="#757575" points="2824.45,-585.049 2834.9,-583.312 2825.65,-578.152 2824.45,-585.049"/>
</g>
<!-- reducers/updateBodyArr.js&#45;&gt;actions/playerMsg.js -->
<g id="edge35" class="edge"><title>reducers/updateBodyArr.js&#45;&gt;actions/playerMsg.js</title>
<path fill="none" stroke="#757575" d="M2707.46,-362.53C2733.68,-367.529 2764.54,-373.415 2791.77,-378.607"/>
<polygon fill="#757575" stroke="#757575" points="2791.14,-382.05 2801.62,-380.486 2792.45,-375.174 2791.14,-382.05"/>
</g>
<!-- reducers/updateStats.js&#45;&gt;actions/coreMsg.js -->
<g id="edge37" class="edge"><title>reducers/updateStats.js&#45;&gt;actions/coreMsg.js</title>
<path fill="none" stroke="#757575" d="M2708.9,-298.484C2734.31,-293.757 2763.89,-288.253 2790.24,-283.35"/>
<polygon fill="#757575" stroke="#757575" points="2790.98,-286.774 2800.17,-281.504 2789.69,-279.892 2790.98,-286.774"/>
</g>
<!-- reducers/updateStats.js&#45;&gt;actions/playerMsg.js -->
<g id="edge38" class="edge"><title>reducers/updateStats.js&#45;&gt;actions/playerMsg.js</title>
<path fill="none" stroke="#757575" d="M2706.98,-321.533C2717.77,-324.215 2728.81,-327.37 2739,-331 2772.65,-342.993 2809.05,-361.848 2833.45,-375.421"/>
<polygon fill="#757575" stroke="#757575" points="2831.75,-378.482 2842.19,-380.339 2835.19,-372.383 2831.75,-378.482"/>
</g>
<!-- reducers/updateStats.js&#45;&gt;utils.js -->
<g id="edge39" class="edge"><title>reducers/updateStats.js&#45;&gt;utils.js</title>
<path fill="none" stroke="#757575" d="M2723.98,-321.545C2729.37,-324.126 2734.45,-327.242 2739,-331 2769.68,-356.359 2758.14,-376.947 2775,-413 2801.32,-469.261 2834.48,-534.545 2851.25,-567.179"/>
<polygon fill="#757575" stroke="#757575" points="2848.21,-568.923 2855.9,-576.212 2854.43,-565.719 2848.21,-568.923"/>
</g>
<!-- reducers/updateTime.js&#45;&gt;utils.js -->
<g id="edge40" class="edge"><title>reducers/updateTime.js&#45;&gt;utils.js</title>
<path fill="none" stroke="#757575" d="M2692.27,-521.587C2707.27,-525.745 2723.97,-530.721 2739,-536 2769.51,-546.714 2803.29,-561.19 2827.72,-572.148"/>
<polygon fill="#757575" stroke="#757575" points="2826.37,-575.379 2836.92,-576.309 2829.25,-569 2826.37,-575.379"/>
</g>
<!-- store/initialState.js&#45;&gt;scenes/sceneSymbols.js -->
<g id="edge60" class="edge"><title>store/initialState.js&#45;&gt;scenes/sceneSymbols.js</title>
<path fill="none" stroke="#757575" d="M2665.33,-218.49C2703.24,-194.688 2790.41,-139.953 2834.86,-112.041"/>
<polygon fill="#757575" stroke="#757575" points="2836.8,-114.954 2843.41,-106.673 2833.08,-109.026 2836.8,-114.954"/>
</g>
<!-- reducers/updateButtons.js -->
<g id="node33" class="node"><title>reducers/updateButtons.js</title>
<path fill="none" stroke="#c6c5fe" d="M2729.33,-715.5C2729.33,-715.5 2562.67,-715.5 2562.67,-715.5 2558.83,-715.5 2555,-711.667 2555,-707.833 2555,-707.833 2555,-700.167 2555,-700.167 2555,-696.333 2558.83,-692.5 2562.67,-692.5 2562.67,-692.5 2729.33,-692.5 2729.33,-692.5 2733.17,-692.5 2737,-696.333 2737,-700.167 2737,-700.167 2737,-707.833 2737,-707.833 2737,-711.667 2733.17,-715.5 2729.33,-715.5"/>
<text text-anchor="middle" x="2646" y="-700.3" font-family="Arial" font-size="14.00" fill="#c6c5fe">reducers/updateButtons.js</text>
</g>
<!-- reducers/updateButtons.js&#45;&gt;utils.js -->
<g id="edge36" class="edge"><title>reducers/updateButtons.js&#45;&gt;utils.js</title>
<path fill="none" stroke="#757575" d="M2700.26,-692.42C2713.27,-688.657 2726.92,-683.891 2739,-678 2778.4,-658.794 2818.31,-626.758 2841.58,-606.539"/>
<polygon fill="#757575" stroke="#757575" points="2844.18,-608.911 2849.36,-599.67 2839.55,-603.661 2844.18,-608.911"/>
</g>
<!-- scenes/charCreation.js&#45;&gt;actions/Core.js -->
<g id="edge41" class="edge"><title>scenes/charCreation.js&#45;&gt;actions/Core.js</title>
<path fill="none" stroke="#757575" d="M1367.54,-415.446C1417.33,-400.219 1502.48,-370.208 1566,-327 1584.97,-314.096 1581.96,-301.178 1602,-290 1609.9,-285.59 1618.71,-282.153 1627.63,-279.473"/>
<polygon fill="#757575" stroke="#757575" points="1628.58,-282.843 1637.32,-276.853 1626.75,-276.086 1628.58,-282.843"/>
</g>
<!-- scenes/charCreation.js&#45;&gt;scenes/sceneSymbols.js -->
<g id="edge44" class="edge"><title>scenes/charCreation.js&#45;&gt;scenes/sceneSymbols.js</title>
<path fill="none" stroke="#757575" d="M1333.34,-415.31C1353.9,-380.373 1415.35,-277.412 1442,-249 1534.44,-150.452 1556.88,-76 1692,-76 1692,-76 1692,-76 2450,-76 2557.75,-76 2681.17,-82.5644 2764.62,-87.9763"/>
<polygon fill="#757575" stroke="#757575" points="2764.64,-91.4851 2774.85,-88.6469 2765.1,-84.5001 2764.64,-91.4851"/>
</g>
<!-- scenes/charCreation.js&#45;&gt;actions/Player.js -->
<g id="edge42" class="edge"><title>scenes/charCreation.js&#45;&gt;actions/Player.js</title>
<path fill="none" stroke="#757575" d="M1406.16,-431.045C1557.3,-438.72 1883.29,-455.274 2025.64,-462.503"/>
<polygon fill="#757575" stroke="#757575" points="2025.81,-466.016 2035.98,-463.028 2026.17,-459.025 2025.81,-466.016"/>
</g>
<!-- scenes/charCreation.js&#45;&gt;symbols/breastCup.js -->
<g id="edge46" class="edge"><title>scenes/charCreation.js&#45;&gt;symbols/breastCup.js</title>
<path fill="none" stroke="#757575" d="M1382.53,-438.547C1401.4,-442.331 1422.59,-446.468 1442,-450 1711.62,-499.055 2032.24,-549.72 2182.01,-572.943"/>
<polygon fill="#757575" stroke="#757575" points="2181.64,-576.427 2192.06,-574.5 2182.72,-569.51 2181.64,-576.427"/>
</g>
<!-- scenes/charCreation.js&#45;&gt;scenes/menus.js -->
<g id="edge43" class="edge"><title>scenes/charCreation.js&#45;&gt;scenes/menus.js</title>
<path fill="none" stroke="#757575" d="M1339.48,-415.455C1369.82,-388.463 1445.62,-321.043 1482.37,-288.351"/>
<polygon fill="#757575" stroke="#757575" points="1484.86,-290.823 1490,-281.562 1480.2,-285.593 1484.86,-290.823"/>
</g>
<!-- scenes/sceneTextStore.js -->
<g id="node36" class="node"><title>scenes/sceneTextStore.js</title>
<path fill="none" stroke="#c6c5fe" d="M1776.33,-322.5C1776.33,-322.5 1609.67,-322.5 1609.67,-322.5 1605.83,-322.5 1602,-318.667 1602,-314.833 1602,-314.833 1602,-307.167 1602,-307.167 1602,-303.333 1605.83,-299.5 1609.67,-299.5 1609.67,-299.5 1776.33,-299.5 1776.33,-299.5 1780.17,-299.5 1784,-303.333 1784,-307.167 1784,-307.167 1784,-314.833 1784,-314.833 1784,-318.667 1780.17,-322.5 1776.33,-322.5"/>
<text text-anchor="middle" x="1693" y="-307.3" font-family="Arial" font-size="14.00" fill="#c6c5fe">scenes/sceneTextStore.js</text>
</g>
<!-- scenes/charCreation.js&#45;&gt;scenes/sceneTextStore.js -->
<g id="edge45" class="edge"><title>scenes/charCreation.js&#45;&gt;scenes/sceneTextStore.js</title>
<path fill="none" stroke="#757575" d="M1406.02,-429.396C1453.82,-428.336 1515.06,-422.48 1566,-403 1609,-386.556 1650.44,-351.395 1673.44,-329.618"/>
<polygon fill="#757575" stroke="#757575" points="1676.02,-331.992 1680.78,-322.526 1671.16,-326.959 1676.02,-331.992"/>
</g>
<!-- symbols/butt.js -->
<g id="node37" class="node"><title>symbols/butt.js</title>
<path fill="none" stroke="#c6c5fe" d="M1957.83,-592.5C1957.83,-592.5 1862.17,-592.5 1862.17,-592.5 1858.33,-592.5 1854.5,-588.667 1854.5,-584.833 1854.5,-584.833 1854.5,-577.167 1854.5,-577.167 1854.5,-573.333 1858.33,-569.5 1862.17,-569.5 1862.17,-569.5 1957.83,-569.5 1957.83,-569.5 1961.67,-569.5 1965.5,-573.333 1965.5,-577.167 1965.5,-577.167 1965.5,-584.833 1965.5,-584.833 1965.5,-588.667 1961.67,-592.5 1957.83,-592.5"/>
<text text-anchor="middle" x="1910" y="-577.3" font-family="Arial" font-size="14.00" fill="#c6c5fe">symbols/butt.js</text>
</g>
<!-- scenes/charCreation.js&#45;&gt;symbols/butt.js -->
<g id="edge47" class="edge"><title>scenes/charCreation.js&#45;&gt;symbols/butt.js</title>
<path fill="none" stroke="#757575" d="M1337.3,-438.746C1356.32,-458.597 1397.96,-498.43 1442,-517 1577,-573.93 1751.59,-582.533 1844.36,-582.561"/>
<polygon fill="#757575" stroke="#757575" points="1844.45,-586.061 1854.44,-582.53 1844.43,-579.061 1844.45,-586.061"/>
</g>
<!-- symbols/hips.js -->
<g id="node38" class="node"><title>symbols/hips.js</title>
<path fill="none" stroke="#c6c5fe" d="M2144.83,-677.5C2144.83,-677.5 2046.17,-677.5 2046.17,-677.5 2042.33,-677.5 2038.5,-673.667 2038.5,-669.833 2038.5,-669.833 2038.5,-662.167 2038.5,-662.167 2038.5,-658.333 2042.33,-654.5 2046.17,-654.5 2046.17,-654.5 2144.83,-654.5 2144.83,-654.5 2148.67,-654.5 2152.5,-658.333 2152.5,-662.167 2152.5,-662.167 2152.5,-669.833 2152.5,-669.833 2152.5,-673.667 2148.67,-677.5 2144.83,-677.5"/>
<text text-anchor="middle" x="2095.5" y="-662.3" font-family="Arial" font-size="14.00" fill="#c6c5fe">symbols/hips.js</text>
</g>
<!-- scenes/charCreation.js&#45;&gt;symbols/hips.js -->
<g id="edge48" class="edge"><title>scenes/charCreation.js&#45;&gt;symbols/hips.js</title>
<path fill="none" stroke="#757575" d="M1333.88,-438.531C1350.2,-463.016 1391.88,-520.305 1442,-549 1633.62,-658.714 1904.51,-669.694 2028.22,-668.309"/>
<polygon fill="#757575" stroke="#757575" points="2028.36,-671.807 2038.3,-668.164 2028.26,-664.808 2028.36,-671.807"/>
</g>
<!-- scenes/menus.js&#45;&gt;actions/Core.js -->
<g id="edge49" class="edge"><title>scenes/menus.js&#45;&gt;actions/Core.js</title>
<path fill="none" stroke="#757575" d="M1566.23,-270C1585.73,-270 1607.37,-270 1627.12,-270"/>
<polygon fill="#757575" stroke="#757575" points="1627.26,-273.5 1637.26,-270 1627.26,-266.5 1627.26,-273.5"/>
</g>
<!-- scenes/menus.js&#45;&gt;scenes/sceneSymbols.js -->
<g id="edge50" class="edge"><title>scenes/menus.js&#45;&gt;scenes/sceneSymbols.js</title>
<path fill="none" stroke="#757575" d="M1521.81,-258.275C1575.52,-221.995 1748.85,-114 1909,-114 1909,-114 1909,-114 2450,-114 2557.75,-114 2681.17,-107.436 2764.62,-102.024"/>
<polygon fill="#757575" stroke="#757575" points="2765.1,-105.5 2774.85,-101.353 2764.64,-98.5149 2765.1,-105.5"/>
</g>
<!-- scenes/menus.js&#45;&gt;scenes/sceneTextStore.js -->
<g id="edge51" class="edge"><title>scenes/menus.js&#45;&gt;scenes/sceneTextStore.js</title>
<path fill="none" stroke="#757575" d="M1557.59,-281.53C1579.99,-286.442 1606.29,-292.209 1629.67,-297.333"/>
<polygon fill="#757575" stroke="#757575" points="1628.97,-300.763 1639.48,-299.486 1630.47,-293.925 1628.97,-300.763"/>
</g>
<!-- scenes/sceneTextStore.js&#45;&gt;scenes/sceneSymbols.js -->
<g id="edge59" class="edge"><title>scenes/sceneTextStore.js&#45;&gt;scenes/sceneSymbols.js</title>
<path fill="none" stroke="#757575" d="M1761.76,-299.494C1977.97,-262.731 2642.84,-149.274 2739,-128 2763.54,-122.571 2790.54,-115.456 2812.98,-109.223"/>
<polygon fill="#757575" stroke="#757575" points="2813.93,-112.591 2822.61,-106.523 2812.04,-105.851 2813.93,-112.591"/>
</g>
<!-- scenes/sceneTextStore.js&#45;&gt;components/nameInput.js -->
<g id="edge58" class="edge"><title>scenes/sceneTextStore.js&#45;&gt;components/nameInput.js</title>
<path fill="none" stroke="#757575" d="M1784.24,-311C1792.58,-311 1801.05,-311 1809.46,-311"/>
<polygon fill="#757575" stroke="#757575" points="1809.68,-314.5 1819.68,-311 1809.68,-307.5 1809.68,-314.5"/>
</g>
<!-- symbols/butt.js&#45;&gt;utils.js -->
<g id="edge62" class="edge"><title>symbols/butt.js&#45;&gt;utils.js</title>
<path fill="none" stroke="#757575" d="M1965.62,-592.239C2035.26,-605.568 2159.54,-626 2267,-626 2267,-626 2267,-626 2450,-626 2588.64,-626 2752.42,-604.4 2824.62,-593.77"/>
<polygon fill="#757575" stroke="#757575" points="2825.22,-597.22 2834.6,-592.285 2824.19,-590.296 2825.22,-597.22"/>
</g>
<!-- symbols/hips.js&#45;&gt;utils.js -->
<g id="edge63" class="edge"><title>symbols/hips.js&#45;&gt;utils.js</title>
<path fill="none" stroke="#757575" d="M2152.8,-670.403C2265.64,-677.772 2526.84,-687.49 2739,-640 2772.16,-632.579 2807.66,-616.614 2831.96,-604.319"/>
<polygon fill="#757575" stroke="#757575" points="2833.73,-607.343 2841.01,-599.645 2830.52,-601.123 2833.73,-607.343"/>
</g>
<!-- setupTests.js -->
<g id="node40" class="node"><title>setupTests.js</title>
<path fill="none" stroke="#cfffac" d="M94.3333,-578.5C94.3333,-578.5 7.66667,-578.5 7.66667,-578.5 3.83333,-578.5 0,-574.667 0,-570.833 0,-570.833 0,-563.167 0,-563.167 0,-559.333 3.83333,-555.5 7.66667,-555.5 7.66667,-555.5 94.3333,-555.5 94.3333,-555.5 98.1667,-555.5 102,-559.333 102,-563.167 102,-563.167 102,-570.833 102,-570.833 102,-574.667 98.1667,-578.5 94.3333,-578.5"/>
<text text-anchor="middle" x="51" y="-563.3" font-family="Arial" font-size="14.00" fill="#cfffac">setupTests.js</text>
</g>
</g>
</svg>
