<?xml version="1.0" encoding="UTF-8" standalone="no"?>
<!DOCTYPE svg PUBLIC "-//W3C//DTD SVG 1.1//EN"
 "http://www.w3.org/Graphics/SVG/1.1/DTD/svg11.dtd">
<!-- Generated by graphviz version 2.38.0 (20140413.2041)
 -->
<!-- Title: G Pages: 1 -->
<svg width="1854pt" height="421pt"
 viewBox="0.00 0.00 1854.20 421.37" xmlns="http://www.w3.org/2000/svg" xmlns:xlink="http://www.w3.org/1999/xlink">
<g id="graph0" class="graph" transform="scale(1 1) rotate(0) translate(21.6 399.767)">
<title>G</title>
<polygon fill="#111111" stroke="none" points="-21.6,21.6 -21.6,-399.767 1832.6,-399.767 1832.6,21.6 -21.6,21.6"/>
<!-- actions/Core.js -->
<g id="node1" class="node"><title>actions/Core.js</title>
<path fill="none" stroke="#c6c5fe" d="M908.333,-260.167C908.333,-260.167 812.667,-260.167 812.667,-260.167 808.833,-260.167 805,-256.333 805,-252.5 805,-252.5 805,-244.833 805,-244.833 805,-241 808.833,-237.167 812.667,-237.167 812.667,-237.167 908.333,-237.167 908.333,-237.167 912.167,-237.167 916,-241 916,-244.833 916,-244.833 916,-252.5 916,-252.5 916,-256.333 912.167,-260.167 908.333,-260.167"/>
<text text-anchor="middle" x="860.5" y="-244.967" font-family="Arial" font-size="14.00" fill="#c6c5fe">actions/Core.js</text>
</g>
<!-- scenes/sceneFunctions.js -->
<g id="node2" class="node"><title>scenes/sceneFunctions.js</title>
<path fill="none" stroke="#c6c5fe" d="M1183.83,-282.167C1183.83,-282.167 1017.17,-282.167 1017.17,-282.167 1013.33,-282.167 1009.5,-278.333 1009.5,-274.5 1009.5,-274.5 1009.5,-266.833 1009.5,-266.833 1009.5,-263 1013.33,-259.167 1017.17,-259.167 1017.17,-259.167 1183.83,-259.167 1183.83,-259.167 1187.67,-259.167 1191.5,-263 1191.5,-266.833 1191.5,-266.833 1191.5,-274.5 1191.5,-274.5 1191.5,-278.333 1187.67,-282.167 1183.83,-282.167"/>
<text text-anchor="middle" x="1100.5" y="-266.967" font-family="Arial" font-size="14.00" fill="#c6c5fe">scenes/sceneFunctions.js</text>
</g>
<!-- actions/Core.js&#45;&gt;scenes/sceneFunctions.js -->
<g id="edge1" class="edge"><title>actions/Core.js&#45;&gt;scenes/sceneFunctions.js</title>
<path fill="none" stroke="#757575" d="M916.102,-253.714C940.777,-255.995 970.739,-258.764 999.232,-261.398"/>
<polygon fill="#757575" stroke="#757575" points="998.958,-264.888 1009.24,-262.323 999.602,-257.917 998.958,-264.888"/>
</g>
<!-- scenes/menus.js -->
<g id="node23" class="node"><title>scenes/menus.js</title>
<path fill="none" stroke="#c6c5fe" d="M1381.83,-209.167C1381.83,-209.167 1273.17,-209.167 1273.17,-209.167 1269.33,-209.167 1265.5,-205.333 1265.5,-201.5 1265.5,-201.5 1265.5,-193.833 1265.5,-193.833 1265.5,-190 1269.33,-186.167 1273.17,-186.167 1273.17,-186.167 1381.83,-186.167 1381.83,-186.167 1385.67,-186.167 1389.5,-190 1389.5,-193.833 1389.5,-193.833 1389.5,-201.5 1389.5,-201.5 1389.5,-205.333 1385.67,-209.167 1381.83,-209.167"/>
<text text-anchor="middle" x="1327.5" y="-193.967" font-family="Arial" font-size="14.00" fill="#c6c5fe">scenes/menus.js</text>
</g>
<!-- scenes/sceneFunctions.js&#45;&gt;scenes/menus.js -->
<g id="edge34" class="edge"><title>scenes/sceneFunctions.js&#45;&gt;scenes/menus.js</title>
<path fill="none" stroke="#757575" d="M1180.23,-259.118C1190.74,-256.551 1201.25,-253.437 1211,-249.667 1228.49,-242.903 1230.15,-235.902 1247,-227.667 1258.08,-222.251 1270.4,-217.173 1281.97,-212.79"/>
<polygon fill="#757575" stroke="#757575" points="1283.3,-216.029 1291.47,-209.28 1280.87,-209.463 1283.3,-216.029"/>
</g>
<!-- scenes/charCreation.js -->
<g id="node24" class="node"><title>scenes/charCreation.js</title>
<path fill="none" stroke="#c6c5fe" d="M1400.33,-260.167C1400.33,-260.167 1254.67,-260.167 1254.67,-260.167 1250.83,-260.167 1247,-256.333 1247,-252.5 1247,-252.5 1247,-244.833 1247,-244.833 1247,-241 1250.83,-237.167 1254.67,-237.167 1254.67,-237.167 1400.33,-237.167 1400.33,-237.167 1404.17,-237.167 1408,-241 1408,-244.833 1408,-244.833 1408,-252.5 1408,-252.5 1408,-256.333 1404.17,-260.167 1400.33,-260.167"/>
<text text-anchor="middle" x="1327.5" y="-244.967" font-family="Arial" font-size="14.00" fill="#c6c5fe">scenes/charCreation.js</text>
</g>
<!-- scenes/sceneFunctions.js&#45;&gt;scenes/charCreation.js -->
<g id="edge33" class="edge"><title>scenes/sceneFunctions.js&#45;&gt;scenes/charCreation.js</title>
<path fill="none" stroke="#757575" d="M1191.72,-261.845C1206.52,-260.398 1221.86,-258.898 1236.65,-257.452"/>
<polygon fill="#757575" stroke="#757575" points="1237.18,-260.917 1246.79,-256.461 1236.5,-253.95 1237.18,-260.917"/>
</g>
<!-- scenes/sceneSymbols.js -->
<g id="node26" class="node"><title>scenes/sceneSymbols.js</title>
<path fill="none" stroke="#cfffac" d="M1803.33,-260.167C1803.33,-260.167 1642.67,-260.167 1642.67,-260.167 1638.83,-260.167 1635,-256.333 1635,-252.5 1635,-252.5 1635,-244.833 1635,-244.833 1635,-241 1638.83,-237.167 1642.67,-237.167 1642.67,-237.167 1803.33,-237.167 1803.33,-237.167 1807.17,-237.167 1811,-241 1811,-244.833 1811,-244.833 1811,-252.5 1811,-252.5 1811,-256.333 1807.17,-260.167 1803.33,-260.167"/>
<text text-anchor="middle" x="1723" y="-244.967" font-family="Arial" font-size="14.00" fill="#cfffac">scenes/sceneSymbols.js</text>
</g>
<!-- scenes/sceneFunctions.js&#45;&gt;scenes/sceneSymbols.js -->
<g id="edge35" class="edge"><title>scenes/sceneFunctions.js&#45;&gt;scenes/sceneSymbols.js</title>
<path fill="none" stroke="#757575" d="M1191.51,-272.259C1291.26,-273.317 1456.84,-272.972 1599,-262.667 1607.32,-262.064 1615.94,-261.322 1624.59,-260.497"/>
<polygon fill="#757575" stroke="#757575" points="1625.12,-263.961 1634.73,-259.493 1624.43,-256.995 1625.12,-263.961"/>
</g>
<!-- actions/UI.js -->
<g id="node3" class="node"><title>actions/UI.js</title>
<path fill="none" stroke="#cfffac" d="M1560.83,-160.167C1560.83,-160.167 1482.17,-160.167 1482.17,-160.167 1478.33,-160.167 1474.5,-156.333 1474.5,-152.5 1474.5,-152.5 1474.5,-144.833 1474.5,-144.833 1474.5,-141 1478.33,-137.167 1482.17,-137.167 1482.17,-137.167 1560.83,-137.167 1560.83,-137.167 1564.67,-137.167 1568.5,-141 1568.5,-144.833 1568.5,-144.833 1568.5,-152.5 1568.5,-152.5 1568.5,-156.333 1564.67,-160.167 1560.83,-160.167"/>
<text text-anchor="middle" x="1521.5" y="-144.967" font-family="Arial" font-size="14.00" fill="#cfffac">actions/UI.js</text>
</g>
<!-- components/appRoot.js -->
<g id="node4" class="node"><title>components/appRoot.js</title>
<path fill="none" stroke="#c6c5fe" d="M261.333,-254.167C261.333,-254.167 108.667,-254.167 108.667,-254.167 104.833,-254.167 101,-250.333 101,-246.5 101,-246.5 101,-238.833 101,-238.833 101,-235 104.833,-231.167 108.667,-231.167 108.667,-231.167 261.333,-231.167 261.333,-231.167 265.167,-231.167 269,-235 269,-238.833 269,-238.833 269,-246.5 269,-246.5 269,-250.333 265.167,-254.167 261.333,-254.167"/>
<text text-anchor="middle" x="185" y="-238.967" font-family="Arial" font-size="14.00" fill="#c6c5fe">components/appRoot.js</text>
</g>
<!-- components/lowerButtons.js -->
<g id="node5" class="node"><title>components/lowerButtons.js</title>
<path fill="none" stroke="#c6c5fe" d="M492.333,-254.167C492.333,-254.167 312.667,-254.167 312.667,-254.167 308.833,-254.167 305,-250.333 305,-246.5 305,-246.5 305,-238.833 305,-238.833 305,-235 308.833,-231.167 312.667,-231.167 312.667,-231.167 492.333,-231.167 492.333,-231.167 496.167,-231.167 500,-235 500,-238.833 500,-238.833 500,-246.5 500,-246.5 500,-250.333 496.167,-254.167 492.333,-254.167"/>
<text text-anchor="middle" x="402.5" y="-238.967" font-family="Arial" font-size="14.00" fill="#c6c5fe">components/lowerButtons.js</text>
</g>
<!-- components/appRoot.js&#45;&gt;components/lowerButtons.js -->
<g id="edge2" class="edge"><title>components/appRoot.js&#45;&gt;components/lowerButtons.js</title>
<path fill="none" stroke="#757575" d="M269.01,-242.667C277.447,-242.667 286.097,-242.667 294.74,-242.667"/>
<polygon fill="#757575" stroke="#757575" points="294.868,-246.167 304.868,-242.667 294.868,-239.167 294.868,-246.167"/>
</g>
<!-- components/menuBar.js -->
<g id="node6" class="node"><title>components/menuBar.js</title>
<path fill="none" stroke="#c6c5fe" d="M479.833,-295.167C479.833,-295.167 325.167,-295.167 325.167,-295.167 321.333,-295.167 317.5,-291.333 317.5,-287.5 317.5,-287.5 317.5,-279.833 317.5,-279.833 317.5,-276 321.333,-272.167 325.167,-272.167 325.167,-272.167 479.833,-272.167 479.833,-272.167 483.667,-272.167 487.5,-276 487.5,-279.833 487.5,-279.833 487.5,-287.5 487.5,-287.5 487.5,-291.333 483.667,-295.167 479.833,-295.167"/>
<text text-anchor="middle" x="402.5" y="-279.967" font-family="Arial" font-size="14.00" fill="#c6c5fe">components/menuBar.js</text>
</g>
<!-- components/appRoot.js&#45;&gt;components/menuBar.js -->
<g id="edge3" class="edge"><title>components/appRoot.js&#45;&gt;components/menuBar.js</title>
<path fill="none" stroke="#757575" d="M246.602,-254.197C272.88,-259.196 303.817,-265.082 331.106,-270.274"/>
<polygon fill="#757575" stroke="#757575" points="330.502,-273.722 340.98,-272.152 331.81,-266.845 330.502,-273.722"/>
</g>
<!-- components/output.js -->
<g id="node7" class="node"><title>components/output.js</title>
<path fill="none" stroke="#cfffac" d="M470.833,-213.167C470.833,-213.167 334.167,-213.167 334.167,-213.167 330.333,-213.167 326.5,-209.333 326.5,-205.5 326.5,-205.5 326.5,-197.833 326.5,-197.833 326.5,-194 330.333,-190.167 334.167,-190.167 334.167,-190.167 470.833,-190.167 470.833,-190.167 474.667,-190.167 478.5,-194 478.5,-197.833 478.5,-197.833 478.5,-205.5 478.5,-205.5 478.5,-209.333 474.667,-213.167 470.833,-213.167"/>
<text text-anchor="middle" x="402.5" y="-197.967" font-family="Arial" font-size="14.00" fill="#cfffac">components/output.js</text>
</g>
<!-- components/appRoot.js&#45;&gt;components/output.js -->
<g id="edge4" class="edge"><title>components/appRoot.js&#45;&gt;components/output.js</title>
<path fill="none" stroke="#757575" d="M246.602,-231.137C272.88,-226.137 303.817,-220.251 331.106,-215.059"/>
<polygon fill="#757575" stroke="#757575" points="331.81,-218.488 340.98,-213.181 330.502,-211.612 331.81,-218.488"/>
</g>
<!-- components/statBar.js -->
<g id="node8" class="node"><title>components/statBar.js</title>
<path fill="none" stroke="#c6c5fe" d="M473.833,-337.167C473.833,-337.167 331.167,-337.167 331.167,-337.167 327.333,-337.167 323.5,-333.333 323.5,-329.5 323.5,-329.5 323.5,-321.833 323.5,-321.833 323.5,-318 327.333,-314.167 331.167,-314.167 331.167,-314.167 473.833,-314.167 473.833,-314.167 477.667,-314.167 481.5,-318 481.5,-321.833 481.5,-321.833 481.5,-329.5 481.5,-329.5 481.5,-333.333 477.667,-337.167 473.833,-337.167"/>
<text text-anchor="middle" x="402.5" y="-321.967" font-family="Arial" font-size="14.00" fill="#c6c5fe">components/statBar.js</text>
</g>
<!-- components/appRoot.js&#45;&gt;components/statBar.js -->
<g id="edge5" class="edge"><title>components/appRoot.js&#45;&gt;components/statBar.js</title>
<path fill="none" stroke="#757575" d="M205.115,-254.366C228.078,-267.966 268.129,-290.253 305,-303.667 313.154,-306.633 321.846,-309.285 330.546,-311.632"/>
<polygon fill="#757575" stroke="#757575" points="329.788,-315.051 340.344,-314.151 331.531,-308.271 329.788,-315.051"/>
</g>
<!-- components/buttonGrid.js -->
<g id="node10" class="node"><title>components/buttonGrid.js</title>
<path fill="none" stroke="#c6c5fe" d="M715.333,-255.167C715.333,-255.167 551.667,-255.167 551.667,-255.167 547.833,-255.167 544,-251.333 544,-247.5 544,-247.5 544,-239.833 544,-239.833 544,-236 547.833,-232.167 551.667,-232.167 551.667,-232.167 715.333,-232.167 715.333,-232.167 719.167,-232.167 723,-236 723,-239.833 723,-239.833 723,-247.5 723,-247.5 723,-251.333 719.167,-255.167 715.333,-255.167"/>
<text text-anchor="middle" x="633.5" y="-239.967" font-family="Arial" font-size="14.00" fill="#c6c5fe">components/buttonGrid.js</text>
</g>
<!-- components/lowerButtons.js&#45;&gt;components/buttonGrid.js -->
<g id="edge10" class="edge"><title>components/lowerButtons.js&#45;&gt;components/buttonGrid.js</title>
<path fill="none" stroke="#757575" d="M500.285,-243.089C511.313,-243.138 522.566,-243.187 533.621,-243.235"/>
<polygon fill="#757575" stroke="#757575" points="533.69,-246.735 543.705,-243.279 533.721,-239.735 533.69,-246.735"/>
</g>
<!-- components/menuBar.js&#45;&gt;components/buttonGrid.js -->
<g id="edge11" class="edge"><title>components/menuBar.js&#45;&gt;components/buttonGrid.js</title>
<path fill="none" stroke="#757575" d="M469.429,-272.151C496.613,-267.402 528.281,-261.871 556.439,-256.952"/>
<polygon fill="#757575" stroke="#757575" points="557.391,-260.339 566.64,-255.171 556.187,-253.444 557.391,-260.339"/>
</g>
<!-- components/spriteDisplay.js -->
<g id="node12" class="node"><title>components/spriteDisplay.js</title>
<path fill="none" stroke="#cfffac" d="M723.333,-296.167C723.333,-296.167 543.667,-296.167 543.667,-296.167 539.833,-296.167 536,-292.333 536,-288.5 536,-288.5 536,-280.833 536,-280.833 536,-277 539.833,-273.167 543.667,-273.167 543.667,-273.167 723.333,-273.167 723.333,-273.167 727.167,-273.167 731,-277 731,-280.833 731,-280.833 731,-288.5 731,-288.5 731,-292.333 727.167,-296.167 723.333,-296.167"/>
<text text-anchor="middle" x="633.5" y="-280.967" font-family="Arial" font-size="14.00" fill="#cfffac">components/spriteDisplay.js</text>
</g>
<!-- components/statBar.js&#45;&gt;components/spriteDisplay.js -->
<g id="edge12" class="edge"><title>components/statBar.js&#45;&gt;components/spriteDisplay.js</title>
<path fill="none" stroke="#757575" d="M467.899,-314.137C495.945,-309.115 528.986,-303.2 558.078,-297.991"/>
<polygon fill="#757575" stroke="#757575" points="558.962,-301.389 568.188,-296.181 557.728,-294.498 558.962,-301.389"/>
</g>
<!-- components/statDisplay.js -->
<g id="node13" class="node"><title>components/statDisplay.js</title>
<path fill="none" stroke="#cfffac" d="M716.833,-378.167C716.833,-378.167 550.167,-378.167 550.167,-378.167 546.333,-378.167 542.5,-374.333 542.5,-370.5 542.5,-370.5 542.5,-362.833 542.5,-362.833 542.5,-359 546.333,-355.167 550.167,-355.167 550.167,-355.167 716.833,-355.167 716.833,-355.167 720.667,-355.167 724.5,-359 724.5,-362.833 724.5,-362.833 724.5,-370.5 724.5,-370.5 724.5,-374.333 720.667,-378.167 716.833,-378.167"/>
<text text-anchor="middle" x="633.5" y="-362.967" font-family="Arial" font-size="14.00" fill="#cfffac">components/statDisplay.js</text>
</g>
<!-- components/statBar.js&#45;&gt;components/statDisplay.js -->
<g id="edge13" class="edge"><title>components/statBar.js&#45;&gt;components/statDisplay.js</title>
<path fill="none" stroke="#757575" d="M467.899,-337.197C495.945,-342.218 528.986,-348.134 558.078,-353.342"/>
<polygon fill="#757575" stroke="#757575" points="557.728,-356.835 568.188,-355.152 558.962,-349.945 557.728,-356.835"/>
</g>
<!-- components/timeDisplay.js -->
<g id="node14" class="node"><title>components/timeDisplay.js</title>
<path fill="none" stroke="#cfffac" d="M719.333,-337.167C719.333,-337.167 547.667,-337.167 547.667,-337.167 543.833,-337.167 540,-333.333 540,-329.5 540,-329.5 540,-321.833 540,-321.833 540,-318 543.833,-314.167 547.667,-314.167 547.667,-314.167 719.333,-314.167 719.333,-314.167 723.167,-314.167 727,-318 727,-321.833 727,-321.833 727,-329.5 727,-329.5 727,-333.333 723.167,-337.167 719.333,-337.167"/>
<text text-anchor="middle" x="633.5" y="-321.967" font-family="Arial" font-size="14.00" fill="#cfffac">components/timeDisplay.js</text>
</g>
<!-- components/statBar.js&#45;&gt;components/timeDisplay.js -->
<g id="edge14" class="edge"><title>components/statBar.js&#45;&gt;components/timeDisplay.js</title>
<path fill="none" stroke="#757575" d="M481.668,-325.667C496.974,-325.667 513.245,-325.667 529.223,-325.667"/>
<polygon fill="#757575" stroke="#757575" points="529.666,-329.167 539.666,-325.667 529.666,-322.167 529.666,-329.167"/>
</g>
<!-- components/button.js -->
<g id="node9" class="node"><title>components/button.js</title>
<path fill="none" stroke="#cfffac" d="M1168.83,-323.167C1168.83,-323.167 1032.17,-323.167 1032.17,-323.167 1028.33,-323.167 1024.5,-319.333 1024.5,-315.5 1024.5,-315.5 1024.5,-307.833 1024.5,-307.833 1024.5,-304 1028.33,-300.167 1032.17,-300.167 1032.17,-300.167 1168.83,-300.167 1168.83,-300.167 1172.67,-300.167 1176.5,-304 1176.5,-307.833 1176.5,-307.833 1176.5,-315.5 1176.5,-315.5 1176.5,-319.333 1172.67,-323.167 1168.83,-323.167"/>
<text text-anchor="middle" x="1100.5" y="-307.967" font-family="Arial" font-size="14.00" fill="#cfffac">components/button.js</text>
</g>
<!-- components/buttonGrid.js&#45;&gt;actions/Core.js -->
<g id="edge6" class="edge"><title>components/buttonGrid.js&#45;&gt;actions/Core.js</title>
<path fill="none" stroke="#757575" d="M723.103,-245.636C746.991,-246.167 772.386,-246.731 794.706,-247.227"/>
<polygon fill="#757575" stroke="#757575" points="794.653,-250.726 804.729,-247.45 794.809,-243.728 794.653,-250.726"/>
</g>
<!-- components/buttonGrid.js&#45;&gt;actions/UI.js -->
<g id="edge7" class="edge"><title>components/buttonGrid.js&#45;&gt;actions/UI.js</title>
<path fill="none" stroke="#757575" d="M645.632,-231.887C667.332,-209.414 717.511,-159.801 767,-127.667 858.564,-68.213 883.373,-48.1019 990,-24.6667 1172.36,15.4136 1237.51,9.45952 1408,-66.6667 1443.85,-82.6734 1479.5,-111.382 1500.77,-130.228"/>
<polygon fill="#757575" stroke="#757575" points="1498.68,-133.056 1508.45,-137.159 1503.37,-127.86 1498.68,-133.056"/>
</g>
<!-- components/buttonWrap.js -->
<g id="node11" class="node"><title>components/buttonWrap.js</title>
<path fill="none" stroke="#c6c5fe" d="M946.333,-321.167C946.333,-321.167 774.667,-321.167 774.667,-321.167 770.833,-321.167 767,-317.333 767,-313.5 767,-313.5 767,-305.833 767,-305.833 767,-302 770.833,-298.167 774.667,-298.167 774.667,-298.167 946.333,-298.167 946.333,-298.167 950.167,-298.167 954,-302 954,-305.833 954,-305.833 954,-313.5 954,-313.5 954,-317.333 950.167,-321.167 946.333,-321.167"/>
<text text-anchor="middle" x="860.5" y="-305.967" font-family="Arial" font-size="14.00" fill="#c6c5fe">components/buttonWrap.js</text>
</g>
<!-- components/buttonGrid.js&#45;&gt;components/buttonWrap.js -->
<g id="edge8" class="edge"><title>components/buttonGrid.js&#45;&gt;components/buttonWrap.js</title>
<path fill="none" stroke="#757575" d="M696.585,-255.201C708.095,-257.716 719.964,-260.564 731,-263.667 761.811,-272.329 795.881,-284.656 821.194,-294.369"/>
<polygon fill="#757575" stroke="#757575" points="820.194,-297.735 830.783,-298.084 822.723,-291.208 820.194,-297.735"/>
</g>
<!-- components/buttonWrap.js&#45;&gt;components/button.js -->
<g id="edge9" class="edge"><title>components/buttonWrap.js&#45;&gt;components/button.js</title>
<path fill="none" stroke="#757575" d="M954.199,-310.446C973.983,-310.612 994.788,-310.787 1014.27,-310.951"/>
<polygon fill="#757575" stroke="#757575" points="1014.3,-314.451 1024.33,-311.035 1014.36,-307.451 1014.3,-314.451"/>
</g>
<!-- index.js -->
<g id="node15" class="node"><title>index.js</title>
<path fill="none" stroke="#c6c5fe" d="M57.3333,-223.167C57.3333,-223.167 7.66667,-223.167 7.66667,-223.167 3.83333,-223.167 0,-219.333 0,-215.5 0,-215.5 0,-207.833 0,-207.833 0,-204 3.83333,-200.167 7.66667,-200.167 7.66667,-200.167 57.3333,-200.167 57.3333,-200.167 61.1667,-200.167 65,-204 65,-207.833 65,-207.833 65,-215.5 65,-215.5 65,-219.333 61.1667,-223.167 57.3333,-223.167"/>
<text text-anchor="middle" x="32.5" y="-207.967" font-family="Arial" font-size="14.00" fill="#c6c5fe">index.js</text>
</g>
<!-- index.js&#45;&gt;components/appRoot.js -->
<g id="edge15" class="edge"><title>index.js&#45;&gt;components/appRoot.js</title>
<path fill="none" stroke="#757575" d="M65.0497,-218.165C80.5391,-221.356 99.8088,-225.325 118.297,-229.133"/>
<polygon fill="#757575" stroke="#757575" points="117.663,-232.576 128.163,-231.165 119.075,-225.72 117.663,-232.576"/>
</g>
<!-- store/store.js -->
<g id="node16" class="node"><title>store/store.js</title>
<path fill="none" stroke="#c6c5fe" d="M226.833,-192.167C226.833,-192.167 143.167,-192.167 143.167,-192.167 139.333,-192.167 135.5,-188.333 135.5,-184.5 135.5,-184.5 135.5,-176.833 135.5,-176.833 135.5,-173 139.333,-169.167 143.167,-169.167 143.167,-169.167 226.833,-169.167 226.833,-169.167 230.667,-169.167 234.5,-173 234.5,-176.833 234.5,-176.833 234.5,-184.5 234.5,-184.5 234.5,-188.333 230.667,-192.167 226.833,-192.167"/>
<text text-anchor="middle" x="185" y="-176.967" font-family="Arial" font-size="14.00" fill="#c6c5fe">store/store.js</text>
</g>
<!-- index.js&#45;&gt;store/store.js -->
<g id="edge16" class="edge"><title>index.js&#45;&gt;store/store.js</title>
<path fill="none" stroke="#757575" d="M65.0497,-205.168C82.531,-201.567 104.827,-196.975 125.381,-192.741"/>
<polygon fill="#757575" stroke="#757575" points="126.214,-196.143 135.303,-190.697 124.802,-189.287 126.214,-196.143"/>
</g>
<!-- reducers/root.js -->
<g id="node17" class="node"><title>reducers/root.js</title>
<path fill="none" stroke="#c6c5fe" d="M910.833,-160.167C910.833,-160.167 810.167,-160.167 810.167,-160.167 806.333,-160.167 802.5,-156.333 802.5,-152.5 802.5,-152.5 802.5,-144.833 802.5,-144.833 802.5,-141 806.333,-137.167 810.167,-137.167 810.167,-137.167 910.833,-137.167 910.833,-137.167 914.667,-137.167 918.5,-141 918.5,-144.833 918.5,-144.833 918.5,-152.5 918.5,-152.5 918.5,-156.333 914.667,-160.167 910.833,-160.167"/>
<text text-anchor="middle" x="860.5" y="-144.967" font-family="Arial" font-size="14.00" fill="#c6c5fe">reducers/root.js</text>
</g>
<!-- store/store.js&#45;&gt;reducers/root.js -->
<g id="edge38" class="edge"><title>store/store.js&#45;&gt;reducers/root.js</title>
<path fill="none" stroke="#757575" d="M234.707,-178.352C353.092,-172.728 656.151,-158.328 791.93,-151.877"/>
<polygon fill="#757575" stroke="#757575" points="792.372,-155.36 802.195,-151.389 792.04,-148.368 792.372,-155.36"/>
</g>
<!-- reducers/root.js&#45;&gt;actions/UI.js -->
<g id="edge17" class="edge"><title>reducers/root.js&#45;&gt;actions/UI.js</title>
<path fill="none" stroke="#757575" d="M918.542,-148.667C1043.54,-148.667 1340.31,-148.667 1464.42,-148.667"/>
<polygon fill="#757575" stroke="#757575" points="1464.47,-152.167 1474.47,-148.667 1464.47,-145.167 1464.47,-152.167"/>
</g>
<!-- reducers/updateLowerButtons.js -->
<g id="node18" class="node"><title>reducers/updateLowerButtons.js</title>
<path fill="none" stroke="#c6c5fe" d="M1203.33,-120.167C1203.33,-120.167 997.667,-120.167 997.667,-120.167 993.833,-120.167 990,-116.333 990,-112.5 990,-112.5 990,-104.833 990,-104.833 990,-101 993.833,-97.1667 997.667,-97.1667 997.667,-97.1667 1203.33,-97.1667 1203.33,-97.1667 1207.17,-97.1667 1211,-101 1211,-104.833 1211,-104.833 1211,-112.5 1211,-112.5 1211,-116.333 1207.17,-120.167 1203.33,-120.167"/>
<text text-anchor="middle" x="1100.5" y="-104.967" font-family="Arial" font-size="14.00" fill="#c6c5fe">reducers/updateLowerButtons.js</text>
</g>
<!-- reducers/root.js&#45;&gt;reducers/updateLowerButtons.js -->
<g id="edge18" class="edge"><title>reducers/root.js&#45;&gt;reducers/updateLowerButtons.js</title>
<path fill="none" stroke="#757575" d="M918.507,-139.086C949.041,-133.954 987.129,-127.553 1020.48,-121.948"/>
<polygon fill="#757575" stroke="#757575" points="1021.38,-125.345 1030.66,-120.236 1020.22,-118.442 1021.38,-125.345"/>
</g>
<!-- reducers/updateMenuBar.js -->
<g id="node19" class="node"><title>reducers/updateMenuBar.js</title>
<path fill="none" stroke="#c6c5fe" d="M1188.33,-200.167C1188.33,-200.167 1012.67,-200.167 1012.67,-200.167 1008.83,-200.167 1005,-196.333 1005,-192.5 1005,-192.5 1005,-184.833 1005,-184.833 1005,-181 1008.83,-177.167 1012.67,-177.167 1012.67,-177.167 1188.33,-177.167 1188.33,-177.167 1192.17,-177.167 1196,-181 1196,-184.833 1196,-184.833 1196,-192.5 1196,-192.5 1196,-196.333 1192.17,-200.167 1188.33,-200.167"/>
<text text-anchor="middle" x="1100.5" y="-184.967" font-family="Arial" font-size="14.00" fill="#c6c5fe">reducers/updateMenuBar.js</text>
</g>
<!-- reducers/root.js&#45;&gt;reducers/updateMenuBar.js -->
<g id="edge19" class="edge"><title>reducers/root.js&#45;&gt;reducers/updateMenuBar.js</title>
<path fill="none" stroke="#757575" d="M918.507,-158.248C949.041,-163.379 987.129,-169.781 1020.48,-175.386"/>
<polygon fill="#757575" stroke="#757575" points="1020.22,-178.891 1030.66,-177.097 1021.38,-171.988 1020.22,-178.891"/>
</g>
<!-- reducers/updateStats.js -->
<g id="node20" class="node"><title>reducers/updateStats.js</title>
<path fill="none" stroke="#c6c5fe" d="M1176.33,-79.1667C1176.33,-79.1667 1024.67,-79.1667 1024.67,-79.1667 1020.83,-79.1667 1017,-75.3334 1017,-71.5 1017,-71.5 1017,-63.8334 1017,-63.8334 1017,-60 1020.83,-56.1667 1024.67,-56.1667 1024.67,-56.1667 1176.33,-56.1667 1176.33,-56.1667 1180.17,-56.1667 1184,-60 1184,-63.8334 1184,-63.8334 1184,-71.5 1184,-71.5 1184,-75.3334 1180.17,-79.1667 1176.33,-79.1667"/>
<text text-anchor="middle" x="1100.5" y="-63.9667" font-family="Arial" font-size="14.00" fill="#c6c5fe">reducers/updateStats.js</text>
</g>
<!-- reducers/root.js&#45;&gt;reducers/updateStats.js -->
<g id="edge20" class="edge"><title>reducers/root.js&#45;&gt;reducers/updateStats.js</title>
<path fill="none" stroke="#757575" d="M881.734,-137.002C906.489,-123.223 950.044,-100.551 990,-87.6667 997.098,-85.378 1004.54,-83.3249 1012.07,-81.4883"/>
<polygon fill="#757575" stroke="#757575" points="1013.04,-84.8575 1021.99,-79.197 1011.46,-78.0371 1013.04,-84.8575"/>
</g>
<!-- store/initialState.js -->
<g id="node21" class="node"><title>store/initialState.js</title>
<path fill="none" stroke="#c6c5fe" d="M1158.33,-241.167C1158.33,-241.167 1042.67,-241.167 1042.67,-241.167 1038.83,-241.167 1035,-237.333 1035,-233.5 1035,-233.5 1035,-225.833 1035,-225.833 1035,-222 1038.83,-218.167 1042.67,-218.167 1042.67,-218.167 1158.33,-218.167 1158.33,-218.167 1162.17,-218.167 1166,-222 1166,-225.833 1166,-225.833 1166,-233.5 1166,-233.5 1166,-237.333 1162.17,-241.167 1158.33,-241.167"/>
<text text-anchor="middle" x="1100.5" y="-225.967" font-family="Arial" font-size="14.00" fill="#c6c5fe">store/initialState.js</text>
</g>
<!-- reducers/root.js&#45;&gt;store/initialState.js -->
<g id="edge21" class="edge"><title>reducers/root.js&#45;&gt;store/initialState.js</title>
<path fill="none" stroke="#757575" d="M882.22,-160.304C907.093,-173.806 950.414,-195.848 990,-208.667 1001.15,-212.277 1013.15,-215.355 1024.98,-217.949"/>
<polygon fill="#757575" stroke="#757575" points="1024.34,-221.392 1034.85,-220.016 1025.78,-214.54 1024.34,-221.392"/>
</g>
<!-- utils.js -->
<g id="node22" class="node"><title>utils.js</title>
<path fill="none" stroke="#cfffac" d="M1347.83,-99.1667C1347.83,-99.1667 1307.17,-99.1667 1307.17,-99.1667 1303.33,-99.1667 1299.5,-95.3334 1299.5,-91.5 1299.5,-91.5 1299.5,-83.8334 1299.5,-83.8334 1299.5,-80 1303.33,-76.1667 1307.17,-76.1667 1307.17,-76.1667 1347.83,-76.1667 1347.83,-76.1667 1351.67,-76.1667 1355.5,-80 1355.5,-83.8334 1355.5,-83.8334 1355.5,-91.5 1355.5,-91.5 1355.5,-95.3334 1351.67,-99.1667 1347.83,-99.1667"/>
<text text-anchor="middle" x="1327.5" y="-83.9667" font-family="Arial" font-size="14.00" fill="#cfffac">utils.js</text>
</g>
<!-- reducers/root.js&#45;&gt;utils.js -->
<g id="edge22" class="edge"><title>reducers/root.js&#45;&gt;utils.js</title>
<path fill="none" stroke="#757575" d="M871.279,-136.817C890.932,-114.055 937.823,-64.8578 990,-46.6667 1082.75,-14.331 1114.2,-29.9959 1211,-46.6667 1239.13,-51.5114 1269.49,-62.537 1292.03,-71.9355"/>
<polygon fill="#757575" stroke="#757575" points="1290.91,-75.2652 1301.48,-75.9756 1293.66,-68.8281 1290.91,-75.2652"/>
</g>
<!-- reducers/updateLowerButtons.js&#45;&gt;utils.js -->
<g id="edge23" class="edge"><title>reducers/updateLowerButtons.js&#45;&gt;utils.js</title>
<path fill="none" stroke="#757575" d="M1211.03,-98.4435C1239.27,-95.8081 1267.76,-93.1494 1289.37,-91.1321"/>
<polygon fill="#757575" stroke="#757575" points="1289.77,-94.6105 1299.4,-90.1963 1289.12,-87.6408 1289.77,-94.6105"/>
</g>
<!-- reducers/updateMenuBar.js&#45;&gt;utils.js -->
<g id="edge25" class="edge"><title>reducers/updateMenuBar.js&#45;&gt;utils.js</title>
<path fill="none" stroke="#757575" d="M1127.31,-177.081C1167.72,-158.94 1246,-123.802 1291.47,-103.393"/>
<polygon fill="#757575" stroke="#757575" points="1292.96,-106.561 1300.65,-99.2727 1290.09,-100.175 1292.96,-106.561"/>
</g>
<!-- reducers/updateMenuBar.js&#45;&gt;scenes/menus.js -->
<g id="edge24" class="edge"><title>reducers/updateMenuBar.js&#45;&gt;scenes/menus.js</title>
<path fill="none" stroke="#757575" d="M1196.27,-192.457C1216.03,-193.248 1236.54,-194.068 1255.27,-194.818"/>
<polygon fill="#757575" stroke="#757575" points="1255.35,-198.323 1265.48,-195.226 1255.63,-191.329 1255.35,-198.323"/>
</g>
<!-- reducers/updateStats.js&#45;&gt;utils.js -->
<g id="edge26" class="edge"><title>reducers/updateStats.js&#45;&gt;utils.js</title>
<path fill="none" stroke="#757575" d="M1184,-75.0004C1220.04,-78.2033 1260.5,-81.7999 1289.07,-84.3399"/>
<polygon fill="#757575" stroke="#757575" points="1289.14,-87.8594 1299.41,-85.2586 1289.76,-80.8869 1289.14,-87.8594"/>
</g>
<!-- store/initialState.js&#45;&gt;scenes/menus.js -->
<g id="edge37" class="edge"><title>store/initialState.js&#45;&gt;scenes/menus.js</title>
<path fill="none" stroke="#757575" d="M1166.28,-220.454C1194.15,-216.49 1226.82,-211.844 1255.36,-207.784"/>
<polygon fill="#757575" stroke="#757575" points="1255.86,-211.248 1265.27,-206.375 1254.88,-204.318 1255.86,-211.248"/>
</g>
<!-- scenes/menus.js&#45;&gt;actions/UI.js -->
<g id="edge30" class="edge"><title>scenes/menus.js&#45;&gt;actions/UI.js</title>
<path fill="none" stroke="#757575" d="M1374,-186.054C1401.38,-179.067 1436.42,-170.125 1465.36,-162.738"/>
<polygon fill="#757575" stroke="#757575" points="1466.5,-166.06 1475.33,-160.196 1464.77,-159.277 1466.5,-166.06"/>
</g>
<!-- scenes/sceneStore.js -->
<g id="node25" class="node"><title>scenes/sceneStore.js</title>
<path fill="none" stroke="#c6c5fe" d="M1591.33,-240.167C1591.33,-240.167 1451.67,-240.167 1451.67,-240.167 1447.83,-240.167 1444,-236.333 1444,-232.5 1444,-232.5 1444,-224.833 1444,-224.833 1444,-221 1447.83,-217.167 1451.67,-217.167 1451.67,-217.167 1591.33,-217.167 1591.33,-217.167 1595.17,-217.167 1599,-221 1599,-224.833 1599,-224.833 1599,-232.5 1599,-232.5 1599,-236.333 1595.17,-240.167 1591.33,-240.167"/>
<text text-anchor="middle" x="1521.5" y="-224.967" font-family="Arial" font-size="14.00" fill="#c6c5fe">scenes/sceneStore.js</text>
</g>
<!-- scenes/menus.js&#45;&gt;scenes/sceneStore.js -->
<g id="edge31" class="edge"><title>scenes/menus.js&#45;&gt;scenes/sceneStore.js</title>
<path fill="none" stroke="#757575" d="M1389.51,-207.518C1405.25,-210.058 1422.43,-212.832 1439.02,-215.511"/>
<polygon fill="#757575" stroke="#757575" points="1438.83,-219.025 1449.26,-217.164 1439.94,-212.114 1438.83,-219.025"/>
</g>
<!-- scenes/menus.js&#45;&gt;scenes/sceneSymbols.js -->
<g id="edge32" class="edge"><title>scenes/menus.js&#45;&gt;scenes/sceneSymbols.js</title>
<path fill="none" stroke="#757575" d="M1389.73,-195.003C1444.91,-193.767 1528.02,-194.798 1599,-207.667 1628.78,-213.066 1661.22,-224.106 1685.3,-233.371"/>
<polygon fill="#757575" stroke="#757575" points="1684.16,-236.684 1694.75,-237.08 1686.72,-230.168 1684.16,-236.684"/>
</g>
<!-- scenes/charCreation.js&#45;&gt;actions/UI.js -->
<g id="edge27" class="edge"><title>scenes/charCreation.js&#45;&gt;actions/UI.js</title>
<path fill="none" stroke="#757575" d="M1361.95,-237.137C1376.37,-231.781 1393.27,-224.981 1408,-217.667 1439.02,-202.259 1472.64,-180.988 1494.96,-166.15"/>
<polygon fill="#757575" stroke="#757575" points="1497.16,-168.893 1503.51,-160.416 1493.26,-163.08 1497.16,-168.893"/>
</g>
<!-- scenes/charCreation.js&#45;&gt;scenes/sceneStore.js -->
<g id="edge28" class="edge"><title>scenes/charCreation.js&#45;&gt;scenes/sceneStore.js</title>
<path fill="none" stroke="#757575" d="M1408.26,-240.359C1416.61,-239.489 1425.13,-238.601 1433.55,-237.724"/>
<polygon fill="#757575" stroke="#757575" points="1434.18,-241.177 1443.77,-236.66 1433.46,-234.215 1434.18,-241.177"/>
</g>
<!-- scenes/charCreation.js&#45;&gt;scenes/sceneSymbols.js -->
<g id="edge29" class="edge"><title>scenes/charCreation.js&#45;&gt;scenes/sceneSymbols.js</title>
<path fill="none" stroke="#757575" d="M1408.13,-248.667C1470.72,-248.667 1558.17,-248.667 1624.87,-248.667"/>
<polygon fill="#757575" stroke="#757575" points="1624.97,-252.167 1634.97,-248.667 1624.97,-245.167 1624.97,-252.167"/>
</g>
<!-- scenes/sceneStore.js&#45;&gt;scenes/sceneSymbols.js -->
<g id="edge36" class="edge"><title>scenes/sceneStore.js&#45;&gt;scenes/sceneSymbols.js</title>
<path fill="none" stroke="#757575" d="M1599.06,-236.342C1607.51,-237.189 1616.2,-238.06 1624.86,-238.928"/>
<polygon fill="#757575" stroke="#757575" points="1624.7,-242.429 1635,-239.944 1625.39,-235.464 1624.7,-242.429"/>
</g>
</g>
</svg>
