<?xml version="1.0" encoding="UTF-8" standalone="no"?>
<!DOCTYPE svg PUBLIC "-//W3C//DTD SVG 1.1//EN"
 "http://www.w3.org/Graphics/SVG/1.1/DTD/svg11.dtd">
<!-- Generated by graphviz version 2.40.1 (20161225.0304)
 -->
<!-- Title: G Pages: 1 -->
<svg width="719pt" height="168pt"
 viewBox="0.00 0.00 719.20 168.20" xmlns="http://www.w3.org/2000/svg" xmlns:xlink="http://www.w3.org/1999/xlink">
<g id="graph0" class="graph" transform="scale(1 1) rotate(0) translate(21.6 146.6)">
<title>G</title>
<polygon fill="#111111" stroke="transparent" points="-21.6,21.6 -21.6,-146.6 697.6,-146.6 697.6,21.6 -21.6,21.6"/>
<!-- actions/UI.js -->
<g id="node1" class="node">
<title>actions/UI.js</title>
<path fill="none" stroke="#cfffac" d="M649.3333,-94C649.3333,-94 569.6667,-94 569.6667,-94 565.8333,-94 562,-90.1667 562,-86.3333 562,-86.3333 562,-78.6667 562,-78.6667 562,-74.8333 565.8333,-71 569.6667,-71 569.6667,-71 649.3333,-71 649.3333,-71 653.1667,-71 657,-74.8333 657,-78.6667 657,-78.6667 657,-86.3333 657,-86.3333 657,-90.1667 653.1667,-94 649.3333,-94"/>
<text text-anchor="middle" x="609.5" y="-78.8" font-family="Arial" font-size="14.00" fill="#cfffac">actions/UI.js</text>
</g>
<!-- components/appRoot.js -->
<g id="node2" class="node">
<title>components/appRoot.js</title>
<path fill="none" stroke="#c6c5fe" d="M264.3333,-84C264.3333,-84 109.6667,-84 109.6667,-84 105.8333,-84 102,-80.1667 102,-76.3333 102,-76.3333 102,-68.6667 102,-68.6667 102,-64.8333 105.8333,-61 109.6667,-61 109.6667,-61 264.3333,-61 264.3333,-61 268.1667,-61 272,-64.8333 272,-68.6667 272,-68.6667 272,-76.3333 272,-76.3333 272,-80.1667 268.1667,-84 264.3333,-84"/>
<text text-anchor="middle" x="187" y="-68.8" font-family="Arial" font-size="14.00" fill="#c6c5fe">components/appRoot.js</text>
</g>
<!-- components/lowerButtons.js -->
<g id="node3" class="node">
<title>components/lowerButtons.js</title>
<path fill="none" stroke="#c6c5fe" d="M499.3333,-125C499.3333,-125 315.6667,-125 315.6667,-125 311.8333,-125 308,-121.1667 308,-117.3333 308,-117.3333 308,-109.6667 308,-109.6667 308,-105.8333 311.8333,-102 315.6667,-102 315.6667,-102 499.3333,-102 499.3333,-102 503.1667,-102 507,-105.8333 507,-109.6667 507,-109.6667 507,-117.3333 507,-117.3333 507,-121.1667 503.1667,-125 499.3333,-125"/>
<text text-anchor="middle" x="407.5" y="-109.8" font-family="Arial" font-size="14.00" fill="#c6c5fe">components/lowerButtons.js</text>
</g>
<!-- components/appRoot.js&#45;&gt;components/lowerButtons.js -->
<g id="edge1" class="edge">
<title>components/appRoot.js&#45;&gt;components/lowerButtons.js</title>
<path fill="none" stroke="#757575" d="M249.0083,-84.0299C275.8954,-89.0293 307.5507,-94.9153 335.4729,-100.1072"/>
<polygon fill="#757575" stroke="#757575" points="335.1041,-103.5985 345.5754,-101.9857 336.3838,-96.7165 335.1041,-103.5985"/>
</g>
<!-- components/output.js -->
<g id="node4" class="node">
<title>components/output.js</title>
<path fill="none" stroke="#cfffac" d="M477.3333,-84C477.3333,-84 337.6667,-84 337.6667,-84 333.8333,-84 330,-80.1667 330,-76.3333 330,-76.3333 330,-68.6667 330,-68.6667 330,-64.8333 333.8333,-61 337.6667,-61 337.6667,-61 477.3333,-61 477.3333,-61 481.1667,-61 485,-64.8333 485,-68.6667 485,-68.6667 485,-76.3333 485,-76.3333 485,-80.1667 481.1667,-84 477.3333,-84"/>
<text text-anchor="middle" x="407.5" y="-68.8" font-family="Arial" font-size="14.00" fill="#cfffac">components/output.js</text>
</g>
<!-- components/appRoot.js&#45;&gt;components/output.js -->
<g id="edge2" class="edge">
<title>components/appRoot.js&#45;&gt;components/output.js</title>
<path fill="none" stroke="#757575" d="M272.2511,-72.5C287.7594,-72.5 303.9645,-72.5 319.5491,-72.5"/>
<polygon fill="#757575" stroke="#757575" points="319.6873,-76.0001 329.6872,-72.5 319.6872,-69.0001 319.6873,-76.0001"/>
</g>
<!-- components/lowerButtons.js&#45;&gt;actions/UI.js -->
<g id="edge3" class="edge">
<title>components/lowerButtons.js&#45;&gt;actions/UI.js</title>
<path fill="none" stroke="#757575" d="M482.7173,-101.9567C505.5704,-98.4496 530.3108,-94.6528 551.818,-91.3522"/>
<polygon fill="#757575" stroke="#757575" points="552.4194,-94.801 561.7728,-89.8245 551.3575,-87.882 552.4194,-94.801"/>
</g>
<!-- index.js -->
<g id="node5" class="node">
<title>index.js</title>
<path fill="none" stroke="#c6c5fe" d="M58.3333,-63C58.3333,-63 7.6667,-63 7.6667,-63 3.8333,-63 0,-59.1667 0,-55.3333 0,-55.3333 0,-47.6667 0,-47.6667 0,-43.8333 3.8333,-40 7.6667,-40 7.6667,-40 58.3333,-40 58.3333,-40 62.1667,-40 66,-43.8333 66,-47.6667 66,-47.6667 66,-55.3333 66,-55.3333 66,-59.1667 62.1667,-63 58.3333,-63"/>
<text text-anchor="middle" x="33" y="-47.8" font-family="Arial" font-size="14.00" fill="#c6c5fe">index.js</text>
</g>
<!-- index.js&#45;&gt;components/appRoot.js -->
<g id="edge4" class="edge">
<title>index.js&#45;&gt;components/appRoot.js</title>
<path fill="none" stroke="#757575" d="M66.0369,-56.005C74.02,-57.0936 82.9513,-58.3115 92.2477,-59.5792"/>
<polygon fill="#757575" stroke="#757575" points="92.0698,-63.0873 102.451,-60.9706 93.0156,-56.1515 92.0698,-63.0873"/>
</g>
<!-- store/store.js -->
<g id="node6" class="node">
<title>store/store.js</title>
<path fill="none" stroke="#c6c5fe" d="M228.8333,-43C228.8333,-43 145.1667,-43 145.1667,-43 141.3333,-43 137.5,-39.1667 137.5,-35.3333 137.5,-35.3333 137.5,-27.6667 137.5,-27.6667 137.5,-23.8333 141.3333,-20 145.1667,-20 145.1667,-20 228.8333,-20 228.8333,-20 232.6667,-20 236.5,-23.8333 236.5,-27.6667 236.5,-27.6667 236.5,-35.3333 236.5,-35.3333 236.5,-39.1667 232.6667,-43 228.8333,-43"/>
<text text-anchor="middle" x="187" y="-27.8" font-family="Arial" font-size="14.00" fill="#c6c5fe">store/store.js</text>
</g>
<!-- index.js&#45;&gt;store/store.js -->
<g id="edge5" class="edge">
<title>index.js&#45;&gt;store/store.js</title>
<path fill="none" stroke="#757575" d="M66.0369,-47.2095C83.8854,-44.8915 106.4733,-41.958 127.285,-39.2552"/>
<polygon fill="#757575" stroke="#757575" points="127.8644,-42.7094 137.3303,-37.9506 126.9628,-35.7677 127.8644,-42.7094"/>
</g>
<!-- reducers/root.js -->
<g id="node7" class="node">
<title>reducers/root.js</title>
<path fill="none" stroke="#c6c5fe" d="M457.8333,-43C457.8333,-43 357.1667,-43 357.1667,-43 353.3333,-43 349.5,-39.1667 349.5,-35.3333 349.5,-35.3333 349.5,-27.6667 349.5,-27.6667 349.5,-23.8333 353.3333,-20 357.1667,-20 357.1667,-20 457.8333,-20 457.8333,-20 461.6667,-20 465.5,-23.8333 465.5,-27.6667 465.5,-27.6667 465.5,-35.3333 465.5,-35.3333 465.5,-39.1667 461.6667,-43 457.8333,-43"/>
<text text-anchor="middle" x="407.5" y="-27.8" font-family="Arial" font-size="14.00" fill="#c6c5fe">reducers/root.js</text>
</g>
<!-- store/store.js&#45;&gt;reducers/root.js -->
<g id="edge8" class="edge">
<title>store/store.js&#45;&gt;reducers/root.js</title>
<path fill="none" stroke="#757575" d="M236.7594,-31.5C267.0338,-31.5 306.1221,-31.5 339.2576,-31.5"/>
<polygon fill="#757575" stroke="#757575" points="339.3336,-35.0001 349.3336,-31.5 339.3336,-28.0001 339.3336,-35.0001"/>
</g>
<!-- store/initialState.js -->
<g id="node8" class="node">
<title>store/initialState.js</title>
<path fill="none" stroke="#cfffac" d="M668.3333,-23C668.3333,-23 550.6667,-23 550.6667,-23 546.8333,-23 543,-19.1667 543,-15.3333 543,-15.3333 543,-7.6667 543,-7.6667 543,-3.8333 546.8333,0 550.6667,0 550.6667,0 668.3333,0 668.3333,0 672.1667,0 676,-3.8333 676,-7.6667 676,-7.6667 676,-15.3333 676,-15.3333 676,-19.1667 672.1667,-23 668.3333,-23"/>
<text text-anchor="middle" x="609.5" y="-7.8" font-family="Arial" font-size="14.00" fill="#cfffac">store/initialState.js</text>
</g>
<!-- store/store.js&#45;&gt;store/initialState.js -->
<g id="edge9" class="edge">
<title>store/store.js&#45;&gt;store/initialState.js</title>
<path fill="none" stroke="#757575" d="M236.7883,-20.8752C258.541,-16.7487 284.421,-12.5309 308,-10.5 396.1182,-2.9101 418.5566,-10.0686 507,-10.5 515.314,-10.5406 524.0071,-10.5996 532.6642,-10.6691"/>
<polygon fill="#757575" stroke="#757575" points="532.756,-14.1699 542.7853,-10.7549 532.8154,-7.1701 532.756,-14.1699"/>
</g>
<!-- reducers/root.js&#45;&gt;actions/UI.js -->
<g id="edge6" class="edge">
<title>reducers/root.js&#45;&gt;actions/UI.js</title>
<path fill="none" stroke="#757575" d="M465.548,-42.9684C479.1912,-45.8801 493.645,-49.1416 507,-52.5 525.3386,-57.1117 545.333,-62.8101 562.7536,-67.9975"/>
<polygon fill="#757575" stroke="#757575" points="562.0969,-71.4548 572.6811,-70.9807 564.1114,-64.7509 562.0969,-71.4548"/>
</g>
<!-- reducers/root.js&#45;&gt;store/initialState.js -->
<g id="edge7" class="edge">
<title>reducers/root.js&#45;&gt;store/initialState.js</title>
<path fill="none" stroke="#757575" d="M465.6558,-25.742C486.5778,-23.6705 510.5108,-21.3009 532.7716,-19.0969"/>
<polygon fill="#757575" stroke="#757575" points="533.2587,-22.5659 542.8651,-18.0975 532.5689,-15.5999 533.2587,-22.5659"/>
</g>
</g>
</svg>
