<?xml version="1.0" encoding="UTF-8" standalone="no"?>
<!DOCTYPE svg PUBLIC "-//W3C//DTD SVG 1.1//EN"
 "http://www.w3.org/Graphics/SVG/1.1/DTD/svg11.dtd">
<!-- Generated by graphviz version 2.38.0 (20140413.2041)
 -->
<!-- Title: G Pages: 1 -->
<svg width="3152pt" height="851pt"
 viewBox="0.00 0.00 3152.20 850.69" xmlns="http://www.w3.org/2000/svg" xmlns:xlink="http://www.w3.org/1999/xlink">
<g id="graph0" class="graph" transform="scale(1 1) rotate(0) translate(21.6 829.089)">
<title>G</title>
<polygon fill="#111111" stroke="none" points="-21.6,21.6 -21.6,-829.089 3130.6,-829.089 3130.6,21.6 -21.6,21.6"/>
<!-- actions/Core.js -->
<g id="node1" class="node"><title>actions/Core.js</title>
<path fill="none" stroke="#c6c5fe" d="M1740.83,-388.356C1740.83,-388.356 1645.17,-388.356 1645.17,-388.356 1641.33,-388.356 1637.5,-384.522 1637.5,-380.689 1637.5,-380.689 1637.5,-373.022 1637.5,-373.022 1637.5,-369.189 1641.33,-365.356 1645.17,-365.356 1645.17,-365.356 1740.83,-365.356 1740.83,-365.356 1744.67,-365.356 1748.5,-369.189 1748.5,-373.022 1748.5,-373.022 1748.5,-380.689 1748.5,-380.689 1748.5,-384.522 1744.67,-388.356 1740.83,-388.356"/>
<text text-anchor="middle" x="1693" y="-373.156" font-family="Arial" font-size="14.00" fill="#c6c5fe">actions/Core.js</text>
</g>
<!-- actions/coreMsg.js -->
<g id="node2" class="node"><title>actions/coreMsg.js</title>
<path fill="none" stroke="#cfffac" d="M2988.83,-529.356C2988.83,-529.356 2869.17,-529.356 2869.17,-529.356 2865.33,-529.356 2861.5,-525.522 2861.5,-521.689 2861.5,-521.689 2861.5,-514.022 2861.5,-514.022 2861.5,-510.189 2865.33,-506.356 2869.17,-506.356 2869.17,-506.356 2988.83,-506.356 2988.83,-506.356 2992.67,-506.356 2996.5,-510.189 2996.5,-514.022 2996.5,-514.022 2996.5,-521.689 2996.5,-521.689 2996.5,-525.522 2992.67,-529.356 2988.83,-529.356"/>
<text text-anchor="middle" x="2929" y="-514.156" font-family="Arial" font-size="14.00" fill="#cfffac">actions/coreMsg.js</text>
</g>
<!-- actions/Core.js&#45;&gt;actions/coreMsg.js -->
<g id="edge1" class="edge"><title>actions/Core.js&#45;&gt;actions/coreMsg.js</title>
<path fill="none" stroke="#757575" d="M1719.04,-388.524C1774.61,-413.792 1913.1,-473.27 2036,-497.856 2290.46,-548.761 2359.6,-522.742 2619,-529.856 2701.64,-532.122 2722.43,-533.874 2805,-529.856 2820.03,-529.124 2836.06,-527.893 2851.41,-526.491"/>
<polygon fill="#757575" stroke="#757575" points="2851.75,-529.974 2861.38,-525.548 2851.09,-523.005 2851.75,-529.974"/>
</g>
<!-- store/store.js -->
<g id="node3" class="node"><title>store/store.js</title>
<path fill="none" stroke="#c6c5fe" d="M2375.83,-369.356C2375.83,-369.356 2292.17,-369.356 2292.17,-369.356 2288.33,-369.356 2284.5,-365.522 2284.5,-361.689 2284.5,-361.689 2284.5,-354.022 2284.5,-354.022 2284.5,-350.189 2288.33,-346.356 2292.17,-346.356 2292.17,-346.356 2375.83,-346.356 2375.83,-346.356 2379.67,-346.356 2383.5,-350.189 2383.5,-354.022 2383.5,-354.022 2383.5,-361.689 2383.5,-361.689 2383.5,-365.522 2379.67,-369.356 2375.83,-369.356"/>
<text text-anchor="middle" x="2334" y="-354.156" font-family="Arial" font-size="14.00" fill="#c6c5fe">store/store.js</text>
</g>
<!-- actions/Core.js&#45;&gt;store/store.js -->
<g id="edge2" class="edge"><title>actions/Core.js&#45;&gt;store/store.js</title>
<path fill="none" stroke="#757575" d="M1748.63,-375.729C1844.35,-373.683 2048.58,-368.994 2221,-362.856 2238.24,-362.242 2256.96,-361.454 2274.07,-360.686"/>
<polygon fill="#757575" stroke="#757575" points="2274.66,-364.163 2284.49,-360.213 2274.35,-357.17 2274.66,-364.163"/>
</g>
<!-- reducers/root.js -->
<g id="node28" class="node"><title>reducers/root.js</title>
<path fill="none" stroke="#c6c5fe" d="M2565.33,-369.356C2565.33,-369.356 2464.67,-369.356 2464.67,-369.356 2460.83,-369.356 2457,-365.522 2457,-361.689 2457,-361.689 2457,-354.022 2457,-354.022 2457,-350.189 2460.83,-346.356 2464.67,-346.356 2464.67,-346.356 2565.33,-346.356 2565.33,-346.356 2569.17,-346.356 2573,-350.189 2573,-354.022 2573,-354.022 2573,-361.689 2573,-361.689 2573,-365.522 2569.17,-369.356 2565.33,-369.356"/>
<text text-anchor="middle" x="2515" y="-354.156" font-family="Arial" font-size="14.00" fill="#c6c5fe">reducers/root.js</text>
</g>
<!-- store/store.js&#45;&gt;reducers/root.js -->
<g id="edge70" class="edge"><title>store/store.js&#45;&gt;reducers/root.js</title>
<path fill="none" stroke="#757575" d="M2383.91,-357.856C2403.31,-357.856 2425.92,-357.856 2446.81,-357.856"/>
<polygon fill="#757575" stroke="#757575" points="2446.9,-361.356 2456.9,-357.856 2446.9,-354.356 2446.9,-361.356"/>
</g>
<!-- actions/Engine.js -->
<g id="node4" class="node"><title>actions/Engine.js</title>
<path fill="none" stroke="#c6c5fe" d="M951.833,-211.356C951.833,-211.356 843.167,-211.356 843.167,-211.356 839.333,-211.356 835.5,-207.522 835.5,-203.689 835.5,-203.689 835.5,-196.022 835.5,-196.022 835.5,-192.189 839.333,-188.356 843.167,-188.356 843.167,-188.356 951.833,-188.356 951.833,-188.356 955.667,-188.356 959.5,-192.189 959.5,-196.022 959.5,-196.022 959.5,-203.689 959.5,-203.689 959.5,-207.522 955.667,-211.356 951.833,-211.356"/>
<text text-anchor="middle" x="897.5" y="-196.156" font-family="Arial" font-size="14.00" fill="#c6c5fe">actions/Engine.js</text>
</g>
<!-- scenes/sceneFunctions.js -->
<g id="node5" class="node"><title>scenes/sceneFunctions.js</title>
<path fill="none" stroke="#c6c5fe" d="M1201.33,-211.356C1201.33,-211.356 1034.67,-211.356 1034.67,-211.356 1030.83,-211.356 1027,-207.522 1027,-203.689 1027,-203.689 1027,-196.022 1027,-196.022 1027,-192.189 1030.83,-188.356 1034.67,-188.356 1034.67,-188.356 1201.33,-188.356 1201.33,-188.356 1205.17,-188.356 1209,-192.189 1209,-196.022 1209,-196.022 1209,-203.689 1209,-203.689 1209,-207.522 1205.17,-211.356 1201.33,-211.356"/>
<text text-anchor="middle" x="1118" y="-196.156" font-family="Arial" font-size="14.00" fill="#c6c5fe">scenes/sceneFunctions.js</text>
</g>
<!-- actions/Engine.js&#45;&gt;scenes/sceneFunctions.js -->
<g id="edge3" class="edge"><title>actions/Engine.js&#45;&gt;scenes/sceneFunctions.js</title>
<path fill="none" stroke="#757575" d="M959.655,-199.856C977.394,-199.856 997.247,-199.856 1016.72,-199.856"/>
<polygon fill="#757575" stroke="#757575" points="1016.85,-203.356 1026.85,-199.856 1016.85,-196.356 1016.85,-203.356"/>
</g>
<!-- scenes/sceneFunctions.js&#45;&gt;actions/Core.js -->
<g id="edge56" class="edge"><title>scenes/sceneFunctions.js&#45;&gt;actions/Core.js</title>
<path fill="none" stroke="#757575" d="M1209.32,-195.851C1266.73,-195.726 1342.03,-200.086 1406,-218.856 1511.85,-249.915 1621.92,-324.96 1668.72,-359.242"/>
<polygon fill="#757575" stroke="#757575" points="1666.84,-362.206 1676.96,-365.34 1671,-356.578 1666.84,-362.206"/>
</g>
<!-- scenes/sceneFunctions.js&#45;&gt;store/store.js -->
<g id="edge61" class="edge"><title>scenes/sceneFunctions.js&#45;&gt;store/store.js</title>
<path fill="none" stroke="#757575" d="M1173.05,-188.331C1184.96,-185.49 1197.46,-182.272 1209,-178.856 1225.31,-174.026 1228.59,-170.346 1245,-165.856 1357.58,-135.049 1386.28,-116.856 1503,-116.856 1503,-116.856 1503,-116.856 1911,-116.856 2089.52,-116.856 2261.23,-281.499 2315.43,-338.617"/>
<polygon fill="#757575" stroke="#757575" points="2313.17,-341.325 2322.56,-346.232 2318.28,-336.54 2313.17,-341.325"/>
</g>
<!-- scenes/charCreation.js -->
<g id="node35" class="node"><title>scenes/charCreation.js</title>
<path fill="none" stroke="#c6c5fe" d="M1398.33,-529.356C1398.33,-529.356 1252.67,-529.356 1252.67,-529.356 1248.83,-529.356 1245,-525.522 1245,-521.689 1245,-521.689 1245,-514.022 1245,-514.022 1245,-510.189 1248.83,-506.356 1252.67,-506.356 1252.67,-506.356 1398.33,-506.356 1398.33,-506.356 1402.17,-506.356 1406,-510.189 1406,-514.022 1406,-514.022 1406,-521.689 1406,-521.689 1406,-525.522 1402.17,-529.356 1398.33,-529.356"/>
<text text-anchor="middle" x="1325.5" y="-514.156" font-family="Arial" font-size="14.00" fill="#c6c5fe">scenes/charCreation.js</text>
</g>
<!-- scenes/sceneFunctions.js&#45;&gt;scenes/charCreation.js -->
<g id="edge57" class="edge"><title>scenes/sceneFunctions.js&#45;&gt;scenes/charCreation.js</title>
<path fill="none" stroke="#757575" d="M1126.56,-211.551C1157.14,-258.882 1271.99,-436.598 1311.25,-497.347"/>
<polygon fill="#757575" stroke="#757575" points="1308.51,-499.555 1316.87,-506.055 1314.39,-495.756 1308.51,-499.555"/>
</g>
<!-- scenes/menus.js -->
<g id="node36" class="node"><title>scenes/menus.js</title>
<path fill="none" stroke="#c6c5fe" d="M1558.33,-171.356C1558.33,-171.356 1449.67,-171.356 1449.67,-171.356 1445.83,-171.356 1442,-167.522 1442,-163.689 1442,-163.689 1442,-156.022 1442,-156.022 1442,-152.189 1445.83,-148.356 1449.67,-148.356 1449.67,-148.356 1558.33,-148.356 1558.33,-148.356 1562.17,-148.356 1566,-152.189 1566,-156.022 1566,-156.022 1566,-163.689 1566,-163.689 1566,-167.522 1562.17,-171.356 1558.33,-171.356"/>
<text text-anchor="middle" x="1504" y="-156.156" font-family="Arial" font-size="14.00" fill="#c6c5fe">scenes/menus.js</text>
</g>
<!-- scenes/sceneFunctions.js&#45;&gt;scenes/menus.js -->
<g id="edge58" class="edge"><title>scenes/sceneFunctions.js&#45;&gt;scenes/menus.js</title>
<path fill="none" stroke="#757575" d="M1209.15,-189.726C1221.2,-188.405 1233.4,-187.085 1245,-185.856 1308.16,-179.164 1380.07,-171.951 1431.9,-166.824"/>
<polygon fill="#757575" stroke="#757575" points="1432.38,-170.293 1441.99,-165.827 1431.7,-163.327 1432.38,-170.293"/>
</g>
<!-- scenes/sceneSymbols.js -->
<g id="node37" class="node"><title>scenes/sceneSymbols.js</title>
<path fill="none" stroke="#cfffac" d="M3009.33,-128.356C3009.33,-128.356 2848.67,-128.356 2848.67,-128.356 2844.83,-128.356 2841,-124.522 2841,-120.689 2841,-120.689 2841,-113.022 2841,-113.022 2841,-109.189 2844.83,-105.356 2848.67,-105.356 2848.67,-105.356 3009.33,-105.356 3009.33,-105.356 3013.17,-105.356 3017,-109.189 3017,-113.022 3017,-113.022 3017,-120.689 3017,-120.689 3017,-124.522 3013.17,-128.356 3009.33,-128.356"/>
<text text-anchor="middle" x="2929" y="-113.156" font-family="Arial" font-size="14.00" fill="#cfffac">scenes/sceneSymbols.js</text>
</g>
<!-- scenes/sceneFunctions.js&#45;&gt;scenes/sceneSymbols.js -->
<g id="edge59" class="edge"><title>scenes/sceneFunctions.js&#45;&gt;scenes/sceneSymbols.js</title>
<path fill="none" stroke="#757575" d="M1191.99,-188.266C1198.03,-185.715 1203.8,-182.617 1209,-178.856 1233.89,-160.856 1220.8,-138.776 1245,-119.856 1339.68,-45.8298 1382.81,-38.8558 1503,-38.8558 1503,-38.8558 1503,-38.8558 1694,-38.8558 1978.45,-38.8558 2048.55,-2.85583 2333,-2.85583 2333,-2.85583 2333,-2.85583 2516,-2.85583 2661.36,-2.85583 2825.47,-69.59 2894.54,-100.941"/>
<polygon fill="#757575" stroke="#757575" points="2893.48,-104.305 2904.03,-105.298 2896.41,-97.944 2893.48,-104.305"/>
</g>
<!-- scenes/tests/testing.js -->
<g id="node41" class="node"><title>scenes/tests/testing.js</title>
<path fill="none" stroke="#cfffac" d="M1396.83,-251.356C1396.83,-251.356 1254.17,-251.356 1254.17,-251.356 1250.33,-251.356 1246.5,-247.522 1246.5,-243.689 1246.5,-243.689 1246.5,-236.022 1246.5,-236.022 1246.5,-232.189 1250.33,-228.356 1254.17,-228.356 1254.17,-228.356 1396.83,-228.356 1396.83,-228.356 1400.67,-228.356 1404.5,-232.189 1404.5,-236.022 1404.5,-236.022 1404.5,-243.689 1404.5,-243.689 1404.5,-247.522 1400.67,-251.356 1396.83,-251.356"/>
<text text-anchor="middle" x="1325.5" y="-236.156" font-family="Arial" font-size="14.00" fill="#cfffac">scenes/tests/testing.js</text>
</g>
<!-- scenes/sceneFunctions.js&#45;&gt;scenes/tests/testing.js -->
<g id="edge60" class="edge"><title>scenes/sceneFunctions.js&#45;&gt;scenes/tests/testing.js</title>
<path fill="none" stroke="#757575" d="M1178.16,-211.372C1202.34,-216.078 1230.48,-221.555 1255.58,-226.441"/>
<polygon fill="#757575" stroke="#757575" points="1254.91,-229.877 1265.4,-228.352 1256.25,-223.006 1254.91,-229.877"/>
</g>
<!-- actions/Player.js -->
<g id="node6" class="node"><title>actions/Player.js</title>
<path fill="none" stroke="#c6c5fe" d="M2180.33,-489.356C2180.33,-489.356 2076.67,-489.356 2076.67,-489.356 2072.83,-489.356 2069,-485.522 2069,-481.689 2069,-481.689 2069,-474.022 2069,-474.022 2069,-470.189 2072.83,-466.356 2076.67,-466.356 2076.67,-466.356 2180.33,-466.356 2180.33,-466.356 2184.17,-466.356 2188,-470.189 2188,-474.022 2188,-474.022 2188,-481.689 2188,-481.689 2188,-485.522 2184.17,-489.356 2180.33,-489.356"/>
<text text-anchor="middle" x="2128.5" y="-474.156" font-family="Arial" font-size="14.00" fill="#c6c5fe">actions/Player.js</text>
</g>
<!-- actions/Player.js&#45;&gt;store/store.js -->
<g id="edge5" class="edge"><title>actions/Player.js&#45;&gt;store/store.js</title>
<path fill="none" stroke="#757575" d="M2149.01,-466.35C2185.16,-445.035 2262.66,-399.335 2304.62,-374.593"/>
<polygon fill="#757575" stroke="#757575" points="2306.41,-377.598 2313.25,-369.503 2302.86,-371.568 2306.41,-377.598"/>
</g>
<!-- actions/playerMsg.js -->
<g id="node7" class="node"><title>actions/playerMsg.js</title>
<path fill="none" stroke="#cfffac" d="M2993.83,-449.356C2993.83,-449.356 2864.17,-449.356 2864.17,-449.356 2860.33,-449.356 2856.5,-445.522 2856.5,-441.689 2856.5,-441.689 2856.5,-434.022 2856.5,-434.022 2856.5,-430.189 2860.33,-426.356 2864.17,-426.356 2864.17,-426.356 2993.83,-426.356 2993.83,-426.356 2997.67,-426.356 3001.5,-430.189 3001.5,-434.022 3001.5,-434.022 3001.5,-441.689 3001.5,-441.689 3001.5,-445.522 2997.67,-449.356 2993.83,-449.356"/>
<text text-anchor="middle" x="2929" y="-434.156" font-family="Arial" font-size="14.00" fill="#cfffac">actions/playerMsg.js</text>
</g>
<!-- actions/Player.js&#45;&gt;actions/playerMsg.js -->
<g id="edge4" class="edge"><title>actions/Player.js&#45;&gt;actions/playerMsg.js</title>
<path fill="none" stroke="#757575" d="M2188.32,-466.466C2209.84,-462.748 2234.45,-459.023 2257,-456.856 2468.78,-436.511 2719.73,-435.52 2846.3,-436.626"/>
<polygon fill="#757575" stroke="#757575" points="2846.27,-440.126 2856.3,-436.721 2846.34,-433.127 2846.27,-440.126"/>
</g>
<!-- symbols/breastCup.js -->
<g id="node8" class="node"><title>symbols/breastCup.js</title>
<path fill="none" stroke="#c6c5fe" d="M2403.33,-648.356C2403.33,-648.356 2264.67,-648.356 2264.67,-648.356 2260.83,-648.356 2257,-644.522 2257,-640.689 2257,-640.689 2257,-633.022 2257,-633.022 2257,-629.189 2260.83,-625.356 2264.67,-625.356 2264.67,-625.356 2403.33,-625.356 2403.33,-625.356 2407.17,-625.356 2411,-629.189 2411,-633.022 2411,-633.022 2411,-640.689 2411,-640.689 2411,-644.522 2407.17,-648.356 2403.33,-648.356"/>
<text text-anchor="middle" x="2334" y="-633.156" font-family="Arial" font-size="14.00" fill="#c6c5fe">symbols/breastCup.js</text>
</g>
<!-- actions/Player.js&#45;&gt;symbols/breastCup.js -->
<g id="edge6" class="edge"><title>actions/Player.js&#45;&gt;symbols/breastCup.js</title>
<path fill="none" stroke="#757575" d="M2140.62,-489.377C2157.98,-507.42 2192.48,-543.525 2221,-574.856 2237.32,-592.79 2236.45,-602.976 2257,-615.856 2260.2,-617.864 2263.6,-619.684 2267.11,-621.332"/>
<polygon fill="#757575" stroke="#757575" points="2266.05,-624.679 2276.62,-625.305 2268.75,-618.22 2266.05,-624.679"/>
</g>
<!-- symbols/cockType.js -->
<g id="node9" class="node"><title>symbols/cockType.js</title>
<path fill="none" stroke="#cfffac" d="M2401.33,-489.356C2401.33,-489.356 2266.67,-489.356 2266.67,-489.356 2262.83,-489.356 2259,-485.522 2259,-481.689 2259,-481.689 2259,-474.022 2259,-474.022 2259,-470.189 2262.83,-466.356 2266.67,-466.356 2266.67,-466.356 2401.33,-466.356 2401.33,-466.356 2405.17,-466.356 2409,-470.189 2409,-474.022 2409,-474.022 2409,-481.689 2409,-481.689 2409,-485.522 2405.17,-489.356 2401.33,-489.356"/>
<text text-anchor="middle" x="2334" y="-474.156" font-family="Arial" font-size="14.00" fill="#cfffac">symbols/cockType.js</text>
</g>
<!-- actions/Player.js&#45;&gt;symbols/cockType.js -->
<g id="edge7" class="edge"><title>actions/Player.js&#45;&gt;symbols/cockType.js</title>
<path fill="none" stroke="#757575" d="M2188.09,-477.856C2206.97,-477.856 2228.29,-477.856 2248.65,-477.856"/>
<polygon fill="#757575" stroke="#757575" points="2248.87,-481.356 2258.87,-477.856 2248.87,-474.356 2248.87,-481.356"/>
</g>
<!-- symbols/vaginas.js -->
<g id="node10" class="node"><title>symbols/vaginas.js</title>
<path fill="none" stroke="#c6c5fe" d="M2575.33,-624.356C2575.33,-624.356 2454.67,-624.356 2454.67,-624.356 2450.83,-624.356 2447,-620.522 2447,-616.689 2447,-616.689 2447,-609.022 2447,-609.022 2447,-605.189 2450.83,-601.356 2454.67,-601.356 2454.67,-601.356 2575.33,-601.356 2575.33,-601.356 2579.17,-601.356 2583,-605.189 2583,-609.022 2583,-609.022 2583,-616.689 2583,-616.689 2583,-620.522 2579.17,-624.356 2575.33,-624.356"/>
<text text-anchor="middle" x="2515" y="-609.156" font-family="Arial" font-size="14.00" fill="#c6c5fe">symbols/vaginas.js</text>
</g>
<!-- actions/Player.js&#45;&gt;symbols/vaginas.js -->
<g id="edge8" class="edge"><title>actions/Player.js&#45;&gt;symbols/vaginas.js</title>
<path fill="none" stroke="#757575" d="M2163.82,-489.414C2216.92,-507.359 2322.15,-543.161 2411,-574.856 2431.64,-582.218 2454.51,-590.631 2473.45,-597.666"/>
<polygon fill="#757575" stroke="#757575" points="2472.37,-600.999 2482.96,-601.207 2474.81,-594.438 2472.37,-600.999"/>
</g>
<!-- utils.js -->
<g id="node34" class="node"><title>utils.js</title>
<path fill="none" stroke="#cfffac" d="M3101.33,-489.356C3101.33,-489.356 3060.67,-489.356 3060.67,-489.356 3056.83,-489.356 3053,-485.522 3053,-481.689 3053,-481.689 3053,-474.022 3053,-474.022 3053,-470.189 3056.83,-466.356 3060.67,-466.356 3060.67,-466.356 3101.33,-466.356 3101.33,-466.356 3105.17,-466.356 3109,-470.189 3109,-474.022 3109,-474.022 3109,-481.689 3109,-481.689 3109,-485.522 3105.17,-489.356 3101.33,-489.356"/>
<text text-anchor="middle" x="3081" y="-474.156" font-family="Arial" font-size="14.00" fill="#cfffac">utils.js</text>
</g>
<!-- symbols/breastCup.js&#45;&gt;utils.js -->
<g id="edge71" class="edge"><title>symbols/breastCup.js&#45;&gt;utils.js</title>
<path fill="none" stroke="#757575" d="M2392.13,-648.362C2409.69,-651.684 2429.1,-655.141 2447,-657.856 2572.23,-676.854 2917.37,-735.072 3017,-656.856 3066.29,-618.158 3077.12,-538.138 3079.42,-499.571"/>
<polygon fill="#757575" stroke="#757575" points="3082.93,-499.591 3079.89,-489.441 3075.93,-499.271 3082.93,-499.591"/>
</g>
<!-- symbols/vaginas.js&#45;&gt;utils.js -->
<g id="edge80" class="edge"><title>symbols/vaginas.js&#45;&gt;utils.js</title>
<path fill="none" stroke="#757575" d="M2571.18,-624.371C2668.88,-641.645 2875.34,-663.854 3017,-578.856 3046.79,-560.98 3064.63,-523.023 3073.36,-499.07"/>
<polygon fill="#757575" stroke="#757575" points="3076.72,-500.062 3076.65,-489.467 3070.1,-497.794 3076.72,-500.062"/>
</g>
<!-- actions/engineMsg.js -->
<g id="node11" class="node"><title>actions/engineMsg.js</title>
<path fill="none" stroke="#cfffac" d="M2778.83,-288.356C2778.83,-288.356 2645.17,-288.356 2645.17,-288.356 2641.33,-288.356 2637.5,-284.522 2637.5,-280.689 2637.5,-280.689 2637.5,-273.022 2637.5,-273.022 2637.5,-269.189 2641.33,-265.356 2645.17,-265.356 2645.17,-265.356 2778.83,-265.356 2778.83,-265.356 2782.67,-265.356 2786.5,-269.189 2786.5,-273.022 2786.5,-273.022 2786.5,-280.689 2786.5,-280.689 2786.5,-284.522 2782.67,-288.356 2778.83,-288.356"/>
<text text-anchor="middle" x="2712" y="-273.156" font-family="Arial" font-size="14.00" fill="#cfffac">actions/engineMsg.js</text>
</g>
<!-- appearance/appearance.js -->
<g id="node12" class="node"><title>appearance/appearance.js</title>
<path fill="none" stroke="#c6c5fe" d="M2213.33,-607.356C2213.33,-607.356 2043.67,-607.356 2043.67,-607.356 2039.83,-607.356 2036,-603.522 2036,-599.689 2036,-599.689 2036,-592.022 2036,-592.022 2036,-588.189 2039.83,-584.356 2043.67,-584.356 2043.67,-584.356 2213.33,-584.356 2213.33,-584.356 2217.17,-584.356 2221,-588.189 2221,-592.022 2221,-592.022 2221,-599.689 2221,-599.689 2221,-603.522 2217.17,-607.356 2213.33,-607.356"/>
<text text-anchor="middle" x="2128.5" y="-592.156" font-family="Arial" font-size="14.00" fill="#c6c5fe">appearance/appearance.js</text>
</g>
<!-- appearance/appearance.js&#45;&gt;store/store.js -->
<g id="edge9" class="edge"><title>appearance/appearance.js&#45;&gt;store/store.js</title>
<path fill="none" stroke="#757575" d="M2140.78,-584.355C2158.35,-566.311 2193.14,-530.078 2221,-497.856 2257.01,-456.213 2296.72,-405.289 2317.83,-377.783"/>
<polygon fill="#757575" stroke="#757575" points="2320.7,-379.786 2324,-369.717 2315.15,-375.531 2320.7,-379.786"/>
</g>
<!-- appearance/appearance.js&#45;&gt;symbols/breastCup.js -->
<g id="edge10" class="edge"><title>appearance/appearance.js&#45;&gt;symbols/breastCup.js</title>
<path fill="none" stroke="#757575" d="M2186.73,-607.386C2211.32,-612.341 2240.24,-618.168 2265.85,-623.326"/>
<polygon fill="#757575" stroke="#757575" points="2265.36,-626.797 2275.85,-625.342 2266.74,-619.935 2265.36,-626.797"/>
</g>
<!-- symbols/gender.js -->
<g id="node13" class="node"><title>symbols/gender.js</title>
<path fill="none" stroke="#c6c5fe" d="M2392.83,-607.356C2392.83,-607.356 2275.17,-607.356 2275.17,-607.356 2271.33,-607.356 2267.5,-603.522 2267.5,-599.689 2267.5,-599.689 2267.5,-592.022 2267.5,-592.022 2267.5,-588.189 2271.33,-584.356 2275.17,-584.356 2275.17,-584.356 2392.83,-584.356 2392.83,-584.356 2396.67,-584.356 2400.5,-588.189 2400.5,-592.022 2400.5,-592.022 2400.5,-599.689 2400.5,-599.689 2400.5,-603.522 2396.67,-607.356 2392.83,-607.356"/>
<text text-anchor="middle" x="2334" y="-592.156" font-family="Arial" font-size="14.00" fill="#c6c5fe">symbols/gender.js</text>
</g>
<!-- appearance/appearance.js&#45;&gt;symbols/gender.js -->
<g id="edge11" class="edge"><title>appearance/appearance.js&#45;&gt;symbols/gender.js</title>
<path fill="none" stroke="#757575" d="M2221.13,-595.856C2233.21,-595.856 2245.47,-595.856 2257.24,-595.856"/>
<polygon fill="#757575" stroke="#757575" points="2257.44,-599.356 2267.44,-595.856 2257.44,-592.356 2257.44,-599.356"/>
</g>
<!-- symbols/gender.js&#45;&gt;utils.js -->
<g id="edge74" class="edge"><title>symbols/gender.js&#45;&gt;utils.js</title>
<path fill="none" stroke="#757575" d="M2384.47,-607.461C2393.39,-609.953 2402.54,-612.774 2411,-615.856 2427.63,-621.911 2429.95,-628.139 2447,-632.856 2569.11,-666.631 2915.83,-697.114 3017,-620.856 3056.34,-591.204 3071.57,-531.667 3077.1,-499.561"/>
<polygon fill="#757575" stroke="#757575" points="3080.59,-499.863 3078.67,-489.443 3073.68,-498.786 3080.59,-499.863"/>
</g>
<!-- components/appRoot.js -->
<g id="node14" class="node"><title>components/appRoot.js</title>
<path fill="none" stroke="#c6c5fe" d="M298.333,-93.3558C298.333,-93.3558 145.667,-93.3558 145.667,-93.3558 141.833,-93.3558 138,-89.5225 138,-85.6892 138,-85.6892 138,-78.0225 138,-78.0225 138,-74.1892 141.833,-70.3558 145.667,-70.3558 145.667,-70.3558 298.333,-70.3558 298.333,-70.3558 302.167,-70.3558 306,-74.1892 306,-78.0225 306,-78.0225 306,-85.6892 306,-85.6892 306,-89.5225 302.167,-93.3558 298.333,-93.3558"/>
<text text-anchor="middle" x="222" y="-78.1558" font-family="Arial" font-size="14.00" fill="#c6c5fe">components/appRoot.js</text>
</g>
<!-- components/lowerButtons.js -->
<g id="node15" class="node"><title>components/lowerButtons.js</title>
<path fill="none" stroke="#c6c5fe" d="M529.333,-134.356C529.333,-134.356 349.667,-134.356 349.667,-134.356 345.833,-134.356 342,-130.522 342,-126.689 342,-126.689 342,-119.022 342,-119.022 342,-115.189 345.833,-111.356 349.667,-111.356 349.667,-111.356 529.333,-111.356 529.333,-111.356 533.167,-111.356 537,-115.189 537,-119.022 537,-119.022 537,-126.689 537,-126.689 537,-130.522 533.167,-134.356 529.333,-134.356"/>
<text text-anchor="middle" x="439.5" y="-119.156" font-family="Arial" font-size="14.00" fill="#c6c5fe">components/lowerButtons.js</text>
</g>
<!-- components/appRoot.js&#45;&gt;components/lowerButtons.js -->
<g id="edge12" class="edge"><title>components/appRoot.js&#45;&gt;components/lowerButtons.js</title>
<path fill="none" stroke="#757575" d="M283.602,-93.3857C309.88,-98.3851 340.817,-104.271 368.106,-109.463"/>
<polygon fill="#757575" stroke="#757575" points="367.502,-112.911 377.98,-111.342 368.81,-106.034 367.502,-112.911"/>
</g>
<!-- components/menuBar.js -->
<g id="node16" class="node"><title>components/menuBar.js</title>
<path fill="none" stroke="#c6c5fe" d="M516.833,-175.356C516.833,-175.356 362.167,-175.356 362.167,-175.356 358.333,-175.356 354.5,-171.522 354.5,-167.689 354.5,-167.689 354.5,-160.022 354.5,-160.022 354.5,-156.189 358.333,-152.356 362.167,-152.356 362.167,-152.356 516.833,-152.356 516.833,-152.356 520.667,-152.356 524.5,-156.189 524.5,-160.022 524.5,-160.022 524.5,-167.689 524.5,-167.689 524.5,-171.522 520.667,-175.356 516.833,-175.356"/>
<text text-anchor="middle" x="439.5" y="-160.156" font-family="Arial" font-size="14.00" fill="#c6c5fe">components/menuBar.js</text>
</g>
<!-- components/appRoot.js&#45;&gt;components/menuBar.js -->
<g id="edge13" class="edge"><title>components/appRoot.js&#45;&gt;components/menuBar.js</title>
<path fill="none" stroke="#757575" d="M241.687,-93.3767C264.56,-107.014 304.845,-129.546 342,-142.856 349.207,-145.437 356.835,-147.757 364.519,-149.828"/>
<polygon fill="#757575" stroke="#757575" points="363.698,-153.231 374.253,-152.319 365.433,-146.449 363.698,-153.231"/>
</g>
<!-- components/output.js -->
<g id="node17" class="node"><title>components/output.js</title>
<path fill="none" stroke="#cfffac" d="M507.833,-52.3558C507.833,-52.3558 371.167,-52.3558 371.167,-52.3558 367.333,-52.3558 363.5,-48.5225 363.5,-44.6892 363.5,-44.6892 363.5,-37.0225 363.5,-37.0225 363.5,-33.1892 367.333,-29.3558 371.167,-29.3558 371.167,-29.3558 507.833,-29.3558 507.833,-29.3558 511.667,-29.3558 515.5,-33.1892 515.5,-37.0225 515.5,-37.0225 515.5,-44.6892 515.5,-44.6892 515.5,-48.5225 511.667,-52.3558 507.833,-52.3558"/>
<text text-anchor="middle" x="439.5" y="-37.1558" font-family="Arial" font-size="14.00" fill="#cfffac">components/output.js</text>
</g>
<!-- components/appRoot.js&#45;&gt;components/output.js -->
<g id="edge14" class="edge"><title>components/appRoot.js&#45;&gt;components/output.js</title>
<path fill="none" stroke="#757575" d="M283.602,-70.3259C309.88,-65.3265 340.817,-59.4405 368.106,-54.2486"/>
<polygon fill="#757575" stroke="#757575" points="368.81,-57.6776 377.98,-52.3702 367.502,-50.8009 368.81,-57.6776"/>
</g>
<!-- components/statBar.js -->
<g id="node18" class="node"><title>components/statBar.js</title>
<path fill="none" stroke="#c6c5fe" d="M510.833,-93.3558C510.833,-93.3558 368.167,-93.3558 368.167,-93.3558 364.333,-93.3558 360.5,-89.5225 360.5,-85.6892 360.5,-85.6892 360.5,-78.0225 360.5,-78.0225 360.5,-74.1892 364.333,-70.3558 368.167,-70.3558 368.167,-70.3558 510.833,-70.3558 510.833,-70.3558 514.667,-70.3558 518.5,-74.1892 518.5,-78.0225 518.5,-78.0225 518.5,-85.6892 518.5,-85.6892 518.5,-89.5225 514.667,-93.3558 510.833,-93.3558"/>
<text text-anchor="middle" x="439.5" y="-78.1558" font-family="Arial" font-size="14.00" fill="#c6c5fe">components/statBar.js</text>
</g>
<!-- components/appRoot.js&#45;&gt;components/statBar.js -->
<g id="edge15" class="edge"><title>components/appRoot.js&#45;&gt;components/statBar.js</title>
<path fill="none" stroke="#757575" d="M306.01,-81.8558C320.557,-81.8558 335.739,-81.8558 350.418,-81.8558"/>
<polygon fill="#757575" stroke="#757575" points="350.486,-85.3559 360.486,-81.8558 350.486,-78.3559 350.486,-85.3559"/>
</g>
<!-- components/buttonGrid.js -->
<g id="node20" class="node"><title>components/buttonGrid.js</title>
<path fill="none" stroke="#c6c5fe" d="M752.333,-175.356C752.333,-175.356 588.667,-175.356 588.667,-175.356 584.833,-175.356 581,-171.522 581,-167.689 581,-167.689 581,-160.022 581,-160.022 581,-156.189 584.833,-152.356 588.667,-152.356 588.667,-152.356 752.333,-152.356 752.333,-152.356 756.167,-152.356 760,-156.189 760,-160.022 760,-160.022 760,-167.689 760,-167.689 760,-171.522 756.167,-175.356 752.333,-175.356"/>
<text text-anchor="middle" x="670.5" y="-160.156" font-family="Arial" font-size="14.00" fill="#c6c5fe">components/buttonGrid.js</text>
</g>
<!-- components/lowerButtons.js&#45;&gt;components/buttonGrid.js -->
<g id="edge19" class="edge"><title>components/lowerButtons.js&#45;&gt;components/buttonGrid.js</title>
<path fill="none" stroke="#757575" d="M504.899,-134.386C532.945,-139.407 565.986,-145.323 595.078,-150.531"/>
<polygon fill="#757575" stroke="#757575" points="594.728,-154.024 605.188,-152.342 595.962,-147.134 594.728,-154.024"/>
</g>
<!-- components/menuBar.js&#45;&gt;components/buttonGrid.js -->
<g id="edge20" class="edge"><title>components/menuBar.js&#45;&gt;components/buttonGrid.js</title>
<path fill="none" stroke="#757575" d="M524.796,-163.856C539.613,-163.856 555.157,-163.856 570.335,-163.856"/>
<polygon fill="#757575" stroke="#757575" points="570.771,-167.356 580.771,-163.856 570.771,-160.356 570.771,-167.356"/>
</g>
<!-- components/spriteDisplay.js -->
<g id="node23" class="node"><title>components/spriteDisplay.js</title>
<path fill="none" stroke="#cfffac" d="M760.333,-52.3558C760.333,-52.3558 580.667,-52.3558 580.667,-52.3558 576.833,-52.3558 573,-48.5225 573,-44.6892 573,-44.6892 573,-37.0225 573,-37.0225 573,-33.1892 576.833,-29.3558 580.667,-29.3558 580.667,-29.3558 760.333,-29.3558 760.333,-29.3558 764.167,-29.3558 768,-33.1892 768,-37.0225 768,-37.0225 768,-44.6892 768,-44.6892 768,-48.5225 764.167,-52.3558 760.333,-52.3558"/>
<text text-anchor="middle" x="670.5" y="-37.1558" font-family="Arial" font-size="14.00" fill="#cfffac">components/spriteDisplay.js</text>
</g>
<!-- components/statBar.js&#45;&gt;components/spriteDisplay.js -->
<g id="edge23" class="edge"><title>components/statBar.js&#45;&gt;components/spriteDisplay.js</title>
<path fill="none" stroke="#757575" d="M504.899,-70.3259C532.945,-65.3046 565.986,-59.3889 595.078,-54.1803"/>
<polygon fill="#757575" stroke="#757575" points="595.962,-57.5778 605.188,-52.3702 594.728,-50.6874 595.962,-57.5778"/>
</g>
<!-- components/statDisplay.js -->
<g id="node25" class="node"><title>components/statDisplay.js</title>
<path fill="none" stroke="#c6c5fe" d="M753.833,-134.356C753.833,-134.356 587.167,-134.356 587.167,-134.356 583.333,-134.356 579.5,-130.522 579.5,-126.689 579.5,-126.689 579.5,-119.022 579.5,-119.022 579.5,-115.189 583.333,-111.356 587.167,-111.356 587.167,-111.356 753.833,-111.356 753.833,-111.356 757.667,-111.356 761.5,-115.189 761.5,-119.022 761.5,-119.022 761.5,-126.689 761.5,-126.689 761.5,-130.522 757.667,-134.356 753.833,-134.356"/>
<text text-anchor="middle" x="670.5" y="-119.156" font-family="Arial" font-size="14.00" fill="#c6c5fe">components/statDisplay.js</text>
</g>
<!-- components/statBar.js&#45;&gt;components/statDisplay.js -->
<g id="edge24" class="edge"><title>components/statBar.js&#45;&gt;components/statDisplay.js</title>
<path fill="none" stroke="#757575" d="M504.899,-93.3857C532.945,-98.4071 565.986,-104.323 595.078,-109.531"/>
<polygon fill="#757575" stroke="#757575" points="594.728,-113.024 605.188,-111.342 595.962,-106.134 594.728,-113.024"/>
</g>
<!-- components/timeDisplay.js -->
<g id="node26" class="node"><title>components/timeDisplay.js</title>
<path fill="none" stroke="#cfffac" d="M756.333,-93.3558C756.333,-93.3558 584.667,-93.3558 584.667,-93.3558 580.833,-93.3558 577,-89.5225 577,-85.6892 577,-85.6892 577,-78.0225 577,-78.0225 577,-74.1892 580.833,-70.3558 584.667,-70.3558 584.667,-70.3558 756.333,-70.3558 756.333,-70.3558 760.167,-70.3558 764,-74.1892 764,-78.0225 764,-78.0225 764,-85.6892 764,-85.6892 764,-89.5225 760.167,-93.3558 756.333,-93.3558"/>
<text text-anchor="middle" x="670.5" y="-78.1558" font-family="Arial" font-size="14.00" fill="#cfffac">components/timeDisplay.js</text>
</g>
<!-- components/statBar.js&#45;&gt;components/timeDisplay.js -->
<g id="edge25" class="edge"><title>components/statBar.js&#45;&gt;components/timeDisplay.js</title>
<path fill="none" stroke="#757575" d="M518.668,-81.8558C533.974,-81.8558 550.245,-81.8558 566.223,-81.8558"/>
<polygon fill="#757575" stroke="#757575" points="566.666,-85.3559 576.666,-81.8558 566.666,-78.3559 566.666,-85.3559"/>
</g>
<!-- components/button.js -->
<g id="node19" class="node"><title>components/button.js</title>
<path fill="none" stroke="#cfffac" d="M1186.33,-170.356C1186.33,-170.356 1049.67,-170.356 1049.67,-170.356 1045.83,-170.356 1042,-166.522 1042,-162.689 1042,-162.689 1042,-155.022 1042,-155.022 1042,-151.189 1045.83,-147.356 1049.67,-147.356 1049.67,-147.356 1186.33,-147.356 1186.33,-147.356 1190.17,-147.356 1194,-151.189 1194,-155.022 1194,-155.022 1194,-162.689 1194,-162.689 1194,-166.522 1190.17,-170.356 1186.33,-170.356"/>
<text text-anchor="middle" x="1118" y="-155.156" font-family="Arial" font-size="14.00" fill="#cfffac">components/button.js</text>
</g>
<!-- components/buttonGrid.js&#45;&gt;actions/Engine.js -->
<g id="edge16" class="edge"><title>components/buttonGrid.js&#45;&gt;actions/Engine.js</title>
<path fill="none" stroke="#757575" d="M743.62,-175.395C769.719,-179.571 799.162,-184.282 825.191,-188.446"/>
<polygon fill="#757575" stroke="#757575" points="824.933,-191.95 835.36,-190.073 826.039,-185.037 824.933,-191.95"/>
</g>
<!-- components/buttonWrap.js -->
<g id="node21" class="node"><title>components/buttonWrap.js</title>
<path fill="none" stroke="#c6c5fe" d="M983.333,-170.356C983.333,-170.356 811.667,-170.356 811.667,-170.356 807.833,-170.356 804,-166.522 804,-162.689 804,-162.689 804,-155.022 804,-155.022 804,-151.189 807.833,-147.356 811.667,-147.356 811.667,-147.356 983.333,-147.356 983.333,-147.356 987.167,-147.356 991,-151.189 991,-155.022 991,-155.022 991,-162.689 991,-162.689 991,-166.522 987.167,-170.356 983.333,-170.356"/>
<text text-anchor="middle" x="897.5" y="-155.156" font-family="Arial" font-size="14.00" fill="#c6c5fe">components/buttonWrap.js</text>
</g>
<!-- components/buttonGrid.js&#45;&gt;components/buttonWrap.js -->
<g id="edge17" class="edge"><title>components/buttonGrid.js&#45;&gt;components/buttonWrap.js</title>
<path fill="none" stroke="#757575" d="M760.103,-161.887C771.119,-161.642 782.455,-161.39 793.663,-161.141"/>
<polygon fill="#757575" stroke="#757575" points="793.987,-164.635 803.906,-160.913 793.831,-157.637 793.987,-164.635"/>
</g>
<!-- components/buttonWrap.js&#45;&gt;components/button.js -->
<g id="edge18" class="edge"><title>components/buttonWrap.js&#45;&gt;components/button.js</title>
<path fill="none" stroke="#757575" d="M991.164,-158.856C1004.6,-158.856 1018.39,-158.856 1031.67,-158.856"/>
<polygon fill="#757575" stroke="#757575" points="1031.72,-162.356 1041.72,-158.856 1031.72,-155.356 1031.72,-162.356"/>
</g>
<!-- components/nameInput.js -->
<g id="node22" class="node"><title>components/nameInput.js</title>
<path fill="none" stroke="#c6c5fe" d="M1992.33,-348.356C1992.33,-348.356 1827.67,-348.356 1827.67,-348.356 1823.83,-348.356 1820,-344.522 1820,-340.689 1820,-340.689 1820,-333.022 1820,-333.022 1820,-329.189 1823.83,-325.356 1827.67,-325.356 1827.67,-325.356 1992.33,-325.356 1992.33,-325.356 1996.17,-325.356 2000,-329.189 2000,-333.022 2000,-333.022 2000,-340.689 2000,-340.689 2000,-344.522 1996.17,-348.356 1992.33,-348.356"/>
<text text-anchor="middle" x="1910" y="-333.156" font-family="Arial" font-size="14.00" fill="#c6c5fe">components/nameInput.js</text>
</g>
<!-- components/nameInput.js&#45;&gt;store/store.js -->
<g id="edge22" class="edge"><title>components/nameInput.js&#45;&gt;store/store.js</title>
<path fill="none" stroke="#757575" d="M2000.24,-341.297C2082.77,-345.404 2203.09,-351.391 2274.18,-354.929"/>
<polygon fill="#757575" stroke="#757575" points="2274.14,-358.431 2284.3,-355.432 2274.48,-351.439 2274.14,-358.431"/>
</g>
<!-- components/nameInput.js&#45;&gt;actions/Player.js -->
<g id="edge21" class="edge"><title>components/nameInput.js&#45;&gt;actions/Player.js</title>
<path fill="none" stroke="#757575" d="M1928.72,-348.394C1966.79,-373.192 2056.58,-431.669 2101.28,-460.778"/>
<polygon fill="#757575" stroke="#757575" points="2099.55,-463.831 2109.84,-466.356 2103.37,-457.965 2099.55,-463.831"/>
</g>
<!-- components/stat.js -->
<g id="node24" class="node"><title>components/stat.js</title>
<path fill="none" stroke="#cfffac" d="M957.833,-129.356C957.833,-129.356 837.167,-129.356 837.167,-129.356 833.333,-129.356 829.5,-125.522 829.5,-121.689 829.5,-121.689 829.5,-114.022 829.5,-114.022 829.5,-110.189 833.333,-106.356 837.167,-106.356 837.167,-106.356 957.833,-106.356 957.833,-106.356 961.667,-106.356 965.5,-110.189 965.5,-114.022 965.5,-114.022 965.5,-121.689 965.5,-121.689 965.5,-125.522 961.667,-129.356 957.833,-129.356"/>
<text text-anchor="middle" x="897.5" y="-114.156" font-family="Arial" font-size="14.00" fill="#cfffac">components/stat.js</text>
</g>
<!-- components/statDisplay.js&#45;&gt;components/stat.js -->
<g id="edge26" class="edge"><title>components/statDisplay.js&#45;&gt;components/stat.js</title>
<path fill="none" stroke="#757575" d="M761.72,-120.851C780.804,-120.427 800.779,-119.983 819.327,-119.571"/>
<polygon fill="#757575" stroke="#757575" points="819.551,-123.067 829.471,-119.345 819.396,-116.068 819.551,-123.067"/>
</g>
<!-- index.js -->
<g id="node27" class="node"><title>index.js</title>
<path fill="none" stroke="#c6c5fe" d="M75.8333,-52.3558C75.8333,-52.3558 26.1667,-52.3558 26.1667,-52.3558 22.3333,-52.3558 18.5,-48.5225 18.5,-44.6892 18.5,-44.6892 18.5,-37.0225 18.5,-37.0225 18.5,-33.1892 22.3333,-29.3558 26.1667,-29.3558 26.1667,-29.3558 75.8333,-29.3558 75.8333,-29.3558 79.6667,-29.3558 83.5,-33.1892 83.5,-37.0225 83.5,-37.0225 83.5,-44.6892 83.5,-44.6892 83.5,-48.5225 79.6667,-52.3558 75.8333,-52.3558"/>
<text text-anchor="middle" x="51" y="-37.1558" font-family="Arial" font-size="14.00" fill="#c6c5fe">index.js</text>
</g>
<!-- index.js&#45;&gt;store/store.js -->
<g id="edge28" class="edge"><title>index.js&#45;&gt;store/store.js</title>
<path fill="none" stroke="#757575" d="M83.952,-35.294C149.963,-24.3031 306.28,-0.855832 438.5,-0.855832 438.5,-0.855832 438.5,-0.855832 1694,-0.855832 1936.12,-0.855832 2032.29,12.8375 2221,-138.856 2286.36,-191.392 2317.35,-292.18 2328.24,-336.289"/>
<polygon fill="#757575" stroke="#757575" points="2324.88,-337.291 2330.58,-346.219 2331.69,-335.682 2324.88,-337.291"/>
</g>
<!-- index.js&#45;&gt;components/appRoot.js -->
<g id="edge27" class="edge"><title>index.js&#45;&gt;components/appRoot.js</title>
<path fill="none" stroke="#757575" d="M83.7876,-48.5676C106.171,-53.9978 136.77,-61.4212 163.392,-67.88"/>
<polygon fill="#757575" stroke="#757575" points="162.832,-71.3456 173.376,-70.302 164.483,-64.543 162.832,-71.3456"/>
</g>
<!-- reducers/root.js&#45;&gt;actions/coreMsg.js -->
<g id="edge29" class="edge"><title>reducers/root.js&#45;&gt;actions/coreMsg.js</title>
<path fill="none" stroke="#757575" d="M2520.51,-369.593C2531.98,-397.651 2565.26,-468.458 2619,-497.856 2690.4,-536.917 2785.43,-536.771 2851.16,-530.131"/>
<polygon fill="#757575" stroke="#757575" points="2851.88,-533.573 2861.45,-529.014 2851.13,-526.614 2851.88,-533.573"/>
</g>
<!-- reducers/root.js&#45;&gt;actions/playerMsg.js -->
<g id="edge31" class="edge"><title>reducers/root.js&#45;&gt;actions/playerMsg.js</title>
<path fill="none" stroke="#757575" d="M2573.06,-350.37C2633.43,-344.954 2730.11,-343.55 2805,-376.856 2825.39,-385.924 2821.76,-400.558 2841,-411.856 2848.33,-416.158 2856.43,-419.801 2864.65,-422.872"/>
<polygon fill="#757575" stroke="#757575" points="2863.72,-426.255 2874.32,-426.22 2866.01,-419.641 2863.72,-426.255"/>
</g>
<!-- reducers/root.js&#45;&gt;actions/engineMsg.js -->
<g id="edge30" class="edge"><title>reducers/root.js&#45;&gt;actions/engineMsg.js</title>
<path fill="none" stroke="#757575" d="M2531.93,-346.203C2551.49,-332.436 2586.12,-309.776 2619,-296.856 2624.36,-294.75 2629.99,-292.845 2635.71,-291.125"/>
<polygon fill="#757575" stroke="#757575" points="2636.71,-294.479 2645.39,-288.403 2634.82,-287.74 2636.71,-294.479"/>
</g>
<!-- reducers/updateBodyArr.js -->
<g id="node29" class="node"><title>reducers/updateBodyArr.js</title>
<path fill="none" stroke="#c6c5fe" d="M2797.33,-329.356C2797.33,-329.356 2626.67,-329.356 2626.67,-329.356 2622.83,-329.356 2619,-325.522 2619,-321.689 2619,-321.689 2619,-314.022 2619,-314.022 2619,-310.189 2622.83,-306.356 2626.67,-306.356 2626.67,-306.356 2797.33,-306.356 2797.33,-306.356 2801.17,-306.356 2805,-310.189 2805,-314.022 2805,-314.022 2805,-321.689 2805,-321.689 2805,-325.522 2801.17,-329.356 2797.33,-329.356"/>
<text text-anchor="middle" x="2712" y="-314.156" font-family="Arial" font-size="14.00" fill="#c6c5fe">reducers/updateBodyArr.js</text>
</g>
<!-- reducers/root.js&#45;&gt;reducers/updateBodyArr.js -->
<g id="edge32" class="edge"><title>reducers/root.js&#45;&gt;reducers/updateBodyArr.js</title>
<path fill="none" stroke="#757575" d="M2572.14,-346.34C2594.88,-341.675 2621.31,-336.254 2644.97,-331.401"/>
<polygon fill="#757575" stroke="#757575" points="2645.83,-334.798 2654.92,-329.36 2644.42,-327.941 2645.83,-334.798"/>
</g>
<!-- reducers/updateButtons.js -->
<g id="node30" class="node"><title>reducers/updateButtons.js</title>
<path fill="none" stroke="#cfffac" d="M2795.33,-409.356C2795.33,-409.356 2628.67,-409.356 2628.67,-409.356 2624.83,-409.356 2621,-405.522 2621,-401.689 2621,-401.689 2621,-394.022 2621,-394.022 2621,-390.189 2624.83,-386.356 2628.67,-386.356 2628.67,-386.356 2795.33,-386.356 2795.33,-386.356 2799.17,-386.356 2803,-390.189 2803,-394.022 2803,-394.022 2803,-401.689 2803,-401.689 2803,-405.522 2799.17,-409.356 2795.33,-409.356"/>
<text text-anchor="middle" x="2712" y="-394.156" font-family="Arial" font-size="14.00" fill="#cfffac">reducers/updateButtons.js</text>
</g>
<!-- reducers/root.js&#45;&gt;reducers/updateButtons.js -->
<g id="edge33" class="edge"><title>reducers/root.js&#45;&gt;reducers/updateButtons.js</title>
<path fill="none" stroke="#757575" d="M2572.14,-369.372C2594.88,-374.037 2621.31,-379.458 2644.97,-384.311"/>
<polygon fill="#757575" stroke="#757575" points="2644.42,-387.771 2654.92,-386.352 2645.83,-380.914 2644.42,-387.771"/>
</g>
<!-- reducers/updateStats.js -->
<g id="node31" class="node"><title>reducers/updateStats.js</title>
<path fill="none" stroke="#c6c5fe" d="M2787.83,-489.356C2787.83,-489.356 2636.17,-489.356 2636.17,-489.356 2632.33,-489.356 2628.5,-485.522 2628.5,-481.689 2628.5,-481.689 2628.5,-474.022 2628.5,-474.022 2628.5,-470.189 2632.33,-466.356 2636.17,-466.356 2636.17,-466.356 2787.83,-466.356 2787.83,-466.356 2791.67,-466.356 2795.5,-470.189 2795.5,-474.022 2795.5,-474.022 2795.5,-481.689 2795.5,-481.689 2795.5,-485.522 2791.67,-489.356 2787.83,-489.356"/>
<text text-anchor="middle" x="2712" y="-474.156" font-family="Arial" font-size="14.00" fill="#c6c5fe">reducers/updateStats.js</text>
</g>
<!-- reducers/root.js&#45;&gt;reducers/updateStats.js -->
<g id="edge34" class="edge"><title>reducers/root.js&#45;&gt;reducers/updateStats.js</title>
<path fill="none" stroke="#757575" d="M2534.7,-369.362C2569.26,-390.632 2643.29,-436.185 2683.55,-460.963"/>
<polygon fill="#757575" stroke="#757575" points="2681.72,-463.948 2692.07,-466.208 2685.39,-457.986 2681.72,-463.948"/>
</g>
<!-- reducers/updateTime.js -->
<g id="node32" class="node"><title>reducers/updateTime.js</title>
<path fill="none" stroke="#c6c5fe" d="M2787.83,-247.356C2787.83,-247.356 2636.17,-247.356 2636.17,-247.356 2632.33,-247.356 2628.5,-243.522 2628.5,-239.689 2628.5,-239.689 2628.5,-232.022 2628.5,-232.022 2628.5,-228.189 2632.33,-224.356 2636.17,-224.356 2636.17,-224.356 2787.83,-224.356 2787.83,-224.356 2791.67,-224.356 2795.5,-228.189 2795.5,-232.022 2795.5,-232.022 2795.5,-239.689 2795.5,-239.689 2795.5,-243.522 2791.67,-247.356 2787.83,-247.356"/>
<text text-anchor="middle" x="2712" y="-232.156" font-family="Arial" font-size="14.00" fill="#c6c5fe">reducers/updateTime.js</text>
</g>
<!-- reducers/root.js&#45;&gt;reducers/updateTime.js -->
<g id="edge35" class="edge"><title>reducers/root.js&#45;&gt;reducers/updateTime.js</title>
<path fill="none" stroke="#757575" d="M2524.13,-346.24C2539.83,-324.756 2576.53,-278.906 2619,-255.856 2622.28,-254.075 2625.71,-252.452 2629.23,-250.974"/>
<polygon fill="#757575" stroke="#757575" points="2630.62,-254.191 2638.74,-247.389 2628.15,-247.641 2630.62,-254.191"/>
</g>
<!-- store/initialState.js -->
<g id="node33" class="node"><title>store/initialState.js</title>
<path fill="none" stroke="#c6c5fe" d="M2769.83,-206.356C2769.83,-206.356 2654.17,-206.356 2654.17,-206.356 2650.33,-206.356 2646.5,-202.522 2646.5,-198.689 2646.5,-198.689 2646.5,-191.022 2646.5,-191.022 2646.5,-187.189 2650.33,-183.356 2654.17,-183.356 2654.17,-183.356 2769.83,-183.356 2769.83,-183.356 2773.67,-183.356 2777.5,-187.189 2777.5,-191.022 2777.5,-191.022 2777.5,-198.689 2777.5,-198.689 2777.5,-202.522 2773.67,-206.356 2769.83,-206.356"/>
<text text-anchor="middle" x="2712" y="-191.156" font-family="Arial" font-size="14.00" fill="#c6c5fe">store/initialState.js</text>
</g>
<!-- reducers/root.js&#45;&gt;store/initialState.js -->
<g id="edge36" class="edge"><title>reducers/root.js&#45;&gt;store/initialState.js</title>
<path fill="none" stroke="#757575" d="M2520.92,-345.975C2533.07,-318.186 2567.31,-248.743 2619,-214.856 2624.38,-211.327 2630.29,-208.411 2636.42,-206.002"/>
<polygon fill="#757575" stroke="#757575" points="2637.91,-209.192 2646.22,-202.619 2635.62,-202.576 2637.91,-209.192"/>
</g>
<!-- reducers/root.js&#45;&gt;utils.js -->
<g id="edge37" class="edge"><title>reducers/root.js&#45;&gt;utils.js</title>
<path fill="none" stroke="#757575" d="M2518.81,-369.378C2527.35,-401.628 2556.37,-492.854 2619,-529.856 2771.33,-619.85 2852.73,-603.564 3017,-537.856 3037.21,-529.773 3054.63,-511.78 3065.99,-497.594"/>
<polygon fill="#757575" stroke="#757575" points="3068.98,-499.45 3072.26,-489.376 3063.41,-495.206 3068.98,-499.45"/>
</g>
<!-- reducers/updateBodyArr.js&#45;&gt;actions/playerMsg.js -->
<g id="edge38" class="edge"><title>reducers/updateBodyArr.js&#45;&gt;actions/playerMsg.js</title>
<path fill="none" stroke="#757575" d="M2779.06,-329.415C2788.39,-333.002 2797.38,-337.701 2805,-343.856 2831.6,-365.349 2814.56,-390.164 2841,-411.856 2845.88,-415.859 2851.36,-419.246 2857.13,-422.111"/>
<polygon fill="#757575" stroke="#757575" points="2855.84,-425.367 2866.4,-426.199 2858.67,-418.962 2855.84,-425.367"/>
</g>
<!-- reducers/updateStats.js&#45;&gt;actions/coreMsg.js -->
<g id="edge39" class="edge"><title>reducers/updateStats.js&#45;&gt;actions/coreMsg.js</title>
<path fill="none" stroke="#757575" d="M2774.9,-489.372C2800.31,-494.099 2829.89,-499.603 2856.24,-504.505"/>
<polygon fill="#757575" stroke="#757575" points="2855.69,-507.964 2866.17,-506.352 2856.98,-501.082 2855.69,-507.964"/>
</g>
<!-- reducers/updateStats.js&#45;&gt;actions/playerMsg.js -->
<g id="edge40" class="edge"><title>reducers/updateStats.js&#45;&gt;actions/playerMsg.js</title>
<path fill="none" stroke="#757575" d="M2774.9,-466.34C2800.31,-461.612 2829.89,-456.109 2856.24,-451.206"/>
<polygon fill="#757575" stroke="#757575" points="2856.98,-454.63 2866.17,-449.36 2855.69,-447.748 2856.98,-454.63"/>
</g>
<!-- reducers/updateStats.js&#45;&gt;utils.js -->
<g id="edge41" class="edge"><title>reducers/updateStats.js&#45;&gt;utils.js</title>
<path fill="none" stroke="#757575" d="M2795.82,-477.856C2873.24,-477.856 2985.29,-477.856 3042.83,-477.856"/>
<polygon fill="#757575" stroke="#757575" points="3042.92,-481.356 3052.92,-477.856 3042.92,-474.356 3042.92,-481.356"/>
</g>
<!-- reducers/updateTime.js&#45;&gt;utils.js -->
<g id="edge42" class="edge"><title>reducers/updateTime.js&#45;&gt;utils.js</title>
<path fill="none" stroke="#757575" d="M2793.54,-247.531C2797.66,-249.876 2801.53,-252.628 2805,-255.856 2846.41,-294.348 2799.67,-339.281 2841,-377.856 2899.57,-432.525 2946.45,-378.89 3017,-416.856 3035.87,-427.012 3053.04,-444.446 3064.67,-458.081"/>
<polygon fill="#757575" stroke="#757575" points="3062.11,-460.477 3071.16,-465.981 3067.52,-456.033 3062.11,-460.477"/>
</g>
<!-- store/initialState.js&#45;&gt;scenes/sceneSymbols.js -->
<g id="edge64" class="edge"><title>store/initialState.js&#45;&gt;scenes/sceneSymbols.js</title>
<path fill="none" stroke="#757575" d="M2758.27,-183.269C2773.27,-179.111 2789.97,-174.135 2805,-168.856 2835.51,-158.142 2869.29,-143.665 2893.72,-132.708"/>
<polygon fill="#757575" stroke="#757575" points="2895.25,-135.856 2902.92,-128.547 2892.37,-129.477 2895.25,-135.856"/>
</g>
<!-- symbols/face.js -->
<g id="node43" class="node"><title>symbols/face.js</title>
<path fill="none" stroke="#c6c5fe" d="M2979.33,-246.356C2979.33,-246.356 2878.67,-246.356 2878.67,-246.356 2874.83,-246.356 2871,-242.522 2871,-238.689 2871,-238.689 2871,-231.022 2871,-231.022 2871,-227.189 2874.83,-223.356 2878.67,-223.356 2878.67,-223.356 2979.33,-223.356 2979.33,-223.356 2983.17,-223.356 2987,-227.189 2987,-231.022 2987,-231.022 2987,-238.689 2987,-238.689 2987,-242.522 2983.17,-246.356 2979.33,-246.356"/>
<text text-anchor="middle" x="2929" y="-231.156" font-family="Arial" font-size="14.00" fill="#c6c5fe">symbols/face.js</text>
</g>
<!-- store/initialState.js&#45;&gt;symbols/face.js -->
<g id="edge65" class="edge"><title>store/initialState.js&#45;&gt;symbols/face.js</title>
<path fill="none" stroke="#757575" d="M2774.9,-206.372C2801.86,-211.387 2833.51,-217.277 2861.02,-222.394"/>
<polygon fill="#757575" stroke="#757575" points="2860.48,-225.854 2870.95,-224.242 2861.76,-218.972 2860.48,-225.854"/>
</g>
<!-- symbols/lowerBody.js -->
<g id="node44" class="node"><title>symbols/lowerBody.js</title>
<path fill="none" stroke="#c6c5fe" d="M2998.83,-205.356C2998.83,-205.356 2859.17,-205.356 2859.17,-205.356 2855.33,-205.356 2851.5,-201.522 2851.5,-197.689 2851.5,-197.689 2851.5,-190.022 2851.5,-190.022 2851.5,-186.189 2855.33,-182.356 2859.17,-182.356 2859.17,-182.356 2998.83,-182.356 2998.83,-182.356 3002.67,-182.356 3006.5,-186.189 3006.5,-190.022 3006.5,-190.022 3006.5,-197.689 3006.5,-197.689 3006.5,-201.522 3002.67,-205.356 2998.83,-205.356"/>
<text text-anchor="middle" x="2929" y="-190.156" font-family="Arial" font-size="14.00" fill="#c6c5fe">symbols/lowerBody.js</text>
</g>
<!-- store/initialState.js&#45;&gt;symbols/lowerBody.js -->
<g id="edge66" class="edge"><title>store/initialState.js&#45;&gt;symbols/lowerBody.js</title>
<path fill="none" stroke="#757575" d="M2777.51,-194.556C2797.58,-194.462 2820.05,-194.358 2841.38,-194.259"/>
<polygon fill="#757575" stroke="#757575" points="2841.43,-197.759 2851.41,-194.212 2841.4,-190.759 2841.43,-197.759"/>
</g>
<!-- symbols/skin.js -->
<g id="node45" class="node"><title>symbols/skin.js</title>
<path fill="none" stroke="#c6c5fe" d="M2977.83,-369.356C2977.83,-369.356 2880.17,-369.356 2880.17,-369.356 2876.33,-369.356 2872.5,-365.522 2872.5,-361.689 2872.5,-361.689 2872.5,-354.022 2872.5,-354.022 2872.5,-350.189 2876.33,-346.356 2880.17,-346.356 2880.17,-346.356 2977.83,-346.356 2977.83,-346.356 2981.67,-346.356 2985.5,-350.189 2985.5,-354.022 2985.5,-354.022 2985.5,-361.689 2985.5,-361.689 2985.5,-365.522 2981.67,-369.356 2977.83,-369.356"/>
<text text-anchor="middle" x="2929" y="-354.156" font-family="Arial" font-size="14.00" fill="#c6c5fe">symbols/skin.js</text>
</g>
<!-- store/initialState.js&#45;&gt;symbols/skin.js -->
<g id="edge67" class="edge"><title>store/initialState.js&#45;&gt;symbols/skin.js</title>
<path fill="none" stroke="#757575" d="M2777.7,-199.711C2787.76,-202.922 2797.34,-207.733 2805,-214.856 2846.41,-253.348 2800.04,-297.894 2841,-336.856 2847.15,-342.705 2854.64,-347.015 2862.61,-350.175"/>
<polygon fill="#757575" stroke="#757575" points="2861.55,-353.51 2872.14,-353.38 2863.78,-346.875 2861.55,-353.51"/>
</g>
<!-- symbols/tail.js -->
<g id="node46" class="node"><title>symbols/tail.js</title>
<path fill="none" stroke="#c6c5fe" d="M2973.83,-328.356C2973.83,-328.356 2884.17,-328.356 2884.17,-328.356 2880.33,-328.356 2876.5,-324.522 2876.5,-320.689 2876.5,-320.689 2876.5,-313.022 2876.5,-313.022 2876.5,-309.189 2880.33,-305.356 2884.17,-305.356 2884.17,-305.356 2973.83,-305.356 2973.83,-305.356 2977.67,-305.356 2981.5,-309.189 2981.5,-313.022 2981.5,-313.022 2981.5,-320.689 2981.5,-320.689 2981.5,-324.522 2977.67,-328.356 2973.83,-328.356"/>
<text text-anchor="middle" x="2929" y="-313.156" font-family="Arial" font-size="14.00" fill="#c6c5fe">symbols/tail.js</text>
</g>
<!-- store/initialState.js&#45;&gt;symbols/tail.js -->
<g id="edge68" class="edge"><title>store/initialState.js&#45;&gt;symbols/tail.js</title>
<path fill="none" stroke="#757575" d="M2777.89,-200.881C2787.69,-203.985 2797.14,-208.457 2805,-214.856 2835.55,-239.729 2810.73,-270.636 2841,-295.856 2848.35,-301.983 2857.21,-306.378 2866.41,-309.518"/>
<polygon fill="#757575" stroke="#757575" points="2865.5,-312.899 2876.08,-312.358 2867.47,-306.182 2865.5,-312.899"/>
</g>
<!-- symbols/tongue.js -->
<g id="node47" class="node"><title>symbols/tongue.js</title>
<path fill="none" stroke="#c6c5fe" d="M2986.83,-287.356C2986.83,-287.356 2871.17,-287.356 2871.17,-287.356 2867.33,-287.356 2863.5,-283.522 2863.5,-279.689 2863.5,-279.689 2863.5,-272.022 2863.5,-272.022 2863.5,-268.189 2867.33,-264.356 2871.17,-264.356 2871.17,-264.356 2986.83,-264.356 2986.83,-264.356 2990.67,-264.356 2994.5,-268.189 2994.5,-272.022 2994.5,-272.022 2994.5,-279.689 2994.5,-279.689 2994.5,-283.522 2990.67,-287.356 2986.83,-287.356"/>
<text text-anchor="middle" x="2929" y="-272.156" font-family="Arial" font-size="14.00" fill="#c6c5fe">symbols/tongue.js</text>
</g>
<!-- store/initialState.js&#45;&gt;symbols/tongue.js -->
<g id="edge69" class="edge"><title>store/initialState.js&#45;&gt;symbols/tongue.js</title>
<path fill="none" stroke="#757575" d="M2777.78,-203.556C2787.28,-206.341 2796.66,-210.014 2805,-214.856 2825.68,-226.865 2820.45,-242.612 2841,-254.856 2844.94,-257.201 2849.12,-259.285 2853.44,-261.136"/>
<polygon fill="#757575" stroke="#757575" points="2852.49,-264.519 2863.08,-264.828 2854.99,-257.982 2852.49,-264.519"/>
</g>
<!-- scenes/charCreation.js&#45;&gt;actions/Core.js -->
<g id="edge43" class="edge"><title>scenes/charCreation.js&#45;&gt;actions/Core.js</title>
<path fill="none" stroke="#757575" d="M1356.41,-506.317C1422.17,-480.95 1579.28,-420.339 1652.81,-391.975"/>
<polygon fill="#757575" stroke="#757575" points="1654.12,-395.221 1662.19,-388.356 1651.6,-388.69 1654.12,-395.221"/>
</g>
<!-- scenes/charCreation.js&#45;&gt;actions/Player.js -->
<g id="edge44" class="edge"><title>scenes/charCreation.js&#45;&gt;actions/Player.js</title>
<path fill="none" stroke="#757575" d="M1406.23,-513.874C1563.41,-506.025 1910.83,-488.676 2058.7,-481.291"/>
<polygon fill="#757575" stroke="#757575" points="2059.19,-484.772 2069,-480.777 2058.84,-477.78 2059.19,-484.772"/>
</g>
<!-- scenes/charCreation.js&#45;&gt;symbols/breastCup.js -->
<g id="edge49" class="edge"><title>scenes/charCreation.js&#45;&gt;symbols/breastCup.js</title>
<path fill="none" stroke="#757575" d="M1339.61,-529.584C1359.94,-547.076 1401.04,-579.672 1442,-595.856 1546.65,-637.208 1579.48,-635.856 1692,-635.856 1692,-635.856 1692,-635.856 1911,-635.856 2027.16,-635.856 2161.31,-636.239 2246.61,-636.531"/>
<polygon fill="#757575" stroke="#757575" points="2246.75,-640.032 2256.76,-636.567 2246.78,-633.032 2246.75,-640.032"/>
</g>
<!-- scenes/charCreation.js&#45;&gt;appearance/appearance.js -->
<g id="edge45" class="edge"><title>scenes/charCreation.js&#45;&gt;appearance/appearance.js</title>
<path fill="none" stroke="#757575" d="M1346.11,-529.526C1368.45,-542.128 1406.46,-561.517 1442,-569.856 1644.7,-617.417 1890.23,-612.145 2025.57,-604.018"/>
<polygon fill="#757575" stroke="#757575" points="2026.16,-607.489 2035.92,-603.378 2025.72,-600.502 2026.16,-607.489"/>
</g>
<!-- scenes/charCreation.js&#45;&gt;symbols/gender.js -->
<g id="edge51" class="edge"><title>scenes/charCreation.js&#45;&gt;symbols/gender.js</title>
<path fill="none" stroke="#757575" d="M1395.67,-529.36C1469,-540.545 1588.33,-555.856 1692,-555.856 1692,-555.856 1692,-555.856 1911,-555.856 2049.04,-555.856 2084.01,-557.882 2221,-574.856 2236.62,-576.792 2253.35,-579.553 2268.99,-582.439"/>
<polygon fill="#757575" stroke="#757575" points="2268.62,-585.93 2279.09,-584.347 2269.92,-579.051 2268.62,-585.93"/>
</g>
<!-- scenes/charCreation.js&#45;&gt;scenes/menus.js -->
<g id="edge46" class="edge"><title>scenes/charCreation.js&#45;&gt;scenes/menus.js</title>
<path fill="none" stroke="#757575" d="M1329.34,-506.166C1339.69,-465.017 1378.14,-323.948 1442,-223.856 1452.94,-206.71 1468.9,-190.168 1481.75,-178.198"/>
<polygon fill="#757575" stroke="#757575" points="1484.22,-180.682 1489.27,-171.371 1479.51,-175.497 1484.22,-180.682"/>
</g>
<!-- scenes/charCreation.js&#45;&gt;scenes/sceneSymbols.js -->
<g id="edge47" class="edge"><title>scenes/charCreation.js&#45;&gt;scenes/sceneSymbols.js</title>
<path fill="none" stroke="#757575" d="M1338.09,-506.334C1357.96,-487.057 1400.42,-447.92 1442,-422.856 1508.03,-383.058 1528.1,-377.828 1602,-355.856 1633.48,-346.497 1533.4,-366.627 2619,-173.856 2701.66,-159.177 2722.46,-156.229 2805,-140.856 2822.7,-137.559 2841.81,-133.885 2859.57,-130.423"/>
<polygon fill="#757575" stroke="#757575" points="2860.71,-133.768 2869.85,-128.414 2859.36,-126.898 2860.71,-133.768"/>
</g>
<!-- scenes/sceneTextStore.js -->
<g id="node38" class="node"><title>scenes/sceneTextStore.js</title>
<path fill="none" stroke="#c6c5fe" d="M1776.33,-216.356C1776.33,-216.356 1609.67,-216.356 1609.67,-216.356 1605.83,-216.356 1602,-212.522 1602,-208.689 1602,-208.689 1602,-201.022 1602,-201.022 1602,-197.189 1605.83,-193.356 1609.67,-193.356 1609.67,-193.356 1776.33,-193.356 1776.33,-193.356 1780.17,-193.356 1784,-197.189 1784,-201.022 1784,-201.022 1784,-208.689 1784,-208.689 1784,-212.522 1780.17,-216.356 1776.33,-216.356"/>
<text text-anchor="middle" x="1693" y="-201.156" font-family="Arial" font-size="14.00" fill="#c6c5fe">scenes/sceneTextStore.js</text>
</g>
<!-- scenes/charCreation.js&#45;&gt;scenes/sceneTextStore.js -->
<g id="edge48" class="edge"><title>scenes/charCreation.js&#45;&gt;scenes/sceneTextStore.js</title>
<path fill="none" stroke="#757575" d="M1328.06,-506.226C1334.18,-465.575 1360.29,-328.689 1442,-261.856 1483.75,-227.71 1541.97,-213.117 1591.73,-207.218"/>
<polygon fill="#757575" stroke="#757575" points="1592.32,-210.675 1601.89,-206.119 1591.57,-203.715 1592.32,-210.675"/>
</g>
<!-- symbols/butt.js -->
<g id="node39" class="node"><title>symbols/butt.js</title>
<path fill="none" stroke="#c6c5fe" d="M1957.83,-797.356C1957.83,-797.356 1862.17,-797.356 1862.17,-797.356 1858.33,-797.356 1854.5,-793.522 1854.5,-789.689 1854.5,-789.689 1854.5,-782.022 1854.5,-782.022 1854.5,-778.189 1858.33,-774.356 1862.17,-774.356 1862.17,-774.356 1957.83,-774.356 1957.83,-774.356 1961.67,-774.356 1965.5,-778.189 1965.5,-782.022 1965.5,-782.022 1965.5,-789.689 1965.5,-789.689 1965.5,-793.522 1961.67,-797.356 1957.83,-797.356"/>
<text text-anchor="middle" x="1910" y="-782.156" font-family="Arial" font-size="14.00" fill="#c6c5fe">symbols/butt.js</text>
</g>
<!-- scenes/charCreation.js&#45;&gt;symbols/butt.js -->
<g id="edge50" class="edge"><title>scenes/charCreation.js&#45;&gt;symbols/butt.js</title>
<path fill="none" stroke="#757575" d="M1329.01,-529.49C1337.54,-566.044 1369.05,-679.272 1442,-731.856 1562.38,-818.627 1747.33,-809.383 1844.41,-796.74"/>
<polygon fill="#757575" stroke="#757575" points="1844.94,-800.2 1854.38,-795.389 1844,-793.263 1844.94,-800.2"/>
</g>
<!-- symbols/hips.js -->
<g id="node40" class="node"><title>symbols/hips.js</title>
<path fill="none" stroke="#c6c5fe" d="M1553.33,-722.356C1553.33,-722.356 1454.67,-722.356 1454.67,-722.356 1450.83,-722.356 1447,-718.522 1447,-714.689 1447,-714.689 1447,-707.022 1447,-707.022 1447,-703.189 1450.83,-699.356 1454.67,-699.356 1454.67,-699.356 1553.33,-699.356 1553.33,-699.356 1557.17,-699.356 1561,-703.189 1561,-707.022 1561,-707.022 1561,-714.689 1561,-714.689 1561,-718.522 1557.17,-722.356 1553.33,-722.356"/>
<text text-anchor="middle" x="1504" y="-707.156" font-family="Arial" font-size="14.00" fill="#c6c5fe">symbols/hips.js</text>
</g>
<!-- scenes/charCreation.js&#45;&gt;symbols/hips.js -->
<g id="edge52" class="edge"><title>scenes/charCreation.js&#45;&gt;symbols/hips.js</title>
<path fill="none" stroke="#757575" d="M1336.14,-529.382C1355.65,-552.603 1401.43,-606.494 1442,-649.856 1455.43,-664.21 1471.12,-679.88 1483.23,-691.743"/>
<polygon fill="#757575" stroke="#757575" points="1481,-694.462 1490.61,-698.937 1485.89,-689.45 1481,-694.462"/>
</g>
<!-- scenes/menus.js&#45;&gt;actions/Core.js -->
<g id="edge53" class="edge"><title>scenes/menus.js&#45;&gt;actions/Core.js</title>
<path fill="none" stroke="#757575" d="M1541.82,-171.46C1550.32,-175.205 1558.93,-179.956 1566,-185.856 1596.34,-211.17 1655.63,-312.498 1680.54,-356.4"/>
<polygon fill="#757575" stroke="#757575" points="1677.61,-358.331 1685.57,-365.318 1683.7,-354.89 1677.61,-358.331"/>
</g>
<!-- scenes/menus.js&#45;&gt;scenes/sceneSymbols.js -->
<g id="edge54" class="edge"><title>scenes/menus.js&#45;&gt;scenes/sceneSymbols.js</title>
<path fill="none" stroke="#757575" d="M1557.58,-148.337C1664.4,-125.974 1914.71,-78.8558 2127.5,-78.8558 2127.5,-78.8558 2127.5,-78.8558 2516,-78.8558 2628.17,-78.8558 2756.79,-92.9942 2840.06,-104.023"/>
<polygon fill="#757575" stroke="#757575" points="2839.6,-107.494 2849.98,-105.351 2840.53,-100.556 2839.6,-107.494"/>
</g>
<!-- scenes/menus.js&#45;&gt;scenes/sceneTextStore.js -->
<g id="edge55" class="edge"><title>scenes/menus.js&#45;&gt;scenes/sceneTextStore.js</title>
<path fill="none" stroke="#757575" d="M1553.16,-171.444C1577.91,-177.402 1608.27,-184.706 1634.27,-190.964"/>
<polygon fill="#757575" stroke="#757575" points="1633.46,-194.37 1644.01,-193.306 1635.1,-187.564 1633.46,-194.37"/>
</g>
<!-- scenes/sceneTextStore.js&#45;&gt;components/nameInput.js -->
<g id="edge62" class="edge"><title>scenes/sceneTextStore.js&#45;&gt;components/nameInput.js</title>
<path fill="none" stroke="#757575" d="M1713.08,-216.57C1751.25,-240.005 1837.14,-292.737 1881.43,-319.929"/>
<polygon fill="#757575" stroke="#757575" points="1879.61,-322.919 1889.96,-325.168 1883.27,-316.953 1879.61,-322.919"/>
</g>
<!-- scenes/sceneTextStore.js&#45;&gt;scenes/sceneSymbols.js -->
<g id="edge63" class="edge"><title>scenes/sceneTextStore.js&#45;&gt;scenes/sceneSymbols.js</title>
<path fill="none" stroke="#757575" d="M1784.11,-198.145C1925.37,-187.654 2207.56,-166.814 2447,-149.856 2579.85,-140.447 2733.38,-129.985 2830.56,-123.415"/>
<polygon fill="#757575" stroke="#757575" points="2830.92,-126.898 2840.66,-122.732 2830.45,-119.914 2830.92,-126.898"/>
</g>
<!-- symbols/butt.js&#45;&gt;utils.js -->
<g id="edge72" class="edge"><title>symbols/butt.js&#45;&gt;utils.js</title>
<path fill="none" stroke="#757575" d="M1965.63,-785.644C2046.07,-785.35 2201.12,-784.856 2333,-784.856 2333,-784.856 2333,-784.856 2713,-784.856 2848.57,-784.856 2914.77,-848.892 3017,-759.856 3056.45,-725.499 3073.43,-559.957 3078.38,-499.781"/>
<polygon fill="#757575" stroke="#757575" points="3081.89,-499.766 3079.18,-489.522 3074.91,-499.216 3081.89,-499.766"/>
</g>
<!-- symbols/hips.js&#45;&gt;utils.js -->
<g id="edge75" class="edge"><title>symbols/hips.js&#45;&gt;utils.js</title>
<path fill="none" stroke="#757575" d="M1561.07,-718.798C1638.96,-729.124 1784.39,-745.856 1909,-745.856 1909,-745.856 1909,-745.856 2713,-745.856 2850.38,-745.856 2914.81,-781.683 3017,-689.856 3072.7,-639.805 3080.1,-542.977 3080.46,-499.69"/>
<polygon fill="#757575" stroke="#757575" points="3083.96,-499.656 3080.42,-489.669 3076.96,-499.682 3083.96,-499.656"/>
</g>
<!-- setupTests.js -->
<g id="node42" class="node"><title>setupTests.js</title>
<path fill="none" stroke="#cfffac" d="M94.3333,-93.3558C94.3333,-93.3558 7.66667,-93.3558 7.66667,-93.3558 3.83333,-93.3558 0,-89.5225 0,-85.6892 0,-85.6892 0,-78.0225 0,-78.0225 0,-74.1892 3.83333,-70.3558 7.66667,-70.3558 7.66667,-70.3558 94.3333,-70.3558 94.3333,-70.3558 98.1667,-70.3558 102,-74.1892 102,-78.0225 102,-78.0225 102,-85.6892 102,-85.6892 102,-89.5225 98.1667,-93.3558 94.3333,-93.3558"/>
<text text-anchor="middle" x="51" y="-78.1558" font-family="Arial" font-size="14.00" fill="#cfffac">setupTests.js</text>
</g>
<!-- symbols/face.js&#45;&gt;utils.js -->
<g id="edge73" class="edge"><title>symbols/face.js&#45;&gt;utils.js</title>
<path fill="none" stroke="#757575" d="M2987.25,-238.947C2998.21,-242.078 3008.81,-247.056 3017,-254.856 3074.23,-309.331 3080.73,-411.476 3080.65,-456.083"/>
<polygon fill="#757575" stroke="#757575" points="3077.15,-456.307 3080.51,-466.354 3084.15,-456.403 3077.15,-456.307"/>
</g>
<!-- symbols/lowerBody.js&#45;&gt;utils.js -->
<g id="edge76" class="edge"><title>symbols/lowerBody.js&#45;&gt;utils.js</title>
<path fill="none" stroke="#757575" d="M3005.98,-205.441C3009.98,-207.801 3013.7,-210.582 3017,-213.856 3051.58,-248.151 3071.39,-399.201 3077.74,-456.085"/>
<polygon fill="#757575" stroke="#757575" points="3074.27,-456.579 3078.83,-466.144 3081.23,-455.825 3074.27,-456.579"/>
</g>
<!-- symbols/skin.js&#45;&gt;utils.js -->
<g id="edge77" class="edge"><title>symbols/skin.js&#45;&gt;utils.js</title>
<path fill="none" stroke="#757575" d="M2985.61,-368.249C2996.68,-371.977 3007.74,-377.026 3017,-383.856 3042.66,-402.778 3061.11,-435.489 3071.17,-456.899"/>
<polygon fill="#757575" stroke="#757575" points="3068.03,-458.437 3075.32,-466.122 3074.41,-455.566 3068.03,-458.437"/>
</g>
<!-- symbols/tail.js&#45;&gt;utils.js -->
<g id="edge78" class="edge"><title>symbols/tail.js&#45;&gt;utils.js</title>
<path fill="none" stroke="#757575" d="M2981.88,-320.717C2994.43,-323.71 3007.07,-328.685 3017,-336.856 3054.42,-367.63 3070.4,-425.209 3076.57,-456.42"/>
<polygon fill="#757575" stroke="#757575" points="3073.13,-457.06 3078.36,-466.274 3080.01,-455.809 3073.13,-457.06"/>
</g>
<!-- symbols/tongue.js&#45;&gt;utils.js -->
<g id="edge79" class="edge"><title>symbols/tongue.js&#45;&gt;utils.js</title>
<path fill="none" stroke="#757575" d="M2994.51,-282.785C3002.75,-285.838 3010.54,-290.057 3017,-295.856 3064.1,-338.151 3075.99,-417.421 3078.99,-455.85"/>
<polygon fill="#757575" stroke="#757575" points="3075.51,-456.208 3079.64,-465.961 3082.49,-455.756 3075.51,-456.208"/>
</g>
</g>
</svg>
