<?xml version="1.0" encoding="UTF-8" standalone="no"?>
<!DOCTYPE svg PUBLIC "-//W3C//DTD SVG 1.1//EN"
 "http://www.w3.org/Graphics/SVG/1.1/DTD/svg11.dtd">
<!-- Generated by graphviz version 2.38.0 (20140413.2041)
 -->
<!-- Title: G Pages: 1 -->
<svg width="1218pt" height="474pt"
 viewBox="0.00 0.00 1218.20 474.20" xmlns="http://www.w3.org/2000/svg" xmlns:xlink="http://www.w3.org/1999/xlink">
<g id="graph0" class="graph" transform="scale(1 1) rotate(0) translate(21.6 452.6)">
<title>G</title>
<polygon fill="#111111" stroke="none" points="-21.6,21.6 -21.6,-452.6 1196.6,-452.6 1196.6,21.6 -21.6,21.6"/>
<!-- actions/UI.js -->
<g id="node1" class="node"><title>actions/UI.js</title>
<path fill="none" stroke="#cfffac" d="M932.833,-227C932.833,-227 854.167,-227 854.167,-227 850.333,-227 846.5,-223.167 846.5,-219.333 846.5,-219.333 846.5,-211.667 846.5,-211.667 846.5,-207.833 850.333,-204 854.167,-204 854.167,-204 932.833,-204 932.833,-204 936.667,-204 940.5,-207.833 940.5,-211.667 940.5,-211.667 940.5,-219.333 940.5,-219.333 940.5,-223.167 936.667,-227 932.833,-227"/>
<text text-anchor="middle" x="893.5" y="-211.8" font-family="Arial" font-size="14.00" fill="#cfffac">actions/UI.js</text>
</g>
<!-- actions/UI.test.js -->
<g id="node2" class="node"><title>actions/UI.test.js</title>
<path fill="none" stroke="#c6c5fe" d="M702.833,-187C702.833,-187 597.167,-187 597.167,-187 593.333,-187 589.5,-183.167 589.5,-179.333 589.5,-179.333 589.5,-171.667 589.5,-171.667 589.5,-167.833 593.333,-164 597.167,-164 597.167,-164 702.833,-164 702.833,-164 706.667,-164 710.5,-167.833 710.5,-171.667 710.5,-171.667 710.5,-179.333 710.5,-179.333 710.5,-183.167 706.667,-187 702.833,-187"/>
<text text-anchor="middle" x="650" y="-171.8" font-family="Arial" font-size="14.00" fill="#c6c5fe">actions/UI.test.js</text>
</g>
<!-- actions/UI.test.js&#45;&gt;actions/UI.js -->
<g id="edge1" class="edge"><title>actions/UI.test.js&#45;&gt;actions/UI.js</title>
<path fill="none" stroke="#757575" d="M710.697,-185.388C748.999,-191.732 798.423,-199.918 836.069,-206.153"/>
<polygon fill="#757575" stroke="#757575" points="835.918,-209.676 846.356,-207.857 837.062,-202.77 835.918,-209.676"/>
</g>
<!-- components/appRoot.js -->
<g id="node3" class="node"><title>components/appRoot.js</title>
<path fill="none" stroke="#c6c5fe" d="M261.333,-349C261.333,-349 108.667,-349 108.667,-349 104.833,-349 101,-345.167 101,-341.333 101,-341.333 101,-333.667 101,-333.667 101,-329.833 104.833,-326 108.667,-326 108.667,-326 261.333,-326 261.333,-326 265.167,-326 269,-329.833 269,-333.667 269,-333.667 269,-341.333 269,-341.333 269,-345.167 265.167,-349 261.333,-349"/>
<text text-anchor="middle" x="185" y="-333.8" font-family="Arial" font-size="14.00" fill="#c6c5fe">components/appRoot.js</text>
</g>
<!-- components/lowerButtons.js -->
<g id="node4" class="node"><title>components/lowerButtons.js</title>
<path fill="none" stroke="#c6c5fe" d="M492.333,-390C492.333,-390 312.667,-390 312.667,-390 308.833,-390 305,-386.167 305,-382.333 305,-382.333 305,-374.667 305,-374.667 305,-370.833 308.833,-367 312.667,-367 312.667,-367 492.333,-367 492.333,-367 496.167,-367 500,-370.833 500,-374.667 500,-374.667 500,-382.333 500,-382.333 500,-386.167 496.167,-390 492.333,-390"/>
<text text-anchor="middle" x="402.5" y="-374.8" font-family="Arial" font-size="14.00" fill="#c6c5fe">components/lowerButtons.js</text>
</g>
<!-- components/appRoot.js&#45;&gt;components/lowerButtons.js -->
<g id="edge2" class="edge"><title>components/appRoot.js&#45;&gt;components/lowerButtons.js</title>
<path fill="none" stroke="#757575" d="M246.602,-349.03C272.88,-354.029 303.817,-359.915 331.106,-365.107"/>
<polygon fill="#757575" stroke="#757575" points="330.502,-368.555 340.98,-366.986 331.81,-361.678 330.502,-368.555"/>
</g>
<!-- components/menuBar.js -->
<g id="node5" class="node"><title>components/menuBar.js</title>
<path fill="none" stroke="#c6c5fe" d="M479.833,-349C479.833,-349 325.167,-349 325.167,-349 321.333,-349 317.5,-345.167 317.5,-341.333 317.5,-341.333 317.5,-333.667 317.5,-333.667 317.5,-329.833 321.333,-326 325.167,-326 325.167,-326 479.833,-326 479.833,-326 483.667,-326 487.5,-329.833 487.5,-333.667 487.5,-333.667 487.5,-341.333 487.5,-341.333 487.5,-345.167 483.667,-349 479.833,-349"/>
<text text-anchor="middle" x="402.5" y="-333.8" font-family="Arial" font-size="14.00" fill="#c6c5fe">components/menuBar.js</text>
</g>
<!-- components/appRoot.js&#45;&gt;components/menuBar.js -->
<g id="edge3" class="edge"><title>components/appRoot.js&#45;&gt;components/menuBar.js</title>
<path fill="none" stroke="#757575" d="M269.01,-337.5C281.546,-337.5 294.556,-337.5 307.307,-337.5"/>
<polygon fill="#757575" stroke="#757575" points="307.465,-341 317.465,-337.5 307.465,-334 307.465,-341"/>
</g>
<!-- components/output.js -->
<g id="node6" class="node"><title>components/output.js</title>
<path fill="none" stroke="#cfffac" d="M470.833,-431C470.833,-431 334.167,-431 334.167,-431 330.333,-431 326.5,-427.167 326.5,-423.333 326.5,-423.333 326.5,-415.667 326.5,-415.667 326.5,-411.833 330.333,-408 334.167,-408 334.167,-408 470.833,-408 470.833,-408 474.667,-408 478.5,-411.833 478.5,-415.667 478.5,-415.667 478.5,-423.333 478.5,-423.333 478.5,-427.167 474.667,-431 470.833,-431"/>
<text text-anchor="middle" x="402.5" y="-415.8" font-family="Arial" font-size="14.00" fill="#cfffac">components/output.js</text>
</g>
<!-- components/appRoot.js&#45;&gt;components/output.js -->
<g id="edge4" class="edge"><title>components/appRoot.js&#45;&gt;components/output.js</title>
<path fill="none" stroke="#757575" d="M204.235,-349.044C226.986,-362.957 267.476,-386.128 305,-399.5 311.029,-401.648 317.356,-403.596 323.766,-405.356"/>
<polygon fill="#757575" stroke="#757575" points="323.317,-408.855 333.875,-407.968 325.069,-402.077 323.317,-408.855"/>
</g>
<!-- components/statBar.js -->
<g id="node7" class="node"><title>components/statBar.js</title>
<path fill="none" stroke="#c6c5fe" d="M473.833,-308C473.833,-308 331.167,-308 331.167,-308 327.333,-308 323.5,-304.167 323.5,-300.333 323.5,-300.333 323.5,-292.667 323.5,-292.667 323.5,-288.833 327.333,-285 331.167,-285 331.167,-285 473.833,-285 473.833,-285 477.667,-285 481.5,-288.833 481.5,-292.667 481.5,-292.667 481.5,-300.333 481.5,-300.333 481.5,-304.167 477.667,-308 473.833,-308"/>
<text text-anchor="middle" x="402.5" y="-292.8" font-family="Arial" font-size="14.00" fill="#c6c5fe">components/statBar.js</text>
</g>
<!-- components/appRoot.js&#45;&gt;components/statBar.js -->
<g id="edge5" class="edge"><title>components/appRoot.js&#45;&gt;components/statBar.js</title>
<path fill="none" stroke="#757575" d="M246.602,-325.97C272.88,-320.971 303.817,-315.085 331.106,-309.893"/>
<polygon fill="#757575" stroke="#757575" points="331.81,-313.322 340.98,-308.014 330.502,-306.445 331.81,-313.322"/>
</g>
<!-- components/buttonGrid.js -->
<g id="node9" class="node"><title>components/buttonGrid.js</title>
<path fill="none" stroke="#c6c5fe" d="M731.833,-390C731.833,-390 568.167,-390 568.167,-390 564.333,-390 560.5,-386.167 560.5,-382.333 560.5,-382.333 560.5,-374.667 560.5,-374.667 560.5,-370.833 564.333,-367 568.167,-367 568.167,-367 731.833,-367 731.833,-367 735.667,-367 739.5,-370.833 739.5,-374.667 739.5,-374.667 739.5,-382.333 739.5,-382.333 739.5,-386.167 735.667,-390 731.833,-390"/>
<text text-anchor="middle" x="650" y="-374.8" font-family="Arial" font-size="14.00" fill="#c6c5fe">components/buttonGrid.js</text>
</g>
<!-- components/lowerButtons.js&#45;&gt;components/buttonGrid.js -->
<g id="edge9" class="edge"><title>components/lowerButtons.js&#45;&gt;components/buttonGrid.js</title>
<path fill="none" stroke="#757575" d="M500.176,-378.5C516.621,-378.5 533.721,-378.5 550.22,-378.5"/>
<polygon fill="#757575" stroke="#757575" points="550.404,-382 560.404,-378.5 550.404,-375 550.404,-382"/>
</g>
<!-- components/menuBar.js&#45;&gt;components/buttonGrid.js -->
<g id="edge10" class="edge"><title>components/menuBar.js&#45;&gt;components/buttonGrid.js</title>
<path fill="none" stroke="#757575" d="M472.539,-349.03C502.868,-354.095 538.647,-360.07 570.032,-365.312"/>
<polygon fill="#757575" stroke="#757575" points="569.615,-368.791 580.054,-366.986 570.768,-361.886 569.615,-368.791"/>
</g>
<!-- components/spriteDisplay.js -->
<g id="node11" class="node"><title>components/spriteDisplay.js</title>
<path fill="none" stroke="#cfffac" d="M739.833,-308C739.833,-308 560.167,-308 560.167,-308 556.333,-308 552.5,-304.167 552.5,-300.333 552.5,-300.333 552.5,-292.667 552.5,-292.667 552.5,-288.833 556.333,-285 560.167,-285 560.167,-285 739.833,-285 739.833,-285 743.667,-285 747.5,-288.833 747.5,-292.667 747.5,-292.667 747.5,-300.333 747.5,-300.333 747.5,-304.167 743.667,-308 739.833,-308"/>
<text text-anchor="middle" x="650" y="-292.8" font-family="Arial" font-size="14.00" fill="#cfffac">components/spriteDisplay.js</text>
</g>
<!-- components/statBar.js&#45;&gt;components/spriteDisplay.js -->
<g id="edge11" class="edge"><title>components/statBar.js&#45;&gt;components/spriteDisplay.js</title>
<path fill="none" stroke="#757575" d="M481.515,-296.5C500.733,-296.5 521.645,-296.5 541.972,-296.5"/>
<polygon fill="#757575" stroke="#757575" points="542.214,-300 552.214,-296.5 542.214,-293 542.214,-300"/>
</g>
<!-- components/statDisplay.js -->
<g id="node12" class="node"><title>components/statDisplay.js</title>
<path fill="none" stroke="#cfffac" d="M733.333,-267C733.333,-267 566.667,-267 566.667,-267 562.833,-267 559,-263.167 559,-259.333 559,-259.333 559,-251.667 559,-251.667 559,-247.833 562.833,-244 566.667,-244 566.667,-244 733.333,-244 733.333,-244 737.167,-244 741,-247.833 741,-251.667 741,-251.667 741,-259.333 741,-259.333 741,-263.167 737.167,-267 733.333,-267"/>
<text text-anchor="middle" x="650" y="-251.8" font-family="Arial" font-size="14.00" fill="#cfffac">components/statDisplay.js</text>
</g>
<!-- components/statBar.js&#45;&gt;components/statDisplay.js -->
<g id="edge12" class="edge"><title>components/statBar.js&#45;&gt;components/statDisplay.js</title>
<path fill="none" stroke="#757575" d="M472.539,-284.97C502.868,-279.905 538.647,-273.93 570.032,-268.688"/>
<polygon fill="#757575" stroke="#757575" points="570.768,-272.114 580.054,-267.014 569.615,-265.209 570.768,-272.114"/>
</g>
<!-- components/timeDisplay.js -->
<g id="node13" class="node"><title>components/timeDisplay.js</title>
<path fill="none" stroke="#cfffac" d="M735.833,-349C735.833,-349 564.167,-349 564.167,-349 560.333,-349 556.5,-345.167 556.5,-341.333 556.5,-341.333 556.5,-333.667 556.5,-333.667 556.5,-329.833 560.333,-326 564.167,-326 564.167,-326 735.833,-326 735.833,-326 739.667,-326 743.5,-329.833 743.5,-333.667 743.5,-333.667 743.5,-341.333 743.5,-341.333 743.5,-345.167 739.667,-349 735.833,-349"/>
<text text-anchor="middle" x="650" y="-333.8" font-family="Arial" font-size="14.00" fill="#cfffac">components/timeDisplay.js</text>
</g>
<!-- components/statBar.js&#45;&gt;components/timeDisplay.js -->
<g id="edge13" class="edge"><title>components/statBar.js&#45;&gt;components/timeDisplay.js</title>
<path fill="none" stroke="#757575" d="M472.539,-308.03C502.868,-313.095 538.647,-319.07 570.032,-324.312"/>
<polygon fill="#757575" stroke="#757575" points="569.615,-327.791 580.054,-325.986 570.768,-320.886 569.615,-327.791"/>
</g>
<!-- components/button.js -->
<g id="node8" class="node"><title>components/button.js</title>
<path fill="none" stroke="#cfffac" d="M1167.33,-390C1167.33,-390 1030.67,-390 1030.67,-390 1026.83,-390 1023,-386.167 1023,-382.333 1023,-382.333 1023,-374.667 1023,-374.667 1023,-370.833 1026.83,-367 1030.67,-367 1030.67,-367 1167.33,-367 1167.33,-367 1171.17,-367 1175,-370.833 1175,-374.667 1175,-374.667 1175,-382.333 1175,-382.333 1175,-386.167 1171.17,-390 1167.33,-390"/>
<text text-anchor="middle" x="1099" y="-374.8" font-family="Arial" font-size="14.00" fill="#cfffac">components/button.js</text>
</g>
<!-- components/buttonGrid.js&#45;&gt;actions/UI.js -->
<g id="edge6" class="edge"><title>components/buttonGrid.js&#45;&gt;actions/UI.js</title>
<path fill="none" stroke="#757575" d="M739.66,-368.734C748.159,-366.063 756.424,-362.708 764,-358.5 817.68,-328.687 860.569,-267.874 880.455,-236.012"/>
<polygon fill="#757575" stroke="#757575" points="883.658,-237.48 885.874,-227.12 877.681,-233.837 883.658,-237.48"/>
</g>
<!-- components/buttonWrap.js -->
<g id="node10" class="node"><title>components/buttonWrap.js</title>
<path fill="none" stroke="#c6c5fe" d="M979.333,-390C979.333,-390 807.667,-390 807.667,-390 803.833,-390 800,-386.167 800,-382.333 800,-382.333 800,-374.667 800,-374.667 800,-370.833 803.833,-367 807.667,-367 807.667,-367 979.333,-367 979.333,-367 983.167,-367 987,-370.833 987,-374.667 987,-374.667 987,-382.333 987,-382.333 987,-386.167 983.167,-390 979.333,-390"/>
<text text-anchor="middle" x="893.5" y="-374.8" font-family="Arial" font-size="14.00" fill="#c6c5fe">components/buttonWrap.js</text>
</g>
<!-- components/buttonGrid.js&#45;&gt;components/buttonWrap.js -->
<g id="edge7" class="edge"><title>components/buttonGrid.js&#45;&gt;components/buttonWrap.js</title>
<path fill="none" stroke="#757575" d="M739.554,-378.5C755.83,-378.5 772.948,-378.5 789.603,-378.5"/>
<polygon fill="#757575" stroke="#757575" points="789.901,-382 799.901,-378.5 789.901,-375 789.901,-382"/>
</g>
<!-- components/buttonWrap.js&#45;&gt;components/button.js -->
<g id="edge8" class="edge"><title>components/buttonWrap.js&#45;&gt;components/button.js</title>
<path fill="none" stroke="#757575" d="M987.02,-378.5C995.53,-378.5 1004.13,-378.5 1012.57,-378.5"/>
<polygon fill="#757575" stroke="#757575" points="1012.77,-382 1022.77,-378.5 1012.77,-375 1012.77,-382"/>
</g>
<!-- index.js -->
<g id="node14" class="node"><title>index.js</title>
<path fill="none" stroke="#c6c5fe" d="M57.3333,-227C57.3333,-227 7.66667,-227 7.66667,-227 3.83333,-227 0,-223.167 0,-219.333 0,-219.333 0,-211.667 0,-211.667 0,-207.833 3.83333,-204 7.66667,-204 7.66667,-204 57.3333,-204 57.3333,-204 61.1667,-204 65,-207.833 65,-211.667 65,-211.667 65,-219.333 65,-219.333 65,-223.167 61.1667,-227 57.3333,-227"/>
<text text-anchor="middle" x="32.5" y="-211.8" font-family="Arial" font-size="14.00" fill="#c6c5fe">index.js</text>
</g>
<!-- index.js&#45;&gt;components/appRoot.js -->
<g id="edge14" class="edge"><title>index.js&#45;&gt;components/appRoot.js</title>
<path fill="none" stroke="#757575" d="M51.7401,-227.142C56.1503,-230.098 60.801,-233.335 65,-236.5 101.004,-263.637 140.475,-298.164 163.698,-319.011"/>
<polygon fill="#757575" stroke="#757575" points="161.432,-321.681 171.202,-325.78 166.12,-316.483 161.432,-321.681"/>
</g>
<!-- store/store.js -->
<g id="node15" class="node"><title>store/store.js</title>
<path fill="none" stroke="#c6c5fe" d="M226.833,-105C226.833,-105 143.167,-105 143.167,-105 139.333,-105 135.5,-101.167 135.5,-97.3333 135.5,-97.3333 135.5,-89.6667 135.5,-89.6667 135.5,-85.8333 139.333,-82 143.167,-82 143.167,-82 226.833,-82 226.833,-82 230.667,-82 234.5,-85.8333 234.5,-89.6667 234.5,-89.6667 234.5,-97.3333 234.5,-97.3333 234.5,-101.167 230.667,-105 226.833,-105"/>
<text text-anchor="middle" x="185" y="-89.8" font-family="Arial" font-size="14.00" fill="#c6c5fe">store/store.js</text>
</g>
<!-- index.js&#45;&gt;store/store.js -->
<g id="edge15" class="edge"><title>index.js&#45;&gt;store/store.js</title>
<path fill="none" stroke="#757575" d="M47.9306,-203.802C74.1579,-182.541 129.826,-137.415 161.224,-111.963"/>
<polygon fill="#757575" stroke="#757575" points="163.828,-114.358 169.392,-105.342 159.42,-108.92 163.828,-114.358"/>
</g>
<!-- reducers/root.js -->
<g id="node16" class="node"><title>reducers/root.js</title>
<path fill="none" stroke="#c6c5fe" d="M452.833,-105C452.833,-105 352.167,-105 352.167,-105 348.333,-105 344.5,-101.167 344.5,-97.3333 344.5,-97.3333 344.5,-89.6667 344.5,-89.6667 344.5,-85.8333 348.333,-82 352.167,-82 352.167,-82 452.833,-82 452.833,-82 456.667,-82 460.5,-85.8333 460.5,-89.6667 460.5,-89.6667 460.5,-97.3333 460.5,-97.3333 460.5,-101.167 456.667,-105 452.833,-105"/>
<text text-anchor="middle" x="402.5" y="-89.8" font-family="Arial" font-size="14.00" fill="#c6c5fe">reducers/root.js</text>
</g>
<!-- store/store.js&#45;&gt;reducers/root.js -->
<g id="edge23" class="edge"><title>store/store.js&#45;&gt;reducers/root.js</title>
<path fill="none" stroke="#757575" d="M234.631,-93.5C263.979,-93.5 301.803,-93.5 334.017,-93.5"/>
<polygon fill="#757575" stroke="#757575" points="334.262,-97.0001 344.262,-93.5 334.262,-90.0001 334.262,-97.0001"/>
</g>
<!-- store/initialState.js -->
<g id="node20" class="node"><title>store/initialState.js</title>
<path fill="none" stroke="#c6c5fe" d="M707.833,-23C707.833,-23 592.167,-23 592.167,-23 588.333,-23 584.5,-19.1667 584.5,-15.3333 584.5,-15.3333 584.5,-7.66667 584.5,-7.66667 584.5,-3.83333 588.333,-0 592.167,-0 592.167,-0 707.833,-0 707.833,-0 711.667,-0 715.5,-3.83333 715.5,-7.66667 715.5,-7.66667 715.5,-15.3333 715.5,-15.3333 715.5,-19.1667 711.667,-23 707.833,-23"/>
<text text-anchor="middle" x="650" y="-7.8" font-family="Arial" font-size="14.00" fill="#c6c5fe">store/initialState.js</text>
</g>
<!-- store/store.js&#45;&gt;store/initialState.js -->
<g id="edge24" class="edge"><title>store/store.js&#45;&gt;store/initialState.js</title>
<path fill="none" stroke="#757575" d="M234.693,-84.872C302.304,-72.8925 428.447,-50.5442 536,-31.5 548.384,-29.3072 561.531,-26.9798 574.312,-24.7175"/>
<polygon fill="#757575" stroke="#757575" points="575.226,-28.1103 584.462,-22.9209 574.005,-21.2174 575.226,-28.1103"/>
</g>
<!-- reducers/root.js&#45;&gt;actions/UI.js -->
<g id="edge16" class="edge"><title>reducers/root.js&#45;&gt;actions/UI.js</title>
<path fill="none" stroke="#757575" d="M413.732,-105.222C434.255,-127.781 483.04,-176.746 536,-196.5 636.46,-233.971 763.94,-229.476 836.048,-222.622"/>
<polygon fill="#757575" stroke="#757575" points="836.674,-226.076 846.276,-221.598 835.977,-219.111 836.674,-226.076"/>
</g>
<!-- reducers/updateLowerButtonUI.js -->
<g id="node17" class="node"><title>reducers/updateLowerButtonUI.js</title>
<path fill="none" stroke="#cfffac" d="M756.333,-105C756.333,-105 543.667,-105 543.667,-105 539.833,-105 536,-101.167 536,-97.3333 536,-97.3333 536,-89.6667 536,-89.6667 536,-85.8333 539.833,-82 543.667,-82 543.667,-82 756.333,-82 756.333,-82 760.167,-82 764,-85.8333 764,-89.6667 764,-89.6667 764,-97.3333 764,-97.3333 764,-101.167 760.167,-105 756.333,-105"/>
<text text-anchor="middle" x="650" y="-89.8" font-family="Arial" font-size="14.00" fill="#cfffac">reducers/updateLowerButtonUI.js</text>
</g>
<!-- reducers/root.js&#45;&gt;reducers/updateLowerButtonUI.js -->
<g id="edge17" class="edge"><title>reducers/root.js&#45;&gt;reducers/updateLowerButtonUI.js</title>
<path fill="none" stroke="#757575" d="M460.749,-93.5C480.25,-93.5 502.869,-93.5 525.522,-93.5"/>
<polygon fill="#757575" stroke="#757575" points="525.571,-97.0001 535.571,-93.5 525.571,-90.0001 525.571,-97.0001"/>
</g>
<!-- reducers/updateMenuBar.js -->
<g id="node18" class="node"><title>reducers/updateMenuBar.js</title>
<path fill="none" stroke="#c6c5fe" d="M737.833,-64C737.833,-64 562.167,-64 562.167,-64 558.333,-64 554.5,-60.1667 554.5,-56.3333 554.5,-56.3333 554.5,-48.6667 554.5,-48.6667 554.5,-44.8333 558.333,-41 562.167,-41 562.167,-41 737.833,-41 737.833,-41 741.667,-41 745.5,-44.8333 745.5,-48.6667 745.5,-48.6667 745.5,-56.3333 745.5,-56.3333 745.5,-60.1667 741.667,-64 737.833,-64"/>
<text text-anchor="middle" x="650" y="-48.8" font-family="Arial" font-size="14.00" fill="#c6c5fe">reducers/updateMenuBar.js</text>
</g>
<!-- reducers/root.js&#45;&gt;reducers/updateMenuBar.js -->
<g id="edge18" class="edge"><title>reducers/root.js&#45;&gt;reducers/updateMenuBar.js</title>
<path fill="none" stroke="#757575" d="M460.749,-83.9391C493.256,-78.5102 534.43,-71.6338 569.977,-65.6973"/>
<polygon fill="#757575" stroke="#757575" points="570.555,-69.1494 579.842,-64.0498 569.402,-62.245 570.555,-69.1494"/>
</g>
<!-- reducers/updateStatUI.js -->
<g id="node19" class="node"><title>reducers/updateStatUI.js</title>
<path fill="none" stroke="#cfffac" d="M728.833,-146C728.833,-146 571.167,-146 571.167,-146 567.333,-146 563.5,-142.167 563.5,-138.333 563.5,-138.333 563.5,-130.667 563.5,-130.667 563.5,-126.833 567.333,-123 571.167,-123 571.167,-123 728.833,-123 728.833,-123 732.667,-123 736.5,-126.833 736.5,-130.667 736.5,-130.667 736.5,-138.333 736.5,-138.333 736.5,-142.167 732.667,-146 728.833,-146"/>
<text text-anchor="middle" x="650" y="-130.8" font-family="Arial" font-size="14.00" fill="#cfffac">reducers/updateStatUI.js</text>
</g>
<!-- reducers/root.js&#45;&gt;reducers/updateStatUI.js -->
<g id="edge19" class="edge"><title>reducers/root.js&#45;&gt;reducers/updateStatUI.js</title>
<path fill="none" stroke="#757575" d="M460.749,-103.061C493.256,-108.49 534.43,-115.366 569.977,-121.303"/>
<polygon fill="#757575" stroke="#757575" points="569.402,-124.755 579.842,-122.95 570.555,-117.851 569.402,-124.755"/>
</g>
<!-- reducers/root.js&#45;&gt;store/initialState.js -->
<g id="edge20" class="edge"><title>reducers/root.js&#45;&gt;store/initialState.js</title>
<path fill="none" stroke="#757575" d="M427.263,-81.9668C462.318,-65.0163 524.952,-34.9953 536,-31.5 548.261,-27.6209 561.522,-24.4265 574.501,-21.8181"/>
<polygon fill="#757575" stroke="#757575" points="575.184,-25.251 584.349,-19.9361 573.87,-18.3755 575.184,-25.251"/>
</g>
<!-- scenes/menus.js -->
<g id="node21" class="node"><title>scenes/menus.js</title>
<path fill="none" stroke="#cfffac" d="M947.833,-44C947.833,-44 839.167,-44 839.167,-44 835.333,-44 831.5,-40.1667 831.5,-36.3333 831.5,-36.3333 831.5,-28.6667 831.5,-28.6667 831.5,-24.8333 835.333,-21 839.167,-21 839.167,-21 947.833,-21 947.833,-21 951.667,-21 955.5,-24.8333 955.5,-28.6667 955.5,-28.6667 955.5,-36.3333 955.5,-36.3333 955.5,-40.1667 951.667,-44 947.833,-44"/>
<text text-anchor="middle" x="893.5" y="-28.8" font-family="Arial" font-size="14.00" fill="#cfffac">scenes/menus.js</text>
</g>
<!-- reducers/updateMenuBar.js&#45;&gt;scenes/menus.js -->
<g id="edge21" class="edge"><title>reducers/updateMenuBar.js&#45;&gt;scenes/menus.js</title>
<path fill="none" stroke="#757575" d="M745.754,-44.6529C770.848,-42.5747 797.514,-40.3663 821.135,-38.4102"/>
<polygon fill="#757575" stroke="#757575" points="821.729,-41.873 831.406,-37.5596 821.151,-34.8969 821.729,-41.873"/>
</g>
<!-- store/initialState.js&#45;&gt;scenes/menus.js -->
<g id="edge22" class="edge"><title>store/initialState.js&#45;&gt;scenes/menus.js</title>
<path fill="none" stroke="#757575" d="M715.718,-17.1276C748.259,-19.9573 787.776,-23.3935 821.188,-26.299"/>
<polygon fill="#757575" stroke="#757575" points="821.082,-29.8028 831.347,-27.1824 821.688,-22.8291 821.082,-29.8028"/>
</g>
<!-- utils.js -->
<g id="node22" class="node"><title>utils.js</title>
<path fill="none" stroke="#cfffac" d="M52.8333,-268C52.8333,-268 12.1667,-268 12.1667,-268 8.33333,-268 4.5,-264.167 4.5,-260.333 4.5,-260.333 4.5,-252.667 4.5,-252.667 4.5,-248.833 8.33333,-245 12.1667,-245 12.1667,-245 52.8333,-245 52.8333,-245 56.6667,-245 60.5,-248.833 60.5,-252.667 60.5,-252.667 60.5,-260.333 60.5,-260.333 60.5,-264.167 56.6667,-268 52.8333,-268"/>
<text text-anchor="middle" x="32.5" y="-252.8" font-family="Arial" font-size="14.00" fill="#cfffac">utils.js</text>
</g>
</g>
</svg>
