<?xml version="1.0" encoding="UTF-8" standalone="no"?>
<!DOCTYPE svg PUBLIC "-//W3C//DTD SVG 1.1//EN"
 "http://www.w3.org/Graphics/SVG/1.1/DTD/svg11.dtd">
<!-- Generated by graphviz version 2.38.0 (20140413.2041)
 -->
<!-- Title: G Pages: 1 -->
<svg width="2794pt" height="686pt"
 viewBox="0.00 0.00 2794.20 685.93" xmlns="http://www.w3.org/2000/svg" xmlns:xlink="http://www.w3.org/1999/xlink">
<g id="graph0" class="graph" transform="scale(1 1) rotate(0) translate(21.6 664.326)">
<title>G</title>
<polygon fill="#111111" stroke="none" points="-21.6,21.6 -21.6,-664.326 2772.6,-664.326 2772.6,21.6 -21.6,21.6"/>
<!-- actions/Core.js -->
<g id="node1" class="node"><title>actions/Core.js</title>
<path fill="none" stroke="#c6c5fe" d="M1797.83,-370.726C1797.83,-370.726 1702.17,-370.726 1702.17,-370.726 1698.33,-370.726 1694.5,-366.893 1694.5,-363.06 1694.5,-363.06 1694.5,-355.393 1694.5,-355.393 1694.5,-351.56 1698.33,-347.726 1702.17,-347.726 1702.17,-347.726 1797.83,-347.726 1797.83,-347.726 1801.67,-347.726 1805.5,-351.56 1805.5,-355.393 1805.5,-355.393 1805.5,-363.06 1805.5,-363.06 1805.5,-366.893 1801.67,-370.726 1797.83,-370.726"/>
<text text-anchor="middle" x="1750" y="-355.526" font-family="Arial" font-size="14.00" fill="#c6c5fe">actions/Core.js</text>
</g>
<!-- actions/coreMsg.js -->
<g id="node2" class="node"><title>actions/coreMsg.js</title>
<path fill="none" stroke="#cfffac" d="M2722.83,-332.726C2722.83,-332.726 2603.17,-332.726 2603.17,-332.726 2599.33,-332.726 2595.5,-328.893 2595.5,-325.06 2595.5,-325.06 2595.5,-317.393 2595.5,-317.393 2595.5,-313.56 2599.33,-309.726 2603.17,-309.726 2603.17,-309.726 2722.83,-309.726 2722.83,-309.726 2726.67,-309.726 2730.5,-313.56 2730.5,-317.393 2730.5,-317.393 2730.5,-325.06 2730.5,-325.06 2730.5,-328.893 2726.67,-332.726 2722.83,-332.726"/>
<text text-anchor="middle" x="2663" y="-317.526" font-family="Arial" font-size="14.00" fill="#cfffac">actions/coreMsg.js</text>
</g>
<!-- actions/Core.js&#45;&gt;actions/coreMsg.js -->
<g id="edge1" class="edge"><title>actions/Core.js&#45;&gt;actions/coreMsg.js</title>
<path fill="none" stroke="#757575" d="M1805.64,-359.226C1870.83,-359.226 1983.12,-359.226 2079.5,-359.226 2079.5,-359.226 2079.5,-359.226 2225,-359.226 2351.55,-359.226 2497.93,-343.216 2585.08,-331.979"/>
<polygon fill="#757575" stroke="#757575" points="2585.69,-335.43 2595.15,-330.668 2584.78,-328.489 2585.69,-335.43"/>
</g>
<!-- store/store.js -->
<g id="node3" class="node"><title>store/store.js</title>
<path fill="none" stroke="#c6c5fe" d="M2122.33,-233.726C2122.33,-233.726 2038.67,-233.726 2038.67,-233.726 2034.83,-233.726 2031,-229.893 2031,-226.06 2031,-226.06 2031,-218.393 2031,-218.393 2031,-214.56 2034.83,-210.726 2038.67,-210.726 2038.67,-210.726 2122.33,-210.726 2122.33,-210.726 2126.17,-210.726 2130,-214.56 2130,-218.393 2130,-218.393 2130,-226.06 2130,-226.06 2130,-229.893 2126.17,-233.726 2122.33,-233.726"/>
<text text-anchor="middle" x="2080.5" y="-218.526" font-family="Arial" font-size="14.00" fill="#c6c5fe">store/store.js</text>
</g>
<!-- actions/Core.js&#45;&gt;store/store.js -->
<g id="edge2" class="edge"><title>actions/Core.js&#45;&gt;store/store.js</title>
<path fill="none" stroke="#757575" d="M1805.51,-349.172C1856.43,-338.404 1933.61,-318.511 1995,-287.226 2019.15,-274.917 2043.33,-255.416 2059.6,-240.981"/>
<polygon fill="#757575" stroke="#757575" points="2062.28,-243.27 2067.34,-233.96 2057.58,-238.085 2062.28,-243.27"/>
</g>
<!-- reducers/root.js -->
<g id="node24" class="node"><title>reducers/root.js</title>
<path fill="none" stroke="#c6c5fe" d="M2274.33,-231.726C2274.33,-231.726 2173.67,-231.726 2173.67,-231.726 2169.83,-231.726 2166,-227.893 2166,-224.06 2166,-224.06 2166,-216.393 2166,-216.393 2166,-212.56 2169.83,-208.726 2173.67,-208.726 2173.67,-208.726 2274.33,-208.726 2274.33,-208.726 2278.17,-208.726 2282,-212.56 2282,-216.393 2282,-216.393 2282,-224.06 2282,-224.06 2282,-227.893 2278.17,-231.726 2274.33,-231.726"/>
<text text-anchor="middle" x="2224" y="-216.526" font-family="Arial" font-size="14.00" fill="#c6c5fe">reducers/root.js</text>
</g>
<!-- store/store.js&#45;&gt;reducers/root.js -->
<g id="edge55" class="edge"><title>store/store.js&#45;&gt;reducers/root.js</title>
<path fill="none" stroke="#757575" d="M2130.2,-221.538C2138.47,-221.421 2147.19,-221.298 2155.84,-221.176"/>
<polygon fill="#757575" stroke="#757575" points="2155.98,-224.674 2165.93,-221.033 2155.88,-217.675 2155.98,-224.674"/>
</g>
<!-- actions/Engine.js -->
<g id="node4" class="node"><title>actions/Engine.js</title>
<path fill="none" stroke="#c6c5fe" d="M951.833,-533.726C951.833,-533.726 843.167,-533.726 843.167,-533.726 839.333,-533.726 835.5,-529.893 835.5,-526.06 835.5,-526.06 835.5,-518.393 835.5,-518.393 835.5,-514.56 839.333,-510.726 843.167,-510.726 843.167,-510.726 951.833,-510.726 951.833,-510.726 955.667,-510.726 959.5,-514.56 959.5,-518.393 959.5,-518.393 959.5,-526.06 959.5,-526.06 959.5,-529.893 955.667,-533.726 951.833,-533.726"/>
<text text-anchor="middle" x="897.5" y="-518.526" font-family="Arial" font-size="14.00" fill="#c6c5fe">actions/Engine.js</text>
</g>
<!-- scenes/sceneFunctions.js -->
<g id="node5" class="node"><title>scenes/sceneFunctions.js</title>
<path fill="none" stroke="#c6c5fe" d="M1201.33,-465.726C1201.33,-465.726 1034.67,-465.726 1034.67,-465.726 1030.83,-465.726 1027,-461.893 1027,-458.06 1027,-458.06 1027,-450.393 1027,-450.393 1027,-446.56 1030.83,-442.726 1034.67,-442.726 1034.67,-442.726 1201.33,-442.726 1201.33,-442.726 1205.17,-442.726 1209,-446.56 1209,-450.393 1209,-450.393 1209,-458.06 1209,-458.06 1209,-461.893 1205.17,-465.726 1201.33,-465.726"/>
<text text-anchor="middle" x="1118" y="-450.526" font-family="Arial" font-size="14.00" fill="#c6c5fe">scenes/sceneFunctions.js</text>
</g>
<!-- actions/Engine.js&#45;&gt;scenes/sceneFunctions.js -->
<g id="edge3" class="edge"><title>actions/Engine.js&#45;&gt;scenes/sceneFunctions.js</title>
<path fill="none" stroke="#757575" d="M935.566,-510.691C972.684,-499.139 1029.93,-481.325 1070.17,-468.802"/>
<polygon fill="#757575" stroke="#757575" points="1071.24,-472.132 1079.75,-465.818 1069.16,-465.448 1071.24,-472.132"/>
</g>
<!-- scenes/sceneSymbols.js -->
<g id="node6" class="node"><title>scenes/sceneSymbols.js</title>
<path fill="none" stroke="#cfffac" d="M2743.33,-507.726C2743.33,-507.726 2582.67,-507.726 2582.67,-507.726 2578.83,-507.726 2575,-503.893 2575,-500.06 2575,-500.06 2575,-492.393 2575,-492.393 2575,-488.56 2578.83,-484.726 2582.67,-484.726 2582.67,-484.726 2743.33,-484.726 2743.33,-484.726 2747.17,-484.726 2751,-488.56 2751,-492.393 2751,-492.393 2751,-500.06 2751,-500.06 2751,-503.893 2747.17,-507.726 2743.33,-507.726"/>
<text text-anchor="middle" x="2663" y="-492.526" font-family="Arial" font-size="14.00" fill="#cfffac">scenes/sceneSymbols.js</text>
</g>
<!-- actions/Engine.js&#45;&gt;scenes/sceneSymbols.js -->
<g id="edge4" class="edge"><title>actions/Engine.js&#45;&gt;scenes/sceneSymbols.js</title>
<path fill="none" stroke="#757575" d="M941.062,-533.775C1017.31,-553.418 1182.52,-591.226 1324.5,-591.226 1324.5,-591.226 1324.5,-591.226 2225,-591.226 2365.74,-591.226 2403.43,-588.005 2539,-550.226 2571.72,-541.108 2607.03,-524.883 2631.39,-512.591"/>
<polygon fill="#757575" stroke="#757575" points="2633.17,-515.608 2640.47,-507.93 2629.98,-509.379 2633.17,-515.608"/>
</g>
<!-- scenes/sceneFunctions.js&#45;&gt;actions/Core.js -->
<g id="edge46" class="edge"><title>scenes/sceneFunctions.js&#45;&gt;actions/Core.js</title>
<path fill="none" stroke="#757575" d="M1137.34,-442.502C1161.13,-427.946 1204.4,-403.647 1245,-392.226 1397.91,-349.215 1586.78,-350.551 1684.15,-355.009"/>
<polygon fill="#757575" stroke="#757575" points="1684.27,-358.519 1694.43,-355.507 1684.61,-351.527 1684.27,-358.519"/>
</g>
<!-- scenes/sceneFunctions.js&#45;&gt;store/store.js -->
<g id="edge51" class="edge"><title>scenes/sceneFunctions.js&#45;&gt;store/store.js</title>
<path fill="none" stroke="#757575" d="M1128.78,-442.457C1171.16,-392.833 1345.31,-203.226 1532,-203.226 1532,-203.226 1532,-203.226 1751,-203.226 1845.49,-203.226 1955.01,-211.158 2020.69,-216.772"/>
<polygon fill="#757575" stroke="#757575" points="2020.59,-220.275 2030.85,-217.651 2021.19,-213.301 2020.59,-220.275"/>
</g>
<!-- scenes/sceneFunctions.js&#45;&gt;scenes/sceneSymbols.js -->
<g id="edge49" class="edge"><title>scenes/sceneFunctions.js&#45;&gt;scenes/sceneSymbols.js</title>
<path fill="none" stroke="#757575" d="M1146.98,-465.777C1212.87,-491.892 1383.43,-553.226 1532,-553.226 1532,-553.226 1532,-553.226 2225,-553.226 2365.19,-553.226 2400.5,-544.962 2539,-523.226 2560.99,-519.775 2584.95,-514.796 2605.84,-510.053"/>
<polygon fill="#757575" stroke="#757575" points="2606.86,-513.408 2615.82,-507.75 2605.29,-506.588 2606.86,-513.408"/>
</g>
<!-- scenes/charCreation.js -->
<g id="node31" class="node"><title>scenes/charCreation.js</title>
<path fill="none" stroke="#c6c5fe" d="M1398.33,-465.726C1398.33,-465.726 1252.67,-465.726 1252.67,-465.726 1248.83,-465.726 1245,-461.893 1245,-458.06 1245,-458.06 1245,-450.393 1245,-450.393 1245,-446.56 1248.83,-442.726 1252.67,-442.726 1252.67,-442.726 1398.33,-442.726 1398.33,-442.726 1402.17,-442.726 1406,-446.56 1406,-450.393 1406,-450.393 1406,-458.06 1406,-458.06 1406,-461.893 1402.17,-465.726 1398.33,-465.726"/>
<text text-anchor="middle" x="1325.5" y="-450.526" font-family="Arial" font-size="14.00" fill="#c6c5fe">scenes/charCreation.js</text>
</g>
<!-- scenes/sceneFunctions.js&#45;&gt;scenes/charCreation.js -->
<g id="edge47" class="edge"><title>scenes/sceneFunctions.js&#45;&gt;scenes/charCreation.js</title>
<path fill="none" stroke="#757575" d="M1209.14,-454.226C1217.57,-454.226 1226.12,-454.226 1234.55,-454.226"/>
<polygon fill="#757575" stroke="#757575" points="1234.76,-457.726 1244.76,-454.226 1234.76,-450.726 1234.76,-457.726"/>
</g>
<!-- scenes/menus.js -->
<g id="node32" class="node"><title>scenes/menus.js</title>
<path fill="none" stroke="#c6c5fe" d="M1587.33,-524.726C1587.33,-524.726 1478.67,-524.726 1478.67,-524.726 1474.83,-524.726 1471,-520.893 1471,-517.06 1471,-517.06 1471,-509.393 1471,-509.393 1471,-505.56 1474.83,-501.726 1478.67,-501.726 1478.67,-501.726 1587.33,-501.726 1587.33,-501.726 1591.17,-501.726 1595,-505.56 1595,-509.393 1595,-509.393 1595,-517.06 1595,-517.06 1595,-520.893 1591.17,-524.726 1587.33,-524.726"/>
<text text-anchor="middle" x="1533" y="-509.526" font-family="Arial" font-size="14.00" fill="#c6c5fe">scenes/menus.js</text>
</g>
<!-- scenes/sceneFunctions.js&#45;&gt;scenes/menus.js -->
<g id="edge48" class="edge"><title>scenes/sceneFunctions.js&#45;&gt;scenes/menus.js</title>
<path fill="none" stroke="#757575" d="M1185.63,-465.76C1204.78,-468.958 1225.7,-472.341 1245,-475.226 1318.39,-486.197 1402.58,-497.153 1460.71,-504.461"/>
<polygon fill="#757575" stroke="#757575" points="1460.53,-507.967 1470.89,-505.738 1461.4,-501.021 1460.53,-507.967"/>
</g>
<!-- scenes/tests/testing.js -->
<g id="node34" class="node"><title>scenes/tests/testing.js</title>
<path fill="none" stroke="#cfffac" d="M1396.83,-424.726C1396.83,-424.726 1254.17,-424.726 1254.17,-424.726 1250.33,-424.726 1246.5,-420.893 1246.5,-417.06 1246.5,-417.06 1246.5,-409.393 1246.5,-409.393 1246.5,-405.56 1250.33,-401.726 1254.17,-401.726 1254.17,-401.726 1396.83,-401.726 1396.83,-401.726 1400.67,-401.726 1404.5,-405.56 1404.5,-409.393 1404.5,-409.393 1404.5,-417.06 1404.5,-417.06 1404.5,-420.893 1400.67,-424.726 1396.83,-424.726"/>
<text text-anchor="middle" x="1325.5" y="-409.526" font-family="Arial" font-size="14.00" fill="#cfffac">scenes/tests/testing.js</text>
</g>
<!-- scenes/sceneFunctions.js&#45;&gt;scenes/tests/testing.js -->
<g id="edge50" class="edge"><title>scenes/sceneFunctions.js&#45;&gt;scenes/tests/testing.js</title>
<path fill="none" stroke="#757575" d="M1176.79,-442.697C1201.63,-437.741 1230.83,-431.914 1256.69,-426.756"/>
<polygon fill="#757575" stroke="#757575" points="1257.67,-430.13 1266.79,-424.741 1256.3,-423.265 1257.67,-430.13"/>
</g>
<!-- actions/Player.js -->
<g id="node7" class="node"><title>actions/Player.js</title>
<path fill="none" stroke="#c6c5fe" d="M1987.33,-254.726C1987.33,-254.726 1883.67,-254.726 1883.67,-254.726 1879.83,-254.726 1876,-250.893 1876,-247.06 1876,-247.06 1876,-239.393 1876,-239.393 1876,-235.56 1879.83,-231.726 1883.67,-231.726 1883.67,-231.726 1987.33,-231.726 1987.33,-231.726 1991.17,-231.726 1995,-235.56 1995,-239.393 1995,-239.393 1995,-247.06 1995,-247.06 1995,-250.893 1991.17,-254.726 1987.33,-254.726"/>
<text text-anchor="middle" x="1935.5" y="-239.526" font-family="Arial" font-size="14.00" fill="#c6c5fe">actions/Player.js</text>
</g>
<!-- actions/Player.js&#45;&gt;store/store.js -->
<g id="edge6" class="edge"><title>actions/Player.js&#45;&gt;store/store.js</title>
<path fill="none" stroke="#757575" d="M1995.08,-234.624C2003.52,-233.384 2012.21,-232.108 2020.66,-230.867"/>
<polygon fill="#757575" stroke="#757575" points="2021.43,-234.292 2030.82,-229.376 2020.41,-227.366 2021.43,-234.292"/>
</g>
<!-- actions/playerMsg.js -->
<g id="node8" class="node"><title>actions/playerMsg.js</title>
<path fill="none" stroke="#cfffac" d="M2727.83,-49.7264C2727.83,-49.7264 2598.17,-49.7264 2598.17,-49.7264 2594.33,-49.7264 2590.5,-45.8931 2590.5,-42.0597 2590.5,-42.0597 2590.5,-34.3931 2590.5,-34.3931 2590.5,-30.5597 2594.33,-26.7264 2598.17,-26.7264 2598.17,-26.7264 2727.83,-26.7264 2727.83,-26.7264 2731.67,-26.7264 2735.5,-30.5597 2735.5,-34.3931 2735.5,-34.3931 2735.5,-42.0597 2735.5,-42.0597 2735.5,-45.8931 2731.67,-49.7264 2727.83,-49.7264"/>
<text text-anchor="middle" x="2663" y="-34.5264" font-family="Arial" font-size="14.00" fill="#cfffac">actions/playerMsg.js</text>
</g>
<!-- actions/Player.js&#45;&gt;actions/playerMsg.js -->
<g id="edge5" class="edge"><title>actions/Player.js&#45;&gt;actions/playerMsg.js</title>
<path fill="none" stroke="#757575" d="M1949.75,-231.464C1996.16,-191.178 2157.2,-58.7817 2318,-14.2264 2419.11,13.7899 2543,-7.8005 2611.1,-24.2077"/>
<polygon fill="#757575" stroke="#757575" points="2610.58,-27.6863 2621.13,-26.6861 2612.26,-20.8905 2610.58,-27.6863"/>
</g>
<!-- actions/engineMsg.js -->
<g id="node9" class="node"><title>actions/engineMsg.js</title>
<path fill="none" stroke="#cfffac" d="M2495.33,-292.726C2495.33,-292.726 2361.67,-292.726 2361.67,-292.726 2357.83,-292.726 2354,-288.893 2354,-285.06 2354,-285.06 2354,-277.393 2354,-277.393 2354,-273.56 2357.83,-269.726 2361.67,-269.726 2361.67,-269.726 2495.33,-269.726 2495.33,-269.726 2499.17,-269.726 2503,-273.56 2503,-277.393 2503,-277.393 2503,-285.06 2503,-285.06 2503,-288.893 2499.17,-292.726 2495.33,-292.726"/>
<text text-anchor="middle" x="2428.5" y="-277.526" font-family="Arial" font-size="14.00" fill="#cfffac">actions/engineMsg.js</text>
</g>
<!-- components/appRoot.js -->
<g id="node10" class="node"><title>components/appRoot.js</title>
<path fill="none" stroke="#c6c5fe" d="M298.333,-451.726C298.333,-451.726 145.667,-451.726 145.667,-451.726 141.833,-451.726 138,-447.893 138,-444.06 138,-444.06 138,-436.393 138,-436.393 138,-432.56 141.833,-428.726 145.667,-428.726 145.667,-428.726 298.333,-428.726 298.333,-428.726 302.167,-428.726 306,-432.56 306,-436.393 306,-436.393 306,-444.06 306,-444.06 306,-447.893 302.167,-451.726 298.333,-451.726"/>
<text text-anchor="middle" x="222" y="-436.526" font-family="Arial" font-size="14.00" fill="#c6c5fe">components/appRoot.js</text>
</g>
<!-- components/lowerButtons.js -->
<g id="node11" class="node"><title>components/lowerButtons.js</title>
<path fill="none" stroke="#c6c5fe" d="M529.333,-533.726C529.333,-533.726 349.667,-533.726 349.667,-533.726 345.833,-533.726 342,-529.893 342,-526.06 342,-526.06 342,-518.393 342,-518.393 342,-514.56 345.833,-510.726 349.667,-510.726 349.667,-510.726 529.333,-510.726 529.333,-510.726 533.167,-510.726 537,-514.56 537,-518.393 537,-518.393 537,-526.06 537,-526.06 537,-529.893 533.167,-533.726 529.333,-533.726"/>
<text text-anchor="middle" x="439.5" y="-518.526" font-family="Arial" font-size="14.00" fill="#c6c5fe">components/lowerButtons.js</text>
</g>
<!-- components/appRoot.js&#45;&gt;components/lowerButtons.js -->
<g id="edge7" class="edge"><title>components/appRoot.js&#45;&gt;components/lowerButtons.js</title>
<path fill="none" stroke="#757575" d="M241.235,-451.77C263.986,-465.683 304.476,-488.854 342,-502.226 348.029,-504.375 354.356,-506.322 360.766,-508.082"/>
<polygon fill="#757575" stroke="#757575" points="360.317,-511.581 370.875,-510.694 362.069,-504.804 360.317,-511.581"/>
</g>
<!-- components/menuBar.js -->
<g id="node12" class="node"><title>components/menuBar.js</title>
<path fill="none" stroke="#c6c5fe" d="M516.833,-451.726C516.833,-451.726 362.167,-451.726 362.167,-451.726 358.333,-451.726 354.5,-447.893 354.5,-444.06 354.5,-444.06 354.5,-436.393 354.5,-436.393 354.5,-432.56 358.333,-428.726 362.167,-428.726 362.167,-428.726 516.833,-428.726 516.833,-428.726 520.667,-428.726 524.5,-432.56 524.5,-436.393 524.5,-436.393 524.5,-444.06 524.5,-444.06 524.5,-447.893 520.667,-451.726 516.833,-451.726"/>
<text text-anchor="middle" x="439.5" y="-436.526" font-family="Arial" font-size="14.00" fill="#c6c5fe">components/menuBar.js</text>
</g>
<!-- components/appRoot.js&#45;&gt;components/menuBar.js -->
<g id="edge8" class="edge"><title>components/appRoot.js&#45;&gt;components/menuBar.js</title>
<path fill="none" stroke="#757575" d="M306.01,-440.226C318.546,-440.226 331.556,-440.226 344.307,-440.226"/>
<polygon fill="#757575" stroke="#757575" points="344.465,-443.726 354.465,-440.226 344.465,-436.726 344.465,-443.726"/>
</g>
<!-- components/output.js -->
<g id="node13" class="node"><title>components/output.js</title>
<path fill="none" stroke="#cfffac" d="M507.833,-492.726C507.833,-492.726 371.167,-492.726 371.167,-492.726 367.333,-492.726 363.5,-488.893 363.5,-485.06 363.5,-485.06 363.5,-477.393 363.5,-477.393 363.5,-473.56 367.333,-469.726 371.167,-469.726 371.167,-469.726 507.833,-469.726 507.833,-469.726 511.667,-469.726 515.5,-473.56 515.5,-477.393 515.5,-477.393 515.5,-485.06 515.5,-485.06 515.5,-488.893 511.667,-492.726 507.833,-492.726"/>
<text text-anchor="middle" x="439.5" y="-477.526" font-family="Arial" font-size="14.00" fill="#cfffac">components/output.js</text>
</g>
<!-- components/appRoot.js&#45;&gt;components/output.js -->
<g id="edge9" class="edge"><title>components/appRoot.js&#45;&gt;components/output.js</title>
<path fill="none" stroke="#757575" d="M283.602,-451.756C309.88,-456.756 340.817,-462.642 368.106,-467.834"/>
<polygon fill="#757575" stroke="#757575" points="367.502,-471.281 377.98,-469.712 368.81,-464.405 367.502,-471.281"/>
</g>
<!-- components/statBar.js -->
<g id="node14" class="node"><title>components/statBar.js</title>
<path fill="none" stroke="#c6c5fe" d="M510.833,-410.726C510.833,-410.726 368.167,-410.726 368.167,-410.726 364.333,-410.726 360.5,-406.893 360.5,-403.06 360.5,-403.06 360.5,-395.393 360.5,-395.393 360.5,-391.56 364.333,-387.726 368.167,-387.726 368.167,-387.726 510.833,-387.726 510.833,-387.726 514.667,-387.726 518.5,-391.56 518.5,-395.393 518.5,-395.393 518.5,-403.06 518.5,-403.06 518.5,-406.893 514.667,-410.726 510.833,-410.726"/>
<text text-anchor="middle" x="439.5" y="-395.526" font-family="Arial" font-size="14.00" fill="#c6c5fe">components/statBar.js</text>
</g>
<!-- components/appRoot.js&#45;&gt;components/statBar.js -->
<g id="edge10" class="edge"><title>components/appRoot.js&#45;&gt;components/statBar.js</title>
<path fill="none" stroke="#757575" d="M283.602,-428.697C309.88,-423.697 340.817,-417.811 368.106,-412.619"/>
<polygon fill="#757575" stroke="#757575" points="368.81,-416.048 377.98,-410.741 367.502,-409.172 368.81,-416.048"/>
</g>
<!-- components/buttonGrid.js -->
<g id="node16" class="node"><title>components/buttonGrid.js</title>
<path fill="none" stroke="#c6c5fe" d="M752.333,-533.726C752.333,-533.726 588.667,-533.726 588.667,-533.726 584.833,-533.726 581,-529.893 581,-526.06 581,-526.06 581,-518.393 581,-518.393 581,-514.56 584.833,-510.726 588.667,-510.726 588.667,-510.726 752.333,-510.726 752.333,-510.726 756.167,-510.726 760,-514.56 760,-518.393 760,-518.393 760,-526.06 760,-526.06 760,-529.893 756.167,-533.726 752.333,-533.726"/>
<text text-anchor="middle" x="670.5" y="-518.526" font-family="Arial" font-size="14.00" fill="#c6c5fe">components/buttonGrid.js</text>
</g>
<!-- components/lowerButtons.js&#45;&gt;components/buttonGrid.js -->
<g id="edge14" class="edge"><title>components/lowerButtons.js&#45;&gt;components/buttonGrid.js</title>
<path fill="none" stroke="#757575" d="M537.285,-522.226C548.313,-522.226 559.566,-522.226 570.621,-522.226"/>
<polygon fill="#757575" stroke="#757575" points="570.705,-525.726 580.705,-522.226 570.705,-518.726 570.705,-525.726"/>
</g>
<!-- components/menuBar.js&#45;&gt;components/buttonGrid.js -->
<g id="edge15" class="edge"><title>components/menuBar.js&#45;&gt;components/buttonGrid.js</title>
<path fill="none" stroke="#757575" d="M503.074,-451.765C514.481,-454.454 526.187,-457.609 537,-461.226 573.147,-473.32 612.592,-492.28 638.962,-505.851"/>
<polygon fill="#757575" stroke="#757575" points="637.569,-509.072 648.055,-510.584 640.801,-502.862 637.569,-509.072"/>
</g>
<!-- components/spriteDisplay.js -->
<g id="node19" class="node"><title>components/spriteDisplay.js</title>
<path fill="none" stroke="#cfffac" d="M760.333,-369.726C760.333,-369.726 580.667,-369.726 580.667,-369.726 576.833,-369.726 573,-365.893 573,-362.06 573,-362.06 573,-354.393 573,-354.393 573,-350.56 576.833,-346.726 580.667,-346.726 580.667,-346.726 760.333,-346.726 760.333,-346.726 764.167,-346.726 768,-350.56 768,-354.393 768,-354.393 768,-362.06 768,-362.06 768,-365.893 764.167,-369.726 760.333,-369.726"/>
<text text-anchor="middle" x="670.5" y="-354.526" font-family="Arial" font-size="14.00" fill="#cfffac">components/spriteDisplay.js</text>
</g>
<!-- components/statBar.js&#45;&gt;components/spriteDisplay.js -->
<g id="edge18" class="edge"><title>components/statBar.js&#45;&gt;components/spriteDisplay.js</title>
<path fill="none" stroke="#757575" d="M504.899,-387.697C532.945,-382.675 565.986,-376.759 595.078,-371.551"/>
<polygon fill="#757575" stroke="#757575" points="595.962,-374.948 605.188,-369.741 594.728,-368.058 595.962,-374.948"/>
</g>
<!-- components/statDisplay.js -->
<g id="node21" class="node"><title>components/statDisplay.js</title>
<path fill="none" stroke="#c6c5fe" d="M753.833,-451.726C753.833,-451.726 587.167,-451.726 587.167,-451.726 583.333,-451.726 579.5,-447.893 579.5,-444.06 579.5,-444.06 579.5,-436.393 579.5,-436.393 579.5,-432.56 583.333,-428.726 587.167,-428.726 587.167,-428.726 753.833,-428.726 753.833,-428.726 757.667,-428.726 761.5,-432.56 761.5,-436.393 761.5,-436.393 761.5,-444.06 761.5,-444.06 761.5,-447.893 757.667,-451.726 753.833,-451.726"/>
<text text-anchor="middle" x="670.5" y="-436.526" font-family="Arial" font-size="14.00" fill="#c6c5fe">components/statDisplay.js</text>
</g>
<!-- components/statBar.js&#45;&gt;components/statDisplay.js -->
<g id="edge19" class="edge"><title>components/statBar.js&#45;&gt;components/statDisplay.js</title>
<path fill="none" stroke="#757575" d="M504.899,-410.756C532.945,-415.778 565.986,-421.693 595.078,-426.902"/>
<polygon fill="#757575" stroke="#757575" points="594.728,-430.395 605.188,-428.712 595.962,-423.504 594.728,-430.395"/>
</g>
<!-- components/timeDisplay.js -->
<g id="node22" class="node"><title>components/timeDisplay.js</title>
<path fill="none" stroke="#cfffac" d="M756.333,-410.726C756.333,-410.726 584.667,-410.726 584.667,-410.726 580.833,-410.726 577,-406.893 577,-403.06 577,-403.06 577,-395.393 577,-395.393 577,-391.56 580.833,-387.726 584.667,-387.726 584.667,-387.726 756.333,-387.726 756.333,-387.726 760.167,-387.726 764,-391.56 764,-395.393 764,-395.393 764,-403.06 764,-403.06 764,-406.893 760.167,-410.726 756.333,-410.726"/>
<text text-anchor="middle" x="670.5" y="-395.526" font-family="Arial" font-size="14.00" fill="#cfffac">components/timeDisplay.js</text>
</g>
<!-- components/statBar.js&#45;&gt;components/timeDisplay.js -->
<g id="edge20" class="edge"><title>components/statBar.js&#45;&gt;components/timeDisplay.js</title>
<path fill="none" stroke="#757575" d="M518.668,-399.226C533.974,-399.226 550.245,-399.226 566.223,-399.226"/>
<polygon fill="#757575" stroke="#757575" points="566.666,-402.726 576.666,-399.226 566.666,-395.726 566.666,-402.726"/>
</g>
<!-- components/button.js -->
<g id="node15" class="node"><title>components/button.js</title>
<path fill="none" stroke="#cfffac" d="M1186.33,-642.726C1186.33,-642.726 1049.67,-642.726 1049.67,-642.726 1045.83,-642.726 1042,-638.893 1042,-635.06 1042,-635.06 1042,-627.393 1042,-627.393 1042,-623.56 1045.83,-619.726 1049.67,-619.726 1049.67,-619.726 1186.33,-619.726 1186.33,-619.726 1190.17,-619.726 1194,-623.56 1194,-627.393 1194,-627.393 1194,-635.06 1194,-635.06 1194,-638.893 1190.17,-642.726 1186.33,-642.726"/>
<text text-anchor="middle" x="1118" y="-627.526" font-family="Arial" font-size="14.00" fill="#cfffac">components/button.js</text>
</g>
<!-- components/buttonGrid.js&#45;&gt;actions/Engine.js -->
<g id="edge11" class="edge"><title>components/buttonGrid.js&#45;&gt;actions/Engine.js</title>
<path fill="none" stroke="#757575" d="M760.103,-522.226C781.669,-522.226 804.464,-522.226 825.115,-522.226"/>
<polygon fill="#757575" stroke="#757575" points="825.383,-525.726 835.383,-522.226 825.383,-518.726 825.383,-525.726"/>
</g>
<!-- components/buttonWrap.js -->
<g id="node17" class="node"><title>components/buttonWrap.js</title>
<path fill="none" stroke="#c6c5fe" d="M983.333,-608.726C983.333,-608.726 811.667,-608.726 811.667,-608.726 807.833,-608.726 804,-604.893 804,-601.06 804,-601.06 804,-593.393 804,-593.393 804,-589.56 807.833,-585.726 811.667,-585.726 811.667,-585.726 983.333,-585.726 983.333,-585.726 987.167,-585.726 991,-589.56 991,-593.393 991,-593.393 991,-601.06 991,-601.06 991,-604.893 987.167,-608.726 983.333,-608.726"/>
<text text-anchor="middle" x="897.5" y="-593.526" font-family="Arial" font-size="14.00" fill="#c6c5fe">components/buttonWrap.js</text>
</g>
<!-- components/buttonGrid.js&#45;&gt;components/buttonWrap.js -->
<g id="edge12" class="edge"><title>components/buttonGrid.js&#45;&gt;components/buttonWrap.js</title>
<path fill="none" stroke="#757575" d="M706.163,-533.781C745.389,-546.856 809.379,-568.186 852.198,-582.459"/>
<polygon fill="#757575" stroke="#757575" points="851.204,-585.817 861.797,-585.659 853.417,-579.176 851.204,-585.817"/>
</g>
<!-- components/buttonWrap.js&#45;&gt;components/button.js -->
<g id="edge13" class="edge"><title>components/buttonWrap.js&#45;&gt;components/button.js</title>
<path fill="none" stroke="#757575" d="M972.474,-608.737C991.856,-611.753 1012.9,-615.027 1032.77,-618.12"/>
<polygon fill="#757575" stroke="#757575" points="1032.31,-621.59 1042.73,-619.67 1033.39,-614.674 1032.31,-621.59"/>
</g>
<!-- components/nameInput.js -->
<g id="node18" class="node"><title>components/nameInput.js</title>
<path fill="none" stroke="#c6c5fe" d="M1832.33,-294.726C1832.33,-294.726 1667.67,-294.726 1667.67,-294.726 1663.83,-294.726 1660,-290.893 1660,-287.06 1660,-287.06 1660,-279.393 1660,-279.393 1660,-275.56 1663.83,-271.726 1667.67,-271.726 1667.67,-271.726 1832.33,-271.726 1832.33,-271.726 1836.17,-271.726 1840,-275.56 1840,-279.393 1840,-279.393 1840,-287.06 1840,-287.06 1840,-290.893 1836.17,-294.726 1832.33,-294.726"/>
<text text-anchor="middle" x="1750" y="-279.526" font-family="Arial" font-size="14.00" fill="#c6c5fe">components/nameInput.js</text>
</g>
<!-- components/nameInput.js&#45;&gt;store/store.js -->
<g id="edge17" class="edge"><title>components/nameInput.js&#45;&gt;store/store.js</title>
<path fill="none" stroke="#757575" d="M1840.17,-283.77C1886.98,-282.1 1944.88,-276.924 1995,-263.226 2014.99,-257.765 2035.95,-247.624 2052,-238.795"/>
<polygon fill="#757575" stroke="#757575" points="2053.85,-241.766 2060.83,-233.793 2050.4,-235.674 2053.85,-241.766"/>
</g>
<!-- components/nameInput.js&#45;&gt;actions/Player.js -->
<g id="edge16" class="edge"><title>components/nameInput.js&#45;&gt;actions/Player.js</title>
<path fill="none" stroke="#757575" d="M1804.08,-271.657C1825.19,-267.055 1849.64,-261.724 1871.63,-256.93"/>
<polygon fill="#757575" stroke="#757575" points="1872.52,-260.32 1881.54,-254.77 1871.03,-253.48 1872.52,-260.32"/>
</g>
<!-- components/stat.js -->
<g id="node20" class="node"><title>components/stat.js</title>
<path fill="none" stroke="#cfffac" d="M957.833,-451.726C957.833,-451.726 837.167,-451.726 837.167,-451.726 833.333,-451.726 829.5,-447.893 829.5,-444.06 829.5,-444.06 829.5,-436.393 829.5,-436.393 829.5,-432.56 833.333,-428.726 837.167,-428.726 837.167,-428.726 957.833,-428.726 957.833,-428.726 961.667,-428.726 965.5,-432.56 965.5,-436.393 965.5,-436.393 965.5,-444.06 965.5,-444.06 965.5,-447.893 961.667,-451.726 957.833,-451.726"/>
<text text-anchor="middle" x="897.5" y="-436.526" font-family="Arial" font-size="14.00" fill="#cfffac">components/stat.js</text>
</g>
<!-- components/statDisplay.js&#45;&gt;components/stat.js -->
<g id="edge21" class="edge"><title>components/statDisplay.js&#45;&gt;components/stat.js</title>
<path fill="none" stroke="#757575" d="M761.72,-440.226C780.804,-440.226 800.779,-440.226 819.327,-440.226"/>
<polygon fill="#757575" stroke="#757575" points="819.471,-443.726 829.471,-440.226 819.471,-436.726 819.471,-443.726"/>
</g>
<!-- index.js -->
<g id="node23" class="node"><title>index.js</title>
<path fill="none" stroke="#c6c5fe" d="M75.8333,-313.726C75.8333,-313.726 26.1667,-313.726 26.1667,-313.726 22.3333,-313.726 18.5,-309.893 18.5,-306.06 18.5,-306.06 18.5,-298.393 18.5,-298.393 18.5,-294.56 22.3333,-290.726 26.1667,-290.726 26.1667,-290.726 75.8333,-290.726 75.8333,-290.726 79.6667,-290.726 83.5,-294.56 83.5,-298.393 83.5,-298.393 83.5,-306.06 83.5,-306.06 83.5,-309.893 79.6667,-313.726 75.8333,-313.726"/>
<text text-anchor="middle" x="51" y="-298.526" font-family="Arial" font-size="14.00" fill="#c6c5fe">index.js</text>
</g>
<!-- index.js&#45;&gt;store/store.js -->
<g id="edge23" class="edge"><title>index.js&#45;&gt;store/store.js</title>
<path fill="none" stroke="#757575" d="M70.4716,-290.546C124.692,-257.415 288.998,-165.226 438.5,-165.226 438.5,-165.226 438.5,-165.226 1751,-165.226 1851,-165.226 1965.63,-191.184 2029.61,-208.066"/>
<polygon fill="#757575" stroke="#757575" points="2028.87,-211.49 2039.43,-210.692 2030.67,-204.728 2028.87,-211.49"/>
</g>
<!-- index.js&#45;&gt;components/appRoot.js -->
<g id="edge22" class="edge"><title>index.js&#45;&gt;components/appRoot.js</title>
<path fill="none" stroke="#757575" d="M83.638,-312.646C89.9554,-315.335 96.3725,-318.533 102,-322.226 144.613,-350.197 184.634,-395.148 205.653,-420.739"/>
<polygon fill="#757575" stroke="#757575" points="203.019,-423.048 212.029,-428.623 208.462,-418.646 203.019,-423.048"/>
</g>
<!-- reducers/root.js&#45;&gt;actions/coreMsg.js -->
<g id="edge24" class="edge"><title>reducers/root.js&#45;&gt;actions/coreMsg.js</title>
<path fill="none" stroke="#757575" d="M2234.03,-232.01C2249.09,-250.627 2281.32,-286.266 2318,-301.226 2404.32,-336.438 2513.02,-336.191 2584.87,-330.608"/>
<polygon fill="#757575" stroke="#757575" points="2585.52,-334.066 2595.19,-329.749 2584.94,-327.09 2585.52,-334.066"/>
</g>
<!-- reducers/root.js&#45;&gt;actions/playerMsg.js -->
<g id="edge26" class="edge"><title>reducers/root.js&#45;&gt;actions/playerMsg.js</title>
<path fill="none" stroke="#757575" d="M2227.61,-208.495C2235.23,-177.377 2260.64,-92.6925 2318,-57.2264 2404.12,-3.97816 2526.77,-12.8454 2599.98,-24.9616"/>
<polygon fill="#757575" stroke="#757575" points="2599.52,-28.4344 2609.97,-26.6867 2600.71,-21.5364 2599.52,-28.4344"/>
</g>
<!-- reducers/root.js&#45;&gt;actions/engineMsg.js -->
<g id="edge25" class="edge"><title>reducers/root.js&#45;&gt;actions/engineMsg.js</title>
<path fill="none" stroke="#757575" d="M2248.17,-231.865C2266.67,-240.745 2293.47,-252.696 2318,-260.226 2326.86,-262.946 2336.23,-265.382 2345.62,-267.547"/>
<polygon fill="#757575" stroke="#757575" points="2344.87,-270.965 2355.39,-269.704 2346.38,-264.13 2344.87,-270.965"/>
</g>
<!-- reducers/updateLowerButtons.js -->
<g id="node25" class="node"><title>reducers/updateLowerButtons.js</title>
<path fill="none" stroke="#c6c5fe" d="M2531.33,-251.726C2531.33,-251.726 2325.67,-251.726 2325.67,-251.726 2321.83,-251.726 2318,-247.893 2318,-244.06 2318,-244.06 2318,-236.393 2318,-236.393 2318,-232.56 2321.83,-228.726 2325.67,-228.726 2325.67,-228.726 2531.33,-228.726 2531.33,-228.726 2535.17,-228.726 2539,-232.56 2539,-236.393 2539,-236.393 2539,-244.06 2539,-244.06 2539,-247.893 2535.17,-251.726 2531.33,-251.726"/>
<text text-anchor="middle" x="2428.5" y="-236.526" font-family="Arial" font-size="14.00" fill="#c6c5fe">reducers/updateLowerButtons.js</text>
</g>
<!-- reducers/root.js&#45;&gt;reducers/updateLowerButtons.js -->
<g id="edge27" class="edge"><title>reducers/root.js&#45;&gt;reducers/updateLowerButtons.js</title>
<path fill="none" stroke="#757575" d="M2282.22,-225.877C2290.37,-226.683 2299.01,-227.536 2307.83,-228.407"/>
<polygon fill="#757575" stroke="#757575" points="2307.56,-231.898 2317.86,-229.398 2308.25,-224.932 2307.56,-231.898"/>
</g>
<!-- reducers/updateMenuBar.js -->
<g id="node26" class="node"><title>reducers/updateMenuBar.js</title>
<path fill="none" stroke="#c6c5fe" d="M2516.33,-210.726C2516.33,-210.726 2340.67,-210.726 2340.67,-210.726 2336.83,-210.726 2333,-206.893 2333,-203.06 2333,-203.06 2333,-195.393 2333,-195.393 2333,-191.56 2336.83,-187.726 2340.67,-187.726 2340.67,-187.726 2516.33,-187.726 2516.33,-187.726 2520.17,-187.726 2524,-191.56 2524,-195.393 2524,-195.393 2524,-203.06 2524,-203.06 2524,-206.893 2520.17,-210.726 2516.33,-210.726"/>
<text text-anchor="middle" x="2428.5" y="-195.526" font-family="Arial" font-size="14.00" fill="#c6c5fe">reducers/updateMenuBar.js</text>
</g>
<!-- reducers/root.js&#45;&gt;reducers/updateMenuBar.js -->
<g id="edge28" class="edge"><title>reducers/root.js&#45;&gt;reducers/updateMenuBar.js</title>
<path fill="none" stroke="#757575" d="M2282.22,-214.293C2294.92,-212.975 2308.78,-211.539 2322.72,-210.093"/>
<polygon fill="#757575" stroke="#757575" points="2323.29,-213.552 2332.87,-209.04 2322.57,-206.59 2323.29,-213.552"/>
</g>
<!-- reducers/updateStats.js -->
<g id="node27" class="node"><title>reducers/updateStats.js</title>
<path fill="none" stroke="#c6c5fe" d="M2504.33,-130.726C2504.33,-130.726 2352.67,-130.726 2352.67,-130.726 2348.83,-130.726 2345,-126.893 2345,-123.06 2345,-123.06 2345,-115.393 2345,-115.393 2345,-111.56 2348.83,-107.726 2352.67,-107.726 2352.67,-107.726 2504.33,-107.726 2504.33,-107.726 2508.17,-107.726 2512,-111.56 2512,-115.393 2512,-115.393 2512,-123.06 2512,-123.06 2512,-126.893 2508.17,-130.726 2504.33,-130.726"/>
<text text-anchor="middle" x="2428.5" y="-115.526" font-family="Arial" font-size="14.00" fill="#c6c5fe">reducers/updateStats.js</text>
</g>
<!-- reducers/root.js&#45;&gt;reducers/updateStats.js -->
<g id="edge29" class="edge"><title>reducers/root.js&#45;&gt;reducers/updateStats.js</title>
<path fill="none" stroke="#757575" d="M2235.86,-208.667C2252.12,-192.065 2284.48,-161.664 2318,-145.226 2327.54,-140.55 2337.96,-136.688 2348.46,-133.504"/>
<polygon fill="#757575" stroke="#757575" points="2349.45,-136.864 2358.11,-130.767 2347.53,-130.13 2349.45,-136.864"/>
</g>
<!-- reducers/updateTime.js -->
<g id="node28" class="node"><title>reducers/updateTime.js</title>
<path fill="none" stroke="#c6c5fe" d="M2504.33,-89.7264C2504.33,-89.7264 2352.67,-89.7264 2352.67,-89.7264 2348.83,-89.7264 2345,-85.8931 2345,-82.0597 2345,-82.0597 2345,-74.3931 2345,-74.3931 2345,-70.5597 2348.83,-66.7264 2352.67,-66.7264 2352.67,-66.7264 2504.33,-66.7264 2504.33,-66.7264 2508.17,-66.7264 2512,-70.5597 2512,-74.3931 2512,-74.3931 2512,-82.0597 2512,-82.0597 2512,-85.8931 2508.17,-89.7264 2504.33,-89.7264"/>
<text text-anchor="middle" x="2428.5" y="-74.5264" font-family="Arial" font-size="14.00" fill="#c6c5fe">reducers/updateTime.js</text>
</g>
<!-- reducers/root.js&#45;&gt;reducers/updateTime.js -->
<g id="edge30" class="edge"><title>reducers/root.js&#45;&gt;reducers/updateTime.js</title>
<path fill="none" stroke="#757575" d="M2230.24,-208.522C2242,-183.698 2273.05,-125.792 2318,-98.2264 2323.41,-94.9117 2329.22,-92.1181 2335.26,-89.7666"/>
<polygon fill="#757575" stroke="#757575" points="2336.6,-93.0072 2344.9,-86.4237 2334.31,-86.3936 2336.6,-93.0072"/>
</g>
<!-- store/initialState.js -->
<g id="node29" class="node"><title>store/initialState.js</title>
<path fill="none" stroke="#c6c5fe" d="M2486.33,-410.726C2486.33,-410.726 2370.67,-410.726 2370.67,-410.726 2366.83,-410.726 2363,-406.893 2363,-403.06 2363,-403.06 2363,-395.393 2363,-395.393 2363,-391.56 2366.83,-387.726 2370.67,-387.726 2370.67,-387.726 2486.33,-387.726 2486.33,-387.726 2490.17,-387.726 2494,-391.56 2494,-395.393 2494,-395.393 2494,-403.06 2494,-403.06 2494,-406.893 2490.17,-410.726 2486.33,-410.726"/>
<text text-anchor="middle" x="2428.5" y="-395.526" font-family="Arial" font-size="14.00" fill="#c6c5fe">store/initialState.js</text>
</g>
<!-- reducers/root.js&#45;&gt;store/initialState.js -->
<g id="edge31" class="edge"><title>reducers/root.js&#45;&gt;store/initialState.js</title>
<path fill="none" stroke="#757575" d="M2232.3,-231.825C2246.64,-253.967 2280.41,-302.93 2318,-335.226 2340.65,-354.689 2370.03,-371.493 2392.66,-382.992"/>
<polygon fill="#757575" stroke="#757575" points="2391.39,-386.27 2401.9,-387.588 2394.51,-380.002 2391.39,-386.27"/>
</g>
<!-- utils.js -->
<g id="node30" class="node"><title>utils.js</title>
<path fill="none" stroke="#cfffac" d="M2683.33,-170.726C2683.33,-170.726 2642.67,-170.726 2642.67,-170.726 2638.83,-170.726 2635,-166.893 2635,-163.06 2635,-163.06 2635,-155.393 2635,-155.393 2635,-151.56 2638.83,-147.726 2642.67,-147.726 2642.67,-147.726 2683.33,-147.726 2683.33,-147.726 2687.17,-147.726 2691,-151.56 2691,-155.393 2691,-155.393 2691,-163.06 2691,-163.06 2691,-166.893 2687.17,-170.726 2683.33,-170.726"/>
<text text-anchor="middle" x="2663" y="-155.526" font-family="Arial" font-size="14.00" fill="#cfffac">utils.js</text>
</g>
<!-- reducers/root.js&#45;&gt;utils.js -->
<g id="edge32" class="edge"><title>reducers/root.js&#45;&gt;utils.js</title>
<path fill="none" stroke="#757575" d="M2244.9,-208.621C2263.23,-198.586 2291.5,-184.703 2318,-178.226 2426.98,-151.594 2560.92,-153.787 2624.75,-156.864"/>
<polygon fill="#757575" stroke="#757575" points="2624.58,-160.359 2634.74,-157.381 2624.94,-153.369 2624.58,-160.359"/>
</g>
<!-- reducers/updateLowerButtons.js&#45;&gt;utils.js -->
<g id="edge33" class="edge"><title>reducers/updateLowerButtons.js&#45;&gt;utils.js</title>
<path fill="none" stroke="#757575" d="M2504.11,-228.668C2515.92,-226.054 2527.89,-222.929 2539,-219.226 2572.78,-207.97 2609.16,-189.332 2633.52,-175.812"/>
<polygon fill="#757575" stroke="#757575" points="2635.24,-178.861 2642.24,-170.907 2631.81,-172.76 2635.24,-178.861"/>
</g>
<!-- reducers/updateMenuBar.js&#45;&gt;utils.js -->
<g id="edge34" class="edge"><title>reducers/updateMenuBar.js&#45;&gt;utils.js</title>
<path fill="none" stroke="#757575" d="M2496.44,-187.71C2538.14,-180.536 2590.23,-171.574 2624.72,-165.64"/>
<polygon fill="#757575" stroke="#757575" points="2625.57,-169.045 2634.83,-163.9 2624.38,-162.147 2625.57,-169.045"/>
</g>
<!-- reducers/updateStats.js&#45;&gt;actions/coreMsg.js -->
<g id="edge35" class="edge"><title>reducers/updateStats.js&#45;&gt;actions/coreMsg.js</title>
<path fill="none" stroke="#757575" d="M2457.29,-130.755C2480.5,-141.159 2513.76,-157.926 2539,-178.226 2585.25,-215.424 2627.67,-271.632 2648.49,-301.284"/>
<polygon fill="#757575" stroke="#757575" points="2645.67,-303.358 2654.24,-309.584 2651.43,-299.371 2645.67,-303.358"/>
</g>
<!-- reducers/updateStats.js&#45;&gt;actions/playerMsg.js -->
<g id="edge36" class="edge"><title>reducers/updateStats.js&#45;&gt;actions/playerMsg.js</title>
<path fill="none" stroke="#757575" d="M2504.11,-107.668C2515.92,-105.054 2527.89,-101.929 2539,-98.2264 2572.78,-86.9702 2609.16,-68.3325 2633.52,-54.8122"/>
<polygon fill="#757575" stroke="#757575" points="2635.24,-57.8611 2642.24,-49.907 2631.81,-51.7605 2635.24,-57.8611"/>
</g>
<!-- reducers/updateStats.js&#45;&gt;utils.js -->
<g id="edge37" class="edge"><title>reducers/updateStats.js&#45;&gt;utils.js</title>
<path fill="none" stroke="#757575" d="M2496.44,-130.742C2538.14,-137.917 2590.23,-146.879 2624.72,-152.813"/>
<polygon fill="#757575" stroke="#757575" points="2624.38,-156.306 2634.83,-154.552 2625.57,-149.408 2624.38,-156.306"/>
</g>
<!-- reducers/updateTime.js&#45;&gt;utils.js -->
<g id="edge38" class="edge"><title>reducers/updateTime.js&#45;&gt;utils.js</title>
<path fill="none" stroke="#757575" d="M2507.94,-89.7909C2518.5,-92.1479 2529.1,-94.9386 2539,-98.2264 2573.1,-109.547 2609.69,-128.686 2634.01,-142.511"/>
<polygon fill="#757575" stroke="#757575" points="2632.29,-145.559 2642.7,-147.522 2635.79,-139.495 2632.29,-145.559"/>
</g>
<!-- store/initialState.js&#45;&gt;scenes/sceneSymbols.js -->
<g id="edge54" class="edge"><title>store/initialState.js&#45;&gt;scenes/sceneSymbols.js</title>
<path fill="none" stroke="#757575" d="M2491.86,-410.731C2507.53,-414.514 2524.11,-419.309 2539,-425.226 2574.96,-439.52 2613.06,-462.974 2637.16,-478.984"/>
<polygon fill="#757575" stroke="#757575" points="2635.43,-482.037 2645.68,-484.721 2639.34,-476.231 2635.43,-482.037"/>
</g>
<!-- scenes/charCreation.js&#45;&gt;actions/Core.js -->
<g id="edge39" class="edge"><title>scenes/charCreation.js&#45;&gt;actions/Core.js</title>
<path fill="none" stroke="#757575" d="M1406.06,-450.092C1466.71,-445.438 1551.82,-435.651 1624,-415.226 1657.88,-405.638 1694.39,-388.405 1719.15,-375.579"/>
<polygon fill="#757575" stroke="#757575" points="1720.82,-378.659 1728.04,-370.905 1717.56,-372.464 1720.82,-378.659"/>
</g>
<!-- scenes/charCreation.js&#45;&gt;scenes/sceneSymbols.js -->
<g id="edge42" class="edge"><title>scenes/charCreation.js&#45;&gt;scenes/sceneSymbols.js</title>
<path fill="none" stroke="#757575" d="M1406.14,-459.16C1522.26,-465.919 1744.89,-477.226 1934.5,-477.226 1934.5,-477.226 1934.5,-477.226 2225,-477.226 2341.99,-477.226 2476.44,-484.108 2564.96,-489.588"/>
<polygon fill="#757575" stroke="#757575" points="2564.79,-493.084 2574.99,-490.215 2565.23,-486.097 2564.79,-493.084"/>
</g>
<!-- scenes/charCreation.js&#45;&gt;actions/Player.js -->
<g id="edge40" class="edge"><title>scenes/charCreation.js&#45;&gt;actions/Player.js</title>
<path fill="none" stroke="#757575" d="M1391.42,-442.607C1396.6,-440.298 1401.54,-437.534 1406,-434.226 1430.97,-415.694 1419.3,-395.481 1442,-374.226 1521.52,-299.779 1555.07,-291.475 1660,-262.226 1728.12,-243.238 1809.25,-239.857 1865.56,-240.382"/>
<polygon fill="#757575" stroke="#757575" points="1865.73,-243.885 1875.78,-240.523 1865.83,-236.885 1865.73,-243.885"/>
</g>
<!-- scenes/charCreation.js&#45;&gt;scenes/menus.js -->
<g id="edge41" class="edge"><title>scenes/charCreation.js&#45;&gt;scenes/menus.js</title>
<path fill="none" stroke="#757575" d="M1366.61,-465.742C1399.6,-475.214 1446.52,-488.686 1481.97,-498.862"/>
<polygon fill="#757575" stroke="#757575" points="1481.06,-502.243 1491.64,-501.639 1482.99,-495.515 1481.06,-502.243"/>
</g>
<!-- scenes/sceneTextStore.js -->
<g id="node33" class="node"><title>scenes/sceneTextStore.js</title>
<path fill="none" stroke="#c6c5fe" d="M1616.33,-406.726C1616.33,-406.726 1449.67,-406.726 1449.67,-406.726 1445.83,-406.726 1442,-402.893 1442,-399.06 1442,-399.06 1442,-391.393 1442,-391.393 1442,-387.56 1445.83,-383.726 1449.67,-383.726 1449.67,-383.726 1616.33,-383.726 1616.33,-383.726 1620.17,-383.726 1624,-387.56 1624,-391.393 1624,-391.393 1624,-399.06 1624,-399.06 1624,-402.893 1620.17,-406.726 1616.33,-406.726"/>
<text text-anchor="middle" x="1533" y="-391.526" font-family="Arial" font-size="14.00" fill="#c6c5fe">scenes/sceneTextStore.js</text>
</g>
<!-- scenes/charCreation.js&#45;&gt;scenes/sceneTextStore.js -->
<g id="edge43" class="edge"><title>scenes/charCreation.js&#45;&gt;scenes/sceneTextStore.js</title>
<path fill="none" stroke="#757575" d="M1375.48,-442.723C1385.62,-440.112 1396.2,-437.22 1406,-434.226 1422.27,-429.256 1425.82,-426.479 1442,-421.226 1454.21,-417.264 1467.44,-413.274 1479.9,-409.65"/>
<polygon fill="#757575" stroke="#757575" points="1481.06,-412.959 1489.7,-406.83 1479.12,-406.232 1481.06,-412.959"/>
</g>
<!-- scenes/menus.js&#45;&gt;actions/Core.js -->
<g id="edge44" class="edge"><title>scenes/menus.js&#45;&gt;actions/Core.js</title>
<path fill="none" stroke="#757575" d="M1550.28,-501.693C1568.32,-488.901 1598.27,-467.635 1624,-449.226 1659.02,-424.171 1699.43,-395.029 1724.61,-376.854"/>
<polygon fill="#757575" stroke="#757575" points="1726.78,-379.599 1732.84,-370.907 1722.68,-373.925 1726.78,-379.599"/>
</g>
<!-- scenes/menus.js&#45;&gt;scenes/sceneSymbols.js -->
<g id="edge45" class="edge"><title>scenes/menus.js&#45;&gt;scenes/sceneSymbols.js</title>
<path fill="none" stroke="#757575" d="M1595.07,-513.721C1673.6,-514.313 1814.21,-515.226 1934.5,-515.226 1934.5,-515.226 1934.5,-515.226 2225,-515.226 2341.99,-515.226 2476.44,-508.345 2564.96,-502.865"/>
<polygon fill="#757575" stroke="#757575" points="2565.23,-506.355 2574.99,-502.238 2564.79,-499.369 2565.23,-506.355"/>
</g>
<!-- scenes/sceneTextStore.js&#45;&gt;scenes/sceneSymbols.js -->
<g id="edge53" class="edge"><title>scenes/sceneTextStore.js&#45;&gt;scenes/sceneSymbols.js</title>
<path fill="none" stroke="#757575" d="M1598.62,-406.729C1677.59,-419.766 1815.41,-439.226 1934.5,-439.226 1934.5,-439.226 1934.5,-439.226 2225,-439.226 2364.96,-439.226 2401.04,-439.657 2539,-463.226 2564.91,-467.653 2593.29,-475.087 2616.25,-481.779"/>
<polygon fill="#757575" stroke="#757575" points="2615.48,-485.202 2626.06,-484.69 2617.47,-478.491 2615.48,-485.202"/>
</g>
<!-- scenes/sceneTextStore.js&#45;&gt;components/nameInput.js -->
<g id="edge52" class="edge"><title>scenes/sceneTextStore.js&#45;&gt;components/nameInput.js</title>
<path fill="none" stroke="#757575" d="M1556.2,-383.662C1594.68,-363.615 1673.87,-322.365 1717.84,-299.458"/>
<polygon fill="#757575" stroke="#757575" points="1719.67,-302.452 1726.92,-294.728 1716.44,-296.244 1719.67,-302.452"/>
</g>
<!-- setupTests.js -->
<g id="node35" class="node"><title>setupTests.js</title>
<path fill="none" stroke="#cfffac" d="M94.3333,-354.726C94.3333,-354.726 7.66667,-354.726 7.66667,-354.726 3.83333,-354.726 0,-350.893 0,-347.06 0,-347.06 0,-339.393 0,-339.393 0,-335.56 3.83333,-331.726 7.66667,-331.726 7.66667,-331.726 94.3333,-331.726 94.3333,-331.726 98.1667,-331.726 102,-335.56 102,-339.393 102,-339.393 102,-347.06 102,-347.06 102,-350.893 98.1667,-354.726 94.3333,-354.726"/>
<text text-anchor="middle" x="51" y="-339.526" font-family="Arial" font-size="14.00" fill="#cfffac">setupTests.js</text>
</g>
</g>
</svg>
