<?xml version="1.0" encoding="UTF-8" standalone="no"?>
<!DOCTYPE svg PUBLIC "-//W3C//DTD SVG 1.1//EN"
 "http://www.w3.org/Graphics/SVG/1.1/DTD/svg11.dtd">
<!-- Generated by graphviz version 2.38.0 (20140413.2041)
 -->
<!-- Title: G Pages: 1 -->
<svg width="3364pt" height="1320pt"
 viewBox="0.00 0.00 3364.20 1320.42" xmlns="http://www.w3.org/2000/svg" xmlns:xlink="http://www.w3.org/1999/xlink">
<g id="graph0" class="graph" transform="scale(1 1) rotate(0) translate(21.6 1298.82)">
<title>G</title>
<polygon fill="#111111" stroke="none" points="-21.6,21.6 -21.6,-1298.82 3342.6,-1298.82 3342.6,21.6 -21.6,21.6"/>
<!-- actions/Core.js -->
<g id="node1" class="node"><title>actions/Core.js</title>
<path fill="none" stroke="#c6c5fe" d="M2381.83,-473.719C2381.83,-473.719 2286.17,-473.719 2286.17,-473.719 2282.33,-473.719 2278.5,-469.886 2278.5,-466.053 2278.5,-466.053 2278.5,-458.386 2278.5,-458.386 2278.5,-454.553 2282.33,-450.719 2286.17,-450.719 2286.17,-450.719 2381.83,-450.719 2381.83,-450.719 2385.67,-450.719 2389.5,-454.553 2389.5,-458.386 2389.5,-458.386 2389.5,-466.053 2389.5,-466.053 2389.5,-469.886 2385.67,-473.719 2381.83,-473.719"/>
<text text-anchor="middle" x="2334" y="-458.519" font-family="Arial" font-size="14.00" fill="#c6c5fe">actions/Core.js</text>
</g>
<!-- actions/coreMsg.js -->
<g id="node2" class="node"><title>actions/coreMsg.js</title>
<path fill="none" stroke="#cfffac" d="M3200.83,-432.719C3200.83,-432.719 3081.17,-432.719 3081.17,-432.719 3077.33,-432.719 3073.5,-428.886 3073.5,-425.053 3073.5,-425.053 3073.5,-417.386 3073.5,-417.386 3073.5,-413.553 3077.33,-409.719 3081.17,-409.719 3081.17,-409.719 3200.83,-409.719 3200.83,-409.719 3204.67,-409.719 3208.5,-413.553 3208.5,-417.386 3208.5,-417.386 3208.5,-425.053 3208.5,-425.053 3208.5,-428.886 3204.67,-432.719 3200.83,-432.719"/>
<text text-anchor="middle" x="3141" y="-417.519" font-family="Arial" font-size="14.00" fill="#cfffac">actions/coreMsg.js</text>
</g>
<!-- actions/Core.js&#45;&gt;actions/coreMsg.js -->
<g id="edge1" class="edge"><title>actions/Core.js&#45;&gt;actions/coreMsg.js</title>
<path fill="none" stroke="#757575" d="M2389.53,-463.199C2505.39,-464.715 2784.5,-465.361 3017,-442.219 3035.19,-440.409 3054.75,-437.511 3072.8,-434.438"/>
<polygon fill="#757575" stroke="#757575" points="3073.41,-437.886 3082.66,-432.719 3072.2,-430.99 3073.41,-437.886"/>
</g>
<!-- store/store.js -->
<g id="node3" class="node"><title>store/store.js</title>
<path fill="none" stroke="#c6c5fe" d="M2556.83,-532.719C2556.83,-532.719 2473.17,-532.719 2473.17,-532.719 2469.33,-532.719 2465.5,-528.886 2465.5,-525.053 2465.5,-525.053 2465.5,-517.386 2465.5,-517.386 2465.5,-513.553 2469.33,-509.719 2473.17,-509.719 2473.17,-509.719 2556.83,-509.719 2556.83,-509.719 2560.67,-509.719 2564.5,-513.553 2564.5,-517.386 2564.5,-517.386 2564.5,-525.053 2564.5,-525.053 2564.5,-528.886 2560.67,-532.719 2556.83,-532.719"/>
<text text-anchor="middle" x="2515" y="-517.519" font-family="Arial" font-size="14.00" fill="#c6c5fe">store/store.js</text>
</g>
<!-- actions/Core.js&#45;&gt;store/store.js -->
<g id="edge2" class="edge"><title>actions/Core.js&#45;&gt;store/store.js</title>
<path fill="none" stroke="#757575" d="M2369.94,-473.735C2398.31,-483.086 2438.5,-496.334 2469.23,-506.462"/>
<polygon fill="#757575" stroke="#757575" points="2468.25,-509.825 2478.84,-509.632 2470.44,-503.177 2468.25,-509.825"/>
</g>
<!-- reducers/root.js -->
<g id="node35" class="node"><title>reducers/root.js</title>
<path fill="none" stroke="#c6c5fe" d="M2757.33,-513.719C2757.33,-513.719 2656.67,-513.719 2656.67,-513.719 2652.83,-513.719 2649,-509.886 2649,-506.053 2649,-506.053 2649,-498.386 2649,-498.386 2649,-494.553 2652.83,-490.719 2656.67,-490.719 2656.67,-490.719 2757.33,-490.719 2757.33,-490.719 2761.17,-490.719 2765,-494.553 2765,-498.386 2765,-498.386 2765,-506.053 2765,-506.053 2765,-509.886 2761.17,-513.719 2757.33,-513.719"/>
<text text-anchor="middle" x="2707" y="-498.519" font-family="Arial" font-size="14.00" fill="#c6c5fe">reducers/root.js</text>
</g>
<!-- store/store.js&#45;&gt;reducers/root.js -->
<g id="edge108" class="edge"><title>store/store.js&#45;&gt;reducers/root.js</title>
<path fill="none" stroke="#757575" d="M2564.93,-516.326C2587.35,-514.085 2614.28,-511.391 2638.58,-508.962"/>
<polygon fill="#757575" stroke="#757575" points="2639.2,-512.416 2648.81,-507.939 2638.51,-505.451 2639.2,-512.416"/>
</g>
<!-- actions/Enemy.js -->
<g id="node4" class="node"><title>actions/Enemy.js</title>
<path fill="none" stroke="#c6c5fe" d="M2388.33,-743.719C2388.33,-743.719 2279.67,-743.719 2279.67,-743.719 2275.83,-743.719 2272,-739.886 2272,-736.053 2272,-736.053 2272,-728.386 2272,-728.386 2272,-724.553 2275.83,-720.719 2279.67,-720.719 2279.67,-720.719 2388.33,-720.719 2388.33,-720.719 2392.17,-720.719 2396,-724.553 2396,-728.386 2396,-728.386 2396,-736.053 2396,-736.053 2396,-739.886 2392.17,-743.719 2388.33,-743.719"/>
<text text-anchor="middle" x="2334" y="-728.519" font-family="Arial" font-size="14.00" fill="#c6c5fe">actions/Enemy.js</text>
</g>
<!-- actions/Enemy.js&#45;&gt;store/store.js -->
<g id="edge4" class="edge"><title>actions/Enemy.js&#45;&gt;store/store.js</title>
<path fill="none" stroke="#757575" d="M2385.99,-720.587C2394.95,-716.986 2403.72,-712.301 2411,-706.219 2464.63,-661.398 2495.41,-581.112 2507.7,-542.761"/>
<polygon fill="#757575" stroke="#757575" points="2511.07,-543.708 2510.68,-533.12 2504.38,-541.64 2511.07,-543.708"/>
</g>
<!-- actions/enemyMsg.js -->
<g id="node5" class="node"><title>actions/enemyMsg.js</title>
<path fill="none" stroke="#cfffac" d="M2990.83,-781.719C2990.83,-781.719 2857.17,-781.719 2857.17,-781.719 2853.33,-781.719 2849.5,-777.886 2849.5,-774.053 2849.5,-774.053 2849.5,-766.386 2849.5,-766.386 2849.5,-762.553 2853.33,-758.719 2857.17,-758.719 2857.17,-758.719 2990.83,-758.719 2990.83,-758.719 2994.67,-758.719 2998.5,-762.553 2998.5,-766.386 2998.5,-766.386 2998.5,-774.053 2998.5,-774.053 2998.5,-777.886 2994.67,-781.719 2990.83,-781.719"/>
<text text-anchor="middle" x="2924" y="-766.519" font-family="Arial" font-size="14.00" fill="#cfffac">actions/enemyMsg.js</text>
</g>
<!-- actions/Enemy.js&#45;&gt;actions/enemyMsg.js -->
<g id="edge3" class="edge"><title>actions/Enemy.js&#45;&gt;actions/enemyMsg.js</title>
<path fill="none" stroke="#757575" d="M2396.26,-736.178C2502.01,-743.013 2718.97,-757.034 2838.81,-764.779"/>
<polygon fill="#757575" stroke="#757575" points="2838.83,-768.287 2849.04,-765.439 2839.29,-761.302 2838.83,-768.287"/>
</g>
<!-- actions/Engine.js -->
<g id="node6" class="node"><title>actions/Engine.js</title>
<path fill="none" stroke="#c6c5fe" d="M951.833,-478.719C951.833,-478.719 843.167,-478.719 843.167,-478.719 839.333,-478.719 835.5,-474.886 835.5,-471.053 835.5,-471.053 835.5,-463.386 835.5,-463.386 835.5,-459.553 839.333,-455.719 843.167,-455.719 843.167,-455.719 951.833,-455.719 951.833,-455.719 955.667,-455.719 959.5,-459.553 959.5,-463.386 959.5,-463.386 959.5,-471.053 959.5,-471.053 959.5,-474.886 955.667,-478.719 951.833,-478.719"/>
<text text-anchor="middle" x="897.5" y="-463.519" font-family="Arial" font-size="14.00" fill="#c6c5fe">actions/Engine.js</text>
</g>
<!-- scenes/sceneFunctions.js -->
<g id="node7" class="node"><title>scenes/sceneFunctions.js</title>
<path fill="none" stroke="#c6c5fe" d="M1201.33,-478.719C1201.33,-478.719 1034.67,-478.719 1034.67,-478.719 1030.83,-478.719 1027,-474.886 1027,-471.053 1027,-471.053 1027,-463.386 1027,-463.386 1027,-459.553 1030.83,-455.719 1034.67,-455.719 1034.67,-455.719 1201.33,-455.719 1201.33,-455.719 1205.17,-455.719 1209,-459.553 1209,-463.386 1209,-463.386 1209,-471.053 1209,-471.053 1209,-474.886 1205.17,-478.719 1201.33,-478.719"/>
<text text-anchor="middle" x="1118" y="-463.519" font-family="Arial" font-size="14.00" fill="#c6c5fe">scenes/sceneFunctions.js</text>
</g>
<!-- actions/Engine.js&#45;&gt;scenes/sceneFunctions.js -->
<g id="edge5" class="edge"><title>actions/Engine.js&#45;&gt;scenes/sceneFunctions.js</title>
<path fill="none" stroke="#757575" d="M959.655,-467.219C977.394,-467.219 997.247,-467.219 1016.72,-467.219"/>
<polygon fill="#757575" stroke="#757575" points="1016.85,-470.719 1026.85,-467.219 1016.85,-463.719 1016.85,-470.719"/>
</g>
<!-- scenes/sceneFunctions.js&#45;&gt;actions/Core.js -->
<g id="edge85" class="edge"><title>scenes/sceneFunctions.js&#45;&gt;actions/Core.js</title>
<path fill="none" stroke="#757575" d="M1193.86,-455.714C1199.29,-453.13 1204.42,-450.002 1209,-446.219 1239.36,-421.115 1212.63,-387.677 1245,-365.219 1389.68,-264.829 1859.98,-322.555 2036,-317.219 2118.18,-314.728 2147.2,-280.971 2221,-317.219 2274.04,-343.272 2309.08,-407.876 2324.32,-441.356"/>
<polygon fill="#757575" stroke="#757575" points="2321.18,-442.921 2328.4,-450.671 2327.59,-440.107 2321.18,-442.921"/>
</g>
<!-- scenes/sceneFunctions.js&#45;&gt;store/store.js -->
<g id="edge93" class="edge"><title>scenes/sceneFunctions.js&#45;&gt;store/store.js</title>
<path fill="none" stroke="#757575" d="M1209.21,-467.646C1265.92,-468.895 1340.5,-472.332 1406,-481.219 1767.26,-530.235 1868.08,-665.669 2221,-574.219 2238.72,-569.628 2239.61,-559.932 2257,-554.219 2322.71,-532.633 2402.19,-525.073 2455.2,-522.477"/>
<polygon fill="#757575" stroke="#757575" points="2455.6,-525.962 2465.44,-522.021 2455.29,-518.969 2455.6,-525.962"/>
</g>
<!-- scenes/charCreation.js -->
<g id="node42" class="node"><title>scenes/charCreation.js</title>
<path fill="none" stroke="#c6c5fe" d="M1398.33,-1013.72C1398.33,-1013.72 1252.67,-1013.72 1252.67,-1013.72 1248.83,-1013.72 1245,-1009.89 1245,-1006.05 1245,-1006.05 1245,-998.386 1245,-998.386 1245,-994.553 1248.83,-990.719 1252.67,-990.719 1252.67,-990.719 1398.33,-990.719 1398.33,-990.719 1402.17,-990.719 1406,-994.553 1406,-998.386 1406,-998.386 1406,-1006.05 1406,-1006.05 1406,-1009.89 1402.17,-1013.72 1398.33,-1013.72"/>
<text text-anchor="middle" x="1325.5" y="-998.519" font-family="Arial" font-size="14.00" fill="#c6c5fe">scenes/charCreation.js</text>
</g>
<!-- scenes/sceneFunctions.js&#45;&gt;scenes/charCreation.js -->
<g id="edge86" class="edge"><title>scenes/sceneFunctions.js&#45;&gt;scenes/charCreation.js</title>
<path fill="none" stroke="#757575" d="M1123.48,-478.891C1149.6,-546.878 1282.12,-891.88 1316.4,-981.122"/>
<polygon fill="#757575" stroke="#757575" points="1313.22,-982.621 1320.08,-990.701 1319.76,-980.111 1313.22,-982.621"/>
</g>
<!-- scenes/menus.js -->
<g id="node43" class="node"><title>scenes/menus.js</title>
<path fill="none" stroke="#c6c5fe" d="M1558.33,-645.719C1558.33,-645.719 1449.67,-645.719 1449.67,-645.719 1445.83,-645.719 1442,-641.886 1442,-638.053 1442,-638.053 1442,-630.386 1442,-630.386 1442,-626.553 1445.83,-622.719 1449.67,-622.719 1449.67,-622.719 1558.33,-622.719 1558.33,-622.719 1562.17,-622.719 1566,-626.553 1566,-630.386 1566,-630.386 1566,-638.053 1566,-638.053 1566,-641.886 1562.17,-645.719 1558.33,-645.719"/>
<text text-anchor="middle" x="1504" y="-630.519" font-family="Arial" font-size="14.00" fill="#c6c5fe">scenes/menus.js</text>
</g>
<!-- scenes/sceneFunctions.js&#45;&gt;scenes/menus.js -->
<g id="edge90" class="edge"><title>scenes/sceneFunctions.js&#45;&gt;scenes/menus.js</title>
<path fill="none" stroke="#757575" d="M1145.7,-478.83C1213.22,-508.197 1390.87,-585.454 1467.25,-618.672"/>
<polygon fill="#757575" stroke="#757575" points="1465.91,-621.907 1476.48,-622.686 1468.71,-615.488 1465.91,-621.907"/>
</g>
<!-- scenes/sceneSymbols.js -->
<g id="node44" class="node"><title>scenes/sceneSymbols.js</title>
<path fill="none" stroke="#cfffac" d="M3221.33,-996.719C3221.33,-996.719 3060.67,-996.719 3060.67,-996.719 3056.83,-996.719 3053,-992.886 3053,-989.053 3053,-989.053 3053,-981.386 3053,-981.386 3053,-977.553 3056.83,-973.719 3060.67,-973.719 3060.67,-973.719 3221.33,-973.719 3221.33,-973.719 3225.17,-973.719 3229,-977.553 3229,-981.386 3229,-981.386 3229,-989.053 3229,-989.053 3229,-992.886 3225.17,-996.719 3221.33,-996.719"/>
<text text-anchor="middle" x="3141" y="-981.519" font-family="Arial" font-size="14.00" fill="#cfffac">scenes/sceneSymbols.js</text>
</g>
<!-- scenes/sceneFunctions.js&#45;&gt;scenes/sceneSymbols.js -->
<g id="edge91" class="edge"><title>scenes/sceneFunctions.js&#45;&gt;scenes/sceneSymbols.js</title>
<path fill="none" stroke="#757575" d="M1118.94,-478.982C1119.04,-578.591 1133,-1277.22 1503,-1277.22 1503,-1277.22 1503,-1277.22 2129.5,-1277.22 2537.77,-1277.22 2638.19,-1192.48 3017,-1040.22 3047.66,-1027.9 3081.93,-1012.43 3106.49,-1001.04"/>
<polygon fill="#757575" stroke="#757575" points="3108.15,-1004.13 3115.73,-996.733 3105.19,-997.784 3108.15,-1004.13"/>
</g>
<!-- scenes/combat/combat.js -->
<g id="node48" class="node"><title>scenes/combat/combat.js</title>
<path fill="none" stroke="#c6c5fe" d="M1991.83,-761.719C1991.83,-761.719 1828.17,-761.719 1828.17,-761.719 1824.33,-761.719 1820.5,-757.886 1820.5,-754.053 1820.5,-754.053 1820.5,-746.386 1820.5,-746.386 1820.5,-742.553 1824.33,-738.719 1828.17,-738.719 1828.17,-738.719 1991.83,-738.719 1991.83,-738.719 1995.67,-738.719 1999.5,-742.553 1999.5,-746.386 1999.5,-746.386 1999.5,-754.053 1999.5,-754.053 1999.5,-757.886 1995.67,-761.719 1991.83,-761.719"/>
<text text-anchor="middle" x="1910" y="-746.519" font-family="Arial" font-size="14.00" fill="#c6c5fe">scenes/combat/combat.js</text>
</g>
<!-- scenes/sceneFunctions.js&#45;&gt;scenes/combat/combat.js -->
<g id="edge87" class="edge"><title>scenes/sceneFunctions.js&#45;&gt;scenes/combat/combat.js</title>
<path fill="none" stroke="#757575" d="M1207.95,-478.72C1265.33,-487.488 1341.08,-501.607 1406,-522.219 1593.1,-581.629 1802.66,-691.849 1879.08,-733.604"/>
<polygon fill="#757575" stroke="#757575" points="1877.69,-736.834 1888.14,-738.576 1881.06,-730.697 1877.69,-736.834"/>
</g>
<!-- scenes/ingnam/ingnam.js -->
<g id="node50" class="node"><title>scenes/ingnam/ingnam.js</title>
<path fill="none" stroke="#c6c5fe" d="M1990.33,-373.719C1990.33,-373.719 1829.67,-373.719 1829.67,-373.719 1825.83,-373.719 1822,-369.886 1822,-366.053 1822,-366.053 1822,-358.386 1822,-358.386 1822,-354.553 1825.83,-350.719 1829.67,-350.719 1829.67,-350.719 1990.33,-350.719 1990.33,-350.719 1994.17,-350.719 1998,-354.553 1998,-358.386 1998,-358.386 1998,-366.053 1998,-366.053 1998,-369.886 1994.17,-373.719 1990.33,-373.719"/>
<text text-anchor="middle" x="1910" y="-358.519" font-family="Arial" font-size="14.00" fill="#c6c5fe">scenes/ingnam/ingnam.js</text>
</g>
<!-- scenes/sceneFunctions.js&#45;&gt;scenes/ingnam/ingnam.js -->
<g id="edge88" class="edge"><title>scenes/sceneFunctions.js&#45;&gt;scenes/ingnam/ingnam.js</title>
<path fill="none" stroke="#757575" d="M1189.1,-455.648C1196.08,-453.104 1202.85,-450.002 1209,-446.219 1230.23,-433.16 1222.75,-414.457 1245,-403.219 1341.46,-354.495 1651.73,-355.097 1811.66,-358.947"/>
<polygon fill="#757575" stroke="#757575" points="1811.89,-362.454 1821.97,-359.205 1812.06,-355.456 1811.89,-362.454"/>
</g>
<!-- scenes/inv/inv.js -->
<g id="node55" class="node"><title>scenes/inv/inv.js</title>
<path fill="none" stroke="#c6c5fe" d="M1961.83,-217.719C1961.83,-217.719 1858.17,-217.719 1858.17,-217.719 1854.33,-217.719 1850.5,-213.886 1850.5,-210.053 1850.5,-210.053 1850.5,-202.386 1850.5,-202.386 1850.5,-198.553 1854.33,-194.719 1858.17,-194.719 1858.17,-194.719 1961.83,-194.719 1961.83,-194.719 1965.67,-194.719 1969.5,-198.553 1969.5,-202.386 1969.5,-202.386 1969.5,-210.053 1969.5,-210.053 1969.5,-213.886 1965.67,-217.719 1961.83,-217.719"/>
<text text-anchor="middle" x="1910" y="-202.519" font-family="Arial" font-size="14.00" fill="#c6c5fe">scenes/inv/inv.js</text>
</g>
<!-- scenes/sceneFunctions.js&#45;&gt;scenes/inv/inv.js -->
<g id="edge89" class="edge"><title>scenes/sceneFunctions.js&#45;&gt;scenes/inv/inv.js</title>
<path fill="none" stroke="#757575" d="M1195.67,-455.639C1200.5,-453.052 1205.02,-449.946 1209,-446.219 1249.05,-408.766 1204.33,-364.991 1245,-328.219 1413.41,-175.962 1707.12,-184.269 1840.1,-197.328"/>
<polygon fill="#757575" stroke="#757575" points="1839.85,-200.821 1850.16,-198.356 1840.56,-193.857 1839.85,-200.821"/>
</g>
<!-- scenes/tests/testing.js -->
<g id="node57" class="node"><title>scenes/tests/testing.js</title>
<path fill="none" stroke="#cfffac" d="M1396.83,-435.719C1396.83,-435.719 1254.17,-435.719 1254.17,-435.719 1250.33,-435.719 1246.5,-431.886 1246.5,-428.053 1246.5,-428.053 1246.5,-420.386 1246.5,-420.386 1246.5,-416.553 1250.33,-412.719 1254.17,-412.719 1254.17,-412.719 1396.83,-412.719 1396.83,-412.719 1400.67,-412.719 1404.5,-416.553 1404.5,-420.386 1404.5,-420.386 1404.5,-428.053 1404.5,-428.053 1404.5,-431.886 1400.67,-435.719 1396.83,-435.719"/>
<text text-anchor="middle" x="1325.5" y="-420.519" font-family="Arial" font-size="14.00" fill="#cfffac">scenes/tests/testing.js</text>
</g>
<!-- scenes/sceneFunctions.js&#45;&gt;scenes/tests/testing.js -->
<g id="edge92" class="edge"><title>scenes/sceneFunctions.js&#45;&gt;scenes/tests/testing.js</title>
<path fill="none" stroke="#757575" d="M1174.07,-455.696C1200.33,-450.201 1231.93,-443.589 1259.37,-437.847"/>
<polygon fill="#757575" stroke="#757575" points="1260.21,-441.248 1269.28,-435.774 1258.77,-434.397 1260.21,-441.248"/>
</g>
<!-- actions/Inv.js -->
<g id="node8" class="node"><title>actions/Inv.js</title>
<path fill="none" stroke="#c6c5fe" d="M2375.33,-137.719C2375.33,-137.719 2292.67,-137.719 2292.67,-137.719 2288.83,-137.719 2285,-133.886 2285,-130.053 2285,-130.053 2285,-122.386 2285,-122.386 2285,-118.553 2288.83,-114.719 2292.67,-114.719 2292.67,-114.719 2375.33,-114.719 2375.33,-114.719 2379.17,-114.719 2383,-118.553 2383,-122.386 2383,-122.386 2383,-130.053 2383,-130.053 2383,-133.886 2379.17,-137.719 2375.33,-137.719"/>
<text text-anchor="middle" x="2334" y="-122.519" font-family="Arial" font-size="14.00" fill="#c6c5fe">actions/Inv.js</text>
</g>
<!-- actions/Inv.js&#45;&gt;store/store.js -->
<g id="edge7" class="edge"><title>actions/Inv.js&#45;&gt;store/store.js</title>
<path fill="none" stroke="#757575" d="M2383.3,-134.978C2393.56,-138.807 2403.53,-144.31 2411,-152.219 2506.64,-253.518 2514.73,-436.085 2514.51,-499.113"/>
<polygon fill="#757575" stroke="#757575" points="2511,-499.405 2514.39,-509.444 2518,-499.485 2511,-499.405"/>
</g>
<!-- actions/invMsg.js -->
<g id="node9" class="node"><title>actions/invMsg.js</title>
<path fill="none" stroke="#cfffac" d="M2978.33,-126.719C2978.33,-126.719 2869.67,-126.719 2869.67,-126.719 2865.83,-126.719 2862,-122.886 2862,-119.053 2862,-119.053 2862,-111.386 2862,-111.386 2862,-107.553 2865.83,-103.719 2869.67,-103.719 2869.67,-103.719 2978.33,-103.719 2978.33,-103.719 2982.17,-103.719 2986,-107.553 2986,-111.386 2986,-111.386 2986,-119.053 2986,-119.053 2986,-122.886 2982.17,-126.719 2978.33,-126.719"/>
<text text-anchor="middle" x="2924" y="-111.519" font-family="Arial" font-size="14.00" fill="#cfffac">actions/invMsg.js</text>
</g>
<!-- actions/Inv.js&#45;&gt;actions/invMsg.js -->
<g id="edge6" class="edge"><title>actions/Inv.js&#45;&gt;actions/invMsg.js</title>
<path fill="none" stroke="#757575" d="M2383.12,-125.319C2486.39,-123.387 2729.75,-118.835 2851.3,-116.561"/>
<polygon fill="#757575" stroke="#757575" points="2851.68,-120.054 2861.61,-116.368 2851.55,-113.055 2851.68,-120.054"/>
</g>
<!-- actions/Perks.js -->
<g id="node10" class="node"><title>actions/Perks.js</title>
<path fill="none" stroke="#c6c5fe" d="M2384.33,-57.7193C2384.33,-57.7193 2283.67,-57.7193 2283.67,-57.7193 2279.83,-57.7193 2276,-53.8859 2276,-50.0526 2276,-50.0526 2276,-42.3859 2276,-42.3859 2276,-38.5526 2279.83,-34.7193 2283.67,-34.7193 2283.67,-34.7193 2384.33,-34.7193 2384.33,-34.7193 2388.17,-34.7193 2392,-38.5526 2392,-42.3859 2392,-42.3859 2392,-50.0526 2392,-50.0526 2392,-53.8859 2388.17,-57.7193 2384.33,-57.7193"/>
<text text-anchor="middle" x="2334" y="-42.5193" font-family="Arial" font-size="14.00" fill="#c6c5fe">actions/Perks.js</text>
</g>
<!-- actions/Perks.js&#45;&gt;store/store.js -->
<g id="edge9" class="edge"><title>actions/Perks.js&#45;&gt;store/store.js</title>
<path fill="none" stroke="#757575" d="M2356.97,-57.7965C2374.23,-68.0145 2397.52,-84.4959 2411,-105.219 2496.53,-236.721 2511.04,-433.792 2513.5,-499.227"/>
<polygon fill="#757575" stroke="#757575" points="2510.01,-499.663 2513.83,-509.548 2517.01,-499.442 2510.01,-499.663"/>
</g>
<!-- actions/engineMsg.js -->
<g id="node11" class="node"><title>actions/engineMsg.js</title>
<path fill="none" stroke="#cfffac" d="M3207.83,-167.719C3207.83,-167.719 3074.17,-167.719 3074.17,-167.719 3070.33,-167.719 3066.5,-163.886 3066.5,-160.053 3066.5,-160.053 3066.5,-152.386 3066.5,-152.386 3066.5,-148.553 3070.33,-144.719 3074.17,-144.719 3074.17,-144.719 3207.83,-144.719 3207.83,-144.719 3211.67,-144.719 3215.5,-148.553 3215.5,-152.386 3215.5,-152.386 3215.5,-160.053 3215.5,-160.053 3215.5,-163.886 3211.67,-167.719 3207.83,-167.719"/>
<text text-anchor="middle" x="3141" y="-152.519" font-family="Arial" font-size="14.00" fill="#cfffac">actions/engineMsg.js</text>
</g>
<!-- actions/Perks.js&#45;&gt;actions/engineMsg.js -->
<g id="edge8" class="edge"><title>actions/Perks.js&#45;&gt;actions/engineMsg.js</title>
<path fill="none" stroke="#757575" d="M2392.41,-42.7412C2511.37,-37.1563 2792.41,-32.4057 3017,-94.2193 3052.57,-104.01 3089.95,-124.52 3114.03,-139.272"/>
<polygon fill="#757575" stroke="#757575" points="3112.24,-142.281 3122.57,-144.609 3115.95,-136.344 3112.24,-142.281"/>
</g>
<!-- actions/Player.js -->
<g id="node12" class="node"><title>actions/Player.js</title>
<path fill="none" stroke="#c6c5fe" d="M2180.33,-919.719C2180.33,-919.719 2076.67,-919.719 2076.67,-919.719 2072.83,-919.719 2069,-915.886 2069,-912.053 2069,-912.053 2069,-904.386 2069,-904.386 2069,-900.553 2072.83,-896.719 2076.67,-896.719 2076.67,-896.719 2180.33,-896.719 2180.33,-896.719 2184.17,-896.719 2188,-900.553 2188,-904.386 2188,-904.386 2188,-912.053 2188,-912.053 2188,-915.886 2184.17,-919.719 2180.33,-919.719"/>
<text text-anchor="middle" x="2128.5" y="-904.519" font-family="Arial" font-size="14.00" fill="#c6c5fe">actions/Player.js</text>
</g>
<!-- actions/Player.js&#45;&gt;actions/Core.js -->
<g id="edge10" class="edge"><title>actions/Player.js&#45;&gt;actions/Core.js</title>
<path fill="none" stroke="#757575" d="M2144.19,-896.548C2164.47,-879.65 2200.82,-846.406 2221,-810.219 2250.62,-757.109 2238.9,-736.271 2257,-678.219 2279.5,-606.065 2310.5,-521.947 2324.96,-483.433"/>
<polygon fill="#757575" stroke="#757575" points="2328.33,-484.419 2328.58,-473.827 2321.78,-481.951 2328.33,-484.419"/>
</g>
<!-- actions/Player.js&#45;&gt;store/store.js -->
<g id="edge12" class="edge"><title>actions/Player.js&#45;&gt;store/store.js</title>
<path fill="none" stroke="#757575" d="M2188.42,-901.498C2200.59,-897.574 2212.33,-891.517 2221,-882.219 2273.98,-825.43 2203.89,-767.887 2257,-711.219 2305.59,-659.369 2353,-709.274 2411,-668.219 2457.59,-635.241 2490.24,-574.195 2505.05,-542.132"/>
<polygon fill="#757575" stroke="#757575" points="2508.33,-543.37 2509.22,-532.813 2501.94,-540.508 2508.33,-543.37"/>
</g>
<!-- actions/playerMsg.js -->
<g id="node13" class="node"><title>actions/playerMsg.js</title>
<path fill="none" stroke="#cfffac" d="M3205.83,-352.719C3205.83,-352.719 3076.17,-352.719 3076.17,-352.719 3072.33,-352.719 3068.5,-348.886 3068.5,-345.053 3068.5,-345.053 3068.5,-337.386 3068.5,-337.386 3068.5,-333.553 3072.33,-329.719 3076.17,-329.719 3076.17,-329.719 3205.83,-329.719 3205.83,-329.719 3209.67,-329.719 3213.5,-333.553 3213.5,-337.386 3213.5,-337.386 3213.5,-345.053 3213.5,-345.053 3213.5,-348.886 3209.67,-352.719 3205.83,-352.719"/>
<text text-anchor="middle" x="3141" y="-337.519" font-family="Arial" font-size="14.00" fill="#cfffac">actions/playerMsg.js</text>
</g>
<!-- actions/Player.js&#45;&gt;actions/playerMsg.js -->
<g id="edge11" class="edge"><title>actions/Player.js&#45;&gt;actions/playerMsg.js</title>
<path fill="none" stroke="#757575" d="M2158.6,-896.719C2212.44,-874.488 2329.57,-821.626 2411,-752.219 2503.08,-673.738 2513.48,-640.236 2583,-541.219 2600.87,-515.768 2598.14,-504.281 2619,-481.219 2697.83,-394.075 2719.46,-360.211 2831,-323.219 2918.45,-294.216 3027.37,-312.137 3089.77,-327.136"/>
<polygon fill="#757575" stroke="#757575" points="3089.2,-330.601 3099.75,-329.606 3090.88,-323.806 3089.2,-330.601"/>
</g>
<!-- symbols/breastCup.js -->
<g id="node14" class="node"><title>symbols/breastCup.js</title>
<path fill="none" stroke="#c6c5fe" d="M2403.33,-1207.72C2403.33,-1207.72 2264.67,-1207.72 2264.67,-1207.72 2260.83,-1207.72 2257,-1203.89 2257,-1200.05 2257,-1200.05 2257,-1192.39 2257,-1192.39 2257,-1188.55 2260.83,-1184.72 2264.67,-1184.72 2264.67,-1184.72 2403.33,-1184.72 2403.33,-1184.72 2407.17,-1184.72 2411,-1188.55 2411,-1192.39 2411,-1192.39 2411,-1200.05 2411,-1200.05 2411,-1203.89 2407.17,-1207.72 2403.33,-1207.72"/>
<text text-anchor="middle" x="2334" y="-1192.52" font-family="Arial" font-size="14.00" fill="#c6c5fe">symbols/breastCup.js</text>
</g>
<!-- actions/Player.js&#45;&gt;symbols/breastCup.js -->
<g id="edge13" class="edge"><title>actions/Player.js&#45;&gt;symbols/breastCup.js</title>
<path fill="none" stroke="#757575" d="M2137.73,-919.866C2168.79,-963.827 2279.16,-1120.02 2318.74,-1176.04"/>
<polygon fill="#757575" stroke="#757575" points="2316.04,-1178.28 2324.67,-1184.43 2321.76,-1174.24 2316.04,-1178.28"/>
</g>
<!-- symbols/cockType.js -->
<g id="node15" class="node"><title>symbols/cockType.js</title>
<path fill="none" stroke="#cfffac" d="M2401.33,-899.719C2401.33,-899.719 2266.67,-899.719 2266.67,-899.719 2262.83,-899.719 2259,-895.886 2259,-892.053 2259,-892.053 2259,-884.386 2259,-884.386 2259,-880.553 2262.83,-876.719 2266.67,-876.719 2266.67,-876.719 2401.33,-876.719 2401.33,-876.719 2405.17,-876.719 2409,-880.553 2409,-884.386 2409,-884.386 2409,-892.053 2409,-892.053 2409,-895.886 2405.17,-899.719 2401.33,-899.719"/>
<text text-anchor="middle" x="2334" y="-884.519" font-family="Arial" font-size="14.00" fill="#cfffac">symbols/cockType.js</text>
</g>
<!-- actions/Player.js&#45;&gt;symbols/cockType.js -->
<g id="edge14" class="edge"><title>actions/Player.js&#45;&gt;symbols/cockType.js</title>
<path fill="none" stroke="#757575" d="M2188.09,-902.461C2206.97,-900.605 2228.29,-898.51 2248.65,-896.509"/>
<polygon fill="#757575" stroke="#757575" points="2249.26,-899.966 2258.87,-895.504 2248.58,-892.999 2249.26,-899.966"/>
</g>
<!-- symbols/vaginas.js -->
<g id="node16" class="node"><title>symbols/vaginas.js</title>
<path fill="none" stroke="#c6c5fe" d="M2575.33,-918.719C2575.33,-918.719 2454.67,-918.719 2454.67,-918.719 2450.83,-918.719 2447,-914.886 2447,-911.053 2447,-911.053 2447,-903.386 2447,-903.386 2447,-899.553 2450.83,-895.719 2454.67,-895.719 2454.67,-895.719 2575.33,-895.719 2575.33,-895.719 2579.17,-895.719 2583,-899.553 2583,-903.386 2583,-903.386 2583,-911.053 2583,-911.053 2583,-914.886 2579.17,-918.719 2575.33,-918.719"/>
<text text-anchor="middle" x="2515" y="-903.519" font-family="Arial" font-size="14.00" fill="#c6c5fe">symbols/vaginas.js</text>
</g>
<!-- actions/Player.js&#45;&gt;symbols/vaginas.js -->
<g id="edge15" class="edge"><title>actions/Player.js&#45;&gt;symbols/vaginas.js</title>
<path fill="none" stroke="#757575" d="M2188.27,-908.385C2245.22,-908.507 2334.03,-908.593 2411,-908.219 2419.35,-908.179 2428.09,-908.12 2436.79,-908.05"/>
<polygon fill="#757575" stroke="#757575" points="2436.99,-911.549 2446.96,-907.964 2436.93,-904.549 2436.99,-911.549"/>
</g>
<!-- utils.js -->
<g id="node41" class="node"><title>utils.js</title>
<path fill="none" stroke="#cfffac" d="M3313.33,-698.719C3313.33,-698.719 3272.67,-698.719 3272.67,-698.719 3268.83,-698.719 3265,-694.886 3265,-691.053 3265,-691.053 3265,-683.386 3265,-683.386 3265,-679.553 3268.83,-675.719 3272.67,-675.719 3272.67,-675.719 3313.33,-675.719 3313.33,-675.719 3317.17,-675.719 3321,-679.553 3321,-683.386 3321,-683.386 3321,-691.053 3321,-691.053 3321,-694.886 3317.17,-698.719 3313.33,-698.719"/>
<text text-anchor="middle" x="3293" y="-683.519" font-family="Arial" font-size="14.00" fill="#cfffac">utils.js</text>
</g>
<!-- symbols/breastCup.js&#45;&gt;utils.js -->
<g id="edge109" class="edge"><title>symbols/breastCup.js&#45;&gt;utils.js</title>
<path fill="none" stroke="#757575" d="M2411.03,-1195.89C2486.02,-1195.6 2603.91,-1195.22 2706,-1195.22 2706,-1195.22 2706,-1195.22 2925,-1195.22 3060.57,-1195.22 3130.88,-1263.77 3229,-1170.22 3262.9,-1137.9 3285.3,-799.844 3290.72,-709.38"/>
<polygon fill="#757575" stroke="#757575" points="3294.23,-709.363 3291.33,-699.174 3287.24,-708.951 3294.23,-709.363"/>
</g>
<!-- symbols/vaginas.js&#45;&gt;utils.js -->
<g id="edge123" class="edge"><title>symbols/vaginas.js&#45;&gt;utils.js</title>
<path fill="none" stroke="#757575" d="M2568.44,-918.762C2695.76,-943.588 3025.65,-988.36 3229,-838.219 3270.88,-807.295 3285.09,-743.252 3289.78,-709.364"/>
<polygon fill="#757575" stroke="#757575" points="3293.29,-709.469 3291.03,-699.118 3286.34,-708.62 3293.29,-709.469"/>
</g>
<!-- appearance/appearance.js -->
<g id="node17" class="node"><title>appearance/appearance.js</title>
<path fill="none" stroke="#c6c5fe" d="M2213.33,-1169.72C2213.33,-1169.72 2043.67,-1169.72 2043.67,-1169.72 2039.83,-1169.72 2036,-1165.89 2036,-1162.05 2036,-1162.05 2036,-1154.39 2036,-1154.39 2036,-1150.55 2039.83,-1146.72 2043.67,-1146.72 2043.67,-1146.72 2213.33,-1146.72 2213.33,-1146.72 2217.17,-1146.72 2221,-1150.55 2221,-1154.39 2221,-1154.39 2221,-1162.05 2221,-1162.05 2221,-1165.89 2217.17,-1169.72 2213.33,-1169.72"/>
<text text-anchor="middle" x="2128.5" y="-1154.52" font-family="Arial" font-size="14.00" fill="#c6c5fe">appearance/appearance.js</text>
</g>
<!-- appearance/appearance.js&#45;&gt;store/store.js -->
<g id="edge16" class="edge"><title>appearance/appearance.js&#45;&gt;store/store.js</title>
<path fill="none" stroke="#757575" d="M2149.06,-1146.68C2200.45,-1115.32 2340.18,-1023.12 2411,-908.219 2487.24,-784.523 2507.65,-604.868 2512.57,-543.061"/>
<polygon fill="#757575" stroke="#757575" points="2516.07,-543.163 2513.32,-532.932 2509.09,-542.647 2516.07,-543.163"/>
</g>
<!-- appearance/appearance.js&#45;&gt;symbols/breastCup.js -->
<g id="edge17" class="edge"><title>appearance/appearance.js&#45;&gt;symbols/breastCup.js</title>
<path fill="none" stroke="#757575" d="M2191.11,-1169.72C2213.22,-1173.85 2238.35,-1178.54 2261.25,-1182.82"/>
<polygon fill="#757575" stroke="#757575" points="2260.78,-1186.29 2271.25,-1184.69 2262.06,-1179.41 2260.78,-1186.29"/>
</g>
<!-- symbols/gender.js -->
<g id="node18" class="node"><title>symbols/gender.js</title>
<path fill="none" stroke="#c6c5fe" d="M2392.83,-1248.72C2392.83,-1248.72 2275.17,-1248.72 2275.17,-1248.72 2271.33,-1248.72 2267.5,-1244.89 2267.5,-1241.05 2267.5,-1241.05 2267.5,-1233.39 2267.5,-1233.39 2267.5,-1229.55 2271.33,-1225.72 2275.17,-1225.72 2275.17,-1225.72 2392.83,-1225.72 2392.83,-1225.72 2396.67,-1225.72 2400.5,-1229.55 2400.5,-1233.39 2400.5,-1233.39 2400.5,-1241.05 2400.5,-1241.05 2400.5,-1244.89 2396.67,-1248.72 2392.83,-1248.72"/>
<text text-anchor="middle" x="2334" y="-1233.52" font-family="Arial" font-size="14.00" fill="#c6c5fe">symbols/gender.js</text>
</g>
<!-- appearance/appearance.js&#45;&gt;symbols/gender.js -->
<g id="edge18" class="edge"><title>appearance/appearance.js&#45;&gt;symbols/gender.js</title>
<path fill="none" stroke="#757575" d="M2152.08,-1169.8C2177.22,-1182.39 2219.28,-1202.53 2257,-1216.22 2263.4,-1218.54 2270.18,-1220.75 2276.95,-1222.81"/>
<polygon fill="#757575" stroke="#757575" points="2276.24,-1226.25 2286.82,-1225.71 2278.21,-1219.53 2276.24,-1226.25"/>
</g>
<!-- symbols/gender.js&#45;&gt;utils.js -->
<g id="edge115" class="edge"><title>symbols/gender.js&#45;&gt;utils.js</title>
<path fill="none" stroke="#757575" d="M2400.68,-1236.65C2474.83,-1236.06 2599.08,-1235.22 2706,-1235.22 2706,-1235.22 2706,-1235.22 2925,-1235.22 3060.6,-1235.22 3131.46,-1303.42 3229,-1209.22 3265.59,-1173.88 3286.23,-804.216 3290.95,-709.322"/>
<polygon fill="#757575" stroke="#757575" points="3294.45,-709.312 3291.45,-699.153 3287.46,-708.97 3294.45,-709.312"/>
</g>
<!-- components/appRoot.js -->
<g id="node19" class="node"><title>components/appRoot.js</title>
<path fill="none" stroke="#c6c5fe" d="M298.333,-396.719C298.333,-396.719 145.667,-396.719 145.667,-396.719 141.833,-396.719 138,-392.886 138,-389.053 138,-389.053 138,-381.386 138,-381.386 138,-377.553 141.833,-373.719 145.667,-373.719 145.667,-373.719 298.333,-373.719 298.333,-373.719 302.167,-373.719 306,-377.553 306,-381.386 306,-381.386 306,-389.053 306,-389.053 306,-392.886 302.167,-396.719 298.333,-396.719"/>
<text text-anchor="middle" x="222" y="-381.519" font-family="Arial" font-size="14.00" fill="#c6c5fe">components/appRoot.js</text>
</g>
<!-- components/lowerButtons.js -->
<g id="node20" class="node"><title>components/lowerButtons.js</title>
<path fill="none" stroke="#c6c5fe" d="M529.333,-478.719C529.333,-478.719 349.667,-478.719 349.667,-478.719 345.833,-478.719 342,-474.886 342,-471.053 342,-471.053 342,-463.386 342,-463.386 342,-459.553 345.833,-455.719 349.667,-455.719 349.667,-455.719 529.333,-455.719 529.333,-455.719 533.167,-455.719 537,-459.553 537,-463.386 537,-463.386 537,-471.053 537,-471.053 537,-474.886 533.167,-478.719 529.333,-478.719"/>
<text text-anchor="middle" x="439.5" y="-463.519" font-family="Arial" font-size="14.00" fill="#c6c5fe">components/lowerButtons.js</text>
</g>
<!-- components/appRoot.js&#45;&gt;components/lowerButtons.js -->
<g id="edge19" class="edge"><title>components/appRoot.js&#45;&gt;components/lowerButtons.js</title>
<path fill="none" stroke="#757575" d="M241.687,-396.74C264.56,-410.377 304.845,-432.91 342,-446.219 349.207,-448.801 356.835,-451.121 364.519,-453.192"/>
<polygon fill="#757575" stroke="#757575" points="363.698,-456.594 374.253,-455.683 365.433,-449.813 363.698,-456.594"/>
</g>
<!-- components/menuBar.js -->
<g id="node21" class="node"><title>components/menuBar.js</title>
<path fill="none" stroke="#c6c5fe" d="M516.833,-437.719C516.833,-437.719 362.167,-437.719 362.167,-437.719 358.333,-437.719 354.5,-433.886 354.5,-430.053 354.5,-430.053 354.5,-422.386 354.5,-422.386 354.5,-418.553 358.333,-414.719 362.167,-414.719 362.167,-414.719 516.833,-414.719 516.833,-414.719 520.667,-414.719 524.5,-418.553 524.5,-422.386 524.5,-422.386 524.5,-430.053 524.5,-430.053 524.5,-433.886 520.667,-437.719 516.833,-437.719"/>
<text text-anchor="middle" x="439.5" y="-422.519" font-family="Arial" font-size="14.00" fill="#c6c5fe">components/menuBar.js</text>
</g>
<!-- components/appRoot.js&#45;&gt;components/menuBar.js -->
<g id="edge20" class="edge"><title>components/appRoot.js&#45;&gt;components/menuBar.js</title>
<path fill="none" stroke="#757575" d="M283.602,-396.749C309.88,-401.749 340.817,-407.635 368.106,-412.826"/>
<polygon fill="#757575" stroke="#757575" points="367.502,-416.274 377.98,-414.705 368.81,-409.398 367.502,-416.274"/>
</g>
<!-- components/output.js -->
<g id="node22" class="node"><title>components/output.js</title>
<path fill="none" stroke="#cfffac" d="M507.833,-355.719C507.833,-355.719 371.167,-355.719 371.167,-355.719 367.333,-355.719 363.5,-351.886 363.5,-348.053 363.5,-348.053 363.5,-340.386 363.5,-340.386 363.5,-336.553 367.333,-332.719 371.167,-332.719 371.167,-332.719 507.833,-332.719 507.833,-332.719 511.667,-332.719 515.5,-336.553 515.5,-340.386 515.5,-340.386 515.5,-348.053 515.5,-348.053 515.5,-351.886 511.667,-355.719 507.833,-355.719"/>
<text text-anchor="middle" x="439.5" y="-340.519" font-family="Arial" font-size="14.00" fill="#cfffac">components/output.js</text>
</g>
<!-- components/appRoot.js&#45;&gt;components/output.js -->
<g id="edge21" class="edge"><title>components/appRoot.js&#45;&gt;components/output.js</title>
<path fill="none" stroke="#757575" d="M283.602,-373.689C309.88,-368.69 340.817,-362.804 368.106,-357.612"/>
<polygon fill="#757575" stroke="#757575" points="368.81,-361.041 377.98,-355.734 367.502,-354.164 368.81,-361.041"/>
</g>
<!-- components/statBar.js -->
<g id="node23" class="node"><title>components/statBar.js</title>
<path fill="none" stroke="#c6c5fe" d="M510.833,-396.719C510.833,-396.719 368.167,-396.719 368.167,-396.719 364.333,-396.719 360.5,-392.886 360.5,-389.053 360.5,-389.053 360.5,-381.386 360.5,-381.386 360.5,-377.553 364.333,-373.719 368.167,-373.719 368.167,-373.719 510.833,-373.719 510.833,-373.719 514.667,-373.719 518.5,-377.553 518.5,-381.386 518.5,-381.386 518.5,-389.053 518.5,-389.053 518.5,-392.886 514.667,-396.719 510.833,-396.719"/>
<text text-anchor="middle" x="439.5" y="-381.519" font-family="Arial" font-size="14.00" fill="#c6c5fe">components/statBar.js</text>
</g>
<!-- components/appRoot.js&#45;&gt;components/statBar.js -->
<g id="edge22" class="edge"><title>components/appRoot.js&#45;&gt;components/statBar.js</title>
<path fill="none" stroke="#757575" d="M306.01,-385.219C320.557,-385.219 335.739,-385.219 350.418,-385.219"/>
<polygon fill="#757575" stroke="#757575" points="350.486,-388.719 360.486,-385.219 350.486,-381.719 350.486,-388.719"/>
</g>
<!-- components/buttonGrid.js -->
<g id="node25" class="node"><title>components/buttonGrid.js</title>
<path fill="none" stroke="#c6c5fe" d="M752.333,-478.719C752.333,-478.719 588.667,-478.719 588.667,-478.719 584.833,-478.719 581,-474.886 581,-471.053 581,-471.053 581,-463.386 581,-463.386 581,-459.553 584.833,-455.719 588.667,-455.719 588.667,-455.719 752.333,-455.719 752.333,-455.719 756.167,-455.719 760,-459.553 760,-463.386 760,-463.386 760,-471.053 760,-471.053 760,-474.886 756.167,-478.719 752.333,-478.719"/>
<text text-anchor="middle" x="670.5" y="-463.519" font-family="Arial" font-size="14.00" fill="#c6c5fe">components/buttonGrid.js</text>
</g>
<!-- components/lowerButtons.js&#45;&gt;components/buttonGrid.js -->
<g id="edge27" class="edge"><title>components/lowerButtons.js&#45;&gt;components/buttonGrid.js</title>
<path fill="none" stroke="#757575" d="M537.285,-467.219C548.313,-467.219 559.566,-467.219 570.621,-467.219"/>
<polygon fill="#757575" stroke="#757575" points="570.705,-470.719 580.705,-467.219 570.705,-463.719 570.705,-470.719"/>
</g>
<!-- components/menuBar.js&#45;&gt;components/buttonGrid.js -->
<g id="edge28" class="edge"><title>components/menuBar.js&#45;&gt;components/buttonGrid.js</title>
<path fill="none" stroke="#757575" d="M504.899,-437.749C532.945,-442.77 565.986,-448.686 595.078,-453.895"/>
<polygon fill="#757575" stroke="#757575" points="594.728,-457.388 605.188,-455.705 595.962,-450.497 594.728,-457.388"/>
</g>
<!-- components/spriteDisplay.js -->
<g id="node30" class="node"><title>components/spriteDisplay.js</title>
<path fill="none" stroke="#cfffac" d="M760.333,-396.719C760.333,-396.719 580.667,-396.719 580.667,-396.719 576.833,-396.719 573,-392.886 573,-389.053 573,-389.053 573,-381.386 573,-381.386 573,-377.553 576.833,-373.719 580.667,-373.719 580.667,-373.719 760.333,-373.719 760.333,-373.719 764.167,-373.719 768,-377.553 768,-381.386 768,-381.386 768,-389.053 768,-389.053 768,-392.886 764.167,-396.719 760.333,-396.719"/>
<text text-anchor="middle" x="670.5" y="-381.519" font-family="Arial" font-size="14.00" fill="#cfffac">components/spriteDisplay.js</text>
</g>
<!-- components/statBar.js&#45;&gt;components/spriteDisplay.js -->
<g id="edge31" class="edge"><title>components/statBar.js&#45;&gt;components/spriteDisplay.js</title>
<path fill="none" stroke="#757575" d="M518.668,-385.219C532.775,-385.219 547.703,-385.219 562.464,-385.219"/>
<polygon fill="#757575" stroke="#757575" points="562.645,-388.719 572.645,-385.219 562.645,-381.719 562.645,-388.719"/>
</g>
<!-- components/statDisplay.js -->
<g id="node32" class="node"><title>components/statDisplay.js</title>
<path fill="none" stroke="#c6c5fe" d="M753.833,-355.719C753.833,-355.719 587.167,-355.719 587.167,-355.719 583.333,-355.719 579.5,-351.886 579.5,-348.053 579.5,-348.053 579.5,-340.386 579.5,-340.386 579.5,-336.553 583.333,-332.719 587.167,-332.719 587.167,-332.719 753.833,-332.719 753.833,-332.719 757.667,-332.719 761.5,-336.553 761.5,-340.386 761.5,-340.386 761.5,-348.053 761.5,-348.053 761.5,-351.886 757.667,-355.719 753.833,-355.719"/>
<text text-anchor="middle" x="670.5" y="-340.519" font-family="Arial" font-size="14.00" fill="#c6c5fe">components/statDisplay.js</text>
</g>
<!-- components/statBar.js&#45;&gt;components/statDisplay.js -->
<g id="edge32" class="edge"><title>components/statBar.js&#45;&gt;components/statDisplay.js</title>
<path fill="none" stroke="#757575" d="M504.899,-373.689C532.945,-368.668 565.986,-362.752 595.078,-357.544"/>
<polygon fill="#757575" stroke="#757575" points="595.962,-360.941 605.188,-355.734 594.728,-354.051 595.962,-360.941"/>
</g>
<!-- components/timeDisplay.js -->
<g id="node33" class="node"><title>components/timeDisplay.js</title>
<path fill="none" stroke="#cfffac" d="M756.333,-437.719C756.333,-437.719 584.667,-437.719 584.667,-437.719 580.833,-437.719 577,-433.886 577,-430.053 577,-430.053 577,-422.386 577,-422.386 577,-418.553 580.833,-414.719 584.667,-414.719 584.667,-414.719 756.333,-414.719 756.333,-414.719 760.167,-414.719 764,-418.553 764,-422.386 764,-422.386 764,-430.053 764,-430.053 764,-433.886 760.167,-437.719 756.333,-437.719"/>
<text text-anchor="middle" x="670.5" y="-422.519" font-family="Arial" font-size="14.00" fill="#cfffac">components/timeDisplay.js</text>
</g>
<!-- components/statBar.js&#45;&gt;components/timeDisplay.js -->
<g id="edge33" class="edge"><title>components/statBar.js&#45;&gt;components/timeDisplay.js</title>
<path fill="none" stroke="#757575" d="M504.899,-396.749C532.945,-401.77 565.986,-407.686 595.078,-412.895"/>
<polygon fill="#757575" stroke="#757575" points="594.728,-416.388 605.188,-414.705 595.962,-409.497 594.728,-416.388"/>
</g>
<!-- components/button.js -->
<g id="node24" class="node"><title>components/button.js</title>
<path fill="none" stroke="#cfffac" d="M1186.33,-437.719C1186.33,-437.719 1049.67,-437.719 1049.67,-437.719 1045.83,-437.719 1042,-433.886 1042,-430.053 1042,-430.053 1042,-422.386 1042,-422.386 1042,-418.553 1045.83,-414.719 1049.67,-414.719 1049.67,-414.719 1186.33,-414.719 1186.33,-414.719 1190.17,-414.719 1194,-418.553 1194,-422.386 1194,-422.386 1194,-430.053 1194,-430.053 1194,-433.886 1190.17,-437.719 1186.33,-437.719"/>
<text text-anchor="middle" x="1118" y="-422.519" font-family="Arial" font-size="14.00" fill="#cfffac">components/button.js</text>
</g>
<!-- components/buttonGrid.js&#45;&gt;actions/Engine.js -->
<g id="edge23" class="edge"><title>components/buttonGrid.js&#45;&gt;actions/Engine.js</title>
<path fill="none" stroke="#757575" d="M760.103,-467.219C781.669,-467.219 804.464,-467.219 825.115,-467.219"/>
<polygon fill="#757575" stroke="#757575" points="825.383,-470.719 835.383,-467.219 825.383,-463.719 825.383,-470.719"/>
</g>
<!-- components/buttonWrap.js -->
<g id="node26" class="node"><title>components/buttonWrap.js</title>
<path fill="none" stroke="#c6c5fe" d="M983.333,-437.719C983.333,-437.719 811.667,-437.719 811.667,-437.719 807.833,-437.719 804,-433.886 804,-430.053 804,-430.053 804,-422.386 804,-422.386 804,-418.553 807.833,-414.719 811.667,-414.719 811.667,-414.719 983.333,-414.719 983.333,-414.719 987.167,-414.719 991,-418.553 991,-422.386 991,-422.386 991,-430.053 991,-430.053 991,-433.886 987.167,-437.719 983.333,-437.719"/>
<text text-anchor="middle" x="897.5" y="-422.519" font-family="Arial" font-size="14.00" fill="#c6c5fe">components/buttonWrap.js</text>
</g>
<!-- components/buttonGrid.js&#45;&gt;components/buttonWrap.js -->
<g id="edge24" class="edge"><title>components/buttonGrid.js&#45;&gt;components/buttonWrap.js</title>
<path fill="none" stroke="#757575" d="M734.774,-455.689C762.33,-450.668 794.794,-444.752 823.378,-439.544"/>
<polygon fill="#757575" stroke="#757575" points="824.101,-442.97 833.312,-437.734 822.846,-436.083 824.101,-442.97"/>
</g>
<!-- components/buttonWrap.js&#45;&gt;components/button.js -->
<g id="edge25" class="edge"><title>components/buttonWrap.js&#45;&gt;components/button.js</title>
<path fill="none" stroke="#757575" d="M991.164,-426.219C1004.6,-426.219 1018.39,-426.219 1031.67,-426.219"/>
<polygon fill="#757575" stroke="#757575" points="1031.72,-429.719 1041.72,-426.219 1031.72,-422.719 1031.72,-429.719"/>
</g>
<!-- components/dropdown.js -->
<g id="node27" class="node"><title>components/dropdown.js</title>
<path fill="none" stroke="#c6c5fe" d="M2787.33,-167.719C2787.33,-167.719 2626.67,-167.719 2626.67,-167.719 2622.83,-167.719 2619,-163.886 2619,-160.053 2619,-160.053 2619,-152.386 2619,-152.386 2619,-148.553 2622.83,-144.719 2626.67,-144.719 2626.67,-144.719 2787.33,-144.719 2787.33,-144.719 2791.17,-144.719 2795,-148.553 2795,-152.386 2795,-152.386 2795,-160.053 2795,-160.053 2795,-163.886 2791.17,-167.719 2787.33,-167.719"/>
<text text-anchor="middle" x="2707" y="-152.519" font-family="Arial" font-size="14.00" fill="#c6c5fe">components/dropdown.js</text>
</g>
<!-- symbols/perks.js -->
<g id="node28" class="node"><title>symbols/perks.js</title>
<path fill="none" stroke="#c6c5fe" d="M2977.83,-167.719C2977.83,-167.719 2870.17,-167.719 2870.17,-167.719 2866.33,-167.719 2862.5,-163.886 2862.5,-160.053 2862.5,-160.053 2862.5,-152.386 2862.5,-152.386 2862.5,-148.553 2866.33,-144.719 2870.17,-144.719 2870.17,-144.719 2977.83,-144.719 2977.83,-144.719 2981.67,-144.719 2985.5,-148.553 2985.5,-152.386 2985.5,-152.386 2985.5,-160.053 2985.5,-160.053 2985.5,-163.886 2981.67,-167.719 2977.83,-167.719"/>
<text text-anchor="middle" x="2924" y="-152.519" font-family="Arial" font-size="14.00" fill="#c6c5fe">symbols/perks.js</text>
</g>
<!-- components/dropdown.js&#45;&gt;symbols/perks.js -->
<g id="edge26" class="edge"><title>components/dropdown.js&#45;&gt;symbols/perks.js</title>
<path fill="none" stroke="#757575" d="M2795.14,-156.219C2814.1,-156.219 2833.95,-156.219 2852.19,-156.219"/>
<polygon fill="#757575" stroke="#757575" points="2852.43,-159.719 2862.43,-156.219 2852.43,-152.719 2852.43,-159.719"/>
</g>
<!-- symbols/perks.js&#45;&gt;actions/engineMsg.js -->
<g id="edge119" class="edge"><title>symbols/perks.js&#45;&gt;actions/engineMsg.js</title>
<path fill="none" stroke="#757575" d="M2985.75,-156.219C3007.6,-156.219 3032.65,-156.219 3056.12,-156.219"/>
<polygon fill="#757575" stroke="#757575" points="3056.42,-159.719 3066.42,-156.219 3056.42,-152.719 3056.42,-159.719"/>
</g>
<!-- components/nameInput.js -->
<g id="node29" class="node"><title>components/nameInput.js</title>
<path fill="none" stroke="#c6c5fe" d="M1992.33,-899.719C1992.33,-899.719 1827.67,-899.719 1827.67,-899.719 1823.83,-899.719 1820,-895.886 1820,-892.053 1820,-892.053 1820,-884.386 1820,-884.386 1820,-880.553 1823.83,-876.719 1827.67,-876.719 1827.67,-876.719 1992.33,-876.719 1992.33,-876.719 1996.17,-876.719 2000,-880.553 2000,-884.386 2000,-884.386 2000,-892.053 2000,-892.053 2000,-895.886 1996.17,-899.719 1992.33,-899.719"/>
<text text-anchor="middle" x="1910" y="-884.519" font-family="Arial" font-size="14.00" fill="#c6c5fe">components/nameInput.js</text>
</g>
<!-- components/nameInput.js&#45;&gt;store/store.js -->
<g id="edge30" class="edge"><title>components/nameInput.js&#45;&gt;store/store.js</title>
<path fill="none" stroke="#757575" d="M2000.34,-889.185C2069.62,-885.017 2163.26,-867.854 2221,-810.219 2267.08,-764.222 2210.82,-714.111 2257,-668.219 2307.01,-618.529 2350.1,-665.725 2411,-630.219 2449.86,-607.563 2483.19,-565.837 2500.74,-541.103"/>
<polygon fill="#757575" stroke="#757575" points="2503.66,-543.039 2506.48,-532.826 2497.91,-539.052 2503.66,-543.039"/>
</g>
<!-- components/nameInput.js&#45;&gt;actions/Player.js -->
<g id="edge29" class="edge"><title>components/nameInput.js&#45;&gt;actions/Player.js</title>
<path fill="none" stroke="#757575" d="M2000.31,-896.469C2019.77,-898.267 2040.07,-900.143 2058.59,-901.854"/>
<polygon fill="#757575" stroke="#757575" points="2058.4,-905.351 2068.68,-902.786 2059.05,-898.381 2058.4,-905.351"/>
</g>
<!-- components/stat.js -->
<g id="node31" class="node"><title>components/stat.js</title>
<path fill="none" stroke="#cfffac" d="M957.833,-355.719C957.833,-355.719 837.167,-355.719 837.167,-355.719 833.333,-355.719 829.5,-351.886 829.5,-348.053 829.5,-348.053 829.5,-340.386 829.5,-340.386 829.5,-336.553 833.333,-332.719 837.167,-332.719 837.167,-332.719 957.833,-332.719 957.833,-332.719 961.667,-332.719 965.5,-336.553 965.5,-340.386 965.5,-340.386 965.5,-348.053 965.5,-348.053 965.5,-351.886 961.667,-355.719 957.833,-355.719"/>
<text text-anchor="middle" x="897.5" y="-340.519" font-family="Arial" font-size="14.00" fill="#cfffac">components/stat.js</text>
</g>
<!-- components/statDisplay.js&#45;&gt;components/stat.js -->
<g id="edge34" class="edge"><title>components/statDisplay.js&#45;&gt;components/stat.js</title>
<path fill="none" stroke="#757575" d="M761.72,-344.219C780.804,-344.219 800.779,-344.219 819.327,-344.219"/>
<polygon fill="#757575" stroke="#757575" points="819.471,-347.719 829.471,-344.219 819.471,-340.719 819.471,-347.719"/>
</g>
<!-- index.js -->
<g id="node34" class="node"><title>index.js</title>
<path fill="none" stroke="#c6c5fe" d="M75.8333,-355.719C75.8333,-355.719 26.1667,-355.719 26.1667,-355.719 22.3333,-355.719 18.5,-351.886 18.5,-348.053 18.5,-348.053 18.5,-340.386 18.5,-340.386 18.5,-336.553 22.3333,-332.719 26.1667,-332.719 26.1667,-332.719 75.8333,-332.719 75.8333,-332.719 79.6667,-332.719 83.5,-336.553 83.5,-340.386 83.5,-340.386 83.5,-348.053 83.5,-348.053 83.5,-351.886 79.6667,-355.719 75.8333,-355.719"/>
<text text-anchor="middle" x="51" y="-340.519" font-family="Arial" font-size="14.00" fill="#c6c5fe">index.js</text>
</g>
<!-- index.js&#45;&gt;store/store.js -->
<g id="edge36" class="edge"><title>index.js&#45;&gt;store/store.js</title>
<path fill="none" stroke="#757575" d="M83.952,-338.657C149.963,-327.667 306.28,-304.219 438.5,-304.219 438.5,-304.219 438.5,-304.219 1119,-304.219 1532.71,-304.219 1626.67,-404.148 2036,-464.219 2186.68,-486.332 2365.04,-505.846 2455.33,-515.256"/>
<polygon fill="#757575" stroke="#757575" points="2455.06,-518.747 2465.37,-516.298 2455.79,-511.784 2455.06,-518.747"/>
</g>
<!-- index.js&#45;&gt;components/appRoot.js -->
<g id="edge35" class="edge"><title>index.js&#45;&gt;components/appRoot.js</title>
<path fill="none" stroke="#757575" d="M83.7876,-351.931C106.171,-357.361 136.77,-364.785 163.392,-371.243"/>
<polygon fill="#757575" stroke="#757575" points="162.832,-374.709 173.376,-373.665 164.483,-367.906 162.832,-374.709"/>
</g>
<!-- reducers/root.js&#45;&gt;actions/coreMsg.js -->
<g id="edge37" class="edge"><title>reducers/root.js&#45;&gt;actions/coreMsg.js</title>
<path fill="none" stroke="#757575" d="M2765.28,-508.559C2829.58,-513.21 2935.56,-513.337 3017,-476.219 3037.31,-466.965 3033.4,-451.891 3053,-441.219 3056.33,-439.408 3059.81,-437.76 3063.39,-436.262"/>
<polygon fill="#757575" stroke="#757575" points="3064.93,-439.424 3073.06,-432.631 3062.46,-432.871 3064.93,-439.424"/>
</g>
<!-- reducers/root.js&#45;&gt;actions/enemyMsg.js -->
<g id="edge38" class="edge"><title>reducers/root.js&#45;&gt;actions/enemyMsg.js</title>
<path fill="none" stroke="#757575" d="M2710.43,-513.902C2719.17,-552.918 2752.72,-679.877 2831,-744.219 2835.88,-748.231 2841.34,-751.624 2847.11,-754.495"/>
<polygon fill="#757575" stroke="#757575" points="2845.81,-757.749 2856.37,-758.589 2848.64,-751.346 2845.81,-757.749"/>
</g>
<!-- reducers/root.js&#45;&gt;actions/invMsg.js -->
<g id="edge40" class="edge"><title>reducers/root.js&#45;&gt;actions/invMsg.js</title>
<path fill="none" stroke="#757575" d="M2710.34,-490.369C2721.89,-433.122 2774.45,-185.899 2831,-135.219 2837.14,-129.713 2844.44,-125.6 2852.2,-122.546"/>
<polygon fill="#757575" stroke="#757575" points="2853.47,-125.812 2861.84,-119.323 2851.25,-119.173 2853.47,-125.812"/>
</g>
<!-- reducers/root.js&#45;&gt;actions/engineMsg.js -->
<g id="edge39" class="edge"><title>reducers/root.js&#45;&gt;actions/engineMsg.js</title>
<path fill="none" stroke="#757575" d="M2713.63,-490.344C2728.79,-459.407 2773.23,-375.14 2831,-323.219 2913.44,-249.125 3034.6,-196.055 3097.93,-171.509"/>
<polygon fill="#757575" stroke="#757575" points="3099.49,-174.658 3107.58,-167.815 3096.99,-168.12 3099.49,-174.658"/>
</g>
<!-- reducers/root.js&#45;&gt;actions/playerMsg.js -->
<g id="edge41" class="edge"><title>reducers/root.js&#45;&gt;actions/playerMsg.js</title>
<path fill="none" stroke="#757575" d="M2713.78,-490.673C2728.66,-462.371 2771.36,-389.709 2831,-360.219 2901.77,-325.227 2993.06,-324.136 3058.02,-329.562"/>
<polygon fill="#757575" stroke="#757575" points="3057.94,-333.069 3068.22,-330.485 3058.57,-326.097 3057.94,-333.069"/>
</g>
<!-- reducers/root.js&#45;&gt;symbols/perks.js -->
<g id="edge47" class="edge"><title>reducers/root.js&#45;&gt;symbols/perks.js</title>
<path fill="none" stroke="#757575" d="M2714.34,-490.477C2731.98,-457.974 2783.49,-364.263 2831,-289.219 2857.06,-248.053 2890.07,-201.581 2908.63,-175.914"/>
<polygon fill="#757575" stroke="#757575" points="2911.51,-177.895 2914.55,-167.746 2905.85,-173.785 2911.51,-177.895"/>
</g>
<!-- reducers/updateBodyArr.js -->
<g id="node36" class="node"><title>reducers/updateBodyArr.js</title>
<path fill="none" stroke="#c6c5fe" d="M3009.33,-392.719C3009.33,-392.719 2838.67,-392.719 2838.67,-392.719 2834.83,-392.719 2831,-388.886 2831,-385.053 2831,-385.053 2831,-377.386 2831,-377.386 2831,-373.553 2834.83,-369.719 2838.67,-369.719 2838.67,-369.719 3009.33,-369.719 3009.33,-369.719 3013.17,-369.719 3017,-373.553 3017,-377.386 3017,-377.386 3017,-385.053 3017,-385.053 3017,-388.886 3013.17,-392.719 3009.33,-392.719"/>
<text text-anchor="middle" x="2924" y="-377.519" font-family="Arial" font-size="14.00" fill="#c6c5fe">reducers/updateBodyArr.js</text>
</g>
<!-- reducers/root.js&#45;&gt;reducers/updateBodyArr.js -->
<g id="edge42" class="edge"><title>reducers/root.js&#45;&gt;reducers/updateBodyArr.js</title>
<path fill="none" stroke="#757575" d="M2718.57,-490.439C2738.41,-469.117 2783.5,-424.212 2831,-401.219 2835,-399.284 2839.18,-397.535 2843.47,-395.953"/>
<polygon fill="#757575" stroke="#757575" points="2844.63,-399.257 2852.99,-392.752 2842.4,-392.622 2844.63,-399.257"/>
</g>
<!-- reducers/updateButtons.js -->
<g id="node37" class="node"><title>reducers/updateButtons.js</title>
<path fill="none" stroke="#c6c5fe" d="M3007.33,-551.719C3007.33,-551.719 2840.67,-551.719 2840.67,-551.719 2836.83,-551.719 2833,-547.886 2833,-544.053 2833,-544.053 2833,-536.386 2833,-536.386 2833,-532.553 2836.83,-528.719 2840.67,-528.719 2840.67,-528.719 3007.33,-528.719 3007.33,-528.719 3011.17,-528.719 3015,-532.553 3015,-536.386 3015,-536.386 3015,-544.053 3015,-544.053 3015,-547.886 3011.17,-551.719 3007.33,-551.719"/>
<text text-anchor="middle" x="2924" y="-536.519" font-family="Arial" font-size="14.00" fill="#c6c5fe">reducers/updateButtons.js</text>
</g>
<!-- reducers/root.js&#45;&gt;reducers/updateButtons.js -->
<g id="edge43" class="edge"><title>reducers/root.js&#45;&gt;reducers/updateButtons.js</title>
<path fill="none" stroke="#757575" d="M2765.05,-512.303C2790.42,-516.787 2820.65,-522.129 2847.83,-526.933"/>
<polygon fill="#757575" stroke="#757575" points="2847.23,-530.382 2857.69,-528.676 2848.45,-523.489 2847.23,-530.382"/>
</g>
<!-- reducers/updateStats.js -->
<g id="node38" class="node"><title>reducers/updateStats.js</title>
<path fill="none" stroke="#c6c5fe" d="M2999.83,-433.719C2999.83,-433.719 2848.17,-433.719 2848.17,-433.719 2844.33,-433.719 2840.5,-429.886 2840.5,-426.053 2840.5,-426.053 2840.5,-418.386 2840.5,-418.386 2840.5,-414.553 2844.33,-410.719 2848.17,-410.719 2848.17,-410.719 2999.83,-410.719 2999.83,-410.719 3003.67,-410.719 3007.5,-414.553 3007.5,-418.386 3007.5,-418.386 3007.5,-426.053 3007.5,-426.053 3007.5,-429.886 3003.67,-433.719 2999.83,-433.719"/>
<text text-anchor="middle" x="2924" y="-418.519" font-family="Arial" font-size="14.00" fill="#c6c5fe">reducers/updateStats.js</text>
</g>
<!-- reducers/root.js&#45;&gt;reducers/updateStats.js -->
<g id="edge44" class="edge"><title>reducers/root.js&#45;&gt;reducers/updateStats.js</title>
<path fill="none" stroke="#757575" d="M2739.26,-490.587C2777.11,-476.505 2840.92,-452.759 2882.5,-437.288"/>
<polygon fill="#757575" stroke="#757575" points="2883.9,-440.504 2892.05,-433.736 2881.46,-433.943 2883.9,-440.504"/>
</g>
<!-- reducers/updateTime.js -->
<g id="node39" class="node"><title>reducers/updateTime.js</title>
<path fill="none" stroke="#c6c5fe" d="M2999.83,-669.719C2999.83,-669.719 2848.17,-669.719 2848.17,-669.719 2844.33,-669.719 2840.5,-665.886 2840.5,-662.053 2840.5,-662.053 2840.5,-654.386 2840.5,-654.386 2840.5,-650.553 2844.33,-646.719 2848.17,-646.719 2848.17,-646.719 2999.83,-646.719 2999.83,-646.719 3003.67,-646.719 3007.5,-650.553 3007.5,-654.386 3007.5,-654.386 3007.5,-662.053 3007.5,-662.053 3007.5,-665.886 3003.67,-669.719 2999.83,-669.719"/>
<text text-anchor="middle" x="2924" y="-654.519" font-family="Arial" font-size="14.00" fill="#c6c5fe">reducers/updateTime.js</text>
</g>
<!-- reducers/root.js&#45;&gt;reducers/updateTime.js -->
<g id="edge45" class="edge"><title>reducers/root.js&#45;&gt;reducers/updateTime.js</title>
<path fill="none" stroke="#757575" d="M2720.34,-513.812C2741.86,-533.737 2788.08,-575.227 2831,-605.219 2850.3,-618.706 2873.25,-631.929 2891.39,-641.793"/>
<polygon fill="#757575" stroke="#757575" points="2889.93,-644.983 2900.4,-646.63 2893.25,-638.816 2889.93,-644.983"/>
</g>
<!-- store/initialState.js -->
<g id="node40" class="node"><title>store/initialState.js</title>
<path fill="none" stroke="#c6c5fe" d="M2981.83,-596.719C2981.83,-596.719 2866.17,-596.719 2866.17,-596.719 2862.33,-596.719 2858.5,-592.886 2858.5,-589.053 2858.5,-589.053 2858.5,-581.386 2858.5,-581.386 2858.5,-577.553 2862.33,-573.719 2866.17,-573.719 2866.17,-573.719 2981.83,-573.719 2981.83,-573.719 2985.67,-573.719 2989.5,-577.553 2989.5,-581.386 2989.5,-581.386 2989.5,-589.053 2989.5,-589.053 2989.5,-592.886 2985.67,-596.719 2981.83,-596.719"/>
<text text-anchor="middle" x="2924" y="-581.519" font-family="Arial" font-size="14.00" fill="#c6c5fe">store/initialState.js</text>
</g>
<!-- reducers/root.js&#45;&gt;store/initialState.js -->
<g id="edge46" class="edge"><title>reducers/root.js&#45;&gt;store/initialState.js</title>
<path fill="none" stroke="#757575" d="M2729.72,-513.89C2753.92,-526.551 2794.45,-546.753 2831,-560.219 2841.69,-564.158 2853.28,-567.786 2864.52,-570.986"/>
<polygon fill="#757575" stroke="#757575" points="2863.7,-574.39 2874.27,-573.684 2865.57,-567.644 2863.7,-574.39"/>
</g>
<!-- reducers/root.js&#45;&gt;utils.js -->
<g id="edge48" class="edge"><title>reducers/root.js&#45;&gt;utils.js</title>
<path fill="none" stroke="#757575" d="M2712.98,-514.049C2726.84,-545.571 2768.98,-632.308 2831,-678.219 2903.24,-731.695 3145.96,-784.615 3229,-750.219 3250.02,-741.51 3267.69,-722.004 3278.92,-706.986"/>
<polygon fill="#757575" stroke="#757575" points="3281.81,-708.956 3284.76,-698.779 3276.11,-704.897 3281.81,-708.956"/>
</g>
<!-- reducers/updateBodyArr.js&#45;&gt;actions/playerMsg.js -->
<g id="edge49" class="edge"><title>reducers/updateBodyArr.js&#45;&gt;actions/playerMsg.js</title>
<path fill="none" stroke="#757575" d="M2986.9,-369.703C3012.31,-364.976 3041.89,-359.472 3068.24,-354.57"/>
<polygon fill="#757575" stroke="#757575" points="3068.98,-357.993 3078.17,-352.723 3067.69,-351.111 3068.98,-357.993"/>
</g>
<!-- reducers/updateButtons.js&#45;&gt;actions/coreMsg.js -->
<g id="edge50" class="edge"><title>reducers/updateButtons.js&#45;&gt;actions/coreMsg.js</title>
<path fill="none" stroke="#757575" d="M2991.69,-528.669C3000.83,-525.079 3009.6,-520.377 3017,-514.219 3044.81,-491.08 3024.63,-463.664 3053,-441.219 3056.42,-438.515 3060.14,-436.163 3064.05,-434.12"/>
<polygon fill="#757575" stroke="#757575" points="3065.78,-437.179 3073.47,-429.889 3062.91,-430.793 3065.78,-437.179"/>
</g>
<!-- reducers/updateStats.js&#45;&gt;actions/coreMsg.js -->
<g id="edge51" class="edge"><title>reducers/updateStats.js&#45;&gt;actions/coreMsg.js</title>
<path fill="none" stroke="#757575" d="M3007.51,-421.835C3025.81,-421.75 3045.13,-421.661 3063.19,-421.577"/>
<polygon fill="#757575" stroke="#757575" points="3063.39,-425.076 3073.37,-421.529 3063.36,-418.076 3063.39,-425.076"/>
</g>
<!-- reducers/updateStats.js&#45;&gt;actions/playerMsg.js -->
<g id="edge52" class="edge"><title>reducers/updateStats.js&#45;&gt;actions/playerMsg.js</title>
<path fill="none" stroke="#757575" d="M2994.29,-410.652C3002.18,-408.106 3009.92,-405.002 3017,-401.219 3036.41,-390.85 3033.94,-378.224 3053,-367.219 3060.54,-362.867 3068.87,-359.182 3077.31,-356.08"/>
<polygon fill="#757575" stroke="#757575" points="3078.51,-359.368 3086.84,-352.82 3076.24,-352.745 3078.51,-359.368"/>
</g>
<!-- reducers/updateStats.js&#45;&gt;utils.js -->
<g id="edge53" class="edge"><title>reducers/updateStats.js&#45;&gt;utils.js</title>
<path fill="none" stroke="#757575" d="M2974.92,-410.67C3051,-394.355 3191.12,-369.75 3229,-400.219 3270.63,-433.703 3286.31,-604.532 3290.64,-665.534"/>
<polygon fill="#757575" stroke="#757575" points="3287.15,-665.847 3291.32,-675.589 3294.14,-665.376 3287.15,-665.847"/>
</g>
<!-- reducers/updateTime.js&#45;&gt;utils.js -->
<g id="edge54" class="edge"><title>reducers/updateTime.js&#45;&gt;utils.js</title>
<path fill="none" stroke="#757575" d="M2940.08,-669.8C2962.99,-686.575 3008.58,-716.867 3053,-728.219 3128.79,-747.588 3154.01,-750.472 3229,-728.219 3244.35,-723.663 3259.46,-714.054 3271.04,-705.283"/>
<polygon fill="#757575" stroke="#757575" points="3273.49,-707.8 3279.14,-698.836 3269.14,-702.322 3273.49,-707.8"/>
</g>
<!-- store/initialState.js&#45;&gt;scenes/sceneSymbols.js -->
<g id="edge100" class="edge"><title>store/initialState.js&#45;&gt;scenes/sceneSymbols.js</title>
<path fill="none" stroke="#757575" d="M2957.44,-596.75C2977.1,-605.22 3001.32,-618.525 3017,-637.219 3028.14,-650.496 3108.31,-889.902 3132.87,-963.726"/>
<polygon fill="#757575" stroke="#757575" points="3129.6,-964.984 3136.07,-973.37 3136.24,-962.776 3129.6,-964.984"/>
</g>
<!-- symbols/face.js -->
<g id="node59" class="node"><title>symbols/face.js</title>
<path fill="none" stroke="#c6c5fe" d="M3191.33,-719.719C3191.33,-719.719 3090.67,-719.719 3090.67,-719.719 3086.83,-719.719 3083,-715.886 3083,-712.053 3083,-712.053 3083,-704.386 3083,-704.386 3083,-700.553 3086.83,-696.719 3090.67,-696.719 3090.67,-696.719 3191.33,-696.719 3191.33,-696.719 3195.17,-696.719 3199,-700.553 3199,-704.386 3199,-704.386 3199,-712.053 3199,-712.053 3199,-715.886 3195.17,-719.719 3191.33,-719.719"/>
<text text-anchor="middle" x="3141" y="-704.519" font-family="Arial" font-size="14.00" fill="#c6c5fe">symbols/face.js</text>
</g>
<!-- store/initialState.js&#45;&gt;symbols/face.js -->
<g id="edge101" class="edge"><title>store/initialState.js&#45;&gt;symbols/face.js</title>
<path fill="none" stroke="#757575" d="M2952.35,-596.821C2971.78,-605.935 2997.73,-619.956 3017,-637.219 3037.39,-655.493 3030.27,-671.943 3053,-687.219 3059.12,-691.331 3065.95,-694.64 3073.04,-697.303"/>
<polygon fill="#757575" stroke="#757575" points="3072.2,-700.715 3082.8,-700.548 3074.41,-694.072 3072.2,-700.715"/>
</g>
<!-- symbols/gear.js -->
<g id="node60" class="node"><title>symbols/gear.js</title>
<path fill="none" stroke="#c6c5fe" d="M3191.33,-678.719C3191.33,-678.719 3090.67,-678.719 3090.67,-678.719 3086.83,-678.719 3083,-674.886 3083,-671.053 3083,-671.053 3083,-663.386 3083,-663.386 3083,-659.553 3086.83,-655.719 3090.67,-655.719 3090.67,-655.719 3191.33,-655.719 3191.33,-655.719 3195.17,-655.719 3199,-659.553 3199,-663.386 3199,-663.386 3199,-671.053 3199,-671.053 3199,-674.886 3195.17,-678.719 3191.33,-678.719"/>
<text text-anchor="middle" x="3141" y="-663.519" font-family="Arial" font-size="14.00" fill="#c6c5fe">symbols/gear.js</text>
</g>
<!-- store/initialState.js&#45;&gt;symbols/gear.js -->
<g id="edge102" class="edge"><title>store/initialState.js&#45;&gt;symbols/gear.js</title>
<path fill="none" stroke="#757575" d="M2945.72,-596.748C2970.57,-610.184 3013.79,-632.315 3053,-646.219 3060.03,-648.711 3067.47,-651.006 3074.94,-653.091"/>
<polygon fill="#757575" stroke="#757575" points="3074.16,-656.507 3084.73,-655.71 3075.97,-649.744 3074.16,-656.507"/>
</g>
<!-- symbols/lowerBody.js -->
<g id="node61" class="node"><title>symbols/lowerBody.js</title>
<path fill="none" stroke="#c6c5fe" d="M3210.83,-637.719C3210.83,-637.719 3071.17,-637.719 3071.17,-637.719 3067.33,-637.719 3063.5,-633.886 3063.5,-630.053 3063.5,-630.053 3063.5,-622.386 3063.5,-622.386 3063.5,-618.553 3067.33,-614.719 3071.17,-614.719 3071.17,-614.719 3210.83,-614.719 3210.83,-614.719 3214.67,-614.719 3218.5,-618.553 3218.5,-622.386 3218.5,-622.386 3218.5,-630.053 3218.5,-630.053 3218.5,-633.886 3214.67,-637.719 3210.83,-637.719"/>
<text text-anchor="middle" x="3141" y="-622.519" font-family="Arial" font-size="14.00" fill="#c6c5fe">symbols/lowerBody.js</text>
</g>
<!-- store/initialState.js&#45;&gt;symbols/lowerBody.js -->
<g id="edge103" class="edge"><title>store/initialState.js&#45;&gt;symbols/lowerBody.js</title>
<path fill="none" stroke="#757575" d="M2985.46,-596.749C3011.68,-601.749 3042.54,-607.635 3069.77,-612.826"/>
<polygon fill="#757575" stroke="#757575" points="3069.14,-616.27 3079.62,-614.705 3070.45,-609.394 3069.14,-616.27"/>
</g>
<!-- symbols/skin.js -->
<g id="node62" class="node"><title>symbols/skin.js</title>
<path fill="none" stroke="#c6c5fe" d="M3189.83,-596.719C3189.83,-596.719 3092.17,-596.719 3092.17,-596.719 3088.33,-596.719 3084.5,-592.886 3084.5,-589.053 3084.5,-589.053 3084.5,-581.386 3084.5,-581.386 3084.5,-577.553 3088.33,-573.719 3092.17,-573.719 3092.17,-573.719 3189.83,-573.719 3189.83,-573.719 3193.67,-573.719 3197.5,-577.553 3197.5,-581.386 3197.5,-581.386 3197.5,-589.053 3197.5,-589.053 3197.5,-592.886 3193.67,-596.719 3189.83,-596.719"/>
<text text-anchor="middle" x="3141" y="-581.519" font-family="Arial" font-size="14.00" fill="#c6c5fe">symbols/skin.js</text>
</g>
<!-- store/initialState.js&#45;&gt;symbols/skin.js -->
<g id="edge104" class="edge"><title>store/initialState.js&#45;&gt;symbols/skin.js</title>
<path fill="none" stroke="#757575" d="M2989.51,-585.219C3016.27,-585.219 3047.29,-585.219 3074.18,-585.219"/>
<polygon fill="#757575" stroke="#757575" points="3074.27,-588.719 3084.27,-585.219 3074.27,-581.719 3074.27,-588.719"/>
</g>
<!-- symbols/tail.js -->
<g id="node63" class="node"><title>symbols/tail.js</title>
<path fill="none" stroke="#c6c5fe" d="M3185.83,-555.719C3185.83,-555.719 3096.17,-555.719 3096.17,-555.719 3092.33,-555.719 3088.5,-551.886 3088.5,-548.053 3088.5,-548.053 3088.5,-540.386 3088.5,-540.386 3088.5,-536.553 3092.33,-532.719 3096.17,-532.719 3096.17,-532.719 3185.83,-532.719 3185.83,-532.719 3189.67,-532.719 3193.5,-536.553 3193.5,-540.386 3193.5,-540.386 3193.5,-548.053 3193.5,-548.053 3193.5,-551.886 3189.67,-555.719 3185.83,-555.719"/>
<text text-anchor="middle" x="3141" y="-540.519" font-family="Arial" font-size="14.00" fill="#c6c5fe">symbols/tail.js</text>
</g>
<!-- store/initialState.js&#45;&gt;symbols/tail.js -->
<g id="edge105" class="edge"><title>store/initialState.js&#45;&gt;symbols/tail.js</title>
<path fill="none" stroke="#757575" d="M2985.46,-573.689C3014.46,-568.16 3049.15,-561.545 3078.3,-555.985"/>
<polygon fill="#757575" stroke="#757575" points="3079.2,-559.377 3088.37,-554.066 3077.89,-552.501 3079.2,-559.377"/>
</g>
<!-- symbols/tongue.js -->
<g id="node64" class="node"><title>symbols/tongue.js</title>
<path fill="none" stroke="#c6c5fe" d="M3198.83,-514.719C3198.83,-514.719 3083.17,-514.719 3083.17,-514.719 3079.33,-514.719 3075.5,-510.886 3075.5,-507.053 3075.5,-507.053 3075.5,-499.386 3075.5,-499.386 3075.5,-495.553 3079.33,-491.719 3083.17,-491.719 3083.17,-491.719 3198.83,-491.719 3198.83,-491.719 3202.67,-491.719 3206.5,-495.553 3206.5,-499.386 3206.5,-499.386 3206.5,-507.053 3206.5,-507.053 3206.5,-510.886 3202.67,-514.719 3198.83,-514.719"/>
<text text-anchor="middle" x="3141" y="-499.519" font-family="Arial" font-size="14.00" fill="#c6c5fe">symbols/tongue.js</text>
</g>
<!-- store/initialState.js&#45;&gt;symbols/tongue.js -->
<g id="edge106" class="edge"><title>store/initialState.js&#45;&gt;symbols/tongue.js</title>
<path fill="none" stroke="#757575" d="M2985.77,-573.662C2996.59,-570.241 3007.44,-565.847 3017,-560.219 3036.77,-548.577 3033,-534.47 3053,-523.219 3056.98,-520.978 3061.2,-518.988 3065.55,-517.221"/>
<polygon fill="#757575" stroke="#757575" points="3067.03,-520.406 3075.23,-513.698 3064.64,-513.828 3067.03,-520.406"/>
</g>
<!-- symbols/wings.js -->
<g id="node65" class="node"><title>symbols/wings.js</title>
<path fill="none" stroke="#c6c5fe" d="M3195.33,-473.719C3195.33,-473.719 3086.67,-473.719 3086.67,-473.719 3082.83,-473.719 3079,-469.886 3079,-466.053 3079,-466.053 3079,-458.386 3079,-458.386 3079,-454.553 3082.83,-450.719 3086.67,-450.719 3086.67,-450.719 3195.33,-450.719 3195.33,-450.719 3199.17,-450.719 3203,-454.553 3203,-458.386 3203,-458.386 3203,-466.053 3203,-466.053 3203,-469.886 3199.17,-473.719 3195.33,-473.719"/>
<text text-anchor="middle" x="3141" y="-458.519" font-family="Arial" font-size="14.00" fill="#c6c5fe">symbols/wings.js</text>
</g>
<!-- store/initialState.js&#45;&gt;symbols/wings.js -->
<g id="edge107" class="edge"><title>store/initialState.js&#45;&gt;symbols/wings.js</title>
<path fill="none" stroke="#757575" d="M2989.92,-575.323C2999.73,-571.727 3009.16,-566.845 3017,-560.219 3046.16,-535.568 3023.36,-506.292 3053,-482.219 3057.89,-478.244 3063.43,-475.026 3069.28,-472.427"/>
<polygon fill="#757575" stroke="#757575" points="3070.6,-475.672 3078.69,-468.831 3068.1,-469.133 3070.6,-475.672"/>
</g>
<!-- scenes/charCreation.js&#45;&gt;actions/Core.js -->
<g id="edge55" class="edge"><title>scenes/charCreation.js&#45;&gt;actions/Core.js</title>
<path fill="none" stroke="#757575" d="M1326.01,-990.507C1324.51,-937.73 1325.76,-719.95 1442,-613.219 1563.22,-501.915 2084.1,-471.631 2268.22,-464.324"/>
<polygon fill="#757575" stroke="#757575" points="2268.44,-467.818 2278.3,-463.933 2268.17,-460.823 2268.44,-467.818"/>
</g>
<!-- scenes/charCreation.js&#45;&gt;store/store.js -->
<g id="edge61" class="edge"><title>scenes/charCreation.js&#45;&gt;store/store.js</title>
<path fill="none" stroke="#757575" d="M1332.06,-990.546C1360.77,-932.116 1498.46,-674.219 1692,-674.219 1692,-674.219 1692,-674.219 1911,-674.219 1980.1,-674.219 2161.96,-686.115 2221,-650.219 2246.92,-634.457 2232.46,-610.06 2257,-592.219 2314.02,-550.765 2343.17,-573.43 2411,-554.219 2430.51,-548.693 2451.89,-541.956 2470.09,-536.014"/>
<polygon fill="#757575" stroke="#757575" points="2471.44,-539.256 2479.84,-532.807 2469.25,-532.606 2471.44,-539.256"/>
</g>
<!-- scenes/charCreation.js&#45;&gt;actions/Player.js -->
<g id="edge56" class="edge"><title>scenes/charCreation.js&#45;&gt;actions/Player.js</title>
<path fill="none" stroke="#757575" d="M1406.23,-992.863C1563.41,-974.417 1910.83,-933.646 2058.7,-916.293"/>
<polygon fill="#757575" stroke="#757575" points="2059.47,-919.726 2069,-915.085 2058.66,-912.774 2059.47,-919.726"/>
</g>
<!-- scenes/charCreation.js&#45;&gt;symbols/breastCup.js -->
<g id="edge62" class="edge"><title>scenes/charCreation.js&#45;&gt;symbols/breastCup.js</title>
<path fill="none" stroke="#757575" d="M1331.46,-1013.88C1344.62,-1043.27 1383.48,-1120.59 1442,-1156.22 1538.24,-1214.81 1579.33,-1198.22 1692,-1198.22 1692,-1198.22 1692,-1198.22 1911,-1198.22 2027.16,-1198.22 2161.31,-1197.45 2246.61,-1196.87"/>
<polygon fill="#757575" stroke="#757575" points="2246.79,-1200.37 2256.77,-1196.8 2246.74,-1193.37 2246.79,-1200.37"/>
</g>
<!-- scenes/charCreation.js&#45;&gt;appearance/appearance.js -->
<g id="edge57" class="edge"><title>scenes/charCreation.js&#45;&gt;appearance/appearance.js</title>
<path fill="none" stroke="#757575" d="M1333.03,-1013.83C1348.26,-1039.61 1388.87,-1101.36 1442,-1127.22 1541.94,-1175.86 1860.37,-1170.06 2025.7,-1163.35"/>
<polygon fill="#757575" stroke="#757575" points="2026.03,-1166.83 2035.87,-1162.92 2025.74,-1159.84 2026.03,-1166.83"/>
</g>
<!-- scenes/charCreation.js&#45;&gt;symbols/gender.js -->
<g id="edge64" class="edge"><title>scenes/charCreation.js&#45;&gt;symbols/gender.js</title>
<path fill="none" stroke="#757575" d="M1329.87,-1013.98C1340.26,-1047.88 1375.16,-1146.36 1442,-1192.22 1535.09,-1256.09 1579.1,-1237.22 1692,-1237.22 1692,-1237.22 1692,-1237.22 1911,-1237.22 2032.09,-1237.22 2172.73,-1237.22 2257.2,-1237.22"/>
<polygon fill="#757575" stroke="#757575" points="2257.21,-1240.72 2267.21,-1237.22 2257.21,-1233.72 2257.21,-1240.72"/>
</g>
<!-- scenes/charCreation.js&#45;&gt;scenes/menus.js -->
<g id="edge58" class="edge"><title>scenes/charCreation.js&#45;&gt;scenes/menus.js</title>
<path fill="none" stroke="#757575" d="M1327.11,-990.489C1330.2,-942.889 1347.92,-761.861 1442,-660.219 1445.34,-656.608 1449.27,-653.477 1453.49,-650.768"/>
<polygon fill="#757575" stroke="#757575" points="1455.44,-653.691 1462.49,-645.779 1452.04,-647.569 1455.44,-653.691"/>
</g>
<!-- scenes/charCreation.js&#45;&gt;scenes/sceneSymbols.js -->
<g id="edge59" class="edge"><title>scenes/charCreation.js&#45;&gt;scenes/sceneSymbols.js</title>
<path fill="none" stroke="#757575" d="M1406.02,-1008.82C1549.87,-1020.19 1862.95,-1042.22 2127.5,-1042.22 2127.5,-1042.22 2127.5,-1042.22 2708,-1042.22 2845.98,-1042.22 2880.71,-1033.72 3017,-1012.22 3038.99,-1008.75 3062.95,-1003.77 3083.83,-999.027"/>
<polygon fill="#757575" stroke="#757575" points="3084.86,-1002.38 3093.81,-996.726 3083.28,-995.562 3084.86,-1002.38"/>
</g>
<!-- scenes/sceneTextStore.js -->
<g id="node45" class="node"><title>scenes/sceneTextStore.js</title>
<path fill="none" stroke="#c6c5fe" d="M1776.33,-936.719C1776.33,-936.719 1609.67,-936.719 1609.67,-936.719 1605.83,-936.719 1602,-932.886 1602,-929.053 1602,-929.053 1602,-921.386 1602,-921.386 1602,-917.553 1605.83,-913.719 1609.67,-913.719 1609.67,-913.719 1776.33,-913.719 1776.33,-913.719 1780.17,-913.719 1784,-917.553 1784,-921.386 1784,-921.386 1784,-929.053 1784,-929.053 1784,-932.886 1780.17,-936.719 1776.33,-936.719"/>
<text text-anchor="middle" x="1693" y="-921.519" font-family="Arial" font-size="14.00" fill="#c6c5fe">scenes/sceneTextStore.js</text>
</g>
<!-- scenes/charCreation.js&#45;&gt;scenes/sceneTextStore.js -->
<g id="edge60" class="edge"><title>scenes/charCreation.js&#45;&gt;scenes/sceneTextStore.js</title>
<path fill="none" stroke="#757575" d="M1347.48,-990.55C1370.09,-978.562 1407.47,-960.395 1442,-951.219 1490.43,-938.352 1545.71,-931.796 1591.95,-928.48"/>
<polygon fill="#757575" stroke="#757575" points="1592.24,-931.968 1601.98,-927.801 1591.76,-924.984 1592.24,-931.968"/>
</g>
<!-- symbols/butt.js -->
<g id="node46" class="node"><title>symbols/butt.js</title>
<path fill="none" stroke="#c6c5fe" d="M1740.83,-1131.72C1740.83,-1131.72 1645.17,-1131.72 1645.17,-1131.72 1641.33,-1131.72 1637.5,-1127.89 1637.5,-1124.05 1637.5,-1124.05 1637.5,-1116.39 1637.5,-1116.39 1637.5,-1112.55 1641.33,-1108.72 1645.17,-1108.72 1645.17,-1108.72 1740.83,-1108.72 1740.83,-1108.72 1744.67,-1108.72 1748.5,-1112.55 1748.5,-1116.39 1748.5,-1116.39 1748.5,-1124.05 1748.5,-1124.05 1748.5,-1127.89 1744.67,-1131.72 1740.83,-1131.72"/>
<text text-anchor="middle" x="1693" y="-1116.52" font-family="Arial" font-size="14.00" fill="#c6c5fe">symbols/butt.js</text>
</g>
<!-- scenes/charCreation.js&#45;&gt;symbols/butt.js -->
<g id="edge63" class="edge"><title>scenes/charCreation.js&#45;&gt;symbols/butt.js</title>
<path fill="none" stroke="#757575" d="M1335.8,-1013.92C1353.7,-1035.46 1395.33,-1080.94 1442,-1100.22 1501.23,-1124.69 1575,-1127.63 1627,-1125.71"/>
<polygon fill="#757575" stroke="#757575" points="1627.26,-1129.2 1637.1,-1125.27 1626.96,-1122.21 1627.26,-1129.2"/>
</g>
<!-- symbols/hips.js -->
<g id="node47" class="node"><title>symbols/hips.js</title>
<path fill="none" stroke="#c6c5fe" d="M1553.33,-1091.72C1553.33,-1091.72 1454.67,-1091.72 1454.67,-1091.72 1450.83,-1091.72 1447,-1087.89 1447,-1084.05 1447,-1084.05 1447,-1076.39 1447,-1076.39 1447,-1072.55 1450.83,-1068.72 1454.67,-1068.72 1454.67,-1068.72 1553.33,-1068.72 1553.33,-1068.72 1557.17,-1068.72 1561,-1072.55 1561,-1076.39 1561,-1076.39 1561,-1084.05 1561,-1084.05 1561,-1087.89 1557.17,-1091.72 1553.33,-1091.72"/>
<text text-anchor="middle" x="1504" y="-1076.52" font-family="Arial" font-size="14.00" fill="#c6c5fe">symbols/hips.js</text>
</g>
<!-- scenes/charCreation.js&#45;&gt;symbols/hips.js -->
<g id="edge65" class="edge"><title>scenes/charCreation.js&#45;&gt;symbols/hips.js</title>
<path fill="none" stroke="#757575" d="M1351.67,-1013.73C1375.02,-1024.36 1410.78,-1040.54 1442,-1054.22 1449.88,-1057.67 1458.36,-1061.33 1466.42,-1064.77"/>
<polygon fill="#757575" stroke="#757575" points="1465.05,-1067.99 1475.62,-1068.69 1467.79,-1061.55 1465.05,-1067.99"/>
</g>
<!-- scenes/menus.js&#45;&gt;actions/Core.js -->
<g id="edge82" class="edge"><title>scenes/menus.js&#45;&gt;actions/Core.js</title>
<path fill="none" stroke="#757575" d="M1566.09,-623.062C1727.53,-593.516 2157.47,-514.397 2221,-498.219 2244.41,-492.258 2270.09,-484.121 2290.95,-477.091"/>
<polygon fill="#757575" stroke="#757575" points="2292.14,-480.386 2300.47,-473.848 2289.88,-473.76 2292.14,-480.386"/>
</g>
<!-- scenes/menus.js&#45;&gt;scenes/sceneSymbols.js -->
<g id="edge83" class="edge"><title>scenes/menus.js&#45;&gt;scenes/sceneSymbols.js</title>
<path fill="none" stroke="#757575" d="M1514.36,-645.985C1549.36,-689.073 1677.8,-839.325 1820,-908.219 1945.16,-968.858 1988.42,-966.219 2127.5,-966.219 2127.5,-966.219 2127.5,-966.219 2708,-966.219 2823,-966.219 2955.05,-973.022 3042.57,-978.487"/>
<polygon fill="#757575" stroke="#757575" points="3042.56,-981.993 3052.76,-979.129 3043,-975.006 3042.56,-981.993"/>
</g>
<!-- scenes/menus.js&#45;&gt;scenes/sceneTextStore.js -->
<g id="edge84" class="edge"><title>scenes/menus.js&#45;&gt;scenes/sceneTextStore.js</title>
<path fill="none" stroke="#757575" d="M1505.65,-645.748C1508.61,-686.718 1524.25,-826.708 1602,-899.219 1606.09,-903.032 1610.7,-906.29 1615.63,-909.073"/>
<polygon fill="#757575" stroke="#757575" points="1614.26,-912.302 1624.78,-913.587 1617.36,-906.024 1614.26,-912.302"/>
</g>
<!-- scenes/sceneTextStore.js&#45;&gt;components/nameInput.js -->
<g id="edge94" class="edge"><title>scenes/sceneTextStore.js&#45;&gt;components/nameInput.js</title>
<path fill="none" stroke="#757575" d="M1760.85,-913.715C1783.29,-909.853 1808.51,-905.514 1831.68,-901.525"/>
<polygon fill="#757575" stroke="#757575" points="1832.56,-904.925 1841.82,-899.78 1831.37,-898.027 1832.56,-904.925"/>
</g>
<!-- scenes/sceneTextStore.js&#45;&gt;scenes/sceneSymbols.js -->
<g id="edge95" class="edge"><title>scenes/sceneTextStore.js&#45;&gt;scenes/sceneSymbols.js</title>
<path fill="none" stroke="#757575" d="M1714.64,-936.804C1738.99,-949.853 1781.1,-970.503 1820,-980.219 1953,-1013.43 1990.42,-1004.22 2127.5,-1004.22 2127.5,-1004.22 2127.5,-1004.22 2708,-1004.22 2823,-1004.22 2955.05,-997.416 3042.57,-991.952"/>
<polygon fill="#757575" stroke="#757575" points="3043,-995.432 3052.76,-991.309 3042.56,-988.446 3043,-995.432"/>
</g>
<!-- symbols/butt.js&#45;&gt;utils.js -->
<g id="edge110" class="edge"><title>symbols/butt.js&#45;&gt;utils.js</title>
<path fill="none" stroke="#757575" d="M1748.75,-1119.8C1830.98,-1119.22 1991.28,-1118.22 2127.5,-1118.22 2127.5,-1118.22 2127.5,-1118.22 2335,-1118.22 2434.35,-1118.22 3153.99,-1197.36 3229,-1132.22 3293.43,-1076.27 3293.75,-791.112 3292.48,-709.23"/>
<polygon fill="#757575" stroke="#757575" points="3295.98,-709.005 3292.3,-699.07 3288.98,-709.132 3295.98,-709.005"/>
</g>
<!-- symbols/hips.js&#45;&gt;utils.js -->
<g id="edge116" class="edge"><title>symbols/hips.js&#45;&gt;utils.js</title>
<path fill="none" stroke="#757575" d="M1561.21,-1080.22C1639.25,-1080.22 1784.85,-1080.22 1909,-1080.22 1909,-1080.22 1909,-1080.22 2516,-1080.22 2834.64,-1080.22 3000.12,-1226.9 3229,-1005.22 3271.71,-963.849 3286.84,-774.107 3290.82,-709.124"/>
<polygon fill="#757575" stroke="#757575" points="3294.33,-709.014 3291.42,-698.828 3287.34,-708.607 3294.33,-709.014"/>
</g>
<!-- scenes/combat/combat.js&#45;&gt;actions/Core.js -->
<g id="edge66" class="edge"><title>scenes/combat/combat.js&#45;&gt;actions/Core.js</title>
<path fill="none" stroke="#757575" d="M1928.07,-738.573C1993.54,-693.886 2228.94,-533.234 2307.37,-479.709"/>
<polygon fill="#757575" stroke="#757575" points="2309.44,-482.539 2315.72,-474.011 2305.49,-476.757 2309.44,-482.539"/>
</g>
<!-- scenes/combat/combat.js&#45;&gt;store/store.js -->
<g id="edge70" class="edge"><title>scenes/combat/combat.js&#45;&gt;store/store.js</title>
<path fill="none" stroke="#757575" d="M1982.41,-738.7C2067.57,-724.534 2201,-700.821 2221,-688.219 2243.56,-674.001 2235.22,-655.599 2257,-640.219 2315.57,-598.872 2346.53,-623.586 2411,-592.219 2441.08,-577.586 2472.24,-554.865 2492.3,-539.082"/>
<polygon fill="#757575" stroke="#757575" points="2494.55,-541.763 2500.18,-532.787 2490.18,-536.293 2494.55,-541.763"/>
</g>
<!-- scenes/combat/combat.js&#45;&gt;actions/Enemy.js -->
<g id="edge67" class="edge"><title>scenes/combat/combat.js&#45;&gt;actions/Enemy.js</title>
<path fill="none" stroke="#757575" d="M1999.72,-746.435C2077.6,-743.113 2189.42,-738.343 2261.64,-735.263"/>
<polygon fill="#757575" stroke="#757575" points="2262.16,-738.744 2272,-734.821 2261.86,-731.751 2262.16,-738.744"/>
</g>
<!-- scenes/combat/combat.js&#45;&gt;actions/Player.js -->
<g id="edge68" class="edge"><title>scenes/combat/combat.js&#45;&gt;actions/Player.js</title>
<path fill="none" stroke="#757575" d="M1926.27,-761.968C1949.69,-779.933 1996,-815.202 2036,-844.219 2058.12,-860.262 2083.61,-878.038 2102.07,-890.777"/>
<polygon fill="#757575" stroke="#757575" points="2100.29,-893.805 2110.51,-896.596 2104.26,-888.041 2100.29,-893.805"/>
</g>
<!-- scenes/combat/combat.js&#45;&gt;scenes/sceneSymbols.js -->
<g id="edge69" class="edge"><title>scenes/combat/combat.js&#45;&gt;scenes/sceneSymbols.js</title>
<path fill="none" stroke="#757575" d="M1929.63,-761.878C1953.34,-776.059 1996.02,-799.438 2036,-810.219 2241.76,-865.712 2300.89,-848.219 2514,-848.219 2514,-848.219 2514,-848.219 2708,-848.219 2865.81,-848.219 3041.51,-932.312 3110.2,-968.73"/>
<polygon fill="#757575" stroke="#757575" points="3108.71,-971.898 3119.17,-973.539 3112.01,-965.729 3108.71,-971.898"/>
</g>
<!-- symbols/enemies/goblin.js -->
<g id="node49" class="node"><title>symbols/enemies/goblin.js</title>
<path fill="none" stroke="#c6c5fe" d="M2213.33,-801.719C2213.33,-801.719 2043.67,-801.719 2043.67,-801.719 2039.83,-801.719 2036,-797.886 2036,-794.053 2036,-794.053 2036,-786.386 2036,-786.386 2036,-782.553 2039.83,-778.719 2043.67,-778.719 2043.67,-778.719 2213.33,-778.719 2213.33,-778.719 2217.17,-778.719 2221,-782.553 2221,-786.386 2221,-786.386 2221,-794.053 2221,-794.053 2221,-797.886 2217.17,-801.719 2213.33,-801.719"/>
<text text-anchor="middle" x="2128.5" y="-786.519" font-family="Arial" font-size="14.00" fill="#c6c5fe">symbols/enemies/goblin.js</text>
</g>
<!-- scenes/combat/combat.js&#45;&gt;symbols/enemies/goblin.js -->
<g id="edge71" class="edge"><title>scenes/combat/combat.js&#45;&gt;symbols/enemies/goblin.js</title>
<path fill="none" stroke="#757575" d="M1973.33,-761.735C1998.92,-766.463 2028.71,-771.966 2055.24,-776.869"/>
<polygon fill="#757575" stroke="#757575" points="2054.77,-780.34 2065.23,-778.715 2056.04,-773.457 2054.77,-780.34"/>
</g>
<!-- symbols/enemies/goblin.js&#45;&gt;actions/Core.js -->
<g id="edge111" class="edge"><title>symbols/enemies/goblin.js&#45;&gt;actions/Core.js</title>
<path fill="none" stroke="#757575" d="M2136.74,-778.546C2166.78,-730.124 2281.82,-544.716 2320.34,-482.62"/>
<polygon fill="#757575" stroke="#757575" points="2323.55,-484.096 2325.84,-473.753 2317.6,-480.405 2323.55,-484.096"/>
</g>
<!-- symbols/enemies/goblin.js&#45;&gt;utils.js -->
<g id="edge112" class="edge"><title>symbols/enemies/goblin.js&#45;&gt;utils.js</title>
<path fill="none" stroke="#757575" d="M2221.1,-797.667C2298.96,-803.353 2413.73,-810.219 2514,-810.219 2514,-810.219 2514,-810.219 2708,-810.219 2940.24,-810.219 3026.07,-883.146 3229,-770.219 3254.15,-756.222 3272.38,-727.56 3282.57,-707.87"/>
<polygon fill="#757575" stroke="#757575" points="3285.77,-709.291 3287.04,-698.773 3279.49,-706.203 3285.77,-709.291"/>
</g>
<!-- scenes/ingnam/ingnam.js&#45;&gt;actions/Core.js -->
<g id="edge72" class="edge"><title>scenes/ingnam/ingnam.js&#45;&gt;actions/Core.js</title>
<path fill="none" stroke="#757575" d="M1943,-350.717C2001.15,-331.791 2126.84,-300.069 2221,-341.219 2268.13,-361.816 2304.28,-413.112 2321.64,-441.864"/>
<polygon fill="#757575" stroke="#757575" points="2318.72,-443.811 2326.8,-450.673 2324.77,-440.275 2318.72,-443.811"/>
</g>
<!-- scenes/ingnam/ingnam.js&#45;&gt;utils.js -->
<g id="edge77" class="edge"><title>scenes/ingnam/ingnam.js&#45;&gt;utils.js</title>
<path fill="none" stroke="#757575" d="M1920.35,-350.54C1938.14,-327.834 1977.08,-275.623 2000,-226.219 2023.61,-175.321 1991.02,-138.763 2036,-105.219 2169.6,-5.57872 2246.58,-77.9306 2411,-105.219 2507.36,-121.213 2525.13,-149.188 2619,-176.219 2886.68,-253.304 3038.21,-117.253 3229,-320.219 3276.49,-370.743 3288.63,-594.303 3291.31,-665.419"/>
<polygon fill="#757575" stroke="#757575" points="3287.82,-665.603 3291.67,-675.473 3294.81,-665.356 3287.82,-665.603"/>
</g>
<!-- scenes/shopFunctions.js -->
<g id="node51" class="node"><title>scenes/shopFunctions.js</title>
<path fill="none" stroke="#c6c5fe" d="M2207.83,-137.719C2207.83,-137.719 2049.17,-137.719 2049.17,-137.719 2045.33,-137.719 2041.5,-133.886 2041.5,-130.053 2041.5,-130.053 2041.5,-122.386 2041.5,-122.386 2041.5,-118.553 2045.33,-114.719 2049.17,-114.719 2049.17,-114.719 2207.83,-114.719 2207.83,-114.719 2211.67,-114.719 2215.5,-118.553 2215.5,-122.386 2215.5,-122.386 2215.5,-130.053 2215.5,-130.053 2215.5,-133.886 2211.67,-137.719 2207.83,-137.719"/>
<text text-anchor="middle" x="2128.5" y="-122.519" font-family="Arial" font-size="14.00" fill="#c6c5fe">scenes/shopFunctions.js</text>
</g>
<!-- scenes/ingnam/ingnam.js&#45;&gt;scenes/shopFunctions.js -->
<g id="edge73" class="edge"><title>scenes/ingnam/ingnam.js&#45;&gt;scenes/shopFunctions.js</title>
<path fill="none" stroke="#757575" d="M1918.41,-350.529C1940.7,-315.604 2007.28,-212.751 2036,-185.219 2053.62,-168.322 2076.76,-153.455 2095.36,-142.872"/>
<polygon fill="#757575" stroke="#757575" points="2097.3,-145.797 2104.35,-137.885 2093.9,-139.676 2097.3,-145.797"/>
</g>
<!-- store/gameFlags.js -->
<g id="node52" class="node"><title>store/gameFlags.js</title>
<path fill="none" stroke="#cfffac" d="M2189.83,-373.719C2189.83,-373.719 2067.17,-373.719 2067.17,-373.719 2063.33,-373.719 2059.5,-369.886 2059.5,-366.053 2059.5,-366.053 2059.5,-358.386 2059.5,-358.386 2059.5,-354.553 2063.33,-350.719 2067.17,-350.719 2067.17,-350.719 2189.83,-350.719 2189.83,-350.719 2193.67,-350.719 2197.5,-354.553 2197.5,-358.386 2197.5,-358.386 2197.5,-366.053 2197.5,-366.053 2197.5,-369.886 2193.67,-373.719 2189.83,-373.719"/>
<text text-anchor="middle" x="2128.5" y="-358.519" font-family="Arial" font-size="14.00" fill="#cfffac">store/gameFlags.js</text>
</g>
<!-- scenes/ingnam/ingnam.js&#45;&gt;store/gameFlags.js -->
<g id="edge74" class="edge"><title>scenes/ingnam/ingnam.js&#45;&gt;store/gameFlags.js</title>
<path fill="none" stroke="#757575" d="M1998.12,-362.219C2014.96,-362.219 2032.5,-362.219 2049.04,-362.219"/>
<polygon fill="#757575" stroke="#757575" points="2049.19,-365.719 2059.19,-362.219 2049.19,-358.719 2049.19,-365.719"/>
</g>
<!-- symbols/items/armors.js -->
<g id="node53" class="node"><title>symbols/items/armors.js</title>
<path fill="none" stroke="#cfffac" d="M2205.83,-455.719C2205.83,-455.719 2051.17,-455.719 2051.17,-455.719 2047.33,-455.719 2043.5,-451.886 2043.5,-448.053 2043.5,-448.053 2043.5,-440.386 2043.5,-440.386 2043.5,-436.553 2047.33,-432.719 2051.17,-432.719 2051.17,-432.719 2205.83,-432.719 2205.83,-432.719 2209.67,-432.719 2213.5,-436.553 2213.5,-440.386 2213.5,-440.386 2213.5,-448.053 2213.5,-448.053 2213.5,-451.886 2209.67,-455.719 2205.83,-455.719"/>
<text text-anchor="middle" x="2128.5" y="-440.519" font-family="Arial" font-size="14.00" fill="#cfffac">symbols/items/armors.js</text>
</g>
<!-- scenes/ingnam/ingnam.js&#45;&gt;symbols/items/armors.js -->
<g id="edge75" class="edge"><title>scenes/ingnam/ingnam.js&#45;&gt;symbols/items/armors.js</title>
<path fill="none" stroke="#757575" d="M1931.17,-373.853C1955.37,-387.39 1997.52,-409.618 2036,-423.219 2043.05,-425.712 2050.52,-427.986 2058.02,-430.04"/>
<polygon fill="#757575" stroke="#757575" points="2057.31,-433.472 2067.87,-432.612 2059.08,-426.699 2057.31,-433.472"/>
</g>
<!-- symbols/items/weapons.js -->
<g id="node54" class="node"><title>symbols/items/weapons.js</title>
<path fill="none" stroke="#cfffac" d="M2212.33,-414.719C2212.33,-414.719 2044.67,-414.719 2044.67,-414.719 2040.83,-414.719 2037,-410.886 2037,-407.053 2037,-407.053 2037,-399.386 2037,-399.386 2037,-395.553 2040.83,-391.719 2044.67,-391.719 2044.67,-391.719 2212.33,-391.719 2212.33,-391.719 2216.17,-391.719 2220,-395.553 2220,-399.386 2220,-399.386 2220,-407.053 2220,-407.053 2220,-410.886 2216.17,-414.719 2212.33,-414.719"/>
<text text-anchor="middle" x="2128.5" y="-399.519" font-family="Arial" font-size="14.00" fill="#cfffac">symbols/items/weapons.js</text>
</g>
<!-- scenes/ingnam/ingnam.js&#45;&gt;symbols/items/weapons.js -->
<g id="edge76" class="edge"><title>scenes/ingnam/ingnam.js&#45;&gt;symbols/items/weapons.js</title>
<path fill="none" stroke="#757575" d="M1971.88,-373.749C1998.28,-378.749 2029.36,-384.635 2056.78,-389.826"/>
<polygon fill="#757575" stroke="#757575" points="2056.22,-393.283 2066.7,-391.705 2057.52,-386.405 2056.22,-393.283"/>
</g>
<!-- scenes/shopFunctions.js&#45;&gt;actions/Core.js -->
<g id="edge96" class="edge"><title>scenes/shopFunctions.js&#45;&gt;actions/Core.js</title>
<path fill="none" stroke="#757575" d="M2155.92,-137.76C2176.12,-147.756 2203.41,-163.956 2221,-185.219 2287.55,-265.666 2318.69,-390.846 2328.96,-440.687"/>
<polygon fill="#757575" stroke="#757575" points="2325.56,-441.524 2330.94,-450.651 2332.42,-440.16 2325.56,-441.524"/>
</g>
<!-- scenes/shopFunctions.js&#45;&gt;store/store.js -->
<g id="edge98" class="edge"><title>scenes/shopFunctions.js&#45;&gt;store/store.js</title>
<path fill="none" stroke="#757575" d="M2196.11,-137.766C2274.25,-151.865 2395.22,-175.63 2411,-190.219 2502.74,-275.056 2513.42,-439.998 2514.18,-499.312"/>
<polygon fill="#757575" stroke="#757575" points="2510.68,-499.429 2514.23,-509.414 2517.68,-499.399 2510.68,-499.429"/>
</g>
<!-- scenes/shopFunctions.js&#45;&gt;actions/Inv.js -->
<g id="edge97" class="edge"><title>scenes/shopFunctions.js&#45;&gt;actions/Inv.js</title>
<path fill="none" stroke="#757575" d="M2215.51,-126.219C2235.55,-126.219 2256.43,-126.219 2274.93,-126.219"/>
<polygon fill="#757575" stroke="#757575" points="2274.95,-129.719 2284.95,-126.219 2274.95,-122.719 2274.95,-129.719"/>
</g>
<!-- scenes/shopFunctions.js&#45;&gt;utils.js -->
<g id="edge99" class="edge"><title>scenes/shopFunctions.js&#45;&gt;utils.js</title>
<path fill="none" stroke="#757575" d="M2139.64,-114.478C2159.54,-92.3721 2206.22,-45.0227 2257,-25.2193 2363.71,16.3974 2399.47,-6.21926 2514,-6.21926 2514,-6.21926 2514,-6.21926 2925,-6.21926 3071.77,-6.21926 3141.16,-17.6307 3229,-135.219 3293.14,-221.085 3293.4,-573.849 3292.35,-665.421"/>
<polygon fill="#757575" stroke="#757575" points="3288.85,-665.432 3292.22,-675.477 3295.85,-665.525 3288.85,-665.432"/>
</g>
<!-- scenes/inv/inv.js&#45;&gt;actions/Core.js -->
<g id="edge78" class="edge"><title>scenes/inv/inv.js&#45;&gt;actions/Core.js</title>
<path fill="none" stroke="#757575" d="M1969.68,-215.685C2053.8,-229.651 2200.78,-255.687 2221,-270.219 2281.41,-313.634 2314.35,-400.536 2326.93,-440.814"/>
<polygon fill="#757575" stroke="#757575" points="2323.59,-441.862 2329.83,-450.431 2330.3,-439.846 2323.59,-441.862"/>
</g>
<!-- scenes/inv/inv.js&#45;&gt;store/store.js -->
<g id="edge80" class="edge"><title>scenes/inv/inv.js&#45;&gt;store/store.js</title>
<path fill="none" stroke="#757575" d="M1942.67,-194.596C2000.81,-175.249 2127.21,-142.566 2221,-185.219 2369.83,-252.903 2472.54,-437.665 2503.91,-500.204"/>
<polygon fill="#757575" stroke="#757575" points="2500.92,-502.051 2508.48,-509.471 2507.2,-498.954 2500.92,-502.051"/>
</g>
<!-- scenes/inv/inv.js&#45;&gt;actions/Inv.js -->
<g id="edge79" class="edge"><title>scenes/inv/inv.js&#45;&gt;actions/Inv.js</title>
<path fill="none" stroke="#757575" d="M1920.46,-194.491C1939.5,-171.96 1984.97,-123.259 2036,-105.219 2120.77,-75.2522 2227.45,-95.7015 2287.14,-111.891"/>
<polygon fill="#757575" stroke="#757575" points="2286.44,-115.33 2297.02,-114.648 2288.32,-108.587 2286.44,-115.33"/>
</g>
<!-- symbols/items/apple.js -->
<g id="node56" class="node"><title>symbols/items/apple.js</title>
<path fill="none" stroke="#c6c5fe" d="M2201.33,-217.719C2201.33,-217.719 2055.67,-217.719 2055.67,-217.719 2051.83,-217.719 2048,-213.886 2048,-210.053 2048,-210.053 2048,-202.386 2048,-202.386 2048,-198.553 2051.83,-194.719 2055.67,-194.719 2055.67,-194.719 2201.33,-194.719 2201.33,-194.719 2205.17,-194.719 2209,-198.553 2209,-202.386 2209,-202.386 2209,-210.053 2209,-210.053 2209,-213.886 2205.17,-217.719 2201.33,-217.719"/>
<text text-anchor="middle" x="2128.5" y="-202.519" font-family="Arial" font-size="14.00" fill="#c6c5fe">symbols/items/apple.js</text>
</g>
<!-- scenes/inv/inv.js&#45;&gt;symbols/items/apple.js -->
<g id="edge81" class="edge"><title>scenes/inv/inv.js&#45;&gt;symbols/items/apple.js</title>
<path fill="none" stroke="#757575" d="M1969.59,-206.219C1990.53,-206.219 2014.64,-206.219 2037.62,-206.219"/>
<polygon fill="#757575" stroke="#757575" points="2037.73,-209.719 2047.73,-206.219 2037.73,-202.719 2037.73,-209.719"/>
</g>
<!-- symbols/items/apple.js&#45;&gt;actions/Core.js -->
<g id="edge117" class="edge"><title>symbols/items/apple.js&#45;&gt;actions/Core.js</title>
<path fill="none" stroke="#757575" d="M2195.86,-217.783C2204.94,-221.371 2213.66,-226.069 2221,-232.219 2288.31,-288.599 2318.45,-395.069 2328.69,-440.638"/>
<polygon fill="#757575" stroke="#757575" points="2325.31,-441.562 2330.83,-450.606 2332.16,-440.095 2325.31,-441.562"/>
</g>
<!-- setupTests.js -->
<g id="node58" class="node"><title>setupTests.js</title>
<path fill="none" stroke="#cfffac" d="M94.3333,-396.719C94.3333,-396.719 7.66667,-396.719 7.66667,-396.719 3.83333,-396.719 0,-392.886 0,-389.053 0,-389.053 0,-381.386 0,-381.386 0,-377.553 3.83333,-373.719 7.66667,-373.719 7.66667,-373.719 94.3333,-373.719 94.3333,-373.719 98.1667,-373.719 102,-377.553 102,-381.386 102,-381.386 102,-389.053 102,-389.053 102,-392.886 98.1667,-396.719 94.3333,-396.719"/>
<text text-anchor="middle" x="51" y="-381.519" font-family="Arial" font-size="14.00" fill="#cfffac">setupTests.js</text>
</g>
<!-- symbols/face.js&#45;&gt;utils.js -->
<g id="edge113" class="edge"><title>symbols/face.js&#45;&gt;utils.js</title>
<path fill="none" stroke="#757575" d="M3199.14,-700.22C3217.79,-697.609 3238,-694.779 3254.79,-692.428"/>
<polygon fill="#757575" stroke="#757575" points="3255.34,-695.886 3264.76,-691.033 3254.37,-688.953 3255.34,-695.886"/>
</g>
<!-- symbols/gear.js&#45;&gt;utils.js -->
<g id="edge114" class="edge"><title>symbols/gear.js&#45;&gt;utils.js</title>
<path fill="none" stroke="#757575" d="M3199.14,-674.837C3217.79,-677.324 3238,-680.019 3254.79,-682.258"/>
<polygon fill="#757575" stroke="#757575" points="3254.39,-685.735 3264.76,-683.587 3255.31,-678.796 3254.39,-685.735"/>
</g>
<!-- symbols/lowerBody.js&#45;&gt;utils.js -->
<g id="edge118" class="edge"><title>symbols/lowerBody.js&#45;&gt;utils.js</title>
<path fill="none" stroke="#757575" d="M3204.63,-637.817C3212.97,-640.169 3221.3,-642.949 3229,-646.219 3243.17,-652.233 3257.65,-661.408 3269.15,-669.554"/>
<polygon fill="#757575" stroke="#757575" points="3267.18,-672.443 3277.32,-675.514 3271.3,-666.79 3267.18,-672.443"/>
</g>
<!-- symbols/skin.js&#45;&gt;utils.js -->
<g id="edge120" class="edge"><title>symbols/skin.js&#45;&gt;utils.js</title>
<path fill="none" stroke="#757575" d="M3197.67,-592.019C3208.62,-594.97 3219.61,-599.19 3229,-605.219 3252.67,-620.418 3270.97,-647.731 3281.6,-666.634"/>
<polygon fill="#757575" stroke="#757575" points="3278.63,-668.498 3286.45,-675.644 3284.79,-665.18 3278.63,-668.498"/>
</g>
<!-- symbols/tail.js&#45;&gt;utils.js -->
<g id="edge121" class="edge"><title>symbols/tail.js&#45;&gt;utils.js</title>
<path fill="none" stroke="#757575" d="M3193.59,-548.447C3206.14,-551.434 3218.85,-556.315 3229,-564.219 3262.09,-589.988 3279.36,-637.912 3286.99,-665.722"/>
<polygon fill="#757575" stroke="#757575" points="3283.66,-666.818 3289.54,-675.634 3290.44,-665.078 3283.66,-666.818"/>
</g>
<!-- symbols/tongue.js&#45;&gt;utils.js -->
<g id="edge122" class="edge"><title>symbols/tongue.js&#45;&gt;utils.js</title>
<path fill="none" stroke="#757575" d="M3206.77,-510.511C3214.88,-513.521 3222.56,-517.631 3229,-523.219 3271.81,-560.39 3285.67,-630.046 3290.05,-665.415"/>
<polygon fill="#757575" stroke="#757575" points="3286.59,-666.048 3291.16,-675.609 3293.55,-665.288 3286.59,-666.048"/>
</g>
<!-- symbols/wings.js&#45;&gt;utils.js -->
<g id="edge124" class="edge"><title>symbols/wings.js&#45;&gt;utils.js</title>
<path fill="none" stroke="#757575" d="M3203.15,-467.694C3212.67,-470.835 3221.74,-475.463 3229,-482.219 3281.81,-531.352 3290.77,-623.527 3292.01,-665.458"/>
<polygon fill="#757575" stroke="#757575" points="3288.51,-665.713 3292.18,-675.652 3295.51,-665.594 3288.51,-665.713"/>
</g>
</g>
</svg>
