<?xml version="1.0" encoding="UTF-8" standalone="no"?>
<!DOCTYPE svg PUBLIC "-//W3C//DTD SVG 1.1//EN"
 "http://www.w3.org/Graphics/SVG/1.1/DTD/svg11.dtd">
<!-- Generated by graphviz version 2.38.0 (20140413.2041)
 -->
<!-- Title: G Pages: 1 -->
<svg width="2974pt" height="684pt"
 viewBox="0.00 0.00 2974.20 683.92" xmlns="http://www.w3.org/2000/svg" xmlns:xlink="http://www.w3.org/1999/xlink">
<g id="graph0" class="graph" transform="scale(1 1) rotate(0) translate(21.6 662.317)">
<title>G</title>
<polygon fill="#111111" stroke="none" points="-21.6,21.6 -21.6,-662.317 2952.6,-662.317 2952.6,21.6 -21.6,21.6"/>
<!-- actions/Core.js -->
<g id="node1" class="node"><title>actions/Core.js</title>
<path fill="none" stroke="#c6c5fe" d="M1740.83,-366.717C1740.83,-366.717 1645.17,-366.717 1645.17,-366.717 1641.33,-366.717 1637.5,-362.883 1637.5,-359.05 1637.5,-359.05 1637.5,-351.383 1637.5,-351.383 1637.5,-347.55 1641.33,-343.717 1645.17,-343.717 1645.17,-343.717 1740.83,-343.717 1740.83,-343.717 1744.67,-343.717 1748.5,-347.55 1748.5,-351.383 1748.5,-351.383 1748.5,-359.05 1748.5,-359.05 1748.5,-362.883 1744.67,-366.717 1740.83,-366.717"/>
<text text-anchor="middle" x="1693" y="-351.517" font-family="Arial" font-size="14.00" fill="#c6c5fe">actions/Core.js</text>
</g>
<!-- actions/coreMsg.js -->
<g id="node2" class="node"><title>actions/coreMsg.js</title>
<path fill="none" stroke="#cfffac" d="M2902.83,-330.717C2902.83,-330.717 2783.17,-330.717 2783.17,-330.717 2779.33,-330.717 2775.5,-326.883 2775.5,-323.05 2775.5,-323.05 2775.5,-315.383 2775.5,-315.383 2775.5,-311.55 2779.33,-307.717 2783.17,-307.717 2783.17,-307.717 2902.83,-307.717 2902.83,-307.717 2906.67,-307.717 2910.5,-311.55 2910.5,-315.383 2910.5,-315.383 2910.5,-323.05 2910.5,-323.05 2910.5,-326.883 2906.67,-330.717 2902.83,-330.717"/>
<text text-anchor="middle" x="2843" y="-315.517" font-family="Arial" font-size="14.00" fill="#cfffac">actions/coreMsg.js</text>
</g>
<!-- actions/Core.js&#45;&gt;actions/coreMsg.js -->
<g id="edge1" class="edge"><title>actions/Core.js&#45;&gt;actions/coreMsg.js</title>
<path fill="none" stroke="#757575" d="M1748.96,-357.333C1882.97,-362.374 2237.22,-374.987 2533,-379.217 2615.66,-380.399 2638.45,-397.815 2719,-379.217 2754.72,-370.969 2792.06,-350.869 2816.1,-336.199"/>
<polygon fill="#757575" stroke="#757575" points="2817.99,-339.141 2824.62,-330.878 2814.29,-333.201 2817.99,-339.141"/>
</g>
<!-- store/store.js -->
<g id="node3" class="node"><title>store/store.js</title>
<path fill="none" stroke="#c6c5fe" d="M2309.83,-210.717C2309.83,-210.717 2226.17,-210.717 2226.17,-210.717 2222.33,-210.717 2218.5,-206.883 2218.5,-203.05 2218.5,-203.05 2218.5,-195.383 2218.5,-195.383 2218.5,-191.55 2222.33,-187.717 2226.17,-187.717 2226.17,-187.717 2309.83,-187.717 2309.83,-187.717 2313.67,-187.717 2317.5,-191.55 2317.5,-195.383 2317.5,-195.383 2317.5,-203.05 2317.5,-203.05 2317.5,-206.883 2313.67,-210.717 2309.83,-210.717"/>
<text text-anchor="middle" x="2268" y="-195.517" font-family="Arial" font-size="14.00" fill="#c6c5fe">store/store.js</text>
</g>
<!-- actions/Core.js&#45;&gt;store/store.js -->
<g id="edge2" class="edge"><title>actions/Core.js&#45;&gt;store/store.js</title>
<path fill="none" stroke="#757575" d="M1714.73,-343.489C1739.17,-330.149 1781.36,-308.614 1820,-296.217 1964.18,-249.958 2008.03,-270.642 2155,-234.217 2177.94,-228.531 2203.09,-220.81 2223.74,-214.067"/>
<polygon fill="#757575" stroke="#757575" points="2225.08,-217.308 2233.48,-210.848 2222.89,-210.662 2225.08,-217.308"/>
</g>
<!-- reducers/root.js -->
<g id="node26" class="node"><title>reducers/root.js</title>
<path fill="none" stroke="#c6c5fe" d="M2489.33,-210.717C2489.33,-210.717 2388.67,-210.717 2388.67,-210.717 2384.83,-210.717 2381,-206.883 2381,-203.05 2381,-203.05 2381,-195.383 2381,-195.383 2381,-191.55 2384.83,-187.717 2388.67,-187.717 2388.67,-187.717 2489.33,-187.717 2489.33,-187.717 2493.17,-187.717 2497,-191.55 2497,-195.383 2497,-195.383 2497,-203.05 2497,-203.05 2497,-206.883 2493.17,-210.717 2489.33,-210.717"/>
<text text-anchor="middle" x="2439" y="-195.517" font-family="Arial" font-size="14.00" fill="#c6c5fe">reducers/root.js</text>
</g>
<!-- store/store.js&#45;&gt;reducers/root.js -->
<g id="edge57" class="edge"><title>store/store.js&#45;&gt;reducers/root.js</title>
<path fill="none" stroke="#757575" d="M2317.88,-199.217C2334.34,-199.217 2353.01,-199.217 2370.64,-199.217"/>
<polygon fill="#757575" stroke="#757575" points="2370.88,-202.717 2380.88,-199.217 2370.88,-195.717 2370.88,-202.717"/>
</g>
<!-- actions/Engine.js -->
<g id="node4" class="node"><title>actions/Engine.js</title>
<path fill="none" stroke="#c6c5fe" d="M951.833,-501.717C951.833,-501.717 843.167,-501.717 843.167,-501.717 839.333,-501.717 835.5,-497.883 835.5,-494.05 835.5,-494.05 835.5,-486.383 835.5,-486.383 835.5,-482.55 839.333,-478.717 843.167,-478.717 843.167,-478.717 951.833,-478.717 951.833,-478.717 955.667,-478.717 959.5,-482.55 959.5,-486.383 959.5,-486.383 959.5,-494.05 959.5,-494.05 959.5,-497.883 955.667,-501.717 951.833,-501.717"/>
<text text-anchor="middle" x="897.5" y="-486.517" font-family="Arial" font-size="14.00" fill="#c6c5fe">actions/Engine.js</text>
</g>
<!-- scenes/sceneFunctions.js -->
<g id="node5" class="node"><title>scenes/sceneFunctions.js</title>
<path fill="none" stroke="#c6c5fe" d="M1201.33,-444.717C1201.33,-444.717 1034.67,-444.717 1034.67,-444.717 1030.83,-444.717 1027,-440.883 1027,-437.05 1027,-437.05 1027,-429.383 1027,-429.383 1027,-425.55 1030.83,-421.717 1034.67,-421.717 1034.67,-421.717 1201.33,-421.717 1201.33,-421.717 1205.17,-421.717 1209,-425.55 1209,-429.383 1209,-429.383 1209,-437.05 1209,-437.05 1209,-440.883 1205.17,-444.717 1201.33,-444.717"/>
<text text-anchor="middle" x="1118" y="-429.517" font-family="Arial" font-size="14.00" fill="#c6c5fe">scenes/sceneFunctions.js</text>
</g>
<!-- actions/Engine.js&#45;&gt;scenes/sceneFunctions.js -->
<g id="edge3" class="edge"><title>actions/Engine.js&#45;&gt;scenes/sceneFunctions.js</title>
<path fill="none" stroke="#757575" d="M942.717,-478.682C977.368,-469.642 1025.74,-457.023 1062.74,-447.372"/>
<polygon fill="#757575" stroke="#757575" points="1064.06,-450.645 1072.85,-444.734 1062.29,-443.872 1064.06,-450.645"/>
</g>
<!-- scenes/sceneSymbols.js -->
<g id="node6" class="node"><title>scenes/sceneSymbols.js</title>
<path fill="none" stroke="#cfffac" d="M2923.33,-505.717C2923.33,-505.717 2762.67,-505.717 2762.67,-505.717 2758.83,-505.717 2755,-501.883 2755,-498.05 2755,-498.05 2755,-490.383 2755,-490.383 2755,-486.55 2758.83,-482.717 2762.67,-482.717 2762.67,-482.717 2923.33,-482.717 2923.33,-482.717 2927.17,-482.717 2931,-486.55 2931,-490.383 2931,-490.383 2931,-498.05 2931,-498.05 2931,-501.883 2927.17,-505.717 2923.33,-505.717"/>
<text text-anchor="middle" x="2843" y="-490.517" font-family="Arial" font-size="14.00" fill="#cfffac">scenes/sceneSymbols.js</text>
</g>
<!-- actions/Engine.js&#45;&gt;scenes/sceneSymbols.js -->
<g id="edge4" class="edge"><title>actions/Engine.js&#45;&gt;scenes/sceneSymbols.js</title>
<path fill="none" stroke="#757575" d="M927.399,-501.767C995.432,-527.882 1171.5,-589.217 1324.5,-589.217 1324.5,-589.217 1324.5,-589.217 2440,-589.217 2565.21,-589.217 2598.78,-585.186 2719,-550.217 2752.22,-540.555 2787.97,-523.449 2812.32,-510.677"/>
<polygon fill="#757575" stroke="#757575" points="2814.2,-513.639 2821.38,-505.847 2810.91,-507.462 2814.2,-513.639"/>
</g>
<!-- scenes/sceneFunctions.js&#45;&gt;actions/Core.js -->
<g id="edge48" class="edge"><title>scenes/sceneFunctions.js&#45;&gt;actions/Core.js</title>
<path fill="none" stroke="#757575" d="M1155.82,-421.709C1215.28,-403.773 1336.47,-369.892 1442,-357.217 1504.49,-349.71 1576.4,-350.066 1627.01,-351.785"/>
<polygon fill="#757575" stroke="#757575" points="1627.03,-355.289 1637.16,-352.158 1627.29,-348.293 1627.03,-355.289"/>
</g>
<!-- scenes/sceneFunctions.js&#45;&gt;store/store.js -->
<g id="edge53" class="edge"><title>scenes/sceneFunctions.js&#45;&gt;store/store.js</title>
<path fill="none" stroke="#757575" d="M1123.61,-421.335C1136.87,-388.92 1178.47,-298.686 1245,-258.217 1344.02,-197.981 1387.1,-220.217 1503,-220.217 1503,-220.217 1503,-220.217 1911,-220.217 2015.89,-220.217 2137.87,-211.019 2208.37,-204.798"/>
<polygon fill="#757575" stroke="#757575" points="2208.75,-208.279 2218.4,-203.903 2208.12,-201.307 2208.75,-208.279"/>
</g>
<!-- scenes/sceneFunctions.js&#45;&gt;scenes/sceneSymbols.js -->
<g id="edge51" class="edge"><title>scenes/sceneFunctions.js&#45;&gt;scenes/sceneSymbols.js</title>
<path fill="none" stroke="#757575" d="M1140.36,-444.746C1197.45,-474.438 1358.98,-551.217 1503,-551.217 1503,-551.217 1503,-551.217 2440,-551.217 2564.67,-551.217 2596,-542.534 2719,-522.217 2741.57,-518.488 2766.2,-513.141 2787.45,-508.116"/>
<polygon fill="#757575" stroke="#757575" points="2788.36,-511.497 2797.27,-505.761 2786.73,-504.69 2788.36,-511.497"/>
</g>
<!-- scenes/charCreation.js -->
<g id="node33" class="node"><title>scenes/charCreation.js</title>
<path fill="none" stroke="#c6c5fe" d="M1398.33,-444.717C1398.33,-444.717 1252.67,-444.717 1252.67,-444.717 1248.83,-444.717 1245,-440.883 1245,-437.05 1245,-437.05 1245,-429.383 1245,-429.383 1245,-425.55 1248.83,-421.717 1252.67,-421.717 1252.67,-421.717 1398.33,-421.717 1398.33,-421.717 1402.17,-421.717 1406,-425.55 1406,-429.383 1406,-429.383 1406,-437.05 1406,-437.05 1406,-440.883 1402.17,-444.717 1398.33,-444.717"/>
<text text-anchor="middle" x="1325.5" y="-429.517" font-family="Arial" font-size="14.00" fill="#c6c5fe">scenes/charCreation.js</text>
</g>
<!-- scenes/sceneFunctions.js&#45;&gt;scenes/charCreation.js -->
<g id="edge49" class="edge"><title>scenes/sceneFunctions.js&#45;&gt;scenes/charCreation.js</title>
<path fill="none" stroke="#757575" d="M1209.14,-433.217C1217.57,-433.217 1226.12,-433.217 1234.55,-433.217"/>
<polygon fill="#757575" stroke="#757575" points="1234.76,-436.717 1244.76,-433.217 1234.76,-429.717 1234.76,-436.717"/>
</g>
<!-- scenes/menus.js -->
<g id="node34" class="node"><title>scenes/menus.js</title>
<path fill="none" stroke="#c6c5fe" d="M1558.33,-484.717C1558.33,-484.717 1449.67,-484.717 1449.67,-484.717 1445.83,-484.717 1442,-480.883 1442,-477.05 1442,-477.05 1442,-469.383 1442,-469.383 1442,-465.55 1445.83,-461.717 1449.67,-461.717 1449.67,-461.717 1558.33,-461.717 1558.33,-461.717 1562.17,-461.717 1566,-465.55 1566,-469.383 1566,-469.383 1566,-477.05 1566,-477.05 1566,-480.883 1562.17,-484.717 1558.33,-484.717"/>
<text text-anchor="middle" x="1504" y="-469.517" font-family="Arial" font-size="14.00" fill="#c6c5fe">scenes/menus.js</text>
</g>
<!-- scenes/sceneFunctions.js&#45;&gt;scenes/menus.js -->
<g id="edge50" class="edge"><title>scenes/sceneFunctions.js&#45;&gt;scenes/menus.js</title>
<path fill="none" stroke="#757575" d="M1185.23,-444.75C1204.47,-447.822 1225.53,-450.921 1245,-453.217 1307.95,-460.641 1379.88,-465.956 1431.77,-469.233"/>
<polygon fill="#757575" stroke="#757575" points="1431.68,-472.733 1441.88,-469.861 1432.11,-465.747 1431.68,-472.733"/>
</g>
<!-- scenes/tests/testing.js -->
<g id="node36" class="node"><title>scenes/tests/testing.js</title>
<path fill="none" stroke="#cfffac" d="M1396.83,-290.717C1396.83,-290.717 1254.17,-290.717 1254.17,-290.717 1250.33,-290.717 1246.5,-286.883 1246.5,-283.05 1246.5,-283.05 1246.5,-275.383 1246.5,-275.383 1246.5,-271.55 1250.33,-267.717 1254.17,-267.717 1254.17,-267.717 1396.83,-267.717 1396.83,-267.717 1400.67,-267.717 1404.5,-271.55 1404.5,-275.383 1404.5,-275.383 1404.5,-283.05 1404.5,-283.05 1404.5,-286.883 1400.67,-290.717 1396.83,-290.717"/>
<text text-anchor="middle" x="1325.5" y="-275.517" font-family="Arial" font-size="14.00" fill="#cfffac">scenes/tests/testing.js</text>
</g>
<!-- scenes/sceneFunctions.js&#45;&gt;scenes/tests/testing.js -->
<g id="edge52" class="edge"><title>scenes/sceneFunctions.js&#45;&gt;scenes/tests/testing.js</title>
<path fill="none" stroke="#757575" d="M1127.39,-421.49C1145.84,-396.521 1192.52,-337.734 1245,-305.217 1251.85,-300.975 1259.46,-297.352 1267.18,-294.277"/>
<polygon fill="#757575" stroke="#757575" points="1268.44,-297.542 1276.61,-290.794 1266.02,-290.975 1268.44,-297.542"/>
</g>
<!-- actions/Player.js -->
<g id="node7" class="node"><title>actions/Player.js</title>
<path fill="none" stroke="#c6c5fe" d="M2147.33,-347.717C2147.33,-347.717 2043.67,-347.717 2043.67,-347.717 2039.83,-347.717 2036,-343.883 2036,-340.05 2036,-340.05 2036,-332.383 2036,-332.383 2036,-328.55 2039.83,-324.717 2043.67,-324.717 2043.67,-324.717 2147.33,-324.717 2147.33,-324.717 2151.17,-324.717 2155,-328.55 2155,-332.383 2155,-332.383 2155,-340.05 2155,-340.05 2155,-343.883 2151.17,-347.717 2147.33,-347.717"/>
<text text-anchor="middle" x="2095.5" y="-332.517" font-family="Arial" font-size="14.00" fill="#c6c5fe">actions/Player.js</text>
</g>
<!-- actions/Player.js&#45;&gt;store/store.js -->
<g id="edge6" class="edge"><title>actions/Player.js&#45;&gt;store/store.js</title>
<path fill="none" stroke="#757575" d="M2133.81,-324.667C2141.52,-320.981 2149.08,-316.242 2155,-310.217 2183.75,-280.952 2160.98,-253.179 2191,-225.217 2196.14,-220.427 2202.2,-216.516 2208.63,-213.322"/>
<polygon fill="#757575" stroke="#757575" points="2210.46,-216.343 2218.22,-209.139 2207.66,-209.926 2210.46,-216.343"/>
</g>
<!-- actions/playerMsg.js -->
<g id="node8" class="node"><title>actions/playerMsg.js</title>
<path fill="none" stroke="#cfffac" d="M2907.83,-69.7165C2907.83,-69.7165 2778.17,-69.7165 2778.17,-69.7165 2774.33,-69.7165 2770.5,-65.8832 2770.5,-62.0498 2770.5,-62.0498 2770.5,-54.3832 2770.5,-54.3832 2770.5,-50.5498 2774.33,-46.7165 2778.17,-46.7165 2778.17,-46.7165 2907.83,-46.7165 2907.83,-46.7165 2911.67,-46.7165 2915.5,-50.5498 2915.5,-54.3832 2915.5,-54.3832 2915.5,-62.0498 2915.5,-62.0498 2915.5,-65.8832 2911.67,-69.7165 2907.83,-69.7165"/>
<text text-anchor="middle" x="2843" y="-54.5165" font-family="Arial" font-size="14.00" fill="#cfffac">actions/playerMsg.js</text>
</g>
<!-- actions/Player.js&#45;&gt;actions/playerMsg.js -->
<g id="edge5" class="edge"><title>actions/Player.js&#45;&gt;actions/playerMsg.js</title>
<path fill="none" stroke="#757575" d="M2121.95,-324.69C2132.48,-319.537 2144.62,-313.079 2155,-306.217 2172.37,-294.728 2172.97,-286.649 2191,-276.217 2254.17,-239.661 2284.86,-260.568 2345,-219.217 2364.98,-205.477 2364.67,-196.147 2381,-178.217 2447.25,-105.453 2442.63,-56.1781 2533,-17.2165 2626.48,23.089 2749.43,-17.9803 2808.06,-42.5947"/>
<polygon fill="#757575" stroke="#757575" points="2807,-45.9496 2817.57,-46.6825 2809.77,-39.5184 2807,-45.9496"/>
</g>
<!-- symbols/breastCup.js -->
<g id="node9" class="node"><title>symbols/breastCup.js</title>
<path fill="none" stroke="#cfffac" d="M2337.33,-349.717C2337.33,-349.717 2198.67,-349.717 2198.67,-349.717 2194.83,-349.717 2191,-345.883 2191,-342.05 2191,-342.05 2191,-334.383 2191,-334.383 2191,-330.55 2194.83,-326.717 2198.67,-326.717 2198.67,-326.717 2337.33,-326.717 2337.33,-326.717 2341.17,-326.717 2345,-330.55 2345,-334.383 2345,-334.383 2345,-342.05 2345,-342.05 2345,-345.883 2341.17,-349.717 2337.33,-349.717"/>
<text text-anchor="middle" x="2268" y="-334.517" font-family="Arial" font-size="14.00" fill="#cfffac">symbols/breastCup.js</text>
</g>
<!-- actions/Player.js&#45;&gt;symbols/breastCup.js -->
<g id="edge7" class="edge"><title>actions/Player.js&#45;&gt;symbols/breastCup.js</title>
<path fill="none" stroke="#757575" d="M2155.18,-336.905C2163.42,-337.001 2172.02,-337.102 2180.64,-337.204"/>
<polygon fill="#757575" stroke="#757575" points="2180.71,-340.704 2190.75,-337.322 2180.79,-333.705 2180.71,-340.704"/>
</g>
<!-- symbols/cockType.js -->
<g id="node10" class="node"><title>symbols/cockType.js</title>
<path fill="none" stroke="#cfffac" d="M2335.33,-308.717C2335.33,-308.717 2200.67,-308.717 2200.67,-308.717 2196.83,-308.717 2193,-304.883 2193,-301.05 2193,-301.05 2193,-293.383 2193,-293.383 2193,-289.55 2196.83,-285.717 2200.67,-285.717 2200.67,-285.717 2335.33,-285.717 2335.33,-285.717 2339.17,-285.717 2343,-289.55 2343,-293.383 2343,-293.383 2343,-301.05 2343,-301.05 2343,-304.883 2339.17,-308.717 2335.33,-308.717"/>
<text text-anchor="middle" x="2268" y="-293.517" font-family="Arial" font-size="14.00" fill="#cfffac">symbols/cockType.js</text>
</g>
<!-- actions/Player.js&#45;&gt;symbols/cockType.js -->
<g id="edge8" class="edge"><title>actions/Player.js&#45;&gt;symbols/cockType.js</title>
<path fill="none" stroke="#757575" d="M2147.19,-324.621C2165.83,-320.357 2187.13,-315.486 2206.54,-311.045"/>
<polygon fill="#757575" stroke="#757575" points="2207.53,-314.409 2216.5,-308.768 2205.97,-307.586 2207.53,-314.409"/>
</g>
<!-- actions/engineMsg.js -->
<g id="node11" class="node"><title>actions/engineMsg.js</title>
<path fill="none" stroke="#cfffac" d="M2692.83,-252.717C2692.83,-252.717 2559.17,-252.717 2559.17,-252.717 2555.33,-252.717 2551.5,-248.883 2551.5,-245.05 2551.5,-245.05 2551.5,-237.383 2551.5,-237.383 2551.5,-233.55 2555.33,-229.717 2559.17,-229.717 2559.17,-229.717 2692.83,-229.717 2692.83,-229.717 2696.67,-229.717 2700.5,-233.55 2700.5,-237.383 2700.5,-237.383 2700.5,-245.05 2700.5,-245.05 2700.5,-248.883 2696.67,-252.717 2692.83,-252.717"/>
<text text-anchor="middle" x="2626" y="-237.517" font-family="Arial" font-size="14.00" fill="#cfffac">actions/engineMsg.js</text>
</g>
<!-- components/appRoot.js -->
<g id="node12" class="node"><title>components/appRoot.js</title>
<path fill="none" stroke="#c6c5fe" d="M298.333,-480.717C298.333,-480.717 145.667,-480.717 145.667,-480.717 141.833,-480.717 138,-476.883 138,-473.05 138,-473.05 138,-465.383 138,-465.383 138,-461.55 141.833,-457.717 145.667,-457.717 145.667,-457.717 298.333,-457.717 298.333,-457.717 302.167,-457.717 306,-461.55 306,-465.383 306,-465.383 306,-473.05 306,-473.05 306,-476.883 302.167,-480.717 298.333,-480.717"/>
<text text-anchor="middle" x="222" y="-465.517" font-family="Arial" font-size="14.00" fill="#c6c5fe">components/appRoot.js</text>
</g>
<!-- components/lowerButtons.js -->
<g id="node13" class="node"><title>components/lowerButtons.js</title>
<path fill="none" stroke="#c6c5fe" d="M529.333,-480.717C529.333,-480.717 349.667,-480.717 349.667,-480.717 345.833,-480.717 342,-476.883 342,-473.05 342,-473.05 342,-465.383 342,-465.383 342,-461.55 345.833,-457.717 349.667,-457.717 349.667,-457.717 529.333,-457.717 529.333,-457.717 533.167,-457.717 537,-461.55 537,-465.383 537,-465.383 537,-473.05 537,-473.05 537,-476.883 533.167,-480.717 529.333,-480.717"/>
<text text-anchor="middle" x="439.5" y="-465.517" font-family="Arial" font-size="14.00" fill="#c6c5fe">components/lowerButtons.js</text>
</g>
<!-- components/appRoot.js&#45;&gt;components/lowerButtons.js -->
<g id="edge9" class="edge"><title>components/appRoot.js&#45;&gt;components/lowerButtons.js</title>
<path fill="none" stroke="#757575" d="M306.01,-469.217C314.447,-469.217 323.097,-469.217 331.74,-469.217"/>
<polygon fill="#757575" stroke="#757575" points="331.868,-472.717 341.868,-469.217 331.868,-465.717 331.868,-472.717"/>
</g>
<!-- components/menuBar.js -->
<g id="node14" class="node"><title>components/menuBar.js</title>
<path fill="none" stroke="#c6c5fe" d="M516.833,-521.717C516.833,-521.717 362.167,-521.717 362.167,-521.717 358.333,-521.717 354.5,-517.883 354.5,-514.05 354.5,-514.05 354.5,-506.383 354.5,-506.383 354.5,-502.55 358.333,-498.717 362.167,-498.717 362.167,-498.717 516.833,-498.717 516.833,-498.717 520.667,-498.717 524.5,-502.55 524.5,-506.383 524.5,-506.383 524.5,-514.05 524.5,-514.05 524.5,-517.883 520.667,-521.717 516.833,-521.717"/>
<text text-anchor="middle" x="439.5" y="-506.517" font-family="Arial" font-size="14.00" fill="#c6c5fe">components/menuBar.js</text>
</g>
<!-- components/appRoot.js&#45;&gt;components/menuBar.js -->
<g id="edge10" class="edge"><title>components/appRoot.js&#45;&gt;components/menuBar.js</title>
<path fill="none" stroke="#757575" d="M283.602,-480.746C309.88,-485.746 340.817,-491.632 368.106,-496.824"/>
<polygon fill="#757575" stroke="#757575" points="367.502,-500.271 377.98,-498.702 368.81,-493.395 367.502,-500.271"/>
</g>
<!-- components/output.js -->
<g id="node15" class="node"><title>components/output.js</title>
<path fill="none" stroke="#cfffac" d="M507.833,-439.717C507.833,-439.717 371.167,-439.717 371.167,-439.717 367.333,-439.717 363.5,-435.883 363.5,-432.05 363.5,-432.05 363.5,-424.383 363.5,-424.383 363.5,-420.55 367.333,-416.717 371.167,-416.717 371.167,-416.717 507.833,-416.717 507.833,-416.717 511.667,-416.717 515.5,-420.55 515.5,-424.383 515.5,-424.383 515.5,-432.05 515.5,-432.05 515.5,-435.883 511.667,-439.717 507.833,-439.717"/>
<text text-anchor="middle" x="439.5" y="-424.517" font-family="Arial" font-size="14.00" fill="#cfffac">components/output.js</text>
</g>
<!-- components/appRoot.js&#45;&gt;components/output.js -->
<g id="edge11" class="edge"><title>components/appRoot.js&#45;&gt;components/output.js</title>
<path fill="none" stroke="#757575" d="M283.602,-457.687C309.88,-452.687 340.817,-446.801 368.106,-441.609"/>
<polygon fill="#757575" stroke="#757575" points="368.81,-445.038 377.98,-439.731 367.502,-438.162 368.81,-445.038"/>
</g>
<!-- components/statBar.js -->
<g id="node16" class="node"><title>components/statBar.js</title>
<path fill="none" stroke="#c6c5fe" d="M510.833,-573.717C510.833,-573.717 368.167,-573.717 368.167,-573.717 364.333,-573.717 360.5,-569.883 360.5,-566.05 360.5,-566.05 360.5,-558.383 360.5,-558.383 360.5,-554.55 364.333,-550.717 368.167,-550.717 368.167,-550.717 510.833,-550.717 510.833,-550.717 514.667,-550.717 518.5,-554.55 518.5,-558.383 518.5,-558.383 518.5,-566.05 518.5,-566.05 518.5,-569.883 514.667,-573.717 510.833,-573.717"/>
<text text-anchor="middle" x="439.5" y="-558.517" font-family="Arial" font-size="14.00" fill="#c6c5fe">components/statBar.js</text>
</g>
<!-- components/appRoot.js&#45;&gt;components/statBar.js -->
<g id="edge12" class="edge"><title>components/appRoot.js&#45;&gt;components/statBar.js</title>
<path fill="none" stroke="#757575" d="M243.183,-480.774C266.498,-493.836 306.244,-515.228 342,-530.217 357.089,-536.542 373.903,-542.482 389.214,-547.486"/>
<polygon fill="#757575" stroke="#757575" points="388.435,-550.912 399.026,-550.635 390.574,-544.247 388.435,-550.912"/>
</g>
<!-- components/buttonGrid.js -->
<g id="node18" class="node"><title>components/buttonGrid.js</title>
<path fill="none" stroke="#c6c5fe" d="M752.333,-501.717C752.333,-501.717 588.667,-501.717 588.667,-501.717 584.833,-501.717 581,-497.883 581,-494.05 581,-494.05 581,-486.383 581,-486.383 581,-482.55 584.833,-478.717 588.667,-478.717 588.667,-478.717 752.333,-478.717 752.333,-478.717 756.167,-478.717 760,-482.55 760,-486.383 760,-486.383 760,-494.05 760,-494.05 760,-497.883 756.167,-501.717 752.333,-501.717"/>
<text text-anchor="middle" x="670.5" y="-486.517" font-family="Arial" font-size="14.00" fill="#c6c5fe">components/buttonGrid.js</text>
</g>
<!-- components/lowerButtons.js&#45;&gt;components/buttonGrid.js -->
<g id="edge16" class="edge"><title>components/lowerButtons.js&#45;&gt;components/buttonGrid.js</title>
<path fill="none" stroke="#757575" d="M537.285,-478.092C548.313,-479.103 559.566,-480.135 570.621,-481.149"/>
<polygon fill="#757575" stroke="#757575" points="570.427,-484.646 580.705,-482.074 571.067,-477.675 570.427,-484.646"/>
</g>
<!-- components/menuBar.js&#45;&gt;components/buttonGrid.js -->
<g id="edge17" class="edge"><title>components/menuBar.js&#45;&gt;components/buttonGrid.js</title>
<path fill="none" stroke="#757575" d="M524.796,-502.854C539.755,-501.548 555.456,-500.177 570.773,-498.839"/>
<polygon fill="#757575" stroke="#757575" points="571.114,-502.323 580.771,-497.966 570.505,-495.349 571.114,-502.323"/>
</g>
<!-- components/spriteDisplay.js -->
<g id="node21" class="node"><title>components/spriteDisplay.js</title>
<path fill="none" stroke="#cfffac" d="M760.333,-542.717C760.333,-542.717 580.667,-542.717 580.667,-542.717 576.833,-542.717 573,-538.883 573,-535.05 573,-535.05 573,-527.383 573,-527.383 573,-523.55 576.833,-519.717 580.667,-519.717 580.667,-519.717 760.333,-519.717 760.333,-519.717 764.167,-519.717 768,-523.55 768,-527.383 768,-527.383 768,-535.05 768,-535.05 768,-538.883 764.167,-542.717 760.333,-542.717"/>
<text text-anchor="middle" x="670.5" y="-527.517" font-family="Arial" font-size="14.00" fill="#cfffac">components/spriteDisplay.js</text>
</g>
<!-- components/statBar.js&#45;&gt;components/spriteDisplay.js -->
<g id="edge20" class="edge"><title>components/statBar.js&#45;&gt;components/spriteDisplay.js</title>
<path fill="none" stroke="#757575" d="M518.668,-551.635C536.571,-549.211 555.795,-546.609 574.324,-544.101"/>
<polygon fill="#757575" stroke="#757575" points="574.795,-547.569 584.235,-542.759 573.856,-540.632 574.795,-547.569"/>
</g>
<!-- components/statDisplay.js -->
<g id="node23" class="node"><title>components/statDisplay.js</title>
<path fill="none" stroke="#c6c5fe" d="M753.833,-624.717C753.833,-624.717 587.167,-624.717 587.167,-624.717 583.333,-624.717 579.5,-620.883 579.5,-617.05 579.5,-617.05 579.5,-609.383 579.5,-609.383 579.5,-605.55 583.333,-601.717 587.167,-601.717 587.167,-601.717 753.833,-601.717 753.833,-601.717 757.667,-601.717 761.5,-605.55 761.5,-609.383 761.5,-609.383 761.5,-617.05 761.5,-617.05 761.5,-620.883 757.667,-624.717 753.833,-624.717"/>
<text text-anchor="middle" x="670.5" y="-609.517" font-family="Arial" font-size="14.00" fill="#c6c5fe">components/statDisplay.js</text>
</g>
<!-- components/statBar.js&#45;&gt;components/statDisplay.js -->
<g id="edge21" class="edge"><title>components/statBar.js&#45;&gt;components/statDisplay.js</title>
<path fill="none" stroke="#757575" d="M488.58,-573.776C513.7,-579.737 544.97,-587.034 573,-593.217 582.586,-595.331 592.723,-597.502 602.681,-599.599"/>
<polygon fill="#757575" stroke="#757575" points="602.049,-603.042 612.554,-601.665 603.483,-596.19 602.049,-603.042"/>
</g>
<!-- components/timeDisplay.js -->
<g id="node24" class="node"><title>components/timeDisplay.js</title>
<path fill="none" stroke="#cfffac" d="M756.333,-583.717C756.333,-583.717 584.667,-583.717 584.667,-583.717 580.833,-583.717 577,-579.883 577,-576.05 577,-576.05 577,-568.383 577,-568.383 577,-564.55 580.833,-560.717 584.667,-560.717 584.667,-560.717 756.333,-560.717 756.333,-560.717 760.167,-560.717 764,-564.55 764,-568.383 764,-568.383 764,-576.05 764,-576.05 764,-579.883 760.167,-583.717 756.333,-583.717"/>
<text text-anchor="middle" x="670.5" y="-568.517" font-family="Arial" font-size="14.00" fill="#cfffac">components/timeDisplay.js</text>
</g>
<!-- components/statBar.js&#45;&gt;components/timeDisplay.js -->
<g id="edge22" class="edge"><title>components/statBar.js&#45;&gt;components/timeDisplay.js</title>
<path fill="none" stroke="#757575" d="M518.668,-565.63C533.974,-566.298 550.245,-567.009 566.223,-567.707"/>
<polygon fill="#757575" stroke="#757575" points="566.523,-571.223 576.666,-568.163 566.829,-564.23 566.523,-571.223"/>
</g>
<!-- components/button.js -->
<g id="node17" class="node"><title>components/button.js</title>
<path fill="none" stroke="#cfffac" d="M1186.33,-640.717C1186.33,-640.717 1049.67,-640.717 1049.67,-640.717 1045.83,-640.717 1042,-636.883 1042,-633.05 1042,-633.05 1042,-625.383 1042,-625.383 1042,-621.55 1045.83,-617.717 1049.67,-617.717 1049.67,-617.717 1186.33,-617.717 1186.33,-617.717 1190.17,-617.717 1194,-621.55 1194,-625.383 1194,-625.383 1194,-633.05 1194,-633.05 1194,-636.883 1190.17,-640.717 1186.33,-640.717"/>
<text text-anchor="middle" x="1118" y="-625.517" font-family="Arial" font-size="14.00" fill="#cfffac">components/button.js</text>
</g>
<!-- components/buttonGrid.js&#45;&gt;actions/Engine.js -->
<g id="edge13" class="edge"><title>components/buttonGrid.js&#45;&gt;actions/Engine.js</title>
<path fill="none" stroke="#757575" d="M760.103,-490.217C781.669,-490.217 804.464,-490.217 825.115,-490.217"/>
<polygon fill="#757575" stroke="#757575" points="825.383,-493.717 835.383,-490.217 825.383,-486.717 825.383,-493.717"/>
</g>
<!-- components/buttonWrap.js -->
<g id="node19" class="node"><title>components/buttonWrap.js</title>
<path fill="none" stroke="#c6c5fe" d="M983.333,-563.717C983.333,-563.717 811.667,-563.717 811.667,-563.717 807.833,-563.717 804,-559.883 804,-556.05 804,-556.05 804,-548.383 804,-548.383 804,-544.55 807.833,-540.717 811.667,-540.717 811.667,-540.717 983.333,-540.717 983.333,-540.717 987.167,-540.717 991,-544.55 991,-548.383 991,-548.383 991,-556.05 991,-556.05 991,-559.883 987.167,-563.717 983.333,-563.717"/>
<text text-anchor="middle" x="897.5" y="-548.517" font-family="Arial" font-size="14.00" fill="#c6c5fe">components/buttonWrap.js</text>
</g>
<!-- components/buttonGrid.js&#45;&gt;components/buttonWrap.js -->
<g id="edge14" class="edge"><title>components/buttonGrid.js&#45;&gt;components/buttonWrap.js</title>
<path fill="none" stroke="#757575" d="M732.228,-501.725C744.145,-504.286 756.509,-507.158 768,-510.217 797.434,-518.051 830.047,-528.735 855.053,-537.367"/>
<polygon fill="#757575" stroke="#757575" points="853.989,-540.702 864.584,-540.684 856.29,-534.091 853.989,-540.702"/>
</g>
<!-- components/buttonWrap.js&#45;&gt;components/button.js -->
<g id="edge15" class="edge"><title>components/buttonWrap.js&#45;&gt;components/button.js</title>
<path fill="none" stroke="#757575" d="M925.292,-563.728C951.092,-574.603 991.345,-591.023 1027,-603.217 1038.9,-607.286 1051.82,-611.27 1064.06,-614.847"/>
<polygon fill="#757575" stroke="#757575" points="1063.13,-618.219 1073.7,-617.624 1065.06,-611.493 1063.13,-618.219"/>
</g>
<!-- components/nameInput.js -->
<g id="node20" class="node"><title>components/nameInput.js</title>
<path fill="none" stroke="#c6c5fe" d="M1992.33,-328.717C1992.33,-328.717 1827.67,-328.717 1827.67,-328.717 1823.83,-328.717 1820,-324.883 1820,-321.05 1820,-321.05 1820,-313.383 1820,-313.383 1820,-309.55 1823.83,-305.717 1827.67,-305.717 1827.67,-305.717 1992.33,-305.717 1992.33,-305.717 1996.17,-305.717 2000,-309.55 2000,-313.383 2000,-313.383 2000,-321.05 2000,-321.05 2000,-324.883 1996.17,-328.717 1992.33,-328.717"/>
<text text-anchor="middle" x="1910" y="-313.517" font-family="Arial" font-size="14.00" fill="#c6c5fe">components/nameInput.js</text>
</g>
<!-- components/nameInput.js&#45;&gt;store/store.js -->
<g id="edge19" class="edge"><title>components/nameInput.js&#45;&gt;store/store.js</title>
<path fill="none" stroke="#757575" d="M2000.06,-316.128C2048.89,-311.919 2108.72,-300.575 2155,-272.217 2177.44,-258.469 2169.64,-240.578 2191,-225.217 2196.63,-221.169 2202.94,-217.713 2209.45,-214.771"/>
<polygon fill="#757575" stroke="#757575" points="2211.16,-217.853 2219.08,-210.82 2208.5,-211.377 2211.16,-217.853"/>
</g>
<!-- components/nameInput.js&#45;&gt;actions/Player.js -->
<g id="edge18" class="edge"><title>components/nameInput.js&#45;&gt;actions/Player.js</title>
<path fill="none" stroke="#757575" d="M2000.06,-326.438C2008.7,-327.332 2017.36,-328.23 2025.75,-329.098"/>
<polygon fill="#757575" stroke="#757575" points="2025.53,-332.593 2035.83,-330.142 2026.25,-325.631 2025.53,-332.593"/>
</g>
<!-- components/stat.js -->
<g id="node22" class="node"><title>components/stat.js</title>
<path fill="none" stroke="#cfffac" d="M957.833,-624.717C957.833,-624.717 837.167,-624.717 837.167,-624.717 833.333,-624.717 829.5,-620.883 829.5,-617.05 829.5,-617.05 829.5,-609.383 829.5,-609.383 829.5,-605.55 833.333,-601.717 837.167,-601.717 837.167,-601.717 957.833,-601.717 957.833,-601.717 961.667,-601.717 965.5,-605.55 965.5,-609.383 965.5,-609.383 965.5,-617.05 965.5,-617.05 965.5,-620.883 961.667,-624.717 957.833,-624.717"/>
<text text-anchor="middle" x="897.5" y="-609.517" font-family="Arial" font-size="14.00" fill="#cfffac">components/stat.js</text>
</g>
<!-- components/statDisplay.js&#45;&gt;components/stat.js -->
<g id="edge23" class="edge"><title>components/statDisplay.js&#45;&gt;components/stat.js</title>
<path fill="none" stroke="#757575" d="M761.72,-613.217C780.804,-613.217 800.779,-613.217 819.327,-613.217"/>
<polygon fill="#757575" stroke="#757575" points="819.471,-616.717 829.471,-613.217 819.471,-609.717 819.471,-616.717"/>
</g>
<!-- index.js -->
<g id="node25" class="node"><title>index.js</title>
<path fill="none" stroke="#c6c5fe" d="M75.8333,-336.717C75.8333,-336.717 26.1667,-336.717 26.1667,-336.717 22.3333,-336.717 18.5,-332.883 18.5,-329.05 18.5,-329.05 18.5,-321.383 18.5,-321.383 18.5,-317.55 22.3333,-313.717 26.1667,-313.717 26.1667,-313.717 75.8333,-313.717 75.8333,-313.717 79.6667,-313.717 83.5,-317.55 83.5,-321.383 83.5,-321.383 83.5,-329.05 83.5,-329.05 83.5,-332.883 79.6667,-336.717 75.8333,-336.717"/>
<text text-anchor="middle" x="51" y="-321.517" font-family="Arial" font-size="14.00" fill="#c6c5fe">index.js</text>
</g>
<!-- index.js&#45;&gt;store/store.js -->
<g id="edge25" class="edge"><title>index.js&#45;&gt;store/store.js</title>
<path fill="none" stroke="#757575" d="M69.6351,-313.514C122.864,-279.362 287.538,-182.217 438.5,-182.217 438.5,-182.217 438.5,-182.217 1911,-182.217 2015.83,-182.217 2137.82,-189.662 2208.35,-194.698"/>
<polygon fill="#757575" stroke="#757575" points="2208.15,-198.193 2218.38,-195.423 2208.66,-191.211 2208.15,-198.193"/>
</g>
<!-- index.js&#45;&gt;components/appRoot.js -->
<g id="edge24" class="edge"><title>index.js&#45;&gt;components/appRoot.js</title>
<path fill="none" stroke="#757575" d="M83.7096,-335.528C90.0218,-338.225 96.4187,-341.453 102,-345.217 145.564,-374.59 185.502,-422.225 206.189,-449.101"/>
<polygon fill="#757575" stroke="#757575" points="203.618,-451.503 212.444,-457.363 209.199,-447.277 203.618,-451.503"/>
</g>
<!-- reducers/root.js&#45;&gt;actions/coreMsg.js -->
<g id="edge26" class="edge"><title>reducers/root.js&#45;&gt;actions/coreMsg.js</title>
<path fill="none" stroke="#757575" d="M2448.51,-210.724C2463.3,-229.737 2495.76,-267.29 2533,-284.217 2606.83,-317.776 2700.41,-324.003 2765.14,-323.418"/>
<polygon fill="#757575" stroke="#757575" points="2765.32,-326.916 2775.27,-323.269 2765.22,-319.916 2765.32,-326.916"/>
</g>
<!-- reducers/root.js&#45;&gt;actions/playerMsg.js -->
<g id="edge28" class="edge"><title>reducers/root.js&#45;&gt;actions/playerMsg.js</title>
<path fill="none" stroke="#757575" d="M2446.67,-187.594C2459.93,-165.673 2491.94,-118.514 2533,-97.2165 2571.36,-77.3194 2682.26,-67.0654 2760.17,-62.1692"/>
<polygon fill="#757575" stroke="#757575" points="2760.69,-65.6442 2770.46,-61.5417 2760.26,-58.6572 2760.69,-65.6442"/>
</g>
<!-- reducers/root.js&#45;&gt;actions/engineMsg.js -->
<g id="edge27" class="edge"><title>reducers/root.js&#45;&gt;actions/engineMsg.js</title>
<path fill="none" stroke="#757575" d="M2491.04,-210.804C2513.69,-215.946 2540.52,-222.036 2564.19,-227.411"/>
<polygon fill="#757575" stroke="#757575" points="2563.6,-230.866 2574.12,-229.666 2565.15,-224.039 2563.6,-230.866"/>
</g>
<!-- reducers/updateBodyArr.js -->
<g id="node27" class="node"><title>reducers/updateBodyArr.js</title>
<path fill="none" stroke="#c6c5fe" d="M2711.33,-49.7165C2711.33,-49.7165 2540.67,-49.7165 2540.67,-49.7165 2536.83,-49.7165 2533,-45.8832 2533,-42.0498 2533,-42.0498 2533,-34.3832 2533,-34.3832 2533,-30.5498 2536.83,-26.7165 2540.67,-26.7165 2540.67,-26.7165 2711.33,-26.7165 2711.33,-26.7165 2715.17,-26.7165 2719,-30.5498 2719,-34.3832 2719,-34.3832 2719,-42.0498 2719,-42.0498 2719,-45.8832 2715.17,-49.7165 2711.33,-49.7165"/>
<text text-anchor="middle" x="2626" y="-34.5165" font-family="Arial" font-size="14.00" fill="#c6c5fe">reducers/updateBodyArr.js</text>
</g>
<!-- reducers/root.js&#45;&gt;reducers/updateBodyArr.js -->
<g id="edge29" class="edge"><title>reducers/root.js&#45;&gt;reducers/updateBodyArr.js</title>
<path fill="none" stroke="#757575" d="M2444.76,-187.421C2455.99,-161.114 2486.72,-97.359 2533,-64.2165 2538.94,-59.9643 2545.55,-56.4057 2552.43,-53.4279"/>
<polygon fill="#757575" stroke="#757575" points="2553.9,-56.6116 2561.95,-49.7168 2551.36,-50.0901 2553.9,-56.6116"/>
</g>
<!-- reducers/updateStats.js -->
<g id="node28" class="node"><title>reducers/updateStats.js</title>
<path fill="none" stroke="#c6c5fe" d="M2701.83,-129.717C2701.83,-129.717 2550.17,-129.717 2550.17,-129.717 2546.33,-129.717 2542.5,-125.883 2542.5,-122.05 2542.5,-122.05 2542.5,-114.383 2542.5,-114.383 2542.5,-110.55 2546.33,-106.717 2550.17,-106.717 2550.17,-106.717 2701.83,-106.717 2701.83,-106.717 2705.67,-106.717 2709.5,-110.55 2709.5,-114.383 2709.5,-114.383 2709.5,-122.05 2709.5,-122.05 2709.5,-125.883 2705.67,-129.717 2701.83,-129.717"/>
<text text-anchor="middle" x="2626" y="-114.517" font-family="Arial" font-size="14.00" fill="#c6c5fe">reducers/updateStats.js</text>
</g>
<!-- reducers/root.js&#45;&gt;reducers/updateStats.js -->
<g id="edge30" class="edge"><title>reducers/root.js&#45;&gt;reducers/updateStats.js</title>
<path fill="none" stroke="#757575" d="M2454.19,-187.49C2471.65,-173.65 2502.73,-150.917 2533,-138.217 2537.78,-136.212 2542.78,-134.398 2547.88,-132.757"/>
<polygon fill="#757575" stroke="#757575" points="2549.19,-136.019 2557.78,-129.811 2547.19,-129.31 2549.19,-136.019"/>
</g>
<!-- reducers/updateTime.js -->
<g id="node29" class="node"><title>reducers/updateTime.js</title>
<path fill="none" stroke="#c6c5fe" d="M2701.83,-170.717C2701.83,-170.717 2550.17,-170.717 2550.17,-170.717 2546.33,-170.717 2542.5,-166.883 2542.5,-163.05 2542.5,-163.05 2542.5,-155.383 2542.5,-155.383 2542.5,-151.55 2546.33,-147.717 2550.17,-147.717 2550.17,-147.717 2701.83,-147.717 2701.83,-147.717 2705.67,-147.717 2709.5,-151.55 2709.5,-155.383 2709.5,-155.383 2709.5,-163.05 2709.5,-163.05 2709.5,-166.883 2705.67,-170.717 2701.83,-170.717"/>
<text text-anchor="middle" x="2626" y="-155.517" font-family="Arial" font-size="14.00" fill="#c6c5fe">reducers/updateTime.js</text>
</g>
<!-- reducers/root.js&#45;&gt;reducers/updateTime.js -->
<g id="edge31" class="edge"><title>reducers/root.js&#45;&gt;reducers/updateTime.js</title>
<path fill="none" stroke="#757575" d="M2493.51,-187.647C2514.79,-183.045 2539.45,-177.714 2561.62,-172.92"/>
<polygon fill="#757575" stroke="#757575" points="2562.58,-176.295 2571.61,-170.76 2561.1,-169.453 2562.58,-176.295"/>
</g>
<!-- store/initialState.js -->
<g id="node30" class="node"><title>store/initialState.js</title>
<path fill="none" stroke="#c6c5fe" d="M2683.83,-370.717C2683.83,-370.717 2568.17,-370.717 2568.17,-370.717 2564.33,-370.717 2560.5,-366.883 2560.5,-363.05 2560.5,-363.05 2560.5,-355.383 2560.5,-355.383 2560.5,-351.55 2564.33,-347.717 2568.17,-347.717 2568.17,-347.717 2683.83,-347.717 2683.83,-347.717 2687.67,-347.717 2691.5,-351.55 2691.5,-355.383 2691.5,-355.383 2691.5,-363.05 2691.5,-363.05 2691.5,-366.883 2687.67,-370.717 2683.83,-370.717"/>
<text text-anchor="middle" x="2626" y="-355.517" font-family="Arial" font-size="14.00" fill="#c6c5fe">store/initialState.js</text>
</g>
<!-- reducers/root.js&#45;&gt;store/initialState.js -->
<g id="edge32" class="edge"><title>reducers/root.js&#45;&gt;store/initialState.js</title>
<path fill="none" stroke="#757575" d="M2444.79,-210.925C2456.07,-237.037 2486.9,-300.32 2533,-333.217 2538.94,-337.458 2545.56,-341.01 2552.45,-343.984"/>
<polygon fill="#757575" stroke="#757575" points="2551.38,-347.323 2561.97,-347.691 2553.92,-340.8 2551.38,-347.323"/>
</g>
<!-- utils.js -->
<g id="node31" class="node"><title>utils.js</title>
<path fill="none" stroke="#cfffac" d="M2863.33,-191.717C2863.33,-191.717 2822.67,-191.717 2822.67,-191.717 2818.83,-191.717 2815,-187.883 2815,-184.05 2815,-184.05 2815,-176.383 2815,-176.383 2815,-172.55 2818.83,-168.717 2822.67,-168.717 2822.67,-168.717 2863.33,-168.717 2863.33,-168.717 2867.17,-168.717 2871,-172.55 2871,-176.383 2871,-176.383 2871,-184.05 2871,-184.05 2871,-187.883 2867.17,-191.717 2863.33,-191.717"/>
<text text-anchor="middle" x="2843" y="-176.517" font-family="Arial" font-size="14.00" fill="#cfffac">utils.js</text>
</g>
<!-- reducers/root.js&#45;&gt;utils.js -->
<g id="edge33" class="edge"><title>reducers/root.js&#45;&gt;utils.js</title>
<path fill="none" stroke="#757575" d="M2452.28,-210.954C2468.97,-226.017 2500.5,-251.376 2533,-261.217 2612.12,-285.172 2639.81,-284.948 2719,-261.217 2759.57,-249.057 2799.14,-218.717 2822.02,-198.817"/>
<polygon fill="#757575" stroke="#757575" points="2824.52,-201.275 2829.66,-192.011 2819.86,-196.047 2824.52,-201.275"/>
</g>
<!-- reducers/updateBodyArr.js&#45;&gt;actions/playerMsg.js -->
<g id="edge34" class="edge"><title>reducers/updateBodyArr.js&#45;&gt;actions/playerMsg.js</title>
<path fill="none" stroke="#757575" d="M2719.11,-46.7853C2732.74,-48.0526 2746.7,-49.3512 2760.1,-50.5975"/>
<polygon fill="#757575" stroke="#757575" points="2759.93,-54.0975 2770.22,-51.5389 2760.58,-47.1276 2759.93,-54.0975"/>
</g>
<!-- reducers/updateStats.js&#45;&gt;actions/coreMsg.js -->
<g id="edge36" class="edge"><title>reducers/updateStats.js&#45;&gt;actions/coreMsg.js</title>
<path fill="none" stroke="#757575" d="M2704.43,-129.871C2709.59,-132.19 2714.51,-134.945 2719,-138.217 2744.76,-156.973 2737.57,-173.54 2755,-200.217 2778.58,-236.313 2808.81,-276.439 2826.71,-299.657"/>
<polygon fill="#757575" stroke="#757575" points="2824.04,-301.924 2832.94,-307.683 2829.58,-297.635 2824.04,-301.924"/>
</g>
<!-- reducers/updateStats.js&#45;&gt;actions/playerMsg.js -->
<g id="edge37" class="edge"><title>reducers/updateStats.js&#45;&gt;actions/playerMsg.js</title>
<path fill="none" stroke="#757575" d="M2668.45,-106.648C2703.4,-96.8948 2753.56,-82.8984 2790.97,-72.4578"/>
<polygon fill="#757575" stroke="#757575" points="2791.98,-75.8088 2800.67,-69.7496 2790.1,-69.0665 2791.98,-75.8088"/>
</g>
<!-- reducers/updateStats.js&#45;&gt;utils.js -->
<g id="edge38" class="edge"><title>reducers/updateStats.js&#45;&gt;utils.js</title>
<path fill="none" stroke="#757575" d="M2685.16,-129.798C2696.44,-132.344 2708.14,-135.191 2719,-138.217 2748.42,-146.409 2781.12,-157.679 2805.4,-166.482"/>
<polygon fill="#757575" stroke="#757575" points="2804.33,-169.819 2814.92,-169.966 2806.73,-163.244 2804.33,-169.819"/>
</g>
<!-- reducers/updateTime.js&#45;&gt;utils.js -->
<g id="edge39" class="edge"><title>reducers/updateTime.js&#45;&gt;utils.js</title>
<path fill="none" stroke="#757575" d="M2709.51,-167.276C2742.3,-170.478 2778.36,-174.001 2804.58,-176.561"/>
<polygon fill="#757575" stroke="#757575" points="2804.52,-180.073 2814.82,-177.561 2805.21,-173.106 2804.52,-180.073"/>
</g>
<!-- store/initialState.js&#45;&gt;scenes/sceneSymbols.js -->
<g id="edge56" class="edge"><title>store/initialState.js&#45;&gt;scenes/sceneSymbols.js</title>
<path fill="none" stroke="#757575" d="M2645.33,-370.727C2683.24,-394.528 2770.41,-449.264 2814.86,-477.176"/>
<polygon fill="#757575" stroke="#757575" points="2813.08,-480.19 2823.41,-482.544 2816.8,-474.262 2813.08,-480.19"/>
</g>
<!-- reducers/updateButtons.js -->
<g id="node32" class="node"><title>reducers/updateButtons.js</title>
<path fill="none" stroke="#c6c5fe" d="M2709.33,-211.717C2709.33,-211.717 2542.67,-211.717 2542.67,-211.717 2538.83,-211.717 2535,-207.883 2535,-204.05 2535,-204.05 2535,-196.383 2535,-196.383 2535,-192.55 2538.83,-188.717 2542.67,-188.717 2542.67,-188.717 2709.33,-188.717 2709.33,-188.717 2713.17,-188.717 2717,-192.55 2717,-196.383 2717,-196.383 2717,-204.05 2717,-204.05 2717,-207.883 2713.17,-211.717 2709.33,-211.717"/>
<text text-anchor="middle" x="2626" y="-196.517" font-family="Arial" font-size="14.00" fill="#c6c5fe">reducers/updateButtons.js</text>
</g>
<!-- reducers/updateButtons.js&#45;&gt;utils.js -->
<g id="edge35" class="edge"><title>reducers/updateButtons.js&#45;&gt;utils.js</title>
<path fill="none" stroke="#757575" d="M2717.24,-191.822C2747.88,-188.972 2780.43,-185.944 2804.6,-183.696"/>
<polygon fill="#757575" stroke="#757575" points="2805.11,-187.163 2814.74,-182.752 2804.46,-180.194 2805.11,-187.163"/>
</g>
<!-- scenes/charCreation.js&#45;&gt;actions/Core.js -->
<g id="edge40" class="edge"><title>scenes/charCreation.js&#45;&gt;actions/Core.js</title>
<path fill="none" stroke="#757575" d="M1347.04,-421.533C1369.57,-409.305 1407.18,-390.604 1442,-381.217 1503.49,-364.639 1576.12,-358.513 1627.21,-356.309"/>
<polygon fill="#757575" stroke="#757575" points="1627.59,-359.797 1637.45,-355.908 1627.32,-352.802 1627.59,-359.797"/>
</g>
<!-- scenes/charCreation.js&#45;&gt;scenes/sceneSymbols.js -->
<g id="edge43" class="edge"><title>scenes/charCreation.js&#45;&gt;scenes/sceneSymbols.js</title>
<path fill="none" stroke="#757575" d="M1343.58,-444.894C1365.35,-459.096 1404.64,-482.496 1442,-493.217 1549.14,-523.964 1580.53,-513.217 1692,-513.217 1692,-513.217 1692,-513.217 2440,-513.217 2544.02,-513.217 2663.02,-506.79 2744.39,-501.412"/>
<polygon fill="#757575" stroke="#757575" points="2744.87,-504.888 2754.62,-500.729 2744.41,-497.903 2744.87,-504.888"/>
</g>
<!-- scenes/charCreation.js&#45;&gt;actions/Player.js -->
<g id="edge41" class="edge"><title>scenes/charCreation.js&#45;&gt;actions/Player.js</title>
<path fill="none" stroke="#757575" d="M1406.16,-423.156C1557.3,-404.066 1883.29,-362.893 2025.64,-344.913"/>
<polygon fill="#757575" stroke="#757575" points="2026.5,-348.333 2035.98,-343.608 2025.62,-341.389 2026.5,-348.333"/>
</g>
<!-- scenes/charCreation.js&#45;&gt;scenes/menus.js -->
<g id="edge42" class="edge"><title>scenes/charCreation.js&#45;&gt;scenes/menus.js</title>
<path fill="none" stroke="#757575" d="M1377.55,-444.786C1397.77,-449.367 1421.17,-454.671 1442.25,-459.448"/>
<polygon fill="#757575" stroke="#757575" points="1441.54,-462.876 1452.06,-461.673 1443.08,-456.049 1441.54,-462.876"/>
</g>
<!-- scenes/sceneTextStore.js -->
<g id="node35" class="node"><title>scenes/sceneTextStore.js</title>
<path fill="none" stroke="#c6c5fe" d="M1776.33,-446.717C1776.33,-446.717 1609.67,-446.717 1609.67,-446.717 1605.83,-446.717 1602,-442.883 1602,-439.05 1602,-439.05 1602,-431.383 1602,-431.383 1602,-427.55 1605.83,-423.717 1609.67,-423.717 1609.67,-423.717 1776.33,-423.717 1776.33,-423.717 1780.17,-423.717 1784,-427.55 1784,-431.383 1784,-431.383 1784,-439.05 1784,-439.05 1784,-442.883 1780.17,-446.717 1776.33,-446.717"/>
<text text-anchor="middle" x="1693" y="-431.517" font-family="Arial" font-size="14.00" fill="#c6c5fe">scenes/sceneTextStore.js</text>
</g>
<!-- scenes/charCreation.js&#45;&gt;scenes/sceneTextStore.js -->
<g id="edge44" class="edge"><title>scenes/charCreation.js&#45;&gt;scenes/sceneTextStore.js</title>
<path fill="none" stroke="#757575" d="M1406.26,-433.653C1460.65,-433.951 1533.12,-434.347 1591.46,-434.666"/>
<polygon fill="#757575" stroke="#757575" points="1591.79,-438.168 1601.81,-434.723 1591.83,-431.168 1591.79,-438.168"/>
</g>
<!-- scenes/menus.js&#45;&gt;actions/Core.js -->
<g id="edge45" class="edge"><title>scenes/menus.js&#45;&gt;actions/Core.js</title>
<path fill="none" stroke="#757575" d="M1523.27,-461.687C1556.37,-440.803 1626.38,-396.622 1665.01,-372.25"/>
<polygon fill="#757575" stroke="#757575" points="1667.07,-375.089 1673.66,-366.792 1663.33,-369.169 1667.07,-375.089"/>
</g>
<!-- scenes/menus.js&#45;&gt;scenes/sceneSymbols.js -->
<g id="edge46" class="edge"><title>scenes/menus.js&#45;&gt;scenes/sceneSymbols.js</title>
<path fill="none" stroke="#757575" d="M1566.26,-473.708C1645.41,-474.301 1787.48,-475.217 1909,-475.217 1909,-475.217 1909,-475.217 2440,-475.217 2544.02,-475.217 2663.02,-481.643 2744.39,-487.021"/>
<polygon fill="#757575" stroke="#757575" points="2744.41,-490.53 2754.62,-487.704 2744.87,-483.545 2744.41,-490.53"/>
</g>
<!-- scenes/menus.js&#45;&gt;scenes/sceneTextStore.js -->
<g id="edge47" class="edge"><title>scenes/menus.js&#45;&gt;scenes/sceneTextStore.js</title>
<path fill="none" stroke="#757575" d="M1561.61,-461.712C1581.66,-457.638 1604.4,-453.017 1625.21,-448.788"/>
<polygon fill="#757575" stroke="#757575" points="1626.15,-452.169 1635.26,-446.747 1624.76,-445.309 1626.15,-452.169"/>
</g>
<!-- scenes/sceneTextStore.js&#45;&gt;scenes/sceneSymbols.js -->
<g id="edge55" class="edge"><title>scenes/sceneTextStore.js&#45;&gt;scenes/sceneSymbols.js</title>
<path fill="none" stroke="#757575" d="M1784.27,-435.924C1865.44,-436.5 1987.94,-437.217 2094.5,-437.217 2094.5,-437.217 2094.5,-437.217 2440,-437.217 2564.46,-437.217 2596.42,-439.674 2719,-461.217 2744.8,-465.75 2773.06,-473.155 2795.98,-479.802"/>
<polygon fill="#757575" stroke="#757575" points="2795.2,-483.221 2805.78,-482.692 2797.18,-476.507 2795.2,-483.221"/>
</g>
<!-- scenes/sceneTextStore.js&#45;&gt;components/nameInput.js -->
<g id="edge54" class="edge"><title>scenes/sceneTextStore.js&#45;&gt;components/nameInput.js</title>
<path fill="none" stroke="#757575" d="M1715.01,-423.687C1753.38,-402.627 1834.92,-357.875 1879.08,-333.637"/>
<polygon fill="#757575" stroke="#757575" points="1880.83,-336.672 1887.91,-328.792 1877.46,-330.536 1880.83,-336.672"/>
</g>
<!-- setupTests.js -->
<g id="node37" class="node"><title>setupTests.js</title>
<path fill="none" stroke="#cfffac" d="M94.3333,-377.717C94.3333,-377.717 7.66667,-377.717 7.66667,-377.717 3.83333,-377.717 0,-373.883 0,-370.05 0,-370.05 0,-362.383 0,-362.383 0,-358.55 3.83333,-354.717 7.66667,-354.717 7.66667,-354.717 94.3333,-354.717 94.3333,-354.717 98.1667,-354.717 102,-358.55 102,-362.383 102,-362.383 102,-370.05 102,-370.05 102,-373.883 98.1667,-377.717 94.3333,-377.717"/>
<text text-anchor="middle" x="51" y="-362.517" font-family="Arial" font-size="14.00" fill="#cfffac">setupTests.js</text>
</g>
</g>
</svg>
