<?xml version="1.0" encoding="UTF-8" standalone="no"?>
<!DOCTYPE svg PUBLIC "-//W3C//DTD SVG 1.1//EN"
 "http://www.w3.org/Graphics/SVG/1.1/DTD/svg11.dtd">
<!-- Generated by graphviz version 2.38.0 (20140413.2041)
 -->
<!-- Title: G Pages: 1 -->
<svg width="3409pt" height="1059pt"
 viewBox="0.00 0.00 3409.20 1059.14" xmlns="http://www.w3.org/2000/svg" xmlns:xlink="http://www.w3.org/1999/xlink">
<g id="graph0" class="graph" transform="scale(1 1) rotate(0) translate(21.6 1037.54)">
<title>G</title>
<polygon fill="#111111" stroke="none" points="-21.6,21.6 -21.6,-1037.54 3387.6,-1037.54 3387.6,21.6 -21.6,21.6"/>
<!-- actions/Core.js -->
<g id="node1" class="node"><title>actions/Core.js</title>
<path fill="none" stroke="#ff6c60" d="M2417.83,-360.54C2417.83,-360.54 2322.17,-360.54 2322.17,-360.54 2318.33,-360.54 2314.5,-356.706 2314.5,-352.873 2314.5,-352.873 2314.5,-345.206 2314.5,-345.206 2314.5,-341.373 2318.33,-337.54 2322.17,-337.54 2322.17,-337.54 2417.83,-337.54 2417.83,-337.54 2421.67,-337.54 2425.5,-341.373 2425.5,-345.206 2425.5,-345.206 2425.5,-352.873 2425.5,-352.873 2425.5,-356.706 2421.67,-360.54 2417.83,-360.54"/>
<text text-anchor="middle" x="2370" y="-345.34" font-family="Arial" font-size="14.00" fill="#ff6c60">actions/Core.js</text>
</g>
<!-- actions/coreMsg.js -->
<g id="node2" class="node"><title>actions/coreMsg.js</title>
<path fill="none" stroke="#cfffac" d="M3241.33,-185.54C3241.33,-185.54 3121.67,-185.54 3121.67,-185.54 3117.83,-185.54 3114,-181.706 3114,-177.873 3114,-177.873 3114,-170.206 3114,-170.206 3114,-166.373 3117.83,-162.54 3121.67,-162.54 3121.67,-162.54 3241.33,-162.54 3241.33,-162.54 3245.17,-162.54 3249,-166.373 3249,-170.206 3249,-170.206 3249,-177.873 3249,-177.873 3249,-181.706 3245.17,-185.54 3241.33,-185.54"/>
<text text-anchor="middle" x="3181.5" y="-170.34" font-family="Arial" font-size="14.00" fill="#cfffac">actions/coreMsg.js</text>
</g>
<!-- actions/Core.js&#45;&gt;actions/coreMsg.js -->
<g id="edge1" class="edge"><title>actions/Core.js&#45;&gt;actions/coreMsg.js</title>
<path fill="none" stroke="#757575" d="M2425.73,-342.164C2582.96,-322.253 3026.41,-264.89 3053,-248.04 3077.36,-232.598 3065.18,-210.302 3089,-194.04 3093.82,-190.751 3099.08,-187.991 3104.57,-185.676"/>
<polygon fill="#757575" stroke="#757575" points="3105.83,-188.943 3113.99,-182.186 3103.4,-182.379 3105.83,-188.943"/>
</g>
<!-- store/store.js -->
<g id="node3" class="node"><title>store/store.js</title>
<path fill="none" stroke="#ff6c60" d="M2592.83,-243.54C2592.83,-243.54 2509.17,-243.54 2509.17,-243.54 2505.33,-243.54 2501.5,-239.706 2501.5,-235.873 2501.5,-235.873 2501.5,-228.206 2501.5,-228.206 2501.5,-224.373 2505.33,-220.54 2509.17,-220.54 2509.17,-220.54 2592.83,-220.54 2592.83,-220.54 2596.67,-220.54 2600.5,-224.373 2600.5,-228.206 2600.5,-228.206 2600.5,-235.873 2600.5,-235.873 2600.5,-239.706 2596.67,-243.54 2592.83,-243.54"/>
<text text-anchor="middle" x="2551" y="-228.34" font-family="Arial" font-size="14.00" fill="#ff6c60">store/store.js</text>
</g>
<!-- actions/Core.js&#45;&gt;store/store.js -->
<g id="edge2" class="edge"><title>actions/Core.js&#45;&gt;store/store.js</title>
<path fill="none" stroke="#757575" d="M2422,-337.421C2430.96,-333.818 2439.73,-329.129 2447,-323.04 2472.31,-301.833 2458.12,-279.755 2483,-258.04 2487.46,-254.15 2492.56,-250.81 2497.92,-247.948"/>
<polygon fill="#757575" stroke="#757575" points="2499.58,-251.032 2507.11,-243.572 2496.57,-244.712 2499.58,-251.032"/>
</g>
<!-- reducers/root.js -->
<g id="node33" class="node"><title>reducers/root.js</title>
<path fill="none" stroke="#ff6c60" d="M2793.33,-240.54C2793.33,-240.54 2692.67,-240.54 2692.67,-240.54 2688.83,-240.54 2685,-236.706 2685,-232.873 2685,-232.873 2685,-225.206 2685,-225.206 2685,-221.373 2688.83,-217.54 2692.67,-217.54 2692.67,-217.54 2793.33,-217.54 2793.33,-217.54 2797.17,-217.54 2801,-221.373 2801,-225.206 2801,-225.206 2801,-232.873 2801,-232.873 2801,-236.706 2797.17,-240.54 2793.33,-240.54"/>
<text text-anchor="middle" x="2743" y="-225.34" font-family="Arial" font-size="14.00" fill="#ff6c60">reducers/root.js</text>
</g>
<!-- store/store.js&#45;&gt;reducers/root.js -->
<g id="edge88" class="edge"><title>store/store.js&#45;&gt;reducers/root.js</title>
<path fill="none" stroke="#757575" d="M2600.93,-231.267C2623.35,-230.913 2650.28,-230.488 2674.58,-230.104"/>
<polygon fill="#757575" stroke="#757575" points="2674.86,-233.6 2684.81,-229.943 2674.75,-226.601 2674.86,-233.6"/>
</g>
<!-- actions/Enemy.js -->
<g id="node4" class="node"><title>actions/Enemy.js</title>
<path fill="none" stroke="#c6c5fe" d="M2424.33,-128.54C2424.33,-128.54 2315.67,-128.54 2315.67,-128.54 2311.83,-128.54 2308,-124.706 2308,-120.873 2308,-120.873 2308,-113.206 2308,-113.206 2308,-109.373 2311.83,-105.54 2315.67,-105.54 2315.67,-105.54 2424.33,-105.54 2424.33,-105.54 2428.17,-105.54 2432,-109.373 2432,-113.206 2432,-113.206 2432,-120.873 2432,-120.873 2432,-124.706 2428.17,-128.54 2424.33,-128.54"/>
<text text-anchor="middle" x="2370" y="-113.34" font-family="Arial" font-size="14.00" fill="#c6c5fe">actions/Enemy.js</text>
</g>
<!-- actions/Enemy.js&#45;&gt;store/store.js -->
<g id="edge4" class="edge"><title>actions/Enemy.js&#45;&gt;store/store.js</title>
<path fill="none" stroke="#757575" d="M2414.06,-128.581C2425.17,-132.404 2436.84,-137.208 2447,-143.04 2480.47,-162.255 2513.16,-193.176 2532.44,-213.047"/>
<polygon fill="#757575" stroke="#757575" points="2529.94,-215.501 2539.38,-220.322 2535.01,-210.67 2529.94,-215.501"/>
</g>
<!-- actions/enemyMsg.js -->
<g id="node5" class="node"><title>actions/enemyMsg.js</title>
<path fill="none" stroke="#cfffac" d="M3026.83,-80.5395C3026.83,-80.5395 2893.17,-80.5395 2893.17,-80.5395 2889.33,-80.5395 2885.5,-76.7062 2885.5,-72.8728 2885.5,-72.8728 2885.5,-65.2062 2885.5,-65.2062 2885.5,-61.3728 2889.33,-57.5395 2893.17,-57.5395 2893.17,-57.5395 3026.83,-57.5395 3026.83,-57.5395 3030.67,-57.5395 3034.5,-61.3728 3034.5,-65.2062 3034.5,-65.2062 3034.5,-72.8728 3034.5,-72.8728 3034.5,-76.7062 3030.67,-80.5395 3026.83,-80.5395"/>
<text text-anchor="middle" x="2960" y="-65.3395" font-family="Arial" font-size="14.00" fill="#cfffac">actions/enemyMsg.js</text>
</g>
<!-- actions/Enemy.js&#45;&gt;actions/enemyMsg.js -->
<g id="edge3" class="edge"><title>actions/Enemy.js&#45;&gt;actions/enemyMsg.js</title>
<path fill="none" stroke="#757575" d="M2432.26,-112.039C2538.01,-103.406 2754.97,-85.6951 2874.81,-75.9119"/>
<polygon fill="#757575" stroke="#757575" points="2875.36,-79.3793 2885.04,-75.0772 2874.79,-72.4025 2875.36,-79.3793"/>
</g>
<!-- actions/Engine.js -->
<g id="node6" class="node"><title>actions/Engine.js</title>
<path fill="none" stroke="#c6c5fe" d="M987.833,-420.54C987.833,-420.54 879.167,-420.54 879.167,-420.54 875.333,-420.54 871.5,-416.706 871.5,-412.873 871.5,-412.873 871.5,-405.206 871.5,-405.206 871.5,-401.373 875.333,-397.54 879.167,-397.54 879.167,-397.54 987.833,-397.54 987.833,-397.54 991.667,-397.54 995.5,-401.373 995.5,-405.206 995.5,-405.206 995.5,-412.873 995.5,-412.873 995.5,-416.706 991.667,-420.54 987.833,-420.54"/>
<text text-anchor="middle" x="933.5" y="-405.34" font-family="Arial" font-size="14.00" fill="#c6c5fe">actions/Engine.js</text>
</g>
<!-- scenes/sceneFunctions.js -->
<g id="node7" class="node"><title>scenes/sceneFunctions.js</title>
<path fill="none" stroke="#c6c5fe" d="M1237.33,-420.54C1237.33,-420.54 1070.67,-420.54 1070.67,-420.54 1066.83,-420.54 1063,-416.706 1063,-412.873 1063,-412.873 1063,-405.206 1063,-405.206 1063,-401.373 1066.83,-397.54 1070.67,-397.54 1070.67,-397.54 1237.33,-397.54 1237.33,-397.54 1241.17,-397.54 1245,-401.373 1245,-405.206 1245,-405.206 1245,-412.873 1245,-412.873 1245,-416.706 1241.17,-420.54 1237.33,-420.54"/>
<text text-anchor="middle" x="1154" y="-405.34" font-family="Arial" font-size="14.00" fill="#c6c5fe">scenes/sceneFunctions.js</text>
</g>
<!-- actions/Engine.js&#45;&gt;scenes/sceneFunctions.js -->
<g id="edge5" class="edge"><title>actions/Engine.js&#45;&gt;scenes/sceneFunctions.js</title>
<path fill="none" stroke="#757575" d="M995.655,-409.04C1013.39,-409.04 1033.25,-409.04 1052.72,-409.04"/>
<polygon fill="#757575" stroke="#757575" points="1052.85,-412.54 1062.85,-409.04 1052.85,-405.54 1052.85,-412.54"/>
</g>
<!-- scenes/sceneFunctions.js&#45;&gt;actions/Core.js -->
<g id="edge70" class="edge"><title>scenes/sceneFunctions.js&#45;&gt;actions/Core.js</title>
<path fill="none" stroke="#757575" d="M1245.26,-404.579C1479.26,-393.013 2101.39,-362.266 2304.13,-352.246"/>
<polygon fill="#757575" stroke="#757575" points="2304.51,-355.731 2314.32,-351.742 2304.16,-348.74 2304.51,-355.731"/>
</g>
<!-- scenes/sceneFunctions.js&#45;&gt;store/store.js -->
<g id="edge76" class="edge"><title>scenes/sceneFunctions.js&#45;&gt;store/store.js</title>
<path fill="none" stroke="#757575" d="M1164.45,-397.524C1183.83,-374.701 1230.51,-323.642 1281,-297.04 1385.52,-241.971 1420.86,-233.04 1539,-233.04 1539,-233.04 1539,-233.04 2165.5,-233.04 2280.9,-233.04 2415.77,-232.584 2491.2,-232.287"/>
<polygon fill="#757575" stroke="#757575" points="2491.46,-235.786 2501.44,-232.247 2491.43,-228.787 2491.46,-235.786"/>
</g>
<!-- scenes/charCreation.js -->
<g id="node40" class="node"><title>scenes/charCreation.js</title>
<path fill="none" stroke="#c6c5fe" d="M1434.33,-650.54C1434.33,-650.54 1288.67,-650.54 1288.67,-650.54 1284.83,-650.54 1281,-646.706 1281,-642.873 1281,-642.873 1281,-635.206 1281,-635.206 1281,-631.373 1284.83,-627.54 1288.67,-627.54 1288.67,-627.54 1434.33,-627.54 1434.33,-627.54 1438.17,-627.54 1442,-631.373 1442,-635.206 1442,-635.206 1442,-642.873 1442,-642.873 1442,-646.706 1438.17,-650.54 1434.33,-650.54"/>
<text text-anchor="middle" x="1361.5" y="-635.34" font-family="Arial" font-size="14.00" fill="#c6c5fe">scenes/charCreation.js</text>
</g>
<!-- scenes/sceneFunctions.js&#45;&gt;scenes/charCreation.js -->
<g id="edge71" class="edge"><title>scenes/sceneFunctions.js&#45;&gt;scenes/charCreation.js</title>
<path fill="none" stroke="#757575" d="M1230.84,-420.71C1235.86,-423.025 1240.65,-425.775 1245,-429.04 1253.54,-435.444 1322.65,-566.596 1349.7,-618.323"/>
<polygon fill="#757575" stroke="#757575" points="1346.64,-620.037 1354.38,-627.28 1352.85,-616.796 1346.64,-620.037"/>
</g>
<!-- scenes/menus.js -->
<g id="node41" class="node"><title>scenes/menus.js</title>
<path fill="none" stroke="#c6c5fe" d="M1594.33,-570.54C1594.33,-570.54 1485.67,-570.54 1485.67,-570.54 1481.83,-570.54 1478,-566.706 1478,-562.873 1478,-562.873 1478,-555.206 1478,-555.206 1478,-551.373 1481.83,-547.54 1485.67,-547.54 1485.67,-547.54 1594.33,-547.54 1594.33,-547.54 1598.17,-547.54 1602,-551.373 1602,-555.206 1602,-555.206 1602,-562.873 1602,-562.873 1602,-566.706 1598.17,-570.54 1594.33,-570.54"/>
<text text-anchor="middle" x="1540" y="-555.34" font-family="Arial" font-size="14.00" fill="#c6c5fe">scenes/menus.js</text>
</g>
<!-- scenes/sceneFunctions.js&#45;&gt;scenes/menus.js -->
<g id="edge73" class="edge"><title>scenes/sceneFunctions.js&#45;&gt;scenes/menus.js</title>
<path fill="none" stroke="#757575" d="M1215,-420.634C1225.1,-423.082 1235.42,-425.891 1245,-429.04 1343.83,-461.516 1454.6,-515.619 1507.54,-542.638"/>
<polygon fill="#757575" stroke="#757575" points="1506.24,-545.905 1516.73,-547.357 1509.43,-539.677 1506.24,-545.905"/>
</g>
<!-- scenes/sceneSymbols.js -->
<g id="node42" class="node"><title>scenes/sceneSymbols.js</title>
<path fill="none" stroke="#cfffac" d="M3261.83,-710.54C3261.83,-710.54 3101.17,-710.54 3101.17,-710.54 3097.33,-710.54 3093.5,-706.706 3093.5,-702.873 3093.5,-702.873 3093.5,-695.206 3093.5,-695.206 3093.5,-691.373 3097.33,-687.54 3101.17,-687.54 3101.17,-687.54 3261.83,-687.54 3261.83,-687.54 3265.67,-687.54 3269.5,-691.373 3269.5,-695.206 3269.5,-695.206 3269.5,-702.873 3269.5,-702.873 3269.5,-706.706 3265.67,-710.54 3261.83,-710.54"/>
<text text-anchor="middle" x="3181.5" y="-695.34" font-family="Arial" font-size="14.00" fill="#cfffac">scenes/sceneSymbols.js</text>
</g>
<!-- scenes/sceneFunctions.js&#45;&gt;scenes/sceneSymbols.js -->
<g id="edge74" class="edge"><title>scenes/sceneFunctions.js&#45;&gt;scenes/sceneSymbols.js</title>
<path fill="none" stroke="#757575" d="M1235.2,-420.773C1238.77,-423.118 1242.08,-425.854 1245,-429.04 1327.12,-518.593 1228.94,-590.254 1281,-700.04 1347.58,-840.457 1383.6,-936.04 1539,-936.04 1539,-936.04 1539,-936.04 2371,-936.04 2685.89,-936.04 3042.94,-768.817 3149.14,-715.302"/>
<polygon fill="#757575" stroke="#757575" points="3151.01,-718.278 3158.35,-710.631 3147.84,-712.035 3151.01,-718.278"/>
</g>
<!-- scenes/combat/combat.js -->
<g id="node46" class="node"><title>scenes/combat/combat.js</title>
<path fill="none" stroke="#c6c5fe" d="M2027.83,-318.54C2027.83,-318.54 1864.17,-318.54 1864.17,-318.54 1860.33,-318.54 1856.5,-314.706 1856.5,-310.873 1856.5,-310.873 1856.5,-303.206 1856.5,-303.206 1856.5,-299.373 1860.33,-295.54 1864.17,-295.54 1864.17,-295.54 2027.83,-295.54 2027.83,-295.54 2031.67,-295.54 2035.5,-299.373 2035.5,-303.206 2035.5,-303.206 2035.5,-310.873 2035.5,-310.873 2035.5,-314.706 2031.67,-318.54 2027.83,-318.54"/>
<text text-anchor="middle" x="1946" y="-303.34" font-family="Arial" font-size="14.00" fill="#c6c5fe">scenes/combat/combat.js</text>
</g>
<!-- scenes/sceneFunctions.js&#45;&gt;scenes/combat/combat.js -->
<g id="edge72" class="edge"><title>scenes/sceneFunctions.js&#45;&gt;scenes/combat/combat.js</title>
<path fill="none" stroke="#757575" d="M1168.97,-397.296C1191.07,-379.524 1236.22,-346.45 1281,-333.04 1474.61,-275.064 1714.19,-284.261 1846.15,-295.844"/>
<polygon fill="#757575" stroke="#757575" points="1845.97,-299.342 1856.24,-296.753 1846.6,-292.37 1845.97,-299.342"/>
</g>
<!-- scenes/tests/testing.js -->
<g id="node47" class="node"><title>scenes/tests/testing.js</title>
<path fill="none" stroke="#cfffac" d="M1432.83,-691.54C1432.83,-691.54 1290.17,-691.54 1290.17,-691.54 1286.33,-691.54 1282.5,-687.706 1282.5,-683.873 1282.5,-683.873 1282.5,-676.206 1282.5,-676.206 1282.5,-672.373 1286.33,-668.54 1290.17,-668.54 1290.17,-668.54 1432.83,-668.54 1432.83,-668.54 1436.67,-668.54 1440.5,-672.373 1440.5,-676.206 1440.5,-676.206 1440.5,-683.873 1440.5,-683.873 1440.5,-687.706 1436.67,-691.54 1432.83,-691.54"/>
<text text-anchor="middle" x="1361.5" y="-676.34" font-family="Arial" font-size="14.00" fill="#cfffac">scenes/tests/testing.js</text>
</g>
<!-- scenes/sceneFunctions.js&#45;&gt;scenes/tests/testing.js -->
<g id="edge75" class="edge"><title>scenes/sceneFunctions.js&#45;&gt;scenes/tests/testing.js</title>
<path fill="none" stroke="#757575" d="M1234.71,-420.598C1238.46,-422.979 1241.93,-425.772 1245,-429.04 1315.81,-504.484 1211.7,-582.209 1281,-659.04 1282.05,-660.199 1283.15,-661.298 1284.3,-662.339"/>
<polygon fill="#757575" stroke="#757575" points="1282.41,-665.292 1292.53,-668.405 1286.56,-659.656 1282.41,-665.292"/>
</g>
<!-- actions/Perks.js -->
<g id="node8" class="node"><title>actions/Perks.js</title>
<path fill="none" stroke="#c6c5fe" d="M2420.33,-43.5395C2420.33,-43.5395 2319.67,-43.5395 2319.67,-43.5395 2315.83,-43.5395 2312,-39.7062 2312,-35.8728 2312,-35.8728 2312,-28.2062 2312,-28.2062 2312,-24.3728 2315.83,-20.5395 2319.67,-20.5395 2319.67,-20.5395 2420.33,-20.5395 2420.33,-20.5395 2424.17,-20.5395 2428,-24.3728 2428,-28.2062 2428,-28.2062 2428,-35.8728 2428,-35.8728 2428,-39.7062 2424.17,-43.5395 2420.33,-43.5395"/>
<text text-anchor="middle" x="2370" y="-28.3395" font-family="Arial" font-size="14.00" fill="#c6c5fe">actions/Perks.js</text>
</g>
<!-- actions/Perks.js&#45;&gt;store/store.js -->
<g id="edge7" class="edge"><title>actions/Perks.js&#45;&gt;store/store.js</title>
<path fill="none" stroke="#757575" d="M2386.73,-43.6187C2402.75,-55.7793 2427.88,-75.9008 2447,-96.0395 2483.1,-134.053 2518.52,-184.512 2536.94,-212.036"/>
<polygon fill="#757575" stroke="#757575" points="2534.07,-214.04 2542.51,-220.44 2539.9,-210.172 2534.07,-214.04"/>
</g>
<!-- actions/engineMsg.js -->
<g id="node9" class="node"><title>actions/engineMsg.js</title>
<path fill="none" stroke="#cfffac" d="M3248.33,-39.5395C3248.33,-39.5395 3114.67,-39.5395 3114.67,-39.5395 3110.83,-39.5395 3107,-35.7062 3107,-31.8728 3107,-31.8728 3107,-24.2062 3107,-24.2062 3107,-20.3728 3110.83,-16.5395 3114.67,-16.5395 3114.67,-16.5395 3248.33,-16.5395 3248.33,-16.5395 3252.17,-16.5395 3256,-20.3728 3256,-24.2062 3256,-24.2062 3256,-31.8728 3256,-31.8728 3256,-35.7062 3252.17,-39.5395 3248.33,-39.5395"/>
<text text-anchor="middle" x="3181.5" y="-24.3395" font-family="Arial" font-size="14.00" fill="#cfffac">actions/engineMsg.js</text>
</g>
<!-- actions/Perks.js&#45;&gt;actions/engineMsg.js -->
<g id="edge6" class="edge"><title>actions/Perks.js&#45;&gt;actions/engineMsg.js</title>
<path fill="none" stroke="#757575" d="M2428.14,-25.3949C2545.44,-12.7561 2821.84,11.8696 3053,-7.03951 3072.61,-8.64375 3093.75,-11.6139 3113.07,-14.8256"/>
<polygon fill="#757575" stroke="#757575" points="3112.54,-18.286 3122.99,-16.5212 3113.72,-11.3861 3112.54,-18.286"/>
</g>
<!-- actions/Player.js -->
<g id="node10" class="node"><title>actions/Player.js</title>
<path fill="none" stroke="#c6c5fe" d="M2216.33,-588.54C2216.33,-588.54 2112.67,-588.54 2112.67,-588.54 2108.83,-588.54 2105,-584.706 2105,-580.873 2105,-580.873 2105,-573.206 2105,-573.206 2105,-569.373 2108.83,-565.54 2112.67,-565.54 2112.67,-565.54 2216.33,-565.54 2216.33,-565.54 2220.17,-565.54 2224,-569.373 2224,-573.206 2224,-573.206 2224,-580.873 2224,-580.873 2224,-584.706 2220.17,-588.54 2216.33,-588.54"/>
<text text-anchor="middle" x="2164.5" y="-573.34" font-family="Arial" font-size="14.00" fill="#c6c5fe">actions/Player.js</text>
</g>
<!-- actions/Player.js&#45;&gt;actions/Core.js -->
<g id="edge8" class="edge"><title>actions/Player.js&#45;&gt;actions/Core.js</title>
<path fill="none" stroke="#757575" d="M2189.67,-565.522C2210.2,-554.618 2239.1,-536.444 2257,-513.04 2285.7,-475.521 2266.01,-451.805 2293,-413.04 2305.97,-394.407 2325.7,-378.015 2341.8,-366.486"/>
<polygon fill="#757575" stroke="#757575" points="2344.08,-369.167 2350.31,-360.598 2340.09,-363.411 2344.08,-369.167"/>
</g>
<!-- actions/Player.js&#45;&gt;store/store.js -->
<g id="edge10" class="edge"><title>actions/Player.js&#45;&gt;store/store.js</title>
<path fill="none" stroke="#757575" d="M2224.33,-567.519C2235.95,-563.732 2247.48,-558.438 2257,-551.04 2282.16,-531.483 2270.28,-511.381 2293,-489.04 2348.9,-434.073 2390.66,-457.555 2447,-403.04 2493.27,-358.265 2526.63,-288.419 2541.45,-253.472"/>
<polygon fill="#757575" stroke="#757575" points="2544.85,-254.391 2545.44,-243.813 2538.39,-251.714 2544.85,-254.391"/>
</g>
<!-- actions/playerMsg.js -->
<g id="node11" class="node"><title>actions/playerMsg.js</title>
<path fill="none" stroke="#cfffac" d="M3246.33,-226.54C3246.33,-226.54 3116.67,-226.54 3116.67,-226.54 3112.83,-226.54 3109,-222.706 3109,-218.873 3109,-218.873 3109,-211.206 3109,-211.206 3109,-207.373 3112.83,-203.54 3116.67,-203.54 3116.67,-203.54 3246.33,-203.54 3246.33,-203.54 3250.17,-203.54 3254,-207.373 3254,-211.206 3254,-211.206 3254,-218.873 3254,-218.873 3254,-222.706 3250.17,-226.54 3246.33,-226.54"/>
<text text-anchor="middle" x="3181.5" y="-211.34" font-family="Arial" font-size="14.00" fill="#cfffac">actions/playerMsg.js</text>
</g>
<!-- actions/Player.js&#45;&gt;actions/playerMsg.js -->
<g id="edge9" class="edge"><title>actions/Player.js&#45;&gt;actions/playerMsg.js</title>
<path fill="none" stroke="#757575" d="M2212.67,-565.512C2395.71,-520.758 3049.06,-360.814 3053,-357.04 3093.84,-317.952 3047.62,-273.555 3089,-235.04 3092.21,-232.048 3095.77,-229.466 3099.55,-227.239"/>
<polygon fill="#757575" stroke="#757575" points="3101.36,-230.248 3108.76,-222.663 3098.25,-223.98 3101.36,-230.248"/>
</g>
<!-- symbols/breastCup.js -->
<g id="node12" class="node"><title>symbols/breastCup.js</title>
<path fill="none" stroke="#c6c5fe" d="M2439.33,-827.54C2439.33,-827.54 2300.67,-827.54 2300.67,-827.54 2296.83,-827.54 2293,-823.706 2293,-819.873 2293,-819.873 2293,-812.206 2293,-812.206 2293,-808.373 2296.83,-804.54 2300.67,-804.54 2300.67,-804.54 2439.33,-804.54 2439.33,-804.54 2443.17,-804.54 2447,-808.373 2447,-812.206 2447,-812.206 2447,-819.873 2447,-819.873 2447,-823.706 2443.17,-827.54 2439.33,-827.54"/>
<text text-anchor="middle" x="2370" y="-812.34" font-family="Arial" font-size="14.00" fill="#c6c5fe">symbols/breastCup.js</text>
</g>
<!-- actions/Player.js&#45;&gt;symbols/breastCup.js -->
<g id="edge11" class="edge"><title>actions/Player.js&#45;&gt;symbols/breastCup.js</title>
<path fill="none" stroke="#757575" d="M2170.85,-588.657C2189.9,-629.566 2255.29,-766.039 2293,-795.04 2295.29,-796.8 2297.72,-798.413 2300.24,-799.89"/>
<polygon fill="#757575" stroke="#757575" points="2298.67,-803.015 2309.17,-804.411 2301.83,-796.77 2298.67,-803.015"/>
</g>
<!-- symbols/cockType.js -->
<g id="node13" class="node"><title>symbols/cockType.js</title>
<path fill="none" stroke="#cfffac" d="M2437.33,-592.54C2437.33,-592.54 2302.67,-592.54 2302.67,-592.54 2298.83,-592.54 2295,-588.706 2295,-584.873 2295,-584.873 2295,-577.206 2295,-577.206 2295,-573.373 2298.83,-569.54 2302.67,-569.54 2302.67,-569.54 2437.33,-569.54 2437.33,-569.54 2441.17,-569.54 2445,-573.373 2445,-577.206 2445,-577.206 2445,-584.873 2445,-584.873 2445,-588.706 2441.17,-592.54 2437.33,-592.54"/>
<text text-anchor="middle" x="2370" y="-577.34" font-family="Arial" font-size="14.00" fill="#cfffac">symbols/cockType.js</text>
</g>
<!-- actions/Player.js&#45;&gt;symbols/cockType.js -->
<g id="edge12" class="edge"><title>actions/Player.js&#45;&gt;symbols/cockType.js</title>
<path fill="none" stroke="#757575" d="M2224.09,-578.191C2242.97,-578.562 2264.29,-578.981 2284.65,-579.382"/>
<polygon fill="#757575" stroke="#757575" points="2284.81,-582.885 2294.87,-579.582 2284.94,-575.887 2284.81,-582.885"/>
</g>
<!-- symbols/vaginas.js -->
<g id="node14" class="node"><title>symbols/vaginas.js</title>
<path fill="none" stroke="#c6c5fe" d="M2611.33,-596.54C2611.33,-596.54 2490.67,-596.54 2490.67,-596.54 2486.83,-596.54 2483,-592.706 2483,-588.873 2483,-588.873 2483,-581.206 2483,-581.206 2483,-577.373 2486.83,-573.54 2490.67,-573.54 2490.67,-573.54 2611.33,-573.54 2611.33,-573.54 2615.17,-573.54 2619,-577.373 2619,-581.206 2619,-581.206 2619,-588.873 2619,-588.873 2619,-592.706 2615.17,-596.54 2611.33,-596.54"/>
<text text-anchor="middle" x="2551" y="-581.34" font-family="Arial" font-size="14.00" fill="#c6c5fe">symbols/vaginas.js</text>
</g>
<!-- actions/Player.js&#45;&gt;symbols/vaginas.js -->
<g id="edge13" class="edge"><title>actions/Player.js&#45;&gt;symbols/vaginas.js</title>
<path fill="none" stroke="#757575" d="M2224.18,-567.396C2281.25,-559.453 2370.31,-550.866 2447,-560.04 2465.18,-562.214 2484.78,-566.473 2501.95,-570.869"/>
<polygon fill="#757575" stroke="#757575" points="2501.2,-574.288 2511.76,-573.458 2502.98,-567.52 2501.2,-574.288"/>
</g>
<!-- utils.js -->
<g id="node39" class="node"><title>utils.js</title>
<path fill="none" stroke="#cfffac" d="M3358.33,-533.54C3358.33,-533.54 3317.67,-533.54 3317.67,-533.54 3313.83,-533.54 3310,-529.706 3310,-525.873 3310,-525.873 3310,-518.206 3310,-518.206 3310,-514.373 3313.83,-510.54 3317.67,-510.54 3317.67,-510.54 3358.33,-510.54 3358.33,-510.54 3362.17,-510.54 3366,-514.373 3366,-518.206 3366,-518.206 3366,-525.873 3366,-525.873 3366,-529.706 3362.17,-533.54 3358.33,-533.54"/>
<text text-anchor="middle" x="3338" y="-518.34" font-family="Arial" font-size="14.00" fill="#cfffac">utils.js</text>
</g>
<!-- symbols/breastCup.js&#45;&gt;utils.js -->
<g id="edge89" class="edge"><title>symbols/breastCup.js&#45;&gt;utils.js</title>
<path fill="none" stroke="#757575" d="M2447.02,-814.416C2522.01,-812.956 2639.9,-811.04 2742,-811.04 2742,-811.04 2742,-811.04 2961,-811.04 3101.67,-811.04 3169.42,-858.119 3274,-764.04 3307,-734.357 3327.47,-597.725 3334.38,-543.91"/>
<polygon fill="#757575" stroke="#757575" points="3337.88,-544.108 3335.65,-533.751 3330.94,-543.241 3337.88,-544.108"/>
</g>
<!-- symbols/vaginas.js&#45;&gt;utils.js -->
<g id="edge102" class="edge"><title>symbols/vaginas.js&#45;&gt;utils.js</title>
<path fill="none" stroke="#757575" d="M2619.01,-596.268C2775.82,-621.213 3161.85,-674.525 3274,-615.04 3302.54,-599.903 3320.52,-565.423 3329.66,-542.965"/>
<polygon fill="#757575" stroke="#757575" points="3332.94,-544.196 3333.24,-533.606 3326.4,-541.693 3332.94,-544.196"/>
</g>
<!-- appearance/appearance.js -->
<g id="node15" class="node"><title>appearance/appearance.js</title>
<path fill="none" stroke="#c6c5fe" d="M2249.33,-787.54C2249.33,-787.54 2079.67,-787.54 2079.67,-787.54 2075.83,-787.54 2072,-783.706 2072,-779.873 2072,-779.873 2072,-772.206 2072,-772.206 2072,-768.373 2075.83,-764.54 2079.67,-764.54 2079.67,-764.54 2249.33,-764.54 2249.33,-764.54 2253.17,-764.54 2257,-768.373 2257,-772.206 2257,-772.206 2257,-779.873 2257,-779.873 2257,-783.706 2253.17,-787.54 2249.33,-787.54"/>
<text text-anchor="middle" x="2164.5" y="-772.34" font-family="Arial" font-size="14.00" fill="#c6c5fe">appearance/appearance.js</text>
</g>
<!-- appearance/appearance.js&#45;&gt;store/store.js -->
<g id="edge14" class="edge"><title>appearance/appearance.js&#45;&gt;store/store.js</title>
<path fill="none" stroke="#757575" d="M2199.37,-764.41C2258.76,-742.257 2381.58,-688.285 2447,-601.04 2530.22,-490.059 2546.21,-314.998 2549.27,-253.926"/>
<polygon fill="#757575" stroke="#757575" points="2552.78,-253.728 2549.72,-243.586 2545.79,-253.425 2552.78,-253.728"/>
</g>
<!-- appearance/appearance.js&#45;&gt;symbols/breastCup.js -->
<g id="edge15" class="edge"><title>appearance/appearance.js&#45;&gt;symbols/breastCup.js</title>
<path fill="none" stroke="#757575" d="M2224.09,-787.556C2247.93,-792.241 2275.65,-797.69 2300.42,-802.559"/>
<polygon fill="#757575" stroke="#757575" points="2299.99,-806.041 2310.47,-804.536 2301.34,-799.173 2299.99,-806.041"/>
</g>
<!-- symbols/gender.js -->
<g id="node16" class="node"><title>symbols/gender.js</title>
<path fill="none" stroke="#c6c5fe" d="M2428.83,-786.54C2428.83,-786.54 2311.17,-786.54 2311.17,-786.54 2307.33,-786.54 2303.5,-782.706 2303.5,-778.873 2303.5,-778.873 2303.5,-771.206 2303.5,-771.206 2303.5,-767.373 2307.33,-763.54 2311.17,-763.54 2311.17,-763.54 2428.83,-763.54 2428.83,-763.54 2432.67,-763.54 2436.5,-767.373 2436.5,-771.206 2436.5,-771.206 2436.5,-778.873 2436.5,-778.873 2436.5,-782.706 2432.67,-786.54 2428.83,-786.54"/>
<text text-anchor="middle" x="2370" y="-771.34" font-family="Arial" font-size="14.00" fill="#c6c5fe">symbols/gender.js</text>
</g>
<!-- appearance/appearance.js&#45;&gt;symbols/gender.js -->
<g id="edge16" class="edge"><title>appearance/appearance.js&#45;&gt;symbols/gender.js</title>
<path fill="none" stroke="#757575" d="M2257.13,-775.589C2269.21,-775.53 2281.47,-775.47 2293.24,-775.412"/>
<polygon fill="#757575" stroke="#757575" points="2293.46,-778.911 2303.44,-775.362 2293.43,-771.911 2293.46,-778.911"/>
</g>
<!-- symbols/gender.js&#45;&gt;utils.js -->
<g id="edge95" class="edge"><title>symbols/gender.js&#45;&gt;utils.js</title>
<path fill="none" stroke="#757575" d="M2436.68,-774.472C2510.83,-773.88 2635.08,-773.04 2742,-773.04 2742,-773.04 2742,-773.04 2961,-773.04 3102.17,-773.04 3167.5,-811.703 3274,-719.04 3326.25,-673.58 3335.53,-584.802 3336.93,-543.779"/>
<polygon fill="#757575" stroke="#757575" points="3340.43,-543.622 3337.14,-533.551 3333.43,-543.475 3340.43,-543.622"/>
</g>
<!-- components/appRoot.js -->
<g id="node17" class="node"><title>components/appRoot.js</title>
<path fill="none" stroke="#c6c5fe" d="M334.333,-465.54C334.333,-465.54 181.667,-465.54 181.667,-465.54 177.833,-465.54 174,-461.706 174,-457.873 174,-457.873 174,-450.206 174,-450.206 174,-446.373 177.833,-442.54 181.667,-442.54 181.667,-442.54 334.333,-442.54 334.333,-442.54 338.167,-442.54 342,-446.373 342,-450.206 342,-450.206 342,-457.873 342,-457.873 342,-461.706 338.167,-465.54 334.333,-465.54"/>
<text text-anchor="middle" x="258" y="-450.34" font-family="Arial" font-size="14.00" fill="#c6c5fe">components/appRoot.js</text>
</g>
<!-- components/lowerButtons.js -->
<g id="node18" class="node"><title>components/lowerButtons.js</title>
<path fill="none" stroke="#c6c5fe" d="M565.333,-465.54C565.333,-465.54 385.667,-465.54 385.667,-465.54 381.833,-465.54 378,-461.706 378,-457.873 378,-457.873 378,-450.206 378,-450.206 378,-446.373 381.833,-442.54 385.667,-442.54 385.667,-442.54 565.333,-442.54 565.333,-442.54 569.167,-442.54 573,-446.373 573,-450.206 573,-450.206 573,-457.873 573,-457.873 573,-461.706 569.167,-465.54 565.333,-465.54"/>
<text text-anchor="middle" x="475.5" y="-450.34" font-family="Arial" font-size="14.00" fill="#c6c5fe">components/lowerButtons.js</text>
</g>
<!-- components/appRoot.js&#45;&gt;components/lowerButtons.js -->
<g id="edge17" class="edge"><title>components/appRoot.js&#45;&gt;components/lowerButtons.js</title>
<path fill="none" stroke="#757575" d="M342.01,-454.04C350.447,-454.04 359.097,-454.04 367.74,-454.04"/>
<polygon fill="#757575" stroke="#757575" points="367.868,-457.54 377.868,-454.04 367.868,-450.54 367.868,-457.54"/>
</g>
<!-- components/menuBar.js -->
<g id="node19" class="node"><title>components/menuBar.js</title>
<path fill="none" stroke="#c6c5fe" d="M552.833,-424.54C552.833,-424.54 398.167,-424.54 398.167,-424.54 394.333,-424.54 390.5,-420.706 390.5,-416.873 390.5,-416.873 390.5,-409.206 390.5,-409.206 390.5,-405.373 394.333,-401.54 398.167,-401.54 398.167,-401.54 552.833,-401.54 552.833,-401.54 556.667,-401.54 560.5,-405.373 560.5,-409.206 560.5,-409.206 560.5,-416.873 560.5,-416.873 560.5,-420.706 556.667,-424.54 552.833,-424.54"/>
<text text-anchor="middle" x="475.5" y="-409.34" font-family="Arial" font-size="14.00" fill="#c6c5fe">components/menuBar.js</text>
</g>
<!-- components/appRoot.js&#45;&gt;components/menuBar.js -->
<g id="edge18" class="edge"><title>components/appRoot.js&#45;&gt;components/menuBar.js</title>
<path fill="none" stroke="#757575" d="M319.602,-442.51C345.88,-437.51 376.817,-431.624 404.106,-426.432"/>
<polygon fill="#757575" stroke="#757575" points="404.81,-429.861 413.98,-424.554 403.502,-422.985 404.81,-429.861"/>
</g>
<!-- components/output.js -->
<g id="node20" class="node"><title>components/output.js</title>
<path fill="none" stroke="#cfffac" d="M543.833,-547.54C543.833,-547.54 407.167,-547.54 407.167,-547.54 403.333,-547.54 399.5,-543.706 399.5,-539.873 399.5,-539.873 399.5,-532.206 399.5,-532.206 399.5,-528.373 403.333,-524.54 407.167,-524.54 407.167,-524.54 543.833,-524.54 543.833,-524.54 547.667,-524.54 551.5,-528.373 551.5,-532.206 551.5,-532.206 551.5,-539.873 551.5,-539.873 551.5,-543.706 547.667,-547.54 543.833,-547.54"/>
<text text-anchor="middle" x="475.5" y="-532.34" font-family="Arial" font-size="14.00" fill="#cfffac">components/output.js</text>
</g>
<!-- components/appRoot.js&#45;&gt;components/output.js -->
<g id="edge19" class="edge"><title>components/appRoot.js&#45;&gt;components/output.js</title>
<path fill="none" stroke="#757575" d="M277.687,-465.56C300.56,-479.197 340.845,-501.73 378,-515.04 385.207,-517.621 392.835,-519.941 400.519,-522.012"/>
<polygon fill="#757575" stroke="#757575" points="399.698,-525.415 410.253,-524.503 401.433,-518.633 399.698,-525.415"/>
</g>
<!-- components/statBar.js -->
<g id="node21" class="node"><title>components/statBar.js</title>
<path fill="none" stroke="#c6c5fe" d="M546.833,-506.54C546.833,-506.54 404.167,-506.54 404.167,-506.54 400.333,-506.54 396.5,-502.706 396.5,-498.873 396.5,-498.873 396.5,-491.206 396.5,-491.206 396.5,-487.373 400.333,-483.54 404.167,-483.54 404.167,-483.54 546.833,-483.54 546.833,-483.54 550.667,-483.54 554.5,-487.373 554.5,-491.206 554.5,-491.206 554.5,-498.873 554.5,-498.873 554.5,-502.706 550.667,-506.54 546.833,-506.54"/>
<text text-anchor="middle" x="475.5" y="-491.34" font-family="Arial" font-size="14.00" fill="#c6c5fe">components/statBar.js</text>
</g>
<!-- components/appRoot.js&#45;&gt;components/statBar.js -->
<g id="edge20" class="edge"><title>components/appRoot.js&#45;&gt;components/statBar.js</title>
<path fill="none" stroke="#757575" d="M319.602,-465.569C345.88,-470.569 376.817,-476.455 404.106,-481.647"/>
<polygon fill="#757575" stroke="#757575" points="403.502,-485.094 413.98,-483.525 404.81,-478.218 403.502,-485.094"/>
</g>
<!-- components/buttonGrid.js -->
<g id="node23" class="node"><title>components/buttonGrid.js</title>
<path fill="none" stroke="#c6c5fe" d="M788.333,-435.54C788.333,-435.54 624.667,-435.54 624.667,-435.54 620.833,-435.54 617,-431.706 617,-427.873 617,-427.873 617,-420.206 617,-420.206 617,-416.373 620.833,-412.54 624.667,-412.54 624.667,-412.54 788.333,-412.54 788.333,-412.54 792.167,-412.54 796,-416.373 796,-420.206 796,-420.206 796,-427.873 796,-427.873 796,-431.706 792.167,-435.54 788.333,-435.54"/>
<text text-anchor="middle" x="706.5" y="-420.34" font-family="Arial" font-size="14.00" fill="#c6c5fe">components/buttonGrid.js</text>
</g>
<!-- components/lowerButtons.js&#45;&gt;components/buttonGrid.js -->
<g id="edge25" class="edge"><title>components/lowerButtons.js&#45;&gt;components/buttonGrid.js</title>
<path fill="none" stroke="#757575" d="M564.382,-442.527C578.389,-440.692 592.958,-438.783 607.187,-436.919"/>
<polygon fill="#757575" stroke="#757575" points="608.014,-440.341 617.474,-435.571 607.104,-433.4 608.014,-440.341"/>
</g>
<!-- components/menuBar.js&#45;&gt;components/buttonGrid.js -->
<g id="edge26" class="edge"><title>components/menuBar.js&#45;&gt;components/buttonGrid.js</title>
<path fill="none" stroke="#757575" d="M560.796,-417.089C575.755,-417.807 591.456,-418.561 606.773,-419.297"/>
<polygon fill="#757575" stroke="#757575" points="606.615,-422.794 616.771,-419.777 606.951,-415.802 606.615,-422.794"/>
</g>
<!-- components/spriteDisplay.js -->
<g id="node28" class="node"><title>components/spriteDisplay.js</title>
<path fill="none" stroke="#cfffac" d="M796.333,-527.54C796.333,-527.54 616.667,-527.54 616.667,-527.54 612.833,-527.54 609,-523.706 609,-519.873 609,-519.873 609,-512.206 609,-512.206 609,-508.373 612.833,-504.54 616.667,-504.54 616.667,-504.54 796.333,-504.54 796.333,-504.54 800.167,-504.54 804,-508.373 804,-512.206 804,-512.206 804,-519.873 804,-519.873 804,-523.706 800.167,-527.54 796.333,-527.54"/>
<text text-anchor="middle" x="706.5" y="-512.34" font-family="Arial" font-size="14.00" fill="#cfffac">components/spriteDisplay.js</text>
</g>
<!-- components/statBar.js&#45;&gt;components/spriteDisplay.js -->
<g id="edge29" class="edge"><title>components/statBar.js&#45;&gt;components/spriteDisplay.js</title>
<path fill="none" stroke="#757575" d="M554.668,-502.208C568.775,-503.501 583.703,-504.87 598.464,-506.224"/>
<polygon fill="#757575" stroke="#757575" points="598.367,-509.73 608.645,-507.158 599.007,-502.759 598.367,-509.73"/>
</g>
<!-- components/statDisplay.js -->
<g id="node30" class="node"><title>components/statDisplay.js</title>
<path fill="none" stroke="#c6c5fe" d="M789.833,-486.54C789.833,-486.54 623.167,-486.54 623.167,-486.54 619.333,-486.54 615.5,-482.706 615.5,-478.873 615.5,-478.873 615.5,-471.206 615.5,-471.206 615.5,-467.373 619.333,-463.54 623.167,-463.54 623.167,-463.54 789.833,-463.54 789.833,-463.54 793.667,-463.54 797.5,-467.373 797.5,-471.206 797.5,-471.206 797.5,-478.873 797.5,-478.873 797.5,-482.706 793.667,-486.54 789.833,-486.54"/>
<text text-anchor="middle" x="706.5" y="-471.34" font-family="Arial" font-size="14.00" fill="#c6c5fe">components/statDisplay.js</text>
</g>
<!-- components/statBar.js&#45;&gt;components/statDisplay.js -->
<g id="edge30" class="edge"><title>components/statBar.js&#45;&gt;components/statDisplay.js</title>
<path fill="none" stroke="#757575" d="M554.668,-488.213C570.871,-486.798 588.156,-485.288 605.028,-483.814"/>
<polygon fill="#757575" stroke="#757575" points="605.809,-487.26 615.467,-482.903 605.2,-480.286 605.809,-487.26"/>
</g>
<!-- components/timeDisplay.js -->
<g id="node31" class="node"><title>components/timeDisplay.js</title>
<path fill="none" stroke="#cfffac" d="M792.333,-568.54C792.333,-568.54 620.667,-568.54 620.667,-568.54 616.833,-568.54 613,-564.706 613,-560.873 613,-560.873 613,-553.206 613,-553.206 613,-549.373 616.833,-545.54 620.667,-545.54 620.667,-545.54 792.333,-545.54 792.333,-545.54 796.167,-545.54 800,-549.373 800,-553.206 800,-553.206 800,-560.873 800,-560.873 800,-564.706 796.167,-568.54 792.333,-568.54"/>
<text text-anchor="middle" x="706.5" y="-553.34" font-family="Arial" font-size="14.00" fill="#cfffac">components/timeDisplay.js</text>
</g>
<!-- components/statBar.js&#45;&gt;components/timeDisplay.js -->
<g id="edge31" class="edge"><title>components/statBar.js&#45;&gt;components/timeDisplay.js</title>
<path fill="none" stroke="#757575" d="M545.817,-506.566C555.093,-508.929 564.374,-511.731 573,-515.04 590.295,-521.672 591.738,-529.321 609,-536.04 615.441,-538.547 622.247,-540.785 629.142,-542.777"/>
<polygon fill="#757575" stroke="#757575" points="628.709,-546.285 639.277,-545.521 630.539,-539.529 628.709,-546.285"/>
</g>
<!-- components/button.js -->
<g id="node22" class="node"><title>components/button.js</title>
<path fill="none" stroke="#cfffac" d="M1222.33,-461.54C1222.33,-461.54 1085.67,-461.54 1085.67,-461.54 1081.83,-461.54 1078,-457.706 1078,-453.873 1078,-453.873 1078,-446.206 1078,-446.206 1078,-442.373 1081.83,-438.54 1085.67,-438.54 1085.67,-438.54 1222.33,-438.54 1222.33,-438.54 1226.17,-438.54 1230,-442.373 1230,-446.206 1230,-446.206 1230,-453.873 1230,-453.873 1230,-457.706 1226.17,-461.54 1222.33,-461.54"/>
<text text-anchor="middle" x="1154" y="-446.34" font-family="Arial" font-size="14.00" fill="#cfffac">components/button.js</text>
</g>
<!-- components/buttonGrid.js&#45;&gt;actions/Engine.js -->
<g id="edge21" class="edge"><title>components/buttonGrid.js&#45;&gt;actions/Engine.js</title>
<path fill="none" stroke="#757575" d="M796.103,-418.133C817.768,-416.688 840.672,-415.161 861.398,-413.78"/>
<polygon fill="#757575" stroke="#757575" points="861.638,-417.272 871.383,-413.114 861.172,-410.287 861.638,-417.272"/>
</g>
<!-- components/buttonWrap.js -->
<g id="node24" class="node"><title>components/buttonWrap.js</title>
<path fill="none" stroke="#c6c5fe" d="M1019.33,-461.54C1019.33,-461.54 847.667,-461.54 847.667,-461.54 843.833,-461.54 840,-457.706 840,-453.873 840,-453.873 840,-446.206 840,-446.206 840,-442.373 843.833,-438.54 847.667,-438.54 847.667,-438.54 1019.33,-438.54 1019.33,-438.54 1023.17,-438.54 1027,-442.373 1027,-446.206 1027,-446.206 1027,-453.873 1027,-453.873 1027,-457.706 1023.17,-461.54 1019.33,-461.54"/>
<text text-anchor="middle" x="933.5" y="-446.34" font-family="Arial" font-size="14.00" fill="#c6c5fe">components/buttonWrap.js</text>
</g>
<!-- components/buttonGrid.js&#45;&gt;components/buttonWrap.js -->
<g id="edge22" class="edge"><title>components/buttonGrid.js&#45;&gt;components/buttonWrap.js</title>
<path fill="none" stroke="#757575" d="M796.103,-434.278C807.119,-435.551 818.455,-436.861 829.663,-438.156"/>
<polygon fill="#757575" stroke="#757575" points="829.571,-441.669 839.906,-439.34 830.374,-434.715 829.571,-441.669"/>
</g>
<!-- components/buttonWrap.js&#45;&gt;components/button.js -->
<g id="edge23" class="edge"><title>components/buttonWrap.js&#45;&gt;components/button.js</title>
<path fill="none" stroke="#757575" d="M1027.16,-450.04C1040.6,-450.04 1054.39,-450.04 1067.67,-450.04"/>
<polygon fill="#757575" stroke="#757575" points="1067.72,-453.54 1077.72,-450.04 1067.72,-446.54 1067.72,-453.54"/>
</g>
<!-- components/dropdown.js -->
<g id="node25" class="node"><title>components/dropdown.js</title>
<path fill="none" stroke="#c6c5fe" d="M2823.33,-39.5395C2823.33,-39.5395 2662.67,-39.5395 2662.67,-39.5395 2658.83,-39.5395 2655,-35.7062 2655,-31.8728 2655,-31.8728 2655,-24.2062 2655,-24.2062 2655,-20.3728 2658.83,-16.5395 2662.67,-16.5395 2662.67,-16.5395 2823.33,-16.5395 2823.33,-16.5395 2827.17,-16.5395 2831,-20.3728 2831,-24.2062 2831,-24.2062 2831,-31.8728 2831,-31.8728 2831,-35.7062 2827.17,-39.5395 2823.33,-39.5395"/>
<text text-anchor="middle" x="2743" y="-24.3395" font-family="Arial" font-size="14.00" fill="#c6c5fe">components/dropdown.js</text>
</g>
<!-- symbols/perks.js -->
<g id="node26" class="node"><title>symbols/perks.js</title>
<path fill="none" stroke="#c6c5fe" d="M3013.83,-39.5395C3013.83,-39.5395 2906.17,-39.5395 2906.17,-39.5395 2902.33,-39.5395 2898.5,-35.7062 2898.5,-31.8728 2898.5,-31.8728 2898.5,-24.2062 2898.5,-24.2062 2898.5,-20.3728 2902.33,-16.5395 2906.17,-16.5395 2906.17,-16.5395 3013.83,-16.5395 3013.83,-16.5395 3017.67,-16.5395 3021.5,-20.3728 3021.5,-24.2062 3021.5,-24.2062 3021.5,-31.8728 3021.5,-31.8728 3021.5,-35.7062 3017.67,-39.5395 3013.83,-39.5395"/>
<text text-anchor="middle" x="2960" y="-24.3395" font-family="Arial" font-size="14.00" fill="#c6c5fe">symbols/perks.js</text>
</g>
<!-- components/dropdown.js&#45;&gt;symbols/perks.js -->
<g id="edge24" class="edge"><title>components/dropdown.js&#45;&gt;symbols/perks.js</title>
<path fill="none" stroke="#757575" d="M2831.14,-28.0395C2850.1,-28.0395 2869.95,-28.0395 2888.19,-28.0395"/>
<polygon fill="#757575" stroke="#757575" points="2888.43,-31.5396 2898.43,-28.0395 2888.43,-24.5396 2888.43,-31.5396"/>
</g>
<!-- symbols/perks.js&#45;&gt;actions/engineMsg.js -->
<g id="edge98" class="edge"><title>symbols/perks.js&#45;&gt;actions/engineMsg.js</title>
<path fill="none" stroke="#757575" d="M3021.56,-28.0395C3044.76,-28.0395 3071.65,-28.0395 3096.65,-28.0395"/>
<polygon fill="#757575" stroke="#757575" points="3096.86,-31.5396 3106.86,-28.0395 3096.86,-24.5396 3096.86,-31.5396"/>
</g>
<!-- components/nameInput.js -->
<g id="node27" class="node"><title>components/nameInput.js</title>
<path fill="none" stroke="#c6c5fe" d="M2028.33,-554.54C2028.33,-554.54 1863.67,-554.54 1863.67,-554.54 1859.83,-554.54 1856,-550.706 1856,-546.873 1856,-546.873 1856,-539.206 1856,-539.206 1856,-535.373 1859.83,-531.54 1863.67,-531.54 1863.67,-531.54 2028.33,-531.54 2028.33,-531.54 2032.17,-531.54 2036,-535.373 2036,-539.206 2036,-539.206 2036,-546.873 2036,-546.873 2036,-550.706 2032.17,-554.54 2028.33,-554.54"/>
<text text-anchor="middle" x="1946" y="-539.34" font-family="Arial" font-size="14.00" fill="#c6c5fe">components/nameInput.js</text>
</g>
<!-- components/nameInput.js&#45;&gt;store/store.js -->
<g id="edge28" class="edge"><title>components/nameInput.js&#45;&gt;store/store.js</title>
<path fill="none" stroke="#757575" d="M2036.12,-544.956C2115.48,-544.817 2223.98,-539.495 2257,-513.04 2297.14,-480.875 2254.87,-437.569 2293,-403.04 2344.95,-355.989 2388.05,-406.965 2447,-369.04 2492.19,-339.964 2524.88,-283.737 2540.22,-253.132"/>
<polygon fill="#757575" stroke="#757575" points="2543.52,-254.336 2544.75,-243.812 2537.23,-251.276 2543.52,-254.336"/>
</g>
<!-- components/nameInput.js&#45;&gt;actions/Player.js -->
<g id="edge27" class="edge"><title>components/nameInput.js&#45;&gt;actions/Player.js</title>
<path fill="none" stroke="#757575" d="M2020.3,-554.55C2044.45,-558.343 2071.2,-562.544 2094.98,-566.279"/>
<polygon fill="#757575" stroke="#757575" points="2094.55,-569.755 2104.97,-567.848 2095.64,-562.839 2094.55,-569.755"/>
</g>
<!-- components/stat.js -->
<g id="node29" class="node"><title>components/stat.js</title>
<path fill="none" stroke="#cfffac" d="M993.833,-502.54C993.833,-502.54 873.167,-502.54 873.167,-502.54 869.333,-502.54 865.5,-498.706 865.5,-494.873 865.5,-494.873 865.5,-487.206 865.5,-487.206 865.5,-483.373 869.333,-479.54 873.167,-479.54 873.167,-479.54 993.833,-479.54 993.833,-479.54 997.667,-479.54 1001.5,-483.373 1001.5,-487.206 1001.5,-487.206 1001.5,-494.873 1001.5,-494.873 1001.5,-498.706 997.667,-502.54 993.833,-502.54"/>
<text text-anchor="middle" x="933.5" y="-487.34" font-family="Arial" font-size="14.00" fill="#cfffac">components/stat.js</text>
</g>
<!-- components/statDisplay.js&#45;&gt;components/stat.js -->
<g id="edge32" class="edge"><title>components/statDisplay.js&#45;&gt;components/stat.js</title>
<path fill="none" stroke="#757575" d="M797.72,-481.455C816.804,-482.812 836.779,-484.233 855.327,-485.552"/>
<polygon fill="#757575" stroke="#757575" points="855.248,-489.055 865.471,-486.273 855.744,-482.072 855.248,-489.055"/>
</g>
<!-- index.js -->
<g id="node32" class="node"><title>index.js</title>
<path fill="none" stroke="#c6c5fe" d="M93.8333,-278.54C93.8333,-278.54 44.1667,-278.54 44.1667,-278.54 40.3333,-278.54 36.5,-274.706 36.5,-270.873 36.5,-270.873 36.5,-263.206 36.5,-263.206 36.5,-259.373 40.3333,-255.54 44.1667,-255.54 44.1667,-255.54 93.8333,-255.54 93.8333,-255.54 97.6667,-255.54 101.5,-259.373 101.5,-263.206 101.5,-263.206 101.5,-270.873 101.5,-270.873 101.5,-274.706 97.6667,-278.54 93.8333,-278.54"/>
<text text-anchor="middle" x="69" y="-263.34" font-family="Arial" font-size="14.00" fill="#c6c5fe">index.js</text>
</g>
<!-- index.js&#45;&gt;store/store.js -->
<g id="edge34" class="edge"><title>index.js&#45;&gt;store/store.js</title>
<path fill="none" stroke="#757575" d="M94.4549,-255.475C156.498,-227.233 325.673,-157.04 474.5,-157.04 474.5,-157.04 474.5,-157.04 2165.5,-157.04 2290.29,-157.04 2433.71,-195.565 2504.95,-217.392"/>
<polygon fill="#757575" stroke="#757575" points="2504.34,-220.867 2514.93,-220.485 2506.42,-214.181 2504.34,-220.867"/>
</g>
<!-- index.js&#45;&gt;components/appRoot.js -->
<g id="edge33" class="edge"><title>index.js&#45;&gt;components/appRoot.js</title>
<path fill="none" stroke="#757575" d="M101.736,-271.799C113.891,-274.743 127.375,-279.473 138,-287.04 192.369,-325.761 230.931,-397.342 247.676,-432.881"/>
<polygon fill="#757575" stroke="#757575" points="244.639,-434.656 251.991,-442.285 251.002,-431.737 244.639,-434.656"/>
</g>
<!-- reducers/root.js&#45;&gt;actions/coreMsg.js -->
<g id="edge35" class="edge"><title>reducers/root.js&#45;&gt;actions/coreMsg.js</title>
<path fill="none" stroke="#757575" d="M2760.5,-217.328C2783.21,-202.005 2825.95,-175.941 2867,-166.04 2946.25,-146.924 3040.05,-152.908 3104.26,-161.168"/>
<polygon fill="#757575" stroke="#757575" points="3103.93,-164.655 3114.31,-162.51 3104.86,-157.717 3103.93,-164.655"/>
</g>
<!-- reducers/root.js&#45;&gt;actions/enemyMsg.js -->
<g id="edge36" class="edge"><title>reducers/root.js&#45;&gt;actions/enemyMsg.js</title>
<path fill="none" stroke="#757575" d="M2751.36,-217.361C2768.4,-191.312 2813.22,-128.148 2867,-95.0395 2874.11,-90.6619 2881.98,-87.0007 2890.04,-83.9434"/>
<polygon fill="#757575" stroke="#757575" points="2891.26,-87.2251 2899.54,-80.6251 2888.95,-80.6161 2891.26,-87.2251"/>
</g>
<!-- reducers/root.js&#45;&gt;actions/engineMsg.js -->
<g id="edge37" class="edge"><title>reducers/root.js&#45;&gt;actions/engineMsg.js</title>
<path fill="none" stroke="#757575" d="M2759.18,-217.473C2781.7,-200.745 2825.74,-169.659 2867,-150.04 2945.57,-112.675 2972.26,-121.436 3053,-89.0395 3086.52,-75.5893 3123.65,-57.4395 3149.15,-44.4412"/>
<polygon fill="#757575" stroke="#757575" points="3151.02,-47.4128 3158.32,-39.7322 3147.83,-41.1854 3151.02,-47.4128"/>
</g>
<!-- reducers/root.js&#45;&gt;actions/playerMsg.js -->
<g id="edge38" class="edge"><title>reducers/root.js&#45;&gt;actions/playerMsg.js</title>
<path fill="none" stroke="#757575" d="M2753.62,-240.88C2772.53,-263.115 2817.1,-310.454 2867,-328.04 2944.97,-355.518 2984.81,-374.767 3053,-328.04 3089.56,-302.987 3055.34,-263.874 3089,-235.04 3092.26,-232.243 3095.83,-229.81 3099.6,-227.697"/>
<polygon fill="#757575" stroke="#757575" points="3101.22,-230.802 3108.73,-223.323 3098.2,-224.49 3101.22,-230.802"/>
</g>
<!-- reducers/root.js&#45;&gt;symbols/perks.js -->
<g id="edge44" class="edge"><title>reducers/root.js&#45;&gt;symbols/perks.js</title>
<path fill="none" stroke="#757575" d="M2748.26,-217.471C2760.86,-184.998 2801.2,-92.4802 2867,-48.0395 2873.57,-43.6013 2880.96,-40.127 2888.61,-37.4106"/>
<polygon fill="#757575" stroke="#757575" points="2889.9,-40.6745 2898.41,-34.3597 2887.82,-33.991 2889.9,-40.6745"/>
</g>
<!-- reducers/updateBodyArr.js -->
<g id="node34" class="node"><title>reducers/updateBodyArr.js</title>
<path fill="none" stroke="#c6c5fe" d="M3045.33,-319.54C3045.33,-319.54 2874.67,-319.54 2874.67,-319.54 2870.83,-319.54 2867,-315.706 2867,-311.873 2867,-311.873 2867,-304.206 2867,-304.206 2867,-300.373 2870.83,-296.54 2874.67,-296.54 2874.67,-296.54 3045.33,-296.54 3045.33,-296.54 3049.17,-296.54 3053,-300.373 3053,-304.206 3053,-304.206 3053,-311.873 3053,-311.873 3053,-315.706 3049.17,-319.54 3045.33,-319.54"/>
<text text-anchor="middle" x="2960" y="-304.34" font-family="Arial" font-size="14.00" fill="#c6c5fe">reducers/updateBodyArr.js</text>
</g>
<!-- reducers/root.js&#45;&gt;reducers/updateBodyArr.js -->
<g id="edge39" class="edge"><title>reducers/root.js&#45;&gt;reducers/updateBodyArr.js</title>
<path fill="none" stroke="#757575" d="M2775.72,-240.696C2813.46,-254.564 2876.56,-277.747 2917.98,-292.966"/>
<polygon fill="#757575" stroke="#757575" points="2916.9,-296.3 2927.5,-296.464 2919.32,-289.729 2916.9,-296.3"/>
</g>
<!-- reducers/updateButtons.js -->
<g id="node35" class="node"><title>reducers/updateButtons.js</title>
<path fill="none" stroke="#cfffac" d="M3043.33,-239.54C3043.33,-239.54 2876.67,-239.54 2876.67,-239.54 2872.83,-239.54 2869,-235.706 2869,-231.873 2869,-231.873 2869,-224.206 2869,-224.206 2869,-220.373 2872.83,-216.54 2876.67,-216.54 2876.67,-216.54 3043.33,-216.54 3043.33,-216.54 3047.17,-216.54 3051,-220.373 3051,-224.206 3051,-224.206 3051,-231.873 3051,-231.873 3051,-235.706 3047.17,-239.54 3043.33,-239.54"/>
<text text-anchor="middle" x="2960" y="-224.34" font-family="Arial" font-size="14.00" fill="#cfffac">reducers/updateButtons.js</text>
</g>
<!-- reducers/root.js&#45;&gt;reducers/updateButtons.js -->
<g id="edge40" class="edge"><title>reducers/root.js&#45;&gt;reducers/updateButtons.js</title>
<path fill="none" stroke="#757575" d="M2801.05,-228.774C2818.82,-228.691 2838.98,-228.598 2858.8,-228.506"/>
<polygon fill="#757575" stroke="#757575" points="2858.82,-232.006 2868.8,-228.459 2858.78,-225.006 2858.82,-232.006"/>
</g>
<!-- reducers/updateStats.js -->
<g id="node36" class="node"><title>reducers/updateStats.js</title>
<path fill="none" stroke="#c6c5fe" d="M3035.83,-198.54C3035.83,-198.54 2884.17,-198.54 2884.17,-198.54 2880.33,-198.54 2876.5,-194.706 2876.5,-190.873 2876.5,-190.873 2876.5,-183.206 2876.5,-183.206 2876.5,-179.373 2880.33,-175.54 2884.17,-175.54 2884.17,-175.54 3035.83,-175.54 3035.83,-175.54 3039.67,-175.54 3043.5,-179.373 3043.5,-183.206 3043.5,-183.206 3043.5,-190.873 3043.5,-190.873 3043.5,-194.706 3039.67,-198.54 3035.83,-198.54"/>
<text text-anchor="middle" x="2960" y="-183.34" font-family="Arial" font-size="14.00" fill="#c6c5fe">reducers/updateStats.js</text>
</g>
<!-- reducers/root.js&#45;&gt;reducers/updateStats.js -->
<g id="edge41" class="edge"><title>reducers/root.js&#45;&gt;reducers/updateStats.js</title>
<path fill="none" stroke="#757575" d="M2801.05,-217.895C2828.32,-212.568 2861.18,-206.149 2889.85,-200.547"/>
<polygon fill="#757575" stroke="#757575" points="2890.66,-203.956 2899.8,-198.603 2889.32,-197.086 2890.66,-203.956"/>
</g>
<!-- reducers/updateTime.js -->
<g id="node37" class="node"><title>reducers/updateTime.js</title>
<path fill="none" stroke="#c6c5fe" d="M3035.83,-478.54C3035.83,-478.54 2884.17,-478.54 2884.17,-478.54 2880.33,-478.54 2876.5,-474.706 2876.5,-470.873 2876.5,-470.873 2876.5,-463.206 2876.5,-463.206 2876.5,-459.373 2880.33,-455.54 2884.17,-455.54 2884.17,-455.54 3035.83,-455.54 3035.83,-455.54 3039.67,-455.54 3043.5,-459.373 3043.5,-463.206 3043.5,-463.206 3043.5,-470.873 3043.5,-470.873 3043.5,-474.706 3039.67,-478.54 3035.83,-478.54"/>
<text text-anchor="middle" x="2960" y="-463.34" font-family="Arial" font-size="14.00" fill="#c6c5fe">reducers/updateTime.js</text>
</g>
<!-- reducers/root.js&#45;&gt;reducers/updateTime.js -->
<g id="edge42" class="edge"><title>reducers/root.js&#45;&gt;reducers/updateTime.js</title>
<path fill="none" stroke="#757575" d="M2746.98,-240.689C2756.99,-277.316 2793,-390.971 2867,-446.04 2869.34,-447.782 2871.8,-449.383 2874.35,-450.855"/>
<polygon fill="#757575" stroke="#757575" points="2872.84,-454.01 2883.34,-455.376 2875.98,-447.756 2872.84,-454.01"/>
</g>
<!-- store/initialState.js -->
<g id="node38" class="node"><title>store/initialState.js</title>
<path fill="none" stroke="#ff6c60" d="M3017.83,-437.54C3017.83,-437.54 2902.17,-437.54 2902.17,-437.54 2898.33,-437.54 2894.5,-433.706 2894.5,-429.873 2894.5,-429.873 2894.5,-422.206 2894.5,-422.206 2894.5,-418.373 2898.33,-414.54 2902.17,-414.54 2902.17,-414.54 3017.83,-414.54 3017.83,-414.54 3021.67,-414.54 3025.5,-418.373 3025.5,-422.206 3025.5,-422.206 3025.5,-429.873 3025.5,-429.873 3025.5,-433.706 3021.67,-437.54 3017.83,-437.54"/>
<text text-anchor="middle" x="2960" y="-422.34" font-family="Arial" font-size="14.00" fill="#ff6c60">store/initialState.js</text>
</g>
<!-- reducers/root.js&#45;&gt;store/initialState.js -->
<g id="edge43" class="edge"><title>reducers/root.js&#45;&gt;store/initialState.js</title>
<path fill="none" stroke="#757575" d="M2753.44,-240.864C2773.1,-265.108 2820.5,-321.573 2867,-362.04 2887.27,-379.682 2912.45,-396.918 2931.34,-409.05"/>
<polygon fill="#757575" stroke="#757575" points="2929.48,-412.013 2939.8,-414.411 2933.23,-406.101 2929.48,-412.013"/>
</g>
<!-- reducers/root.js&#45;&gt;utils.js -->
<g id="edge45" class="edge"><title>reducers/root.js&#45;&gt;utils.js</title>
<path fill="none" stroke="#757575" d="M2746.5,-240.776C2755.56,-280.648 2790.27,-412.554 2867,-487.04 2931.82,-549.968 2972.52,-527.991 3053,-569.04 3069.5,-577.456 3071.12,-585.205 3089,-590.04 3168.37,-611.498 3198.65,-622.948 3274,-590.04 3296.07,-580.401 3313.86,-558.799 3324.84,-542.511"/>
<polygon fill="#757575" stroke="#757575" points="3328.06,-543.976 3330.49,-533.665 3322.16,-540.205 3328.06,-543.976"/>
</g>
<!-- reducers/updateBodyArr.js&#45;&gt;actions/playerMsg.js -->
<g id="edge46" class="edge"><title>reducers/updateBodyArr.js&#45;&gt;actions/playerMsg.js</title>
<path fill="none" stroke="#757575" d="M3022.83,-296.499C3033.43,-292.899 3043.94,-288.191 3053,-282.04 3074.77,-267.263 3066.79,-249.154 3089,-235.04 3092.21,-233.001 3095.59,-231.167 3099.1,-229.519"/>
<polygon fill="#757575" stroke="#757575" points="3100.71,-232.64 3108.6,-225.574 3098.02,-226.174 3100.71,-232.64"/>
</g>
<!-- reducers/updateStats.js&#45;&gt;actions/coreMsg.js -->
<g id="edge47" class="edge"><title>reducers/updateStats.js&#45;&gt;actions/coreMsg.js</title>
<path fill="none" stroke="#757575" d="M3043.67,-182.143C3063.44,-180.973 3084.45,-179.728 3103.93,-178.574"/>
<polygon fill="#757575" stroke="#757575" points="3104.18,-182.066 3113.96,-177.98 3103.77,-175.078 3104.18,-182.066"/>
</g>
<!-- reducers/updateStats.js&#45;&gt;actions/playerMsg.js -->
<g id="edge48" class="edge"><title>reducers/updateStats.js&#45;&gt;actions/playerMsg.js</title>
<path fill="none" stroke="#757575" d="M3043.67,-197.585C3061.63,-199.877 3080.63,-202.3 3098.56,-204.588"/>
<polygon fill="#757575" stroke="#757575" points="3098.33,-208.086 3108.69,-205.88 3099.22,-201.142 3098.33,-208.086"/>
</g>
<!-- reducers/updateStats.js&#45;&gt;utils.js -->
<g id="edge49" class="edge"><title>reducers/updateStats.js&#45;&gt;utils.js</title>
<path fill="none" stroke="#757575" d="M2982.31,-175.345C3037.71,-146.691 3187.94,-80.428 3274,-153.04 3327.4,-198.092 3335.54,-427.736 3336.78,-500.141"/>
<polygon fill="#757575" stroke="#757575" points="3333.28,-500.411 3336.92,-510.36 3340.28,-500.311 3333.28,-500.411"/>
</g>
<!-- reducers/updateTime.js&#45;&gt;utils.js -->
<g id="edge50" class="edge"><title>reducers/updateTime.js&#45;&gt;utils.js</title>
<path fill="none" stroke="#757575" d="M3027.6,-478.702C3036.75,-482.277 3045.55,-486.944 3053,-493.04 3080.08,-515.19 3059.14,-544.817 3089,-563.04 3159.19,-605.868 3195.18,-586.43 3274,-563.04 3289.35,-558.484 3304.46,-548.874 3316.04,-540.103"/>
<polygon fill="#757575" stroke="#757575" points="3318.49,-542.62 3324.14,-533.656 3314.14,-537.142 3318.49,-542.62"/>
</g>
<!-- store/initialState.js&#45;&gt;scenes/sceneSymbols.js -->
<g id="edge79" class="edge"><title>store/initialState.js&#45;&gt;scenes/sceneSymbols.js</title>
<path fill="none" stroke="#757575" d="M3025.63,-430.97C3035.7,-434.172 3045.3,-438.961 3053,-446.04 3093.06,-482.852 3065.56,-513.941 3089,-563.04 3110.16,-607.377 3144.4,-653.767 3164.45,-679.275"/>
<polygon fill="#757575" stroke="#757575" points="3161.94,-681.743 3170.9,-687.389 3167.42,-677.385 3161.94,-681.743"/>
</g>
<!-- symbols/enemies/goblin.js -->
<g id="node50" class="node"><title>symbols/enemies/goblin.js</title>
<path fill="none" stroke="#ff6c60" d="M3266.33,-554.54C3266.33,-554.54 3096.67,-554.54 3096.67,-554.54 3092.83,-554.54 3089,-550.706 3089,-546.873 3089,-546.873 3089,-539.206 3089,-539.206 3089,-535.373 3092.83,-531.54 3096.67,-531.54 3096.67,-531.54 3266.33,-531.54 3266.33,-531.54 3270.17,-531.54 3274,-535.373 3274,-539.206 3274,-539.206 3274,-546.873 3274,-546.873 3274,-550.706 3270.17,-554.54 3266.33,-554.54"/>
<text text-anchor="middle" x="3181.5" y="-539.34" font-family="Arial" font-size="14.00" fill="#ff6c60">symbols/enemies/goblin.js</text>
</g>
<!-- store/initialState.js&#45;&gt;symbols/enemies/goblin.js -->
<g id="edge80" class="edge"><title>store/initialState.js&#45;&gt;symbols/enemies/goblin.js</title>
<path fill="none" stroke="#757575" d="M3025.75,-432.229C3035.58,-435.313 3045.06,-439.737 3053,-446.04 3082.27,-469.286 3059.87,-498.625 3089,-522.04 3091.06,-523.692 3093.22,-525.22 3095.47,-526.632"/>
<polygon fill="#757575" stroke="#757575" points="3094.04,-529.841 3104.5,-531.523 3097.37,-523.685 3094.04,-529.841"/>
</g>
<!-- symbols/face.js -->
<g id="node51" class="node"><title>symbols/face.js</title>
<path fill="none" stroke="#c6c5fe" d="M3231.83,-308.54C3231.83,-308.54 3131.17,-308.54 3131.17,-308.54 3127.33,-308.54 3123.5,-304.706 3123.5,-300.873 3123.5,-300.873 3123.5,-293.206 3123.5,-293.206 3123.5,-289.373 3127.33,-285.54 3131.17,-285.54 3131.17,-285.54 3231.83,-285.54 3231.83,-285.54 3235.67,-285.54 3239.5,-289.373 3239.5,-293.206 3239.5,-293.206 3239.5,-300.873 3239.5,-300.873 3239.5,-304.706 3235.67,-308.54 3231.83,-308.54"/>
<text text-anchor="middle" x="3181.5" y="-293.34" font-family="Arial" font-size="14.00" fill="#c6c5fe">symbols/face.js</text>
</g>
<!-- store/initialState.js&#45;&gt;symbols/face.js -->
<g id="edge81" class="edge"><title>store/initialState.js&#45;&gt;symbols/face.js</title>
<path fill="none" stroke="#757575" d="M3025.6,-415.725C3035.56,-411.992 3045.13,-406.923 3053,-400.04 3083.27,-373.572 3057.95,-342.584 3089,-317.04 3096.1,-311.198 3104.53,-306.962 3113.35,-303.906"/>
<polygon fill="#757575" stroke="#757575" points="3114.44,-307.233 3123.04,-301.033 3112.45,-300.522 3114.44,-307.233"/>
</g>
<!-- symbols/gear.js -->
<g id="node52" class="node"><title>symbols/gear.js</title>
<path fill="none" stroke="#c6c5fe" d="M3231.83,-267.54C3231.83,-267.54 3131.17,-267.54 3131.17,-267.54 3127.33,-267.54 3123.5,-263.706 3123.5,-259.873 3123.5,-259.873 3123.5,-252.206 3123.5,-252.206 3123.5,-248.373 3127.33,-244.54 3131.17,-244.54 3131.17,-244.54 3231.83,-244.54 3231.83,-244.54 3235.67,-244.54 3239.5,-248.373 3239.5,-252.206 3239.5,-252.206 3239.5,-259.873 3239.5,-259.873 3239.5,-263.706 3235.67,-267.54 3231.83,-267.54"/>
<text text-anchor="middle" x="3181.5" y="-252.34" font-family="Arial" font-size="14.00" fill="#c6c5fe">symbols/gear.js</text>
</g>
<!-- store/initialState.js&#45;&gt;symbols/gear.js -->
<g id="edge82" class="edge"><title>store/initialState.js&#45;&gt;symbols/gear.js</title>
<path fill="none" stroke="#757575" d="M3025.9,-416.732C3035.94,-412.891 3045.46,-407.524 3053,-400.04 3093.72,-359.606 3047.08,-315.229 3089,-276.04 3095.96,-269.529 3104.54,-264.951 3113.62,-261.763"/>
<polygon fill="#757575" stroke="#757575" points="3114.63,-265.116 3123.22,-258.921 3112.64,-258.404 3114.63,-265.116"/>
</g>
<!-- symbols/lowerBody.js -->
<g id="node53" class="node"><title>symbols/lowerBody.js</title>
<path fill="none" stroke="#c6c5fe" d="M3251.33,-513.54C3251.33,-513.54 3111.67,-513.54 3111.67,-513.54 3107.83,-513.54 3104,-509.706 3104,-505.873 3104,-505.873 3104,-498.206 3104,-498.206 3104,-494.373 3107.83,-490.54 3111.67,-490.54 3111.67,-490.54 3251.33,-490.54 3251.33,-490.54 3255.17,-490.54 3259,-494.373 3259,-498.206 3259,-498.206 3259,-505.873 3259,-505.873 3259,-509.706 3255.17,-513.54 3251.33,-513.54"/>
<text text-anchor="middle" x="3181.5" y="-498.34" font-family="Arial" font-size="14.00" fill="#c6c5fe">symbols/lowerBody.js</text>
</g>
<!-- store/initialState.js&#45;&gt;symbols/lowerBody.js -->
<g id="edge83" class="edge"><title>store/initialState.js&#45;&gt;symbols/lowerBody.js</title>
<path fill="none" stroke="#757575" d="M3025.98,-435.378C3035.36,-438.077 3044.65,-441.555 3053,-446.04 3072.66,-456.595 3069.4,-470.371 3089,-481.04 3092.97,-483.202 3097.16,-485.142 3101.47,-486.883"/>
<polygon fill="#757575" stroke="#757575" points="3100.46,-490.241 3111.05,-490.385 3102.86,-483.666 3100.46,-490.241"/>
</g>
<!-- symbols/skin.js -->
<g id="node54" class="node"><title>symbols/skin.js</title>
<path fill="none" stroke="#c6c5fe" d="M3230.33,-472.54C3230.33,-472.54 3132.67,-472.54 3132.67,-472.54 3128.83,-472.54 3125,-468.706 3125,-464.873 3125,-464.873 3125,-457.206 3125,-457.206 3125,-453.373 3128.83,-449.54 3132.67,-449.54 3132.67,-449.54 3230.33,-449.54 3230.33,-449.54 3234.17,-449.54 3238,-453.373 3238,-457.206 3238,-457.206 3238,-464.873 3238,-464.873 3238,-468.706 3234.17,-472.54 3230.33,-472.54"/>
<text text-anchor="middle" x="3181.5" y="-457.34" font-family="Arial" font-size="14.00" fill="#c6c5fe">symbols/skin.js</text>
</g>
<!-- store/initialState.js&#45;&gt;symbols/skin.js -->
<g id="edge84" class="edge"><title>store/initialState.js&#45;&gt;symbols/skin.js</title>
<path fill="none" stroke="#757575" d="M3025.67,-436.351C3053.71,-440.823 3086.51,-446.053 3114.68,-450.545"/>
<polygon fill="#757575" stroke="#757575" points="3114.41,-454.045 3124.84,-452.164 3115.51,-447.133 3114.41,-454.045"/>
</g>
<!-- symbols/tail.js -->
<g id="node55" class="node"><title>symbols/tail.js</title>
<path fill="none" stroke="#c6c5fe" d="M3226.33,-431.54C3226.33,-431.54 3136.67,-431.54 3136.67,-431.54 3132.83,-431.54 3129,-427.706 3129,-423.873 3129,-423.873 3129,-416.206 3129,-416.206 3129,-412.373 3132.83,-408.54 3136.67,-408.54 3136.67,-408.54 3226.33,-408.54 3226.33,-408.54 3230.17,-408.54 3234,-412.373 3234,-416.206 3234,-416.206 3234,-423.873 3234,-423.873 3234,-427.706 3230.17,-431.54 3226.33,-431.54"/>
<text text-anchor="middle" x="3181.5" y="-416.34" font-family="Arial" font-size="14.00" fill="#c6c5fe">symbols/tail.js</text>
</g>
<!-- store/initialState.js&#45;&gt;symbols/tail.js -->
<g id="edge85" class="edge"><title>store/initialState.js&#45;&gt;symbols/tail.js</title>
<path fill="none" stroke="#757575" d="M3025.67,-424.272C3055.08,-423.468 3089.72,-422.521 3118.77,-421.727"/>
<polygon fill="#757575" stroke="#757575" points="3118.89,-425.225 3128.79,-421.453 3118.7,-418.228 3118.89,-425.225"/>
</g>
<!-- symbols/tongue.js -->
<g id="node56" class="node"><title>symbols/tongue.js</title>
<path fill="none" stroke="#c6c5fe" d="M3239.33,-390.54C3239.33,-390.54 3123.67,-390.54 3123.67,-390.54 3119.83,-390.54 3116,-386.706 3116,-382.873 3116,-382.873 3116,-375.206 3116,-375.206 3116,-371.373 3119.83,-367.54 3123.67,-367.54 3123.67,-367.54 3239.33,-367.54 3239.33,-367.54 3243.17,-367.54 3247,-371.373 3247,-375.206 3247,-375.206 3247,-382.873 3247,-382.873 3247,-386.706 3243.17,-390.54 3239.33,-390.54"/>
<text text-anchor="middle" x="3181.5" y="-375.34" font-family="Arial" font-size="14.00" fill="#c6c5fe">symbols/tongue.js</text>
</g>
<!-- store/initialState.js&#45;&gt;symbols/tongue.js -->
<g id="edge86" class="edge"><title>store/initialState.js&#45;&gt;symbols/tongue.js</title>
<path fill="none" stroke="#757575" d="M3014.98,-414.482C3045.81,-407.88 3084.63,-399.567 3116.93,-392.651"/>
<polygon fill="#757575" stroke="#757575" points="3117.69,-396.069 3126.73,-390.553 3116.22,-389.224 3117.69,-396.069"/>
</g>
<!-- symbols/wings.js -->
<g id="node57" class="node"><title>symbols/wings.js</title>
<path fill="none" stroke="#c6c5fe" d="M3235.83,-349.54C3235.83,-349.54 3127.17,-349.54 3127.17,-349.54 3123.33,-349.54 3119.5,-345.706 3119.5,-341.873 3119.5,-341.873 3119.5,-334.206 3119.5,-334.206 3119.5,-330.373 3123.33,-326.54 3127.17,-326.54 3127.17,-326.54 3235.83,-326.54 3235.83,-326.54 3239.67,-326.54 3243.5,-330.373 3243.5,-334.206 3243.5,-334.206 3243.5,-341.873 3243.5,-341.873 3243.5,-345.706 3239.67,-349.54 3235.83,-349.54"/>
<text text-anchor="middle" x="3181.5" y="-334.34" font-family="Arial" font-size="14.00" fill="#c6c5fe">symbols/wings.js</text>
</g>
<!-- store/initialState.js&#45;&gt;symbols/wings.js -->
<g id="edge87" class="edge"><title>store/initialState.js&#45;&gt;symbols/wings.js</title>
<path fill="none" stroke="#757575" d="M3021.59,-414.404C3032.54,-410.803 3043.49,-406.119 3053,-400.04 3073.71,-386.797 3067.9,-370.652 3089,-358.04 3095.33,-354.254 3102.3,-351.183 3109.47,-348.691"/>
<polygon fill="#757575" stroke="#757575" points="3110.81,-351.938 3119.33,-345.639 3108.74,-345.25 3110.81,-351.938"/>
</g>
<!-- scenes/charCreation.js&#45;&gt;actions/Core.js -->
<g id="edge51" class="edge"><title>scenes/charCreation.js&#45;&gt;actions/Core.js</title>
<path fill="none" stroke="#757575" d="M1372.53,-627.426C1412.46,-582.561 1565.84,-423.04 1728,-423.04 1728,-423.04 1728,-423.04 1947,-423.04 2085.19,-423.04 2130.65,-455.015 2257,-399.04 2277.12,-390.125 2273.5,-375.245 2293,-365.04 2296.7,-363.105 2300.61,-361.405 2304.63,-359.91"/>
<polygon fill="#757575" stroke="#757575" points="2305.76,-363.224 2314.17,-356.782 2303.58,-356.573 2305.76,-363.224"/>
</g>
<!-- scenes/charCreation.js&#45;&gt;store/store.js -->
<g id="edge57" class="edge"><title>scenes/charCreation.js&#45;&gt;store/store.js</title>
<path fill="none" stroke="#757575" d="M1365.95,-627.466C1376.56,-594.076 1412,-497.033 1478,-451.04 1567.84,-388.428 2341.5,-300.402 2447,-271.04 2469.69,-264.724 2494.4,-255.456 2513.92,-247.539"/>
<polygon fill="#757575" stroke="#757575" points="2515.42,-250.706 2523.34,-243.663 2512.76,-244.232 2515.42,-250.706"/>
</g>
<!-- scenes/charCreation.js&#45;&gt;actions/Player.js -->
<g id="edge52" class="edge"><title>scenes/charCreation.js&#45;&gt;actions/Player.js</title>
<path fill="none" stroke="#757575" d="M1442.37,-637.434C1533.77,-635.159 1687.88,-629.988 1820,-619.04 1915.73,-611.107 2025.87,-596.7 2095.08,-587"/>
<polygon fill="#757575" stroke="#757575" points="2095.58,-590.465 2104.99,-585.605 2094.6,-583.534 2095.58,-590.465"/>
</g>
<!-- scenes/charCreation.js&#45;&gt;symbols/breastCup.js -->
<g id="edge58" class="edge"><title>scenes/charCreation.js&#45;&gt;symbols/breastCup.js</title>
<path fill="none" stroke="#757575" d="M1430.68,-650.706C1434.79,-653.027 1438.62,-655.779 1442,-659.04 1483.3,-698.879 1434.47,-745.644 1478,-783.04 1563.01,-856.072 1615.93,-816.04 1728,-816.04 1728,-816.04 1728,-816.04 1947,-816.04 2063.16,-816.04 2197.31,-816.04 2282.61,-816.04"/>
<polygon fill="#757575" stroke="#757575" points="2282.76,-819.54 2292.76,-816.04 2282.76,-812.54 2282.76,-819.54"/>
</g>
<!-- scenes/charCreation.js&#45;&gt;appearance/appearance.js -->
<g id="edge53" class="edge"><title>scenes/charCreation.js&#45;&gt;appearance/appearance.js</title>
<path fill="none" stroke="#757575" d="M1429.58,-650.674C1434.05,-652.993 1438.26,-655.754 1442,-659.04 1474.69,-687.728 1442.5,-724.91 1478,-750.04 1569.09,-814.522 1894.23,-798.523 2061.89,-785.324"/>
<polygon fill="#757575" stroke="#757575" points="2062.27,-788.805 2071.96,-784.519 2061.72,-781.827 2062.27,-788.805"/>
</g>
<!-- scenes/charCreation.js&#45;&gt;symbols/gender.js -->
<g id="edge60" class="edge"><title>scenes/charCreation.js&#45;&gt;symbols/gender.js</title>
<path fill="none" stroke="#757575" d="M1426.42,-650.588C1431.93,-652.909 1437.22,-655.695 1442,-659.04 1465.34,-675.359 1453.5,-697.523 1478,-712.04 1574.03,-768.941 1616.38,-736.04 1728,-736.04 1728,-736.04 1728,-736.04 1947,-736.04 2085.04,-736.04 2119.94,-738.657 2257,-755.04 2271.58,-756.782 2287.14,-759.2 2301.88,-761.753"/>
<polygon fill="#757575" stroke="#757575" points="2301.47,-765.235 2311.93,-763.535 2302.69,-758.342 2301.47,-765.235"/>
</g>
<!-- scenes/charCreation.js&#45;&gt;scenes/menus.js -->
<g id="edge54" class="edge"><title>scenes/charCreation.js&#45;&gt;scenes/menus.js</title>
<path fill="none" stroke="#757575" d="M1387.69,-627.362C1411.06,-616.557 1446.82,-600.091 1478,-586.04 1486.12,-582.38 1494.87,-578.482 1503.13,-574.82"/>
<polygon fill="#757575" stroke="#757575" points="1504.81,-577.903 1512.54,-570.657 1501.98,-571.501 1504.81,-577.903"/>
</g>
<!-- scenes/charCreation.js&#45;&gt;scenes/sceneSymbols.js -->
<g id="edge55" class="edge"><title>scenes/charCreation.js&#45;&gt;scenes/sceneSymbols.js</title>
<path fill="none" stroke="#757575" d="M1419.65,-650.555C1506.8,-667.725 1669.03,-698.04 1728,-698.04 1728,-698.04 1728,-698.04 1947,-698.04 2215.5,-698.04 2281.5,-735.04 2550,-735.04 2550,-735.04 2550,-735.04 2744,-735.04 2860.96,-735.04 2994.96,-722.042 3083.3,-711.667"/>
<polygon fill="#757575" stroke="#757575" points="3083.78,-715.133 3093.3,-710.48 3082.96,-708.182 3083.78,-715.133"/>
</g>
<!-- scenes/sceneTextStore.js -->
<g id="node43" class="node"><title>scenes/sceneTextStore.js</title>
<path fill="none" stroke="#c6c5fe" d="M1812.33,-610.54C1812.33,-610.54 1645.67,-610.54 1645.67,-610.54 1641.83,-610.54 1638,-606.706 1638,-602.873 1638,-602.873 1638,-595.206 1638,-595.206 1638,-591.373 1641.83,-587.54 1645.67,-587.54 1645.67,-587.54 1812.33,-587.54 1812.33,-587.54 1816.17,-587.54 1820,-591.373 1820,-595.206 1820,-595.206 1820,-602.873 1820,-602.873 1820,-606.706 1816.17,-610.54 1812.33,-610.54"/>
<text text-anchor="middle" x="1729" y="-595.34" font-family="Arial" font-size="14.00" fill="#c6c5fe">scenes/sceneTextStore.js</text>
</g>
<!-- scenes/charCreation.js&#45;&gt;scenes/sceneTextStore.js -->
<g id="edge56" class="edge"><title>scenes/charCreation.js&#45;&gt;scenes/sceneTextStore.js</title>
<path fill="none" stroke="#757575" d="M1442.01,-629.222C1454.06,-627.786 1466.36,-626.35 1478,-625.04 1527.28,-619.49 1582.08,-613.744 1627.79,-609.069"/>
<polygon fill="#757575" stroke="#757575" points="1628.4,-612.524 1637.99,-608.027 1627.69,-605.56 1628.4,-612.524"/>
</g>
<!-- symbols/butt.js -->
<g id="node44" class="node"><title>symbols/butt.js</title>
<path fill="none" stroke="#c6c5fe" d="M1776.83,-907.54C1776.83,-907.54 1681.17,-907.54 1681.17,-907.54 1677.33,-907.54 1673.5,-903.706 1673.5,-899.873 1673.5,-899.873 1673.5,-892.206 1673.5,-892.206 1673.5,-888.373 1677.33,-884.54 1681.17,-884.54 1681.17,-884.54 1776.83,-884.54 1776.83,-884.54 1780.67,-884.54 1784.5,-888.373 1784.5,-892.206 1784.5,-892.206 1784.5,-899.873 1784.5,-899.873 1784.5,-903.706 1780.67,-907.54 1776.83,-907.54"/>
<text text-anchor="middle" x="1729" y="-892.34" font-family="Arial" font-size="14.00" fill="#c6c5fe">symbols/butt.js</text>
</g>
<!-- scenes/charCreation.js&#45;&gt;symbols/butt.js -->
<g id="edge59" class="edge"><title>scenes/charCreation.js&#45;&gt;symbols/butt.js</title>
<path fill="none" stroke="#757575" d="M1431.86,-650.708C1435.58,-653.04 1439.01,-655.793 1442,-659.04 1508.51,-731.293 1405.58,-810.715 1478,-877.04 1529.98,-924.642 1616.22,-919.628 1672.59,-909.514"/>
<polygon fill="#757575" stroke="#757575" points="1673.58,-912.887 1682.75,-907.577 1672.27,-906.011 1673.58,-912.887"/>
</g>
<!-- symbols/hips.js -->
<g id="node45" class="node"><title>symbols/hips.js</title>
<path fill="none" stroke="#c6c5fe" d="M1589.33,-867.54C1589.33,-867.54 1490.67,-867.54 1490.67,-867.54 1486.83,-867.54 1483,-863.706 1483,-859.873 1483,-859.873 1483,-852.206 1483,-852.206 1483,-848.373 1486.83,-844.54 1490.67,-844.54 1490.67,-844.54 1589.33,-844.54 1589.33,-844.54 1593.17,-844.54 1597,-848.373 1597,-852.206 1597,-852.206 1597,-859.873 1597,-859.873 1597,-863.706 1593.17,-867.54 1589.33,-867.54"/>
<text text-anchor="middle" x="1540" y="-852.34" font-family="Arial" font-size="14.00" fill="#c6c5fe">symbols/hips.js</text>
</g>
<!-- scenes/charCreation.js&#45;&gt;symbols/hips.js -->
<g id="edge61" class="edge"><title>scenes/charCreation.js&#45;&gt;symbols/hips.js</title>
<path fill="none" stroke="#757575" d="M1431.33,-650.641C1435.23,-652.983 1438.84,-655.757 1442,-659.04 1495.84,-715.017 1428.7,-770.026 1478,-830.04 1480.91,-833.588 1484.4,-836.662 1488.21,-839.323"/>
<polygon fill="#757575" stroke="#757575" points="1486.59,-842.429 1496.98,-844.513 1490.16,-836.406 1486.59,-842.429"/>
</g>
<!-- scenes/menus.js&#45;&gt;actions/Core.js -->
<g id="edge67" class="edge"><title>scenes/menus.js&#45;&gt;actions/Core.js</title>
<path fill="none" stroke="#757575" d="M1602.17,-550.152C1770.61,-525.476 2230.55,-456.647 2257,-437.04 2285.74,-415.732 2264.68,-386.899 2293,-365.04 2296.64,-362.229 2300.66,-359.884 2304.89,-357.93"/>
<polygon fill="#757575" stroke="#757575" points="2306.37,-361.112 2314.44,-354.246 2303.85,-354.582 2306.37,-361.112"/>
</g>
<!-- scenes/menus.js&#45;&gt;scenes/sceneSymbols.js -->
<g id="edge68" class="edge"><title>scenes/menus.js&#45;&gt;scenes/sceneSymbols.js</title>
<path fill="none" stroke="#757575" d="M1602.26,-562.845C1658.8,-566.445 1745.1,-572.159 1820,-578.04 2294.09,-615.261 2860.3,-668.42 3083.37,-689.705"/>
<polygon fill="#757575" stroke="#757575" points="3083.12,-693.197 3093.41,-690.664 3083.79,-686.229 3083.12,-693.197"/>
</g>
<!-- scenes/menus.js&#45;&gt;scenes/sceneTextStore.js -->
<g id="edge69" class="edge"><title>scenes/menus.js&#45;&gt;scenes/sceneTextStore.js</title>
<path fill="none" stroke="#757575" d="M1594.84,-570.556C1616.55,-575.2 1641.76,-580.593 1664.37,-585.429"/>
<polygon fill="#757575" stroke="#757575" points="1663.71,-588.866 1674.22,-587.536 1665.17,-582.021 1663.71,-588.866"/>
</g>
<!-- scenes/sceneTextStore.js&#45;&gt;components/nameInput.js -->
<g id="edge77" class="edge"><title>scenes/sceneTextStore.js&#45;&gt;components/nameInput.js</title>
<path fill="none" stroke="#757575" d="M1774.29,-587.504C1808.11,-578.695 1854.88,-566.513 1890.91,-557.128"/>
<polygon fill="#757575" stroke="#757575" points="1891.98,-560.468 1900.77,-554.56 1890.21,-553.694 1891.98,-560.468"/>
</g>
<!-- scenes/sceneTextStore.js&#45;&gt;scenes/sceneSymbols.js -->
<g id="edge78" class="edge"><title>scenes/sceneTextStore.js&#45;&gt;scenes/sceneSymbols.js</title>
<path fill="none" stroke="#757575" d="M1763.81,-610.587C1788.94,-618.707 1824.24,-629.138 1856,-635.04 2008.23,-663.323 2395.16,-697.04 2550,-697.04 2550,-697.04 2550,-697.04 2744,-697.04 2860.57,-697.04 2994.65,-697.762 3083.11,-698.338"/>
<polygon fill="#757575" stroke="#757575" points="3083.11,-701.838 3093.13,-698.404 3083.15,-694.838 3083.11,-701.838"/>
</g>
<!-- symbols/butt.js&#45;&gt;utils.js -->
<g id="edge90" class="edge"><title>symbols/butt.js&#45;&gt;utils.js</title>
<path fill="none" stroke="#757575" d="M1784.75,-896.454C1866.98,-897.04 2027.28,-898.04 2163.5,-898.04 2163.5,-898.04 2163.5,-898.04 2371,-898.04 2772.34,-898.04 2967.83,-1160.52 3274,-901.04 3328.82,-854.578 3335.99,-617.829 3336.89,-544.034"/>
<polygon fill="#757575" stroke="#757575" points="3340.39,-543.676 3336.98,-533.644 3333.39,-543.611 3340.39,-543.676"/>
</g>
<!-- symbols/hips.js&#45;&gt;utils.js -->
<g id="edge96" class="edge"><title>symbols/hips.js&#45;&gt;utils.js</title>
<path fill="none" stroke="#757575" d="M1597.21,-856.04C1675.25,-856.04 1820.85,-856.04 1945,-856.04 1945,-856.04 1945,-856.04 2552,-856.04 2712.8,-856.04 3152.62,-913.507 3274,-808.04 3314.11,-773.186 3330.72,-604.573 3335.47,-543.872"/>
<polygon fill="#757575" stroke="#757575" points="3338.98,-543.778 3336.24,-533.544 3332,-543.255 3338.98,-543.778"/>
</g>
<!-- scenes/combat/combat.js&#45;&gt;actions/Core.js -->
<g id="edge62" class="edge"><title>scenes/combat/combat.js&#45;&gt;actions/Core.js</title>
<path fill="none" stroke="#757575" d="M2035.72,-315.87C2115.91,-323.85 2232.07,-335.412 2303.94,-342.565"/>
<polygon fill="#757575" stroke="#757575" points="2303.92,-346.08 2314.22,-343.587 2304.61,-339.114 2303.92,-346.08"/>
</g>
<!-- scenes/combat/combat.js&#45;&gt;store/store.js -->
<g id="edge66" class="edge"><title>scenes/combat/combat.js&#45;&gt;store/store.js</title>
<path fill="none" stroke="#757575" d="M2035.6,-297.09C2135.61,-285.701 2303.13,-266.144 2447,-247.04 2461.27,-245.144 2476.63,-242.976 2491.03,-240.888"/>
<polygon fill="#757575" stroke="#757575" points="2491.92,-244.296 2501.31,-239.387 2490.91,-237.369 2491.92,-244.296"/>
</g>
<!-- scenes/combat/combat.js&#45;&gt;actions/Enemy.js -->
<g id="edge63" class="edge"><title>scenes/combat/combat.js&#45;&gt;actions/Enemy.js</title>
<path fill="none" stroke="#757575" d="M1972.76,-295.44C2045.32,-262.773 2251.44,-169.971 2334.09,-132.759"/>
<polygon fill="#757575" stroke="#757575" points="2335.63,-135.904 2343.31,-128.607 2332.75,-129.522 2335.63,-135.904"/>
</g>
<!-- scenes/combat/combat.js&#45;&gt;actions/Player.js -->
<g id="edge64" class="edge"><title>scenes/combat/combat.js&#45;&gt;actions/Player.js</title>
<path fill="none" stroke="#757575" d="M1955.13,-318.723C1974.56,-346.456 2025.51,-418.189 2072,-475.04 2096.46,-504.955 2126.72,-537.973 2145.57,-558.112"/>
<polygon fill="#757575" stroke="#757575" points="2143.03,-560.525 2152.43,-565.414 2148.13,-555.731 2143.03,-560.525"/>
</g>
<!-- scenes/combat/combat.js&#45;&gt;scenes/sceneSymbols.js -->
<g id="edge65" class="edge"><title>scenes/combat/combat.js&#45;&gt;scenes/sceneSymbols.js</title>
<path fill="none" stroke="#757575" d="M1985.52,-318.552C2168.63,-373.31 2946.56,-606.354 3053,-645.04 3085.05,-656.689 3120.74,-672.012 3146.19,-683.358"/>
<polygon fill="#757575" stroke="#757575" points="3144.85,-686.596 3155.41,-687.496 3147.72,-680.209 3144.85,-686.596"/>
</g>
<!-- setupTests.js -->
<g id="node48" class="node"><title>setupTests.js</title>
<path fill="none" stroke="#cfffac" d="M112.333,-319.54C112.333,-319.54 25.6667,-319.54 25.6667,-319.54 21.8333,-319.54 18,-315.706 18,-311.873 18,-311.873 18,-304.206 18,-304.206 18,-300.373 21.8333,-296.54 25.6667,-296.54 25.6667,-296.54 112.333,-296.54 112.333,-296.54 116.167,-296.54 120,-300.373 120,-304.206 120,-304.206 120,-311.873 120,-311.873 120,-315.706 116.167,-319.54 112.333,-319.54"/>
<text text-anchor="middle" x="69" y="-304.34" font-family="Arial" font-size="14.00" fill="#cfffac">setupTests.js</text>
</g>
<!-- store/gameFlags.js -->
<g id="node49" class="node"><title>store/gameFlags.js</title>
<path fill="none" stroke="#cfffac" d="M130.333,-360.54C130.333,-360.54 7.66667,-360.54 7.66667,-360.54 3.83333,-360.54 0,-356.706 0,-352.873 0,-352.873 0,-345.206 0,-345.206 0,-341.373 3.83333,-337.54 7.66667,-337.54 7.66667,-337.54 130.333,-337.54 130.333,-337.54 134.167,-337.54 138,-341.373 138,-345.206 138,-345.206 138,-352.873 138,-352.873 138,-356.706 134.167,-360.54 130.333,-360.54"/>
<text text-anchor="middle" x="69" y="-345.34" font-family="Arial" font-size="14.00" fill="#cfffac">store/gameFlags.js</text>
</g>
<!-- symbols/enemies/goblin.js&#45;&gt;actions/Core.js -->
<g id="edge91" class="edge"><title>symbols/enemies/goblin.js&#45;&gt;actions/Core.js</title>
<path fill="none" stroke="#757575" d="M3104.4,-531.513C3040.66,-521.365 2947.46,-505.375 2867,-487.04 2699.8,-448.937 2504.63,-390.437 2417.32,-363.513"/>
<polygon fill="#757575" stroke="#757575" points="2418.3,-360.153 2407.72,-360.544 2416.24,-366.841 2418.3,-360.153"/>
</g>
<!-- symbols/enemies/goblin.js&#45;&gt;utils.js -->
<g id="edge92" class="edge"><title>symbols/enemies/goblin.js&#45;&gt;utils.js</title>
<path fill="none" stroke="#757575" d="M3267.43,-531.495C3278.76,-529.955 3289.87,-528.446 3299.76,-527.101"/>
<polygon fill="#757575" stroke="#757575" points="3300.54,-530.527 3309.98,-525.712 3299.6,-523.591 3300.54,-530.527"/>
</g>
<!-- symbols/face.js&#45;&gt;utils.js -->
<g id="edge93" class="edge"><title>symbols/face.js&#45;&gt;utils.js</title>
<path fill="none" stroke="#757575" d="M3239.68,-300.026C3252.22,-303.106 3264.55,-308.341 3274,-317.04 3327.08,-365.887 3335.9,-458.209 3337.05,-500.227"/>
<polygon fill="#757575" stroke="#757575" points="3333.56,-500.497 3337.2,-510.444 3340.55,-500.393 3333.56,-500.497"/>
</g>
<!-- symbols/gear.js&#45;&gt;utils.js -->
<g id="edge94" class="edge"><title>symbols/gear.js&#45;&gt;utils.js</title>
<path fill="none" stroke="#757575" d="M3239.51,-258.592C3252.19,-261.665 3264.64,-267.006 3274,-276.04 3306.5,-307.409 3327.34,-446.187 3334.36,-500.316"/>
<polygon fill="#757575" stroke="#757575" points="3330.92,-501.03 3335.65,-510.512 3337.87,-500.153 3330.92,-501.03"/>
</g>
<!-- symbols/lowerBody.js&#45;&gt;utils.js -->
<g id="edge97" class="edge"><title>symbols/lowerBody.js&#45;&gt;utils.js</title>
<path fill="none" stroke="#757575" d="M3259.3,-511.981C3273.36,-513.801 3287.43,-515.623 3299.67,-517.207"/>
<polygon fill="#757575" stroke="#757575" points="3299.53,-520.719 3309.9,-518.531 3300.43,-513.777 3299.53,-520.719"/>
</g>
<!-- symbols/skin.js&#45;&gt;utils.js -->
<g id="edge99" class="edge"><title>symbols/skin.js&#45;&gt;utils.js</title>
<path fill="none" stroke="#757575" d="M3238.17,-469.84C3250.24,-472.67 3262.75,-476.335 3274,-481.04 3288.2,-486.977 3302.69,-496.146 3314.18,-504.308"/>
<polygon fill="#757575" stroke="#757575" points="3312.2,-507.195 3322.34,-510.283 3316.34,-501.549 3312.2,-507.195"/>
</g>
<!-- symbols/tail.js&#45;&gt;utils.js -->
<g id="edge100" class="edge"><title>symbols/tail.js&#45;&gt;utils.js</title>
<path fill="none" stroke="#757575" d="M3234.34,-424.873C3247.99,-427.831 3262.19,-432.547 3274,-440.04 3297.75,-455.111 3316.03,-482.452 3326.64,-501.397"/>
<polygon fill="#757575" stroke="#757575" points="3323.67,-503.265 3331.47,-510.429 3329.84,-499.961 3323.67,-503.265"/>
</g>
<!-- symbols/tongue.js&#45;&gt;utils.js -->
<g id="edge101" class="edge"><title>symbols/tongue.js&#45;&gt;utils.js</title>
<path fill="none" stroke="#757575" d="M3247.21,-385.639C3256.83,-388.683 3266.14,-392.987 3274,-399.04 3307.22,-424.63 3324.45,-472.619 3332.03,-500.488"/>
<polygon fill="#757575" stroke="#757575" points="3328.7,-501.594 3334.56,-510.423 3335.49,-499.869 3328.7,-501.594"/>
</g>
<!-- symbols/wings.js&#45;&gt;utils.js -->
<g id="edge103" class="edge"><title>symbols/wings.js&#45;&gt;utils.js</title>
<path fill="none" stroke="#757575" d="M3243.54,-342.627C3254.61,-345.768 3265.37,-350.623 3274,-358.04 3317.01,-394.979 3330.78,-464.74 3335.09,-500.183"/>
<polygon fill="#757575" stroke="#757575" points="3331.64,-500.829 3336.18,-510.4 3338.6,-500.084 3331.64,-500.829"/>
</g>
</g>
</svg>
