<?xml version="1.0" encoding="UTF-8" standalone="no"?>
<!DOCTYPE svg PUBLIC "-//W3C//DTD SVG 1.1//EN"
 "http://www.w3.org/Graphics/SVG/1.1/DTD/svg11.dtd">
<!-- Generated by graphviz version 2.38.0 (20140413.2041)
 -->
<!-- Title: G Pages: 1 -->
<svg width="2994pt" height="748pt"
 viewBox="0.00 0.00 2994.20 748.20" xmlns="http://www.w3.org/2000/svg" xmlns:xlink="http://www.w3.org/1999/xlink">
<g id="graph0" class="graph" transform="scale(1 1) rotate(0) translate(21.6 726.6)">
<title>G</title>
<polygon fill="#111111" stroke="none" points="-21.6,21.6 -21.6,-726.6 2972.6,-726.6 2972.6,21.6 -21.6,21.6"/>
<!-- actions/Core.js -->
<g id="node1" class="node"><title>actions/Core.js</title>
<path fill="none" stroke="#c6c5fe" d="M1740.83,-332.5C1740.83,-332.5 1645.17,-332.5 1645.17,-332.5 1641.33,-332.5 1637.5,-328.667 1637.5,-324.833 1637.5,-324.833 1637.5,-317.167 1637.5,-317.167 1637.5,-313.333 1641.33,-309.5 1645.17,-309.5 1645.17,-309.5 1740.83,-309.5 1740.83,-309.5 1744.67,-309.5 1748.5,-313.333 1748.5,-317.167 1748.5,-317.167 1748.5,-324.833 1748.5,-324.833 1748.5,-328.667 1744.67,-332.5 1740.83,-332.5"/>
<text text-anchor="middle" x="1693" y="-317.3" font-family="Arial" font-size="14.00" fill="#c6c5fe">actions/Core.js</text>
</g>
<!-- actions/coreMsg.js -->
<g id="node2" class="node"><title>actions/coreMsg.js</title>
<path fill="none" stroke="#cfffac" d="M2922.83,-49.5C2922.83,-49.5 2803.17,-49.5 2803.17,-49.5 2799.33,-49.5 2795.5,-45.6667 2795.5,-41.8333 2795.5,-41.8333 2795.5,-34.1667 2795.5,-34.1667 2795.5,-30.3333 2799.33,-26.5 2803.17,-26.5 2803.17,-26.5 2922.83,-26.5 2922.83,-26.5 2926.67,-26.5 2930.5,-30.3333 2930.5,-34.1667 2930.5,-34.1667 2930.5,-41.8333 2930.5,-41.8333 2930.5,-45.6667 2926.67,-49.5 2922.83,-49.5"/>
<text text-anchor="middle" x="2863" y="-34.3" font-family="Arial" font-size="14.00" fill="#cfffac">actions/coreMsg.js</text>
</g>
<!-- actions/Core.js&#45;&gt;actions/coreMsg.js -->
<g id="edge1" class="edge"><title>actions/Core.js&#45;&gt;actions/coreMsg.js</title>
<path fill="none" stroke="#757575" d="M1704.78,-309.195C1758.93,-251.282 2008.73,-0 2267,-0 2267,-0 2267,-0 2450,-0 2578.69,-0 2611.11,-3.65519 2739,-18 2755.11,-19.8073 2772.33,-22.2705 2788.63,-24.8507"/>
<polygon fill="#757575" stroke="#757575" points="2788.21,-28.3283 2798.64,-26.4676 2789.33,-21.4178 2788.21,-28.3283"/>
</g>
<!-- store/store.js -->
<g id="node3" class="node"><title>store/store.js</title>
<path fill="none" stroke="#c6c5fe" d="M2309.83,-299.5C2309.83,-299.5 2226.17,-299.5 2226.17,-299.5 2222.33,-299.5 2218.5,-295.667 2218.5,-291.833 2218.5,-291.833 2218.5,-284.167 2218.5,-284.167 2218.5,-280.333 2222.33,-276.5 2226.17,-276.5 2226.17,-276.5 2309.83,-276.5 2309.83,-276.5 2313.67,-276.5 2317.5,-280.333 2317.5,-284.167 2317.5,-284.167 2317.5,-291.833 2317.5,-291.833 2317.5,-295.667 2313.67,-299.5 2309.83,-299.5"/>
<text text-anchor="middle" x="2268" y="-284.3" font-family="Arial" font-size="14.00" fill="#c6c5fe">store/store.js</text>
</g>
<!-- actions/Core.js&#45;&gt;store/store.js -->
<g id="edge2" class="edge"><title>actions/Core.js&#45;&gt;store/store.js</title>
<path fill="none" stroke="#757575" d="M1748.65,-318.026C1834.97,-313.303 2008.16,-303.729 2155,-295 2172.23,-293.976 2190.95,-292.822 2208.07,-291.751"/>
<polygon fill="#757575" stroke="#757575" points="2208.73,-295.216 2218.49,-291.096 2208.29,-288.23 2208.73,-295.216"/>
</g>
<!-- reducers/root.js -->
<g id="node26" class="node"><title>reducers/root.js</title>
<path fill="none" stroke="#c6c5fe" d="M2499.33,-210.5C2499.33,-210.5 2398.67,-210.5 2398.67,-210.5 2394.83,-210.5 2391,-206.667 2391,-202.833 2391,-202.833 2391,-195.167 2391,-195.167 2391,-191.333 2394.83,-187.5 2398.67,-187.5 2398.67,-187.5 2499.33,-187.5 2499.33,-187.5 2503.17,-187.5 2507,-191.333 2507,-195.167 2507,-195.167 2507,-202.833 2507,-202.833 2507,-206.667 2503.17,-210.5 2499.33,-210.5"/>
<text text-anchor="middle" x="2449" y="-195.3" font-family="Arial" font-size="14.00" fill="#c6c5fe">reducers/root.js</text>
</g>
<!-- store/store.js&#45;&gt;reducers/root.js -->
<g id="edge60" class="edge"><title>store/store.js&#45;&gt;reducers/root.js</title>
<path fill="none" stroke="#757575" d="M2292.4,-276.365C2323.89,-260.707 2380.05,-232.785 2415.59,-215.114"/>
<polygon fill="#757575" stroke="#757575" points="2417.2,-218.224 2424.59,-210.638 2414.08,-211.956 2417.2,-218.224"/>
</g>
<!-- actions/Engine.js -->
<g id="node4" class="node"><title>actions/Engine.js</title>
<path fill="none" stroke="#c6c5fe" d="M951.833,-293.5C951.833,-293.5 843.167,-293.5 843.167,-293.5 839.333,-293.5 835.5,-289.667 835.5,-285.833 835.5,-285.833 835.5,-278.167 835.5,-278.167 835.5,-274.333 839.333,-270.5 843.167,-270.5 843.167,-270.5 951.833,-270.5 951.833,-270.5 955.667,-270.5 959.5,-274.333 959.5,-278.167 959.5,-278.167 959.5,-285.833 959.5,-285.833 959.5,-289.667 955.667,-293.5 951.833,-293.5"/>
<text text-anchor="middle" x="897.5" y="-278.3" font-family="Arial" font-size="14.00" fill="#c6c5fe">actions/Engine.js</text>
</g>
<!-- scenes/sceneFunctions.js -->
<g id="node5" class="node"><title>scenes/sceneFunctions.js</title>
<path fill="none" stroke="#c6c5fe" d="M1201.33,-293.5C1201.33,-293.5 1034.67,-293.5 1034.67,-293.5 1030.83,-293.5 1027,-289.667 1027,-285.833 1027,-285.833 1027,-278.167 1027,-278.167 1027,-274.333 1030.83,-270.5 1034.67,-270.5 1034.67,-270.5 1201.33,-270.5 1201.33,-270.5 1205.17,-270.5 1209,-274.333 1209,-278.167 1209,-278.167 1209,-285.833 1209,-285.833 1209,-289.667 1205.17,-293.5 1201.33,-293.5"/>
<text text-anchor="middle" x="1118" y="-278.3" font-family="Arial" font-size="14.00" fill="#c6c5fe">scenes/sceneFunctions.js</text>
</g>
<!-- actions/Engine.js&#45;&gt;scenes/sceneFunctions.js -->
<g id="edge3" class="edge"><title>actions/Engine.js&#45;&gt;scenes/sceneFunctions.js</title>
<path fill="none" stroke="#757575" d="M959.655,-282C977.394,-282 997.247,-282 1016.72,-282"/>
<polygon fill="#757575" stroke="#757575" points="1016.85,-285.5 1026.85,-282 1016.85,-278.5 1016.85,-285.5"/>
</g>
<!-- scenes/sceneFunctions.js&#45;&gt;actions/Core.js -->
<g id="edge51" class="edge"><title>scenes/sceneFunctions.js&#45;&gt;actions/Core.js</title>
<path fill="none" stroke="#757575" d="M1188.5,-270.369C1195.67,-267.837 1202.65,-264.754 1209,-261 1229.59,-248.835 1223.15,-230.731 1245,-221 1310.37,-191.888 1335.45,-209.022 1406,-221 1500.95,-237.122 1606.39,-281.339 1658.73,-305.214"/>
<polygon fill="#757575" stroke="#757575" points="1657.33,-308.42 1667.88,-309.424 1660.26,-302.062 1657.33,-308.42"/>
</g>
<!-- scenes/sceneFunctions.js&#45;&gt;store/store.js -->
<g id="edge56" class="edge"><title>scenes/sceneFunctions.js&#45;&gt;store/store.js</title>
<path fill="none" stroke="#757575" d="M1209.31,-281.745C1322.21,-281.449 1521.39,-281 1692,-281 1692,-281 1692,-281 1911,-281 2015.73,-281 2137.76,-284.066 2208.32,-286.139"/>
<polygon fill="#757575" stroke="#757575" points="2208.25,-289.639 2218.35,-286.438 2208.46,-282.642 2208.25,-289.639"/>
</g>
<!-- scenes/charCreation.js -->
<g id="node33" class="node"><title>scenes/charCreation.js</title>
<path fill="none" stroke="#c6c5fe" d="M1398.33,-491.5C1398.33,-491.5 1252.67,-491.5 1252.67,-491.5 1248.83,-491.5 1245,-487.667 1245,-483.833 1245,-483.833 1245,-476.167 1245,-476.167 1245,-472.333 1248.83,-468.5 1252.67,-468.5 1252.67,-468.5 1398.33,-468.5 1398.33,-468.5 1402.17,-468.5 1406,-472.333 1406,-476.167 1406,-476.167 1406,-483.833 1406,-483.833 1406,-487.667 1402.17,-491.5 1398.33,-491.5"/>
<text text-anchor="middle" x="1325.5" y="-476.3" font-family="Arial" font-size="14.00" fill="#c6c5fe">scenes/charCreation.js</text>
</g>
<!-- scenes/sceneFunctions.js&#45;&gt;scenes/charCreation.js -->
<g id="edge52" class="edge"><title>scenes/sceneFunctions.js&#45;&gt;scenes/charCreation.js</title>
<path fill="none" stroke="#757575" d="M1130.94,-293.501C1165.06,-326.377 1263.24,-420.979 1305.16,-461.365"/>
<polygon fill="#757575" stroke="#757575" points="1302.9,-464.049 1312.53,-468.467 1307.76,-459.008 1302.9,-464.049"/>
</g>
<!-- scenes/menus.js -->
<g id="node34" class="node"><title>scenes/menus.js</title>
<path fill="none" stroke="#c6c5fe" d="M1558.33,-608.5C1558.33,-608.5 1449.67,-608.5 1449.67,-608.5 1445.83,-608.5 1442,-604.667 1442,-600.833 1442,-600.833 1442,-593.167 1442,-593.167 1442,-589.333 1445.83,-585.5 1449.67,-585.5 1449.67,-585.5 1558.33,-585.5 1558.33,-585.5 1562.17,-585.5 1566,-589.333 1566,-593.167 1566,-593.167 1566,-600.833 1566,-600.833 1566,-604.667 1562.17,-608.5 1558.33,-608.5"/>
<text text-anchor="middle" x="1504" y="-593.3" font-family="Arial" font-size="14.00" fill="#c6c5fe">scenes/menus.js</text>
</g>
<!-- scenes/sceneFunctions.js&#45;&gt;scenes/menus.js -->
<g id="edge53" class="edge"><title>scenes/sceneFunctions.js&#45;&gt;scenes/menus.js</title>
<path fill="none" stroke="#757575" d="M1122.62,-293.795C1134.29,-329.898 1174.31,-440.073 1245,-500 1298.8,-545.611 1376.18,-570.856 1432.15,-584.066"/>
<polygon fill="#757575" stroke="#757575" points="1431.46,-587.499 1441.99,-586.317 1433.02,-580.675 1431.46,-587.499"/>
</g>
<!-- scenes/sceneSymbols.js -->
<g id="node35" class="node"><title>scenes/sceneSymbols.js</title>
<path fill="none" stroke="#cfffac" d="M2943.33,-640.5C2943.33,-640.5 2782.67,-640.5 2782.67,-640.5 2778.83,-640.5 2775,-636.667 2775,-632.833 2775,-632.833 2775,-625.167 2775,-625.167 2775,-621.333 2778.83,-617.5 2782.67,-617.5 2782.67,-617.5 2943.33,-617.5 2943.33,-617.5 2947.17,-617.5 2951,-621.333 2951,-625.167 2951,-625.167 2951,-632.833 2951,-632.833 2951,-636.667 2947.17,-640.5 2943.33,-640.5"/>
<text text-anchor="middle" x="2863" y="-625.3" font-family="Arial" font-size="14.00" fill="#cfffac">scenes/sceneSymbols.js</text>
</g>
<!-- scenes/sceneFunctions.js&#45;&gt;scenes/sceneSymbols.js -->
<g id="edge54" class="edge"><title>scenes/sceneFunctions.js&#45;&gt;scenes/sceneSymbols.js</title>
<path fill="none" stroke="#757575" d="M1121.75,-293.702C1131.77,-334.133 1169.7,-469.997 1245,-553 1334.42,-651.567 1369.91,-705 1503,-705 1503,-705 1503,-705 2450,-705 2579.49,-705 2612.55,-695.904 2739,-668 2766.95,-661.833 2797.63,-652.109 2821.36,-643.914"/>
<polygon fill="#757575" stroke="#757575" points="2822.8,-647.12 2831.08,-640.51 2820.48,-640.513 2822.8,-647.12"/>
</g>
<!-- scenes/tests/testing.js -->
<g id="node39" class="node"><title>scenes/tests/testing.js</title>
<path fill="none" stroke="#cfffac" d="M1396.83,-253.5C1396.83,-253.5 1254.17,-253.5 1254.17,-253.5 1250.33,-253.5 1246.5,-249.667 1246.5,-245.833 1246.5,-245.833 1246.5,-238.167 1246.5,-238.167 1246.5,-234.333 1250.33,-230.5 1254.17,-230.5 1254.17,-230.5 1396.83,-230.5 1396.83,-230.5 1400.67,-230.5 1404.5,-234.333 1404.5,-238.167 1404.5,-238.167 1404.5,-245.833 1404.5,-245.833 1404.5,-249.667 1400.67,-253.5 1396.83,-253.5"/>
<text text-anchor="middle" x="1325.5" y="-238.3" font-family="Arial" font-size="14.00" fill="#cfffac">scenes/tests/testing.js</text>
</g>
<!-- scenes/sceneFunctions.js&#45;&gt;scenes/tests/testing.js -->
<g id="edge55" class="edge"><title>scenes/sceneFunctions.js&#45;&gt;scenes/tests/testing.js</title>
<path fill="none" stroke="#757575" d="M1178.16,-270.484C1202.34,-265.777 1230.48,-260.301 1255.58,-255.415"/>
<polygon fill="#757575" stroke="#757575" points="1256.25,-258.85 1265.4,-253.504 1254.91,-251.979 1256.25,-258.85"/>
</g>
<!-- actions/Player.js -->
<g id="node6" class="node"><title>actions/Player.js</title>
<path fill="none" stroke="#c6c5fe" d="M2147.33,-449.5C2147.33,-449.5 2043.67,-449.5 2043.67,-449.5 2039.83,-449.5 2036,-445.667 2036,-441.833 2036,-441.833 2036,-434.167 2036,-434.167 2036,-430.333 2039.83,-426.5 2043.67,-426.5 2043.67,-426.5 2147.33,-426.5 2147.33,-426.5 2151.17,-426.5 2155,-430.333 2155,-434.167 2155,-434.167 2155,-441.833 2155,-441.833 2155,-445.667 2151.17,-449.5 2147.33,-449.5"/>
<text text-anchor="middle" x="2095.5" y="-434.3" font-family="Arial" font-size="14.00" fill="#c6c5fe">actions/Player.js</text>
</g>
<!-- actions/Player.js&#45;&gt;store/store.js -->
<g id="edge5" class="edge"><title>actions/Player.js&#45;&gt;store/store.js</title>
<path fill="none" stroke="#757575" d="M2134.31,-426.485C2141.9,-422.81 2149.28,-418.067 2155,-412 2186.25,-378.835 2158.69,-348.128 2191,-316 2196.21,-310.82 2202.46,-306.588 2209.11,-303.133"/>
<polygon fill="#757575" stroke="#757575" points="2210.73,-306.239 2218.36,-298.887 2207.81,-299.877 2210.73,-306.239"/>
</g>
<!-- actions/playerMsg.js -->
<g id="node7" class="node"><title>actions/playerMsg.js</title>
<path fill="none" stroke="#cfffac" d="M2927.83,-170.5C2927.83,-170.5 2798.17,-170.5 2798.17,-170.5 2794.33,-170.5 2790.5,-166.667 2790.5,-162.833 2790.5,-162.833 2790.5,-155.167 2790.5,-155.167 2790.5,-151.333 2794.33,-147.5 2798.17,-147.5 2798.17,-147.5 2927.83,-147.5 2927.83,-147.5 2931.67,-147.5 2935.5,-151.333 2935.5,-155.167 2935.5,-155.167 2935.5,-162.833 2935.5,-162.833 2935.5,-166.667 2931.67,-170.5 2927.83,-170.5"/>
<text text-anchor="middle" x="2863" y="-155.3" font-family="Arial" font-size="14.00" fill="#cfffac">actions/playerMsg.js</text>
</g>
<!-- actions/Player.js&#45;&gt;actions/playerMsg.js -->
<g id="edge4" class="edge"><title>actions/Player.js&#45;&gt;actions/playerMsg.js</title>
<path fill="none" stroke="#757575" d="M2155.33,-430.078C2272.12,-412.591 2539.2,-363.736 2739,-260 2780.9,-238.247 2821.66,-200.542 2844.14,-177.867"/>
<polygon fill="#757575" stroke="#757575" points="2846.82,-180.127 2851.3,-170.524 2841.81,-175.24 2846.82,-180.127"/>
</g>
<!-- symbols/breastCup.js -->
<g id="node8" class="node"><title>symbols/breastCup.js</title>
<path fill="none" stroke="#c6c5fe" d="M2337.33,-348.5C2337.33,-348.5 2198.67,-348.5 2198.67,-348.5 2194.83,-348.5 2191,-344.667 2191,-340.833 2191,-340.833 2191,-333.167 2191,-333.167 2191,-329.333 2194.83,-325.5 2198.67,-325.5 2198.67,-325.5 2337.33,-325.5 2337.33,-325.5 2341.17,-325.5 2345,-329.333 2345,-333.167 2345,-333.167 2345,-340.833 2345,-340.833 2345,-344.667 2341.17,-348.5 2337.33,-348.5"/>
<text text-anchor="middle" x="2268" y="-333.3" font-family="Arial" font-size="14.00" fill="#c6c5fe">symbols/breastCup.js</text>
</g>
<!-- actions/Player.js&#45;&gt;symbols/breastCup.js -->
<g id="edge6" class="edge"><title>actions/Player.js&#45;&gt;symbols/breastCup.js</title>
<path fill="none" stroke="#757575" d="M2130.39,-426.488C2138.93,-422.665 2147.73,-417.854 2155,-412 2176.05,-395.056 2169.22,-378.995 2191,-363 2196.51,-358.952 2202.7,-355.5 2209.11,-352.566"/>
<polygon fill="#757575" stroke="#757575" points="2210.7,-355.694 2218.59,-348.626 2208.02,-349.229 2210.7,-355.694"/>
</g>
<!-- symbols/cockType.js -->
<g id="node9" class="node"><title>symbols/cockType.js</title>
<path fill="none" stroke="#cfffac" d="M2335.33,-486.5C2335.33,-486.5 2200.67,-486.5 2200.67,-486.5 2196.83,-486.5 2193,-482.667 2193,-478.833 2193,-478.833 2193,-471.167 2193,-471.167 2193,-467.333 2196.83,-463.5 2200.67,-463.5 2200.67,-463.5 2335.33,-463.5 2335.33,-463.5 2339.17,-463.5 2343,-467.333 2343,-471.167 2343,-471.167 2343,-478.833 2343,-478.833 2343,-482.667 2339.17,-486.5 2335.33,-486.5"/>
<text text-anchor="middle" x="2268" y="-471.3" font-family="Arial" font-size="14.00" fill="#cfffac">symbols/cockType.js</text>
</g>
<!-- actions/Player.js&#45;&gt;symbols/cockType.js -->
<g id="edge7" class="edge"><title>actions/Player.js&#45;&gt;symbols/cockType.js</title>
<path fill="none" stroke="#757575" d="M2149.51,-449.504C2166.75,-453.245 2186.05,-457.434 2203.95,-461.318"/>
<polygon fill="#757575" stroke="#757575" points="2203.21,-464.739 2213.73,-463.439 2204.7,-457.898 2203.21,-464.739"/>
</g>
<!-- symbols/vaginas.js -->
<g id="node10" class="node"><title>symbols/vaginas.js</title>
<path fill="none" stroke="#c6c5fe" d="M2509.33,-466.5C2509.33,-466.5 2388.67,-466.5 2388.67,-466.5 2384.83,-466.5 2381,-462.667 2381,-458.833 2381,-458.833 2381,-451.167 2381,-451.167 2381,-447.333 2384.83,-443.5 2388.67,-443.5 2388.67,-443.5 2509.33,-443.5 2509.33,-443.5 2513.17,-443.5 2517,-447.333 2517,-451.167 2517,-451.167 2517,-458.833 2517,-458.833 2517,-462.667 2513.17,-466.5 2509.33,-466.5"/>
<text text-anchor="middle" x="2449" y="-451.3" font-family="Arial" font-size="14.00" fill="#c6c5fe">symbols/vaginas.js</text>
</g>
<!-- actions/Player.js&#45;&gt;symbols/vaginas.js -->
<g id="edge8" class="edge"><title>actions/Player.js&#45;&gt;symbols/vaginas.js</title>
<path fill="none" stroke="#757575" d="M2155.33,-440.845C2214.42,-443.703 2305.77,-448.121 2370.68,-451.261"/>
<polygon fill="#757575" stroke="#757575" points="2370.71,-454.766 2380.86,-451.753 2371.04,-447.774 2370.71,-454.766"/>
</g>
<!-- utils.js -->
<g id="node31" class="node"><title>utils.js</title>
<path fill="none" stroke="#cfffac" d="M2883.33,-387.5C2883.33,-387.5 2842.67,-387.5 2842.67,-387.5 2838.83,-387.5 2835,-383.667 2835,-379.833 2835,-379.833 2835,-372.167 2835,-372.167 2835,-368.333 2838.83,-364.5 2842.67,-364.5 2842.67,-364.5 2883.33,-364.5 2883.33,-364.5 2887.17,-364.5 2891,-368.333 2891,-372.167 2891,-372.167 2891,-379.833 2891,-379.833 2891,-383.667 2887.17,-387.5 2883.33,-387.5"/>
<text text-anchor="middle" x="2863" y="-372.3" font-family="Arial" font-size="14.00" fill="#cfffac">utils.js</text>
</g>
<!-- symbols/breastCup.js&#45;&gt;utils.js -->
<g id="edge61" class="edge"><title>symbols/breastCup.js&#45;&gt;utils.js</title>
<path fill="none" stroke="#757575" d="M2345.01,-341.999C2473.48,-350.448 2728.94,-367.249 2824.64,-373.543"/>
<polygon fill="#757575" stroke="#757575" points="2824.51,-377.042 2834.72,-374.206 2824.97,-370.057 2824.51,-377.042"/>
</g>
<!-- symbols/vaginas.js&#45;&gt;utils.js -->
<g id="edge64" class="edge"><title>symbols/vaginas.js&#45;&gt;utils.js</title>
<path fill="none" stroke="#757575" d="M2517.28,-466.451C2576.89,-474.036 2665.58,-479.002 2739,-457 2779.57,-444.84 2819.14,-414.5 2842.02,-394.6"/>
<polygon fill="#757575" stroke="#757575" points="2844.52,-397.059 2849.66,-387.794 2839.86,-391.831 2844.52,-397.059"/>
</g>
<!-- actions/engineMsg.js -->
<g id="node11" class="node"><title>actions/engineMsg.js</title>
<path fill="none" stroke="#cfffac" d="M2712.83,-169.5C2712.83,-169.5 2579.17,-169.5 2579.17,-169.5 2575.33,-169.5 2571.5,-165.667 2571.5,-161.833 2571.5,-161.833 2571.5,-154.167 2571.5,-154.167 2571.5,-150.333 2575.33,-146.5 2579.17,-146.5 2579.17,-146.5 2712.83,-146.5 2712.83,-146.5 2716.67,-146.5 2720.5,-150.333 2720.5,-154.167 2720.5,-154.167 2720.5,-161.833 2720.5,-161.833 2720.5,-165.667 2716.67,-169.5 2712.83,-169.5"/>
<text text-anchor="middle" x="2646" y="-154.3" font-family="Arial" font-size="14.00" fill="#cfffac">actions/engineMsg.js</text>
</g>
<!-- components/appRoot.js -->
<g id="node12" class="node"><title>components/appRoot.js</title>
<path fill="none" stroke="#c6c5fe" d="M298.333,-170.5C298.333,-170.5 145.667,-170.5 145.667,-170.5 141.833,-170.5 138,-166.667 138,-162.833 138,-162.833 138,-155.167 138,-155.167 138,-151.333 141.833,-147.5 145.667,-147.5 145.667,-147.5 298.333,-147.5 298.333,-147.5 302.167,-147.5 306,-151.333 306,-155.167 306,-155.167 306,-162.833 306,-162.833 306,-166.667 302.167,-170.5 298.333,-170.5"/>
<text text-anchor="middle" x="222" y="-155.3" font-family="Arial" font-size="14.00" fill="#c6c5fe">components/appRoot.js</text>
</g>
<!-- components/lowerButtons.js -->
<g id="node13" class="node"><title>components/lowerButtons.js</title>
<path fill="none" stroke="#c6c5fe" d="M529.333,-170.5C529.333,-170.5 349.667,-170.5 349.667,-170.5 345.833,-170.5 342,-166.667 342,-162.833 342,-162.833 342,-155.167 342,-155.167 342,-151.333 345.833,-147.5 349.667,-147.5 349.667,-147.5 529.333,-147.5 529.333,-147.5 533.167,-147.5 537,-151.333 537,-155.167 537,-155.167 537,-162.833 537,-162.833 537,-166.667 533.167,-170.5 529.333,-170.5"/>
<text text-anchor="middle" x="439.5" y="-155.3" font-family="Arial" font-size="14.00" fill="#c6c5fe">components/lowerButtons.js</text>
</g>
<!-- components/appRoot.js&#45;&gt;components/lowerButtons.js -->
<g id="edge9" class="edge"><title>components/appRoot.js&#45;&gt;components/lowerButtons.js</title>
<path fill="none" stroke="#757575" d="M306.01,-159C314.447,-159 323.097,-159 331.74,-159"/>
<polygon fill="#757575" stroke="#757575" points="331.868,-162.5 341.868,-159 331.868,-155.5 331.868,-162.5"/>
</g>
<!-- components/menuBar.js -->
<g id="node14" class="node"><title>components/menuBar.js</title>
<path fill="none" stroke="#c6c5fe" d="M516.833,-252.5C516.833,-252.5 362.167,-252.5 362.167,-252.5 358.333,-252.5 354.5,-248.667 354.5,-244.833 354.5,-244.833 354.5,-237.167 354.5,-237.167 354.5,-233.333 358.333,-229.5 362.167,-229.5 362.167,-229.5 516.833,-229.5 516.833,-229.5 520.667,-229.5 524.5,-233.333 524.5,-237.167 524.5,-237.167 524.5,-244.833 524.5,-244.833 524.5,-248.667 520.667,-252.5 516.833,-252.5"/>
<text text-anchor="middle" x="439.5" y="-237.3" font-family="Arial" font-size="14.00" fill="#c6c5fe">components/menuBar.js</text>
</g>
<!-- components/appRoot.js&#45;&gt;components/menuBar.js -->
<g id="edge10" class="edge"><title>components/appRoot.js&#45;&gt;components/menuBar.js</title>
<path fill="none" stroke="#757575" d="M241.687,-170.521C264.56,-184.158 304.845,-206.69 342,-220 349.207,-222.582 356.835,-224.901 364.519,-226.972"/>
<polygon fill="#757575" stroke="#757575" points="363.698,-230.375 374.253,-229.463 365.433,-223.594 363.698,-230.375"/>
</g>
<!-- components/output.js -->
<g id="node15" class="node"><title>components/output.js</title>
<path fill="none" stroke="#cfffac" d="M507.833,-211.5C507.833,-211.5 371.167,-211.5 371.167,-211.5 367.333,-211.5 363.5,-207.667 363.5,-203.833 363.5,-203.833 363.5,-196.167 363.5,-196.167 363.5,-192.333 367.333,-188.5 371.167,-188.5 371.167,-188.5 507.833,-188.5 507.833,-188.5 511.667,-188.5 515.5,-192.333 515.5,-196.167 515.5,-196.167 515.5,-203.833 515.5,-203.833 515.5,-207.667 511.667,-211.5 507.833,-211.5"/>
<text text-anchor="middle" x="439.5" y="-196.3" font-family="Arial" font-size="14.00" fill="#cfffac">components/output.js</text>
</g>
<!-- components/appRoot.js&#45;&gt;components/output.js -->
<g id="edge11" class="edge"><title>components/appRoot.js&#45;&gt;components/output.js</title>
<path fill="none" stroke="#757575" d="M283.602,-170.53C309.88,-175.529 340.817,-181.415 368.106,-186.607"/>
<polygon fill="#757575" stroke="#757575" points="367.502,-190.055 377.98,-188.486 368.81,-183.178 367.502,-190.055"/>
</g>
<!-- components/statBar.js -->
<g id="node16" class="node"><title>components/statBar.js</title>
<path fill="none" stroke="#c6c5fe" d="M510.833,-129.5C510.833,-129.5 368.167,-129.5 368.167,-129.5 364.333,-129.5 360.5,-125.667 360.5,-121.833 360.5,-121.833 360.5,-114.167 360.5,-114.167 360.5,-110.333 364.333,-106.5 368.167,-106.5 368.167,-106.5 510.833,-106.5 510.833,-106.5 514.667,-106.5 518.5,-110.333 518.5,-114.167 518.5,-114.167 518.5,-121.833 518.5,-121.833 518.5,-125.667 514.667,-129.5 510.833,-129.5"/>
<text text-anchor="middle" x="439.5" y="-114.3" font-family="Arial" font-size="14.00" fill="#c6c5fe">components/statBar.js</text>
</g>
<!-- components/appRoot.js&#45;&gt;components/statBar.js -->
<g id="edge12" class="edge"><title>components/appRoot.js&#45;&gt;components/statBar.js</title>
<path fill="none" stroke="#757575" d="M283.602,-147.47C309.88,-142.471 340.817,-136.585 368.106,-131.393"/>
<polygon fill="#757575" stroke="#757575" points="368.81,-134.822 377.98,-129.514 367.502,-127.945 368.81,-134.822"/>
</g>
<!-- components/buttonGrid.js -->
<g id="node18" class="node"><title>components/buttonGrid.js</title>
<path fill="none" stroke="#c6c5fe" d="M752.333,-252.5C752.333,-252.5 588.667,-252.5 588.667,-252.5 584.833,-252.5 581,-248.667 581,-244.833 581,-244.833 581,-237.167 581,-237.167 581,-233.333 584.833,-229.5 588.667,-229.5 588.667,-229.5 752.333,-229.5 752.333,-229.5 756.167,-229.5 760,-233.333 760,-237.167 760,-237.167 760,-244.833 760,-244.833 760,-248.667 756.167,-252.5 752.333,-252.5"/>
<text text-anchor="middle" x="670.5" y="-237.3" font-family="Arial" font-size="14.00" fill="#c6c5fe">components/buttonGrid.js</text>
</g>
<!-- components/lowerButtons.js&#45;&gt;components/buttonGrid.js -->
<g id="edge16" class="edge"><title>components/lowerButtons.js&#45;&gt;components/buttonGrid.js</title>
<path fill="none" stroke="#757575" d="M506.452,-170.523C516.783,-172.942 527.259,-175.761 537,-179 573.489,-191.133 613.164,-210.601 639.492,-224.484"/>
<polygon fill="#757575" stroke="#757575" points="638.088,-227.702 648.558,-229.322 641.384,-221.526 638.088,-227.702"/>
</g>
<!-- components/menuBar.js&#45;&gt;components/buttonGrid.js -->
<g id="edge17" class="edge"><title>components/menuBar.js&#45;&gt;components/buttonGrid.js</title>
<path fill="none" stroke="#757575" d="M524.796,-241C539.613,-241 555.157,-241 570.335,-241"/>
<polygon fill="#757575" stroke="#757575" points="570.771,-244.5 580.771,-241 570.771,-237.5 570.771,-244.5"/>
</g>
<!-- components/spriteDisplay.js -->
<g id="node21" class="node"><title>components/spriteDisplay.js</title>
<path fill="none" stroke="#cfffac" d="M760.333,-130.5C760.333,-130.5 580.667,-130.5 580.667,-130.5 576.833,-130.5 573,-126.667 573,-122.833 573,-122.833 573,-115.167 573,-115.167 573,-111.333 576.833,-107.5 580.667,-107.5 580.667,-107.5 760.333,-107.5 760.333,-107.5 764.167,-107.5 768,-111.333 768,-115.167 768,-115.167 768,-122.833 768,-122.833 768,-126.667 764.167,-130.5 760.333,-130.5"/>
<text text-anchor="middle" x="670.5" y="-115.3" font-family="Arial" font-size="14.00" fill="#cfffac">components/spriteDisplay.js</text>
</g>
<!-- components/statBar.js&#45;&gt;components/spriteDisplay.js -->
<g id="edge20" class="edge"><title>components/statBar.js&#45;&gt;components/spriteDisplay.js</title>
<path fill="none" stroke="#757575" d="M518.668,-118.341C532.775,-118.403 547.703,-118.468 562.464,-118.533"/>
<polygon fill="#757575" stroke="#757575" points="562.63,-122.033 572.645,-118.577 562.661,-115.033 562.63,-122.033"/>
</g>
<!-- components/statDisplay.js -->
<g id="node23" class="node"><title>components/statDisplay.js</title>
<path fill="none" stroke="#c6c5fe" d="M753.833,-89.5C753.833,-89.5 587.167,-89.5 587.167,-89.5 583.333,-89.5 579.5,-85.6667 579.5,-81.8333 579.5,-81.8333 579.5,-74.1667 579.5,-74.1667 579.5,-70.3333 583.333,-66.5 587.167,-66.5 587.167,-66.5 753.833,-66.5 753.833,-66.5 757.667,-66.5 761.5,-70.3333 761.5,-74.1667 761.5,-74.1667 761.5,-81.8333 761.5,-81.8333 761.5,-85.6667 757.667,-89.5 753.833,-89.5"/>
<text text-anchor="middle" x="670.5" y="-74.3" font-family="Arial" font-size="14.00" fill="#c6c5fe">components/statDisplay.js</text>
</g>
<!-- components/statBar.js&#45;&gt;components/statDisplay.js -->
<g id="edge21" class="edge"><title>components/statBar.js&#45;&gt;components/statDisplay.js</title>
<path fill="none" stroke="#757575" d="M506.429,-106.484C533.613,-101.736 565.281,-96.2043 593.439,-91.2857"/>
<polygon fill="#757575" stroke="#757575" points="594.391,-94.6725 603.64,-89.5039 593.187,-87.7769 594.391,-94.6725"/>
</g>
<!-- components/timeDisplay.js -->
<g id="node24" class="node"><title>components/timeDisplay.js</title>
<path fill="none" stroke="#cfffac" d="M756.333,-171.5C756.333,-171.5 584.667,-171.5 584.667,-171.5 580.833,-171.5 577,-167.667 577,-163.833 577,-163.833 577,-156.167 577,-156.167 577,-152.333 580.833,-148.5 584.667,-148.5 584.667,-148.5 756.333,-148.5 756.333,-148.5 760.167,-148.5 764,-152.333 764,-156.167 764,-156.167 764,-163.833 764,-163.833 764,-167.667 760.167,-171.5 756.333,-171.5"/>
<text text-anchor="middle" x="670.5" y="-156.3" font-family="Arial" font-size="14.00" fill="#cfffac">components/timeDisplay.js</text>
</g>
<!-- components/statBar.js&#45;&gt;components/timeDisplay.js -->
<g id="edge22" class="edge"><title>components/statBar.js&#45;&gt;components/timeDisplay.js</title>
<path fill="none" stroke="#757575" d="M503.378,-129.532C532.286,-134.834 566.745,-141.154 596.766,-146.66"/>
<polygon fill="#757575" stroke="#757575" points="596.295,-150.132 606.762,-148.493 597.558,-143.247 596.295,-150.132"/>
</g>
<!-- components/button.js -->
<g id="node17" class="node"><title>components/button.js</title>
<path fill="none" stroke="#cfffac" d="M1186.33,-252.5C1186.33,-252.5 1049.67,-252.5 1049.67,-252.5 1045.83,-252.5 1042,-248.667 1042,-244.833 1042,-244.833 1042,-237.167 1042,-237.167 1042,-233.333 1045.83,-229.5 1049.67,-229.5 1049.67,-229.5 1186.33,-229.5 1186.33,-229.5 1190.17,-229.5 1194,-233.333 1194,-237.167 1194,-237.167 1194,-244.833 1194,-244.833 1194,-248.667 1190.17,-252.5 1186.33,-252.5"/>
<text text-anchor="middle" x="1118" y="-237.3" font-family="Arial" font-size="14.00" fill="#cfffac">components/button.js</text>
</g>
<!-- components/buttonGrid.js&#45;&gt;actions/Engine.js -->
<g id="edge13" class="edge"><title>components/buttonGrid.js&#45;&gt;actions/Engine.js</title>
<path fill="none" stroke="#757575" d="M734.774,-252.53C762.911,-257.657 796.166,-263.717 825.181,-269.004"/>
<polygon fill="#757575" stroke="#757575" points="824.787,-272.49 835.252,-270.839 826.042,-265.603 824.787,-272.49"/>
</g>
<!-- components/buttonWrap.js -->
<g id="node19" class="node"><title>components/buttonWrap.js</title>
<path fill="none" stroke="#c6c5fe" d="M983.333,-252.5C983.333,-252.5 811.667,-252.5 811.667,-252.5 807.833,-252.5 804,-248.667 804,-244.833 804,-244.833 804,-237.167 804,-237.167 804,-233.333 807.833,-229.5 811.667,-229.5 811.667,-229.5 983.333,-229.5 983.333,-229.5 987.167,-229.5 991,-233.333 991,-237.167 991,-237.167 991,-244.833 991,-244.833 991,-248.667 987.167,-252.5 983.333,-252.5"/>
<text text-anchor="middle" x="897.5" y="-237.3" font-family="Arial" font-size="14.00" fill="#c6c5fe">components/buttonWrap.js</text>
</g>
<!-- components/buttonGrid.js&#45;&gt;components/buttonWrap.js -->
<g id="edge14" class="edge"><title>components/buttonGrid.js&#45;&gt;components/buttonWrap.js</title>
<path fill="none" stroke="#757575" d="M760.103,-241C771.119,-241 782.455,-241 793.663,-241"/>
<polygon fill="#757575" stroke="#757575" points="793.906,-244.5 803.906,-241 793.906,-237.5 793.906,-244.5"/>
</g>
<!-- components/buttonWrap.js&#45;&gt;components/button.js -->
<g id="edge15" class="edge"><title>components/buttonWrap.js&#45;&gt;components/button.js</title>
<path fill="none" stroke="#757575" d="M991.164,-241C1004.6,-241 1018.39,-241 1031.67,-241"/>
<polygon fill="#757575" stroke="#757575" points="1031.72,-244.5 1041.72,-241 1031.72,-237.5 1031.72,-244.5"/>
</g>
<!-- components/nameInput.js -->
<g id="node20" class="node"><title>components/nameInput.js</title>
<path fill="none" stroke="#c6c5fe" d="M1992.33,-450.5C1992.33,-450.5 1827.67,-450.5 1827.67,-450.5 1823.83,-450.5 1820,-446.667 1820,-442.833 1820,-442.833 1820,-435.167 1820,-435.167 1820,-431.333 1823.83,-427.5 1827.67,-427.5 1827.67,-427.5 1992.33,-427.5 1992.33,-427.5 1996.17,-427.5 2000,-431.333 2000,-435.167 2000,-435.167 2000,-442.833 2000,-442.833 2000,-446.667 1996.17,-450.5 1992.33,-450.5"/>
<text text-anchor="middle" x="1910" y="-435.3" font-family="Arial" font-size="14.00" fill="#c6c5fe">components/nameInput.js</text>
</g>
<!-- components/nameInput.js&#45;&gt;store/store.js -->
<g id="edge19" class="edge"><title>components/nameInput.js&#45;&gt;store/store.js</title>
<path fill="none" stroke="#757575" d="M1939.41,-427.394C1985.16,-408.568 2077.84,-369.857 2155,-334 2171.22,-326.461 2174.58,-323.103 2191,-316 2201.37,-311.512 2212.73,-307.081 2223.42,-303.114"/>
<polygon fill="#757575" stroke="#757575" points="2224.82,-306.331 2233.01,-299.614 2222.42,-299.755 2224.82,-306.331"/>
</g>
<!-- components/nameInput.js&#45;&gt;actions/Player.js -->
<g id="edge18" class="edge"><title>components/nameInput.js&#45;&gt;actions/Player.js</title>
<path fill="none" stroke="#757575" d="M2000.06,-438.515C2008.7,-438.468 2017.36,-438.42 2025.75,-438.375"/>
<polygon fill="#757575" stroke="#757575" points="2025.85,-441.874 2035.83,-438.32 2025.81,-434.874 2025.85,-441.874"/>
</g>
<!-- components/stat.js -->
<g id="node22" class="node"><title>components/stat.js</title>
<path fill="none" stroke="#cfffac" d="M957.833,-89.5C957.833,-89.5 837.167,-89.5 837.167,-89.5 833.333,-89.5 829.5,-85.6667 829.5,-81.8333 829.5,-81.8333 829.5,-74.1667 829.5,-74.1667 829.5,-70.3333 833.333,-66.5 837.167,-66.5 837.167,-66.5 957.833,-66.5 957.833,-66.5 961.667,-66.5 965.5,-70.3333 965.5,-74.1667 965.5,-74.1667 965.5,-81.8333 965.5,-81.8333 965.5,-85.6667 961.667,-89.5 957.833,-89.5"/>
<text text-anchor="middle" x="897.5" y="-74.3" font-family="Arial" font-size="14.00" fill="#cfffac">components/stat.js</text>
</g>
<!-- components/statDisplay.js&#45;&gt;components/stat.js -->
<g id="edge23" class="edge"><title>components/statDisplay.js&#45;&gt;components/stat.js</title>
<path fill="none" stroke="#757575" d="M761.72,-78C780.804,-78 800.779,-78 819.327,-78"/>
<polygon fill="#757575" stroke="#757575" points="819.471,-81.5001 829.471,-78 819.471,-74.5001 819.471,-81.5001"/>
</g>
<!-- index.js -->
<g id="node25" class="node"><title>index.js</title>
<path fill="none" stroke="#c6c5fe" d="M75.8333,-109.5C75.8333,-109.5 26.1667,-109.5 26.1667,-109.5 22.3333,-109.5 18.5,-105.667 18.5,-101.833 18.5,-101.833 18.5,-94.1667 18.5,-94.1667 18.5,-90.3333 22.3333,-86.5 26.1667,-86.5 26.1667,-86.5 75.8333,-86.5 75.8333,-86.5 79.6667,-86.5 83.5,-90.3333 83.5,-94.1667 83.5,-94.1667 83.5,-101.833 83.5,-101.833 83.5,-105.667 79.6667,-109.5 75.8333,-109.5"/>
<text text-anchor="middle" x="51" y="-94.3" font-family="Arial" font-size="14.00" fill="#c6c5fe">index.js</text>
</g>
<!-- index.js&#45;&gt;store/store.js -->
<g id="edge25" class="edge"><title>index.js&#45;&gt;store/store.js</title>
<path fill="none" stroke="#757575" d="M83.8082,-89.6573C149.554,-73.1709 305.407,-38 438.5,-38 438.5,-38 438.5,-38 1911,-38 2070.83,-38 2209.7,-208.859 2253.03,-268.078"/>
<polygon fill="#757575" stroke="#757575" points="2250.25,-270.21 2258.94,-276.277 2255.93,-266.118 2250.25,-270.21"/>
</g>
<!-- index.js&#45;&gt;components/appRoot.js -->
<g id="edge24" class="edge"><title>index.js&#45;&gt;components/appRoot.js</title>
<path fill="none" stroke="#757575" d="M83.7876,-109.474C110.848,-119.241 149.916,-133.342 179.449,-144.002"/>
<polygon fill="#757575" stroke="#757575" points="178.474,-147.371 189.068,-147.474 180.85,-140.787 178.474,-147.371"/>
</g>
<!-- reducers/root.js&#45;&gt;actions/coreMsg.js -->
<g id="edge26" class="edge"><title>reducers/root.js&#45;&gt;actions/coreMsg.js</title>
<path fill="none" stroke="#757575" d="M2454.45,-187.089C2465.8,-158.615 2498.81,-86.7667 2553,-57 2624.32,-17.8209 2719.36,-18.338 2785.12,-25.3013"/>
<polygon fill="#757575" stroke="#757575" points="2785.08,-28.8195 2795.41,-26.4692 2785.87,-21.8642 2785.08,-28.8195"/>
</g>
<!-- reducers/root.js&#45;&gt;actions/playerMsg.js -->
<g id="edge28" class="edge"><title>reducers/root.js&#45;&gt;actions/playerMsg.js</title>
<path fill="none" stroke="#757575" d="M2463.84,-187.243C2482.6,-172.158 2517.81,-146.775 2553,-137 2641.36,-112.459 2749.09,-130.368 2811.2,-145.067"/>
<polygon fill="#757575" stroke="#757575" points="2810.59,-148.521 2821.13,-147.484 2812.24,-141.72 2810.59,-148.521"/>
</g>
<!-- reducers/root.js&#45;&gt;actions/engineMsg.js -->
<g id="edge27" class="edge"><title>reducers/root.js&#45;&gt;actions/engineMsg.js</title>
<path fill="none" stroke="#757575" d="M2504.84,-187.47C2528.3,-182.536 2555.87,-176.739 2580.33,-171.598"/>
<polygon fill="#757575" stroke="#757575" points="2581.17,-174.997 2590.24,-169.514 2579.73,-168.147 2581.17,-174.997"/>
</g>
<!-- reducers/updateBodyArr.js -->
<g id="node27" class="node"><title>reducers/updateBodyArr.js</title>
<path fill="none" stroke="#c6c5fe" d="M2731.33,-210.5C2731.33,-210.5 2560.67,-210.5 2560.67,-210.5 2556.83,-210.5 2553,-206.667 2553,-202.833 2553,-202.833 2553,-195.167 2553,-195.167 2553,-191.333 2556.83,-187.5 2560.67,-187.5 2560.67,-187.5 2731.33,-187.5 2731.33,-187.5 2735.17,-187.5 2739,-191.333 2739,-195.167 2739,-195.167 2739,-202.833 2739,-202.833 2739,-206.667 2735.17,-210.5 2731.33,-210.5"/>
<text text-anchor="middle" x="2646" y="-195.3" font-family="Arial" font-size="14.00" fill="#c6c5fe">reducers/updateBodyArr.js</text>
</g>
<!-- reducers/root.js&#45;&gt;reducers/updateBodyArr.js -->
<g id="edge29" class="edge"><title>reducers/root.js&#45;&gt;reducers/updateBodyArr.js</title>
<path fill="none" stroke="#757575" d="M2507.19,-199C2518.43,-199 2530.53,-199 2542.74,-199"/>
<polygon fill="#757575" stroke="#757575" points="2543,-202.5 2553,-199 2543,-195.5 2543,-202.5"/>
</g>
<!-- reducers/updateStats.js -->
<g id="node28" class="node"><title>reducers/updateStats.js</title>
<path fill="none" stroke="#c6c5fe" d="M2721.83,-89.5C2721.83,-89.5 2570.17,-89.5 2570.17,-89.5 2566.33,-89.5 2562.5,-85.6667 2562.5,-81.8333 2562.5,-81.8333 2562.5,-74.1667 2562.5,-74.1667 2562.5,-70.3333 2566.33,-66.5 2570.17,-66.5 2570.17,-66.5 2721.83,-66.5 2721.83,-66.5 2725.67,-66.5 2729.5,-70.3333 2729.5,-74.1667 2729.5,-74.1667 2729.5,-81.8333 2729.5,-81.8333 2729.5,-85.6667 2725.67,-89.5 2721.83,-89.5"/>
<text text-anchor="middle" x="2646" y="-74.3" font-family="Arial" font-size="14.00" fill="#c6c5fe">reducers/updateStats.js</text>
</g>
<!-- reducers/root.js&#45;&gt;reducers/updateStats.js -->
<g id="edge30" class="edge"><title>reducers/root.js&#45;&gt;reducers/updateStats.js</title>
<path fill="none" stroke="#757575" d="M2459.23,-187.499C2475.86,-167.534 2512.88,-126.454 2553,-104 2560.87,-99.595 2569.55,-95.8885 2578.33,-92.7825"/>
<polygon fill="#757575" stroke="#757575" points="2579.46,-96.0937 2587.87,-89.6432 2577.28,-89.4444 2579.46,-96.0937"/>
</g>
<!-- reducers/updateTime.js -->
<g id="node29" class="node"><title>reducers/updateTime.js</title>
<path fill="none" stroke="#c6c5fe" d="M2721.83,-251.5C2721.83,-251.5 2570.17,-251.5 2570.17,-251.5 2566.33,-251.5 2562.5,-247.667 2562.5,-243.833 2562.5,-243.833 2562.5,-236.167 2562.5,-236.167 2562.5,-232.333 2566.33,-228.5 2570.17,-228.5 2570.17,-228.5 2721.83,-228.5 2721.83,-228.5 2725.67,-228.5 2729.5,-232.333 2729.5,-236.167 2729.5,-236.167 2729.5,-243.833 2729.5,-243.833 2729.5,-247.667 2725.67,-251.5 2721.83,-251.5"/>
<text text-anchor="middle" x="2646" y="-236.3" font-family="Arial" font-size="14.00" fill="#c6c5fe">reducers/updateTime.js</text>
</g>
<!-- reducers/root.js&#45;&gt;reducers/updateTime.js -->
<g id="edge31" class="edge"><title>reducers/root.js&#45;&gt;reducers/updateTime.js</title>
<path fill="none" stroke="#757575" d="M2504.84,-210.53C2528.3,-215.464 2555.87,-221.261 2580.33,-226.402"/>
<polygon fill="#757575" stroke="#757575" points="2579.73,-229.853 2590.24,-228.486 2581.17,-223.003 2579.73,-229.853"/>
</g>
<!-- store/initialState.js -->
<g id="node30" class="node"><title>store/initialState.js</title>
<path fill="none" stroke="#c6c5fe" d="M2703.83,-448.5C2703.83,-448.5 2588.17,-448.5 2588.17,-448.5 2584.33,-448.5 2580.5,-444.667 2580.5,-440.833 2580.5,-440.833 2580.5,-433.167 2580.5,-433.167 2580.5,-429.333 2584.33,-425.5 2588.17,-425.5 2588.17,-425.5 2703.83,-425.5 2703.83,-425.5 2707.67,-425.5 2711.5,-429.333 2711.5,-433.167 2711.5,-433.167 2711.5,-440.833 2711.5,-440.833 2711.5,-444.667 2707.67,-448.5 2703.83,-448.5"/>
<text text-anchor="middle" x="2646" y="-433.3" font-family="Arial" font-size="14.00" fill="#c6c5fe">store/initialState.js</text>
</g>
<!-- reducers/root.js&#45;&gt;store/initialState.js -->
<g id="edge32" class="edge"><title>reducers/root.js&#45;&gt;store/initialState.js</title>
<path fill="none" stroke="#757575" d="M2451.88,-210.606C2458.42,-247.105 2483.71,-360.422 2553,-416 2558.32,-420.27 2564.35,-423.707 2570.71,-426.468"/>
<polygon fill="#757575" stroke="#757575" points="2569.63,-429.802 2580.23,-430.048 2572.1,-423.25 2569.63,-429.802"/>
</g>
<!-- reducers/root.js&#45;&gt;utils.js -->
<g id="edge33" class="edge"><title>reducers/root.js&#45;&gt;utils.js</title>
<path fill="none" stroke="#757575" d="M2467.34,-210.553C2487.41,-223.612 2521.7,-245 2553,-260 2648.25,-305.65 2766.54,-345.703 2825.31,-364.55"/>
<polygon fill="#757575" stroke="#757575" points="2824.3,-367.903 2834.89,-367.606 2826.43,-361.234 2824.3,-367.903"/>
</g>
<!-- reducers/updateBodyArr.js&#45;&gt;actions/playerMsg.js -->
<g id="edge34" class="edge"><title>reducers/updateBodyArr.js&#45;&gt;actions/playerMsg.js</title>
<path fill="none" stroke="#757575" d="M2708.9,-187.484C2734.31,-182.757 2763.89,-177.253 2790.24,-172.35"/>
<polygon fill="#757575" stroke="#757575" points="2790.98,-175.774 2800.17,-170.504 2789.69,-168.892 2790.98,-175.774"/>
</g>
<!-- reducers/updateStats.js&#45;&gt;actions/coreMsg.js -->
<g id="edge36" class="edge"><title>reducers/updateStats.js&#45;&gt;actions/coreMsg.js</title>
<path fill="none" stroke="#757575" d="M2708.9,-66.484C2734.31,-61.7566 2763.89,-56.2528 2790.24,-51.3505"/>
<polygon fill="#757575" stroke="#757575" points="2790.98,-54.7741 2800.17,-49.5039 2789.69,-47.8922 2790.98,-54.7741"/>
</g>
<!-- reducers/updateStats.js&#45;&gt;actions/playerMsg.js -->
<g id="edge37" class="edge"><title>reducers/updateStats.js&#45;&gt;actions/playerMsg.js</title>
<path fill="none" stroke="#757575" d="M2692.81,-89.5364C2707.69,-93.6569 2724.18,-98.6235 2739,-104 2770.45,-115.407 2805.15,-131.234 2829.65,-142.983"/>
<polygon fill="#757575" stroke="#757575" points="2828.31,-146.223 2838.84,-147.426 2831.36,-139.921 2828.31,-146.223"/>
</g>
<!-- reducers/updateStats.js&#45;&gt;utils.js -->
<g id="edge38" class="edge"><title>reducers/updateStats.js&#45;&gt;utils.js</title>
<path fill="none" stroke="#757575" d="M2672.22,-89.5486C2692.31,-99.7498 2720.11,-116.223 2739,-137 2800.91,-205.083 2840.42,-310.086 2855.31,-354.736"/>
<polygon fill="#757575" stroke="#757575" points="2851.99,-355.838 2858.41,-364.261 2858.64,-353.668 2851.99,-355.838"/>
</g>
<!-- reducers/updateTime.js&#45;&gt;utils.js -->
<g id="edge39" class="edge"><title>reducers/updateTime.js&#45;&gt;utils.js</title>
<path fill="none" stroke="#757575" d="M2665.33,-251.595C2703.33,-275.633 2790.85,-330.991 2835.19,-359.044"/>
<polygon fill="#757575" stroke="#757575" points="2833.39,-362.046 2843.72,-364.434 2837.14,-356.13 2833.39,-362.046"/>
</g>
<!-- store/initialState.js&#45;&gt;scenes/sceneSymbols.js -->
<g id="edge59" class="edge"><title>store/initialState.js&#45;&gt;scenes/sceneSymbols.js</title>
<path fill="none" stroke="#757575" d="M2660.13,-448.721C2696.27,-481 2797.48,-571.379 2841.32,-610.53"/>
<polygon fill="#757575" stroke="#757575" points="2839.26,-613.382 2849.05,-617.432 2843.92,-608.161 2839.26,-613.382"/>
</g>
<!-- reducers/updateButtons.js -->
<g id="node32" class="node"><title>reducers/updateButtons.js</title>
<path fill="none" stroke="#c6c5fe" d="M2729.33,-407.5C2729.33,-407.5 2562.67,-407.5 2562.67,-407.5 2558.83,-407.5 2555,-403.667 2555,-399.833 2555,-399.833 2555,-392.167 2555,-392.167 2555,-388.333 2558.83,-384.5 2562.67,-384.5 2562.67,-384.5 2729.33,-384.5 2729.33,-384.5 2733.17,-384.5 2737,-388.333 2737,-392.167 2737,-392.167 2737,-399.833 2737,-399.833 2737,-403.667 2733.17,-407.5 2729.33,-407.5"/>
<text text-anchor="middle" x="2646" y="-392.3" font-family="Arial" font-size="14.00" fill="#c6c5fe">reducers/updateButtons.js</text>
</g>
<!-- reducers/updateButtons.js&#45;&gt;utils.js -->
<g id="edge35" class="edge"><title>reducers/updateButtons.js&#45;&gt;utils.js</title>
<path fill="none" stroke="#757575" d="M2737.24,-387.605C2767.88,-384.756 2800.43,-381.728 2824.6,-379.479"/>
<polygon fill="#757575" stroke="#757575" points="2825.11,-382.947 2834.74,-378.536 2824.46,-375.977 2825.11,-382.947"/>
</g>
<!-- scenes/charCreation.js&#45;&gt;actions/Core.js -->
<g id="edge40" class="edge"><title>scenes/charCreation.js&#45;&gt;actions/Core.js</title>
<path fill="none" stroke="#757575" d="M1332.65,-468.149C1347.37,-441.18 1387.47,-375.367 1442,-347 1499.43,-317.124 1574.26,-313.144 1627.03,-315.079"/>
<polygon fill="#757575" stroke="#757575" points="1627.14,-318.587 1637.28,-315.539 1627.45,-311.594 1627.14,-318.587"/>
</g>
<!-- scenes/charCreation.js&#45;&gt;actions/Player.js -->
<g id="edge41" class="edge"><title>scenes/charCreation.js&#45;&gt;actions/Player.js</title>
<path fill="none" stroke="#757575" d="M1377.66,-468.44C1490.24,-444.505 1767.89,-393.707 2000,-418 2012.77,-419.336 2026.35,-421.661 2039.11,-424.264"/>
<polygon fill="#757575" stroke="#757575" points="2038.63,-427.741 2049.14,-426.398 2040.09,-420.894 2038.63,-427.741"/>
</g>
<!-- scenes/charCreation.js&#45;&gt;symbols/breastCup.js -->
<g id="edge45" class="edge"><title>scenes/charCreation.js&#45;&gt;symbols/breastCup.js</title>
<path fill="none" stroke="#757575" d="M1349.32,-468.403C1372.17,-457.298 1408.65,-440.949 1442,-432 1704.88,-361.452 2028.7,-343.291 2180.62,-338.618"/>
<polygon fill="#757575" stroke="#757575" points="2180.92,-342.11 2190.81,-338.317 2180.72,-335.114 2180.92,-342.11"/>
</g>
<!-- scenes/charCreation.js&#45;&gt;scenes/menus.js -->
<g id="edge42" class="edge"><title>scenes/charCreation.js&#45;&gt;scenes/menus.js</title>
<path fill="none" stroke="#757575" d="M1340.79,-491.602C1369.25,-514.667 1431.24,-564.621 1442,-571 1448.33,-574.753 1455.31,-578.254 1462.21,-581.393"/>
<polygon fill="#757575" stroke="#757575" points="1460.94,-584.658 1471.5,-585.441 1463.73,-578.24 1460.94,-584.658"/>
</g>
<!-- scenes/charCreation.js&#45;&gt;scenes/sceneSymbols.js -->
<g id="edge43" class="edge"><title>scenes/charCreation.js&#45;&gt;scenes/sceneSymbols.js</title>
<path fill="none" stroke="#757575" d="M1332.5,-491.545C1347.17,-518.533 1387.67,-585.893 1442,-618 1539.48,-675.604 1578.77,-667 1692,-667 1692,-667 1692,-667 2450,-667 2562.17,-667 2690.79,-652.862 2774.06,-641.833"/>
<polygon fill="#757575" stroke="#757575" points="2774.53,-645.3 2783.98,-640.504 2773.6,-638.362 2774.53,-645.3"/>
</g>
<!-- scenes/sceneTextStore.js -->
<g id="node36" class="node"><title>scenes/sceneTextStore.js</title>
<path fill="none" stroke="#c6c5fe" d="M1776.33,-585.5C1776.33,-585.5 1609.67,-585.5 1609.67,-585.5 1605.83,-585.5 1602,-581.667 1602,-577.833 1602,-577.833 1602,-570.167 1602,-570.167 1602,-566.333 1605.83,-562.5 1609.67,-562.5 1609.67,-562.5 1776.33,-562.5 1776.33,-562.5 1780.17,-562.5 1784,-566.333 1784,-570.167 1784,-570.167 1784,-577.833 1784,-577.833 1784,-581.667 1780.17,-585.5 1776.33,-585.5"/>
<text text-anchor="middle" x="1693" y="-570.3" font-family="Arial" font-size="14.00" fill="#c6c5fe">scenes/sceneTextStore.js</text>
</g>
<!-- scenes/charCreation.js&#45;&gt;scenes/sceneTextStore.js -->
<g id="edge44" class="edge"><title>scenes/charCreation.js&#45;&gt;scenes/sceneTextStore.js</title>
<path fill="none" stroke="#757575" d="M1347.12,-491.521C1369.73,-503.653 1407.4,-522.433 1442,-533 1490.3,-547.75 1545.57,-557.517 1591.84,-563.803"/>
<polygon fill="#757575" stroke="#757575" points="1591.5,-567.288 1601.87,-565.131 1592.41,-560.349 1591.5,-567.288"/>
</g>
<!-- symbols/butt.js -->
<g id="node37" class="node"><title>symbols/butt.js</title>
<path fill="none" stroke="#c6c5fe" d="M1957.83,-491.5C1957.83,-491.5 1862.17,-491.5 1862.17,-491.5 1858.33,-491.5 1854.5,-487.667 1854.5,-483.833 1854.5,-483.833 1854.5,-476.167 1854.5,-476.167 1854.5,-472.333 1858.33,-468.5 1862.17,-468.5 1862.17,-468.5 1957.83,-468.5 1957.83,-468.5 1961.67,-468.5 1965.5,-472.333 1965.5,-476.167 1965.5,-476.167 1965.5,-483.833 1965.5,-483.833 1965.5,-487.667 1961.67,-491.5 1957.83,-491.5"/>
<text text-anchor="middle" x="1910" y="-476.3" font-family="Arial" font-size="14.00" fill="#c6c5fe">symbols/butt.js</text>
</g>
<!-- scenes/charCreation.js&#45;&gt;symbols/butt.js -->
<g id="edge46" class="edge"><title>scenes/charCreation.js&#45;&gt;symbols/butt.js</title>
<path fill="none" stroke="#757575" d="M1406.27,-480C1522.79,-480 1737.27,-480 1844.47,-480"/>
<polygon fill="#757575" stroke="#757575" points="1844.5,-483.5 1854.5,-480 1844.5,-476.5 1844.5,-483.5"/>
</g>
<!-- symbols/hips.js -->
<g id="node38" class="node"><title>symbols/hips.js</title>
<path fill="none" stroke="#c6c5fe" d="M2144.83,-562.5C2144.83,-562.5 2046.17,-562.5 2046.17,-562.5 2042.33,-562.5 2038.5,-558.667 2038.5,-554.833 2038.5,-554.833 2038.5,-547.167 2038.5,-547.167 2038.5,-543.333 2042.33,-539.5 2046.17,-539.5 2046.17,-539.5 2144.83,-539.5 2144.83,-539.5 2148.67,-539.5 2152.5,-543.333 2152.5,-547.167 2152.5,-547.167 2152.5,-554.833 2152.5,-554.833 2152.5,-558.667 2148.67,-562.5 2144.83,-562.5"/>
<text text-anchor="middle" x="2095.5" y="-547.3" font-family="Arial" font-size="14.00" fill="#c6c5fe">symbols/hips.js</text>
</g>
<!-- scenes/charCreation.js&#45;&gt;symbols/hips.js -->
<g id="edge47" class="edge"><title>scenes/charCreation.js&#45;&gt;symbols/hips.js</title>
<path fill="none" stroke="#757575" d="M1406.3,-490.026C1418.26,-491.426 1430.45,-492.796 1442,-494 1655.81,-516.291 1909.66,-536.743 2027.82,-545.917"/>
<polygon fill="#757575" stroke="#757575" points="2027.9,-549.433 2038.14,-546.716 2028.44,-542.454 2027.9,-549.433"/>
</g>
<!-- scenes/menus.js&#45;&gt;actions/Core.js -->
<g id="edge48" class="edge"><title>scenes/menus.js&#45;&gt;actions/Core.js</title>
<path fill="none" stroke="#757575" d="M1512.8,-585.492C1541.55,-543.057 1641.85,-395.015 1678.48,-340.957"/>
<polygon fill="#757575" stroke="#757575" points="1681.46,-342.799 1684.17,-332.557 1675.66,-338.873 1681.46,-342.799"/>
</g>
<!-- scenes/menus.js&#45;&gt;scenes/sceneSymbols.js -->
<g id="edge49" class="edge"><title>scenes/menus.js&#45;&gt;scenes/sceneSymbols.js</title>
<path fill="none" stroke="#757575" d="M1566.14,-604.869C1645.16,-614.344 1787.1,-629 1909,-629 1909,-629 1909,-629 2450,-629 2557.63,-629 2681.08,-629 2764.56,-629"/>
<polygon fill="#757575" stroke="#757575" points="2764.79,-632.5 2774.79,-629 2764.79,-625.5 2764.79,-632.5"/>
</g>
<!-- scenes/menus.js&#45;&gt;scenes/sceneTextStore.js -->
<g id="edge50" class="edge"><title>scenes/menus.js&#45;&gt;scenes/sceneTextStore.js</title>
<path fill="none" stroke="#757575" d="M1566.23,-589.469C1574.42,-588.461 1582.99,-587.407 1591.64,-586.344"/>
<polygon fill="#757575" stroke="#757575" points="1592.31,-589.788 1601.81,-585.093 1591.46,-582.84 1592.31,-589.788"/>
</g>
<!-- scenes/sceneTextStore.js&#45;&gt;components/nameInput.js -->
<g id="edge57" class="edge"><title>scenes/sceneTextStore.js&#45;&gt;components/nameInput.js</title>
<path fill="none" stroke="#757575" d="M1703.04,-562.431C1722.01,-538.986 1768.52,-485.827 1820,-459 1823.36,-457.25 1826.86,-455.653 1830.46,-454.195"/>
<polygon fill="#757575" stroke="#757575" points="1831.97,-457.37 1840.16,-450.651 1829.57,-450.795 1831.97,-457.37"/>
</g>
<!-- scenes/sceneTextStore.js&#45;&gt;scenes/sceneSymbols.js -->
<g id="edge58" class="edge"><title>scenes/sceneTextStore.js&#45;&gt;scenes/sceneSymbols.js</title>
<path fill="none" stroke="#757575" d="M1784.22,-580.017C1865.36,-584.908 1987.85,-591 2094.5,-591 2094.5,-591 2094.5,-591 2450,-591 2562.17,-591 2690.79,-605.138 2774.06,-616.167"/>
<polygon fill="#757575" stroke="#757575" points="2773.6,-619.638 2783.98,-617.496 2774.53,-612.7 2773.6,-619.638"/>
</g>
<!-- symbols/butt.js&#45;&gt;utils.js -->
<g id="edge62" class="edge"><title>symbols/butt.js&#45;&gt;utils.js</title>
<path fill="none" stroke="#757575" d="M1959.41,-491.591C2090.49,-520.566 2461.12,-586.416 2739,-479 2784.28,-461.497 2824.92,-420.082 2846.25,-395.429"/>
<polygon fill="#757575" stroke="#757575" points="2848.94,-397.667 2852.72,-387.77 2843.59,-393.149 2848.94,-397.667"/>
</g>
<!-- symbols/hips.js&#45;&gt;utils.js -->
<g id="edge63" class="edge"><title>symbols/hips.js&#45;&gt;utils.js</title>
<path fill="none" stroke="#757575" d="M2152.66,-554.951C2289.65,-563.666 2637.19,-579.943 2739,-529 2796.15,-500.406 2835.56,-431.627 2852.57,-396.863"/>
<polygon fill="#757575" stroke="#757575" points="2855.82,-398.169 2856.94,-387.634 2849.5,-395.171 2855.82,-398.169"/>
</g>
<!-- setupTests.js -->
<g id="node40" class="node"><title>setupTests.js</title>
<path fill="none" stroke="#cfffac" d="M94.3333,-150.5C94.3333,-150.5 7.66667,-150.5 7.66667,-150.5 3.83333,-150.5 0,-146.667 0,-142.833 0,-142.833 0,-135.167 0,-135.167 0,-131.333 3.83333,-127.5 7.66667,-127.5 7.66667,-127.5 94.3333,-127.5 94.3333,-127.5 98.1667,-127.5 102,-131.333 102,-135.167 102,-135.167 102,-142.833 102,-142.833 102,-146.667 98.1667,-150.5 94.3333,-150.5"/>
<text text-anchor="middle" x="51" y="-135.3" font-family="Arial" font-size="14.00" fill="#cfffac">setupTests.js</text>
</g>
</g>
</svg>
